<?xml version="1.0" encoding="utf-8" standalone="no"?>
<!DOCTYPE svg PUBLIC "-//W3C//DTD SVG 1.1//EN"
  "http://www.w3.org/Graphics/SVG/1.1/DTD/svg11.dtd">
<svg xmlns:xlink="http://www.w3.org/1999/xlink" width="460.8pt" height="345.6pt" viewBox="0 0 460.8 345.6" xmlns="http://www.w3.org/2000/svg" version="1.1">
 <metadata>
  <rdf:RDF xmlns:dc="http://purl.org/dc/elements/1.1/" xmlns:cc="http://creativecommons.org/ns#" xmlns:rdf="http://www.w3.org/1999/02/22-rdf-syntax-ns#">
   <cc:Work>
    <dc:type rdf:resource="http://purl.org/dc/dcmitype/StillImage"/>
    <dc:date>2023-02-01T16:58:52.586419</dc:date>
    <dc:format>image/svg+xml</dc:format>
    <dc:creator>
     <cc:Agent>
      <dc:title>Matplotlib v3.7.0rc1, https://matplotlib.org/</dc:title>
     </cc:Agent>
    </dc:creator>
   </cc:Work>
  </rdf:RDF>
 </metadata>
 <defs>
  <style type="text/css">*{stroke-linejoin: round; stroke-linecap: butt}</style>
 </defs>
 <g id="figure_1">
  <g id="patch_1">
   <path d="M 0 345.6 
L 460.8 345.6 
L 460.8 0 
L 0 0 
z
" style="fill: #ffffff"/>
  </g>
  <g id="axes_1">
   <g id="patch_2">
    <path d="M 57.6 307.584 
L 414.72 307.584 
L 414.72 41.472 
L 57.6 41.472 
z
" style="fill: #ffffff"/>
   </g>
   <g id="LineCollection_1">
    <path d="M 79.674394 251.221921 
L 79.674394 248.734675 
" clip-path="url(#pc707bcca54)" style="fill: none; stroke: #d62728; stroke-width: 1.5"/>
    <path d="M 85.325728 228.907913 
L 85.325728 226.446754 
" clip-path="url(#pc707bcca54)" style="fill: none; stroke: #d62728; stroke-width: 1.5"/>
    <path d="M 90.776534 209.490187 
L 90.776534 208.276437 
" clip-path="url(#pc707bcca54)" style="fill: none; stroke: #d62728; stroke-width: 1.5"/>
    <path d="M 96.018315 194.267792 
L 96.018315 193.055479 
" clip-path="url(#pc707bcca54)" style="fill: none; stroke: #d62728; stroke-width: 1.5"/>
    <path d="M 101.041723 181.871872 
L 101.041723 180.654182 
" clip-path="url(#pc707bcca54)" style="fill: none; stroke: #d62728; stroke-width: 1.5"/>
    <path d="M 105.825517 171.664873 
L 105.825517 170.458986 
" clip-path="url(#pc707bcca54)" style="fill: none; stroke: #d62728; stroke-width: 1.5"/>
    <path d="M 110.351853 161.772177 
L 110.351853 160.561887 
" clip-path="url(#pc707bcca54)" style="fill: none; stroke: #d62728; stroke-width: 1.5"/>
    <path d="M 114.610534 153.451475 
L 114.610534 152.213044 
" clip-path="url(#pc707bcca54)" style="fill: none; stroke: #d62728; stroke-width: 1.5"/>
    <path d="M 118.566723 146.823346 
L 118.566723 145.60236 
" clip-path="url(#pc707bcca54)" style="fill: none; stroke: #d62728; stroke-width: 1.5"/>
    <path d="M 122.211073 140.373858 
L 122.211073 139.105217 
" clip-path="url(#pc707bcca54)" style="fill: none; stroke: #d62728; stroke-width: 1.5"/>
    <path d="M 125.512146 134.214106 
L 125.512146 133.025587 
" clip-path="url(#pc707bcca54)" style="fill: none; stroke: #d62728; stroke-width: 1.5"/>
    <path d="M 128.44615 131.655251 
L 128.44615 130.449363 
" clip-path="url(#pc707bcca54)" style="fill: none; stroke: #d62728; stroke-width: 1.5"/>
   </g>
   <g id="line2d_1">
    <defs>
     <path id="mfe5d72c054" d="M 0 2 
C 0.530406 2 1.03916 1.789267 1.414214 1.414214 
C 1.789267 1.03916 2 0.530406 2 0 
C 2 -0.530406 1.789267 -1.03916 1.414214 -1.414214 
C 1.03916 -1.789267 0.530406 -2 0 -2 
C -0.530406 -2 -1.03916 -1.789267 -1.414214 -1.414214 
C -1.789267 -1.03916 -2 -0.530406 -2 0 
C -2 0.530406 -1.789267 1.03916 -1.414214 1.414214 
C -1.03916 1.789267 -0.530406 2 0 2 
z
" style="stroke: #d62728"/>
    </defs>
    <g clip-path="url(#pc707bcca54)">
     <use xlink:href="#mfe5d72c054" x="79.674394" y="249.915021" style="fill: #ffffff; stroke: #d62728"/>
     <use xlink:href="#mfe5d72c054" x="85.325728" y="227.615374" style="fill: #ffffff; stroke: #d62728"/>
     <use xlink:href="#mfe5d72c054" x="90.776534" y="208.868224" style="fill: #ffffff; stroke: #d62728"/>
     <use xlink:href="#mfe5d72c054" x="96.018315" y="193.646583" style="fill: #ffffff; stroke: #d62728"/>
     <use xlink:href="#mfe5d72c054" x="101.041723" y="181.247841" style="fill: #ffffff; stroke: #d62728"/>
     <use xlink:href="#mfe5d72c054" x="105.825517" y="171.047036" style="fill: #ffffff; stroke: #d62728"/>
     <use xlink:href="#mfe5d72c054" x="110.351853" y="161.15203" style="fill: #ffffff; stroke: #d62728"/>
     <use xlink:href="#mfe5d72c054" x="114.610534" y="152.816552" style="fill: #ffffff; stroke: #d62728"/>
     <use xlink:href="#mfe5d72c054" x="118.566723" y="146.197584" style="fill: #ffffff; stroke: #d62728"/>
     <use xlink:href="#mfe5d72c054" x="122.211073" y="139.723054" style="fill: #ffffff; stroke: #d62728"/>
     <use xlink:href="#mfe5d72c054" x="125.512146" y="133.605379" style="fill: #ffffff; stroke: #d62728"/>
     <use xlink:href="#mfe5d72c054" x="128.44615" y="131.037413" style="fill: #ffffff; stroke: #d62728"/>
    </g>
   </g>
   <g id="matplotlib.axis_1">
    <g id="xtick_1">
     <g id="line2d_2">
      <defs>
       <path id="m0e257898a9" d="M 0 0 
L 0 3.5 
" style="stroke: #000000; stroke-width: 0.8"/>
      </defs>
      <g>
       <use xlink:href="#m0e257898a9" x="79.29288" y="307.584" style="stroke: #000000; stroke-width: 0.8"/>
      </g>
     </g>
     <g id="text_1">
      <!-- 50000 -->
      <g transform="translate(63.38663 322.182437) scale(0.1 -0.1)">
       <defs>
        <path id="DejaVuSans-35" d="M 691 4666 
L 3169 4666 
L 3169 4134 
L 1269 4134 
L 1269 2991 
Q 1406 3038 1543 3061 
Q 1681 3084 1819 3084 
Q 2600 3084 3056 2656 
Q 3513 2228 3513 1497 
Q 3513 744 3044 326 
Q 2575 -91 1722 -91 
Q 1428 -91 1123 -41 
Q 819 9 494 109 
L 494 744 
Q 775 591 1075 516 
Q 1375 441 1709 441 
Q 2250 441 2565 725 
Q 2881 1009 2881 1497 
Q 2881 1984 2565 2268 
Q 2250 2553 1709 2553 
Q 1456 2553 1204 2497 
Q 953 2441 691 2322 
L 691 4666 
z
" transform="scale(0.015625)"/>
        <path id="DejaVuSans-30" d="M 2034 4250 
Q 1547 4250 1301 3770 
Q 1056 3291 1056 2328 
Q 1056 1369 1301 889 
Q 1547 409 2034 409 
Q 2525 409 2770 889 
Q 3016 1369 3016 2328 
Q 3016 3291 2770 3770 
Q 2525 4250 2034 4250 
z
M 2034 4750 
Q 2819 4750 3233 4129 
Q 3647 3509 3647 2328 
Q 3647 1150 3233 529 
Q 2819 -91 2034 -91 
Q 1250 -91 836 529 
Q 422 1150 422 2328 
Q 422 3509 836 4129 
Q 1250 4750 2034 4750 
z
" transform="scale(0.015625)"/>
       </defs>
       <use xlink:href="#DejaVuSans-35"/>
       <use xlink:href="#DejaVuSans-30" x="63.623047"/>
       <use xlink:href="#DejaVuSans-30" x="127.246094"/>
       <use xlink:href="#DejaVuSans-30" x="190.869141"/>
       <use xlink:href="#DejaVuSans-30" x="254.492188"/>
      </g>
     </g>
    </g>
    <g id="xtick_2">
     <g id="line2d_3">
      <g>
       <use xlink:href="#m0e257898a9" x="121.777728" y="307.584" style="stroke: #000000; stroke-width: 0.8"/>
      </g>
     </g>
     <g id="text_2">
      <!-- 55000 -->
      <g transform="translate(105.871478 322.182437) scale(0.1 -0.1)">
       <use xlink:href="#DejaVuSans-35"/>
       <use xlink:href="#DejaVuSans-35" x="63.623047"/>
       <use xlink:href="#DejaVuSans-30" x="127.246094"/>
       <use xlink:href="#DejaVuSans-30" x="190.869141"/>
       <use xlink:href="#DejaVuSans-30" x="254.492188"/>
      </g>
     </g>
    </g>
    <g id="xtick_3">
     <g id="line2d_4">
      <g>
       <use xlink:href="#m0e257898a9" x="164.262576" y="307.584" style="stroke: #000000; stroke-width: 0.8"/>
      </g>
     </g>
     <g id="text_3">
      <!-- 60000 -->
      <g transform="translate(148.356326 322.182437) scale(0.1 -0.1)">
       <defs>
        <path id="DejaVuSans-36" d="M 2113 2584 
Q 1688 2584 1439 2293 
Q 1191 2003 1191 1497 
Q 1191 994 1439 701 
Q 1688 409 2113 409 
Q 2538 409 2786 701 
Q 3034 994 3034 1497 
Q 3034 2003 2786 2293 
Q 2538 2584 2113 2584 
z
M 3366 4563 
L 3366 3988 
Q 3128 4100 2886 4159 
Q 2644 4219 2406 4219 
Q 1781 4219 1451 3797 
Q 1122 3375 1075 2522 
Q 1259 2794 1537 2939 
Q 1816 3084 2150 3084 
Q 2853 3084 3261 2657 
Q 3669 2231 3669 1497 
Q 3669 778 3244 343 
Q 2819 -91 2113 -91 
Q 1303 -91 875 529 
Q 447 1150 447 2328 
Q 447 3434 972 4092 
Q 1497 4750 2381 4750 
Q 2619 4750 2861 4703 
Q 3103 4656 3366 4563 
z
" transform="scale(0.015625)"/>
       </defs>
       <use xlink:href="#DejaVuSans-36"/>
       <use xlink:href="#DejaVuSans-30" x="63.623047"/>
       <use xlink:href="#DejaVuSans-30" x="127.246094"/>
       <use xlink:href="#DejaVuSans-30" x="190.869141"/>
       <use xlink:href="#DejaVuSans-30" x="254.492188"/>
      </g>
     </g>
    </g>
    <g id="xtick_4">
     <g id="line2d_5">
      <g>
       <use xlink:href="#m0e257898a9" x="206.747424" y="307.584" style="stroke: #000000; stroke-width: 0.8"/>
      </g>
     </g>
     <g id="text_4">
      <!-- 65000 -->
      <g transform="translate(190.841174 322.182437) scale(0.1 -0.1)">
       <use xlink:href="#DejaVuSans-36"/>
       <use xlink:href="#DejaVuSans-35" x="63.623047"/>
       <use xlink:href="#DejaVuSans-30" x="127.246094"/>
       <use xlink:href="#DejaVuSans-30" x="190.869141"/>
       <use xlink:href="#DejaVuSans-30" x="254.492188"/>
      </g>
     </g>
    </g>
    <g id="xtick_5">
     <g id="line2d_6">
      <g>
       <use xlink:href="#m0e257898a9" x="249.232272" y="307.584" style="stroke: #000000; stroke-width: 0.8"/>
      </g>
     </g>
     <g id="text_5">
      <!-- 70000 -->
      <g transform="translate(233.326022 322.182437) scale(0.1 -0.1)">
       <defs>
        <path id="DejaVuSans-37" d="M 525 4666 
L 3525 4666 
L 3525 4397 
L 1831 0 
L 1172 0 
L 2766 4134 
L 525 4134 
L 525 4666 
z
" transform="scale(0.015625)"/>
       </defs>
       <use xlink:href="#DejaVuSans-37"/>
       <use xlink:href="#DejaVuSans-30" x="63.623047"/>
       <use xlink:href="#DejaVuSans-30" x="127.246094"/>
       <use xlink:href="#DejaVuSans-30" x="190.869141"/>
       <use xlink:href="#DejaVuSans-30" x="254.492188"/>
      </g>
     </g>
    </g>
    <g id="xtick_6">
     <g id="line2d_7">
      <g>
       <use xlink:href="#m0e257898a9" x="291.71712" y="307.584" style="stroke: #000000; stroke-width: 0.8"/>
      </g>
     </g>
     <g id="text_6">
      <!-- 75000 -->
      <g transform="translate(275.81087 322.182437) scale(0.1 -0.1)">
       <use xlink:href="#DejaVuSans-37"/>
       <use xlink:href="#DejaVuSans-35" x="63.623047"/>
       <use xlink:href="#DejaVuSans-30" x="127.246094"/>
       <use xlink:href="#DejaVuSans-30" x="190.869141"/>
       <use xlink:href="#DejaVuSans-30" x="254.492188"/>
      </g>
     </g>
    </g>
    <g id="xtick_7">
     <g id="line2d_8">
      <g>
       <use xlink:href="#m0e257898a9" x="334.201968" y="307.584" style="stroke: #000000; stroke-width: 0.8"/>
      </g>
     </g>
     <g id="text_7">
      <!-- 80000 -->
      <g transform="translate(318.295718 322.182437) scale(0.1 -0.1)">
       <defs>
        <path id="DejaVuSans-38" d="M 2034 2216 
Q 1584 2216 1326 1975 
Q 1069 1734 1069 1313 
Q 1069 891 1326 650 
Q 1584 409 2034 409 
Q 2484 409 2743 651 
Q 3003 894 3003 1313 
Q 3003 1734 2745 1975 
Q 2488 2216 2034 2216 
z
M 1403 2484 
Q 997 2584 770 2862 
Q 544 3141 544 3541 
Q 544 4100 942 4425 
Q 1341 4750 2034 4750 
Q 2731 4750 3128 4425 
Q 3525 4100 3525 3541 
Q 3525 3141 3298 2862 
Q 3072 2584 2669 2484 
Q 3125 2378 3379 2068 
Q 3634 1759 3634 1313 
Q 3634 634 3220 271 
Q 2806 -91 2034 -91 
Q 1263 -91 848 271 
Q 434 634 434 1313 
Q 434 1759 690 2068 
Q 947 2378 1403 2484 
z
M 1172 3481 
Q 1172 3119 1398 2916 
Q 1625 2713 2034 2713 
Q 2441 2713 2670 2916 
Q 2900 3119 2900 3481 
Q 2900 3844 2670 4047 
Q 2441 4250 2034 4250 
Q 1625 4250 1398 4047 
Q 1172 3844 1172 3481 
z
" transform="scale(0.015625)"/>
       </defs>
       <use xlink:href="#DejaVuSans-38"/>
       <use xlink:href="#DejaVuSans-30" x="63.623047"/>
       <use xlink:href="#DejaVuSans-30" x="127.246094"/>
       <use xlink:href="#DejaVuSans-30" x="190.869141"/>
       <use xlink:href="#DejaVuSans-30" x="254.492188"/>
      </g>
     </g>
    </g>
    <g id="xtick_8">
     <g id="line2d_9">
      <g>
       <use xlink:href="#m0e257898a9" x="376.686817" y="307.584" style="stroke: #000000; stroke-width: 0.8"/>
      </g>
     </g>
     <g id="text_8">
      <!-- 85000 -->
      <g transform="translate(360.780567 322.182437) scale(0.1 -0.1)">
       <use xlink:href="#DejaVuSans-38"/>
       <use xlink:href="#DejaVuSans-35" x="63.623047"/>
       <use xlink:href="#DejaVuSans-30" x="127.246094"/>
       <use xlink:href="#DejaVuSans-30" x="190.869141"/>
       <use xlink:href="#DejaVuSans-30" x="254.492188"/>
      </g>
     </g>
    </g>
    <g id="text_9">
     <!-- wavenumber (cm$^{-1}$) -->
     <g transform="translate(184.96 336.582437) scale(0.1 -0.1)">
      <defs>
       <path id="DejaVuSans-77" d="M 269 3500 
L 844 3500 
L 1563 769 
L 2278 3500 
L 2956 3500 
L 3675 769 
L 4391 3500 
L 4966 3500 
L 4050 0 
L 3372 0 
L 2619 2869 
L 1863 0 
L 1184 0 
L 269 3500 
z
" transform="scale(0.015625)"/>
       <path id="DejaVuSans-61" d="M 2194 1759 
Q 1497 1759 1228 1600 
Q 959 1441 959 1056 
Q 959 750 1161 570 
Q 1363 391 1709 391 
Q 2188 391 2477 730 
Q 2766 1069 2766 1631 
L 2766 1759 
L 2194 1759 
z
M 3341 1997 
L 3341 0 
L 2766 0 
L 2766 531 
Q 2569 213 2275 61 
Q 1981 -91 1556 -91 
Q 1019 -91 701 211 
Q 384 513 384 1019 
Q 384 1609 779 1909 
Q 1175 2209 1959 2209 
L 2766 2209 
L 2766 2266 
Q 2766 2663 2505 2880 
Q 2244 3097 1772 3097 
Q 1472 3097 1187 3025 
Q 903 2953 641 2809 
L 641 3341 
Q 956 3463 1253 3523 
Q 1550 3584 1831 3584 
Q 2591 3584 2966 3190 
Q 3341 2797 3341 1997 
z
" transform="scale(0.015625)"/>
       <path id="DejaVuSans-76" d="M 191 3500 
L 800 3500 
L 1894 563 
L 2988 3500 
L 3597 3500 
L 2284 0 
L 1503 0 
L 191 3500 
z
" transform="scale(0.015625)"/>
       <path id="DejaVuSans-65" d="M 3597 1894 
L 3597 1613 
L 953 1613 
Q 991 1019 1311 708 
Q 1631 397 2203 397 
Q 2534 397 2845 478 
Q 3156 559 3463 722 
L 3463 178 
Q 3153 47 2828 -22 
Q 2503 -91 2169 -91 
Q 1331 -91 842 396 
Q 353 884 353 1716 
Q 353 2575 817 3079 
Q 1281 3584 2069 3584 
Q 2775 3584 3186 3129 
Q 3597 2675 3597 1894 
z
M 3022 2063 
Q 3016 2534 2758 2815 
Q 2500 3097 2075 3097 
Q 1594 3097 1305 2825 
Q 1016 2553 972 2059 
L 3022 2063 
z
" transform="scale(0.015625)"/>
       <path id="DejaVuSans-6e" d="M 3513 2113 
L 3513 0 
L 2938 0 
L 2938 2094 
Q 2938 2591 2744 2837 
Q 2550 3084 2163 3084 
Q 1697 3084 1428 2787 
Q 1159 2491 1159 1978 
L 1159 0 
L 581 0 
L 581 3500 
L 1159 3500 
L 1159 2956 
Q 1366 3272 1645 3428 
Q 1925 3584 2291 3584 
Q 2894 3584 3203 3211 
Q 3513 2838 3513 2113 
z
" transform="scale(0.015625)"/>
       <path id="DejaVuSans-75" d="M 544 1381 
L 544 3500 
L 1119 3500 
L 1119 1403 
Q 1119 906 1312 657 
Q 1506 409 1894 409 
Q 2359 409 2629 706 
Q 2900 1003 2900 1516 
L 2900 3500 
L 3475 3500 
L 3475 0 
L 2900 0 
L 2900 538 
Q 2691 219 2414 64 
Q 2138 -91 1772 -91 
Q 1169 -91 856 284 
Q 544 659 544 1381 
z
M 1991 3584 
L 1991 3584 
z
" transform="scale(0.015625)"/>
       <path id="DejaVuSans-6d" d="M 3328 2828 
Q 3544 3216 3844 3400 
Q 4144 3584 4550 3584 
Q 5097 3584 5394 3201 
Q 5691 2819 5691 2113 
L 5691 0 
L 5113 0 
L 5113 2094 
Q 5113 2597 4934 2840 
Q 4756 3084 4391 3084 
Q 3944 3084 3684 2787 
Q 3425 2491 3425 1978 
L 3425 0 
L 2847 0 
L 2847 2094 
Q 2847 2600 2669 2842 
Q 2491 3084 2119 3084 
Q 1678 3084 1418 2786 
Q 1159 2488 1159 1978 
L 1159 0 
L 581 0 
L 581 3500 
L 1159 3500 
L 1159 2956 
Q 1356 3278 1631 3431 
Q 1906 3584 2284 3584 
Q 2666 3584 2933 3390 
Q 3200 3197 3328 2828 
z
" transform="scale(0.015625)"/>
       <path id="DejaVuSans-62" d="M 3116 1747 
Q 3116 2381 2855 2742 
Q 2594 3103 2138 3103 
Q 1681 3103 1420 2742 
Q 1159 2381 1159 1747 
Q 1159 1113 1420 752 
Q 1681 391 2138 391 
Q 2594 391 2855 752 
Q 3116 1113 3116 1747 
z
M 1159 2969 
Q 1341 3281 1617 3432 
Q 1894 3584 2278 3584 
Q 2916 3584 3314 3078 
Q 3713 2572 3713 1747 
Q 3713 922 3314 415 
Q 2916 -91 2278 -91 
Q 1894 -91 1617 61 
Q 1341 213 1159 525 
L 1159 0 
L 581 0 
L 581 4863 
L 1159 4863 
L 1159 2969 
z
" transform="scale(0.015625)"/>
       <path id="DejaVuSans-72" d="M 2631 2963 
Q 2534 3019 2420 3045 
Q 2306 3072 2169 3072 
Q 1681 3072 1420 2755 
Q 1159 2438 1159 1844 
L 1159 0 
L 581 0 
L 581 3500 
L 1159 3500 
L 1159 2956 
Q 1341 3275 1631 3429 
Q 1922 3584 2338 3584 
Q 2397 3584 2469 3576 
Q 2541 3569 2628 3553 
L 2631 2963 
z
" transform="scale(0.015625)"/>
       <path id="DejaVuSans-20" transform="scale(0.015625)"/>
       <path id="DejaVuSans-28" d="M 1984 4856 
Q 1566 4138 1362 3434 
Q 1159 2731 1159 2009 
Q 1159 1288 1364 580 
Q 1569 -128 1984 -844 
L 1484 -844 
Q 1016 -109 783 600 
Q 550 1309 550 2009 
Q 550 2706 781 3412 
Q 1013 4119 1484 4856 
L 1984 4856 
z
" transform="scale(0.015625)"/>
       <path id="DejaVuSans-63" d="M 3122 3366 
L 3122 2828 
Q 2878 2963 2633 3030 
Q 2388 3097 2138 3097 
Q 1578 3097 1268 2742 
Q 959 2388 959 1747 
Q 959 1106 1268 751 
Q 1578 397 2138 397 
Q 2388 397 2633 464 
Q 2878 531 3122 666 
L 3122 134 
Q 2881 22 2623 -34 
Q 2366 -91 2075 -91 
Q 1284 -91 818 406 
Q 353 903 353 1747 
Q 353 2603 823 3093 
Q 1294 3584 2113 3584 
Q 2378 3584 2631 3529 
Q 2884 3475 3122 3366 
z
" transform="scale(0.015625)"/>
       <path id="DejaVuSans-2212" d="M 678 2272 
L 4684 2272 
L 4684 1741 
L 678 1741 
L 678 2272 
z
" transform="scale(0.015625)"/>
       <path id="DejaVuSans-31" d="M 794 531 
L 1825 531 
L 1825 4091 
L 703 3866 
L 703 4441 
L 1819 4666 
L 2450 4666 
L 2450 531 
L 3481 531 
L 3481 0 
L 794 0 
L 794 531 
z
" transform="scale(0.015625)"/>
       <path id="DejaVuSans-29" d="M 513 4856 
L 1013 4856 
Q 1481 4119 1714 3412 
Q 1947 2706 1947 2009 
Q 1947 1309 1714 600 
Q 1481 -109 1013 -844 
L 513 -844 
Q 928 -128 1133 580 
Q 1338 1288 1338 2009 
Q 1338 2731 1133 3434 
Q 928 4138 513 4856 
z
" transform="scale(0.015625)"/>
      </defs>
      <use xlink:href="#DejaVuSans-77" transform="translate(0 0.684375)"/>
      <use xlink:href="#DejaVuSans-61" transform="translate(81.787109 0.684375)"/>
      <use xlink:href="#DejaVuSans-76" transform="translate(143.066406 0.684375)"/>
      <use xlink:href="#DejaVuSans-65" transform="translate(202.246094 0.684375)"/>
      <use xlink:href="#DejaVuSans-6e" transform="translate(263.769531 0.684375)"/>
      <use xlink:href="#DejaVuSans-75" transform="translate(327.148438 0.684375)"/>
      <use xlink:href="#DejaVuSans-6d" transform="translate(390.527344 0.684375)"/>
      <use xlink:href="#DejaVuSans-62" transform="translate(487.939453 0.684375)"/>
      <use xlink:href="#DejaVuSans-65" transform="translate(551.416016 0.684375)"/>
      <use xlink:href="#DejaVuSans-72" transform="translate(612.939453 0.684375)"/>
      <use xlink:href="#DejaVuSans-20" transform="translate(654.052734 0.684375)"/>
      <use xlink:href="#DejaVuSans-28" transform="translate(685.839844 0.684375)"/>
      <use xlink:href="#DejaVuSans-63" transform="translate(724.853516 0.684375)"/>
      <use xlink:href="#DejaVuSans-6d" transform="translate(779.833984 0.684375)"/>
      <use xlink:href="#DejaVuSans-2212" transform="translate(878.203125 38.965625) scale(0.7)"/>
      <use xlink:href="#DejaVuSans-31" transform="translate(936.855469 38.965625) scale(0.7)"/>
      <use xlink:href="#DejaVuSans-29" transform="translate(984.125977 0.684375)"/>
     </g>
    </g>
   </g>
   <g id="matplotlib.axis_2">
    <g id="ytick_1">
     <g id="line2d_10">
      <defs>
       <path id="m94eaaab723" d="M 0 0 
L -3.5 0 
" style="stroke: #000000; stroke-width: 0.8"/>
      </defs>
      <g>
       <use xlink:href="#m94eaaab723" x="57.6" y="267.397196" style="stroke: #000000; stroke-width: 0.8"/>
      </g>
     </g>
     <g id="text_10">
      <!-- $\mathdefault{10^{-24}}$ -->
      <g transform="translate(22.7 271.196415) scale(0.1 -0.1)">
       <defs>
        <path id="DejaVuSans-32" d="M 1228 531 
L 3431 531 
L 3431 0 
L 469 0 
L 469 531 
Q 828 903 1448 1529 
Q 2069 2156 2228 2338 
Q 2531 2678 2651 2914 
Q 2772 3150 2772 3378 
Q 2772 3750 2511 3984 
Q 2250 4219 1831 4219 
Q 1534 4219 1204 4116 
Q 875 4013 500 3803 
L 500 4441 
Q 881 4594 1212 4672 
Q 1544 4750 1819 4750 
Q 2544 4750 2975 4387 
Q 3406 4025 3406 3419 
Q 3406 3131 3298 2873 
Q 3191 2616 2906 2266 
Q 2828 2175 2409 1742 
Q 1991 1309 1228 531 
z
" transform="scale(0.015625)"/>
        <path id="DejaVuSans-34" d="M 2419 4116 
L 825 1625 
L 2419 1625 
L 2419 4116 
z
M 2253 4666 
L 3047 4666 
L 3047 1625 
L 3713 1625 
L 3713 1100 
L 3047 1100 
L 3047 0 
L 2419 0 
L 2419 1100 
L 313 1100 
L 313 1709 
L 2253 4666 
z
" transform="scale(0.015625)"/>
       </defs>
       <use xlink:href="#DejaVuSans-31" transform="translate(0 0.765625)"/>
       <use xlink:href="#DejaVuSans-30" transform="translate(63.623047 0.765625)"/>
       <use xlink:href="#DejaVuSans-2212" transform="translate(128.203125 39.046875) scale(0.7)"/>
       <use xlink:href="#DejaVuSans-32" transform="translate(186.855469 39.046875) scale(0.7)"/>
       <use xlink:href="#DejaVuSans-34" transform="translate(231.391602 39.046875) scale(0.7)"/>
      </g>
     </g>
    </g>
    <g id="ytick_2">
     <g id="line2d_11">
      <g>
       <use xlink:href="#m94eaaab723" x="57.6" y="211.215589" style="stroke: #000000; stroke-width: 0.8"/>
      </g>
     </g>
     <g id="text_11">
      <!-- $\mathdefault{10^{-22}}$ -->
      <g transform="translate(22.7 215.014808) scale(0.1 -0.1)">
       <use xlink:href="#DejaVuSans-31" transform="translate(0 0.765625)"/>
       <use xlink:href="#DejaVuSans-30" transform="translate(63.623047 0.765625)"/>
       <use xlink:href="#DejaVuSans-2212" transform="translate(128.203125 39.046875) scale(0.7)"/>
       <use xlink:href="#DejaVuSans-32" transform="translate(186.855469 39.046875) scale(0.7)"/>
       <use xlink:href="#DejaVuSans-32" transform="translate(231.391602 39.046875) scale(0.7)"/>
      </g>
     </g>
    </g>
    <g id="ytick_3">
     <g id="line2d_12">
      <g>
       <use xlink:href="#m94eaaab723" x="57.6" y="155.033982" style="stroke: #000000; stroke-width: 0.8"/>
      </g>
     </g>
     <g id="text_12">
      <!-- $\mathdefault{10^{-20}}$ -->
      <g transform="translate(22.7 158.833201) scale(0.1 -0.1)">
       <use xlink:href="#DejaVuSans-31" transform="translate(0 0.765625)"/>
       <use xlink:href="#DejaVuSans-30" transform="translate(63.623047 0.765625)"/>
       <use xlink:href="#DejaVuSans-2212" transform="translate(128.203125 39.046875) scale(0.7)"/>
       <use xlink:href="#DejaVuSans-32" transform="translate(186.855469 39.046875) scale(0.7)"/>
       <use xlink:href="#DejaVuSans-30" transform="translate(231.391602 39.046875) scale(0.7)"/>
      </g>
     </g>
    </g>
    <g id="ytick_4">
     <g id="line2d_13">
      <g>
       <use xlink:href="#m94eaaab723" x="57.6" y="98.852375" style="stroke: #000000; stroke-width: 0.8"/>
      </g>
     </g>
     <g id="text_13">
      <!-- $\mathdefault{10^{-18}}$ -->
      <g transform="translate(22.7 102.651594) scale(0.1 -0.1)">
       <use xlink:href="#DejaVuSans-31" transform="translate(0 0.765625)"/>
       <use xlink:href="#DejaVuSans-30" transform="translate(63.623047 0.765625)"/>
       <use xlink:href="#DejaVuSans-2212" transform="translate(128.203125 39.046875) scale(0.7)"/>
       <use xlink:href="#DejaVuSans-31" transform="translate(186.855469 39.046875) scale(0.7)"/>
       <use xlink:href="#DejaVuSans-38" transform="translate(231.391602 39.046875) scale(0.7)"/>
      </g>
     </g>
    </g>
    <g id="ytick_5">
     <g id="line2d_14">
      <g>
       <use xlink:href="#m94eaaab723" x="57.6" y="42.670768" style="stroke: #000000; stroke-width: 0.8"/>
      </g>
     </g>
     <g id="text_14">
      <!-- $\mathdefault{10^{-16}}$ -->
      <g transform="translate(22.7 46.469987) scale(0.1 -0.1)">
       <use xlink:href="#DejaVuSans-31" transform="translate(0 0.765625)"/>
       <use xlink:href="#DejaVuSans-30" transform="translate(63.623047 0.765625)"/>
       <use xlink:href="#DejaVuSans-2212" transform="translate(128.203125 39.046875) scale(0.7)"/>
       <use xlink:href="#DejaVuSans-31" transform="translate(186.855469 39.046875) scale(0.7)"/>
       <use xlink:href="#DejaVuSans-36" transform="translate(231.391602 39.046875) scale(0.7)"/>
      </g>
     </g>
    </g>
    <g id="text_15">
     <!-- cross section (cm$^{2}$) -->
     <g transform="translate(16.620312 222.728) rotate(-90) scale(0.1 -0.1)">
      <defs>
       <path id="DejaVuSans-6f" d="M 1959 3097 
Q 1497 3097 1228 2736 
Q 959 2375 959 1747 
Q 959 1119 1226 758 
Q 1494 397 1959 397 
Q 2419 397 2687 759 
Q 2956 1122 2956 1747 
Q 2956 2369 2687 2733 
Q 2419 3097 1959 3097 
z
M 1959 3584 
Q 2709 3584 3137 3096 
Q 3566 2609 3566 1747 
Q 3566 888 3137 398 
Q 2709 -91 1959 -91 
Q 1206 -91 779 398 
Q 353 888 353 1747 
Q 353 2609 779 3096 
Q 1206 3584 1959 3584 
z
" transform="scale(0.015625)"/>
       <path id="DejaVuSans-73" d="M 2834 3397 
L 2834 2853 
Q 2591 2978 2328 3040 
Q 2066 3103 1784 3103 
Q 1356 3103 1142 2972 
Q 928 2841 928 2578 
Q 928 2378 1081 2264 
Q 1234 2150 1697 2047 
L 1894 2003 
Q 2506 1872 2764 1633 
Q 3022 1394 3022 966 
Q 3022 478 2636 193 
Q 2250 -91 1575 -91 
Q 1294 -91 989 -36 
Q 684 19 347 128 
L 347 722 
Q 666 556 975 473 
Q 1284 391 1588 391 
Q 1994 391 2212 530 
Q 2431 669 2431 922 
Q 2431 1156 2273 1281 
Q 2116 1406 1581 1522 
L 1381 1569 
Q 847 1681 609 1914 
Q 372 2147 372 2553 
Q 372 3047 722 3315 
Q 1072 3584 1716 3584 
Q 2034 3584 2315 3537 
Q 2597 3491 2834 3397 
z
" transform="scale(0.015625)"/>
       <path id="DejaVuSans-74" d="M 1172 4494 
L 1172 3500 
L 2356 3500 
L 2356 3053 
L 1172 3053 
L 1172 1153 
Q 1172 725 1289 603 
Q 1406 481 1766 481 
L 2356 481 
L 2356 0 
L 1766 0 
Q 1100 0 847 248 
Q 594 497 594 1153 
L 594 3053 
L 172 3053 
L 172 3500 
L 594 3500 
L 594 4494 
L 1172 4494 
z
" transform="scale(0.015625)"/>
       <path id="DejaVuSans-69" d="M 603 3500 
L 1178 3500 
L 1178 0 
L 603 0 
L 603 3500 
z
M 603 4863 
L 1178 4863 
L 1178 4134 
L 603 4134 
L 603 4863 
z
" transform="scale(0.015625)"/>
      </defs>
      <use xlink:href="#DejaVuSans-63" transform="translate(0 0.765625)"/>
      <use xlink:href="#DejaVuSans-72" transform="translate(54.980469 0.765625)"/>
      <use xlink:href="#DejaVuSans-6f" transform="translate(96.09375 0.765625)"/>
      <use xlink:href="#DejaVuSans-73" transform="translate(157.275391 0.765625)"/>
      <use xlink:href="#DejaVuSans-73" transform="translate(209.375 0.765625)"/>
      <use xlink:href="#DejaVuSans-20" transform="translate(261.474609 0.765625)"/>
      <use xlink:href="#DejaVuSans-73" transform="translate(293.261719 0.765625)"/>
      <use xlink:href="#DejaVuSans-65" transform="translate(345.361328 0.765625)"/>
      <use xlink:href="#DejaVuSans-63" transform="translate(406.884766 0.765625)"/>
      <use xlink:href="#DejaVuSans-74" transform="translate(461.865234 0.765625)"/>
      <use xlink:href="#DejaVuSans-69" transform="translate(501.074219 0.765625)"/>
      <use xlink:href="#DejaVuSans-6f" transform="translate(528.857422 0.765625)"/>
      <use xlink:href="#DejaVuSans-6e" transform="translate(590.039062 0.765625)"/>
      <use xlink:href="#DejaVuSans-20" transform="translate(653.417969 0.765625)"/>
      <use xlink:href="#DejaVuSans-28" transform="translate(685.205078 0.765625)"/>
      <use xlink:href="#DejaVuSans-63" transform="translate(724.21875 0.765625)"/>
      <use xlink:href="#DejaVuSans-6d" transform="translate(779.199219 0.765625)"/>
      <use xlink:href="#DejaVuSans-32" transform="translate(877.568359 39.046875) scale(0.7)"/>
      <use xlink:href="#DejaVuSans-29" transform="translate(924.838867 0.765625)"/>
     </g>
    </g>
   </g>
   <g id="line2d_15">
    <path d="M 141.320758 111.224314 
L 150.667425 101.837563 
L 154.91591 98.052382 
L 159.164394 94.572528 
L 163.412879 91.385872 
L 167.661364 88.47264 
L 171.909849 85.808696 
L 176.158334 83.372729 
L 181.256515 80.72421 
L 186.354697 78.352219 
L 191.452879 76.240028 
L 196.551061 74.370605 
L 201.649242 72.725058 
L 206.747424 71.291456 
L 211.845606 70.067682 
L 216.943788 69.051154 
L 222.04197 68.235627 
L 227.989848 67.523786 
L 233.937727 67.049498 
L 239.885606 66.800987 
L 245.833484 66.783576 
L 251.781363 66.997807 
L 257.729242 67.425206 
L 263.677121 68.052799 
L 267.925605 68.682458 
L 270.474696 69.225576 
L 272.17409 69.745909 
L 273.873484 70.501343 
L 274.723181 71.016179 
L 275.572878 71.665163 
L 277.272272 73.399164 
L 278.971666 75.309678 
L 279.821363 75.843838 
L 280.67106 75.852551 
L 281.520757 75.620088 
L 282.370454 75.796853 
L 283.220151 77.145927 
L 284.069848 80.071478 
L 285.769242 87.988939 
L 286.618939 90.504709 
L 287.468636 91.389443 
L 288.318333 91.244186 
L 290.017726 90.222983 
L 290.867423 89.909876 
L 291.71712 89.849402 
L 292.566817 90.076281 
L 293.416514 90.596446 
L 294.266211 91.436171 
L 295.115908 92.601007 
L 295.965605 94.099869 
L 296.815302 95.948737 
L 297.664999 98.118781 
L 299.364393 103.291796 
L 301.063787 108.711501 
L 301.913484 110.908515 
L 302.763181 112.389046 
L 303.612878 112.991759 
L 304.462575 112.823462 
L 305.312272 112.114279 
L 307.861363 109.236597 
L 308.71106 108.49767 
L 309.560757 107.97597 
L 310.410454 107.693835 
L 311.26015 107.657198 
L 312.109847 107.882117 
L 312.959544 108.379484 
L 313.809241 109.162445 
L 314.658938 110.24491 
L 315.508635 111.660294 
L 316.358332 113.433307 
L 317.208029 115.596032 
L 318.057726 118.194081 
L 318.907423 121.234138 
L 321.456514 131.526732 
L 322.306211 133.163562 
L 323.155908 132.328162 
L 324.005605 129.367362 
L 326.554696 117.9161 
L 328.25409 111.888378 
L 329.953484 107.277171 
L 331.652878 103.601345 
L 333.352271 100.247141 
L 334.201968 98.360639 
L 335.051665 95.900951 
L 335.901362 91.915727 
L 336.751059 82.548573 
L 337.600756 53.568 
L 338.450453 145.069827 
L 339.30015 126.286786 
L 340.149847 117.597004 
L 340.999544 114.4241 
L 341.849241 113.051662 
L 342.698938 112.55168 
L 343.548635 112.605494 
L 344.398332 113.072174 
L 345.248029 113.893513 
L 346.097726 115.078633 
L 346.947423 116.655947 
L 347.79712 118.705946 
L 348.646817 121.389326 
L 349.496514 124.961424 
L 350.346211 129.956185 
L 351.195908 137.572312 
L 352.045605 151.49615 
L 352.895302 187.41827 
L 353.744999 146.885326 
L 354.594696 126.570724 
L 356.294089 99.836012 
L 358.84318 63.182171 
L 359.692877 68.8642 
L 360.542574 78.213717 
L 361.392271 85.750376 
L 363.091665 97.356167 
L 365.640756 112.920935 
L 366.490453 118.809963 
L 367.34015 125.617992 
L 368.189847 133.996516 
L 369.039544 145.272369 
L 369.889241 162.245836 
L 370.738938 171.566123 
L 371.588635 153.891207 
L 372.438332 141.972011 
L 373.288029 133.894261 
L 374.137726 127.680171 
L 375.83712 117.329209 
L 375.83712 117.329209 
" clip-path="url(#pc707bcca54)" style="fill: none; stroke-dasharray: 5.55,2.4; stroke-dashoffset: 0; stroke: #1f77b4; stroke-width: 1.5"/>
   </g>
   <g id="line2d_16">
    <defs>
     <path id="md77dd9e3cc" d="M -3 0 
L 3 0 
M 0 3 
L 0 -3 
" style="stroke: #2ca02c"/>
    </defs>
    <g clip-path="url(#pc707bcca54)">
     <use xlink:href="#md77dd9e3cc" x="73.832727" y="280.114937" style="fill: #2ca02c; stroke: #2ca02c"/>
     <use xlink:href="#md77dd9e3cc" x="79.674394" y="249.476223" style="fill: #2ca02c; stroke: #2ca02c"/>
     <use xlink:href="#md77dd9e3cc" x="85.325728" y="226.876028" style="fill: #2ca02c; stroke: #2ca02c"/>
     <use xlink:href="#md77dd9e3cc" x="90.776534" y="208.806697" style="fill: #2ca02c; stroke: #2ca02c"/>
     <use xlink:href="#md77dd9e3cc" x="96.018315" y="193.845449" style="fill: #2ca02c; stroke: #2ca02c"/>
     <use xlink:href="#md77dd9e3cc" x="101.041723" y="181.190897" style="fill: #2ca02c; stroke: #2ca02c"/>
     <use xlink:href="#md77dd9e3cc" x="105.825517" y="170.405046" style="fill: #2ca02c; stroke: #2ca02c"/>
     <use xlink:href="#md77dd9e3cc" x="110.351853" y="161.195991" style="fill: #2ca02c; stroke: #2ca02c"/>
     <use xlink:href="#md77dd9e3cc" x="114.610534" y="153.226499" style="fill: #2ca02c; stroke: #2ca02c"/>
     <use xlink:href="#md77dd9e3cc" x="118.566723" y="146.44785" style="fill: #2ca02c; stroke: #2ca02c"/>
     <use xlink:href="#md77dd9e3cc" x="122.211073" y="140.621658" style="fill: #2ca02c; stroke: #2ca02c"/>
     <use xlink:href="#md77dd9e3cc" x="125.512146" y="135.625799" style="fill: #2ca02c; stroke: #2ca02c"/>
     <use xlink:href="#md77dd9e3cc" x="128.44615" y="131.490394" style="fill: #2ca02c; stroke: #2ca02c"/>
     <use xlink:href="#md77dd9e3cc" x="131.002038" y="127.939979" style="fill: #2ca02c; stroke: #2ca02c"/>
     <use xlink:href="#md77dd9e3cc" x="133.169615" y="125.096521" style="fill: #2ca02c; stroke: #2ca02c"/>
     <use xlink:href="#md77dd9e3cc" x="134.957378" y="122.790408" style="fill: #2ca02c; stroke: #2ca02c"/>
     <use xlink:href="#md77dd9e3cc" x="136.393365" y="120.97229" style="fill: #2ca02c; stroke: #2ca02c"/>
     <use xlink:href="#md77dd9e3cc" x="137.520064" y="119.620354" style="fill: #2ca02c; stroke: #2ca02c"/>
     <use xlink:href="#md77dd9e3cc" x="138.391003" y="118.471318" style="fill: #2ca02c; stroke: #2ca02c"/>
     <use xlink:href="#md77dd9e3cc" x="139.047819" y="117.212054" style="fill: #2ca02c; stroke: #2ca02c"/>
     <use xlink:href="#md77dd9e3cc" x="139.510054" y="115.823686" style="fill: #2ca02c; stroke: #2ca02c"/>
     <use xlink:href="#md77dd9e3cc" x="139.797251" y="123.095133" style="fill: #2ca02c; stroke: #2ca02c"/>
    </g>
   </g>
   <g id="line2d_17">
    <path d="M 139.928955 295.488 
L 139.928955 98.852375 
" clip-path="url(#pc707bcca54)" style="fill: none; stroke-dasharray: 3.7,1.6; stroke-dashoffset: 0; stroke: #000000"/>
   </g>
   <g id="line2d_18">
    <path d="M 398.487273 160.357246 
L 397.836317 140.022206 
L 397.186498 139.127729 
L 396.537815 134.513297 
L 395.890264 127.122929 
L 395.243843 122.093558 
L 394.598547 119.425916 
L 393.954374 107.542375 
L 392.669388 88.614638 
L 392.028567 84.977277 
L 390.750258 109.473745 
L 390.112764 129.962869 
L 389.476373 140.450002 
L 388.841082 148.874288 
L 388.206888 140.206897 
L 387.573788 124.193212 
L 386.94178 112.013114 
L 386.31086 102.854125 
L 385.681027 90.432488 
L 385.052277 88.924741 
L 384.424607 97.435646 
L 383.798014 111.835479 
L 383.172497 133.306267 
L 382.548051 138.311125 
L 381.924675 136.275644 
L 381.302365 127.492183 
L 380.060933 104.826145 
L 379.441807 97.315454 
L 378.823736 94.763653 
L 378.206717 95.096765 
L 377.590749 98.269356 
L 376.975829 102.18016 
L 375.74912 111.496448 
L 374.52657 117.63147 
L 373.916848 119.253096 
L 373.308157 120.308426 
L 372.700495 122.384 
L 372.09386 129.652625 
L 371.488249 138.878343 
L 370.280087 151.980124 
L 369.677532 147.090064 
L 368.475459 133.067213 
L 367.875937 126.165974 
L 366.679908 117.224621 
L 366.083395 111.673576 
L 364.893364 104.247285 
L 363.707305 97.876142 
L 362.525201 91.621933 
L 360.759413 77.18949 
L 360.172773 69.853209 
L 359.587106 65.698549 
L 359.00241 65.129972 
L 358.418684 67.74024 
L 357.835924 74.034911 
L 356.673293 90.859002 
L 355.514499 107.216836 
L 353.783462 138.815163 
L 353.208348 140.790315 
L 352.634179 139.014682 
L 350.917319 123.655641 
L 349.777428 117.834171 
L 349.208881 116.5425 
L 348.641263 115.659384 
L 346.94396 112.320501 
L 346.380036 111.421155 
L 345.817029 110.846091 
L 345.254937 110.508973 
L 344.693759 109.897517 
L 343.574133 105.864414 
L 342.458133 108.700817 
L 341.901488 109.839642 
L 341.345742 111.410359 
L 340.790895 113.535418 
L 340.236943 116.200022 
L 339.683884 117.095338 
L 339.131717 109.353707 
L 338.030048 74.522 
L 337.480542 71.844257 
L 335.837311 89.665157 
L 335.291324 92.977327 
L 334.201968 95.862034 
L 333.658597 97.471653 
L 333.116094 99.45589 
L 332.574456 100.990968 
L 332.033683 101.943497 
L 331.493771 103.196866 
L 330.954719 104.92059 
L 329.879186 107.611664 
L 329.342701 109.248247 
L 328.807067 110.446553 
L 327.738347 110.141924 
L 327.205256 112.305902 
L 326.141602 118.781742 
L 325.611036 121.738793 
L 325.081307 123.420228 
L 324.552413 123.474548 
L 324.024353 124.140936 
L 322.970726 129.970934 
L 321.92041 128.25942 
L 320.351109 121.960333 
L 319.309001 117.957428 
L 318.27015 114.670748 
L 316.717947 111.20662 
L 315.172985 108.507549 
L 314.659599 107.965969 
L 312.614005 106.47575 
L 312.104586 105.779181 
L 311.595955 105.443977 
L 311.08811 105.525142 
L 310.074771 106.541125 
L 309.569273 106.825331 
L 309.064554 107.284589 
L 308.560613 108.087053 
L 308.057447 107.986612 
L 307.555054 108.001866 
L 307.053433 108.937506 
L 306.052499 110.065343 
L 305.553182 110.965559 
L 305.05463 110.927554 
L 304.556841 111.271679 
L 304.059813 110.699462 
L 303.563545 110.691185 
L 303.068034 110.055101 
L 302.573279 108.899558 
L 302.079278 108.123466 
L 301.58603 106.743292 
L 300.601784 103.453275 
L 300.110783 102.124023 
L 299.131016 98.734367 
L 297.180376 93.974422 
L 295.241504 90.915393 
L 293.314295 88.902863 
L 292.834303 88.594782 
L 292.355031 88.496717 
L 291.398643 88.477469 
L 290.445119 88.471164 
L 289.494445 88.664498 
L 288.546609 88.690513 
L 288.073752 88.734243 
L 287.601599 88.582737 
L 287.130149 88.043752 
L 285.720002 84.960818 
L 284.783391 81.602893 
L 284.316128 79.372859 
L 283.383675 76.589305 
L 282.918483 75.461132 
L 282.453979 74.970588 
L 281.990161 74.700634 
L 281.527028 74.636222 
L 280.14172 74.751421 
L 279.68131 74.643012 
L 279.221577 74.394256 
L 278.762519 73.798932 
L 278.304136 73.021556 
L 277.389386 72.092281 
L 276.477314 70.569483 
L 275.567909 69.645376 
L 274.661159 68.746381 
L 272.855579 67.792157 
L 271.508278 67.328245 
L 269.275775 66.848975 
L 265.297714 66.4431 
L 256.212786 66.124813 
L 251.561027 66.132157 
L 250.722969 66.127233 
L 249.053889 66.177818 
L 246.980635 66.206423 
L 245.332411 66.278694 
L 241.251693 66.499746 
L 239.635144 66.619044 
L 235.632471 66.934435 
L 232.469543 67.22638 
L 228.176311 67.801534 
L 225.86132 68.124891 
L 224.328344 68.430621 
L 223.564936 68.511308 
L 222.803571 68.669369 
L 222.04424 68.72014 
L 221.286935 68.932399 
L 220.15476 69.113195 
L 215.300479 70.148467 
L 213.823571 70.432629 
L 210.528798 71.299402 
L 209.076881 71.767508 
L 208.715085 71.766302 
L 205.837625 72.640906 
L 204.054336 73.196424 
L 203.699061 73.385296 
L 202.989888 73.514817 
L 196.688791 75.860801 
L 194.620471 76.765558 
L 192.908887 77.463148 
L 191.887133 78.067043 
L 191.208115 78.121183 
L 188.509114 79.44185 
L 187.503974 79.818415 
L 186.835979 80.281023 
L 186.502609 80.214386 
L 186.169657 80.37206 
L 185.837121 80.701675 
L 185.505 80.793503 
L 185.173295 81.027842 
L 184.842003 81.472489 
L 183.850606 81.798028 
L 183.520963 81.847145 
L 182.862908 82.750691 
L 182.534493 82.50574 
L 181.551695 82.836324 
L 181.224909 83.227933 
L 180.572549 83.287394 
L 180.246974 83.653957 
L 179.921803 83.55938 
L 178.948696 84.340587 
L 178.625128 84.379787 
L 177.979188 84.718248 
L 177.656814 84.760335 
L 177.013256 85.221513 
L 175.411267 85.928285 
L 174.13673 86.839525 
L 173.184913 87.559199 
L 172.552303 87.871438 
L 172.236576 87.901579 
L 171.921233 88.108611 
L 171.606275 88.454609 
L 170.977507 88.745426 
L 167.856461 90.777355 
L 166.927488 91.350274 
L 165.386649 92.442484 
L 165.079592 92.552047 
L 164.772905 92.971374 
L 163.549829 93.806201 
L 162.940486 94.509439 
L 162.636362 94.318998 
L 161.12118 95.724467 
L 160.819227 95.520843 
L 160.2164 96.284293 
L 159.015041 97.199416 
L 158.715593 97.353157 
L 157.819376 98.219796 
L 157.223666 98.622995 
L 156.92634 99.277891 
L 156.629365 99.496695 
L 156.33274 99.396404 
L 156.036466 99.937368 
L 153.385657 102.062651 
L 152.800388 102.581247 
L 150.183583 105.00486 
L 149.317411 105.744661 
L 143.056798 112.190716 
L 142.775986 112.71003 
L 142.21533 113.024109 
L 141.935484 113.53302 
L 141.65596 113.755388 
L 141.097871 114.473598 
L 140.263131 115.28432 
L 139.98552 116.134908 
L 139.98552 116.134908 
" clip-path="url(#pc707bcca54)" style="fill: none; stroke: #ff7f0e; stroke-width: 1.5; stroke-linecap: square"/>
   </g>
   <g id="patch_3">
    <path d="M 57.6 307.584 
L 57.6 41.472 
" style="fill: none; stroke: #000000; stroke-width: 0.8; stroke-linejoin: miter; stroke-linecap: square"/>
   </g>
   <g id="patch_4">
    <path d="M 414.72 307.584 
L 414.72 41.472 
" style="fill: none; stroke: #000000; stroke-width: 0.8; stroke-linejoin: miter; stroke-linecap: square"/>
   </g>
   <g id="patch_5">
    <path d="M 57.6 307.584 
L 414.72 307.584 
" style="fill: none; stroke: #000000; stroke-width: 0.8; stroke-linejoin: miter; stroke-linecap: square"/>
   </g>
   <g id="patch_6">
    <path d="M 57.6 41.472 
L 414.72 41.472 
" style="fill: none; stroke: #000000; stroke-width: 0.8; stroke-linejoin: miter; stroke-linecap: square"/>
   </g>
   <g id="text_16">
    <!-- $f_{v^{\prime}0} \frac{dv^{\prime}}{dE}/1.13 \times 10^{12}$ -->
    <g transform="translate(70.79591 85.449656) scale(0.12 -0.12)">
     <defs>
      <path id="DejaVuSans-Oblique-66" d="M 3059 4863 
L 2969 4384 
L 2419 4384 
Q 2106 4384 1964 4261 
Q 1822 4138 1753 3809 
L 1691 3500 
L 2638 3500 
L 2553 3053 
L 1606 3053 
L 1013 0 
L 434 0 
L 1031 3053 
L 481 3053 
L 563 3500 
L 1113 3500 
L 1159 3744 
Q 1278 4363 1576 4613 
Q 1875 4863 2516 4863 
L 3059 4863 
z
" transform="scale(0.015625)"/>
      <path id="DejaVuSans-Oblique-76" d="M 459 3500 
L 1069 3500 
L 1581 525 
L 3256 3500 
L 3866 3500 
L 1875 0 
L 1100 0 
L 459 3500 
z
" transform="scale(0.015625)"/>
      <path id="Cmsy10-30" d="M 225 347 
Q 184 359 184 409 
L 966 3316 
Q 1003 3434 1093 3506 
Q 1184 3578 1300 3578 
Q 1450 3578 1564 3479 
Q 1678 3381 1678 3231 
Q 1678 3166 1644 3084 
L 488 319 
Q 466 275 428 275 
Q 394 275 320 306 
Q 247 338 225 347 
z
" transform="scale(0.015625)"/>
      <path id="DejaVuSans-Oblique-64" d="M 2675 525 
Q 2444 222 2128 65 
Q 1813 -91 1428 -91 
Q 903 -91 598 267 
Q 294 625 294 1247 
Q 294 1766 478 2236 
Q 663 2706 1013 3078 
Q 1244 3325 1534 3454 
Q 1825 3584 2144 3584 
Q 2481 3584 2739 3421 
Q 2997 3259 3138 2956 
L 3513 4863 
L 4091 4863 
L 3144 0 
L 2566 0 
L 2675 525 
z
M 891 1350 
Q 891 897 1095 644 
Q 1300 391 1663 391 
Q 1931 391 2161 520 
Q 2391 650 2566 903 
Q 2750 1166 2856 1509 
Q 2963 1853 2963 2188 
Q 2963 2622 2758 2865 
Q 2553 3109 2194 3109 
Q 1922 3109 1687 2981 
Q 1453 2853 1288 2613 
Q 1106 2353 998 2009 
Q 891 1666 891 1350 
z
" transform="scale(0.015625)"/>
      <path id="DejaVuSans-Oblique-45" d="M 1081 4666 
L 4031 4666 
L 3928 4134 
L 1606 4134 
L 1338 2753 
L 3566 2753 
L 3463 2222 
L 1234 2222 
L 909 531 
L 3284 531 
L 3181 0 
L 172 0 
L 1081 4666 
z
" transform="scale(0.015625)"/>
      <path id="DejaVuSans-2f" d="M 1625 4666 
L 2156 4666 
L 531 -594 
L 0 -594 
L 1625 4666 
z
" transform="scale(0.015625)"/>
      <path id="DejaVuSans-2e" d="M 684 794 
L 1344 794 
L 1344 0 
L 684 0 
L 684 794 
z
" transform="scale(0.015625)"/>
      <path id="DejaVuSans-33" d="M 2597 2516 
Q 3050 2419 3304 2112 
Q 3559 1806 3559 1356 
Q 3559 666 3084 287 
Q 2609 -91 1734 -91 
Q 1441 -91 1130 -33 
Q 819 25 488 141 
L 488 750 
Q 750 597 1062 519 
Q 1375 441 1716 441 
Q 2309 441 2620 675 
Q 2931 909 2931 1356 
Q 2931 1769 2642 2001 
Q 2353 2234 1838 2234 
L 1294 2234 
L 1294 2753 
L 1863 2753 
Q 2328 2753 2575 2939 
Q 2822 3125 2822 3475 
Q 2822 3834 2567 4026 
Q 2313 4219 1838 4219 
Q 1578 4219 1281 4162 
Q 984 4106 628 3988 
L 628 4550 
Q 988 4650 1302 4700 
Q 1616 4750 1894 4750 
Q 2613 4750 3031 4423 
Q 3450 4097 3450 3541 
Q 3450 3153 3228 2886 
Q 3006 2619 2597 2516 
z
" transform="scale(0.015625)"/>
      <path id="DejaVuSans-d7" d="M 4488 3438 
L 3059 2003 
L 4488 575 
L 4116 197 
L 2681 1631 
L 1247 197 
L 878 575 
L 2303 2003 
L 878 3438 
L 1247 3816 
L 2681 2381 
L 4116 3816 
L 4488 3438 
z
" transform="scale(0.015625)"/>
     </defs>
     <use xlink:href="#DejaVuSans-Oblique-66" transform="translate(0 0.016875)"/>
     <use xlink:href="#DejaVuSans-Oblique-76" transform="translate(35.205078 -16.389375) scale(0.7)"/>
     <use xlink:href="#Cmsy10-30" transform="translate(79.757161 10.4075) scale(0.49)"/>
     <use xlink:href="#DejaVuSans-30" transform="translate(95.141439 -16.389375) scale(0.7)"/>
     <use xlink:href="#DejaVuSans-Oblique-64" transform="translate(142.411947 44.809062) scale(0.7)"/>
     <use xlink:href="#DejaVuSans-Oblique-76" transform="translate(186.84554 44.809062) scale(0.7)"/>
     <use xlink:href="#Cmsy10-30" transform="translate(231.397624 71.605937) scale(0.49)"/>
     <use xlink:href="#DejaVuSans-Oblique-64" transform="translate(150.411947 -40.625313) scale(0.7)"/>
     <use xlink:href="#DejaVuSans-Oblique-45" transform="translate(194.84554 -40.625313) scale(0.7)"/>
     <use xlink:href="#DejaVuSans-2f" transform="translate(259.281901 0.016875)"/>
     <use xlink:href="#DejaVuSans-31" transform="translate(292.973307 0.016875)"/>
     <use xlink:href="#DejaVuSans-2e" transform="translate(356.596354 0.016875)"/>
     <use xlink:href="#DejaVuSans-31" transform="translate(388.383464 0.016875)"/>
     <use xlink:href="#DejaVuSans-33" transform="translate(452.00651 0.016875)"/>
     <use xlink:href="#DejaVuSans-d7" transform="translate(535.111979 0.016875)"/>
     <use xlink:href="#DejaVuSans-31" transform="translate(638.383464 0.016875)"/>
     <use xlink:href="#DejaVuSans-30" transform="translate(702.00651 0.016875)"/>
     <use xlink:href="#DejaVuSans-31" transform="translate(766.586589 38.298125) scale(0.7)"/>
     <use xlink:href="#DejaVuSans-32" transform="translate(811.122721 38.298125) scale(0.7)"/>
     <path d="M 142.411947 18.81375 
L 142.411947 25.06375 
L 246.781901 25.06375 
L 246.781901 18.81375 
L 142.411947 18.81375 
z
"/>
    </g>
   </g>
   <g id="text_17">
    <!-- $\sigma$ -->
    <g transform="translate(249.232272 107.30855) scale(0.12 -0.12)">
     <defs>
      <path id="DejaVuSans-Oblique-3c3" d="M 2219 3044 
Q 1744 3044 1422 2700 
Q 1081 2341 969 1747 
Q 844 1119 1044 756 
Q 1241 397 1706 397 
Q 2166 397 2503 759 
Q 2844 1122 2966 1747 
Q 3075 2319 2881 2700 
Q 2700 3044 2219 3044 
z
M 2309 3503 
L 4219 3500 
L 4106 2925 
L 3463 2925 
Q 3706 2438 3575 1747 
Q 3406 888 2884 400 
Q 2359 -91 1609 -91 
Q 856 -91 525 400 
Q 194 888 363 1747 
Q 528 2609 1050 3097 
Q 1484 3503 2309 3503 
z
" transform="scale(0.015625)"/>
     </defs>
     <use xlink:href="#DejaVuSans-Oblique-3c3" transform="translate(0 0.265625)"/>
    </g>
   </g>
   <g id="text_18">
    <!-- O$_{2}$ $^3\Pi_u, B{ }^{3}\Sigma_{u}^{-} - X{}^{3}\Sigma_{g}^{-}$ -->
    <g transform="translate(176.82 35.472) scale(0.12 -0.12)">
     <defs>
      <path id="DejaVuSans-4f" d="M 2522 4238 
Q 1834 4238 1429 3725 
Q 1025 3213 1025 2328 
Q 1025 1447 1429 934 
Q 1834 422 2522 422 
Q 3209 422 3611 934 
Q 4013 1447 4013 2328 
Q 4013 3213 3611 3725 
Q 3209 4238 2522 4238 
z
M 2522 4750 
Q 3503 4750 4090 4092 
Q 4678 3434 4678 2328 
Q 4678 1225 4090 567 
Q 3503 -91 2522 -91 
Q 1538 -91 948 565 
Q 359 1222 359 2328 
Q 359 3434 948 4092 
Q 1538 4750 2522 4750 
z
" transform="scale(0.015625)"/>
      <path id="DejaVuSans-3a0" d="M 4184 4666 
L 4184 0 
L 3553 0 
L 3553 4134 
L 1259 4134 
L 1259 0 
L 628 0 
L 628 4666 
L 4184 4666 
z
" transform="scale(0.015625)"/>
      <path id="DejaVuSans-Oblique-75" d="M 428 1388 
L 838 3500 
L 1416 3500 
L 1006 1409 
Q 975 1256 961 1147 
Q 947 1038 947 966 
Q 947 700 1109 554 
Q 1272 409 1569 409 
Q 2031 409 2368 721 
Q 2706 1034 2809 1563 
L 3194 3500 
L 3769 3500 
L 3091 0 
L 2516 0 
L 2631 550 
Q 2388 244 2052 76 
Q 1716 -91 1338 -91 
Q 878 -91 622 161 
Q 366 413 366 863 
Q 366 956 381 1097 
Q 397 1238 428 1388 
z
" transform="scale(0.015625)"/>
      <path id="DejaVuSans-2c" d="M 750 794 
L 1409 794 
L 1409 256 
L 897 -744 
L 494 -744 
L 750 256 
L 750 794 
z
" transform="scale(0.015625)"/>
      <path id="DejaVuSans-Oblique-42" d="M 1081 4666 
L 2694 4666 
Q 3350 4666 3675 4422 
Q 4000 4178 4000 3688 
Q 4000 3238 3720 2911 
Q 3441 2584 2988 2516 
Q 3375 2428 3569 2181 
Q 3763 1934 3763 1522 
Q 3763 819 3242 409 
Q 2722 0 1819 0 
L 172 0 
L 1081 4666 
z
M 1234 2228 
L 903 519 
L 1919 519 
Q 2491 519 2800 781 
Q 3109 1044 3109 1522 
Q 3109 1891 2904 2059 
Q 2700 2228 2247 2228 
L 1234 2228 
z
M 1606 4147 
L 1331 2741 
L 2272 2741 
Q 2775 2741 3058 2959 
Q 3341 3178 3341 3566 
Q 3341 3869 3150 4008 
Q 2959 4147 2541 4147 
L 1606 4147 
z
" transform="scale(0.015625)"/>
      <path id="DejaVuSans-3a3" d="M 1353 531 
L 3634 531 
L 3634 0 
L 628 0 
L 628 531 
L 2125 2481 
L 628 4134 
L 628 4666 
L 3578 4666 
L 3578 4134 
L 1353 4134 
L 2850 2494 
L 1353 531 
z
" transform="scale(0.015625)"/>
      <path id="DejaVuSans-Oblique-58" d="M 878 4666 
L 1516 4666 
L 2316 2981 
L 3763 4666 
L 4500 4666 
L 2578 2438 
L 3738 0 
L 3103 0 
L 2163 1966 
L 459 0 
L -275 0 
L 1906 2509 
L 878 4666 
z
" transform="scale(0.015625)"/>
      <path id="DejaVuSans-Oblique-67" d="M 3816 3500 
L 3219 434 
Q 3047 -456 2561 -893 
Q 2075 -1331 1253 -1331 
Q 950 -1331 690 -1286 
Q 431 -1241 206 -1147 
L 313 -588 
Q 525 -725 762 -790 
Q 1000 -856 1269 -856 
Q 1816 -856 2167 -557 
Q 2519 -259 2631 300 
L 2681 563 
Q 2441 288 2122 144 
Q 1803 0 1434 0 
Q 903 0 598 351 
Q 294 703 294 1319 
Q 294 1803 478 2267 
Q 663 2731 997 3091 
Q 1219 3328 1514 3456 
Q 1809 3584 2131 3584 
Q 2484 3584 2746 3420 
Q 3009 3256 3138 2956 
L 3238 3500 
L 3816 3500 
z
M 2950 2216 
Q 2950 2641 2750 2872 
Q 2550 3103 2181 3103 
Q 1953 3103 1747 3012 
Q 1541 2922 1394 2759 
Q 1156 2491 1023 2127 
Q 891 1763 891 1375 
Q 891 944 1092 712 
Q 1294 481 1672 481 
Q 2219 481 2584 976 
Q 2950 1472 2950 2216 
z
" transform="scale(0.015625)"/>
     </defs>
     <use xlink:href="#DejaVuSans-4f" transform="translate(0 0.765625)"/>
     <use xlink:href="#DejaVuSans-32" transform="translate(79.667969 -15.640625) scale(0.7)"/>
     <use xlink:href="#DejaVuSans-20" transform="translate(126.938477 0.765625)"/>
     <use xlink:href="#DejaVuSans-33" transform="translate(159.682617 39.046875) scale(0.7)"/>
     <use xlink:href="#DejaVuSans-3a0" transform="translate(206.953125 0.765625)"/>
     <use xlink:href="#DejaVuSans-Oblique-75" transform="translate(283.105469 -15.640625) scale(0.7)"/>
     <use xlink:href="#DejaVuSans-2c" transform="translate(330.205078 0.765625)"/>
     <use xlink:href="#DejaVuSans-Oblique-42" transform="translate(381.474609 0.765625)"/>
     <use xlink:href="#DejaVuSans-33" transform="translate(451.035156 39.046875) scale(0.7)"/>
     <use xlink:href="#DejaVuSans-3a3" transform="translate(498.305664 0.765625)"/>
     <use xlink:href="#DejaVuSans-2212" transform="translate(562.446289 39.046875) scale(0.7)"/>
     <use xlink:href="#DejaVuSans-Oblique-75" transform="translate(562.446289 -26.578125) scale(0.7)"/>
     <use xlink:href="#DejaVuSans-2212" transform="translate(643.31543 0.765625)"/>
     <use xlink:href="#DejaVuSans-Oblique-58" transform="translate(746.586914 0.765625)"/>
     <use xlink:href="#DejaVuSans-33" transform="translate(816.049805 39.046875) scale(0.7)"/>
     <use xlink:href="#DejaVuSans-3a3" transform="translate(863.320312 0.765625)"/>
     <use xlink:href="#DejaVuSans-2212" transform="translate(927.460938 39.046875) scale(0.7)"/>
     <use xlink:href="#DejaVuSans-Oblique-67" transform="translate(927.460938 -26.578125) scale(0.7)"/>
    </g>
   </g>
   <g id="legend_1">
    <g id="patch_7">
     <path d="M 182.46 302.584 
L 289.86 302.584 
Q 291.86 302.584 291.86 300.584 
L 291.86 242.82775 
Q 291.86 240.82775 289.86 240.82775 
L 182.46 240.82775 
Q 180.46 240.82775 180.46 242.82775 
L 180.46 300.584 
Q 180.46 302.584 182.46 302.584 
z
" style="fill: #ffffff; opacity: 0.8; stroke: #cccccc; stroke-linejoin: miter"/>
    </g>
    <g id="line2d_19">
     <path d="M 184.46 248.92775 
L 194.46 248.92775 
L 204.46 248.92775 
" style="fill: none; stroke-dasharray: 5.55,2.4; stroke-dashoffset: 0; stroke: #1f77b4; stroke-width: 1.5"/>
    </g>
    <g id="text_19">
     <!-- $\sigma$ PyDiatomic -->
     <g transform="translate(212.46 252.42775) scale(0.1 -0.1)">
      <defs>
       <path id="DejaVuSans-50" d="M 1259 4147 
L 1259 2394 
L 2053 2394 
Q 2494 2394 2734 2622 
Q 2975 2850 2975 3272 
Q 2975 3691 2734 3919 
Q 2494 4147 2053 4147 
L 1259 4147 
z
M 628 4666 
L 2053 4666 
Q 2838 4666 3239 4311 
Q 3641 3956 3641 3272 
Q 3641 2581 3239 2228 
Q 2838 1875 2053 1875 
L 1259 1875 
L 1259 0 
L 628 0 
L 628 4666 
z
" transform="scale(0.015625)"/>
       <path id="DejaVuSans-79" d="M 2059 -325 
Q 1816 -950 1584 -1140 
Q 1353 -1331 966 -1331 
L 506 -1331 
L 506 -850 
L 844 -850 
Q 1081 -850 1212 -737 
Q 1344 -625 1503 -206 
L 1606 56 
L 191 3500 
L 800 3500 
L 1894 763 
L 2988 3500 
L 3597 3500 
L 2059 -325 
z
" transform="scale(0.015625)"/>
       <path id="DejaVuSans-44" d="M 1259 4147 
L 1259 519 
L 2022 519 
Q 2988 519 3436 956 
Q 3884 1394 3884 2338 
Q 3884 3275 3436 3711 
Q 2988 4147 2022 4147 
L 1259 4147 
z
M 628 4666 
L 1925 4666 
Q 3281 4666 3915 4102 
Q 4550 3538 4550 2338 
Q 4550 1131 3912 565 
Q 3275 0 1925 0 
L 628 0 
L 628 4666 
z
" transform="scale(0.015625)"/>
      </defs>
      <use xlink:href="#DejaVuSans-Oblique-3c3" transform="translate(0 0.015625)"/>
      <use xlink:href="#DejaVuSans-20" transform="translate(63.378906 0.015625)"/>
      <use xlink:href="#DejaVuSans-50" transform="translate(95.166016 0.015625)"/>
      <use xlink:href="#DejaVuSans-79" transform="translate(155.46875 0.015625)"/>
      <use xlink:href="#DejaVuSans-44" transform="translate(214.648438 0.015625)"/>
      <use xlink:href="#DejaVuSans-69" transform="translate(291.650391 0.015625)"/>
      <use xlink:href="#DejaVuSans-61" transform="translate(319.433594 0.015625)"/>
      <use xlink:href="#DejaVuSans-74" transform="translate(380.712891 0.015625)"/>
      <use xlink:href="#DejaVuSans-6f" transform="translate(419.921875 0.015625)"/>
      <use xlink:href="#DejaVuSans-6d" transform="translate(481.103516 0.015625)"/>
      <use xlink:href="#DejaVuSans-69" transform="translate(578.515625 0.015625)"/>
      <use xlink:href="#DejaVuSans-63" transform="translate(606.298828 0.015625)"/>
     </g>
    </g>
    <g id="line2d_20">
     <g>
      <use xlink:href="#md77dd9e3cc" x="194.46" y="263.62775" style="fill: #2ca02c; stroke: #2ca02c"/>
     </g>
    </g>
    <g id="text_20">
     <!-- $f_{osc}$ PyDiatomic -->
     <g transform="translate(212.46 267.12775) scale(0.1 -0.1)">
      <defs>
       <path id="DejaVuSans-Oblique-6f" d="M 1625 -91 
Q 1009 -91 651 289 
Q 294 669 294 1325 
Q 294 1706 417 2101 
Q 541 2497 738 2766 
Q 1047 3184 1428 3384 
Q 1809 3584 2291 3584 
Q 2888 3584 3255 3212 
Q 3622 2841 3622 2241 
Q 3622 1825 3500 1412 
Q 3378 1000 3181 728 
Q 2875 309 2494 109 
Q 2113 -91 1625 -91 
z
M 891 1344 
Q 891 869 1089 633 
Q 1288 397 1691 397 
Q 2269 397 2648 901 
Q 3028 1406 3028 2181 
Q 3028 2634 2825 2865 
Q 2622 3097 2228 3097 
Q 1903 3097 1650 2945 
Q 1397 2794 1197 2484 
Q 1050 2253 970 1956 
Q 891 1659 891 1344 
z
" transform="scale(0.015625)"/>
       <path id="DejaVuSans-Oblique-73" d="M 3200 3397 
L 3091 2853 
Q 2863 2978 2609 3040 
Q 2356 3103 2088 3103 
Q 1634 3103 1373 2948 
Q 1113 2794 1113 2528 
Q 1113 2219 1719 2053 
Q 1766 2041 1788 2034 
L 1972 1978 
Q 2547 1819 2739 1644 
Q 2931 1469 2931 1166 
Q 2931 609 2489 259 
Q 2047 -91 1331 -91 
Q 1053 -91 747 -37 
Q 441 16 72 128 
L 184 722 
Q 500 559 806 475 
Q 1113 391 1394 391 
Q 1816 391 2080 572 
Q 2344 753 2344 1031 
Q 2344 1331 1650 1516 
L 1591 1531 
L 1394 1581 
Q 956 1697 753 1886 
Q 550 2075 550 2369 
Q 550 2928 970 3256 
Q 1391 3584 2113 3584 
Q 2397 3584 2667 3537 
Q 2938 3491 3200 3397 
z
" transform="scale(0.015625)"/>
       <path id="DejaVuSans-Oblique-63" d="M 3431 3366 
L 3316 2797 
Q 3109 2947 2876 3022 
Q 2644 3097 2394 3097 
Q 2119 3097 1870 3000 
Q 1622 2903 1453 2725 
Q 1184 2453 1037 2087 
Q 891 1722 891 1331 
Q 891 859 1127 628 
Q 1363 397 1844 397 
Q 2081 397 2348 469 
Q 2616 541 2906 684 
L 2797 116 
Q 2547 13 2283 -39 
Q 2019 -91 1741 -91 
Q 1044 -91 669 257 
Q 294 606 294 1253 
Q 294 1797 489 2255 
Q 684 2713 1069 3078 
Q 1331 3328 1684 3456 
Q 2038 3584 2456 3584 
Q 2700 3584 2940 3529 
Q 3181 3475 3431 3366 
z
" transform="scale(0.015625)"/>
      </defs>
      <use xlink:href="#DejaVuSans-Oblique-66" transform="translate(0 0.015625)"/>
      <use xlink:href="#DejaVuSans-Oblique-6f" transform="translate(35.205078 -16.390625) scale(0.7)"/>
      <use xlink:href="#DejaVuSans-Oblique-73" transform="translate(78.032227 -16.390625) scale(0.7)"/>
      <use xlink:href="#DejaVuSans-Oblique-63" transform="translate(114.501953 -16.390625) scale(0.7)"/>
      <use xlink:href="#DejaVuSans-20" transform="translate(155.722656 0.015625)"/>
      <use xlink:href="#DejaVuSans-50" transform="translate(187.509766 0.015625)"/>
      <use xlink:href="#DejaVuSans-79" transform="translate(247.8125 0.015625)"/>
      <use xlink:href="#DejaVuSans-44" transform="translate(306.992188 0.015625)"/>
      <use xlink:href="#DejaVuSans-69" transform="translate(383.994141 0.015625)"/>
      <use xlink:href="#DejaVuSans-61" transform="translate(411.777344 0.015625)"/>
      <use xlink:href="#DejaVuSans-74" transform="translate(473.056641 0.015625)"/>
      <use xlink:href="#DejaVuSans-6f" transform="translate(512.265625 0.015625)"/>
      <use xlink:href="#DejaVuSans-6d" transform="translate(573.447266 0.015625)"/>
      <use xlink:href="#DejaVuSans-69" transform="translate(670.859375 0.015625)"/>
      <use xlink:href="#DejaVuSans-63" transform="translate(698.642578 0.015625)"/>
     </g>
    </g>
    <g id="line2d_21">
     <path d="M 184.46 278.326187 
L 194.46 278.326187 
L 204.46 278.326187 
" style="fill: none; stroke: #ff7f0e; stroke-width: 1.5; stroke-linecap: square"/>
    </g>
    <g id="text_21">
     <!-- ANU expt. -->
     <g transform="translate(212.46 281.826187) scale(0.1 -0.1)">
      <defs>
       <path id="DejaVuSans-41" d="M 2188 4044 
L 1331 1722 
L 3047 1722 
L 2188 4044 
z
M 1831 4666 
L 2547 4666 
L 4325 0 
L 3669 0 
L 3244 1197 
L 1141 1197 
L 716 0 
L 50 0 
L 1831 4666 
z
" transform="scale(0.015625)"/>
       <path id="DejaVuSans-4e" d="M 628 4666 
L 1478 4666 
L 3547 763 
L 3547 4666 
L 4159 4666 
L 4159 0 
L 3309 0 
L 1241 3903 
L 1241 0 
L 628 0 
L 628 4666 
z
" transform="scale(0.015625)"/>
       <path id="DejaVuSans-55" d="M 556 4666 
L 1191 4666 
L 1191 1831 
Q 1191 1081 1462 751 
Q 1734 422 2344 422 
Q 2950 422 3222 751 
Q 3494 1081 3494 1831 
L 3494 4666 
L 4128 4666 
L 4128 1753 
Q 4128 841 3676 375 
Q 3225 -91 2344 -91 
Q 1459 -91 1007 375 
Q 556 841 556 1753 
L 556 4666 
z
" transform="scale(0.015625)"/>
       <path id="DejaVuSans-78" d="M 3513 3500 
L 2247 1797 
L 3578 0 
L 2900 0 
L 1881 1375 
L 863 0 
L 184 0 
L 1544 1831 
L 300 3500 
L 978 3500 
L 1906 2253 
L 2834 3500 
L 3513 3500 
z
" transform="scale(0.015625)"/>
       <path id="DejaVuSans-70" d="M 1159 525 
L 1159 -1331 
L 581 -1331 
L 581 3500 
L 1159 3500 
L 1159 2969 
Q 1341 3281 1617 3432 
Q 1894 3584 2278 3584 
Q 2916 3584 3314 3078 
Q 3713 2572 3713 1747 
Q 3713 922 3314 415 
Q 2916 -91 2278 -91 
Q 1894 -91 1617 61 
Q 1341 213 1159 525 
z
M 3116 1747 
Q 3116 2381 2855 2742 
Q 2594 3103 2138 3103 
Q 1681 3103 1420 2742 
Q 1159 2381 1159 1747 
Q 1159 1113 1420 752 
Q 1681 391 2138 391 
Q 2594 391 2855 752 
Q 3116 1113 3116 1747 
z
" transform="scale(0.015625)"/>
      </defs>
      <use xlink:href="#DejaVuSans-41"/>
      <use xlink:href="#DejaVuSans-4e" x="68.408203"/>
      <use xlink:href="#DejaVuSans-55" x="143.212891"/>
      <use xlink:href="#DejaVuSans-20" x="216.40625"/>
      <use xlink:href="#DejaVuSans-65" x="248.193359"/>
      <use xlink:href="#DejaVuSans-78" x="307.966797"/>
      <use xlink:href="#DejaVuSans-70" x="367.146484"/>
      <use xlink:href="#DejaVuSans-74" x="430.623047"/>
      <use xlink:href="#DejaVuSans-2e" x="469.832031"/>
     </g>
    </g>
    <g id="LineCollection_2">
     <path d="M 194.46 298.004312 
L 194.46 288.004312 
" style="fill: none; stroke: #d62728; stroke-width: 1.5"/>
    </g>
    <g id="line2d_22"/>
    <g id="line2d_23">
     <g>
      <use xlink:href="#mfe5d72c054" x="194.46" y="293.004312" style="fill: #ffffff; stroke: #d62728"/>
     </g>
    </g>
    <g id="text_22">
     <!-- Yoshino -->
     <g transform="translate(212.46 296.504312) scale(0.1 -0.1)">
      <defs>
       <path id="DejaVuSans-59" d="M -13 4666 
L 666 4666 
L 1959 2747 
L 3244 4666 
L 3922 4666 
L 2272 2222 
L 2272 0 
L 1638 0 
L 1638 2222 
L -13 4666 
z
" transform="scale(0.015625)"/>
       <path id="DejaVuSans-68" d="M 3513 2113 
L 3513 0 
L 2938 0 
L 2938 2094 
Q 2938 2591 2744 2837 
Q 2550 3084 2163 3084 
Q 1697 3084 1428 2787 
Q 1159 2491 1159 1978 
L 1159 0 
L 581 0 
L 581 4863 
L 1159 4863 
L 1159 2956 
Q 1366 3272 1645 3428 
Q 1925 3584 2291 3584 
Q 2894 3584 3203 3211 
Q 3513 2838 3513 2113 
z
" transform="scale(0.015625)"/>
      </defs>
      <use xlink:href="#DejaVuSans-59"/>
      <use xlink:href="#DejaVuSans-6f" x="47.833984"/>
      <use xlink:href="#DejaVuSans-73" x="109.015625"/>
      <use xlink:href="#DejaVuSans-68" x="161.115234"/>
      <use xlink:href="#DejaVuSans-69" x="224.494141"/>
      <use xlink:href="#DejaVuSans-6e" x="252.277344"/>
      <use xlink:href="#DejaVuSans-6f" x="315.65625"/>
     </g>
    </g>
   </g>
  </g>
 </g>
 <defs>
  <clipPath id="pc707bcca54">
   <rect x="57.6" y="41.472" width="357.12" height="266.112"/>
  </clipPath>
 </defs>
</svg>
