<?xml version="1.0" encoding="utf-8" standalone="no"?>
<!DOCTYPE svg PUBLIC "-//W3C//DTD SVG 1.1//EN"
  "http://www.w3.org/Graphics/SVG/1.1/DTD/svg11.dtd">
<svg xmlns:xlink="http://www.w3.org/1999/xlink" width="460.8pt" height="345.6pt" viewBox="0 0 460.8 345.6" xmlns="http://www.w3.org/2000/svg" version="1.1">
 <metadata>
  <rdf:RDF xmlns:dc="http://purl.org/dc/elements/1.1/" xmlns:cc="http://creativecommons.org/ns#" xmlns:rdf="http://www.w3.org/1999/02/22-rdf-syntax-ns#">
   <cc:Work>
    <dc:type rdf:resource="http://purl.org/dc/dcmitype/StillImage"/>
    <dc:date>2023-02-08T18:05:03.287887</dc:date>
    <dc:format>image/svg+xml</dc:format>
    <dc:creator>
     <cc:Agent>
      <dc:title>Matplotlib v3.7.0rc1, https://matplotlib.org/</dc:title>
     </cc:Agent>
    </dc:creator>
   </cc:Work>
  </rdf:RDF>
 </metadata>
 <defs>
  <style type="text/css">*{stroke-linejoin: round; stroke-linecap: butt}</style>
 </defs>
 <g id="figure_1">
  <g id="patch_1">
   <path d="M 0 345.6 
L 460.8 345.6 
L 460.8 0 
L 0 0 
z
" style="fill: #ffffff"/>
  </g>
  <g id="axes_1">
   <g id="patch_2">
    <path d="M 48.602 299.608 
L 249.301 299.608 
L 249.301 26.88 
L 48.602 26.88 
z
" style="fill: #ffffff"/>
   </g>
   <g id="matplotlib.axis_1">
    <g id="xtick_1">
     <g id="line2d_1">
      <defs>
       <path id="m36c292bbb5" d="M 0 0 
L 0 3.5 
" style="stroke: #000000; stroke-width: 0.8"/>
      </defs>
      <g>
       <use xlink:href="#m36c292bbb5" x="236.757312" y="299.608" style="stroke: #000000; stroke-width: 0.8"/>
      </g>
     </g>
     <g id="text_1">
      <!-- 0.0 -->
      <g transform="translate(228.80575 314.206437) scale(0.1 -0.1)">
       <defs>
        <path id="DejaVuSans-30" d="M 2034 4250 
Q 1547 4250 1301 3770 
Q 1056 3291 1056 2328 
Q 1056 1369 1301 889 
Q 1547 409 2034 409 
Q 2525 409 2770 889 
Q 3016 1369 3016 2328 
Q 3016 3291 2770 3770 
Q 2525 4250 2034 4250 
z
M 2034 4750 
Q 2819 4750 3233 4129 
Q 3647 3509 3647 2328 
Q 3647 1150 3233 529 
Q 2819 -91 2034 -91 
Q 1250 -91 836 529 
Q 422 1150 422 2328 
Q 422 3509 836 4129 
Q 1250 4750 2034 4750 
z
" transform="scale(0.015625)"/>
        <path id="DejaVuSans-2e" d="M 684 794 
L 1344 794 
L 1344 0 
L 684 0 
L 684 794 
z
" transform="scale(0.015625)"/>
       </defs>
       <use xlink:href="#DejaVuSans-30"/>
       <use xlink:href="#DejaVuSans-2e" x="63.623047"/>
       <use xlink:href="#DejaVuSans-30" x="95.410156"/>
      </g>
     </g>
    </g>
    <g id="xtick_2">
     <g id="line2d_2">
      <g>
       <use xlink:href="#m36c292bbb5" x="174.038875" y="299.608" style="stroke: #000000; stroke-width: 0.8"/>
      </g>
     </g>
     <g id="text_2">
      <!-- 0.5 -->
      <g transform="translate(166.087312 314.206437) scale(0.1 -0.1)">
       <defs>
        <path id="DejaVuSans-35" d="M 691 4666 
L 3169 4666 
L 3169 4134 
L 1269 4134 
L 1269 2991 
Q 1406 3038 1543 3061 
Q 1681 3084 1819 3084 
Q 2600 3084 3056 2656 
Q 3513 2228 3513 1497 
Q 3513 744 3044 326 
Q 2575 -91 1722 -91 
Q 1428 -91 1123 -41 
Q 819 9 494 109 
L 494 744 
Q 775 591 1075 516 
Q 1375 441 1709 441 
Q 2250 441 2565 725 
Q 2881 1009 2881 1497 
Q 2881 1984 2565 2268 
Q 2250 2553 1709 2553 
Q 1456 2553 1204 2497 
Q 953 2441 691 2322 
L 691 4666 
z
" transform="scale(0.015625)"/>
       </defs>
       <use xlink:href="#DejaVuSans-30"/>
       <use xlink:href="#DejaVuSans-2e" x="63.623047"/>
       <use xlink:href="#DejaVuSans-35" x="95.410156"/>
      </g>
     </g>
    </g>
    <g id="xtick_3">
     <g id="line2d_3">
      <g>
       <use xlink:href="#m36c292bbb5" x="111.320437" y="299.608" style="stroke: #000000; stroke-width: 0.8"/>
      </g>
     </g>
     <g id="text_3">
      <!-- 1.0 -->
      <g transform="translate(103.368875 314.206437) scale(0.1 -0.1)">
       <defs>
        <path id="DejaVuSans-31" d="M 794 531 
L 1825 531 
L 1825 4091 
L 703 3866 
L 703 4441 
L 1819 4666 
L 2450 4666 
L 2450 531 
L 3481 531 
L 3481 0 
L 794 0 
L 794 531 
z
" transform="scale(0.015625)"/>
       </defs>
       <use xlink:href="#DejaVuSans-31"/>
       <use xlink:href="#DejaVuSans-2e" x="63.623047"/>
       <use xlink:href="#DejaVuSans-30" x="95.410156"/>
      </g>
     </g>
    </g>
    <g id="xtick_4">
     <g id="line2d_4">
      <g>
       <use xlink:href="#m36c292bbb5" x="48.602" y="299.608" style="stroke: #000000; stroke-width: 0.8"/>
      </g>
     </g>
     <g id="text_4">
      <!-- 1.5 -->
      <g transform="translate(40.650437 314.206437) scale(0.1 -0.1)">
       <use xlink:href="#DejaVuSans-31"/>
       <use xlink:href="#DejaVuSans-2e" x="63.623047"/>
       <use xlink:href="#DejaVuSans-35" x="95.410156"/>
      </g>
     </g>
    </g>
    <g id="text_5">
     <!-- cross section (cm$^{2}$) -->
     <g transform="translate(100.7515 328.706437) scale(0.1 -0.1)">
      <defs>
       <path id="DejaVuSans-63" d="M 3122 3366 
L 3122 2828 
Q 2878 2963 2633 3030 
Q 2388 3097 2138 3097 
Q 1578 3097 1268 2742 
Q 959 2388 959 1747 
Q 959 1106 1268 751 
Q 1578 397 2138 397 
Q 2388 397 2633 464 
Q 2878 531 3122 666 
L 3122 134 
Q 2881 22 2623 -34 
Q 2366 -91 2075 -91 
Q 1284 -91 818 406 
Q 353 903 353 1747 
Q 353 2603 823 3093 
Q 1294 3584 2113 3584 
Q 2378 3584 2631 3529 
Q 2884 3475 3122 3366 
z
" transform="scale(0.015625)"/>
       <path id="DejaVuSans-72" d="M 2631 2963 
Q 2534 3019 2420 3045 
Q 2306 3072 2169 3072 
Q 1681 3072 1420 2755 
Q 1159 2438 1159 1844 
L 1159 0 
L 581 0 
L 581 3500 
L 1159 3500 
L 1159 2956 
Q 1341 3275 1631 3429 
Q 1922 3584 2338 3584 
Q 2397 3584 2469 3576 
Q 2541 3569 2628 3553 
L 2631 2963 
z
" transform="scale(0.015625)"/>
       <path id="DejaVuSans-6f" d="M 1959 3097 
Q 1497 3097 1228 2736 
Q 959 2375 959 1747 
Q 959 1119 1226 758 
Q 1494 397 1959 397 
Q 2419 397 2687 759 
Q 2956 1122 2956 1747 
Q 2956 2369 2687 2733 
Q 2419 3097 1959 3097 
z
M 1959 3584 
Q 2709 3584 3137 3096 
Q 3566 2609 3566 1747 
Q 3566 888 3137 398 
Q 2709 -91 1959 -91 
Q 1206 -91 779 398 
Q 353 888 353 1747 
Q 353 2609 779 3096 
Q 1206 3584 1959 3584 
z
" transform="scale(0.015625)"/>
       <path id="DejaVuSans-73" d="M 2834 3397 
L 2834 2853 
Q 2591 2978 2328 3040 
Q 2066 3103 1784 3103 
Q 1356 3103 1142 2972 
Q 928 2841 928 2578 
Q 928 2378 1081 2264 
Q 1234 2150 1697 2047 
L 1894 2003 
Q 2506 1872 2764 1633 
Q 3022 1394 3022 966 
Q 3022 478 2636 193 
Q 2250 -91 1575 -91 
Q 1294 -91 989 -36 
Q 684 19 347 128 
L 347 722 
Q 666 556 975 473 
Q 1284 391 1588 391 
Q 1994 391 2212 530 
Q 2431 669 2431 922 
Q 2431 1156 2273 1281 
Q 2116 1406 1581 1522 
L 1381 1569 
Q 847 1681 609 1914 
Q 372 2147 372 2553 
Q 372 3047 722 3315 
Q 1072 3584 1716 3584 
Q 2034 3584 2315 3537 
Q 2597 3491 2834 3397 
z
" transform="scale(0.015625)"/>
       <path id="DejaVuSans-20" transform="scale(0.015625)"/>
       <path id="DejaVuSans-65" d="M 3597 1894 
L 3597 1613 
L 953 1613 
Q 991 1019 1311 708 
Q 1631 397 2203 397 
Q 2534 397 2845 478 
Q 3156 559 3463 722 
L 3463 178 
Q 3153 47 2828 -22 
Q 2503 -91 2169 -91 
Q 1331 -91 842 396 
Q 353 884 353 1716 
Q 353 2575 817 3079 
Q 1281 3584 2069 3584 
Q 2775 3584 3186 3129 
Q 3597 2675 3597 1894 
z
M 3022 2063 
Q 3016 2534 2758 2815 
Q 2500 3097 2075 3097 
Q 1594 3097 1305 2825 
Q 1016 2553 972 2059 
L 3022 2063 
z
" transform="scale(0.015625)"/>
       <path id="DejaVuSans-74" d="M 1172 4494 
L 1172 3500 
L 2356 3500 
L 2356 3053 
L 1172 3053 
L 1172 1153 
Q 1172 725 1289 603 
Q 1406 481 1766 481 
L 2356 481 
L 2356 0 
L 1766 0 
Q 1100 0 847 248 
Q 594 497 594 1153 
L 594 3053 
L 172 3053 
L 172 3500 
L 594 3500 
L 594 4494 
L 1172 4494 
z
" transform="scale(0.015625)"/>
       <path id="DejaVuSans-69" d="M 603 3500 
L 1178 3500 
L 1178 0 
L 603 0 
L 603 3500 
z
M 603 4863 
L 1178 4863 
L 1178 4134 
L 603 4134 
L 603 4863 
z
" transform="scale(0.015625)"/>
       <path id="DejaVuSans-6e" d="M 3513 2113 
L 3513 0 
L 2938 0 
L 2938 2094 
Q 2938 2591 2744 2837 
Q 2550 3084 2163 3084 
Q 1697 3084 1428 2787 
Q 1159 2491 1159 1978 
L 1159 0 
L 581 0 
L 581 3500 
L 1159 3500 
L 1159 2956 
Q 1366 3272 1645 3428 
Q 1925 3584 2291 3584 
Q 2894 3584 3203 3211 
Q 3513 2838 3513 2113 
z
" transform="scale(0.015625)"/>
       <path id="DejaVuSans-28" d="M 1984 4856 
Q 1566 4138 1362 3434 
Q 1159 2731 1159 2009 
Q 1159 1288 1364 580 
Q 1569 -128 1984 -844 
L 1484 -844 
Q 1016 -109 783 600 
Q 550 1309 550 2009 
Q 550 2706 781 3412 
Q 1013 4119 1484 4856 
L 1984 4856 
z
" transform="scale(0.015625)"/>
       <path id="DejaVuSans-6d" d="M 3328 2828 
Q 3544 3216 3844 3400 
Q 4144 3584 4550 3584 
Q 5097 3584 5394 3201 
Q 5691 2819 5691 2113 
L 5691 0 
L 5113 0 
L 5113 2094 
Q 5113 2597 4934 2840 
Q 4756 3084 4391 3084 
Q 3944 3084 3684 2787 
Q 3425 2491 3425 1978 
L 3425 0 
L 2847 0 
L 2847 2094 
Q 2847 2600 2669 2842 
Q 2491 3084 2119 3084 
Q 1678 3084 1418 2786 
Q 1159 2488 1159 1978 
L 1159 0 
L 581 0 
L 581 3500 
L 1159 3500 
L 1159 2956 
Q 1356 3278 1631 3431 
Q 1906 3584 2284 3584 
Q 2666 3584 2933 3390 
Q 3200 3197 3328 2828 
z
" transform="scale(0.015625)"/>
       <path id="DejaVuSans-32" d="M 1228 531 
L 3431 531 
L 3431 0 
L 469 0 
L 469 531 
Q 828 903 1448 1529 
Q 2069 2156 2228 2338 
Q 2531 2678 2651 2914 
Q 2772 3150 2772 3378 
Q 2772 3750 2511 3984 
Q 2250 4219 1831 4219 
Q 1534 4219 1204 4116 
Q 875 4013 500 3803 
L 500 4441 
Q 881 4594 1212 4672 
Q 1544 4750 1819 4750 
Q 2544 4750 2975 4387 
Q 3406 4025 3406 3419 
Q 3406 3131 3298 2873 
Q 3191 2616 2906 2266 
Q 2828 2175 2409 1742 
Q 1991 1309 1228 531 
z
" transform="scale(0.015625)"/>
       <path id="DejaVuSans-29" d="M 513 4856 
L 1013 4856 
Q 1481 4119 1714 3412 
Q 1947 2706 1947 2009 
Q 1947 1309 1714 600 
Q 1481 -109 1013 -844 
L 513 -844 
Q 928 -128 1133 580 
Q 1338 1288 1338 2009 
Q 1338 2731 1133 3434 
Q 928 4138 513 4856 
z
" transform="scale(0.015625)"/>
      </defs>
      <use xlink:href="#DejaVuSans-63" transform="translate(0 0.765625)"/>
      <use xlink:href="#DejaVuSans-72" transform="translate(54.980469 0.765625)"/>
      <use xlink:href="#DejaVuSans-6f" transform="translate(96.09375 0.765625)"/>
      <use xlink:href="#DejaVuSans-73" transform="translate(157.275391 0.765625)"/>
      <use xlink:href="#DejaVuSans-73" transform="translate(209.375 0.765625)"/>
      <use xlink:href="#DejaVuSans-20" transform="translate(261.474609 0.765625)"/>
      <use xlink:href="#DejaVuSans-73" transform="translate(293.261719 0.765625)"/>
      <use xlink:href="#DejaVuSans-65" transform="translate(345.361328 0.765625)"/>
      <use xlink:href="#DejaVuSans-63" transform="translate(406.884766 0.765625)"/>
      <use xlink:href="#DejaVuSans-74" transform="translate(461.865234 0.765625)"/>
      <use xlink:href="#DejaVuSans-69" transform="translate(501.074219 0.765625)"/>
      <use xlink:href="#DejaVuSans-6f" transform="translate(528.857422 0.765625)"/>
      <use xlink:href="#DejaVuSans-6e" transform="translate(590.039062 0.765625)"/>
      <use xlink:href="#DejaVuSans-20" transform="translate(653.417969 0.765625)"/>
      <use xlink:href="#DejaVuSans-28" transform="translate(685.205078 0.765625)"/>
      <use xlink:href="#DejaVuSans-63" transform="translate(724.21875 0.765625)"/>
      <use xlink:href="#DejaVuSans-6d" transform="translate(779.199219 0.765625)"/>
      <use xlink:href="#DejaVuSans-32" transform="translate(877.568359 39.046875) scale(0.7)"/>
      <use xlink:href="#DejaVuSans-29" transform="translate(924.838867 0.765625)"/>
     </g>
    </g>
    <g id="text_6">
     <!-- 1eâˆ’17 -->
     <g transform="translate(215.680688 326.884563) scale(0.1 -0.1)">
      <defs>
       <path id="DejaVuSans-2212" d="M 678 2272 
L 4684 2272 
L 4684 1741 
L 678 1741 
L 678 2272 
z
" transform="scale(0.015625)"/>
       <path id="DejaVuSans-37" d="M 525 4666 
L 3525 4666 
L 3525 4397 
L 1831 0 
L 1172 0 
L 2766 4134 
L 525 4134 
L 525 4666 
z
" transform="scale(0.015625)"/>
      </defs>
      <use xlink:href="#DejaVuSans-31"/>
      <use xlink:href="#DejaVuSans-65" x="63.623047"/>
      <use xlink:href="#DejaVuSans-2212" x="125.146484"/>
      <use xlink:href="#DejaVuSans-31" x="208.935547"/>
      <use xlink:href="#DejaVuSans-37" x="272.558594"/>
     </g>
    </g>
   </g>
   <g id="matplotlib.axis_2">
    <g id="ytick_1">
     <g id="line2d_5">
      <defs>
       <path id="m7ed982be03" d="M 0 0 
L -3.5 0 
" style="stroke: #000000; stroke-width: 0.8"/>
      </defs>
      <g>
       <use xlink:href="#m7ed982be03" x="48.602" y="257.732428" style="stroke: #000000; stroke-width: 0.8"/>
      </g>
     </g>
     <g id="text_7">
      <!-- 5 -->
      <g transform="translate(35.2395 261.531647) scale(0.1 -0.1)">
       <use xlink:href="#DejaVuSans-35"/>
      </g>
     </g>
    </g>
    <g id="ytick_2">
     <g id="line2d_6">
      <g>
       <use xlink:href="#m7ed982be03" x="48.602" y="212.277762" style="stroke: #000000; stroke-width: 0.8"/>
      </g>
     </g>
     <g id="text_8">
      <!-- 6 -->
      <g transform="translate(35.2395 216.07698) scale(0.1 -0.1)">
       <defs>
        <path id="DejaVuSans-36" d="M 2113 2584 
Q 1688 2584 1439 2293 
Q 1191 2003 1191 1497 
Q 1191 994 1439 701 
Q 1688 409 2113 409 
Q 2538 409 2786 701 
Q 3034 994 3034 1497 
Q 3034 2003 2786 2293 
Q 2538 2584 2113 2584 
z
M 3366 4563 
L 3366 3988 
Q 3128 4100 2886 4159 
Q 2644 4219 2406 4219 
Q 1781 4219 1451 3797 
Q 1122 3375 1075 2522 
Q 1259 2794 1537 2939 
Q 1816 3084 2150 3084 
Q 2853 3084 3261 2657 
Q 3669 2231 3669 1497 
Q 3669 778 3244 343 
Q 2819 -91 2113 -91 
Q 1303 -91 875 529 
Q 447 1150 447 2328 
Q 447 3434 972 4092 
Q 1497 4750 2381 4750 
Q 2619 4750 2861 4703 
Q 3103 4656 3366 4563 
z
" transform="scale(0.015625)"/>
       </defs>
       <use xlink:href="#DejaVuSans-36"/>
      </g>
     </g>
    </g>
    <g id="ytick_3">
     <g id="line2d_7">
      <g>
       <use xlink:href="#m7ed982be03" x="48.602" y="166.823095" style="stroke: #000000; stroke-width: 0.8"/>
      </g>
     </g>
     <g id="text_9">
      <!-- 7 -->
      <g transform="translate(35.2395 170.622314) scale(0.1 -0.1)">
       <use xlink:href="#DejaVuSans-37"/>
      </g>
     </g>
    </g>
    <g id="ytick_4">
     <g id="line2d_8">
      <g>
       <use xlink:href="#m7ed982be03" x="48.602" y="121.368428" style="stroke: #000000; stroke-width: 0.8"/>
      </g>
     </g>
     <g id="text_10">
      <!-- 8 -->
      <g transform="translate(35.2395 125.167647) scale(0.1 -0.1)">
       <defs>
        <path id="DejaVuSans-38" d="M 2034 2216 
Q 1584 2216 1326 1975 
Q 1069 1734 1069 1313 
Q 1069 891 1326 650 
Q 1584 409 2034 409 
Q 2484 409 2743 651 
Q 3003 894 3003 1313 
Q 3003 1734 2745 1975 
Q 2488 2216 2034 2216 
z
M 1403 2484 
Q 997 2584 770 2862 
Q 544 3141 544 3541 
Q 544 4100 942 4425 
Q 1341 4750 2034 4750 
Q 2731 4750 3128 4425 
Q 3525 4100 3525 3541 
Q 3525 3141 3298 2862 
Q 3072 2584 2669 2484 
Q 3125 2378 3379 2068 
Q 3634 1759 3634 1313 
Q 3634 634 3220 271 
Q 2806 -91 2034 -91 
Q 1263 -91 848 271 
Q 434 634 434 1313 
Q 434 1759 690 2068 
Q 947 2378 1403 2484 
z
M 1172 3481 
Q 1172 3119 1398 2916 
Q 1625 2713 2034 2713 
Q 2441 2713 2670 2916 
Q 2900 3119 2900 3481 
Q 2900 3844 2670 4047 
Q 2441 4250 2034 4250 
Q 1625 4250 1398 4047 
Q 1172 3844 1172 3481 
z
" transform="scale(0.015625)"/>
       </defs>
       <use xlink:href="#DejaVuSans-38"/>
      </g>
     </g>
    </g>
    <g id="ytick_5">
     <g id="line2d_9">
      <g>
       <use xlink:href="#m7ed982be03" x="48.602" y="75.913762" style="stroke: #000000; stroke-width: 0.8"/>
      </g>
     </g>
     <g id="text_11">
      <!-- 9 -->
      <g transform="translate(35.2395 79.71298) scale(0.1 -0.1)">
       <defs>
        <path id="DejaVuSans-39" d="M 703 97 
L 703 672 
Q 941 559 1184 500 
Q 1428 441 1663 441 
Q 2288 441 2617 861 
Q 2947 1281 2994 2138 
Q 2813 1869 2534 1725 
Q 2256 1581 1919 1581 
Q 1219 1581 811 2004 
Q 403 2428 403 3163 
Q 403 3881 828 4315 
Q 1253 4750 1959 4750 
Q 2769 4750 3195 4129 
Q 3622 3509 3622 2328 
Q 3622 1225 3098 567 
Q 2575 -91 1691 -91 
Q 1453 -91 1209 -44 
Q 966 3 703 97 
z
M 1959 2075 
Q 2384 2075 2632 2365 
Q 2881 2656 2881 3163 
Q 2881 3666 2632 3958 
Q 2384 4250 1959 4250 
Q 1534 4250 1286 3958 
Q 1038 3666 1038 3163 
Q 1038 2656 1286 2365 
Q 1534 2075 1959 2075 
z
" transform="scale(0.015625)"/>
       </defs>
       <use xlink:href="#DejaVuSans-39"/>
      </g>
     </g>
    </g>
    <g id="ytick_6">
     <g id="line2d_10">
      <g>
       <use xlink:href="#m7ed982be03" x="48.602" y="30.459095" style="stroke: #000000; stroke-width: 0.8"/>
      </g>
     </g>
     <g id="text_12">
      <!-- 10 -->
      <g transform="translate(28.877 34.258314) scale(0.1 -0.1)">
       <use xlink:href="#DejaVuSans-31"/>
       <use xlink:href="#DejaVuSans-30" x="63.623047"/>
      </g>
     </g>
    </g>
    <g id="text_13">
     <!-- wavenumber above $X$min. ($10^4$cm$^{-1}$) -->
     <g transform="translate(22.797313 256.144) rotate(-90) scale(0.1 -0.1)">
      <defs>
       <path id="DejaVuSans-77" d="M 269 3500 
L 844 3500 
L 1563 769 
L 2278 3500 
L 2956 3500 
L 3675 769 
L 4391 3500 
L 4966 3500 
L 4050 0 
L 3372 0 
L 2619 2869 
L 1863 0 
L 1184 0 
L 269 3500 
z
" transform="scale(0.015625)"/>
       <path id="DejaVuSans-61" d="M 2194 1759 
Q 1497 1759 1228 1600 
Q 959 1441 959 1056 
Q 959 750 1161 570 
Q 1363 391 1709 391 
Q 2188 391 2477 730 
Q 2766 1069 2766 1631 
L 2766 1759 
L 2194 1759 
z
M 3341 1997 
L 3341 0 
L 2766 0 
L 2766 531 
Q 2569 213 2275 61 
Q 1981 -91 1556 -91 
Q 1019 -91 701 211 
Q 384 513 384 1019 
Q 384 1609 779 1909 
Q 1175 2209 1959 2209 
L 2766 2209 
L 2766 2266 
Q 2766 2663 2505 2880 
Q 2244 3097 1772 3097 
Q 1472 3097 1187 3025 
Q 903 2953 641 2809 
L 641 3341 
Q 956 3463 1253 3523 
Q 1550 3584 1831 3584 
Q 2591 3584 2966 3190 
Q 3341 2797 3341 1997 
z
" transform="scale(0.015625)"/>
       <path id="DejaVuSans-76" d="M 191 3500 
L 800 3500 
L 1894 563 
L 2988 3500 
L 3597 3500 
L 2284 0 
L 1503 0 
L 191 3500 
z
" transform="scale(0.015625)"/>
       <path id="DejaVuSans-75" d="M 544 1381 
L 544 3500 
L 1119 3500 
L 1119 1403 
Q 1119 906 1312 657 
Q 1506 409 1894 409 
Q 2359 409 2629 706 
Q 2900 1003 2900 1516 
L 2900 3500 
L 3475 3500 
L 3475 0 
L 2900 0 
L 2900 538 
Q 2691 219 2414 64 
Q 2138 -91 1772 -91 
Q 1169 -91 856 284 
Q 544 659 544 1381 
z
M 1991 3584 
L 1991 3584 
z
" transform="scale(0.015625)"/>
       <path id="DejaVuSans-62" d="M 3116 1747 
Q 3116 2381 2855 2742 
Q 2594 3103 2138 3103 
Q 1681 3103 1420 2742 
Q 1159 2381 1159 1747 
Q 1159 1113 1420 752 
Q 1681 391 2138 391 
Q 2594 391 2855 752 
Q 3116 1113 3116 1747 
z
M 1159 2969 
Q 1341 3281 1617 3432 
Q 1894 3584 2278 3584 
Q 2916 3584 3314 3078 
Q 3713 2572 3713 1747 
Q 3713 922 3314 415 
Q 2916 -91 2278 -91 
Q 1894 -91 1617 61 
Q 1341 213 1159 525 
L 1159 0 
L 581 0 
L 581 4863 
L 1159 4863 
L 1159 2969 
z
" transform="scale(0.015625)"/>
       <path id="DejaVuSans-Oblique-58" d="M 878 4666 
L 1516 4666 
L 2316 2981 
L 3763 4666 
L 4500 4666 
L 2578 2438 
L 3738 0 
L 3103 0 
L 2163 1966 
L 459 0 
L -275 0 
L 1906 2509 
L 878 4666 
z
" transform="scale(0.015625)"/>
       <path id="DejaVuSans-34" d="M 2419 4116 
L 825 1625 
L 2419 1625 
L 2419 4116 
z
M 2253 4666 
L 3047 4666 
L 3047 1625 
L 3713 1625 
L 3713 1100 
L 3047 1100 
L 3047 0 
L 2419 0 
L 2419 1100 
L 313 1100 
L 313 1709 
L 2253 4666 
z
" transform="scale(0.015625)"/>
      </defs>
      <use xlink:href="#DejaVuSans-77" transform="translate(0 0.684375)"/>
      <use xlink:href="#DejaVuSans-61" transform="translate(81.787109 0.684375)"/>
      <use xlink:href="#DejaVuSans-76" transform="translate(143.066406 0.684375)"/>
      <use xlink:href="#DejaVuSans-65" transform="translate(202.246094 0.684375)"/>
      <use xlink:href="#DejaVuSans-6e" transform="translate(263.769531 0.684375)"/>
      <use xlink:href="#DejaVuSans-75" transform="translate(327.148438 0.684375)"/>
      <use xlink:href="#DejaVuSans-6d" transform="translate(390.527344 0.684375)"/>
      <use xlink:href="#DejaVuSans-62" transform="translate(487.939453 0.684375)"/>
      <use xlink:href="#DejaVuSans-65" transform="translate(551.416016 0.684375)"/>
      <use xlink:href="#DejaVuSans-72" transform="translate(612.939453 0.684375)"/>
      <use xlink:href="#DejaVuSans-20" transform="translate(654.052734 0.684375)"/>
      <use xlink:href="#DejaVuSans-61" transform="translate(685.839844 0.684375)"/>
      <use xlink:href="#DejaVuSans-62" transform="translate(747.119141 0.684375)"/>
      <use xlink:href="#DejaVuSans-6f" transform="translate(810.595703 0.684375)"/>
      <use xlink:href="#DejaVuSans-76" transform="translate(871.777344 0.684375)"/>
      <use xlink:href="#DejaVuSans-65" transform="translate(930.957031 0.684375)"/>
      <use xlink:href="#DejaVuSans-20" transform="translate(992.480469 0.684375)"/>
      <use xlink:href="#DejaVuSans-Oblique-58" transform="translate(1024.267578 0.684375)"/>
      <use xlink:href="#DejaVuSans-6d" transform="translate(1092.773438 0.684375)"/>
      <use xlink:href="#DejaVuSans-69" transform="translate(1190.185547 0.684375)"/>
      <use xlink:href="#DejaVuSans-6e" transform="translate(1217.96875 0.684375)"/>
      <use xlink:href="#DejaVuSans-2e" transform="translate(1281.347656 0.684375)"/>
      <use xlink:href="#DejaVuSans-20" transform="translate(1313.134766 0.684375)"/>
      <use xlink:href="#DejaVuSans-28" transform="translate(1344.921875 0.684375)"/>
      <use xlink:href="#DejaVuSans-31" transform="translate(1383.935547 0.684375)"/>
      <use xlink:href="#DejaVuSans-30" transform="translate(1447.558594 0.684375)"/>
      <use xlink:href="#DejaVuSans-34" transform="translate(1512.138672 38.965625) scale(0.7)"/>
      <use xlink:href="#DejaVuSans-63" transform="translate(1559.40918 0.684375)"/>
      <use xlink:href="#DejaVuSans-6d" transform="translate(1614.389648 0.684375)"/>
      <use xlink:href="#DejaVuSans-2212" transform="translate(1712.758789 38.965625) scale(0.7)"/>
      <use xlink:href="#DejaVuSans-31" transform="translate(1771.411133 38.965625) scale(0.7)"/>
      <use xlink:href="#DejaVuSans-29" transform="translate(1818.681641 0.684375)"/>
     </g>
    </g>
    <g id="text_14">
     <!-- 1e4 -->
     <g transform="translate(48.602 23.88) scale(0.1 -0.1)">
      <use xlink:href="#DejaVuSans-31"/>
      <use xlink:href="#DejaVuSans-65" x="63.623047"/>
      <use xlink:href="#DejaVuSans-34" x="125.146484"/>
     </g>
    </g>
   </g>
   <g id="line2d_11">
    <path d="M 229.319059 223.641428 
L 226.363237 221.232331 
L 223.974362 219.641418 
L 220.946254 217.91414 
L 217.432534 216.186863 
L 213.294777 214.414131 
L 208.345124 212.55049 
L 202.49218 210.595939 
L 195.66905 208.550479 
L 187.313591 206.277746 
L 176.917133 203.68683 
L 163.756837 200.641367 
L 143.981725 196.323174 
L 112.712017 189.504974 
L 110.707774 189.050427 
L 99.603397 186.368602 
L 91.306209 184.141323 
L 84.61853 182.095863 
L 80.344549 180.595859 
L 77.676996 179.504947 
L 77.39498 179.368583 
L 76.239987 178.914036 
L 73.139504 177.368578 
L 70.876537 175.959483 
L 69.122816 174.504934 
L 68.309095 173.504931 
L 68.086803 173.141294 
L 67.834477 172.777656 
L 67.482041 171.823108 
L 67.435134 170.641287 
L 67.625898 169.823103 
L 68.185173 168.777646 
L 69.091987 167.732188 
L 70.245587 166.77764 
L 71.070477 166.277639 
L 71.404415 166.004911 
L 72.177339 165.50491 
L 74.703608 164.232179 
L 78.155659 162.823084 
L 81.373462 161.732172 
L 84.976152 160.686715 
L 89.194023 159.641258 
L 94.256368 158.5958 
L 99.801491 157.686707 
L 107.703162 156.686704 
L 115.312113 156.004884 
L 124.419469 155.413974 
L 136.173976 154.868518 
L 152.704288 154.323062 
L 181.169871 153.641242 
L 210.043215 152.913967 
L 214.45739 152.641239 
L 214.792614 152.55033 
L 214.747867 152.504875 
L 213.808688 152.368511 
L 209.941416 152.141238 
L 197.244921 151.686691 
L 170.973355 150.732143 
L 159.515944 150.095778 
L 149.779354 149.323048 
L 129.179477 147.368498 
L 129.02939 147.277588 
L 129.077661 147.232134 
L 129.80705 147.09577 
L 132.400372 146.913951 
L 140.594879 146.641223 
L 159.851027 146.277586 
L 216.295169 145.277583 
L 228.646126 144.823036 
L 234.125859 144.413944 
L 235.954929 144.095762 
L 236.316935 143.868488 
L 236.228293 143.732124 
L 235.650393 143.504851 
L 234.095185 143.186668 
L 230.356682 142.686667 
L 220.265912 141.64121 
L 212.398293 140.732116 
L 209.00463 140.141206 
L 207.582281 139.686659 
L 207.25405 139.413931 
L 207.280264 139.186658 
L 207.545938 138.959384 
L 208.336704 138.641202 
L 210.178706 138.186655 
L 213.856956 137.55029 
L 222.610406 136.323014 
L 230.702706 135.095738 
L 234.162811 134.368463 
L 235.854281 133.823007 
L 236.554276 133.413915 
L 236.747745 133.095732 
L 236.668537 132.823004 
L 236.296271 132.504822 
L 235.398731 132.09573 
L 233.554351 131.550274 
L 230.010441 130.777544 
L 219.702158 128.641175 
L 217.83118 128.00481 
L 217.051749 127.550263 
L 216.779148 127.186626 
L 216.816752 126.868443 
L 217.09278 126.55026 
L 217.721446 126.186623 
L 219.089213 125.686622 
L 221.453569 125.095711 
L 225.619585 124.322982 
L 236.520341 122.45934 
L 236.519397 122.322976 
L 236.097347 122.186612 
L 234.573065 122.004794 
L 230.162601 121.77752 
L 220.725527 121.550247 
L 201.305141 121.322974 
L 160.212208 121.0957 
L 66.079624 120.868427 
L -1 120.780915 
M -1 118.907721 
L 79.9452 118.504784 
L 129.000721 118.050238 
L 163.732548 117.504782 
L 187.78468 116.913871 
L 206.62354 116.232051 
L 219.708816 115.550231 
L 228.122657 114.913866 
L 233.158202 114.322955 
L 235.406408 113.868408 
L 236.290374 113.504771 
L 236.473048 113.232043 
L 236.341061 113.00477 
L 235.875846 112.732042 
L 234.637173 112.32295 
L 232.18295 111.777494 
L 227.33559 110.95931 
L 219.716763 109.913852 
L 212.57527 109.141123 
L 205.398023 108.595667 
L 196.89478 108.186575 
L 185.739161 107.868392 
L 168.119449 107.595664 
L 138.224962 107.368391 
L 84.902103 107.186572 
L -1 107.057606 
M -1 106.622042 
L 183.220345 106.459298 
L 228.378095 106.232024 
L 235.898707 106.004751 
L 236.717638 105.822932 
L 236.452428 105.686568 
L 234.596506 105.277476 
L 231.831134 104.595656 
L 230.442485 104.0502 
L 229.623681 103.504744 
L 229.256021 103.004743 
L 229.181557 102.550196 
L 229.330437 102.050195 
L 229.784537 101.459284 
L 230.580001 100.822919 
L 231.85466 100.095644 
L 233.848183 99.232006 
L 236.62768 98.050184 
L 236.661137 97.868366 
L 236.426425 97.732002 
L 235.505472 97.550183 
L 233.329258 97.368364 
L 228.687631 97.186546 
L 218.997011 97.004727 
L 198.743793 96.822908 
L 143.74024 96.595635 
L 56.098734 96.277452 
L 56.877678 96.231998 
L 77.726562 96.095634 
L 163.625732 95.595632 
L 189.53836 95.231995 
L 204.250829 94.822903 
L 213.271293 94.368356 
L 218.595448 93.91381 
L 220.739605 93.550172 
L 220.859778 93.459263 
L 220.822393 93.413808 
L 220.485971 93.322899 
L 218.969609 93.186535 
L 215.008207 93.050171 
L 204.463177 92.913807 
L 168.148493 92.777443 
L 67.21652 92.686534 
L -1 92.668783 
M -1 92.419328 
L 180.279404 92.277442 
L 217.144115 92.050168 
L 227.16469 91.77744 
L 231.521064 91.459258 
L 234.186925 91.050166 
L 235.5576 90.641074 
L 236.136857 90.277436 
L 236.254997 90.004708 
L 236.133019 89.73198 
L 235.71496 89.413798 
L 234.78422 89.004706 
L 232.95011 88.45925 
L 229.847123 87.77743 
L 225.482623 87.050155 
L 220.593825 86.459244 
L 214.424611 85.959243 
L 206.524812 85.550151 
L 192.73803 85.095604 
L 183.265598 84.731967 
L 183.346805 84.686512 
L 185.028898 84.595603 
L 194.458164 84.413784 
L 228.454797 83.822874 
L 234.163696 83.504691 
L 235.886044 83.231963 
L 236.397549 82.959235 
L 236.407486 82.731962 
L 236.141488 82.413779 
L 235.248429 81.777414 
L 234.374104 81.368322 
L 233.282863 81.141048 
L 231.398674 81.004684 
L 227.23468 80.913775 
L 220.86885 80.86832 
L 198.089227 80.822866 
L -1 80.793421 
M -1 80.751074 
L 231.920645 80.595592 
L 234.472978 80.413774 
L 234.646533 80.231955 
L 234.50772 79.868318 
L 234.14513 78.91377 
L 234.013317 77.913767 
L 234.093665 76.86831 
L 234.313723 76.18649 
L 234.513539 75.959216 
L 234.513539 75.959216 
" clip-path="url(#p91e55b591c)" style="fill: none; stroke-dasharray: 1.5,2.475; stroke-dashoffset: 0; stroke: #000000; stroke-width: 1.5"/>
   </g>
   <g id="line2d_12">
    <path d="M 229.32546 223.641428 
L 226.370306 221.232331 
L 223.981673 219.641418 
L 220.953579 217.91414 
L 217.439561 216.186863 
L 213.30118 214.414131 
L 208.350494 212.55049 
L 202.496141 210.595939 
L 195.671369 208.550479 
L 187.314327 206.277746 
L 176.91735 203.68683 
L 163.760476 200.641367 
L 143.794105 196.277719 
L 112.845334 189.504974 
L 110.855728 189.050427 
L 100.02292 186.414056 
L 91.662675 184.141323 
L 85.245065 182.141318 
L 80.956569 180.595859 
L 78.388479 179.504947 
L 78.129398 179.368583 
L 77.019609 178.914036 
L 74.173128 177.414032 
L 72.085692 176.004938 
L 70.715753 174.732207 
L 70.086941 173.914023 
L 69.892492 173.368567 
L 69.870555 173.232203 
L 69.616666 172.959475 
L 69.440948 172.186746 
L 69.435995 171.459471 
L 69.645629 170.686742 
L 70.149791 169.732194 
L 71.219757 168.550372 
L 72.499069 167.55037 
L 74.450748 166.414003 
L 80.712011 163.777632 
L 85.489124 162.323083 
L 89.591403 161.277626 
L 94.580589 160.186714 
L 100.240519 159.141256 
L 107.153398 158.095799 
L 115.181649 157.141251 
L 123.16108 156.413976 
L 133.201145 155.732156 
L 146.273717 155.095791 
L 163.546556 154.50488 
L 189.595398 153.868515 
L 232.295445 152.868512 
L 236.489476 152.595784 
L 236.75725 152.504875 
L 236.687868 152.45942 
L 235.729297 152.323056 
L 232.063956 152.095783 
L 218.278179 151.550327 
L 203.075601 150.868507 
L 196.498356 150.368506 
L 193.703817 149.959414 
L 192.80185 149.641231 
L 192.707886 149.459412 
L 192.86585 149.277594 
L 193.54183 149.004866 
L 195.354165 148.595774 
L 198.957944 148.050318 
L 205.740544 147.277588 
L 216.315063 146.32304 
L 229.877409 145.095764 
L 234.163563 144.504854 
L 236.091197 144.050307 
L 236.688183 143.732124 
L 236.740962 143.504851 
L 236.498616 143.277578 
L 235.709694 142.959395 
L 233.839182 142.504848 
L 229.237609 141.686664 
L 223.371956 140.595752 
L 221.270023 140.004842 
L 220.334316 139.550295 
L 220.020541 139.186658 
L 220.041948 138.868475 
L 220.332441 138.550292 
L 221.044184 138.1412 
L 222.509974 137.595744 
L 225.313647 136.823015 
L 235.008358 134.323008 
L 236.261412 133.732098 
L 236.690051 133.323006 
L 236.748773 133.004823 
L 236.558228 132.68664 
L 236.035616 132.323003 
L 234.947178 131.868456 
L 232.90548 131.277546 
L 228.846366 130.368452 
L 221.749405 128.777539 
L 219.669807 128.095719 
L 218.724247 127.595718 
L 218.353978 127.186626 
L 218.335283 126.868443 
L 218.541373 126.55026 
L 219.071629 126.186623 
L 220.15 125.732076 
L 222.063194 125.18662 
L 225.322544 124.5048 
L 230.863898 123.595707 
L 236.148397 122.686614 
L 236.755185 122.413886 
L 236.699979 122.322976 
L 236.25575 122.186612 
L 234.705746 122.004794 
L 230.270423 121.77752 
L 220.818809 121.550247 
L 201.398555 121.322974 
L 160.330878 121.0957 
L 66.27654 120.868427 
L -1 120.780612 
M -1 118.908614 
L 80.159104 118.504784 
L 129.219384 118.050238 
L 163.976501 117.504782 
L 188.063175 116.913871 
L 206.937463 116.232051 
L 220.045183 115.550231 
L 228.46459 114.913866 
L 233.192584 114.36841 
L 235.559103 113.913863 
L 236.522786 113.550226 
L 236.755257 113.277498 
L 236.658472 113.050224 
L 236.2284 112.777496 
L 235.18981 112.413859 
L 232.83087 111.868403 
L 228.349066 111.095674 
L 220.870984 110.050216 
L 213.57904 109.232032 
L 206.846812 108.686576 
L 199.203461 108.277484 
L 187.795355 107.913847 
L 172.012151 107.641119 
L 146.303117 107.413846 
L 102.939279 107.232027 
L -1 107.057308 
M -1 106.622175 
L 183.300668 106.459298 
L 228.412996 106.232024 
L 235.932387 106.004751 
L 236.75701 105.822932 
L 236.627996 105.732023 
L 235.537497 105.459295 
L 231.928791 104.595656 
L 230.56547 104.0502 
L 229.769587 103.504744 
L 229.419265 103.004743 
L 229.357278 102.550196 
L 229.515226 102.050195 
L 229.973435 101.459284 
L 230.832383 100.777464 
L 232.115044 100.05019 
L 234.101679 99.186551 
L 236.706094 98.050184 
L 236.729542 97.868366 
L 236.487381 97.732002 
L 235.556777 97.550183 
L 233.371541 97.368364 
L 228.722167 97.186546 
L 219.02662 97.004727 
L 198.775157 96.822908 
L 143.797089 96.595635 
L 56.236619 96.277452 
L 57.021663 96.231998 
L 77.874239 96.095634 
L 163.758088 95.595632 
L 189.704203 95.231995 
L 204.521235 94.822903 
L 214.52194 94.322902 
L 221.228479 93.777446 
L 226.911523 93.095626 
L 230.451302 92.641079 
L 235.967868 92.55017 
L 232.088549 92.504715 
L 230.990894 92.413806 
L 231.143892 92.368351 
L 235.191181 91.322894 
L 236.278404 90.822892 
L 236.705727 90.4138 
L 236.737778 90.095618 
L 236.505819 89.777435 
L 235.927271 89.413798 
L 234.627126 88.913796 
L 232.238689 88.277431 
L 228.622657 87.550156 
L 224.170535 86.868336 
L 219.214974 86.32288 
L 213.064923 85.868334 
L 204.377368 85.459242 
L 183.575054 84.731967 
L 184.242253 84.641058 
L 189.138877 84.504694 
L 232.656029 83.641055 
L 235.760779 83.322872 
L 236.600215 83.050144 
L 236.756568 82.822871 
L 236.652949 82.550143 
L 236.078273 81.959232 
L 234.866184 80.822866 
L 233.940331 80.777411 
L 234.820413 80.731956 
L 234.982444 80.686502 
L 234.917461 80.595592 
L 234.516207 79.868318 
L 234.231519 78.91377 
L 234.132891 77.822858 
L 234.25003 76.686491 
L 234.4851 76.09558 
L 234.619123 75.959216 
L 234.619123 75.959216 
" clip-path="url(#p91e55b591c)" style="fill: none; stroke: #ff7f0e; stroke-width: 1.5; stroke-linecap: square"/>
   </g>
   <g id="line2d_13">
    <path d="M 236.750911 223.641428 
L 236.627021 189.641338 
L 236.37696 183.732231 
L 235.972889 178.868582 
L 235.452916 175.004935 
L 234.81113 171.777654 
L 234.082117 169.095828 
L 233.124925 166.459458 
L 232.370107 164.868544 
L 231.301592 163.004903 
L 230.12156 161.368535 
L 228.81758 159.913986 
L 227.415445 158.641255 
L 225.792627 157.459434 
L 222.52489 155.641247 
L 219.90075 154.550335 
L 211.888866 151.641236 
L 208.843939 151.050326 
L 204.49039 150.41396 
L 198.35222 149.73214 
L 189.508583 149.004866 
L 177.568089 148.277591 
L 159.643248 147.232134 
L 158.975722 147.050315 
L 159.305789 146.959406 
L 161.554577 146.777587 
L 167.747933 146.550314 
L 186.877298 146.141222 
L 220.80727 145.413947 
L 230.758725 145.004855 
L 235.014831 144.641218 
L 236.502555 144.323035 
L 236.757092 144.095762 
L 236.632557 143.913943 
L 236.068959 143.641215 
L 234.349293 143.141214 
L 225.281307 140.777571 
L 224.206806 140.232115 
L 223.830595 139.823023 
L 223.801345 139.50484 
L 224.017036 139.186658 
L 224.59689 138.777566 
L 225.865499 138.23211 
L 228.411439 137.413926 
L 233.497909 135.777558 
L 235.142402 135.004828 
L 236.084252 134.323008 
L 236.54905 133.732098 
L 236.742475 133.141187 
L 236.716541 132.504822 
L 236.446667 131.686638 
L 235.179307 128.550266 
L 235.14316 127.550263 
L 235.3315 126.459351 
L 235.89692 124.732074 
L 236.506588 122.686614 
L 236.666168 121.413883 
L 236.560396 120.868427 
L 236.341294 120.641154 
L 235.867311 120.459335 
L 234.064741 120.141152 
L 234.315966 120.050243 
L 235.980364 119.686606 
L 236.36545 119.368423 
L 236.513874 118.913876 
L 236.533503 117.913874 
L 236.455847 113.550226 
L 236.675079 107.4593 
L 236.490088 107.050208 
L 236.111064 106.86839 
L 235.953467 106.77748 
L 236.695066 106.413843 
L 236.721149 105.913842 
L 236.611535 99.413824 
L 236.628306 96.322907 
L 236.625372 95.777451 
L 236.531898 94.959267 
L 236.255578 94.413811 
L 235.822621 94.050174 
L 235.173427 93.777446 
L 233.833724 93.504718 
L 231.319956 93.277444 
L 226.596792 93.095626 
L 218.165984 92.959262 
L 194.321628 92.822898 
L 142.561541 92.731988 
L -1 92.667054 
M -1 92.420412 
L 185.48557 92.277442 
L 221.311696 92.050168 
L 230.219829 91.77744 
L 233.486027 91.459258 
L 234.969286 91.09562 
L 235.736192 90.686528 
L 236.206074 90.186527 
L 236.518212 89.504707 
L 236.706595 88.504704 
L 236.741551 87.0047 
L 236.572983 85.322878 
L 236.467495 84.27742 
L 236.506899 83.459236 
L 236.309268 82.23196 
L 236.021306 81.64105 
L 235.653922 81.368322 
L 235.046754 81.186503 
L 233.84618 81.050139 
L 231.608986 80.95923 
L 222.636975 80.86832 
L 199.980356 80.822866 
L -1 80.793052 
M -1 80.751638 
L 233.760497 80.595592 
L 236.436919 80.413774 
L 236.734174 80.1865 
L 236.7369 79.731954 
L 236.633987 77.504675 
L 236.651728 75.959216 
L 236.651728 75.959216 
" clip-path="url(#p91e55b591c)" style="fill: none; stroke-dasharray: 5.55,2.4; stroke-dashoffset: 0; stroke: #1f77b4; stroke-width: 1.5"/>
   </g>
   <g id="line2d_14">
    <path d="M 236.838394 86.978908 
L 236.327947 87.327138 
L 236.295283 87.674759 
L 236.082881 88.021773 
L 234.43441 89.059188 
L 230.604533 89.403789 
L 223.482203 89.747791 
L 207.725324 90.091195 
L 197.640576 90.434002 
L 222.327305 90.776216 
L 231.505409 91.117836 
L 235.777985 91.458864 
L 236.342742 91.799303 
L 236.549485 92.139153 
L 236.334398 92.478416 
L 235.185789 92.817093 
L 232.492321 93.155187 
L 227.721492 93.492698 
L 211.744447 93.829629 
L 208.453987 94.16598 
L 232.429765 94.836949 
L 236.012741 95.171571 
L 236.263298 95.505619 
L 236.173598 95.839095 
L 235.558141 96.172001 
L 233.628453 96.504337 
L 229.070152 96.836106 
L 222.52951 97.167309 
L 219.219356 97.497947 
L 219.691751 97.828022 
L 230.337441 98.814881 
L 232.307816 99.142717 
L 234.066328 99.796722 
L 234.934564 100.773584 
L 236.285741 101.422077 
L 236.596196 102.068385 
L 236.516755 102.390722 
L 235.998007 103.033773 
L 234.824732 103.674666 
L 233.975072 103.994306 
L 228.696613 104.95002 
L 223.16861 105.584504 
L 219.412027 105.900952 
L 214.06804 106.216873 
L 190.851807 106.847137 
L 162.69474 107.161484 
L 46.796963 107.788611 
L 37.734149 108.101395 
L 76.070167 108.41366 
L 186.604639 109.036641 
L 212.603815 109.34736 
L 224.624644 109.657565 
L 234.192868 110.27644 
L 235.718885 110.585114 
L 236.283293 110.893279 
L 236.354147 111.200937 
L 236.290982 111.50809 
L 236.034277 111.814738 
L 234.617485 112.731669 
L 233.815078 113.340458 
L 233.269816 113.947258 
L 232.28027 114.853753 
L 231.684708 115.755829 
L 229.697311 116.354775 
L 231.1619 116.951781 
L 232.276306 117.546856 
L 233.731311 118.14001 
L 233.945432 118.435869 
L 231.453478 118.731252 
L 214.899937 119.026159 
L 144.593948 119.320591 
L 121.972913 119.614551 
L 199.273764 120.201053 
L 210.120667 120.493599 
L 216.453849 120.785676 
L 224.819059 121.949319 
L 226.230575 122.239068 
L 227.971814 122.817183 
L 229.896267 123.393457 
L 231.907935 124.254439 
L 231.785321 124.826153 
L 234.835569 125.964161 
L 235.082994 126.24754 
L 235.179041 126.812959 
L 235.778633 127.376598 
L 235.631234 127.938467 
L 234.870152 128.777967 
L 231.823516 130.997454 
L 231.072551 131.548012 
L 230.646279 132.096859 
L 230.274948 132.644005 
L 230.042376 132.916942 
L 229.647814 133.189456 
L 229.449762 133.461549 
L 229.498218 133.733222 
L 230.078263 134.275309 
L 230.473138 134.815726 
L 230.873194 135.08531 
L 230.831963 135.623235 
L 231.496954 136.159509 
L 232.109914 136.69414 
L 232.095413 136.960841 
L 232.225078 137.227134 
L 232.007432 137.49302 
L 232.004208 137.758499 
L 231.74981 138.023573 
L 230.188033 138.816374 
L 225.739778 139.867822 
L 218.047274 141.173185 
L 208.403185 143.241351 
L 207.678034 143.498123 
L 207.443342 143.75451 
L 207.544193 144.010513 
L 207.334463 144.521367 
L 207.381878 144.776221 
L 207.843737 145.284785 
L 207.744014 145.538498 
L 208.008561 146.044787 
L 207.649309 146.297366 
L 206.33448 146.549569 
L 197.587767 147.303929 
L 185.176666 147.80497 
L 166.795899 148.304527 
L 151.422481 148.802606 
L 145.933614 149.299213 
L 145.452815 149.546967 
L 146.357591 150.04138 
L 146.310928 150.28804 
L 145.503617 150.534337 
L 143.62382 150.780272 
L 124.282959 151.760405 
L 109.329754 152.248319 
L 99.302331 152.734807 
L 88.79072 153.219874 
L 76.752543 154.185771 
L 70.550944 154.906512 
L 65.927341 155.624119 
L 59.520026 157.522572 
L 59.080997 157.758342 
L 58.387331 157.993771 
L 57.747603 158.463616 
L 57.640981 158.698033 
L 56.542154 159.165857 
L 56.624943 159.399267 
L 55.532387 159.865085 
L 55.210015 160.097494 
L 54.847502 160.561317 
L 54.66311 160.792733 
L 54.267984 161.023818 
L 53.911743 161.485003 
L 53.433828 161.944876 
L 53.231875 162.403443 
L 53.32219 162.860711 
L 53.319681 163.088859 
L 53.436337 163.316684 
L 52.82546 163.544187 
L 52.965949 163.771368 
L 52.969712 163.998229 
L 52.762741 164.224769 
L 53.012361 164.45099 
L 52.935844 164.676892 
L 53.352294 164.902475 
L 52.96344 165.127742 
L 53.006089 165.352691 
L 53.430065 165.577324 
L 52.930827 165.801642 
L 53.8277 166.249333 
L 53.595642 166.472709 
L 53.551739 166.695771 
L 54.114951 166.918521 
L 54.018364 167.14096 
L 54.091118 167.363088 
L 54.521366 167.584905 
L 54.64304 167.806413 
L 54.54269 168.027612 
L 55.204997 168.248503 
L 55.260189 168.689362 
L 55.78577 169.128995 
L 56.519576 169.786159 
L 57.090313 170.004607 
L 57.169339 170.222752 
L 57.73255 170.440594 
L 57.462861 170.658136 
L 57.811575 170.875377 
L 59.626647 171.308959 
L 62.014965 172.817117 
L 63.105011 173.031385 
L 62.955742 173.245359 
L 63.181528 173.45904 
L 65.676467 174.523066 
L 66.698778 174.946644 
L 68.739636 175.579848 
L 69.157341 175.790342 
L 72.093818 176.629461 
L 73.358222 177.047315 
L 77.43492 178.294111 
L 83.374356 179.940885 
L 84.910958 180.145489 
L 85.090333 180.349819 
L 85.911944 180.553875 
L 87.290495 180.757658 
L 87.853707 180.961169 
L 87.709455 181.164407 
L 88.472111 181.367374 
L 91.029769 181.772495 
L 92.117306 182.176537 
L 95.318455 182.780584 
L 95.5179 182.981398 
L 96.009613 183.181946 
L 100.906668 183.981479 
L 101.291759 184.180701 
L 102.884808 184.578355 
L 107.534753 185.567905 
L 107.892248 185.765033 
L 110.130042 186.158512 
L 112.349396 186.550958 
L 113.742624 186.942374 
L 121.248515 188.304282 
L 121.237101 188.497825 
L 125.48339 189.269479 
L 127.066905 189.653802 
L 132.406 190.610252 
L 147.324835 193.629693 
L 149.72971 194.002774 
L 149.965908 194.188956 
L 160.075869 196.03776 
L 162.839745 196.587826 
L 163.952496 196.770716 
L 164.337587 196.953375 
L 167.835143 197.499964 
L 168.140331 197.863205 
L 174.699049 199.127355 
L 175.799632 199.486499 
L 179.273732 200.202086 
L 178.958886 200.380423 
L 179.701096 200.558536 
L 181.222018 200.736427 
L 181.638468 200.914095 
L 182.68712 201.091541 
L 184.62236 201.268766 
L 185.995142 201.799116 
L 186.199102 201.975459 
L 189.808297 202.327486 
L 188.856106 202.503172 
L 189.457827 202.853889 
L 190.136691 203.028921 
L 191.609445 203.203737 
L 191.587745 203.378335 
L 191.82896 203.552717 
L 193.158842 203.726884 
L 192.819535 203.900835 
L 195.544902 204.4214 
L 195.677112 204.594493 
L 196.801152 204.94004 
L 196.938756 205.112494 
L 198.415901 205.456766 
L 200.574042 206.313753 
L 203.178237 206.995568 
L 205.901723 207.84316 
L 205.977863 208.012059 
L 209.770071 209.355873 
L 210.151022 209.522933 
L 211.187256 209.856448 
L 211.492068 210.022902 
L 212.441625 210.355208 
L 213.557135 210.852163 
L 215.54393 211.676437 
L 215.733591 211.840698 
L 216.810842 212.168627 
L 217.256269 212.332296 
L 217.378821 212.49577 
L 218.85007 212.985016 
L 218.568338 213.147707 
L 220.547607 213.958256 
L 220.274782 214.119786 
L 221.274639 214.44227 
L 222.393536 215.084938 
L 222.573412 215.245129 
L 223.77999 215.883993 
L 223.975546 216.043237 
L 224.858922 216.36116 
L 224.760705 216.519839 
L 225.491275 216.836637 
L 228.667035 219.344355 
L 232.395772 223.320864 
L 232.55396 223.621825 
L 232.780901 223.922093 
L 232.991911 224.221673 
L 233.495439 225.116301 
L 234.742169 226.004812 
L 234.78256 226.152307 
L 235.215192 226.446793 
L 235.154706 226.74061 
L 235.67104 227.03376 
L 235.47181 227.47224 
L 235.912858 227.763732 
L 235.916894 227.909231 
L 235.600595 228.199735 
L 235.884834 228.344742 
L 235.884834 228.344742 
" clip-path="url(#p91e55b591c)" style="fill: none; stroke: #17becf; stroke-width: 1.5; stroke-linecap: square"/>
   </g>
   <g id="line2d_15">
    <path d="M 236.998861 86.978908 
L 236.550826 87.327138 
L 236.691656 88.021773 
L 235.927443 88.368182 
L 235.632518 88.713986 
L 234.670369 89.059188 
L 233.539016 89.747791 
L 219.896088 90.434002 
L 230.9432 90.776216 
L 233.907337 91.117836 
L 235.842264 91.458864 
L 236.432222 91.799303 
L 236.558056 92.139153 
L 236.349115 92.478416 
L 236.366494 92.817093 
L 235.586044 93.492698 
L 235.059888 93.829629 
L 235.698596 94.16598 
L 236.635739 94.501753 
L 236.575669 95.505619 
L 235.691659 96.172001 
L 233.752874 96.504337 
L 229.908271 96.836106 
L 223.523095 97.167309 
L 219.759738 97.497947 
L 221.620845 97.828022 
L 230.105796 98.814881 
L 232.381535 99.142717 
L 234.14963 99.796722 
L 235.654137 101.098104 
L 236.250655 101.422077 
L 236.353756 101.745503 
L 236.779825 102.068385 
L 236.496554 102.390722 
L 236.633902 102.712518 
L 235.489547 103.354488 
L 235.016236 103.674666 
L 231.70104 104.631982 
L 229.598705 104.95002 
L 221.679675 105.900952 
L 215.338841 106.216873 
L 192.576438 106.847137 
L 167.248099 107.161484 
L 66.731392 107.788611 
L 50.019437 108.101395 
L 185.581576 109.036641 
L 213.727479 109.34736 
L 225.251013 109.657565 
L 231.269989 109.967258 
L 233.150701 110.27644 
L 235.997999 110.585114 
L 236.904419 110.893279 
L 236.398073 111.200937 
L 236.391585 111.50809 
L 234.710459 112.731669 
L 234.055013 113.036313 
L 233.674463 113.340458 
L 233.528015 113.644106 
L 232.054835 115.154934 
L 231.951675 115.755829 
L 231.283586 116.055545 
L 230.17436 116.354775 
L 230.451701 116.65352 
L 231.259101 116.951781 
L 231.425242 117.249559 
L 232.074992 117.546856 
L 233.867799 118.14001 
L 233.614617 118.435869 
L 230.731413 118.731252 
L 216.123072 119.026159 
L 140.582728 119.320591 
L 123.078639 119.614551 
L 201.362162 120.201053 
L 210.680491 120.493599 
L 216.368427 120.785676 
L 219.286088 121.077286 
L 226.101262 122.239068 
L 230.456204 123.680907 
L 231.068725 123.967901 
L 232.191887 124.254439 
L 232.399309 124.540522 
L 232.405167 124.826153 
L 232.93342 125.11133 
L 233.980504 125.396057 
L 234.466923 125.680334 
L 235.675581 126.24754 
L 235.823036 126.812959 
L 236.303838 127.095001 
L 236.619647 127.657753 
L 236.469846 127.938467 
L 236.465605 128.218739 
L 234.659719 129.891178 
L 233.844167 130.445179 
L 233.621202 130.721532 
L 232.289703 131.272947 
L 231.67801 132.096859 
L 231.662443 132.370644 
L 231.410528 132.644005 
L 231.495248 133.189456 
L 231.025826 133.461549 
L 230.861165 133.733222 
L 230.467694 134.004475 
L 231.299479 134.275309 
L 232.234172 135.623235 
L 233.173418 135.891578 
L 233.260032 136.159509 
L 234.992754 137.227134 
L 235.262782 137.49302 
L 236.111893 138.023573 
L 236.100644 138.288243 
L 236.444667 138.55251 
L 236.467902 138.816374 
L 236.050256 139.342897 
L 236.089991 139.605559 
L 234.954659 139.867822 
L 235.031452 140.129687 
L 234.685923 140.391155 
L 231.452186 141.173185 
L 230.685127 141.433073 
L 230.762835 141.692569 
L 229.559243 141.951674 
L 226.127052 142.468711 
L 225.315889 142.726645 
L 222.409968 143.241351 
L 221.914743 143.498123 
L 220.367103 143.75451 
L 220.597782 144.010513 
L 219.876645 144.266132 
L 217.24799 144.776221 
L 217.29691 145.030693 
L 217.625429 145.284785 
L 215.584321 145.538498 
L 215.224442 145.791831 
L 218.056681 146.044787 
L 213.043722 146.549569 
L 217.533484 146.801397 
L 221.796206 147.554636 
L 226.57964 148.054934 
L 228.550981 148.304527 
L 234.64404 148.802606 
L 232.631857 149.051093 
L 234.391887 149.299213 
L 234.281628 149.546967 
L 235.558718 149.794356 
L 233.066797 150.04138 
L 229.374236 150.28804 
L 227.453797 150.534337 
L 220.28005 150.780272 
L 202.846959 151.271058 
L 199.183575 151.515911 
L 173.357376 152.248319 
L 170.455771 152.491741 
L 146.654876 153.219874 
L 138.793873 153.703527 
L 133.188726 154.185771 
L 123.517668 154.666614 
L 124.615241 154.906512 
L 123.625042 155.146062 
L 115.481806 155.624119 
L 113.502914 155.862629 
L 106.077176 156.338613 
L 107.803188 156.576089 
L 105.53278 156.813223 
L 105.194101 157.050014 
L 101.977899 157.522572 
L 97.800851 157.758342 
L 96.89896 157.993771 
L 97.019379 158.228863 
L 92.83606 158.463616 
L 91.333326 158.698033 
L 91.545314 158.932113 
L 90.181815 159.165857 
L 86.448814 159.399267 
L 86.026092 159.632342 
L 85.094096 159.865085 
L 88.512251 160.097494 
L 81.918034 160.329571 
L 81.599424 160.561317 
L 80.577114 160.792733 
L 78.948943 161.023818 
L 76.23198 161.254575 
L 76.379996 161.485003 
L 77.03854 161.715103 
L 78.350609 161.944876 
L 77.540287 162.174322 
L 72.974385 162.403443 
L 73.175084 162.632239 
L 69.544941 162.860711 
L 69.655325 163.088859 
L 68.764723 163.544187 
L 66.301143 163.998229 
L 72.077511 164.224769 
L 67.451399 164.45099 
L 69.132253 164.676892 
L 63.970526 164.902475 
L 65.630056 165.127742 
L 65.830755 165.352691 
L 68.193986 165.577324 
L 66.212083 165.801642 
L 61.854406 166.025645 
L 61.961027 166.249333 
L 63.281877 166.472709 
L 62.71992 166.695771 
L 63.092468 166.918521 
L 64.062095 167.14096 
L 61.609804 167.363088 
L 62.512949 167.584905 
L 59.752084 167.806413 
L 59.981633 168.027612 
L 62.299707 168.248503 
L 60.3454 168.469086 
L 61.636146 168.909331 
L 60.384286 169.128995 
L 63.418604 169.348354 
L 61.001435 169.786159 
L 61.315027 170.004607 
L 63.153932 170.440594 
L 61.991132 170.658136 
L 62.586957 170.875377 
L 62.003676 171.308959 
L 66.503096 171.741346 
L 65.050537 171.957093 
L 62.188068 172.172543 
L 65.219877 172.387697 
L 64.600219 172.602554 
L 62.970794 172.817117 
L 62.837831 173.031385 
L 65.390471 173.245359 
L 65.480786 173.45904 
L 65.149633 173.672428 
L 63.379718 173.885524 
L 67.570564 174.098329 
L 67.995795 174.310843 
L 64.457221 174.734999 
L 71.945802 175.158 
L 71.319872 175.369068 
L 70.264948 175.579848 
L 71.925733 176.00055 
L 72.218 176.210472 
L 75.721452 176.629461 
L 74.50346 176.83853 
L 75.417895 177.047315 
L 74.727992 177.255818 
L 75.10932 177.464039 
L 78.04078 177.671978 
L 76.944462 177.879636 
L 80.805409 178.294111 
L 79.815712 178.500929 
L 82.0949 178.707469 
L 82.707032 178.91373 
L 83.859797 179.119714 
L 80.918302 179.325421 
L 84.499525 179.736006 
L 82.621735 179.940885 
L 86.207975 180.145489 
L 84.879599 180.349819 
L 85.529362 180.553875 
L 89.591008 180.757658 
L 90.597011 180.961169 
L 80.030209 181.367374 
L 85.297303 181.57007 
L 96.407247 181.772495 
L 94.476774 182.176537 
L 94.328758 182.378154 
L 95.337271 182.579503 
L 102.048144 182.780584 
L 101.989188 182.981398 
L 99.134245 183.181946 
L 99.23334 183.382227 
L 107.562349 184.180701 
L 104.288446 184.379659 
L 108.963479 184.974959 
L 107.682768 185.172868 
L 110.833742 185.567905 
L 110.496317 185.765033 
L 109.028706 185.961902 
L 116.47213 186.550958 
L 116.357104 186.746794 
L 116.977641 186.942374 
L 118.665895 187.137697 
L 120.298206 187.527577 
L 121.677635 187.722134 
L 121.508295 187.916437 
L 124.855703 188.304282 
L 122.804183 188.497825 
L 126.476097 188.691116 
L 124.974994 188.884155 
L 129.882586 189.269479 
L 129.773331 189.461765 
L 134.044707 190.228416 
L 133.272643 190.419458 
L 136.185413 190.800799 
L 135.009442 190.9911 
L 138.447792 191.181155 
L 136.835176 191.370964 
L 137.748733 191.560528 
L 140.71682 191.749848 
L 140.802744 191.938923 
L 140.645697 192.127755 
L 143.793912 192.316343 
L 142.718918 192.504689 
L 147.392069 193.068275 
L 146.942001 193.255655 
L 150.534639 193.816353 
L 152.24196 194.002774 
L 151.203217 194.188956 
L 151.903155 194.374901 
L 154.758098 194.560607 
L 154.993042 194.746077 
L 155.865204 195.116306 
L 159.892104 195.301067 
L 159.148264 195.485592 
L 161.15149 195.853938 
L 161.3695 196.03776 
L 162.592886 196.404704 
L 164.829801 196.770716 
L 163.715796 196.953375 
L 167.697665 197.499964 
L 167.354971 197.681699 
L 167.669943 197.863205 
L 171.687561 198.22553 
L 171.031526 198.40635 
L 173.147646 198.586942 
L 174.683244 199.127355 
L 174.69792 199.30704 
L 178.147309 200.023526 
L 180.5493 200.202086 
L 178.4032 200.380423 
L 179.717402 200.558536 
L 182.420191 200.736427 
L 181.36627 200.914095 
L 184.397578 201.268766 
L 183.614224 201.44577 
L 183.840638 201.622553 
L 184.845513 201.799116 
L 184.295472 201.975459 
L 186.84322 202.151582 
L 186.980699 202.327486 
L 185.837091 202.503172 
L 189.719237 202.853889 
L 189.032345 203.028921 
L 191.994411 203.203737 
L 191.204535 203.378335 
L 191.480872 203.552717 
L 193.593104 203.726884 
L 193.635502 203.900835 
L 193.318272 204.074571 
L 195.664945 204.4214 
L 195.101733 204.594493 
L 195.203713 204.767373 
L 196.799396 204.94004 
L 196.748343 205.112494 
L 198.987517 205.284736 
L 198.389685 205.456766 
L 198.617102 205.628585 
L 201.047065 205.971589 
L 201.097365 206.313753 
L 201.066758 206.48452 
L 203.332901 206.825427 
L 203.500108 206.995568 
L 203.907026 207.165501 
L 203.769296 207.335226 
L 205.261493 207.504744 
L 204.752345 207.674055 
L 205.324588 208.012059 
L 207.755554 208.349239 
L 207.792935 208.517522 
L 208.179907 208.6856 
L 208.008811 208.853473 
L 209.79014 209.18861 
L 210.00401 209.355873 
L 210.693411 209.689792 
L 212.130416 209.856448 
L 211.55579 210.022902 
L 212.990662 210.355208 
L 212.083001 210.52106 
L 214.263721 210.852163 
L 214.257073 211.182469 
L 215.381364 211.347323 
L 215.043939 211.511979 
L 215.943446 211.676437 
L 215.92877 211.840698 
L 216.954844 212.004761 
L 216.139755 212.168627 
L 217.866645 212.332296 
L 216.56185 212.49577 
L 217.891857 212.822129 
L 217.914436 212.985016 
L 218.783588 213.147707 
L 218.459208 213.310205 
L 218.85885 213.472508 
L 218.181993 213.634617 
L 220.15662 213.958256 
L 220.068062 214.119786 
L 221.535046 214.281124 
L 219.688615 214.44227 
L 219.687988 214.603224 
L 222.559865 215.084938 
L 220.275534 215.245129 
L 221.805237 215.405129 
L 221.718435 215.56494 
L 223.803948 215.724561 
L 223.421993 215.883993 
L 221.649695 216.043237 
L 224.614898 216.202292 
L 225.19192 216.678332 
L 225.971021 216.836637 
L 225.922602 216.994755 
L 226.580882 217.467994 
L 226.5428 217.62537 
L 227.072407 217.939565 
L 226.949215 218.096386 
L 227.835665 218.565746 
L 227.86799 218.877737 
L 228.578778 219.188998 
L 228.791105 219.499531 
L 229.235428 219.80934 
L 230.126067 220.426794 
L 230.520779 220.734444 
L 230.147103 220.888001 
L 230.57764 221.19458 
L 231.120066 221.347602 
L 230.864928 221.500448 
L 231.319085 221.653116 
L 231.881682 222.413811 
L 231.728435 222.565423 
L 232.125142 222.71686 
L 232.086282 222.868122 
L 232.37308 223.170124 
L 232.410548 223.320864 
L 232.677102 223.471431 
L 232.498555 223.621825 
L 232.653181 223.772045 
L 232.604951 223.922093 
L 233.099009 224.071969 
L 233.200901 224.221673 
L 232.903804 224.371205 
L 233.095446 224.520566 
L 233.095446 224.520566 
" clip-path="url(#p91e55b591c)" style="fill: none; stroke: #bcbd22; stroke-width: 1.5; stroke-linecap: square"/>
   </g>
   <g id="line2d_16">
    <path d="M 236.596846 86.978908 
L 236.40091 87.674759 
L 236.148537 88.021773 
L 236.351159 88.368182 
L 236.015446 88.713986 
L 236.45718 89.059188 
L 233.887442 89.403789 
L 222.464282 90.091195 
L 221.576189 90.434002 
L 232.337155 90.776216 
L 235.839773 91.117836 
L 236.641487 91.458864 
L 236.406531 92.139153 
L 236.560701 92.478416 
L 235.887777 92.817093 
L 234.288915 93.155187 
L 231.095794 93.492698 
L 217.682127 93.829629 
L 219.454801 94.16598 
L 228.991942 94.501753 
L 234.327274 94.836949 
L 236.169465 95.171571 
L 236.707811 95.839095 
L 236.62299 96.172001 
L 236.984602 96.504337 
L 236.895935 96.836106 
L 236.364911 97.497947 
L 234.901135 97.828022 
L 236.293194 98.157535 
L 236.849131 98.486487 
L 237.002676 98.814881 
L 236.703292 99.142717 
L 236.696901 99.796722 
L 236.485244 100.773584 
L 236.796589 101.098104 
L 236.667193 101.422077 
L 236.788733 101.745503 
L 236.515815 102.068385 
L 236.79638 102.390722 
L 236.490378 102.712518 
L 236.761933 103.033773 
L 236.60397 103.674666 
L 236.732508 103.994306 
L 236.473825 104.313411 
L 236.045576 104.631982 
L 236.195994 104.95002 
L 236.565527 105.267527 
L 236.294501 105.584504 
L 235.460107 105.900952 
L 236.157618 106.216873 
L 236.354922 109.967258 
L 238.205958 110.27644 
L 236.527454 110.585114 
L 236.172172 110.893279 
L 236.784806 111.200937 
L 236.680746 111.50809 
L 236.820421 111.814738 
L 236.625825 112.731669 
L 236.830522 113.340458 
L 236.619782 114.552081 
L 236.819966 115.154934 
L 236.529512 115.755829 
L 236.236026 116.055545 
L 236.28747 116.354775 
L 236.75154 116.65352 
L 236.754353 116.951781 
L 237.05798 117.249559 
L 237.076973 117.546856 
L 236.777464 117.843672 
L 236.745024 118.14001 
L 237.243531 118.435869 
L 236.752384 120.785676 
L 236.05824 121.077286 
L 236.776999 121.659106 
L 237.118071 121.949319 
L 236.890071 122.528356 
L 237.25758 122.817183 
L 236.893216 123.393457 
L 237.113632 123.967901 
L 236.474283 124.254439 
L 236.247519 124.540522 
L 236.198159 124.826153 
L 236.468816 125.11133 
L 236.399267 125.396057 
L 236.565232 125.680334 
L 236.085971 126.530473 
L 236.09521 127.376598 
L 235.859834 127.657753 
L 235.88449 127.938467 
L 235.690346 128.218739 
L 235.739603 128.498572 
L 235.604199 128.777967 
L 235.681147 129.056923 
L 235.45509 129.891178 
L 235.509518 130.445179 
L 235.353072 130.721532 
L 235.79653 131.272947 
L 235.483263 132.370644 
L 235.586095 132.644005 
L 234.864658 133.189456 
L 236.01685 134.004475 
L 235.445619 134.275309 
L 235.460446 134.815726 
L 235.569957 135.08531 
L 235.536823 135.623235 
L 234.870805 135.891578 
L 234.985015 136.159509 
L 234.249641 136.960841 
L 233.692225 137.49302 
L 228.981117 139.342897 
L 228.032676 139.605559 
L 227.961942 139.867822 
L 226.060921 140.129687 
L 225.043691 140.391155 
L 224.867339 140.652226 
L 224.843669 140.912903 
L 223.588071 141.173185 
L 223.099118 141.433073 
L 221.890032 141.692569 
L 221.887524 141.951674 
L 222.064891 142.210387 
L 222.550708 142.468711 
L 222.47369 142.726645 
L 222.946587 142.984192 
L 223.162213 143.241351 
L 222.781261 143.498123 
L 224.113275 143.75451 
L 223.705731 144.010513 
L 224.323533 144.266132 
L 227.030272 144.776221 
L 227.267975 145.030693 
L 227.1386 145.284785 
L 229.183158 145.538498 
L 229.438221 145.791831 
L 226.709167 146.044787 
L 229.422755 146.297366 
L 230.047995 146.549569 
L 222.815129 146.801397 
L 214.195233 147.303929 
L 197.436866 147.80497 
L 153.031962 148.802606 
L 151.75815 149.051093 
L 148.043588 149.299213 
L 147.859823 149.546967 
L 147.137181 149.794356 
L 159.644994 150.780272 
L 166.032992 151.025845 
L 165.814983 151.271058 
L 165.198711 151.515911 
L 173.538633 152.004541 
L 170.51021 152.491741 
L 173.150782 152.734807 
L 177.944854 152.977517 
L 178.317401 153.219874 
L 179.687297 153.461876 
L 179.63637 153.703527 
L 179.968903 153.944825 
L 179.864289 154.185771 
L 183.244186 154.426368 
L 184.782418 154.666614 
L 182.276691 154.906512 
L 181.616517 155.146062 
L 186.630479 155.624119 
L 187.877824 155.862629 
L 193.451611 156.338613 
L 191.205162 156.576089 
L 192.549595 156.813223 
L 192.247041 157.050014 
L 192.845249 157.286463 
L 193.976188 157.522572 
L 197.762626 157.758342 
L 197.997444 157.993771 
L 197.422692 158.228863 
L 201.301325 158.463616 
L 202.750874 158.698033 
L 201.866795 158.932113 
L 202.655291 159.165857 
L 206.75231 159.399267 
L 206.368097 159.632342 
L 206.931309 159.865085 
L 203.111881 160.097494 
L 209.672732 160.329571 
L 209.712746 160.561317 
L 211.605463 161.023818 
L 214.194731 161.254575 
L 213.837738 161.485003 
L 213.020893 161.715103 
L 211.524054 161.944876 
L 212.210445 162.174322 
L 216.583425 162.403443 
L 216.486337 162.632239 
L 219.994681 162.860711 
L 219.813425 163.088859 
L 220.480498 163.316684 
L 220.227492 163.544187 
L 222.919242 163.998229 
L 216.860766 164.224769 
L 221.746658 164.45099 
L 220.029176 164.676892 
L 225.717751 164.902475 
L 223.535137 165.127742 
L 223.427136 165.352691 
L 221.621221 165.577324 
L 222.982964 165.801642 
L 227.66275 166.025645 
L 227.935312 166.249333 
L 226.411354 166.472709 
L 227.346524 166.918521 
L 226.139821 167.14096 
L 228.663373 167.363088 
L 228.30214 167.584905 
L 231.087465 167.806413 
L 230.808569 168.027612 
L 229.289127 168.248503 
L 231.141742 168.469086 
L 230.354237 168.689362 
L 230.19645 168.909331 
L 231.638409 169.128995 
L 228.845118 169.348354 
L 231.983938 170.004607 
L 230.850026 170.222752 
L 230.758796 170.440594 
L 231.354633 170.658136 
L 231.254786 170.875377 
L 234.018561 171.308959 
L 230.064314 171.741346 
L 231.954309 171.957093 
L 235.098121 172.172543 
L 232.410047 172.387697 
L 233.257962 172.602554 
L 236.357836 173.031385 
L 233.571968 173.245359 
L 233.864387 173.45904 
L 234.653397 173.672428 
L 237.040122 173.885524 
L 233.643129 174.098329 
L 233.552488 174.310843 
L 237.787537 174.734999 
L 231.473861 175.158 
L 234.540354 175.579848 
L 233.919015 175.790342 
L 234.115788 176.00055 
L 234.857972 176.210472 
L 232.507185 176.629461 
L 234.194549 176.83853 
L 234.040262 177.047315 
L 235.392534 177.255818 
L 235.786843 177.464039 
L 233.689051 177.671978 
L 235.172154 177.879636 
L 232.745013 178.294111 
L 234.469545 178.500929 
L 232.961931 178.707469 
L 233.238808 178.91373 
L 233.069443 179.119714 
L 236.207439 179.325421 
L 234.76752 179.736006 
L 236.806674 179.940885 
L 234.882433 180.145489 
L 236.479607 180.349819 
L 236.462241 180.553875 
L 233.962918 180.757658 
L 233.407671 180.961169 
L 237.74288 181.164407 
L 244.669833 181.367374 
L 241.093264 181.57007 
L 230.877409 181.772495 
L 235.065282 182.378154 
L 235.163098 182.579503 
L 229.639798 182.780584 
L 229.869147 182.981398 
L 233.339634 183.181946 
L 234.385891 183.382227 
L 233.034835 183.582243 
L 233.016823 183.781993 
L 229.713254 184.180701 
L 233.72588 184.379659 
L 231.499237 184.776788 
L 232.276607 184.974959 
L 234.015137 185.172868 
L 233.122578 185.567905 
L 233.88092 185.765033 
L 236.268485 185.961902 
L 234.836912 186.158512 
L 231.94662 186.354864 
L 233.255943 186.942374 
L 232.836858 187.137697 
L 233.038849 187.332765 
L 232.770803 187.722134 
L 233.965301 187.916437 
L 233.853248 188.110486 
L 233.01696 188.304282 
L 234.923588 188.497825 
L 232.495984 188.691116 
L 235.028052 188.884155 
L 232.125581 189.269479 
L 233.000152 189.461765 
L 232.383241 189.845589 
L 232.788966 190.037127 
L 232.512353 190.228416 
L 234.373472 190.419458 
L 233.695135 190.610252 
L 233.790178 190.800799 
L 235.616135 190.9911 
L 233.756762 191.181155 
L 235.585038 191.370964 
L 235.528104 191.560528 
L 233.385707 191.749848 
L 234.299854 191.938923 
L 235.960437 192.127755 
L 233.927733 192.316343 
L 235.591571 192.504689 
L 233.811591 193.068275 
L 234.954157 193.255655 
L 234.955725 193.442794 
L 234.649045 193.816353 
L 234.169738 194.002774 
L 235.37777 194.188956 
L 235.807823 194.374901 
L 234.412759 194.560607 
L 236.171221 195.116306 
L 233.770297 195.301067 
L 235.658696 195.485592 
L 235.280996 195.853938 
L 235.697508 196.03776 
L 235.634182 196.221348 
L 236.021012 196.404704 
L 235.77167 196.587826 
L 236.04369 196.770716 
L 237.379129 196.953375 
L 236.690078 197.317998 
L 236.894872 197.499964 
L 237.367108 197.681699 
L 237.227624 197.863205 
L 235.230093 198.22553 
L 236.414211 198.40635 
L 235.324811 198.586942 
L 236.773113 199.127355 
L 237.23976 199.30704 
L 236.521194 199.665732 
L 236.822167 200.023526 
L 235.48177 200.202086 
L 237.312982 200.380423 
L 236.741092 200.558536 
L 235.55906 200.736427 
L 237.029573 200.914095 
L 236.196337 201.091541 
L 236.982133 201.268766 
L 238.337604 201.44577 
L 238.328961 201.622553 
L 237.906974 201.799116 
L 238.660968 201.975459 
L 238.208918 202.151582 
L 239.584923 202.327486 
L 239.77634 202.503172 
L 238.565485 202.67864 
L 236.495961 202.853889 
L 237.861657 203.028921 
L 236.37231 203.203737 
L 237.140565 203.378335 
L 237.105397 203.552717 
L 235.941316 203.900835 
L 237.12551 204.074571 
L 237.023219 204.248092 
L 236.637288 204.4214 
L 237.801927 204.767373 
L 236.759175 204.94004 
L 236.947717 205.112494 
L 235.651139 205.284736 
L 236.783493 205.456766 
L 236.988915 205.628585 
L 235.879856 205.800193 
L 235.570076 205.971589 
L 235.759933 206.142776 
L 236.233986 206.313753 
L 237.035769 206.48452 
L 236.886959 206.655078 
L 236.421791 206.825427 
L 236.435384 206.995568 
L 236.567064 207.165501 
L 237.177792 207.335226 
L 236.597699 207.504744 
L 237.654087 207.674055 
L 237.638848 207.84316 
L 237.410502 208.012059 
L 236.343689 208.349239 
L 236.589385 208.517522 
L 236.61232 208.6856 
L 237.281138 208.853473 
L 236.470832 209.021143 
L 236.370302 209.18861 
L 236.523329 209.355873 
L 236.496252 209.522933 
L 236.887315 209.689792 
L 235.814128 209.856448 
L 236.693606 210.022902 
L 236.208293 210.355208 
L 237.430999 210.52106 
L 236.932565 210.686711 
L 236.050723 210.852163 
L 236.892848 211.182469 
L 236.177296 211.347323 
L 237.091563 211.511979 
L 236.357772 211.676437 
L 236.562115 211.840698 
L 236.246372 212.004761 
L 237.428415 212.168627 
L 236.146987 212.332296 
L 237.57432 212.49577 
L 237.247734 212.659047 
L 237.293644 212.822129 
L 237.693023 212.985016 
L 236.542082 213.147707 
L 237.310995 213.310205 
L 237.389861 213.472508 
L 238.240077 213.634617 
L 237.845268 213.796533 
L 237.14827 213.958256 
L 236.963996 214.119786 
L 236.101308 214.281124 
L 238.343374 214.44227 
L 238.676045 214.603224 
L 236.590939 215.084938 
L 239.055178 215.245129 
L 237.8839 215.405129 
L 238.316355 215.56494 
L 236.499422 215.724561 
L 237.115223 215.883993 
L 239.083125 216.043237 
L 236.786013 216.202292 
L 237.077021 216.678332 
L 236.526343 216.836637 
L 236.763342 216.994755 
L 236.657512 217.152688 
L 236.958306 217.62537 
L 236.784844 217.78256 
L 236.823866 217.939565 
L 237.134448 218.096386 
L 236.943191 218.253023 
L 236.972062 218.409476 
L 236.809922 218.565746 
L 237.144481 218.877737 
L 236.79366 219.188998 
L 236.917382 219.499531 
L 236.75613 219.654526 
L 236.794546 219.963974 
L 236.762451 220.2727 
L 236.396915 220.580708 
L 236.467842 220.734444 
L 236.994215 220.888001 
L 236.877336 221.19458 
L 236.427138 221.347602 
L 236.838827 221.500448 
L 236.516777 221.653116 
L 236.652263 222.110061 
L 236.537203 222.262024 
L 236.62055 222.413811 
L 236.912336 222.565423 
L 236.632452 222.71686 
L 236.756986 222.868122 
L 236.635882 223.01921 
L 236.763228 223.320864 
L 236.589232 223.471431 
L 236.871885 223.621825 
L 236.811313 223.772045 
L 236.977137 223.922093 
L 236.575368 224.071969 
L 236.555063 224.221673 
L 236.952131 224.371205 
L 236.780471 224.669756 
L 236.919198 224.818775 
L 236.626736 224.967623 
L 236.897982 225.116301 
L 236.343768 225.413148 
L 236.579828 225.561317 
L 236.294329 225.709318 
L 236.24272 226.004812 
L 236.043278 226.299634 
L 236.094604 226.446793 
L 235.791485 226.74061 
L 236.029441 227.03376 
L 236.041123 227.180086 
L 235.625126 227.326245 
L 235.686189 227.47224 
L 236.202188 227.763732 
L 235.825941 228.199735 
L 235.912356 228.344742 
L 235.912356 228.344742 
" clip-path="url(#p91e55b591c)" style="fill: none; stroke: #7f7f7f; stroke-width: 1.5; stroke-linecap: square"/>
   </g>
   <g id="patch_3">
    <path d="M 48.602 299.608 
L 48.602 26.88 
" style="fill: none; stroke: #000000; stroke-width: 0.8; stroke-linejoin: miter; stroke-linecap: square"/>
   </g>
   <g id="patch_4">
    <path d="M 249.301 299.608 
L 249.301 26.88 
" style="fill: none; stroke: #000000; stroke-width: 0.8; stroke-linejoin: miter; stroke-linecap: square"/>
   </g>
   <g id="patch_5">
    <path d="M 48.602 299.608 
L 249.301 299.608 
" style="fill: none; stroke: #000000; stroke-width: 0.8; stroke-linejoin: miter; stroke-linecap: square"/>
   </g>
   <g id="patch_6">
    <path d="M 48.602 26.88 
L 249.301 26.88 
" style="fill: none; stroke: #000000; stroke-width: 0.8; stroke-linejoin: miter; stroke-linecap: square"/>
   </g>
   <g id="text_15">
    <!-- photodissociation -->
    <g transform="translate(96.111188 20.88) scale(0.12 -0.12)">
     <defs>
      <path id="DejaVuSans-70" d="M 1159 525 
L 1159 -1331 
L 581 -1331 
L 581 3500 
L 1159 3500 
L 1159 2969 
Q 1341 3281 1617 3432 
Q 1894 3584 2278 3584 
Q 2916 3584 3314 3078 
Q 3713 2572 3713 1747 
Q 3713 922 3314 415 
Q 2916 -91 2278 -91 
Q 1894 -91 1617 61 
Q 1341 213 1159 525 
z
M 3116 1747 
Q 3116 2381 2855 2742 
Q 2594 3103 2138 3103 
Q 1681 3103 1420 2742 
Q 1159 2381 1159 1747 
Q 1159 1113 1420 752 
Q 1681 391 2138 391 
Q 2594 391 2855 752 
Q 3116 1113 3116 1747 
z
" transform="scale(0.015625)"/>
      <path id="DejaVuSans-68" d="M 3513 2113 
L 3513 0 
L 2938 0 
L 2938 2094 
Q 2938 2591 2744 2837 
Q 2550 3084 2163 3084 
Q 1697 3084 1428 2787 
Q 1159 2491 1159 1978 
L 1159 0 
L 581 0 
L 581 4863 
L 1159 4863 
L 1159 2956 
Q 1366 3272 1645 3428 
Q 1925 3584 2291 3584 
Q 2894 3584 3203 3211 
Q 3513 2838 3513 2113 
z
" transform="scale(0.015625)"/>
      <path id="DejaVuSans-64" d="M 2906 2969 
L 2906 4863 
L 3481 4863 
L 3481 0 
L 2906 0 
L 2906 525 
Q 2725 213 2448 61 
Q 2172 -91 1784 -91 
Q 1150 -91 751 415 
Q 353 922 353 1747 
Q 353 2572 751 3078 
Q 1150 3584 1784 3584 
Q 2172 3584 2448 3432 
Q 2725 3281 2906 2969 
z
M 947 1747 
Q 947 1113 1208 752 
Q 1469 391 1925 391 
Q 2381 391 2643 752 
Q 2906 1113 2906 1747 
Q 2906 2381 2643 2742 
Q 2381 3103 1925 3103 
Q 1469 3103 1208 2742 
Q 947 2381 947 1747 
z
" transform="scale(0.015625)"/>
     </defs>
     <use xlink:href="#DejaVuSans-70"/>
     <use xlink:href="#DejaVuSans-68" x="63.476562"/>
     <use xlink:href="#DejaVuSans-6f" x="126.855469"/>
     <use xlink:href="#DejaVuSans-74" x="188.037109"/>
     <use xlink:href="#DejaVuSans-6f" x="227.246094"/>
     <use xlink:href="#DejaVuSans-64" x="288.427734"/>
     <use xlink:href="#DejaVuSans-69" x="351.904297"/>
     <use xlink:href="#DejaVuSans-73" x="379.6875"/>
     <use xlink:href="#DejaVuSans-73" x="431.787109"/>
     <use xlink:href="#DejaVuSans-6f" x="483.886719"/>
     <use xlink:href="#DejaVuSans-63" x="545.068359"/>
     <use xlink:href="#DejaVuSans-69" x="600.048828"/>
     <use xlink:href="#DejaVuSans-61" x="627.832031"/>
     <use xlink:href="#DejaVuSans-74" x="689.111328"/>
     <use xlink:href="#DejaVuSans-69" x="728.320312"/>
     <use xlink:href="#DejaVuSans-6f" x="756.103516"/>
     <use xlink:href="#DejaVuSans-6e" x="817.285156"/>
    </g>
   </g>
   <g id="legend_1">
    <g id="patch_7">
     <path d="M 54.433 295.443 
L 132.4851 295.443 
Q 134.1511 295.443 134.1511 293.777 
L 134.1511 226.293587 
Q 134.1511 224.627587 132.4851 224.627587 
L 54.433 224.627587 
Q 52.767 224.627587 52.767 226.293587 
L 52.767 293.777 
Q 52.767 295.443 54.433 295.443 
z
" style="fill: #ffffff; opacity: 0.8; stroke: #cccccc; stroke-linejoin: miter"/>
    </g>
    <g id="line2d_17">
     <path d="M 56.099 231.373586 
L 64.429 231.373586 
L 72.759 231.373586 
" style="fill: none; stroke-dasharray: 1.5,2.475; stroke-dashoffset: 0; stroke: #000000; stroke-width: 1.5"/>
    </g>
    <g id="text_16">
     <!-- total -->
     <g transform="translate(79.423 234.289086) scale(0.0833 -0.0833)">
      <defs>
       <path id="DejaVuSans-6c" d="M 603 4863 
L 1178 4863 
L 1178 0 
L 603 0 
L 603 4863 
z
" transform="scale(0.015625)"/>
      </defs>
      <use xlink:href="#DejaVuSans-74"/>
      <use xlink:href="#DejaVuSans-6f" x="39.208984"/>
      <use xlink:href="#DejaVuSans-74" x="100.390625"/>
      <use xlink:href="#DejaVuSans-61" x="139.599609"/>
      <use xlink:href="#DejaVuSans-6c" x="200.878906"/>
     </g>
    </g>
    <g id="line2d_18">
     <path d="M 56.099 241.934464 
L 64.429 241.934464 
L 72.759 241.934464 
" style="fill: none; stroke: #ff7f0e; stroke-width: 1.5; stroke-linecap: square"/>
    </g>
    <g id="text_17">
     <!-- BÂ³Î£â‚â» -->
     <g transform="translate(79.423 244.849964) scale(0.0833 -0.0833)">
      <defs>
       <path id="DejaVuSans-42" d="M 1259 2228 
L 1259 519 
L 2272 519 
Q 2781 519 3026 730 
Q 3272 941 3272 1375 
Q 3272 1813 3026 2020 
Q 2781 2228 2272 2228 
L 1259 2228 
z
M 1259 4147 
L 1259 2741 
L 2194 2741 
Q 2656 2741 2882 2914 
Q 3109 3088 3109 3444 
Q 3109 3797 2882 3972 
Q 2656 4147 2194 4147 
L 1259 4147 
z
M 628 4666 
L 2241 4666 
Q 2963 4666 3353 4366 
Q 3744 4066 3744 3513 
Q 3744 3084 3544 2831 
Q 3344 2578 2956 2516 
Q 3422 2416 3680 2098 
Q 3938 1781 3938 1306 
Q 3938 681 3513 340 
Q 3088 0 2303 0 
L 628 0 
L 628 4666 
z
" transform="scale(0.015625)"/>
       <path id="DejaVuSans-b3" d="M 1638 3500 
Q 1925 3444 2083 3273 
Q 2241 3103 2241 2847 
Q 2241 2459 1944 2250 
Q 1647 2041 1094 2041 
Q 916 2041 720 2073 
Q 525 2106 306 2169 
L 306 2547 
Q 469 2463 655 2422 
Q 841 2381 1050 2381 
Q 1391 2381 1578 2504 
Q 1766 2628 1766 2847 
Q 1766 3078 1592 3197 
Q 1419 3316 1081 3316 
L 813 3316 
L 813 3653 
L 1106 3653 
Q 1400 3653 1551 3751 
Q 1703 3850 1703 4038 
Q 1703 4219 1547 4314 
Q 1391 4409 1094 4409 
Q 969 4409 809 4381 
Q 650 4353 397 4281 
L 397 4641 
Q 625 4694 825 4722 
Q 1025 4750 1197 4750 
Q 1647 4750 1911 4565 
Q 2175 4381 2175 4072 
Q 2175 3856 2034 3706 
Q 1894 3556 1638 3500 
z
" transform="scale(0.015625)"/>
       <path id="DejaVuSans-3a3" d="M 1353 531 
L 3634 531 
L 3634 0 
L 628 0 
L 628 531 
L 2125 2481 
L 628 4134 
L 628 4666 
L 3578 4666 
L 3578 4134 
L 1353 4134 
L 2850 2494 
L 1353 531 
z
" transform="scale(0.015625)"/>
       <path id="DejaVuSans-2081" d="M 488 319 
L 1125 319 
L 1125 2229 
L 428 2101 
L 428 2463 
L 1147 2585 
L 1575 2585 
L 1575 319 
L 2216 319 
L 2216 -24 
L 488 -24 
L 488 319 
z
" transform="scale(0.015625)"/>
       <path id="DejaVuSans-207b" d="M 428 3359 
L 2950 3359 
L 2950 3063 
L 428 3063 
L 428 3359 
z
" transform="scale(0.015625)"/>
      </defs>
      <use xlink:href="#DejaVuSans-42"/>
      <use xlink:href="#DejaVuSans-b3" x="68.603516"/>
      <use xlink:href="#DejaVuSans-3a3" x="108.691406"/>
      <use xlink:href="#DejaVuSans-2081" x="171.875"/>
      <use xlink:href="#DejaVuSans-207b" x="211.962891"/>
     </g>
    </g>
    <g id="line2d_19">
     <path d="M 56.099 252.495342 
L 64.429 252.495342 
L 72.759 252.495342 
" style="fill: none; stroke-dasharray: 5.55,2.4; stroke-dashoffset: 0; stroke: #1f77b4; stroke-width: 1.5"/>
    </g>
    <g id="text_18">
     <!-- Â³Î â‚ -->
     <g transform="translate(79.423 255.410842) scale(0.0833 -0.0833)">
      <defs>
       <path id="DejaVuSans-3a0" d="M 4184 4666 
L 4184 0 
L 3553 0 
L 3553 4134 
L 1259 4134 
L 1259 0 
L 628 0 
L 628 4666 
L 4184 4666 
z
" transform="scale(0.015625)"/>
      </defs>
      <use xlink:href="#DejaVuSans-b3"/>
      <use xlink:href="#DejaVuSans-3a0" x="40.087891"/>
      <use xlink:href="#DejaVuSans-2081" x="115.283203"/>
     </g>
    </g>
    <g id="line2d_20">
     <path d="M 56.099 263.05622 
L 64.429 263.05622 
L 72.759 263.05622 
" style="fill: none; stroke: #17becf; stroke-width: 1.5; stroke-linecap: square"/>
    </g>
    <g id="text_19">
     <!-- expt. total -->
     <g transform="translate(79.423 265.97172) scale(0.0833 -0.0833)">
      <defs>
       <path id="DejaVuSans-78" d="M 3513 3500 
L 2247 1797 
L 3578 0 
L 2900 0 
L 1881 1375 
L 863 0 
L 184 0 
L 1544 1831 
L 300 3500 
L 978 3500 
L 1906 2253 
L 2834 3500 
L 3513 3500 
z
" transform="scale(0.015625)"/>
      </defs>
      <use xlink:href="#DejaVuSans-65"/>
      <use xlink:href="#DejaVuSans-78" x="59.773438"/>
      <use xlink:href="#DejaVuSans-70" x="118.953125"/>
      <use xlink:href="#DejaVuSans-74" x="182.429688"/>
      <use xlink:href="#DejaVuSans-2e" x="221.638672"/>
      <use xlink:href="#DejaVuSans-20" x="253.425781"/>
      <use xlink:href="#DejaVuSans-74" x="285.212891"/>
      <use xlink:href="#DejaVuSans-6f" x="324.421875"/>
      <use xlink:href="#DejaVuSans-74" x="385.603516"/>
      <use xlink:href="#DejaVuSans-61" x="424.8125"/>
      <use xlink:href="#DejaVuSans-6c" x="486.091797"/>
     </g>
    </g>
    <g id="line2d_21">
     <path d="M 56.099 274.7846 
L 64.429 274.7846 
L 72.759 274.7846 
" style="fill: none; stroke: #bcbd22; stroke-width: 1.5; stroke-linecap: square"/>
    </g>
    <g id="text_20">
     <!-- expt. O($^1D_2$) -->
     <g transform="translate(79.423 277.7001) scale(0.0833 -0.0833)">
      <defs>
       <path id="DejaVuSans-4f" d="M 2522 4238 
Q 1834 4238 1429 3725 
Q 1025 3213 1025 2328 
Q 1025 1447 1429 934 
Q 1834 422 2522 422 
Q 3209 422 3611 934 
Q 4013 1447 4013 2328 
Q 4013 3213 3611 3725 
Q 3209 4238 2522 4238 
z
M 2522 4750 
Q 3503 4750 4090 4092 
Q 4678 3434 4678 2328 
Q 4678 1225 4090 567 
Q 3503 -91 2522 -91 
Q 1538 -91 948 565 
Q 359 1222 359 2328 
Q 359 3434 948 4092 
Q 1538 4750 2522 4750 
z
" transform="scale(0.015625)"/>
       <path id="DejaVuSans-Oblique-44" d="M 1081 4666 
L 2438 4666 
Q 3519 4666 4070 4208 
Q 4622 3750 4622 2847 
Q 4622 2250 4412 1698 
Q 4203 1147 3834 769 
Q 3463 381 2891 190 
Q 2319 0 1538 0 
L 172 0 
L 1081 4666 
z
M 1613 4147 
L 909 519 
L 1734 519 
Q 2794 519 3375 1128 
Q 3956 1738 3956 2847 
Q 3956 3519 3581 3833 
Q 3206 4147 2406 4147 
L 1613 4147 
z
" transform="scale(0.015625)"/>
      </defs>
      <use xlink:href="#DejaVuSans-65" transform="translate(0 0.684375)"/>
      <use xlink:href="#DejaVuSans-78" transform="translate(61.523438 0.684375)"/>
      <use xlink:href="#DejaVuSans-70" transform="translate(120.703125 0.684375)"/>
      <use xlink:href="#DejaVuSans-74" transform="translate(184.179688 0.684375)"/>
      <use xlink:href="#DejaVuSans-2e" transform="translate(223.388672 0.684375)"/>
      <use xlink:href="#DejaVuSans-20" transform="translate(255.175781 0.684375)"/>
      <use xlink:href="#DejaVuSans-4f" transform="translate(286.962891 0.684375)"/>
      <use xlink:href="#DejaVuSans-28" transform="translate(365.673828 0.684375)"/>
      <use xlink:href="#DejaVuSans-31" transform="translate(405.644531 38.965625) scale(0.7)"/>
      <use xlink:href="#DejaVuSans-Oblique-44" transform="translate(452.915039 0.684375)"/>
      <use xlink:href="#DejaVuSans-32" transform="translate(529.916992 -15.721875) scale(0.7)"/>
      <use xlink:href="#DejaVuSans-29" transform="translate(577.1875 0.684375)"/>
     </g>
    </g>
    <g id="line2d_22">
     <path d="M 56.099 286.6132 
L 64.429 286.6132 
L 72.759 286.6132 
" style="fill: none; stroke: #7f7f7f; stroke-width: 1.5; stroke-linecap: square"/>
    </g>
    <g id="text_21">
     <!-- expt. O($^3P_J$) -->
     <g transform="translate(79.423 289.5287) scale(0.0833 -0.0833)">
      <defs>
       <path id="DejaVuSans-33" d="M 2597 2516 
Q 3050 2419 3304 2112 
Q 3559 1806 3559 1356 
Q 3559 666 3084 287 
Q 2609 -91 1734 -91 
Q 1441 -91 1130 -33 
Q 819 25 488 141 
L 488 750 
Q 750 597 1062 519 
Q 1375 441 1716 441 
Q 2309 441 2620 675 
Q 2931 909 2931 1356 
Q 2931 1769 2642 2001 
Q 2353 2234 1838 2234 
L 1294 2234 
L 1294 2753 
L 1863 2753 
Q 2328 2753 2575 2939 
Q 2822 3125 2822 3475 
Q 2822 3834 2567 4026 
Q 2313 4219 1838 4219 
Q 1578 4219 1281 4162 
Q 984 4106 628 3988 
L 628 4550 
Q 988 4650 1302 4700 
Q 1616 4750 1894 4750 
Q 2613 4750 3031 4423 
Q 3450 4097 3450 3541 
Q 3450 3153 3228 2886 
Q 3006 2619 2597 2516 
z
" transform="scale(0.015625)"/>
       <path id="DejaVuSans-Oblique-50" d="M 1081 4666 
L 2541 4666 
Q 3178 4666 3512 4369 
Q 3847 4072 3847 3500 
Q 3847 2731 3353 2303 
Q 2859 1875 1966 1875 
L 1172 1875 
L 806 0 
L 172 0 
L 1081 4666 
z
M 1613 4147 
L 1275 2394 
L 2069 2394 
Q 2606 2394 2893 2669 
Q 3181 2944 3181 3456 
Q 3181 3784 2986 3965 
Q 2791 4147 2438 4147 
L 1613 4147 
z
" transform="scale(0.015625)"/>
       <path id="DejaVuSans-Oblique-4a" d="M 1069 4666 
L 1703 4666 
L 856 325 
Q 691 -522 298 -901 
Q -94 -1281 -800 -1281 
L -1050 -1281 
L -947 -750 
L -750 -750 
Q -328 -750 -109 -509 
Q 109 -269 225 325 
L 1069 4666 
z
" transform="scale(0.015625)"/>
      </defs>
      <use xlink:href="#DejaVuSans-65" transform="translate(0 0.765625)"/>
      <use xlink:href="#DejaVuSans-78" transform="translate(61.523438 0.765625)"/>
      <use xlink:href="#DejaVuSans-70" transform="translate(120.703125 0.765625)"/>
      <use xlink:href="#DejaVuSans-74" transform="translate(184.179688 0.765625)"/>
      <use xlink:href="#DejaVuSans-2e" transform="translate(223.388672 0.765625)"/>
      <use xlink:href="#DejaVuSans-20" transform="translate(255.175781 0.765625)"/>
      <use xlink:href="#DejaVuSans-4f" transform="translate(286.962891 0.765625)"/>
      <use xlink:href="#DejaVuSans-28" transform="translate(365.673828 0.765625)"/>
      <use xlink:href="#DejaVuSans-33" transform="translate(405.644531 39.046875) scale(0.7)"/>
      <use xlink:href="#DejaVuSans-Oblique-50" transform="translate(452.915039 0.765625)"/>
      <use xlink:href="#DejaVuSans-Oblique-4a" transform="translate(513.217773 -15.640625) scale(0.7)"/>
      <use xlink:href="#DejaVuSans-29" transform="translate(536.59668 0.765625)"/>
     </g>
    </g>
   </g>
  </g>
  <g id="axes_2">
   <g id="patch_8">
    <path d="M 249.301 299.608 
L 450 299.608 
L 450 26.88 
L 249.301 26.88 
z
" style="fill: #ffffff"/>
   </g>
   <g id="matplotlib.axis_3">
    <g id="xtick_5">
     <g id="line2d_23">
      <g>
       <use xlink:href="#m36c292bbb5" x="269.3709" y="299.608" style="stroke: #000000; stroke-width: 0.8"/>
      </g>
     </g>
     <g id="text_22">
      <!-- 1.0 -->
      <g transform="translate(261.419337 314.206437) scale(0.1 -0.1)">
       <use xlink:href="#DejaVuSans-31"/>
       <use xlink:href="#DejaVuSans-2e" x="63.623047"/>
       <use xlink:href="#DejaVuSans-30" x="95.410156"/>
      </g>
     </g>
    </g>
    <g id="xtick_6">
     <g id="line2d_24">
      <g>
       <use xlink:href="#m36c292bbb5" x="319.54565" y="299.608" style="stroke: #000000; stroke-width: 0.8"/>
      </g>
     </g>
     <g id="text_23">
      <!-- 1.5 -->
      <g transform="translate(311.594088 314.206437) scale(0.1 -0.1)">
       <use xlink:href="#DejaVuSans-31"/>
       <use xlink:href="#DejaVuSans-2e" x="63.623047"/>
       <use xlink:href="#DejaVuSans-35" x="95.410156"/>
      </g>
     </g>
    </g>
    <g id="xtick_7">
     <g id="line2d_25">
      <g>
       <use xlink:href="#m36c292bbb5" x="369.7204" y="299.608" style="stroke: #000000; stroke-width: 0.8"/>
      </g>
     </g>
     <g id="text_24">
      <!-- 2.0 -->
      <g transform="translate(361.768838 314.206437) scale(0.1 -0.1)">
       <use xlink:href="#DejaVuSans-32"/>
       <use xlink:href="#DejaVuSans-2e" x="63.623047"/>
       <use xlink:href="#DejaVuSans-30" x="95.410156"/>
      </g>
     </g>
    </g>
    <g id="xtick_8">
     <g id="line2d_26">
      <g>
       <use xlink:href="#m36c292bbb5" x="419.89515" y="299.608" style="stroke: #000000; stroke-width: 0.8"/>
      </g>
     </g>
     <g id="text_25">
      <!-- 2.5 -->
      <g transform="translate(411.943588 314.206437) scale(0.1 -0.1)">
       <use xlink:href="#DejaVuSans-32"/>
       <use xlink:href="#DejaVuSans-2e" x="63.623047"/>
       <use xlink:href="#DejaVuSans-35" x="95.410156"/>
      </g>
     </g>
    </g>
    <g id="text_26">
     <!-- internuclear distance ($\AA$) -->
     <g transform="translate(287.6005 328.906437) scale(0.1 -0.1)">
      <defs>
       <path id="DejaVuSans-Oblique-c5" d="M 3188 5081 
Q 3188 5278 3048 5417 
Q 2909 5556 2713 5556 
Q 2513 5556 2377 5420 
Q 2241 5284 2241 5081 
Q 2241 4884 2377 4746 
Q 2513 4609 2713 4609 
Q 2909 4609 3048 4746 
Q 3188 4884 3188 5081 
z
M 2203 4397 
Q 2034 4513 1945 4689 
Q 1856 4866 1856 5081 
Q 1856 5438 2106 5689 
Q 2356 5941 2713 5941 
Q 3069 5941 3320 5689 
Q 3572 5438 3572 5081 
Q 3572 4834 3458 4643 
Q 3344 4453 3128 4341 
L 3938 0 
L 3278 0 
L 3084 1197 
L 984 1197 
L 325 0 
L -341 0 
L 2203 4397 
z
M 2584 4044 
L 1275 1722 
L 2988 1722 
L 2584 4044 
z
" transform="scale(0.015625)"/>
      </defs>
      <use xlink:href="#DejaVuSans-69" transform="translate(0 0.171875)"/>
      <use xlink:href="#DejaVuSans-6e" transform="translate(27.783203 0.171875)"/>
      <use xlink:href="#DejaVuSans-74" transform="translate(91.162109 0.171875)"/>
      <use xlink:href="#DejaVuSans-65" transform="translate(130.371094 0.171875)"/>
      <use xlink:href="#DejaVuSans-72" transform="translate(191.894531 0.171875)"/>
      <use xlink:href="#DejaVuSans-6e" transform="translate(233.007812 0.171875)"/>
      <use xlink:href="#DejaVuSans-75" transform="translate(296.386719 0.171875)"/>
      <use xlink:href="#DejaVuSans-63" transform="translate(359.765625 0.171875)"/>
      <use xlink:href="#DejaVuSans-6c" transform="translate(414.746094 0.171875)"/>
      <use xlink:href="#DejaVuSans-65" transform="translate(442.529297 0.171875)"/>
      <use xlink:href="#DejaVuSans-61" transform="translate(504.052734 0.171875)"/>
      <use xlink:href="#DejaVuSans-72" transform="translate(565.332031 0.171875)"/>
      <use xlink:href="#DejaVuSans-20" transform="translate(606.445312 0.171875)"/>
      <use xlink:href="#DejaVuSans-64" transform="translate(638.232422 0.171875)"/>
      <use xlink:href="#DejaVuSans-69" transform="translate(701.708984 0.171875)"/>
      <use xlink:href="#DejaVuSans-73" transform="translate(729.492188 0.171875)"/>
      <use xlink:href="#DejaVuSans-74" transform="translate(781.591797 0.171875)"/>
      <use xlink:href="#DejaVuSans-61" transform="translate(820.800781 0.171875)"/>
      <use xlink:href="#DejaVuSans-6e" transform="translate(882.080078 0.171875)"/>
      <use xlink:href="#DejaVuSans-63" transform="translate(945.458984 0.171875)"/>
      <use xlink:href="#DejaVuSans-65" transform="translate(1000.439453 0.171875)"/>
      <use xlink:href="#DejaVuSans-20" transform="translate(1061.962891 0.171875)"/>
      <use xlink:href="#DejaVuSans-28" transform="translate(1093.75 0.171875)"/>
      <use xlink:href="#DejaVuSans-Oblique-c5" transform="translate(1132.763672 0.171875)"/>
      <use xlink:href="#DejaVuSans-29" transform="translate(1201.171875 0.171875)"/>
     </g>
    </g>
   </g>
   <g id="line2d_27">
    <path d="M 276.520154 -1 
L 278.402355 29.197205 
L 280.409345 58.015061 
L 282.416335 83.699502 
L 284.423325 106.558242 
L 286.430315 126.870049 
L 288.437305 144.887407 
L 290.444295 160.838949 
L 292.451285 174.931653 
L 294.458275 187.352854 
L 296.465265 198.272055 
L 298.472255 207.842586 
L 300.479245 216.203101 
L 302.486235 223.51955 
L 304.994973 231.290283 
L 307.001962 236.411922 
L 309.008952 240.83049 
L 311.015942 244.636113 
L 313.022933 247.886382 
L 315.029922 250.6221 
L 317.036912 252.882541 
L 318.542155 254.290237 
L 320.047397 255.469746 
L 322.054387 256.718415 
L 324.061377 257.631332 
L 326.068368 258.241872 
L 328.075357 258.580586 
L 330.082347 258.675971 
L 332.089337 258.555323 
L 334.598075 258.1396 
L 337.106812 257.473374 
L 340.117298 256.403148 
L 343.127782 255.098724 
L 347.141763 253.089288 
L 352.159238 250.300502 
L 369.218653 240.584523 
L 374.737875 237.845747 
L 379.253603 235.822153 
L 383.76933 234.0431 
L 388.786805 232.305322 
L 393.80428 230.811809 
L 398.821755 229.556831 
L 404.340978 228.401444 
L 410.361948 227.359055 
L 416.884665 226.447517 
L 424.410878 225.619205 
L 433.442333 224.854636 
L 444.480778 224.158014 
L 450.501748 223.858559 
L 450.501748 223.858559 
" clip-path="url(#p1f1b6753a2)" style="fill: none; stroke: #ff7f0e; stroke-width: 1.5; stroke-linecap: square"/>
   </g>
   <g id="line2d_28">
    <path d="M 257.147249 -1 
L 260.841192 37.098111 
L 264.855172 76.021496 
L 268.367405 108.059979 
L 269.872647 119.172886 
L 271.37789 128.774846 
L 272.381385 133.713394 
L 273.38488 137.70217 
L 274.388375 140.935958 
L 275.39187 143.523791 
L 276.395365 145.54515 
L 277.39886 147.055152 
L 278.402355 148.091009 
L 279.40585 148.686856 
L 280.409345 148.869821 
L 281.41284 148.6655 
L 282.416335 148.099486 
L 283.41983 147.196546 
L 284.423325 145.977982 
L 285.42682 144.469463 
L 286.932062 141.725093 
L 288.437305 138.477121 
L 290.444295 133.480192 
L 292.451285 127.826294 
L 296.967012 113.99125 
L 299.47575 105.558153 
L 304.493225 88.028478 
L 309.5107 71.322015 
L 314.528175 55.432903 
L 319.54565 40.345873 
L 324.061377 27.437453 
L 328.577105 15.146745 
L 333.092832 3.455752 
L 334.876443 -1 
L 334.876443 -1 
" clip-path="url(#p1f1b6753a2)" style="fill: none; stroke: #ff7f0e; stroke-width: 1.5; stroke-linecap: square"/>
   </g>
   <g id="line2d_29">
    <path d="M 282.454345 -1 
L 284.423325 31.361153 
L 286.430315 60.687115 
L 288.437305 86.73668 
L 290.444295 109.875898 
L 292.451285 130.429923 
L 294.458275 148.687582 
L 296.465265 164.905432 
L 298.472255 179.311369 
L 300.479245 192.107824 
L 302.486235 203.474616 
L 304.493225 213.571471 
L 306.500215 222.54027 
L 308.507205 230.507044 
L 310.514195 237.583743 
L 312.521185 243.869809 
L 314.528175 249.453574 
L 316.535165 254.413501 
L 318.542155 258.819288 
L 320.549145 262.732846 
L 322.556135 266.209167 
L 324.563125 269.297102 
L 326.570115 272.040042 
L 328.577105 274.476532 
L 331.085843 277.142986 
L 333.59458 279.442412 
L 336.103318 281.425329 
L 338.612055 283.135304 
L 341.120792 284.609907 
L 344.131278 286.114035 
L 347.141763 287.373271 
L 350.653995 288.585684 
L 354.166227 289.571079 
L 358.180207 290.473414 
L 362.695935 291.263101 
L 368.215158 291.981904 
L 374.737875 292.578342 
L 382.264088 293.033873 
L 391.79729 293.384351 
L 405.344473 293.639749 
L 426.417868 293.788162 
L 450.501748 293.833761 
L 450.501748 293.833761 
" clip-path="url(#p1f1b6753a2)" style="fill: none; stroke-dasharray: 5.55,2.4; stroke-dashoffset: 0; stroke: #1f77b4; stroke-width: 1.5"/>
   </g>
   <g id="line2d_30">
    <path d="M 261.700777 -1 
L 262.848182 21.134747 
L 264.353425 46.430226 
L 265.858667 67.788683 
L 267.36391 85.468282 
L 268.869152 99.776715 
L 270.374395 111.241621 
L 271.37789 117.673922 
L 272.381385 122.936578 
L 273.38488 127.251348 
L 274.388375 130.805219 
L 275.39187 133.717761 
L 276.395365 136.03001 
L 277.39886 137.746773 
L 278.402355 138.893008 
L 279.40585 139.525025 
L 280.409345 139.703032 
L 281.41284 139.473772 
L 282.416335 138.882088 
L 283.41983 137.972689 
L 284.423325 136.784494 
L 285.928567 134.556789 
L 287.43381 131.896636 
L 288.939053 128.84659 
L 290.946042 124.190701 
L 293.45478 117.627242 
L 295.963517 110.412733 
L 299.47575 99.455928 
L 302.486235 89.284451 
L 305.998467 76.543304 
L 311.015942 57.234509 
L 318.040408 30.325653 
L 323.057883 12.173759 
L 326.820758 -1 
L 326.820758 -1 
" clip-path="url(#p1f1b6753a2)" style="fill: none; stroke-dasharray: 5.55,2.4; stroke-dashoffset: 0; stroke: #1f77b4; stroke-width: 1.5"/>
   </g>
   <g id="line2d_31">
    <path d="M 253.812716 -1 
L 255.32197 58.339429 
L 257.32896 128.13258 
L 259.33595 188.594843 
L 261.34294 240.778154 
L 263.34993 285.623322 
L 264.855172 315.148395 
L 266.721541 346.6 
M 350.404267 346.6 
L 353.66448 340.197799 
L 356.674965 334.717753 
L 359.68545 329.665136 
L 362.695935 325.046832 
L 365.70642 320.86647 
L 368.716905 317.121103 
L 371.225643 314.323874 
L 373.73438 311.810474 
L 376.243118 309.567523 
L 378.751855 307.577427 
L 381.76234 305.489034 
L 384.772825 303.688337 
L 387.281563 302.409596 
L 390.292048 301.111035 
L 393.80428 299.859514 
L 397.316513 298.838115 
L 401.330492 297.895397 
L 405.84622 297.059489 
L 411.365443 296.28263 
L 417.88816 295.616841 
L 425.414373 295.083658 
L 434.947575 294.643586 
L 447.491263 294.303505 
L 450.501748 294.247768 
L 450.501748 294.247768 
" clip-path="url(#p1f1b6753a2)" style="fill: none; stroke: #000000; stroke-width: 1.5; stroke-linecap: square"/>
   </g>
   <g id="patch_9">
    <path d="M 249.301 299.608 
L 249.301 26.88 
" style="fill: none; stroke: #000000; stroke-width: 0.8; stroke-linejoin: miter; stroke-linecap: square"/>
   </g>
   <g id="patch_10">
    <path d="M 450 299.608 
L 450 26.88 
" style="fill: none; stroke: #000000; stroke-width: 0.8; stroke-linejoin: miter; stroke-linecap: square"/>
   </g>
   <g id="patch_11">
    <path d="M 249.301 299.608 
L 450 299.608 
" style="fill: none; stroke: #000000; stroke-width: 0.8; stroke-linejoin: miter; stroke-linecap: square"/>
   </g>
   <g id="patch_12">
    <path d="M 249.301 26.88 
L 450 26.88 
" style="fill: none; stroke: #000000; stroke-width: 0.8; stroke-linejoin: miter; stroke-linecap: square"/>
   </g>
   <g id="text_27">
    <!-- diabatic PECs -->
    <g transform="translate(309.062375 20.88) scale(0.12 -0.12)">
     <defs>
      <path id="DejaVuSans-50" d="M 1259 4147 
L 1259 2394 
L 2053 2394 
Q 2494 2394 2734 2622 
Q 2975 2850 2975 3272 
Q 2975 3691 2734 3919 
Q 2494 4147 2053 4147 
L 1259 4147 
z
M 628 4666 
L 2053 4666 
Q 2838 4666 3239 4311 
Q 3641 3956 3641 3272 
Q 3641 2581 3239 2228 
Q 2838 1875 2053 1875 
L 1259 1875 
L 1259 0 
L 628 0 
L 628 4666 
z
" transform="scale(0.015625)"/>
      <path id="DejaVuSans-45" d="M 628 4666 
L 3578 4666 
L 3578 4134 
L 1259 4134 
L 1259 2753 
L 3481 2753 
L 3481 2222 
L 1259 2222 
L 1259 531 
L 3634 531 
L 3634 0 
L 628 0 
L 628 4666 
z
" transform="scale(0.015625)"/>
      <path id="DejaVuSans-43" d="M 4122 4306 
L 4122 3641 
Q 3803 3938 3442 4084 
Q 3081 4231 2675 4231 
Q 1875 4231 1450 3742 
Q 1025 3253 1025 2328 
Q 1025 1406 1450 917 
Q 1875 428 2675 428 
Q 3081 428 3442 575 
Q 3803 722 4122 1019 
L 4122 359 
Q 3791 134 3420 21 
Q 3050 -91 2638 -91 
Q 1578 -91 968 557 
Q 359 1206 359 2328 
Q 359 3453 968 4101 
Q 1578 4750 2638 4750 
Q 3056 4750 3426 4639 
Q 3797 4528 4122 4306 
z
" transform="scale(0.015625)"/>
     </defs>
     <use xlink:href="#DejaVuSans-64"/>
     <use xlink:href="#DejaVuSans-69" x="63.476562"/>
     <use xlink:href="#DejaVuSans-61" x="91.259766"/>
     <use xlink:href="#DejaVuSans-62" x="152.539062"/>
     <use xlink:href="#DejaVuSans-61" x="216.015625"/>
     <use xlink:href="#DejaVuSans-74" x="277.294922"/>
     <use xlink:href="#DejaVuSans-69" x="316.503906"/>
     <use xlink:href="#DejaVuSans-63" x="344.287109"/>
     <use xlink:href="#DejaVuSans-20" x="399.267578"/>
     <use xlink:href="#DejaVuSans-50" x="431.054688"/>
     <use xlink:href="#DejaVuSans-45" x="491.357422"/>
     <use xlink:href="#DejaVuSans-43" x="554.541016"/>
     <use xlink:href="#DejaVuSans-73" x="624.365234"/>
    </g>
   </g>
   <g id="legend_2">
    <g id="patch_13">
     <path d="M 395.458023 88.014391 
L 444.169 88.014391 
Q 445.835 88.014391 445.835 86.348391 
L 445.835 32.711 
Q 445.835 31.045 444.169 31.045 
L 395.458023 31.045 
Q 393.792023 31.045 393.792023 32.711 
L 393.792023 86.348391 
Q 393.792023 88.014391 395.458023 88.014391 
z
" style="fill: #ffffff; opacity: 0.8; stroke: #cccccc; stroke-linejoin: miter"/>
    </g>
    <g id="line2d_32">
     <path d="M 397.124023 37.790998 
L 405.454023 37.790998 
L 413.784023 37.790998 
" style="fill: none; stroke: #ff7f0e; stroke-width: 1.5; stroke-linecap: square"/>
    </g>
    <g id="text_28">
     <!-- BÂ³Î£â‚â» -->
     <g transform="translate(420.448023 40.706498) scale(0.0833 -0.0833)">
      <use xlink:href="#DejaVuSans-42"/>
      <use xlink:href="#DejaVuSans-b3" x="68.603516"/>
      <use xlink:href="#DejaVuSans-3a3" x="108.691406"/>
      <use xlink:href="#DejaVuSans-2081" x="171.875"/>
      <use xlink:href="#DejaVuSans-207b" x="211.962891"/>
     </g>
    </g>
    <g id="line2d_33">
     <path d="M 397.124023 48.351877 
L 405.454023 48.351877 
L 413.784023 48.351877 
" style="fill: none; stroke: #ff7f0e; stroke-width: 1.5; stroke-linecap: square"/>
    </g>
    <g id="text_29">
     <!-- EÂ³Î£â‚â» -->
     <g transform="translate(420.448023 51.267377) scale(0.0833 -0.0833)">
      <use xlink:href="#DejaVuSans-45"/>
      <use xlink:href="#DejaVuSans-b3" x="63.183594"/>
      <use xlink:href="#DejaVuSans-3a3" x="103.271484"/>
      <use xlink:href="#DejaVuSans-2081" x="166.455078"/>
      <use xlink:href="#DejaVuSans-207b" x="206.542969"/>
     </g>
    </g>
    <g id="line2d_34">
     <path d="M 397.124023 58.912755 
L 405.454023 58.912755 
L 413.784023 58.912755 
" style="fill: none; stroke-dasharray: 5.55,2.4; stroke-dashoffset: 0; stroke: #1f77b4; stroke-width: 1.5"/>
    </g>
    <g id="text_30">
     <!-- Â³Î â‚ -->
     <g transform="translate(420.448023 61.828255) scale(0.0833 -0.0833)">
      <use xlink:href="#DejaVuSans-b3"/>
      <use xlink:href="#DejaVuSans-3a0" x="40.087891"/>
      <use xlink:href="#DejaVuSans-2081" x="115.283203"/>
     </g>
    </g>
    <g id="line2d_35">
     <path d="M 397.124023 69.473633 
L 405.454023 69.473633 
L 413.784023 69.473633 
" style="fill: none; stroke-dasharray: 5.55,2.4; stroke-dashoffset: 0; stroke: #1f77b4; stroke-width: 1.5"/>
    </g>
    <g id="text_31">
     <!-- Â³Î â‚ -->
     <g transform="translate(420.448023 72.389133) scale(0.0833 -0.0833)">
      <use xlink:href="#DejaVuSans-b3"/>
      <use xlink:href="#DejaVuSans-3a0" x="40.087891"/>
      <use xlink:href="#DejaVuSans-2081" x="115.283203"/>
     </g>
    </g>
    <g id="line2d_36">
     <path d="M 397.124023 80.034511 
L 405.454023 80.034511 
L 413.784023 80.034511 
" style="fill: none; stroke: #000000; stroke-width: 1.5; stroke-linecap: square"/>
    </g>
    <g id="text_32">
     <!-- XÂ³Î£â‚â» -->
     <g transform="translate(420.448023 82.950011) scale(0.0833 -0.0833)">
      <defs>
       <path id="DejaVuSans-58" d="M 403 4666 
L 1081 4666 
L 2241 2931 
L 3406 4666 
L 4084 4666 
L 2584 2425 
L 4184 0 
L 3506 0 
L 2194 1984 
L 872 0 
L 191 0 
L 1856 2491 
L 403 4666 
z
" transform="scale(0.015625)"/>
      </defs>
      <use xlink:href="#DejaVuSans-58"/>
      <use xlink:href="#DejaVuSans-b3" x="68.505859"/>
      <use xlink:href="#DejaVuSans-3a3" x="108.59375"/>
      <use xlink:href="#DejaVuSans-2081" x="171.777344"/>
      <use xlink:href="#DejaVuSans-207b" x="211.865234"/>
     </g>
    </g>
   </g>
  </g>
 </g>
 <defs>
  <clipPath id="p91e55b591c">
   <rect x="48.602" y="26.88" width="200.699" height="272.728"/>
  </clipPath>
  <clipPath id="p1f1b6753a2">
   <rect x="249.301" y="26.88" width="200.699" height="272.728"/>
  </clipPath>
 </defs>
</svg>
