<?xml version="1.0" encoding="utf-8" standalone="no"?>
<!DOCTYPE svg PUBLIC "-//W3C//DTD SVG 1.1//EN"
  "http://www.w3.org/Graphics/SVG/1.1/DTD/svg11.dtd">
<svg xmlns:xlink="http://www.w3.org/1999/xlink" width="460.8pt" height="345.6pt" viewBox="0 0 460.8 345.6" xmlns="http://www.w3.org/2000/svg" version="1.1">
 <metadata>
  <rdf:RDF xmlns:dc="http://purl.org/dc/elements/1.1/" xmlns:cc="http://creativecommons.org/ns#" xmlns:rdf="http://www.w3.org/1999/02/22-rdf-syntax-ns#">
   <cc:Work>
    <dc:type rdf:resource="http://purl.org/dc/dcmitype/StillImage"/>
    <dc:date>2023-01-19T06:53:55.905946</dc:date>
    <dc:format>image/svg+xml</dc:format>
    <dc:creator>
     <cc:Agent>
      <dc:title>Matplotlib v3.6.3, https://matplotlib.org/</dc:title>
     </cc:Agent>
    </dc:creator>
   </cc:Work>
  </rdf:RDF>
 </metadata>
 <defs>
  <style type="text/css">*{stroke-linejoin: round; stroke-linecap: butt}</style>
 </defs>
 <g id="figure_1">
  <g id="patch_1">
   <path d="M 0 345.6 
L 460.8 345.6 
L 460.8 0 
L 0 0 
z
" style="fill: #ffffff"/>
  </g>
  <g id="axes_1">
   <g id="patch_2">
    <path d="M 48.602 299.608 
L 247.551 299.608 
L 247.551 26.88 
L 48.602 26.88 
z
" style="fill: #ffffff"/>
   </g>
   <g id="matplotlib.axis_1">
    <g id="xtick_1">
     <g id="line2d_1">
      <defs>
       <path id="m9d9068994a" d="M 0 0 
L 0 3.5 
" style="stroke: #000000; stroke-width: 0.8"/>
      </defs>
      <g>
       <use xlink:href="#m9d9068994a" x="235.116687" y="299.608" style="stroke: #000000; stroke-width: 0.8"/>
      </g>
     </g>
     <g id="text_1">
      <!-- 0.0 -->
      <g transform="translate(227.165125 314.206437) scale(0.1 -0.1)">
       <defs>
        <path id="DejaVuSans-30" d="M 2034 4250 
Q 1547 4250 1301 3770 
Q 1056 3291 1056 2328 
Q 1056 1369 1301 889 
Q 1547 409 2034 409 
Q 2525 409 2770 889 
Q 3016 1369 3016 2328 
Q 3016 3291 2770 3770 
Q 2525 4250 2034 4250 
z
M 2034 4750 
Q 2819 4750 3233 4129 
Q 3647 3509 3647 2328 
Q 3647 1150 3233 529 
Q 2819 -91 2034 -91 
Q 1250 -91 836 529 
Q 422 1150 422 2328 
Q 422 3509 836 4129 
Q 1250 4750 2034 4750 
z
" transform="scale(0.015625)"/>
        <path id="DejaVuSans-2e" d="M 684 794 
L 1344 794 
L 1344 0 
L 684 0 
L 684 794 
z
" transform="scale(0.015625)"/>
       </defs>
       <use xlink:href="#DejaVuSans-30"/>
       <use xlink:href="#DejaVuSans-2e" x="63.623047"/>
       <use xlink:href="#DejaVuSans-30" x="95.410156"/>
      </g>
     </g>
    </g>
    <g id="xtick_2">
     <g id="line2d_2">
      <g>
       <use xlink:href="#m9d9068994a" x="172.945125" y="299.608" style="stroke: #000000; stroke-width: 0.8"/>
      </g>
     </g>
     <g id="text_2">
      <!-- 0.5 -->
      <g transform="translate(164.993562 314.206437) scale(0.1 -0.1)">
       <defs>
        <path id="DejaVuSans-35" d="M 691 4666 
L 3169 4666 
L 3169 4134 
L 1269 4134 
L 1269 2991 
Q 1406 3038 1543 3061 
Q 1681 3084 1819 3084 
Q 2600 3084 3056 2656 
Q 3513 2228 3513 1497 
Q 3513 744 3044 326 
Q 2575 -91 1722 -91 
Q 1428 -91 1123 -41 
Q 819 9 494 109 
L 494 744 
Q 775 591 1075 516 
Q 1375 441 1709 441 
Q 2250 441 2565 725 
Q 2881 1009 2881 1497 
Q 2881 1984 2565 2268 
Q 2250 2553 1709 2553 
Q 1456 2553 1204 2497 
Q 953 2441 691 2322 
L 691 4666 
z
" transform="scale(0.015625)"/>
       </defs>
       <use xlink:href="#DejaVuSans-30"/>
       <use xlink:href="#DejaVuSans-2e" x="63.623047"/>
       <use xlink:href="#DejaVuSans-35" x="95.410156"/>
      </g>
     </g>
    </g>
    <g id="xtick_3">
     <g id="line2d_3">
      <g>
       <use xlink:href="#m9d9068994a" x="110.773562" y="299.608" style="stroke: #000000; stroke-width: 0.8"/>
      </g>
     </g>
     <g id="text_3">
      <!-- 1.0 -->
      <g transform="translate(102.822 314.206437) scale(0.1 -0.1)">
       <defs>
        <path id="DejaVuSans-31" d="M 794 531 
L 1825 531 
L 1825 4091 
L 703 3866 
L 703 4441 
L 1819 4666 
L 2450 4666 
L 2450 531 
L 3481 531 
L 3481 0 
L 794 0 
L 794 531 
z
" transform="scale(0.015625)"/>
       </defs>
       <use xlink:href="#DejaVuSans-31"/>
       <use xlink:href="#DejaVuSans-2e" x="63.623047"/>
       <use xlink:href="#DejaVuSans-30" x="95.410156"/>
      </g>
     </g>
    </g>
    <g id="xtick_4">
     <g id="line2d_4">
      <g>
       <use xlink:href="#m9d9068994a" x="48.602" y="299.608" style="stroke: #000000; stroke-width: 0.8"/>
      </g>
     </g>
     <g id="text_4">
      <!-- 1.5 -->
      <g transform="translate(40.650437 314.206437) scale(0.1 -0.1)">
       <use xlink:href="#DejaVuSans-31"/>
       <use xlink:href="#DejaVuSans-2e" x="63.623047"/>
       <use xlink:href="#DejaVuSans-35" x="95.410156"/>
      </g>
     </g>
    </g>
    <g id="text_5">
     <!-- cross section (cm$^{2}$) -->
     <g transform="translate(99.8765 328.706437) scale(0.1 -0.1)">
      <defs>
       <path id="DejaVuSans-63" d="M 3122 3366 
L 3122 2828 
Q 2878 2963 2633 3030 
Q 2388 3097 2138 3097 
Q 1578 3097 1268 2742 
Q 959 2388 959 1747 
Q 959 1106 1268 751 
Q 1578 397 2138 397 
Q 2388 397 2633 464 
Q 2878 531 3122 666 
L 3122 134 
Q 2881 22 2623 -34 
Q 2366 -91 2075 -91 
Q 1284 -91 818 406 
Q 353 903 353 1747 
Q 353 2603 823 3093 
Q 1294 3584 2113 3584 
Q 2378 3584 2631 3529 
Q 2884 3475 3122 3366 
z
" transform="scale(0.015625)"/>
       <path id="DejaVuSans-72" d="M 2631 2963 
Q 2534 3019 2420 3045 
Q 2306 3072 2169 3072 
Q 1681 3072 1420 2755 
Q 1159 2438 1159 1844 
L 1159 0 
L 581 0 
L 581 3500 
L 1159 3500 
L 1159 2956 
Q 1341 3275 1631 3429 
Q 1922 3584 2338 3584 
Q 2397 3584 2469 3576 
Q 2541 3569 2628 3553 
L 2631 2963 
z
" transform="scale(0.015625)"/>
       <path id="DejaVuSans-6f" d="M 1959 3097 
Q 1497 3097 1228 2736 
Q 959 2375 959 1747 
Q 959 1119 1226 758 
Q 1494 397 1959 397 
Q 2419 397 2687 759 
Q 2956 1122 2956 1747 
Q 2956 2369 2687 2733 
Q 2419 3097 1959 3097 
z
M 1959 3584 
Q 2709 3584 3137 3096 
Q 3566 2609 3566 1747 
Q 3566 888 3137 398 
Q 2709 -91 1959 -91 
Q 1206 -91 779 398 
Q 353 888 353 1747 
Q 353 2609 779 3096 
Q 1206 3584 1959 3584 
z
" transform="scale(0.015625)"/>
       <path id="DejaVuSans-73" d="M 2834 3397 
L 2834 2853 
Q 2591 2978 2328 3040 
Q 2066 3103 1784 3103 
Q 1356 3103 1142 2972 
Q 928 2841 928 2578 
Q 928 2378 1081 2264 
Q 1234 2150 1697 2047 
L 1894 2003 
Q 2506 1872 2764 1633 
Q 3022 1394 3022 966 
Q 3022 478 2636 193 
Q 2250 -91 1575 -91 
Q 1294 -91 989 -36 
Q 684 19 347 128 
L 347 722 
Q 666 556 975 473 
Q 1284 391 1588 391 
Q 1994 391 2212 530 
Q 2431 669 2431 922 
Q 2431 1156 2273 1281 
Q 2116 1406 1581 1522 
L 1381 1569 
Q 847 1681 609 1914 
Q 372 2147 372 2553 
Q 372 3047 722 3315 
Q 1072 3584 1716 3584 
Q 2034 3584 2315 3537 
Q 2597 3491 2834 3397 
z
" transform="scale(0.015625)"/>
       <path id="DejaVuSans-20" transform="scale(0.015625)"/>
       <path id="DejaVuSans-65" d="M 3597 1894 
L 3597 1613 
L 953 1613 
Q 991 1019 1311 708 
Q 1631 397 2203 397 
Q 2534 397 2845 478 
Q 3156 559 3463 722 
L 3463 178 
Q 3153 47 2828 -22 
Q 2503 -91 2169 -91 
Q 1331 -91 842 396 
Q 353 884 353 1716 
Q 353 2575 817 3079 
Q 1281 3584 2069 3584 
Q 2775 3584 3186 3129 
Q 3597 2675 3597 1894 
z
M 3022 2063 
Q 3016 2534 2758 2815 
Q 2500 3097 2075 3097 
Q 1594 3097 1305 2825 
Q 1016 2553 972 2059 
L 3022 2063 
z
" transform="scale(0.015625)"/>
       <path id="DejaVuSans-74" d="M 1172 4494 
L 1172 3500 
L 2356 3500 
L 2356 3053 
L 1172 3053 
L 1172 1153 
Q 1172 725 1289 603 
Q 1406 481 1766 481 
L 2356 481 
L 2356 0 
L 1766 0 
Q 1100 0 847 248 
Q 594 497 594 1153 
L 594 3053 
L 172 3053 
L 172 3500 
L 594 3500 
L 594 4494 
L 1172 4494 
z
" transform="scale(0.015625)"/>
       <path id="DejaVuSans-69" d="M 603 3500 
L 1178 3500 
L 1178 0 
L 603 0 
L 603 3500 
z
M 603 4863 
L 1178 4863 
L 1178 4134 
L 603 4134 
L 603 4863 
z
" transform="scale(0.015625)"/>
       <path id="DejaVuSans-6e" d="M 3513 2113 
L 3513 0 
L 2938 0 
L 2938 2094 
Q 2938 2591 2744 2837 
Q 2550 3084 2163 3084 
Q 1697 3084 1428 2787 
Q 1159 2491 1159 1978 
L 1159 0 
L 581 0 
L 581 3500 
L 1159 3500 
L 1159 2956 
Q 1366 3272 1645 3428 
Q 1925 3584 2291 3584 
Q 2894 3584 3203 3211 
Q 3513 2838 3513 2113 
z
" transform="scale(0.015625)"/>
       <path id="DejaVuSans-28" d="M 1984 4856 
Q 1566 4138 1362 3434 
Q 1159 2731 1159 2009 
Q 1159 1288 1364 580 
Q 1569 -128 1984 -844 
L 1484 -844 
Q 1016 -109 783 600 
Q 550 1309 550 2009 
Q 550 2706 781 3412 
Q 1013 4119 1484 4856 
L 1984 4856 
z
" transform="scale(0.015625)"/>
       <path id="DejaVuSans-6d" d="M 3328 2828 
Q 3544 3216 3844 3400 
Q 4144 3584 4550 3584 
Q 5097 3584 5394 3201 
Q 5691 2819 5691 2113 
L 5691 0 
L 5113 0 
L 5113 2094 
Q 5113 2597 4934 2840 
Q 4756 3084 4391 3084 
Q 3944 3084 3684 2787 
Q 3425 2491 3425 1978 
L 3425 0 
L 2847 0 
L 2847 2094 
Q 2847 2600 2669 2842 
Q 2491 3084 2119 3084 
Q 1678 3084 1418 2786 
Q 1159 2488 1159 1978 
L 1159 0 
L 581 0 
L 581 3500 
L 1159 3500 
L 1159 2956 
Q 1356 3278 1631 3431 
Q 1906 3584 2284 3584 
Q 2666 3584 2933 3390 
Q 3200 3197 3328 2828 
z
" transform="scale(0.015625)"/>
       <path id="DejaVuSans-32" d="M 1228 531 
L 3431 531 
L 3431 0 
L 469 0 
L 469 531 
Q 828 903 1448 1529 
Q 2069 2156 2228 2338 
Q 2531 2678 2651 2914 
Q 2772 3150 2772 3378 
Q 2772 3750 2511 3984 
Q 2250 4219 1831 4219 
Q 1534 4219 1204 4116 
Q 875 4013 500 3803 
L 500 4441 
Q 881 4594 1212 4672 
Q 1544 4750 1819 4750 
Q 2544 4750 2975 4387 
Q 3406 4025 3406 3419 
Q 3406 3131 3298 2873 
Q 3191 2616 2906 2266 
Q 2828 2175 2409 1742 
Q 1991 1309 1228 531 
z
" transform="scale(0.015625)"/>
       <path id="DejaVuSans-29" d="M 513 4856 
L 1013 4856 
Q 1481 4119 1714 3412 
Q 1947 2706 1947 2009 
Q 1947 1309 1714 600 
Q 1481 -109 1013 -844 
L 513 -844 
Q 928 -128 1133 580 
Q 1338 1288 1338 2009 
Q 1338 2731 1133 3434 
Q 928 4138 513 4856 
z
" transform="scale(0.015625)"/>
      </defs>
      <use xlink:href="#DejaVuSans-63" transform="translate(0 0.765625)"/>
      <use xlink:href="#DejaVuSans-72" transform="translate(54.980469 0.765625)"/>
      <use xlink:href="#DejaVuSans-6f" transform="translate(96.09375 0.765625)"/>
      <use xlink:href="#DejaVuSans-73" transform="translate(157.275391 0.765625)"/>
      <use xlink:href="#DejaVuSans-73" transform="translate(209.375 0.765625)"/>
      <use xlink:href="#DejaVuSans-20" transform="translate(261.474609 0.765625)"/>
      <use xlink:href="#DejaVuSans-73" transform="translate(293.261719 0.765625)"/>
      <use xlink:href="#DejaVuSans-65" transform="translate(345.361328 0.765625)"/>
      <use xlink:href="#DejaVuSans-63" transform="translate(406.884766 0.765625)"/>
      <use xlink:href="#DejaVuSans-74" transform="translate(461.865234 0.765625)"/>
      <use xlink:href="#DejaVuSans-69" transform="translate(501.074219 0.765625)"/>
      <use xlink:href="#DejaVuSans-6f" transform="translate(528.857422 0.765625)"/>
      <use xlink:href="#DejaVuSans-6e" transform="translate(590.039062 0.765625)"/>
      <use xlink:href="#DejaVuSans-20" transform="translate(653.417969 0.765625)"/>
      <use xlink:href="#DejaVuSans-28" transform="translate(685.205078 0.765625)"/>
      <use xlink:href="#DejaVuSans-63" transform="translate(724.21875 0.765625)"/>
      <use xlink:href="#DejaVuSans-6d" transform="translate(779.199219 0.765625)"/>
      <use xlink:href="#DejaVuSans-32" transform="translate(877.568359 39.046875) scale(0.7)"/>
      <use xlink:href="#DejaVuSans-29" transform="translate(924.838867 0.765625)"/>
     </g>
    </g>
    <g id="text_6">
     <!-- 1eâˆ’17 -->
     <g transform="translate(213.930688 326.884563) scale(0.1 -0.1)">
      <defs>
       <path id="DejaVuSans-2212" d="M 678 2272 
L 4684 2272 
L 4684 1741 
L 678 1741 
L 678 2272 
z
" transform="scale(0.015625)"/>
       <path id="DejaVuSans-37" d="M 525 4666 
L 3525 4666 
L 3525 4397 
L 1831 0 
L 1172 0 
L 2766 4134 
L 525 4134 
L 525 4666 
z
" transform="scale(0.015625)"/>
      </defs>
      <use xlink:href="#DejaVuSans-31"/>
      <use xlink:href="#DejaVuSans-65" x="63.623047"/>
      <use xlink:href="#DejaVuSans-2212" x="125.146484"/>
      <use xlink:href="#DejaVuSans-31" x="208.935547"/>
      <use xlink:href="#DejaVuSans-37" x="272.558594"/>
     </g>
    </g>
   </g>
   <g id="matplotlib.axis_2">
    <g id="ytick_1">
     <g id="line2d_5">
      <defs>
       <path id="m6dd7842cca" d="M 0 0 
L -3.5 0 
" style="stroke: #000000; stroke-width: 0.8"/>
      </defs>
      <g>
       <use xlink:href="#m6dd7842cca" x="48.602" y="257.732428" style="stroke: #000000; stroke-width: 0.8"/>
      </g>
     </g>
     <g id="text_7">
      <!-- 5 -->
      <g transform="translate(35.2395 261.531647) scale(0.1 -0.1)">
       <use xlink:href="#DejaVuSans-35"/>
      </g>
     </g>
    </g>
    <g id="ytick_2">
     <g id="line2d_6">
      <g>
       <use xlink:href="#m6dd7842cca" x="48.602" y="212.277762" style="stroke: #000000; stroke-width: 0.8"/>
      </g>
     </g>
     <g id="text_8">
      <!-- 6 -->
      <g transform="translate(35.2395 216.07698) scale(0.1 -0.1)">
       <defs>
        <path id="DejaVuSans-36" d="M 2113 2584 
Q 1688 2584 1439 2293 
Q 1191 2003 1191 1497 
Q 1191 994 1439 701 
Q 1688 409 2113 409 
Q 2538 409 2786 701 
Q 3034 994 3034 1497 
Q 3034 2003 2786 2293 
Q 2538 2584 2113 2584 
z
M 3366 4563 
L 3366 3988 
Q 3128 4100 2886 4159 
Q 2644 4219 2406 4219 
Q 1781 4219 1451 3797 
Q 1122 3375 1075 2522 
Q 1259 2794 1537 2939 
Q 1816 3084 2150 3084 
Q 2853 3084 3261 2657 
Q 3669 2231 3669 1497 
Q 3669 778 3244 343 
Q 2819 -91 2113 -91 
Q 1303 -91 875 529 
Q 447 1150 447 2328 
Q 447 3434 972 4092 
Q 1497 4750 2381 4750 
Q 2619 4750 2861 4703 
Q 3103 4656 3366 4563 
z
" transform="scale(0.015625)"/>
       </defs>
       <use xlink:href="#DejaVuSans-36"/>
      </g>
     </g>
    </g>
    <g id="ytick_3">
     <g id="line2d_7">
      <g>
       <use xlink:href="#m6dd7842cca" x="48.602" y="166.823095" style="stroke: #000000; stroke-width: 0.8"/>
      </g>
     </g>
     <g id="text_9">
      <!-- 7 -->
      <g transform="translate(35.2395 170.622314) scale(0.1 -0.1)">
       <use xlink:href="#DejaVuSans-37"/>
      </g>
     </g>
    </g>
    <g id="ytick_4">
     <g id="line2d_8">
      <g>
       <use xlink:href="#m6dd7842cca" x="48.602" y="121.368428" style="stroke: #000000; stroke-width: 0.8"/>
      </g>
     </g>
     <g id="text_10">
      <!-- 8 -->
      <g transform="translate(35.2395 125.167647) scale(0.1 -0.1)">
       <defs>
        <path id="DejaVuSans-38" d="M 2034 2216 
Q 1584 2216 1326 1975 
Q 1069 1734 1069 1313 
Q 1069 891 1326 650 
Q 1584 409 2034 409 
Q 2484 409 2743 651 
Q 3003 894 3003 1313 
Q 3003 1734 2745 1975 
Q 2488 2216 2034 2216 
z
M 1403 2484 
Q 997 2584 770 2862 
Q 544 3141 544 3541 
Q 544 4100 942 4425 
Q 1341 4750 2034 4750 
Q 2731 4750 3128 4425 
Q 3525 4100 3525 3541 
Q 3525 3141 3298 2862 
Q 3072 2584 2669 2484 
Q 3125 2378 3379 2068 
Q 3634 1759 3634 1313 
Q 3634 634 3220 271 
Q 2806 -91 2034 -91 
Q 1263 -91 848 271 
Q 434 634 434 1313 
Q 434 1759 690 2068 
Q 947 2378 1403 2484 
z
M 1172 3481 
Q 1172 3119 1398 2916 
Q 1625 2713 2034 2713 
Q 2441 2713 2670 2916 
Q 2900 3119 2900 3481 
Q 2900 3844 2670 4047 
Q 2441 4250 2034 4250 
Q 1625 4250 1398 4047 
Q 1172 3844 1172 3481 
z
" transform="scale(0.015625)"/>
       </defs>
       <use xlink:href="#DejaVuSans-38"/>
      </g>
     </g>
    </g>
    <g id="ytick_5">
     <g id="line2d_9">
      <g>
       <use xlink:href="#m6dd7842cca" x="48.602" y="75.913762" style="stroke: #000000; stroke-width: 0.8"/>
      </g>
     </g>
     <g id="text_11">
      <!-- 9 -->
      <g transform="translate(35.2395 79.71298) scale(0.1 -0.1)">
       <defs>
        <path id="DejaVuSans-39" d="M 703 97 
L 703 672 
Q 941 559 1184 500 
Q 1428 441 1663 441 
Q 2288 441 2617 861 
Q 2947 1281 2994 2138 
Q 2813 1869 2534 1725 
Q 2256 1581 1919 1581 
Q 1219 1581 811 2004 
Q 403 2428 403 3163 
Q 403 3881 828 4315 
Q 1253 4750 1959 4750 
Q 2769 4750 3195 4129 
Q 3622 3509 3622 2328 
Q 3622 1225 3098 567 
Q 2575 -91 1691 -91 
Q 1453 -91 1209 -44 
Q 966 3 703 97 
z
M 1959 2075 
Q 2384 2075 2632 2365 
Q 2881 2656 2881 3163 
Q 2881 3666 2632 3958 
Q 2384 4250 1959 4250 
Q 1534 4250 1286 3958 
Q 1038 3666 1038 3163 
Q 1038 2656 1286 2365 
Q 1534 2075 1959 2075 
z
" transform="scale(0.015625)"/>
       </defs>
       <use xlink:href="#DejaVuSans-39"/>
      </g>
     </g>
    </g>
    <g id="ytick_6">
     <g id="line2d_10">
      <g>
       <use xlink:href="#m6dd7842cca" x="48.602" y="30.459095" style="stroke: #000000; stroke-width: 0.8"/>
      </g>
     </g>
     <g id="text_12">
      <!-- 10 -->
      <g transform="translate(28.877 34.258314) scale(0.1 -0.1)">
       <use xlink:href="#DejaVuSans-31"/>
       <use xlink:href="#DejaVuSans-30" x="63.623047"/>
      </g>
     </g>
    </g>
    <g id="text_13">
     <!-- wavenumber above $X$min. ($10^4$cm$^{-1}$) -->
     <g transform="translate(22.797313 256.144) rotate(-90) scale(0.1 -0.1)">
      <defs>
       <path id="DejaVuSans-77" d="M 269 3500 
L 844 3500 
L 1563 769 
L 2278 3500 
L 2956 3500 
L 3675 769 
L 4391 3500 
L 4966 3500 
L 4050 0 
L 3372 0 
L 2619 2869 
L 1863 0 
L 1184 0 
L 269 3500 
z
" transform="scale(0.015625)"/>
       <path id="DejaVuSans-61" d="M 2194 1759 
Q 1497 1759 1228 1600 
Q 959 1441 959 1056 
Q 959 750 1161 570 
Q 1363 391 1709 391 
Q 2188 391 2477 730 
Q 2766 1069 2766 1631 
L 2766 1759 
L 2194 1759 
z
M 3341 1997 
L 3341 0 
L 2766 0 
L 2766 531 
Q 2569 213 2275 61 
Q 1981 -91 1556 -91 
Q 1019 -91 701 211 
Q 384 513 384 1019 
Q 384 1609 779 1909 
Q 1175 2209 1959 2209 
L 2766 2209 
L 2766 2266 
Q 2766 2663 2505 2880 
Q 2244 3097 1772 3097 
Q 1472 3097 1187 3025 
Q 903 2953 641 2809 
L 641 3341 
Q 956 3463 1253 3523 
Q 1550 3584 1831 3584 
Q 2591 3584 2966 3190 
Q 3341 2797 3341 1997 
z
" transform="scale(0.015625)"/>
       <path id="DejaVuSans-76" d="M 191 3500 
L 800 3500 
L 1894 563 
L 2988 3500 
L 3597 3500 
L 2284 0 
L 1503 0 
L 191 3500 
z
" transform="scale(0.015625)"/>
       <path id="DejaVuSans-75" d="M 544 1381 
L 544 3500 
L 1119 3500 
L 1119 1403 
Q 1119 906 1312 657 
Q 1506 409 1894 409 
Q 2359 409 2629 706 
Q 2900 1003 2900 1516 
L 2900 3500 
L 3475 3500 
L 3475 0 
L 2900 0 
L 2900 538 
Q 2691 219 2414 64 
Q 2138 -91 1772 -91 
Q 1169 -91 856 284 
Q 544 659 544 1381 
z
M 1991 3584 
L 1991 3584 
z
" transform="scale(0.015625)"/>
       <path id="DejaVuSans-62" d="M 3116 1747 
Q 3116 2381 2855 2742 
Q 2594 3103 2138 3103 
Q 1681 3103 1420 2742 
Q 1159 2381 1159 1747 
Q 1159 1113 1420 752 
Q 1681 391 2138 391 
Q 2594 391 2855 752 
Q 3116 1113 3116 1747 
z
M 1159 2969 
Q 1341 3281 1617 3432 
Q 1894 3584 2278 3584 
Q 2916 3584 3314 3078 
Q 3713 2572 3713 1747 
Q 3713 922 3314 415 
Q 2916 -91 2278 -91 
Q 1894 -91 1617 61 
Q 1341 213 1159 525 
L 1159 0 
L 581 0 
L 581 4863 
L 1159 4863 
L 1159 2969 
z
" transform="scale(0.015625)"/>
       <path id="DejaVuSans-Oblique-58" d="M 878 4666 
L 1516 4666 
L 2316 2981 
L 3763 4666 
L 4500 4666 
L 2578 2438 
L 3738 0 
L 3103 0 
L 2163 1966 
L 459 0 
L -275 0 
L 1906 2509 
L 878 4666 
z
" transform="scale(0.015625)"/>
       <path id="DejaVuSans-34" d="M 2419 4116 
L 825 1625 
L 2419 1625 
L 2419 4116 
z
M 2253 4666 
L 3047 4666 
L 3047 1625 
L 3713 1625 
L 3713 1100 
L 3047 1100 
L 3047 0 
L 2419 0 
L 2419 1100 
L 313 1100 
L 313 1709 
L 2253 4666 
z
" transform="scale(0.015625)"/>
      </defs>
      <use xlink:href="#DejaVuSans-77" transform="translate(0 0.684375)"/>
      <use xlink:href="#DejaVuSans-61" transform="translate(81.787109 0.684375)"/>
      <use xlink:href="#DejaVuSans-76" transform="translate(143.066406 0.684375)"/>
      <use xlink:href="#DejaVuSans-65" transform="translate(202.246094 0.684375)"/>
      <use xlink:href="#DejaVuSans-6e" transform="translate(263.769531 0.684375)"/>
      <use xlink:href="#DejaVuSans-75" transform="translate(327.148438 0.684375)"/>
      <use xlink:href="#DejaVuSans-6d" transform="translate(390.527344 0.684375)"/>
      <use xlink:href="#DejaVuSans-62" transform="translate(487.939453 0.684375)"/>
      <use xlink:href="#DejaVuSans-65" transform="translate(551.416016 0.684375)"/>
      <use xlink:href="#DejaVuSans-72" transform="translate(612.939453 0.684375)"/>
      <use xlink:href="#DejaVuSans-20" transform="translate(654.052734 0.684375)"/>
      <use xlink:href="#DejaVuSans-61" transform="translate(685.839844 0.684375)"/>
      <use xlink:href="#DejaVuSans-62" transform="translate(747.119141 0.684375)"/>
      <use xlink:href="#DejaVuSans-6f" transform="translate(810.595703 0.684375)"/>
      <use xlink:href="#DejaVuSans-76" transform="translate(871.777344 0.684375)"/>
      <use xlink:href="#DejaVuSans-65" transform="translate(930.957031 0.684375)"/>
      <use xlink:href="#DejaVuSans-20" transform="translate(992.480469 0.684375)"/>
      <use xlink:href="#DejaVuSans-Oblique-58" transform="translate(1024.267578 0.684375)"/>
      <use xlink:href="#DejaVuSans-6d" transform="translate(1092.773438 0.684375)"/>
      <use xlink:href="#DejaVuSans-69" transform="translate(1190.185547 0.684375)"/>
      <use xlink:href="#DejaVuSans-6e" transform="translate(1217.96875 0.684375)"/>
      <use xlink:href="#DejaVuSans-2e" transform="translate(1281.347656 0.684375)"/>
      <use xlink:href="#DejaVuSans-20" transform="translate(1313.134766 0.684375)"/>
      <use xlink:href="#DejaVuSans-28" transform="translate(1344.921875 0.684375)"/>
      <use xlink:href="#DejaVuSans-31" transform="translate(1383.935547 0.684375)"/>
      <use xlink:href="#DejaVuSans-30" transform="translate(1447.558594 0.684375)"/>
      <use xlink:href="#DejaVuSans-34" transform="translate(1512.138672 38.965625) scale(0.7)"/>
      <use xlink:href="#DejaVuSans-63" transform="translate(1559.40918 0.684375)"/>
      <use xlink:href="#DejaVuSans-6d" transform="translate(1614.389648 0.684375)"/>
      <use xlink:href="#DejaVuSans-2212" transform="translate(1712.758789 38.965625) scale(0.7)"/>
      <use xlink:href="#DejaVuSans-31" transform="translate(1771.411133 38.965625) scale(0.7)"/>
      <use xlink:href="#DejaVuSans-29" transform="translate(1818.681641 0.684375)"/>
     </g>
    </g>
    <g id="text_14">
     <!-- 1e4 -->
     <g transform="translate(48.602 23.88) scale(0.1 -0.1)">
      <use xlink:href="#DejaVuSans-31"/>
      <use xlink:href="#DejaVuSans-65" x="63.623047"/>
      <use xlink:href="#DejaVuSans-34" x="125.146484"/>
     </g>
    </g>
   </g>
   <g id="line2d_11">
    <path d="M 227.743292 223.641428 
L 224.813244 221.232331 
L 222.445198 219.641418 
L 219.443494 217.91414 
L 215.960412 216.186863 
L 211.858734 214.414131 
L 206.95224 212.55049 
L 201.150331 210.595939 
L 194.386695 208.550479 
L 186.104091 206.277746 
L 175.798286 203.68683 
L 162.752742 200.641367 
L 143.150059 196.323174 
L 112.153008 189.504974 
L 110.166241 189.050427 
L 99.158689 186.368602 
L 90.933848 184.141323 
L 84.304483 182.095863 
L 80.067769 180.595859 
L 77.423476 179.504947 
L 77.143918 179.368583 
L 75.998996 178.914036 
L 72.846052 177.323123 
L 70.806396 176.050392 
L 69.283219 174.823116 
L 68.321475 173.777659 
L 68.126478 173.368567 
L 68.063773 173.232203 
L 67.758399 172.959475 
L 67.371718 172.050382 
L 67.243024 171.368562 
L 67.34058 170.232195 
L 67.853508 169.050374 
L 68.481781 168.186735 
L 69.756411 167.004914 
L 72.053379 165.459455 
L 74.974307 164.004906 
L 77.307767 163.050358 
L 80.949386 161.777627 
L 84.329946 160.777624 
L 88.84008 159.641258 
L 93.858283 158.5958 
L 99.355056 157.686707 
L 107.187828 156.686704 
L 114.730433 156.004884 
L 123.758377 155.413974 
L 135.41039 154.868518 
L 151.796566 154.323062 
L 180.013942 153.641242 
L 208.635524 152.913967 
L 213.011209 152.641239 
L 213.343511 152.55033 
L 213.299154 152.504875 
L 212.368165 152.368511 
L 208.534613 152.141238 
L 195.948825 151.686691 
L 169.906335 150.732143 
L 158.548828 150.095778 
L 148.897135 149.323048 
L 128.476879 147.368498 
L 128.328101 147.277588 
L 128.375951 147.232134 
L 129.098981 147.09577 
L 131.66969 146.913951 
L 139.792744 146.641223 
L 158.880988 146.277586 
L 214.832964 145.277583 
L 227.076227 144.823036 
L 232.508179 144.413944 
L 234.321301 144.095762 
L 234.68015 143.868488 
L 234.592281 143.732124 
L 234.01942 143.504851 
L 232.477773 143.186668 
L 228.771868 142.686667 
L 218.769085 141.64121 
L 210.970067 140.732116 
L 207.605995 140.141206 
L 206.196049 139.686659 
L 205.870679 139.413931 
L 205.896665 139.186658 
L 206.160023 138.959384 
L 206.943893 138.641202 
L 208.769834 138.186655 
L 212.416012 137.55029 
L 221.093136 136.323014 
L 229.114874 135.095738 
L 232.544808 134.368463 
L 234.22153 133.823007 
L 234.915422 133.413915 
L 235.107204 133.095732 
L 235.028686 132.823004 
L 234.659666 132.504822 
L 233.769952 132.09573 
L 231.941654 131.550274 
L 228.428646 130.777544 
L 218.210245 128.641175 
L 216.355582 128.00481 
L 215.582947 127.550263 
L 215.312723 127.186626 
L 215.349999 126.868443 
L 215.62362 126.55026 
L 216.246805 126.186623 
L 217.602646 125.686622 
L 219.946386 125.095711 
L 224.076075 124.322982 
L 234.881782 122.45934 
L 234.880847 122.322976 
L 234.462477 122.186612 
L 232.951485 122.004794 
L 228.579479 121.77752 
L 219.224691 121.550247 
L 199.973643 121.322974 
L 159.23902 121.0957 
L 65.927228 120.868427 
L -1 120.780398 
M -1 118.909327 
L 79.671902 118.504784 
L 128.299682 118.050238 
L 162.728664 117.504782 
L 186.571073 116.913871 
L 205.245667 116.232051 
L 218.216846 115.550231 
L 226.557322 114.913866 
L 231.548959 114.322955 
L 233.777562 113.868408 
L 234.65382 113.504771 
L 234.834901 113.232043 
L 234.704066 113.00477 
L 234.242907 112.732042 
L 233.015035 112.32295 
L 230.582212 111.777494 
L 225.777117 110.95931 
L 218.224724 109.913852 
L 211.145501 109.141123 
L 204.030836 108.595667 
L 195.601738 108.186575 
L 184.543391 107.868392 
L 167.077313 107.595664 
L 137.443493 107.368391 
L 84.585583 107.186572 
L -1 107.057106 
M -1 106.622245 
L 182.046537 106.459298 
L 226.810532 106.232024 
L 234.265569 106.004751 
L 235.077359 105.822932 
L 234.814461 105.686568 
L 232.974722 105.277476 
L 230.233463 104.595656 
L 228.856923 104.0502 
L 228.045258 103.504744 
L 227.680804 103.004743 
L 227.606989 102.550196 
L 227.75457 102.050195 
L 228.204712 101.459284 
L 228.993239 100.822919 
L 230.256784 100.095644 
L 232.232924 99.232006 
L 234.988186 98.050184 
L 235.021351 97.868366 
L 234.788685 97.732002 
L 233.875763 97.550183 
L 231.718524 97.368364 
L 227.11737 97.186546 
L 217.511247 97.004727 
L 197.434627 96.822908 
L 142.91068 96.595635 
L 56.033366 96.277452 
L 56.805518 96.231998 
L 77.472609 96.095634 
L 162.62278 95.595632 
L 188.309462 95.231995 
L 202.893645 94.822903 
L 211.835455 94.368356 
L 217.113186 93.91381 
L 219.238647 93.550172 
L 219.357771 93.459263 
L 219.320713 93.413808 
L 218.987224 93.322899 
L 217.484084 93.186535 
L 213.557223 93.050171 
L 203.104142 92.913807 
L 167.106104 92.777443 
L 67.05421 92.686534 
L -1 92.668669 
M -1 92.419411 
L 179.13124 92.277442 
L 215.674508 92.050168 
L 225.607708 91.77744 
L 229.926097 91.459258 
L 232.568713 91.050166 
L 233.927436 90.641074 
L 234.501642 90.277436 
L 234.618752 90.004708 
L 234.497838 89.73198 
L 234.083424 89.413798 
L 233.1608 89.004706 
L 231.342682 88.45925 
L 228.266751 87.77743 
L 223.940308 87.050155 
L 219.094138 86.459244 
L 212.978717 85.959243 
L 205.1478 85.550151 
L 191.481233 85.095604 
L 182.091395 84.731967 
L 182.171895 84.686512 
L 183.83932 84.595603 
L 193.186368 84.413784 
L 226.886566 83.822874 
L 232.545686 83.504691 
L 234.253017 83.231963 
L 234.760061 82.959235 
L 234.769911 82.731962 
L 234.506232 82.413779 
L 233.620961 81.777414 
L 232.75426 81.368322 
L 231.672533 81.141048 
L 229.804774 81.004684 
L 225.677088 80.913775 
L 219.366765 80.86832 
L 196.785769 80.822866 
L -1 80.793357 
M -1 80.75118 
L 230.322193 80.595592 
L 232.852272 80.413774 
L 233.024313 80.231955 
L 232.88671 79.868318 
L 232.516202 78.868315 
L 232.395657 77.868312 
L 232.493445 76.7774 
L 232.723382 76.141035 
L 232.892478 75.959216 
L 232.892478 75.959216 
" clip-path="url(#p6891bc2aa5)" style="fill: none; stroke-dasharray: 1.5,2.475; stroke-dashoffset: 0; stroke: #000000; stroke-width: 1.5"/>
   </g>
   <g id="line2d_12">
    <path d="M 227.749637 223.641428 
L 224.82025 221.232331 
L 222.452445 219.641418 
L 219.450755 217.91414 
L 215.967378 216.186863 
L 211.865082 214.414131 
L 206.957563 212.55049 
L 201.154257 210.595939 
L 194.388994 208.550479 
L 186.104822 206.277746 
L 175.798501 203.68683 
L 162.756349 200.641367 
L 142.964075 196.277719 
L 112.285162 189.504974 
L 110.312905 189.050427 
L 99.574554 186.414056 
L 91.287206 184.141323 
L 84.925555 182.141318 
L 80.674452 180.595859 
L 78.128755 179.504947 
L 77.871933 179.368583 
L 76.771821 178.914036 
L 73.95016 177.414032 
L 71.880925 176.004938 
L 70.522931 174.732207 
L 69.899603 173.914023 
L 69.706849 173.368567 
L 69.685103 173.232203 
L 69.433428 172.959475 
L 69.259242 172.186746 
L 69.254332 171.459471 
L 69.462138 170.686742 
L 69.961905 169.732194 
L 71.022541 168.550372 
L 72.290698 167.55037 
L 74.225359 166.414003 
L 80.432027 163.777632 
L 85.167486 162.323083 
L 89.233995 161.277626 
L 94.179677 160.186714 
L 99.790256 159.141256 
L 106.642858 158.095799 
L 114.601106 157.141251 
L 122.51096 156.413976 
L 132.463481 155.732156 
L 145.422066 155.095791 
L 162.544294 154.50488 
L 188.366002 153.868515 
L 230.693725 152.868512 
L 234.851186 152.595784 
L 235.116625 152.504875 
L 235.047848 152.45942 
L 234.097636 152.323056 
L 230.464254 152.095783 
L 216.798683 151.550327 
L 201.728664 150.868507 
L 195.20877 150.368506 
L 192.438598 149.959414 
L 191.544496 149.641231 
L 191.451351 149.459412 
L 191.607938 149.277594 
L 192.278024 149.004866 
L 194.074556 148.595774 
L 197.646911 148.050318 
L 204.370371 147.277588 
L 214.852685 146.32304 
L 228.296773 145.095764 
L 232.545554 144.504854 
L 234.45638 144.050307 
L 235.048161 143.732124 
L 235.10048 143.504851 
L 234.860247 143.277578 
L 234.078204 142.959395 
L 232.224001 142.504848 
L 227.662552 141.686664 
L 221.848045 140.595752 
L 219.76444 140.004842 
L 218.836891 139.550295 
L 218.525852 139.186658 
L 218.547073 138.868475 
L 218.835033 138.550292 
L 219.54057 138.1412 
L 220.993579 137.595744 
L 223.772805 136.823015 
L 233.382983 134.323008 
L 234.625111 133.732098 
L 235.050013 133.323006 
L 235.108222 133.004823 
L 234.919339 132.68664 
L 234.401284 132.323003 
L 233.322336 131.868456 
L 231.298441 131.277546 
L 227.274721 130.368452 
L 220.239642 128.777539 
L 218.178177 128.095719 
L 217.240861 127.595718 
L 216.873821 127.186626 
L 216.855289 126.868443 
L 217.059582 126.55026 
L 217.585214 126.186623 
L 218.654183 125.732076 
L 220.550695 125.18662 
L 223.781624 124.5048 
L 229.274661 123.595707 
L 234.513081 122.686614 
L 235.114578 122.413886 
L 235.059853 122.322976 
L 234.619499 122.186612 
L 233.083009 122.004794 
L 228.68636 121.77752 
L 219.31716 121.550247 
L 200.066242 121.322974 
L 159.356655 121.0957 
L 66.122427 120.868427 
L -1 120.780095 
M -1 118.910222 
L 79.883941 118.504784 
L 128.516438 118.050238 
L 162.97049 117.504782 
L 186.847139 116.913871 
L 205.556853 116.232051 
L 218.55028 115.550231 
L 226.896274 114.913866 
L 231.583042 114.36841 
L 233.928926 113.913863 
L 234.884206 113.550226 
L 235.114649 113.277498 
L 235.018709 113.050224 
L 234.592387 112.777496 
L 233.562853 112.413859 
L 231.224482 111.868403 
L 226.781757 111.095674 
L 219.36888 110.050216 
L 212.140518 109.232032 
L 205.466993 108.686576 
L 197.890288 108.277484 
L 186.581655 107.913847 
L 170.936073 107.641119 
L 145.451209 107.413846 
L 102.465484 107.232027 
L -1 107.056807 
M -1 106.622378 
L 182.126159 106.459298 
L 226.845129 106.232024 
L 234.298955 106.004751 
L 235.116388 105.822932 
L 234.859058 105.686568 
L 233.038357 105.277476 
L 230.330268 104.595656 
L 228.978835 104.0502 
L 228.189892 103.504744 
L 227.842625 103.004743 
L 227.781178 102.550196 
L 227.937748 102.050195 
L 228.391963 101.459284 
L 229.24342 100.777464 
L 230.606295 100.004735 
L 232.715641 99.095642 
L 235.019502 98.095639 
L 235.112962 97.91382 
L 234.96172 97.777456 
L 234.243997 97.595638 
L 232.468742 97.413819 
L 228.638599 97.232 
L 220.641049 97.050182 
L 203.934703 96.868363 
L 157.184608 96.64109 
L 56.170049 96.277452 
L 56.948247 96.231998 
L 77.618999 96.095634 
L 162.753982 95.595632 
L 188.473859 95.231995 
L 203.161694 94.822903 
L 213.075197 94.322902 
L 219.723258 93.777446 
L 225.356748 93.095626 
L 228.865662 92.641079 
L 234.334126 92.55017 
L 230.488633 92.504715 
L 229.40055 92.413806 
L 229.552213 92.368351 
L 233.564212 91.322894 
L 234.641955 90.822892 
L 235.065552 90.4138 
L 235.097324 90.095618 
L 234.867387 89.777435 
L 234.293883 89.413798 
L 233.005076 88.913796 
L 230.637464 88.277431 
L 227.052962 87.550156 
L 222.639661 86.868336 
L 217.72731 86.32288 
L 211.630884 85.868334 
L 203.01908 85.459242 
L 182.398153 84.731967 
L 183.059534 84.641058 
L 187.913462 84.504694 
L 231.051165 83.641055 
L 234.128844 83.322872 
L 234.96096 83.050144 
L 235.11595 82.822871 
L 235.013234 82.550143 
L 234.443569 81.959232 
L 233.242048 80.822866 
L 232.324269 80.777411 
L 233.196677 80.731956 
L 233.357295 80.686502 
L 233.292878 80.595592 
L 232.895123 79.868318 
L 232.612918 78.91377 
L 232.515149 77.822858 
L 232.631267 76.686491 
L 232.864288 76.09558 
L 232.997142 75.959216 
L 232.997142 75.959216 
" clip-path="url(#p6891bc2aa5)" style="fill: none; stroke: #ff7f0e; stroke-width: 1.5; stroke-linecap: square"/>
   </g>
   <g id="line2d_13">
    <path d="M 235.110342 223.641428 
L 234.986466 189.595883 
L 234.750318 183.91405 
L 234.357901 179.0504 
L 233.853405 175.186754 
L 233.187475 171.777654 
L 232.464819 169.095828 
L 231.515973 166.459458 
L 230.744882 164.82309 
L 229.708538 163.004903 
L 228.538796 161.368535 
L 227.246185 159.913986 
L 225.856276 158.641255 
L 224.247609 157.459434 
L 221.008365 155.641247 
L 218.407106 154.550335 
L 210.465082 151.641236 
L 207.446706 151.050326 
L 203.131117 150.41396 
L 197.046469 149.73214 
L 188.279945 149.004866 
L 176.443566 148.277591 
L 158.675021 147.232134 
L 158.013316 147.050315 
L 158.340505 146.959406 
L 160.569684 146.777587 
L 166.709037 146.550314 
L 185.671603 146.141222 
L 219.305722 145.413947 
L 229.170404 145.004855 
L 233.3894 144.641218 
L 234.864151 144.323035 
L 235.116469 144.095762 
L 234.99302 143.913943 
L 234.434336 143.641215 
L 232.729665 143.141214 
L 223.740747 140.777571 
L 222.675616 140.232115 
L 222.302685 139.823023 
L 222.27369 139.50484 
L 222.4875 139.186658 
L 223.062298 138.777566 
L 224.319845 138.23211 
L 226.843586 137.413926 
L 231.885705 135.777558 
L 233.515858 135.004828 
L 234.449496 134.323008 
L 234.910241 133.732098 
L 235.101979 133.141187 
L 235.076272 132.504822 
L 234.808751 131.686638 
L 233.552441 128.550266 
L 233.516609 127.550263 
L 233.703307 126.459351 
L 234.263797 124.732074 
L 234.868149 122.686614 
L 235.026337 121.413883 
L 234.921488 120.868427 
L 234.704296 120.641154 
L 234.234447 120.459335 
L 232.447594 120.141152 
L 232.696628 120.050243 
L 234.346514 119.686606 
L 234.728242 119.368423 
L 234.875372 118.913876 
L 234.89483 117.913874 
L 234.820246 113.504771 
L 235.042006 107.504755 
L 234.896669 107.095663 
L 234.592914 106.913844 
L 234.319851 106.77748 
L 235.054984 106.413843 
L 235.080839 105.913842 
L 234.972181 99.413824 
L 234.988806 96.322907 
L 234.986743 95.731996 
L 234.893239 94.959267 
L 234.619328 94.413811 
L 234.190146 94.050174 
L 233.546613 93.777446 
L 232.218592 93.504718 
L 229.726742 93.277444 
L 225.044762 93.095626 
L 216.687467 92.959262 
L 193.051022 92.822898 
L 141.742259 92.731988 
L -1 92.666941 
M -1 92.420495 
L 184.29201 92.277442 
L 219.80575 92.050168 
L 228.636208 91.77744 
L 231.873926 91.459258 
L 233.344252 91.09562 
L 234.104471 90.686528 
L 234.570255 90.186527 
L 234.879672 89.504707 
L 235.066412 88.504704 
L 235.101064 87.0047 
L 234.925034 85.277423 
L 234.829397 84.27742 
L 234.868457 83.459236 
L 234.67255 82.23196 
L 234.387099 81.64105 
L 234.022918 81.368322 
L 233.421044 81.186503 
L 232.230939 81.050139 
L 230.013252 80.95923 
L 221.119472 80.86832 
L 198.660408 80.822866 
L -1 80.792987 
M -1 80.751745 
L 232.146002 80.595592 
L 234.799087 80.413774 
L 235.093751 80.1865 
L 235.096453 79.731954 
L 234.994437 77.504675 
L 235.012024 75.959216 
L 235.012024 75.959216 
" clip-path="url(#p6891bc2aa5)" style="fill: none; stroke-dasharray: 5.55,2.4; stroke-dashoffset: 0; stroke: #1f77b4; stroke-width: 1.5"/>
   </g>
   <g id="line2d_14">
    <path d="M 235.197062 86.978908 
L 234.691066 87.327138 
L 234.658687 87.674759 
L 234.448137 88.021773 
L 232.814039 89.059188 
L 229.017558 89.403789 
L 221.95733 89.747791 
L 206.337844 90.091195 
L 196.34103 90.434002 
L 220.812503 90.776216 
L 229.910578 91.117836 
L 234.1459 91.458864 
L 234.705732 91.799303 
L 234.910672 92.139153 
L 234.697461 92.478416 
L 233.558867 92.817093 
L 230.888884 93.155187 
L 226.159655 93.492698 
L 210.321922 93.829629 
L 207.060153 94.16598 
L 230.826875 94.836949 
L 234.378608 95.171571 
L 234.626981 95.505619 
L 234.538063 95.839095 
L 233.927972 96.172001 
L 232.01511 96.504337 
L 227.496555 96.836106 
L 221.012944 97.167309 
L 217.731653 97.497947 
L 218.19993 97.828022 
L 228.752794 98.814881 
L 230.705988 99.142717 
L 232.449167 99.796722 
L 233.309833 100.773584 
L 234.649228 101.422077 
L 234.956976 102.068385 
L 234.878227 102.390722 
L 234.364003 103.033773 
L 233.200958 103.674666 
L 232.358707 103.994306 
L 227.126274 104.95002 
L 221.646472 105.584504 
L 217.922645 105.900952 
L 212.625254 106.216873 
L 189.611456 106.847137 
L 161.699906 107.161484 
L 46.812702 107.788611 
L 37.828912 108.101395 
L 75.830658 108.41366 
L 185.401322 109.036641 
L 211.173797 109.34736 
L 223.08981 109.657565 
L 232.574604 110.27644 
L 234.087314 110.585114 
L 234.646801 110.893279 
L 234.717038 111.200937 
L 234.654423 111.50809 
L 234.399956 111.814738 
L 232.995518 112.731669 
L 232.200108 113.340458 
L 231.6596 113.947258 
L 230.678682 114.853753 
L 230.088314 115.755829 
L 228.118246 116.354775 
L 229.570064 116.951781 
L 230.674753 117.546856 
L 232.117071 118.14001 
L 232.329325 118.435869 
L 229.8591 118.731252 
L 213.449898 119.026159 
L 143.756944 119.320591 
L 121.333154 119.614551 
L 197.959978 120.201053 
L 208.712301 120.493599 
L 214.990261 120.785676 
L 223.28253 121.949319 
L 224.681738 122.239068 
L 226.407794 122.817183 
L 228.315467 123.393457 
L 230.309595 124.254439 
L 230.188049 124.826153 
L 233.211701 125.964161 
L 233.456968 126.24754 
L 233.552177 126.812959 
L 234.146541 127.376598 
L 234.000428 127.938467 
L 233.245982 128.777967 
L 230.225912 130.997454 
L 229.481494 131.548012 
L 229.058939 132.096859 
L 228.690846 132.644005 
L 228.460302 132.916942 
L 227.872855 133.461549 
L 227.920889 133.733222 
L 228.495876 134.275309 
L 228.887308 134.815726 
L 229.283876 135.08531 
L 229.243004 135.623235 
L 229.902197 136.159509 
L 230.509812 136.69414 
L 230.495438 136.960841 
L 230.623971 137.227134 
L 230.408224 137.49302 
L 230.405028 137.758499 
L 230.152848 138.023573 
L 228.604689 138.816374 
L 224.19522 139.867822 
L 216.569791 141.173185 
L 207.009794 143.241351 
L 206.290967 143.498123 
L 206.058321 143.75451 
L 206.158293 144.010513 
L 205.950391 144.521367 
L 205.997393 144.776221 
L 206.455224 145.284785 
L 206.356371 145.538498 
L 206.618611 146.044787 
L 206.262492 146.297366 
L 204.959128 146.549569 
L 196.288682 147.303929 
L 183.9858 147.80497 
L 165.765304 148.304527 
L 150.525935 148.802606 
L 145.084929 149.299213 
L 144.608322 149.546967 
L 145.505209 150.04138 
L 145.458953 150.28804 
L 144.658681 150.534337 
L 142.795274 150.780272 
L 123.623057 151.760405 
L 108.800237 152.248319 
L 98.860248 152.734807 
L 88.440294 153.219874 
L 76.507084 154.185771 
L 70.35956 154.906512 
L 65.776272 155.624119 
L 59.424826 157.522572 
L 58.989625 157.758342 
L 58.302007 157.993771 
L 57.667857 158.463616 
L 57.562166 158.698033 
L 56.47292 159.165857 
L 56.554986 159.399267 
L 55.471958 159.865085 
L 55.152396 160.097494 
L 54.793044 160.561317 
L 54.61026 160.792733 
L 54.218579 161.023818 
L 53.865444 161.485003 
L 53.391697 161.944876 
L 53.191505 162.403443 
L 53.281032 162.860711 
L 53.278545 163.088859 
L 53.394184 163.316684 
L 52.788633 163.544187 
L 52.927897 163.771368 
L 52.931628 163.998229 
L 52.726461 164.224769 
L 52.973904 164.45099 
L 52.898055 164.676892 
L 53.310874 164.902475 
L 52.92541 165.127742 
L 52.967687 165.352691 
L 53.387967 165.577324 
L 52.893081 165.801642 
L 53.782135 166.249333 
L 53.5521 166.472709 
L 53.50858 166.695771 
L 54.06688 166.918521 
L 53.971136 167.14096 
L 54.043255 167.363088 
L 54.469752 167.584905 
L 54.590365 167.806413 
L 54.49089 168.027612 
L 55.147422 168.248503 
L 55.202133 168.689362 
L 55.723131 169.128995 
L 56.450538 169.786159 
L 57.016299 170.004607 
L 57.094635 170.222752 
L 57.652936 170.440594 
L 57.385598 170.658136 
L 57.731272 170.875377 
L 59.530517 171.308959 
L 61.89801 172.817117 
L 62.978552 173.031385 
L 62.830584 173.245359 
L 63.054401 173.45904 
L 65.527586 174.523066 
L 66.540983 174.946644 
L 68.564045 175.579848 
L 68.978108 175.790342 
L 71.88898 176.629461 
L 73.142359 177.047315 
L 77.183511 178.294111 
L 83.071158 179.940885 
L 84.594361 180.145489 
L 84.772172 180.349819 
L 85.586619 180.553875 
L 86.95315 180.757658 
L 87.511451 180.961169 
L 87.368456 181.164407 
L 88.124462 181.367374 
L 90.659819 181.772495 
L 91.737873 182.176537 
L 94.91111 182.780584 
L 95.108816 182.981398 
L 95.596241 183.181946 
L 100.450596 183.981479 
L 100.83233 184.180701 
L 102.411487 184.578355 
L 107.020887 185.567905 
L 107.375265 185.765033 
L 109.593546 186.158512 
L 111.793549 186.550958 
L 113.174628 186.942374 
L 120.615072 188.304282 
L 120.603757 188.497825 
L 124.81302 189.269479 
L 126.382728 189.653802 
L 131.675269 190.610252 
L 146.464018 193.629693 
L 148.847925 194.002774 
L 149.082063 194.188956 
L 159.10387 196.03776 
L 161.843646 196.587826 
L 162.946694 196.770716 
L 163.328428 196.953375 
L 166.795487 197.499964 
L 167.098014 197.863205 
L 173.599543 199.127355 
L 174.690529 199.486499 
L 178.134337 200.202086 
L 177.822235 200.380423 
L 178.557974 200.558536 
L 180.065634 200.736427 
L 180.478453 200.914095 
L 181.517962 201.091541 
L 183.436327 201.268766 
L 184.797139 201.799116 
L 184.999321 201.975459 
L 188.577045 202.327486 
L 187.633157 202.503172 
L 188.229631 202.853889 
L 188.902576 203.028921 
L 190.362488 203.203737 
L 190.340977 203.378335 
L 190.580089 203.552717 
L 191.898375 203.726884 
L 191.562026 203.900835 
L 194.263629 204.4214 
L 194.394687 204.594493 
L 195.508926 204.94004 
L 195.64533 205.112494 
L 197.109595 205.456766 
L 199.248918 206.313753 
L 201.830406 206.995568 
L 204.530144 207.84316 
L 204.60562 208.012059 
L 208.364762 209.355873 
L 208.742392 209.522933 
L 209.76959 209.856448 
L 210.071744 210.022902 
L 211.013021 210.355208 
L 212.118805 210.852163 
L 214.088276 211.676437 
L 214.276282 211.840698 
L 215.344141 212.168627 
L 215.907167 212.49577 
L 217.365587 212.985016 
L 217.086313 213.147707 
L 219.048323 213.958256 
L 218.777877 214.119786 
L 219.769016 214.44227 
L 220.878156 215.084938 
L 221.056464 215.245129 
L 222.252521 215.883993 
L 222.446372 216.043237 
L 223.322046 216.36116 
L 223.224685 216.519839 
L 223.948884 216.836637 
L 227.096954 219.344355 
L 230.793178 223.320864 
L 230.949987 223.621825 
L 231.174948 223.922093 
L 231.384118 224.221673 
L 231.883256 225.116301 
L 233.119115 226.004812 
L 233.159154 226.152307 
L 233.588013 226.446793 
L 233.528055 226.74061 
L 234.039887 227.03376 
L 233.842394 227.47224 
L 234.279596 227.763732 
L 234.283597 227.909231 
L 233.970056 228.199735 
L 234.251816 228.344742 
L 234.251816 228.344742 
" clip-path="url(#p6891bc2aa5)" style="fill: none; stroke: #17becf; stroke-width: 1.5; stroke-linecap: square"/>
   </g>
   <g id="line2d_15">
    <path d="M 235.35613 86.978908 
L 234.912001 87.327138 
L 235.051603 88.021773 
L 234.294055 88.368182 
L 234.0017 88.713986 
L 233.047941 89.059188 
L 231.926453 89.747791 
L 218.402485 90.434002 
L 229.353272 90.776216 
L 232.291562 91.117836 
L 234.209618 91.458864 
L 234.794431 91.799303 
L 234.919168 92.139153 
L 234.712049 92.478416 
L 234.729277 92.817093 
L 233.955632 93.492698 
L 233.434064 93.829629 
L 234.067203 94.16598 
L 234.996175 94.501753 
L 234.936627 95.505619 
L 234.060326 96.172001 
L 232.138446 96.504337 
L 228.327366 96.836106 
L 221.997866 97.167309 
L 218.267324 97.497947 
L 220.112203 97.828022 
L 228.523169 98.814881 
L 230.779065 99.142717 
L 232.531743 99.796722 
L 234.023131 101.098104 
L 234.614448 101.422077 
L 234.71665 101.745503 
L 235.139004 102.068385 
L 234.858203 102.390722 
L 234.994353 102.712518 
L 233.859976 103.354488 
L 233.390792 103.674666 
L 230.104503 104.631982 
L 228.0205 104.95002 
L 220.17052 105.900952 
L 213.884975 106.216873 
L 191.321049 106.847137 
L 166.213561 107.161484 
L 66.573312 107.788611 
L 50.007077 108.101395 
L 184.387179 109.036641 
L 212.287663 109.34736 
L 223.710718 109.657565 
L 229.67721 109.967258 
L 231.541524 110.27644 
L 234.363995 110.585114 
L 235.262511 110.893279 
L 234.76058 111.200937 
L 234.754149 111.50809 
L 233.087681 112.731669 
L 232.437951 113.036313 
L 232.060719 113.340458 
L 231.915548 113.644106 
L 230.455213 115.154934 
L 230.352953 115.755829 
L 229.690689 116.055545 
L 228.591135 116.354775 
L 228.866058 116.65352 
L 229.666417 116.951781 
L 229.83111 117.249559 
L 230.475195 117.546856 
L 232.252369 118.14001 
L 232.001395 118.435869 
L 229.143331 118.731252 
L 214.662368 119.026159 
L 139.7807 119.320591 
L 122.429238 119.614551 
L 200.030166 120.201053 
L 209.267244 120.493599 
L 214.905583 120.785676 
L 217.797804 121.077286 
L 224.553553 122.239068 
L 228.870522 123.680907 
L 229.477702 123.967901 
L 230.59107 124.254439 
L 230.796684 124.540522 
L 230.802491 124.826153 
L 231.326137 125.11133 
L 232.364091 125.396057 
L 232.846269 125.680334 
L 234.044388 126.24754 
L 234.190558 126.812959 
L 234.667167 127.095001 
L 234.980222 127.657753 
L 234.831728 127.938467 
L 234.827524 128.218739 
L 233.037384 129.891178 
L 232.228943 130.445179 
L 232.007923 130.721532 
L 230.688033 131.272947 
L 230.081674 132.096859 
L 230.066243 132.370644 
L 229.816524 132.644005 
L 229.900506 133.189456 
L 229.435177 133.461549 
L 229.271951 133.733222 
L 228.881912 134.004475 
L 229.706444 134.275309 
L 230.632986 135.623235 
L 231.564043 135.891578 
L 231.649902 136.159509 
L 233.367515 137.227134 
L 233.635189 137.49302 
L 234.476896 138.023573 
L 234.465745 138.288243 
L 234.806768 138.55251 
L 234.829801 138.816374 
L 234.415796 139.342897 
L 234.455185 139.605559 
L 233.329752 139.867822 
L 233.405875 140.129687 
L 233.06336 140.391155 
L 229.857819 141.173185 
L 229.097448 141.433073 
L 229.174479 141.692569 
L 227.981382 141.951674 
L 224.579117 142.468711 
L 223.775028 142.726645 
L 220.894445 143.241351 
L 220.403539 143.498123 
L 218.869393 143.75451 
L 219.09806 144.010513 
L 218.383211 144.266132 
L 215.777477 144.776221 
L 215.825971 145.030693 
L 216.151625 145.284785 
L 214.128314 145.538498 
L 213.771574 145.791831 
L 216.579117 146.044787 
L 211.609868 146.549569 
L 216.060482 146.801397 
L 220.286034 147.554636 
L 225.02776 148.054934 
L 226.981912 148.304527 
L 233.021842 148.802606 
L 231.027204 149.051093 
L 232.771887 149.299213 
L 232.662589 149.546967 
L 233.928544 149.794356 
L 231.458351 150.04138 
L 227.797988 150.28804 
L 225.894295 150.534337 
L 218.783099 150.780272 
L 201.502016 151.271058 
L 197.870575 151.515911 
L 172.269569 152.248319 
L 169.393264 152.491741 
L 145.799902 153.219874 
L 138.007442 153.703527 
L 132.45117 154.185771 
L 122.864439 154.666614 
L 123.952442 154.906512 
L 122.970877 155.146062 
L 114.898646 155.624119 
L 112.937009 155.862629 
L 105.57602 156.338613 
L 107.286981 156.576089 
L 105.036371 156.813223 
L 104.700644 157.050014 
L 101.512487 157.522572 
L 97.37186 157.758342 
L 96.477833 157.993771 
L 96.597203 158.228863 
L 92.45036 158.463616 
L 90.960729 158.698033 
L 91.170869 158.932113 
L 89.819259 159.165857 
L 86.118808 159.399267 
L 85.699771 159.632342 
L 84.775902 159.865085 
L 88.164252 160.097494 
L 81.627534 160.329571 
L 81.311702 160.561317 
L 80.298306 160.792733 
L 78.684332 161.023818 
L 75.99106 161.254575 
L 76.137785 161.485003 
L 76.790586 161.715103 
L 78.091216 161.944876 
L 77.287959 162.174322 
L 72.761869 162.403443 
L 72.960818 162.632239 
L 69.362328 162.860711 
L 69.47175 163.088859 
L 68.588914 163.544187 
L 66.146815 163.998229 
L 71.872816 164.224769 
L 67.287041 164.45099 
L 68.953239 164.676892 
L 63.83652 164.902475 
L 65.481579 165.127742 
L 65.680528 165.352691 
L 68.023153 165.577324 
L 66.058531 165.801642 
L 61.738851 166.025645 
L 61.844543 166.249333 
L 63.153876 166.472709 
L 62.596819 166.695771 
L 62.966118 166.918521 
L 63.92729 167.14096 
L 61.496382 167.363088 
L 62.391653 167.584905 
L 59.65486 167.806413 
L 59.882408 168.027612 
L 62.180269 168.248503 
L 60.243003 168.469086 
L 61.522494 168.909331 
L 60.28155 169.128995 
L 63.28941 169.348354 
L 60.893318 169.786159 
L 61.204176 170.004607 
L 63.027046 170.440594 
L 61.874385 170.658136 
L 62.465015 170.875377 
L 61.886819 171.308959 
L 66.347007 171.741346 
L 64.907114 171.957093 
L 62.069604 172.172543 
L 65.074977 172.387697 
L 64.460722 172.602554 
L 62.845505 172.817117 
L 62.713701 173.031385 
L 65.244084 173.245359 
L 65.333611 173.45904 
L 65.005345 173.672428 
L 63.250864 173.885524 
L 67.405167 174.098329 
L 67.826691 174.310843 
L 64.318971 174.734999 
L 71.742256 175.158 
L 71.121783 175.369068 
L 70.076058 175.579848 
L 71.722361 176.00055 
L 72.01208 176.210472 
L 75.484984 176.629461 
L 74.277612 176.83853 
L 75.184073 177.047315 
L 74.500186 177.255818 
L 74.878189 177.464039 
L 77.784088 177.671978 
L 76.697329 177.879636 
L 80.52461 178.294111 
L 79.543543 178.500929 
L 81.802858 178.707469 
L 82.409652 178.91373 
L 83.552366 179.119714 
L 80.636519 179.325421 
L 84.186516 179.736006 
L 82.325099 179.940885 
L 85.880069 180.145489 
L 84.563275 180.349819 
L 85.207373 180.553875 
L 89.233603 180.757658 
L 90.230835 180.961169 
L 79.75617 181.367374 
L 84.977338 181.57007 
L 95.990408 181.772495 
L 94.076768 182.176537 
L 93.930043 182.378154 
L 94.929762 182.579503 
L 101.582119 182.780584 
L 101.523677 182.981398 
L 98.693628 183.181946 
L 98.791859 183.382227 
L 107.048242 184.180701 
L 103.802887 184.379659 
L 108.437155 184.974959 
L 107.167612 185.172868 
L 110.291111 185.567905 
L 109.956628 185.765033 
L 108.501814 185.961902 
L 115.880335 186.550958 
L 115.766312 186.746794 
L 116.381437 186.942374 
L 118.054972 187.137697 
L 119.673049 187.527577 
L 121.04045 187.722134 
L 120.872587 187.916437 
L 124.190807 188.304282 
L 122.157176 188.497825 
L 125.797072 188.691116 
L 124.309058 188.884155 
L 129.173858 189.269479 
L 129.065555 189.461765 
L 133.299687 190.228416 
L 132.534355 190.419458 
L 135.421727 190.800799 
L 134.25601 190.9911 
L 137.66438 191.181155 
L 136.065825 191.370964 
L 136.971416 191.560528 
L 139.913623 191.749848 
L 139.998798 191.938923 
L 139.84312 192.127755 
L 142.963884 192.316343 
L 141.898263 192.504689 
L 146.530666 193.068275 
L 146.084523 193.255655 
L 149.645835 193.816353 
L 151.338269 194.002774 
L 150.308583 194.188956 
L 151.002418 194.374901 
L 153.832468 194.560607 
L 154.065362 194.746077 
L 154.92992 195.116306 
L 158.921707 195.301067 
L 158.184353 195.485592 
L 160.170112 195.853938 
L 160.386221 196.03776 
L 161.598939 196.404704 
L 163.81635 196.770716 
L 162.712059 196.953375 
L 166.659207 197.499964 
L 166.319502 197.681699 
L 166.631727 197.863205 
L 170.614313 198.22553 
L 169.963999 198.40635 
L 172.061667 198.586942 
L 173.583876 199.127355 
L 173.598424 199.30704 
L 177.017735 200.023526 
L 179.398782 200.202086 
L 177.271395 200.380423 
L 178.574138 200.558536 
L 181.25336 200.736427 
L 180.208629 200.914095 
L 183.213505 201.268766 
L 182.436982 201.44577 
L 182.661421 201.622553 
L 183.657534 201.799116 
L 183.112289 201.975459 
L 185.637823 202.151582 
L 185.774103 202.327486 
L 184.640466 202.503172 
L 188.488762 202.853889 
L 187.807859 203.028921 
L 190.744097 203.203737 
L 189.961109 203.378335 
L 190.235037 203.552717 
L 192.32885 203.726884 
L 192.370878 203.900835 
L 192.056415 204.074571 
L 194.382626 204.4214 
L 193.824325 204.594493 
L 193.925416 204.767373 
L 195.507185 204.94004 
L 195.456577 205.112494 
L 197.676227 205.284736 
L 197.083607 205.456766 
L 197.309041 205.628585 
L 199.717816 205.971589 
L 199.767678 206.313753 
L 199.737338 206.48452 
L 201.983721 206.825427 
L 202.14947 206.995568 
L 202.55284 207.165501 
L 202.416311 207.335226 
L 203.895497 207.504744 
L 203.390788 207.674055 
L 203.958041 208.012059 
L 206.367811 208.349239 
L 206.404865 208.517522 
L 206.788464 208.6856 
L 206.61886 208.853473 
L 208.384656 209.18861 
L 208.596661 209.355873 
L 209.280051 209.689792 
L 210.704526 209.856448 
L 210.13491 210.022902 
L 211.557271 210.355208 
L 210.657524 210.52106 
L 212.81923 210.852163 
L 212.812639 211.182469 
L 213.927127 211.347323 
L 213.592644 211.511979 
L 214.484308 211.676437 
L 214.46976 211.840698 
L 215.486887 212.004761 
L 214.678905 212.168627 
L 216.390737 212.332296 
L 215.09732 212.49577 
L 216.41573 212.822129 
L 216.438112 212.985016 
L 217.299685 213.147707 
L 216.978134 213.310205 
L 217.374291 213.472508 
L 216.703336 213.634617 
L 218.660745 213.958256 
L 218.572959 214.119786 
L 220.027152 214.281124 
L 218.196821 214.44227 
L 218.196199 214.603224 
L 221.043035 215.084938 
L 218.778623 215.245129 
L 220.294987 215.405129 
L 220.208942 215.56494 
L 222.27627 215.724561 
L 221.897646 215.883993 
L 220.140802 216.043237 
L 223.080149 216.202292 
L 223.652139 216.678332 
L 224.424447 216.836637 
L 224.376451 216.994755 
L 225.028991 217.467994 
L 224.99124 217.62537 
L 225.516229 217.939565 
L 225.394112 218.096386 
L 226.272832 218.565746 
L 226.304876 218.877737 
L 227.009466 219.188998 
L 227.219942 219.499531 
L 227.66039 219.80934 
L 228.543263 220.426794 
L 228.934534 220.734444 
L 228.564116 220.888001 
L 228.990899 221.19458 
L 229.528596 221.347602 
L 229.275682 221.500448 
L 229.725878 221.653116 
L 230.28357 222.413811 
L 230.13166 222.565423 
L 230.524907 222.71686 
L 230.486386 222.868122 
L 230.770684 223.170124 
L 230.807825 223.320864 
L 231.072054 223.471431 
L 230.895064 223.621825 
L 231.048342 223.772045 
L 231.000532 223.922093 
L 231.490282 224.071969 
L 231.591286 224.221673 
L 231.29678 224.371205 
L 231.486751 224.520566 
L 231.486751 224.520566 
" clip-path="url(#p6891bc2aa5)" style="fill: none; stroke: #bcbd22; stroke-width: 1.5; stroke-linecap: square"/>
   </g>
   <g id="line2d_16">
    <path d="M 234.95762 86.978908 
L 234.763393 87.674759 
L 234.51322 88.021773 
L 234.714076 88.368182 
L 234.38129 88.713986 
L 234.819172 89.059188 
L 232.271841 89.403789 
L 220.948286 90.091195 
L 220.067936 90.434002 
L 230.735072 90.776216 
L 234.207149 91.117836 
L 235.001872 91.458864 
L 234.768964 92.139153 
L 234.921791 92.478416 
L 234.254733 92.817093 
L 232.669814 93.155187 
L 229.504535 93.492698 
L 216.207828 93.829629 
L 217.965046 94.16598 
L 227.419027 94.501753 
L 232.707838 94.836949 
L 234.533966 95.171571 
L 235.067618 95.839095 
L 234.983536 96.172001 
L 235.341995 96.504337 
L 235.254102 96.836106 
L 234.727707 97.497947 
L 233.276695 97.828022 
L 234.656615 98.157535 
L 235.207705 98.486487 
L 235.359911 98.814881 
L 235.063138 99.142717 
L 235.056803 99.796722 
L 234.846991 100.773584 
L 235.155622 101.098104 
L 235.027354 101.422077 
L 235.147834 101.745503 
L 234.877296 102.068385 
L 235.155414 102.390722 
L 234.85208 102.712518 
L 235.121268 103.033773 
L 234.964682 103.674666 
L 235.0921 103.994306 
L 234.835672 104.313411 
L 234.411157 104.631982 
L 234.560263 104.95002 
L 234.926574 105.267527 
L 234.657911 105.584504 
L 233.830793 105.900952 
L 234.522222 106.216873 
L 234.717806 109.967258 
L 236.552701 110.27644 
L 234.888834 110.585114 
L 234.536649 110.893279 
L 235.143942 111.200937 
L 235.040788 111.50809 
L 235.179246 111.814738 
L 234.986346 112.731669 
L 235.189259 113.340458 
L 234.980356 114.552081 
L 235.178794 115.154934 
L 234.890873 115.755829 
L 234.599946 116.055545 
L 234.650942 116.354775 
L 235.110965 116.65352 
L 235.113754 116.951781 
L 235.414733 117.249559 
L 235.433561 117.546856 
L 235.136664 117.843672 
L 235.104506 118.14001 
L 235.598666 118.435869 
L 235.111802 120.785676 
L 234.423711 121.077286 
L 235.136202 121.659106 
L 235.474301 121.949319 
L 235.248289 122.528356 
L 235.612593 122.817183 
L 235.251406 123.393457 
L 235.4699 123.967901 
L 234.836126 124.254439 
L 234.61134 124.540522 
L 234.562409 124.826153 
L 234.830707 125.11133 
L 234.761764 125.396057 
L 234.926282 125.680334 
L 234.451199 126.530473 
L 234.460358 127.376598 
L 234.227035 127.657753 
L 234.251476 127.938467 
L 234.059025 128.218739 
L 234.107852 128.498572 
L 233.973629 128.777967 
L 234.049906 129.056923 
L 233.825819 129.891178 
L 233.879773 130.445179 
L 233.724691 130.721532 
L 234.164283 131.272947 
L 233.853747 132.370644 
L 233.955682 132.644005 
L 233.240536 133.189456 
L 234.382681 134.004475 
L 233.816431 134.275309 
L 233.831129 134.815726 
L 233.939685 135.08531 
L 233.90684 135.623235 
L 233.246629 135.891578 
L 233.359843 136.159509 
L 232.630882 136.960841 
L 232.078326 137.49302 
L 227.408297 139.342897 
L 226.468126 139.605559 
L 226.398009 139.867822 
L 224.513564 140.129687 
L 223.505203 140.391155 
L 223.330389 140.652226 
L 223.306926 140.912903 
L 222.062276 141.173185 
L 221.577586 141.433073 
L 220.379043 141.692569 
L 220.376556 141.951674 
L 220.552377 142.210387 
L 221.033958 142.468711 
L 220.957612 142.726645 
L 221.426385 142.984192 
L 221.640131 143.241351 
L 221.262501 143.498123 
L 222.5829 143.75451 
L 222.17891 144.010513 
L 222.791324 144.266132 
L 225.474463 144.776221 
L 225.710093 145.030693 
L 225.581845 145.284785 
L 227.608576 145.538498 
L 227.861415 145.791831 
L 225.156157 146.044787 
L 227.846084 146.297366 
L 228.465872 146.549569 
L 221.296073 146.801397 
L 212.751338 147.303929 
L 196.139097 147.80497 
L 152.121382 148.802606 
L 150.858677 149.051093 
L 147.176504 149.299213 
L 146.994342 149.546967 
L 146.278001 149.794356 
L 158.676751 150.780272 
L 165.009049 151.025845 
L 164.792941 151.271058 
L 164.182043 151.515911 
L 172.449245 152.004541 
L 169.447229 152.491741 
L 172.064776 152.734807 
L 176.817046 152.977517 
L 177.186345 153.219874 
L 178.544296 153.461876 
L 178.493813 153.703527 
L 178.823446 153.944825 
L 178.719744 154.185771 
L 182.07017 154.426368 
L 183.594989 154.666614 
L 181.111111 154.906512 
L 180.456693 155.146062 
L 185.426937 155.624119 
L 186.663405 155.862629 
L 192.188591 156.338613 
L 189.96173 156.576089 
L 191.29444 156.813223 
L 190.994524 157.050014 
L 191.587517 157.286463 
L 192.708594 157.522572 
L 196.462016 157.758342 
L 196.694786 157.993771 
L 196.125046 158.228863 
L 199.96986 158.463616 
L 201.406769 158.698033 
L 200.530399 158.932113 
L 201.312019 159.165857 
L 205.373315 159.399267 
L 204.992452 159.632342 
L 205.550752 159.865085 
L 201.764628 160.097494 
L 208.268271 160.329571 
L 208.307937 160.561317 
L 210.18415 161.023818 
L 212.750841 161.254575 
L 212.39696 161.485003 
L 211.587238 161.715103 
L 210.103451 161.944876 
L 210.783857 162.174322 
L 215.118707 162.403443 
L 215.022465 162.632239 
L 218.500218 162.860711 
L 218.320543 163.088859 
L 218.981799 163.316684 
L 218.730999 163.544187 
L 221.399278 163.998229 
L 215.39363 164.224769 
L 220.236919 164.45099 
L 218.534413 164.676892 
L 224.173386 164.902475 
L 222.009803 165.127742 
L 221.902744 165.352691 
L 220.112576 165.577324 
L 221.462445 165.801642 
L 226.101425 166.025645 
L 226.371611 166.249333 
L 224.860941 166.472709 
L 225.787956 166.918521 
L 224.591776 167.14096 
L 227.093323 167.363088 
L 226.73524 167.584905 
L 229.496279 167.806413 
L 229.219814 168.027612 
L 227.713621 168.248503 
L 229.550082 168.469086 
L 228.769443 168.689362 
L 228.613032 168.909331 
L 230.042419 169.128995 
L 227.273484 169.348354 
L 230.384934 170.004607 
L 229.26091 170.222752 
L 229.170475 170.440594 
L 229.761117 170.658136 
L 229.66214 170.875377 
L 232.401817 171.308959 
L 228.482049 171.741346 
L 230.355564 171.957093 
L 233.471964 172.172543 
L 230.807328 172.387697 
L 231.64785 172.602554 
L 234.720694 173.031385 
L 231.959118 173.245359 
L 232.248987 173.45904 
L 233.031118 173.672428 
L 235.397032 173.885524 
L 232.029658 174.098329 
L 231.939808 174.310843 
L 236.137929 174.734999 
L 229.879305 175.158 
L 232.91906 175.579848 
L 232.303138 175.790342 
L 232.498195 176.00055 
L 233.233909 176.210472 
L 230.903619 176.629461 
L 232.57627 176.83853 
L 232.423328 177.047315 
L 233.763809 177.255818 
L 234.15468 177.464039 
L 232.07518 177.671978 
L 233.545351 177.879636 
L 231.139374 178.294111 
L 232.848868 178.500929 
L 231.3544 178.707469 
L 231.628863 178.91373 
L 231.460975 179.119714 
L 234.571608 179.325421 
L 233.144245 179.736006 
L 235.165619 179.940885 
L 233.258156 180.145489 
L 234.841403 180.349819 
L 234.824189 180.553875 
L 232.346658 180.757658 
L 231.796254 180.961169 
L 236.093661 181.164407 
L 242.960215 181.367374 
L 239.414831 181.57007 
L 229.288054 181.772495 
L 233.439411 182.378154 
L 233.536373 182.579503 
L 228.061235 182.780584 
L 228.288584 182.981398 
L 231.72881 183.181946 
L 232.765943 183.382227 
L 231.426668 183.582243 
L 231.408813 183.781993 
L 228.13405 184.180701 
L 232.111687 184.379659 
L 229.90446 184.776788 
L 230.675052 184.974959 
L 232.398422 185.172868 
L 231.513647 185.567905 
L 232.265375 185.765033 
L 234.632122 185.961902 
L 233.213032 186.158512 
L 230.347942 186.354864 
L 231.645848 186.942374 
L 231.230418 187.137697 
L 231.430647 187.332765 
L 231.164939 187.722134 
L 232.349021 187.916437 
L 232.237945 188.110486 
L 231.40895 188.304282 
L 233.298953 188.497825 
L 230.892515 188.691116 
L 233.402506 188.884155 
L 230.525342 189.269479 
L 231.392288 189.461765 
L 230.780756 189.845589 
L 231.182944 190.037127 
L 230.908742 190.228416 
L 232.753633 190.419458 
L 232.081211 190.610252 
L 232.175425 190.800799 
L 233.985461 190.9911 
L 232.1423 191.181155 
L 233.954635 191.370964 
L 233.898197 191.560528 
L 231.774481 191.749848 
L 232.680656 191.938923 
L 234.32676 192.127755 
L 232.31178 192.316343 
L 233.961111 192.504689 
L 232.196651 193.068275 
L 233.329255 193.255655 
L 233.330809 193.442794 
L 233.026803 193.816353 
L 232.551675 194.002774 
L 233.749174 194.188956 
L 234.175477 194.374901 
L 232.792578 194.560607 
L 234.535707 195.116306 
L 232.155717 195.301067 
L 234.027651 195.485592 
L 233.653244 195.853938 
L 234.066124 196.03776 
L 234.00335 196.221348 
L 234.386807 196.404704 
L 234.139639 196.587826 
L 234.409287 196.770716 
L 235.733082 196.953375 
L 235.05004 197.317998 
L 235.253047 197.499964 
L 235.721165 197.681699 
L 235.582898 197.863205 
L 233.602785 198.22553 
L 234.776578 198.40635 
L 233.696677 198.586942 
L 235.13235 199.127355 
L 235.594929 199.30704 
L 234.882628 199.665732 
L 235.180977 200.023526 
L 233.852267 200.202086 
L 235.667511 200.380423 
L 235.100609 200.558536 
L 233.928884 200.736427 
L 235.386574 200.914095 
L 234.560604 201.091541 
L 235.339548 201.268766 
L 236.683199 201.44577 
L 236.674632 201.622553 
L 236.256325 201.799116 
L 237.003744 201.975459 
L 236.555636 202.151582 
L 237.919643 202.327486 
L 238.10939 202.503172 
L 236.909094 202.67864 
L 234.857615 202.853889 
L 236.211403 203.028921 
L 234.735042 203.203737 
L 235.496598 203.378335 
L 235.461737 203.552717 
L 234.307806 203.900835 
L 235.481674 204.074571 
L 235.380275 204.248092 
L 234.99771 204.4214 
L 236.152193 204.767373 
L 235.118534 204.94004 
L 235.305432 205.112494 
L 234.020159 205.284736 
L 235.14264 205.456766 
L 235.346271 205.628585 
L 234.246882 205.800193 
L 233.939803 205.971589 
L 234.128004 206.142776 
L 234.597924 206.313753 
L 235.392716 206.48452 
L 235.245204 206.655078 
L 234.784092 206.825427 
L 234.797566 206.995568 
L 234.928098 207.165501 
L 235.533501 207.335226 
L 234.958466 207.504744 
L 236.005643 207.674055 
L 235.990536 207.84316 
L 235.764182 208.012059 
L 234.706671 208.349239 
L 234.950224 208.517522 
L 234.972959 208.6856 
L 235.635946 208.853473 
L 234.832705 209.021143 
L 234.733052 209.18861 
L 234.884744 209.355873 
L 234.857903 209.522933 
L 235.245557 209.689792 
L 234.181727 209.856448 
L 235.053537 210.022902 
L 234.572455 210.355208 
L 235.7845 210.52106 
L 235.290412 210.686711 
L 234.416259 210.852163 
L 235.251041 211.182469 
L 234.541729 211.347323 
L 235.448023 211.511979 
L 234.720631 211.676437 
L 234.923192 211.840698 
L 234.610202 212.004761 
L 235.781938 212.168627 
L 234.511684 212.332296 
L 235.926572 212.49577 
L 235.602833 212.659047 
L 235.648343 212.822129 
L 236.044239 212.985016 
L 234.903333 213.147707 
L 235.665542 213.310205 
L 235.74372 213.472508 
L 236.586523 213.634617 
L 236.195156 213.796533 
L 235.504236 213.958256 
L 235.321569 214.119786 
L 234.466403 214.281124 
L 236.688919 214.44227 
L 237.01869 214.603224 
L 234.951765 215.084938 
L 237.394517 215.245129 
L 236.233452 215.405129 
L 236.662136 215.56494 
L 234.861045 215.724561 
L 235.471477 215.883993 
L 237.42222 216.043237 
L 235.145137 216.202292 
L 235.433608 216.678332 
L 234.887732 216.836637 
L 235.122665 216.994755 
L 235.017757 217.152688 
L 235.315929 217.62537 
L 235.143979 217.78256 
L 235.182661 217.939565 
L 235.490535 218.096386 
L 235.300945 218.253023 
L 235.329564 218.409476 
L 235.168839 218.565746 
L 235.50048 218.877737 
L 235.152719 219.188998 
L 235.275362 219.499531 
L 235.115515 219.654526 
L 235.153596 219.963974 
L 235.121781 220.2727 
L 234.759432 220.580708 
L 234.829741 220.734444 
L 235.351524 220.888001 
L 235.235665 221.19458 
L 234.789392 221.347602 
L 235.197492 221.500448 
L 234.87825 221.653116 
L 235.012554 222.110061 
L 234.898498 222.262024 
L 234.981117 222.413811 
L 235.270359 222.565423 
L 234.992916 222.71686 
L 235.116364 222.868122 
L 234.996316 223.01921 
L 235.122552 223.320864 
L 234.950073 223.471431 
L 235.230261 223.621825 
L 235.170217 223.772045 
L 235.334595 223.922093 
L 234.936329 224.071969 
L 234.916202 224.221673 
L 235.309807 224.371205 
L 235.139644 224.669756 
L 235.277161 224.818775 
L 234.98725 224.967623 
L 235.256131 225.116301 
L 234.706749 225.413148 
L 234.940751 225.561317 
L 234.657741 225.709318 
L 234.606582 226.004812 
L 234.408879 226.299634 
L 234.459758 226.446793 
L 234.159281 226.74061 
L 234.395163 227.03376 
L 234.406743 227.180086 
L 233.994373 227.326245 
L 234.054904 227.47224 
L 234.566403 227.763732 
L 234.193437 228.199735 
L 234.279099 228.344742 
L 234.279099 228.344742 
" clip-path="url(#p6891bc2aa5)" style="fill: none; stroke: #7f7f7f; stroke-width: 1.5; stroke-linecap: square"/>
   </g>
   <g id="patch_3">
    <path d="M 48.602 299.608 
L 48.602 26.88 
" style="fill: none; stroke: #000000; stroke-width: 0.8; stroke-linejoin: miter; stroke-linecap: square"/>
   </g>
   <g id="patch_4">
    <path d="M 247.551 299.608 
L 247.551 26.88 
" style="fill: none; stroke: #000000; stroke-width: 0.8; stroke-linejoin: miter; stroke-linecap: square"/>
   </g>
   <g id="patch_5">
    <path d="M 48.602 299.608 
L 247.551 299.608 
" style="fill: none; stroke: #000000; stroke-width: 0.8; stroke-linejoin: miter; stroke-linecap: square"/>
   </g>
   <g id="patch_6">
    <path d="M 48.602 26.88 
L 247.551 26.88 
" style="fill: none; stroke: #000000; stroke-width: 0.8; stroke-linejoin: miter; stroke-linecap: square"/>
   </g>
   <g id="text_15">
    <!-- photodissociation -->
    <g transform="translate(95.236188 20.88) scale(0.12 -0.12)">
     <defs>
      <path id="DejaVuSans-70" d="M 1159 525 
L 1159 -1331 
L 581 -1331 
L 581 3500 
L 1159 3500 
L 1159 2969 
Q 1341 3281 1617 3432 
Q 1894 3584 2278 3584 
Q 2916 3584 3314 3078 
Q 3713 2572 3713 1747 
Q 3713 922 3314 415 
Q 2916 -91 2278 -91 
Q 1894 -91 1617 61 
Q 1341 213 1159 525 
z
M 3116 1747 
Q 3116 2381 2855 2742 
Q 2594 3103 2138 3103 
Q 1681 3103 1420 2742 
Q 1159 2381 1159 1747 
Q 1159 1113 1420 752 
Q 1681 391 2138 391 
Q 2594 391 2855 752 
Q 3116 1113 3116 1747 
z
" transform="scale(0.015625)"/>
      <path id="DejaVuSans-68" d="M 3513 2113 
L 3513 0 
L 2938 0 
L 2938 2094 
Q 2938 2591 2744 2837 
Q 2550 3084 2163 3084 
Q 1697 3084 1428 2787 
Q 1159 2491 1159 1978 
L 1159 0 
L 581 0 
L 581 4863 
L 1159 4863 
L 1159 2956 
Q 1366 3272 1645 3428 
Q 1925 3584 2291 3584 
Q 2894 3584 3203 3211 
Q 3513 2838 3513 2113 
z
" transform="scale(0.015625)"/>
      <path id="DejaVuSans-64" d="M 2906 2969 
L 2906 4863 
L 3481 4863 
L 3481 0 
L 2906 0 
L 2906 525 
Q 2725 213 2448 61 
Q 2172 -91 1784 -91 
Q 1150 -91 751 415 
Q 353 922 353 1747 
Q 353 2572 751 3078 
Q 1150 3584 1784 3584 
Q 2172 3584 2448 3432 
Q 2725 3281 2906 2969 
z
M 947 1747 
Q 947 1113 1208 752 
Q 1469 391 1925 391 
Q 2381 391 2643 752 
Q 2906 1113 2906 1747 
Q 2906 2381 2643 2742 
Q 2381 3103 1925 3103 
Q 1469 3103 1208 2742 
Q 947 2381 947 1747 
z
" transform="scale(0.015625)"/>
     </defs>
     <use xlink:href="#DejaVuSans-70"/>
     <use xlink:href="#DejaVuSans-68" x="63.476562"/>
     <use xlink:href="#DejaVuSans-6f" x="126.855469"/>
     <use xlink:href="#DejaVuSans-74" x="188.037109"/>
     <use xlink:href="#DejaVuSans-6f" x="227.246094"/>
     <use xlink:href="#DejaVuSans-64" x="288.427734"/>
     <use xlink:href="#DejaVuSans-69" x="351.904297"/>
     <use xlink:href="#DejaVuSans-73" x="379.6875"/>
     <use xlink:href="#DejaVuSans-73" x="431.787109"/>
     <use xlink:href="#DejaVuSans-6f" x="483.886719"/>
     <use xlink:href="#DejaVuSans-63" x="545.068359"/>
     <use xlink:href="#DejaVuSans-69" x="600.048828"/>
     <use xlink:href="#DejaVuSans-61" x="627.832031"/>
     <use xlink:href="#DejaVuSans-74" x="689.111328"/>
     <use xlink:href="#DejaVuSans-69" x="728.320312"/>
     <use xlink:href="#DejaVuSans-6f" x="756.103516"/>
     <use xlink:href="#DejaVuSans-6e" x="817.285156"/>
    </g>
   </g>
   <g id="legend_1">
    <g id="patch_7">
     <path d="M 54.433 295.443 
L 132.4851 295.443 
Q 134.1511 295.443 134.1511 293.777 
L 134.1511 226.293587 
Q 134.1511 224.627587 132.4851 224.627587 
L 54.433 224.627587 
Q 52.767 224.627587 52.767 226.293587 
L 52.767 293.777 
Q 52.767 295.443 54.433 295.443 
z
" style="fill: #ffffff; opacity: 0.8; stroke: #cccccc; stroke-linejoin: miter"/>
    </g>
    <g id="line2d_17">
     <path d="M 56.099 231.373586 
L 64.429 231.373586 
L 72.759 231.373586 
" style="fill: none; stroke-dasharray: 1.5,2.475; stroke-dashoffset: 0; stroke: #000000; stroke-width: 1.5"/>
    </g>
    <g id="text_16">
     <!-- total -->
     <g transform="translate(79.423 234.289086) scale(0.0833 -0.0833)">
      <defs>
       <path id="DejaVuSans-6c" d="M 603 4863 
L 1178 4863 
L 1178 0 
L 603 0 
L 603 4863 
z
" transform="scale(0.015625)"/>
      </defs>
      <use xlink:href="#DejaVuSans-74"/>
      <use xlink:href="#DejaVuSans-6f" x="39.208984"/>
      <use xlink:href="#DejaVuSans-74" x="100.390625"/>
      <use xlink:href="#DejaVuSans-61" x="139.599609"/>
      <use xlink:href="#DejaVuSans-6c" x="200.878906"/>
     </g>
    </g>
    <g id="line2d_18">
     <path d="M 56.099 241.934464 
L 64.429 241.934464 
L 72.759 241.934464 
" style="fill: none; stroke: #ff7f0e; stroke-width: 1.5; stroke-linecap: square"/>
    </g>
    <g id="text_17">
     <!-- Bâ³Î£â‚â» -->
     <g transform="translate(79.423 244.849964) scale(0.0833 -0.0833)">
      <defs>
       <path id="DejaVuSans-42" d="M 1259 2228 
L 1259 519 
L 2272 519 
Q 2781 519 3026 730 
Q 3272 941 3272 1375 
Q 3272 1813 3026 2020 
Q 2781 2228 2272 2228 
L 1259 2228 
z
M 1259 4147 
L 1259 2741 
L 2194 2741 
Q 2656 2741 2882 2914 
Q 3109 3088 3109 3444 
Q 3109 3797 2882 3972 
Q 2656 4147 2194 4147 
L 1259 4147 
z
M 628 4666 
L 2241 4666 
Q 2963 4666 3353 4366 
Q 3744 4066 3744 3513 
Q 3744 3084 3544 2831 
Q 3344 2578 2956 2516 
Q 3422 2416 3680 2098 
Q 3938 1781 3938 1306 
Q 3938 681 3513 340 
Q 3088 0 2303 0 
L 628 0 
L 628 4666 
z
" transform="scale(0.015625)"/>
       <path id="DejaVuSans-2073" d="M 319 -1131 
L 319 4513 
L 3519 4513 
L 3519 -1131 
L 319 -1131 
z
M 678 -775 
L 3163 -775 
L 3163 4153 
L 678 4153 
L 678 -775 
z
" transform="scale(0.015625)"/>
       <path id="DejaVuSans-3a3" d="M 1353 531 
L 3634 531 
L 3634 0 
L 628 0 
L 628 531 
L 2125 2481 
L 628 4134 
L 628 4666 
L 3578 4666 
L 3578 4134 
L 1353 4134 
L 2850 2494 
L 1353 531 
z
" transform="scale(0.015625)"/>
       <path id="DejaVuSans-2081" d="M 488 319 
L 1125 319 
L 1125 2229 
L 428 2101 
L 428 2463 
L 1147 2585 
L 1575 2585 
L 1575 319 
L 2216 319 
L 2216 -24 
L 488 -24 
L 488 319 
z
" transform="scale(0.015625)"/>
       <path id="DejaVuSans-207b" d="M 428 3359 
L 2950 3359 
L 2950 3063 
L 428 3063 
L 428 3359 
z
" transform="scale(0.015625)"/>
      </defs>
      <use xlink:href="#DejaVuSans-42"/>
      <use xlink:href="#DejaVuSans-2073" x="68.603516"/>
      <use xlink:href="#DejaVuSans-3a3" x="128.613281"/>
      <use xlink:href="#DejaVuSans-2081" x="191.796875"/>
      <use xlink:href="#DejaVuSans-207b" x="231.884766"/>
     </g>
    </g>
    <g id="line2d_19">
     <path d="M 56.099 252.495342 
L 64.429 252.495342 
L 72.759 252.495342 
" style="fill: none; stroke-dasharray: 5.55,2.4; stroke-dashoffset: 0; stroke: #1f77b4; stroke-width: 1.5"/>
    </g>
    <g id="text_18">
     <!-- â³Î â‚ -->
     <g transform="translate(79.423 255.410842) scale(0.0833 -0.0833)">
      <defs>
       <path id="DejaVuSans-3a0" d="M 4184 4666 
L 4184 0 
L 3553 0 
L 3553 4134 
L 1259 4134 
L 1259 0 
L 628 0 
L 628 4666 
L 4184 4666 
z
" transform="scale(0.015625)"/>
      </defs>
      <use xlink:href="#DejaVuSans-2073"/>
      <use xlink:href="#DejaVuSans-3a0" x="60.009766"/>
      <use xlink:href="#DejaVuSans-2081" x="135.205078"/>
     </g>
    </g>
    <g id="line2d_20">
     <path d="M 56.099 263.05622 
L 64.429 263.05622 
L 72.759 263.05622 
" style="fill: none; stroke: #17becf; stroke-width: 1.5; stroke-linecap: square"/>
    </g>
    <g id="text_19">
     <!-- expt. total -->
     <g transform="translate(79.423 265.97172) scale(0.0833 -0.0833)">
      <defs>
       <path id="DejaVuSans-78" d="M 3513 3500 
L 2247 1797 
L 3578 0 
L 2900 0 
L 1881 1375 
L 863 0 
L 184 0 
L 1544 1831 
L 300 3500 
L 978 3500 
L 1906 2253 
L 2834 3500 
L 3513 3500 
z
" transform="scale(0.015625)"/>
      </defs>
      <use xlink:href="#DejaVuSans-65"/>
      <use xlink:href="#DejaVuSans-78" x="59.773438"/>
      <use xlink:href="#DejaVuSans-70" x="118.953125"/>
      <use xlink:href="#DejaVuSans-74" x="182.429688"/>
      <use xlink:href="#DejaVuSans-2e" x="221.638672"/>
      <use xlink:href="#DejaVuSans-20" x="253.425781"/>
      <use xlink:href="#DejaVuSans-74" x="285.212891"/>
      <use xlink:href="#DejaVuSans-6f" x="324.421875"/>
      <use xlink:href="#DejaVuSans-74" x="385.603516"/>
      <use xlink:href="#DejaVuSans-61" x="424.8125"/>
      <use xlink:href="#DejaVuSans-6c" x="486.091797"/>
     </g>
    </g>
    <g id="line2d_21">
     <path d="M 56.099 274.7846 
L 64.429 274.7846 
L 72.759 274.7846 
" style="fill: none; stroke: #bcbd22; stroke-width: 1.5; stroke-linecap: square"/>
    </g>
    <g id="text_20">
     <!-- expt. O($^1D_2$) -->
     <g transform="translate(79.423 277.7001) scale(0.0833 -0.0833)">
      <defs>
       <path id="DejaVuSans-4f" d="M 2522 4238 
Q 1834 4238 1429 3725 
Q 1025 3213 1025 2328 
Q 1025 1447 1429 934 
Q 1834 422 2522 422 
Q 3209 422 3611 934 
Q 4013 1447 4013 2328 
Q 4013 3213 3611 3725 
Q 3209 4238 2522 4238 
z
M 2522 4750 
Q 3503 4750 4090 4092 
Q 4678 3434 4678 2328 
Q 4678 1225 4090 567 
Q 3503 -91 2522 -91 
Q 1538 -91 948 565 
Q 359 1222 359 2328 
Q 359 3434 948 4092 
Q 1538 4750 2522 4750 
z
" transform="scale(0.015625)"/>
       <path id="DejaVuSans-Oblique-44" d="M 1081 4666 
L 2438 4666 
Q 3519 4666 4070 4208 
Q 4622 3750 4622 2847 
Q 4622 2250 4412 1698 
Q 4203 1147 3834 769 
Q 3463 381 2891 190 
Q 2319 0 1538 0 
L 172 0 
L 1081 4666 
z
M 1613 4147 
L 909 519 
L 1734 519 
Q 2794 519 3375 1128 
Q 3956 1738 3956 2847 
Q 3956 3519 3581 3833 
Q 3206 4147 2406 4147 
L 1613 4147 
z
" transform="scale(0.015625)"/>
      </defs>
      <use xlink:href="#DejaVuSans-65" transform="translate(0 0.684375)"/>
      <use xlink:href="#DejaVuSans-78" transform="translate(61.523438 0.684375)"/>
      <use xlink:href="#DejaVuSans-70" transform="translate(120.703125 0.684375)"/>
      <use xlink:href="#DejaVuSans-74" transform="translate(184.179688 0.684375)"/>
      <use xlink:href="#DejaVuSans-2e" transform="translate(223.388672 0.684375)"/>
      <use xlink:href="#DejaVuSans-20" transform="translate(255.175781 0.684375)"/>
      <use xlink:href="#DejaVuSans-4f" transform="translate(286.962891 0.684375)"/>
      <use xlink:href="#DejaVuSans-28" transform="translate(365.673828 0.684375)"/>
      <use xlink:href="#DejaVuSans-31" transform="translate(405.644531 38.965625) scale(0.7)"/>
      <use xlink:href="#DejaVuSans-Oblique-44" transform="translate(452.915039 0.684375)"/>
      <use xlink:href="#DejaVuSans-32" transform="translate(529.916992 -15.721875) scale(0.7)"/>
      <use xlink:href="#DejaVuSans-29" transform="translate(577.1875 0.684375)"/>
     </g>
    </g>
    <g id="line2d_22">
     <path d="M 56.099 286.6132 
L 64.429 286.6132 
L 72.759 286.6132 
" style="fill: none; stroke: #7f7f7f; stroke-width: 1.5; stroke-linecap: square"/>
    </g>
    <g id="text_21">
     <!-- expt. O($^3P_J$) -->
     <g transform="translate(79.423 289.5287) scale(0.0833 -0.0833)">
      <defs>
       <path id="DejaVuSans-33" d="M 2597 2516 
Q 3050 2419 3304 2112 
Q 3559 1806 3559 1356 
Q 3559 666 3084 287 
Q 2609 -91 1734 -91 
Q 1441 -91 1130 -33 
Q 819 25 488 141 
L 488 750 
Q 750 597 1062 519 
Q 1375 441 1716 441 
Q 2309 441 2620 675 
Q 2931 909 2931 1356 
Q 2931 1769 2642 2001 
Q 2353 2234 1838 2234 
L 1294 2234 
L 1294 2753 
L 1863 2753 
Q 2328 2753 2575 2939 
Q 2822 3125 2822 3475 
Q 2822 3834 2567 4026 
Q 2313 4219 1838 4219 
Q 1578 4219 1281 4162 
Q 984 4106 628 3988 
L 628 4550 
Q 988 4650 1302 4700 
Q 1616 4750 1894 4750 
Q 2613 4750 3031 4423 
Q 3450 4097 3450 3541 
Q 3450 3153 3228 2886 
Q 3006 2619 2597 2516 
z
" transform="scale(0.015625)"/>
       <path id="DejaVuSans-Oblique-50" d="M 1081 4666 
L 2541 4666 
Q 3178 4666 3512 4369 
Q 3847 4072 3847 3500 
Q 3847 2731 3353 2303 
Q 2859 1875 1966 1875 
L 1172 1875 
L 806 0 
L 172 0 
L 1081 4666 
z
M 1613 4147 
L 1275 2394 
L 2069 2394 
Q 2606 2394 2893 2669 
Q 3181 2944 3181 3456 
Q 3181 3784 2986 3965 
Q 2791 4147 2438 4147 
L 1613 4147 
z
" transform="scale(0.015625)"/>
       <path id="DejaVuSans-Oblique-4a" d="M 1069 4666 
L 1703 4666 
L 856 325 
Q 691 -522 298 -901 
Q -94 -1281 -800 -1281 
L -1050 -1281 
L -947 -750 
L -750 -750 
Q -328 -750 -109 -509 
Q 109 -269 225 325 
L 1069 4666 
z
" transform="scale(0.015625)"/>
      </defs>
      <use xlink:href="#DejaVuSans-65" transform="translate(0 0.765625)"/>
      <use xlink:href="#DejaVuSans-78" transform="translate(61.523438 0.765625)"/>
      <use xlink:href="#DejaVuSans-70" transform="translate(120.703125 0.765625)"/>
      <use xlink:href="#DejaVuSans-74" transform="translate(184.179688 0.765625)"/>
      <use xlink:href="#DejaVuSans-2e" transform="translate(223.388672 0.765625)"/>
      <use xlink:href="#DejaVuSans-20" transform="translate(255.175781 0.765625)"/>
      <use xlink:href="#DejaVuSans-4f" transform="translate(286.962891 0.765625)"/>
      <use xlink:href="#DejaVuSans-28" transform="translate(365.673828 0.765625)"/>
      <use xlink:href="#DejaVuSans-33" transform="translate(405.644531 39.046875) scale(0.7)"/>
      <use xlink:href="#DejaVuSans-Oblique-50" transform="translate(452.915039 0.765625)"/>
      <use xlink:href="#DejaVuSans-Oblique-4a" transform="translate(513.217773 -15.640625) scale(0.7)"/>
      <use xlink:href="#DejaVuSans-29" transform="translate(536.59668 0.765625)"/>
     </g>
    </g>
   </g>
  </g>
  <g id="axes_2">
   <g id="patch_8">
    <path d="M 251.051 299.608 
L 450 299.608 
L 450 26.88 
L 251.051 26.88 
z
" style="fill: #ffffff"/>
   </g>
   <g id="matplotlib.axis_3">
    <g id="xtick_5">
     <g id="line2d_23">
      <g>
       <use xlink:href="#m9d9068994a" x="270.9459" y="299.608" style="stroke: #000000; stroke-width: 0.8"/>
      </g>
     </g>
     <g id="text_22">
      <!-- 1.0 -->
      <g transform="translate(262.994337 314.206437) scale(0.1 -0.1)">
       <use xlink:href="#DejaVuSans-31"/>
       <use xlink:href="#DejaVuSans-2e" x="63.623047"/>
       <use xlink:href="#DejaVuSans-30" x="95.410156"/>
      </g>
     </g>
    </g>
    <g id="xtick_6">
     <g id="line2d_24">
      <g>
       <use xlink:href="#m9d9068994a" x="320.68315" y="299.608" style="stroke: #000000; stroke-width: 0.8"/>
      </g>
     </g>
     <g id="text_23">
      <!-- 1.5 -->
      <g transform="translate(312.731587 314.206437) scale(0.1 -0.1)">
       <use xlink:href="#DejaVuSans-31"/>
       <use xlink:href="#DejaVuSans-2e" x="63.623047"/>
       <use xlink:href="#DejaVuSans-35" x="95.410156"/>
      </g>
     </g>
    </g>
    <g id="xtick_7">
     <g id="line2d_25">
      <g>
       <use xlink:href="#m9d9068994a" x="370.4204" y="299.608" style="stroke: #000000; stroke-width: 0.8"/>
      </g>
     </g>
     <g id="text_24">
      <!-- 2.0 -->
      <g transform="translate(362.468838 314.206437) scale(0.1 -0.1)">
       <use xlink:href="#DejaVuSans-32"/>
       <use xlink:href="#DejaVuSans-2e" x="63.623047"/>
       <use xlink:href="#DejaVuSans-30" x="95.410156"/>
      </g>
     </g>
    </g>
    <g id="xtick_8">
     <g id="line2d_26">
      <g>
       <use xlink:href="#m9d9068994a" x="420.15765" y="299.608" style="stroke: #000000; stroke-width: 0.8"/>
      </g>
     </g>
     <g id="text_25">
      <!-- 2.5 -->
      <g transform="translate(412.206088 314.206437) scale(0.1 -0.1)">
       <use xlink:href="#DejaVuSans-32"/>
       <use xlink:href="#DejaVuSans-2e" x="63.623047"/>
       <use xlink:href="#DejaVuSans-35" x="95.410156"/>
      </g>
     </g>
    </g>
    <g id="text_26">
     <!-- internuclear distance ($\AA$) -->
     <g transform="translate(288.4755 328.906437) scale(0.1 -0.1)">
      <defs>
       <path id="DejaVuSans-Oblique-c5" d="M 3188 5081 
Q 3188 5278 3048 5417 
Q 2909 5556 2713 5556 
Q 2513 5556 2377 5420 
Q 2241 5284 2241 5081 
Q 2241 4884 2377 4746 
Q 2513 4609 2713 4609 
Q 2909 4609 3048 4746 
Q 3188 4884 3188 5081 
z
M 2203 4397 
Q 2034 4513 1945 4689 
Q 1856 4866 1856 5081 
Q 1856 5438 2106 5689 
Q 2356 5941 2713 5941 
Q 3069 5941 3320 5689 
Q 3572 5438 3572 5081 
Q 3572 4834 3458 4643 
Q 3344 4453 3128 4341 
L 3938 0 
L 3278 0 
L 3084 1197 
L 984 1197 
L 325 0 
L -341 0 
L 2203 4397 
z
M 2584 4044 
L 1275 1722 
L 2988 1722 
L 2584 4044 
z
" transform="scale(0.015625)"/>
      </defs>
      <use xlink:href="#DejaVuSans-69" transform="translate(0 0.171875)"/>
      <use xlink:href="#DejaVuSans-6e" transform="translate(27.783203 0.171875)"/>
      <use xlink:href="#DejaVuSans-74" transform="translate(91.162109 0.171875)"/>
      <use xlink:href="#DejaVuSans-65" transform="translate(130.371094 0.171875)"/>
      <use xlink:href="#DejaVuSans-72" transform="translate(191.894531 0.171875)"/>
      <use xlink:href="#DejaVuSans-6e" transform="translate(233.007812 0.171875)"/>
      <use xlink:href="#DejaVuSans-75" transform="translate(296.386719 0.171875)"/>
      <use xlink:href="#DejaVuSans-63" transform="translate(359.765625 0.171875)"/>
      <use xlink:href="#DejaVuSans-6c" transform="translate(414.746094 0.171875)"/>
      <use xlink:href="#DejaVuSans-65" transform="translate(442.529297 0.171875)"/>
      <use xlink:href="#DejaVuSans-61" transform="translate(504.052734 0.171875)"/>
      <use xlink:href="#DejaVuSans-72" transform="translate(565.332031 0.171875)"/>
      <use xlink:href="#DejaVuSans-20" transform="translate(606.445312 0.171875)"/>
      <use xlink:href="#DejaVuSans-64" transform="translate(638.232422 0.171875)"/>
      <use xlink:href="#DejaVuSans-69" transform="translate(701.708984 0.171875)"/>
      <use xlink:href="#DejaVuSans-73" transform="translate(729.492188 0.171875)"/>
      <use xlink:href="#DejaVuSans-74" transform="translate(781.591797 0.171875)"/>
      <use xlink:href="#DejaVuSans-61" transform="translate(820.800781 0.171875)"/>
      <use xlink:href="#DejaVuSans-6e" transform="translate(882.080078 0.171875)"/>
      <use xlink:href="#DejaVuSans-63" transform="translate(945.458984 0.171875)"/>
      <use xlink:href="#DejaVuSans-65" transform="translate(1000.439453 0.171875)"/>
      <use xlink:href="#DejaVuSans-20" transform="translate(1061.962891 0.171875)"/>
      <use xlink:href="#DejaVuSans-28" transform="translate(1093.75 0.171875)"/>
      <use xlink:href="#DejaVuSans-Oblique-c5" transform="translate(1132.763672 0.171875)"/>
      <use xlink:href="#DejaVuSans-29" transform="translate(1201.171875 0.171875)"/>
     </g>
    </g>
   </g>
   <g id="line2d_27">
    <path d="M 278.032816 -1 
L 279.898605 29.197205 
L 281.888095 58.015061 
L 283.877585 83.699502 
L 285.867075 106.558242 
L 287.856565 126.870049 
L 289.846055 144.887407 
L 291.835545 160.838949 
L 293.825035 174.931653 
L 295.814525 187.352854 
L 297.804015 198.272055 
L 299.793505 207.842586 
L 301.782995 216.203101 
L 303.772485 223.51955 
L 306.259347 231.290283 
L 308.248838 236.411922 
L 310.238327 240.83049 
L 312.227818 244.636113 
L 314.217308 247.886382 
L 316.206797 250.6221 
L 318.196288 252.882541 
L 319.688405 254.290237 
L 321.180522 255.469746 
L 323.170012 256.718415 
L 325.159503 257.631332 
L 327.148993 258.241872 
L 329.138483 258.580586 
L 331.127973 258.675971 
L 333.117462 258.555323 
L 335.604325 258.1396 
L 338.091188 257.473374 
L 341.075423 256.403148 
L 344.059658 255.098724 
L 348.038638 253.089288 
L 353.012362 250.300502 
L 369.923028 240.584523 
L 375.394125 237.845747 
L 379.870478 235.822153 
L 384.34683 234.0431 
L 389.320555 232.305322 
L 394.29428 230.811809 
L 399.268005 229.556831 
L 404.739103 228.401444 
L 410.707573 227.359055 
L 417.173415 226.447517 
L 424.634003 225.619205 
L 433.586708 224.854636 
L 444.528903 224.158014 
L 450.497373 223.858559 
L 450.497373 223.858559 
" clip-path="url(#p15e2c6a2e8)" style="fill: none; stroke: #ff7f0e; stroke-width: 1.5; stroke-linecap: square"/>
   </g>
   <g id="line2d_28">
    <path d="M 258.828833 -1 
L 262.490567 37.098111 
L 266.469547 76.021496 
L 269.951155 108.059979 
L 271.443272 119.172886 
L 272.93539 128.774846 
L 273.930135 133.713394 
L 274.92488 137.70217 
L 275.919625 140.935958 
L 276.91437 143.523791 
L 277.909115 145.54515 
L 278.90386 147.055152 
L 279.898605 148.091009 
L 280.89335 148.686856 
L 281.888095 148.869821 
L 282.88284 148.6655 
L 283.877585 148.099486 
L 284.87233 147.196546 
L 285.867075 145.977982 
L 286.86182 144.469463 
L 288.353938 141.725093 
L 289.846055 138.477121 
L 291.835545 133.480192 
L 293.825035 127.826294 
L 298.301387 113.99125 
L 300.78825 105.558153 
L 305.761975 88.028478 
L 310.7357 71.322015 
L 315.709425 55.432903 
L 320.68315 40.345873 
L 325.159503 27.437453 
L 329.635855 15.146745 
L 334.112208 3.455752 
L 335.880265 -1 
L 335.880265 -1 
" clip-path="url(#p15e2c6a2e8)" style="fill: none; stroke: #ff7f0e; stroke-width: 1.5; stroke-linecap: square"/>
   </g>
   <g id="line2d_29">
    <path d="M 283.915263 -1 
L 285.867075 31.361153 
L 287.856565 60.687115 
L 289.846055 86.73668 
L 291.835545 109.875898 
L 293.825035 130.429923 
L 295.814525 148.687582 
L 297.804015 164.905432 
L 299.793505 179.311369 
L 301.782995 192.107824 
L 303.772485 203.474616 
L 305.761975 213.571471 
L 307.751465 222.54027 
L 309.740955 230.507044 
L 311.730445 237.583743 
L 313.719935 243.869809 
L 315.709425 249.453574 
L 317.698915 254.413501 
L 319.688405 258.819288 
L 321.677895 262.732846 
L 323.667385 266.209167 
L 325.656875 269.297102 
L 327.646365 272.040042 
L 330.133227 275.041871 
L 332.62009 277.630508 
L 335.106953 279.862828 
L 337.593815 281.787876 
L 340.080678 283.447948 
L 343.064912 285.141258 
L 346.049148 286.558875 
L 349.033383 287.745685 
L 352.51499 288.888366 
L 356.49397 289.934729 
L 360.970323 290.850464 
L 365.944048 291.61894 
L 371.415145 292.238802 
L 378.37836 292.785102 
L 386.833693 293.205681 
L 397.775888 293.513342 
L 413.691808 293.718448 
L 442.04204 293.824268 
L 450.497373 293.833761 
L 450.497373 293.833761 
" clip-path="url(#p15e2c6a2e8)" style="fill: none; stroke-dasharray: 5.55,2.4; stroke-dashoffset: 0; stroke: #1f77b4; stroke-width: 1.5"/>
   </g>
   <g id="line2d_30">
    <path d="M 263.342657 -1 
L 264.480057 21.134747 
L 265.972175 46.430226 
L 267.464292 67.788683 
L 268.95641 85.468282 
L 270.448528 99.776715 
L 271.940645 111.241621 
L 272.93539 117.673922 
L 273.930135 122.936578 
L 274.92488 127.251348 
L 275.919625 130.805219 
L 276.91437 133.717761 
L 277.909115 136.03001 
L 278.90386 137.746773 
L 279.898605 138.893008 
L 280.89335 139.525025 
L 281.888095 139.703032 
L 282.88284 139.473772 
L 283.877585 138.882088 
L 284.87233 137.972689 
L 285.867075 136.784494 
L 287.359193 134.556789 
L 288.85131 131.896636 
L 290.343428 128.84659 
L 292.332918 124.190701 
L 294.81978 117.627242 
L 297.306643 110.412733 
L 300.78825 99.455928 
L 303.772485 89.284451 
L 307.254093 76.543304 
L 312.227818 57.234509 
L 319.191033 30.325653 
L 324.164758 12.173759 
L 327.894823 -1 
L 327.894823 -1 
" clip-path="url(#p15e2c6a2e8)" style="fill: none; stroke-dasharray: 5.55,2.4; stroke-dashoffset: 0; stroke: #1f77b4; stroke-width: 1.5"/>
   </g>
   <g id="line2d_31">
    <path d="M 255.523376 -1 
L 257.01947 58.339429 
L 259.00896 128.13258 
L 260.99845 188.594843 
L 262.98794 240.778154 
L 264.97743 285.623322 
L 266.469547 315.148395 
L 268.319642 346.6 
M 351.272695 346.6 
L 354.50448 340.197799 
L 357.488715 334.717753 
L 360.47295 329.665136 
L 363.457185 325.046832 
L 366.44142 320.86647 
L 369.425655 317.121103 
L 371.912518 314.323874 
L 374.39938 311.810474 
L 376.886243 309.567523 
L 379.373105 307.577427 
L 382.35734 305.489034 
L 385.341575 303.688337 
L 387.828438 302.409596 
L 390.812673 301.111035 
L 394.29428 299.859514 
L 397.775888 298.838115 
L 401.754868 297.895397 
L 406.23122 297.059489 
L 411.702318 296.28263 
L 418.16816 295.616841 
L 425.628748 295.083658 
L 435.078825 294.643586 
L 447.513138 294.303505 
L 450.497373 294.247768 
L 450.497373 294.247768 
" clip-path="url(#p15e2c6a2e8)" style="fill: none; stroke: #000000; stroke-width: 1.5; stroke-linecap: square"/>
   </g>
   <g id="patch_9">
    <path d="M 251.051 299.608 
L 251.051 26.88 
" style="fill: none; stroke: #000000; stroke-width: 0.8; stroke-linejoin: miter; stroke-linecap: square"/>
   </g>
   <g id="patch_10">
    <path d="M 450 299.608 
L 450 26.88 
" style="fill: none; stroke: #000000; stroke-width: 0.8; stroke-linejoin: miter; stroke-linecap: square"/>
   </g>
   <g id="patch_11">
    <path d="M 251.051 299.608 
L 450 299.608 
" style="fill: none; stroke: #000000; stroke-width: 0.8; stroke-linejoin: miter; stroke-linecap: square"/>
   </g>
   <g id="patch_12">
    <path d="M 251.051 26.88 
L 450 26.88 
" style="fill: none; stroke: #000000; stroke-width: 0.8; stroke-linejoin: miter; stroke-linecap: square"/>
   </g>
   <g id="text_27">
    <!-- diabatic PECs -->
    <g transform="translate(309.937375 20.88) scale(0.12 -0.12)">
     <defs>
      <path id="DejaVuSans-50" d="M 1259 4147 
L 1259 2394 
L 2053 2394 
Q 2494 2394 2734 2622 
Q 2975 2850 2975 3272 
Q 2975 3691 2734 3919 
Q 2494 4147 2053 4147 
L 1259 4147 
z
M 628 4666 
L 2053 4666 
Q 2838 4666 3239 4311 
Q 3641 3956 3641 3272 
Q 3641 2581 3239 2228 
Q 2838 1875 2053 1875 
L 1259 1875 
L 1259 0 
L 628 0 
L 628 4666 
z
" transform="scale(0.015625)"/>
      <path id="DejaVuSans-45" d="M 628 4666 
L 3578 4666 
L 3578 4134 
L 1259 4134 
L 1259 2753 
L 3481 2753 
L 3481 2222 
L 1259 2222 
L 1259 531 
L 3634 531 
L 3634 0 
L 628 0 
L 628 4666 
z
" transform="scale(0.015625)"/>
      <path id="DejaVuSans-43" d="M 4122 4306 
L 4122 3641 
Q 3803 3938 3442 4084 
Q 3081 4231 2675 4231 
Q 1875 4231 1450 3742 
Q 1025 3253 1025 2328 
Q 1025 1406 1450 917 
Q 1875 428 2675 428 
Q 3081 428 3442 575 
Q 3803 722 4122 1019 
L 4122 359 
Q 3791 134 3420 21 
Q 3050 -91 2638 -91 
Q 1578 -91 968 557 
Q 359 1206 359 2328 
Q 359 3453 968 4101 
Q 1578 4750 2638 4750 
Q 3056 4750 3426 4639 
Q 3797 4528 4122 4306 
z
" transform="scale(0.015625)"/>
     </defs>
     <use xlink:href="#DejaVuSans-64"/>
     <use xlink:href="#DejaVuSans-69" x="63.476562"/>
     <use xlink:href="#DejaVuSans-61" x="91.259766"/>
     <use xlink:href="#DejaVuSans-62" x="152.539062"/>
     <use xlink:href="#DejaVuSans-61" x="216.015625"/>
     <use xlink:href="#DejaVuSans-74" x="277.294922"/>
     <use xlink:href="#DejaVuSans-69" x="316.503906"/>
     <use xlink:href="#DejaVuSans-63" x="344.287109"/>
     <use xlink:href="#DejaVuSans-20" x="399.267578"/>
     <use xlink:href="#DejaVuSans-50" x="431.054688"/>
     <use xlink:href="#DejaVuSans-45" x="491.357422"/>
     <use xlink:href="#DejaVuSans-43" x="554.541016"/>
     <use xlink:href="#DejaVuSans-73" x="624.365234"/>
    </g>
   </g>
   <g id="legend_2">
    <g id="patch_13">
     <path d="M 393.798531 88.014391 
L 444.169 88.014391 
Q 445.835 88.014391 445.835 86.348391 
L 445.835 32.711 
Q 445.835 31.045 444.169 31.045 
L 393.798531 31.045 
Q 392.132531 31.045 392.132531 32.711 
L 392.132531 86.348391 
Q 392.132531 88.014391 393.798531 88.014391 
z
" style="fill: #ffffff; opacity: 0.8; stroke: #cccccc; stroke-linejoin: miter"/>
    </g>
    <g id="line2d_32">
     <path d="M 395.464531 37.790998 
L 403.794531 37.790998 
L 412.124531 37.790998 
" style="fill: none; stroke: #ff7f0e; stroke-width: 1.5; stroke-linecap: square"/>
    </g>
    <g id="text_28">
     <!-- Bâ³Î£â‚â» -->
     <g transform="translate(418.788531 40.706498) scale(0.0833 -0.0833)">
      <use xlink:href="#DejaVuSans-42"/>
      <use xlink:href="#DejaVuSans-2073" x="68.603516"/>
      <use xlink:href="#DejaVuSans-3a3" x="128.613281"/>
      <use xlink:href="#DejaVuSans-2081" x="191.796875"/>
      <use xlink:href="#DejaVuSans-207b" x="231.884766"/>
     </g>
    </g>
    <g id="line2d_33">
     <path d="M 395.464531 48.351877 
L 403.794531 48.351877 
L 412.124531 48.351877 
" style="fill: none; stroke: #ff7f0e; stroke-width: 1.5; stroke-linecap: square"/>
    </g>
    <g id="text_29">
     <!-- Eâ³Î£â‚â» -->
     <g transform="translate(418.788531 51.267377) scale(0.0833 -0.0833)">
      <use xlink:href="#DejaVuSans-45"/>
      <use xlink:href="#DejaVuSans-2073" x="63.183594"/>
      <use xlink:href="#DejaVuSans-3a3" x="123.193359"/>
      <use xlink:href="#DejaVuSans-2081" x="186.376953"/>
      <use xlink:href="#DejaVuSans-207b" x="226.464844"/>
     </g>
    </g>
    <g id="line2d_34">
     <path d="M 395.464531 58.912755 
L 403.794531 58.912755 
L 412.124531 58.912755 
" style="fill: none; stroke-dasharray: 5.55,2.4; stroke-dashoffset: 0; stroke: #1f77b4; stroke-width: 1.5"/>
    </g>
    <g id="text_30">
     <!-- â³Î â‚ -->
     <g transform="translate(418.788531 61.828255) scale(0.0833 -0.0833)">
      <use xlink:href="#DejaVuSans-2073"/>
      <use xlink:href="#DejaVuSans-3a0" x="60.009766"/>
      <use xlink:href="#DejaVuSans-2081" x="135.205078"/>
     </g>
    </g>
    <g id="line2d_35">
     <path d="M 395.464531 69.473633 
L 403.794531 69.473633 
L 412.124531 69.473633 
" style="fill: none; stroke-dasharray: 5.55,2.4; stroke-dashoffset: 0; stroke: #1f77b4; stroke-width: 1.5"/>
    </g>
    <g id="text_31">
     <!-- â³Î â‚ -->
     <g transform="translate(418.788531 72.389133) scale(0.0833 -0.0833)">
      <use xlink:href="#DejaVuSans-2073"/>
      <use xlink:href="#DejaVuSans-3a0" x="60.009766"/>
      <use xlink:href="#DejaVuSans-2081" x="135.205078"/>
     </g>
    </g>
    <g id="line2d_36">
     <path d="M 395.464531 80.034511 
L 403.794531 80.034511 
L 412.124531 80.034511 
" style="fill: none; stroke: #000000; stroke-width: 1.5; stroke-linecap: square"/>
    </g>
    <g id="text_32">
     <!-- Xâ³Î£â‚â» -->
     <g transform="translate(418.788531 82.950011) scale(0.0833 -0.0833)">
      <defs>
       <path id="DejaVuSans-58" d="M 403 4666 
L 1081 4666 
L 2241 2931 
L 3406 4666 
L 4084 4666 
L 2584 2425 
L 4184 0 
L 3506 0 
L 2194 1984 
L 872 0 
L 191 0 
L 1856 2491 
L 403 4666 
z
" transform="scale(0.015625)"/>
      </defs>
      <use xlink:href="#DejaVuSans-58"/>
      <use xlink:href="#DejaVuSans-2073" x="68.505859"/>
      <use xlink:href="#DejaVuSans-3a3" x="128.515625"/>
      <use xlink:href="#DejaVuSans-2081" x="191.699219"/>
      <use xlink:href="#DejaVuSans-207b" x="231.787109"/>
     </g>
    </g>
   </g>
  </g>
 </g>
 <defs>
  <clipPath id="p6891bc2aa5">
   <rect x="48.602" y="26.88" width="198.949" height="272.728"/>
  </clipPath>
  <clipPath id="p15e2c6a2e8">
   <rect x="251.051" y="26.88" width="198.949" height="272.728"/>
  </clipPath>
 </defs>
</svg>
