<?xml version="1.0" encoding="utf-8" standalone="no"?>
<!DOCTYPE svg PUBLIC "-//W3C//DTD SVG 1.1//EN"
  "http://www.w3.org/Graphics/SVG/1.1/DTD/svg11.dtd">
<svg xmlns:xlink="http://www.w3.org/1999/xlink" width="460.8pt" height="345.6pt" viewBox="0 0 460.8 345.6" xmlns="http://www.w3.org/2000/svg" version="1.1">
 <metadata>
  <rdf:RDF xmlns:dc="http://purl.org/dc/elements/1.1/" xmlns:cc="http://creativecommons.org/ns#" xmlns:rdf="http://www.w3.org/1999/02/22-rdf-syntax-ns#">
   <cc:Work>
    <dc:type rdf:resource="http://purl.org/dc/dcmitype/StillImage"/>
    <dc:date>2022-11-25T09:25:03.769933</dc:date>
    <dc:format>image/svg+xml</dc:format>
    <dc:creator>
     <cc:Agent>
      <dc:title>Matplotlib v3.6.0, https://matplotlib.org/</dc:title>
     </cc:Agent>
    </dc:creator>
   </cc:Work>
  </rdf:RDF>
 </metadata>
 <defs>
  <style type="text/css">*{stroke-linejoin: round; stroke-linecap: butt}</style>
 </defs>
 <g id="figure_1">
  <g id="patch_1">
   <path d="M 0 345.6 
L 460.8 345.6 
L 460.8 0 
L 0 0 
z
" style="fill: #ffffff"/>
  </g>
  <g id="axes_1">
   <g id="patch_2">
    <path d="M 69.878 296.296 
L 245.1955 296.296 
L 245.1955 38.952 
L 69.878 38.952 
z
" style="fill: #ffffff"/>
   </g>
   <g id="matplotlib.axis_1">
    <g id="xtick_1">
     <g id="line2d_1">
      <defs>
       <path id="m1fae57a366" d="M 0 0 
L 0 3.5 
" style="stroke: #000000; stroke-width: 0.8"/>
      </defs>
      <g>
       <use xlink:href="#m1fae57a366" x="90.503588" y="296.296" style="stroke: #000000; stroke-width: 0.8"/>
      </g>
     </g>
     <g id="text_1">
      <!-- 1.0 -->
      <g transform="translate(82.552026 310.894437) scale(0.1 -0.1)">
       <defs>
        <path id="DejaVuSans-31" d="M 794 531 
L 1825 531 
L 1825 4091 
L 703 3866 
L 703 4441 
L 1819 4666 
L 2450 4666 
L 2450 531 
L 3481 531 
L 3481 0 
L 794 0 
L 794 531 
z
" transform="scale(0.015625)"/>
        <path id="DejaVuSans-2e" d="M 684 794 
L 1344 794 
L 1344 0 
L 684 0 
L 684 794 
z
" transform="scale(0.015625)"/>
        <path id="DejaVuSans-30" d="M 2034 4250 
Q 1547 4250 1301 3770 
Q 1056 3291 1056 2328 
Q 1056 1369 1301 889 
Q 1547 409 2034 409 
Q 2525 409 2770 889 
Q 3016 1369 3016 2328 
Q 3016 3291 2770 3770 
Q 2525 4250 2034 4250 
z
M 2034 4750 
Q 2819 4750 3233 4129 
Q 3647 3509 3647 2328 
Q 3647 1150 3233 529 
Q 2819 -91 2034 -91 
Q 1250 -91 836 529 
Q 422 1150 422 2328 
Q 422 3509 836 4129 
Q 1250 4750 2034 4750 
z
" transform="scale(0.015625)"/>
       </defs>
       <use xlink:href="#DejaVuSans-31"/>
       <use xlink:href="#DejaVuSans-2e" x="63.623047"/>
       <use xlink:href="#DejaVuSans-30" x="95.410156"/>
      </g>
     </g>
    </g>
    <g id="xtick_2">
     <g id="line2d_2">
      <g>
       <use xlink:href="#m1fae57a366" x="142.067559" y="296.296" style="stroke: #000000; stroke-width: 0.8"/>
      </g>
     </g>
     <g id="text_2">
      <!-- 1.5 -->
      <g transform="translate(134.115996 310.894437) scale(0.1 -0.1)">
       <defs>
        <path id="DejaVuSans-35" d="M 691 4666 
L 3169 4666 
L 3169 4134 
L 1269 4134 
L 1269 2991 
Q 1406 3038 1543 3061 
Q 1681 3084 1819 3084 
Q 2600 3084 3056 2656 
Q 3513 2228 3513 1497 
Q 3513 744 3044 326 
Q 2575 -91 1722 -91 
Q 1428 -91 1123 -41 
Q 819 9 494 109 
L 494 744 
Q 775 591 1075 516 
Q 1375 441 1709 441 
Q 2250 441 2565 725 
Q 2881 1009 2881 1497 
Q 2881 1984 2565 2268 
Q 2250 2553 1709 2553 
Q 1456 2553 1204 2497 
Q 953 2441 691 2322 
L 691 4666 
z
" transform="scale(0.015625)"/>
       </defs>
       <use xlink:href="#DejaVuSans-31"/>
       <use xlink:href="#DejaVuSans-2e" x="63.623047"/>
       <use xlink:href="#DejaVuSans-35" x="95.410156"/>
      </g>
     </g>
    </g>
    <g id="xtick_3">
     <g id="line2d_3">
      <g>
       <use xlink:href="#m1fae57a366" x="193.631529" y="296.296" style="stroke: #000000; stroke-width: 0.8"/>
      </g>
     </g>
     <g id="text_3">
      <!-- 2.0 -->
      <g transform="translate(185.679967 310.894437) scale(0.1 -0.1)">
       <defs>
        <path id="DejaVuSans-32" d="M 1228 531 
L 3431 531 
L 3431 0 
L 469 0 
L 469 531 
Q 828 903 1448 1529 
Q 2069 2156 2228 2338 
Q 2531 2678 2651 2914 
Q 2772 3150 2772 3378 
Q 2772 3750 2511 3984 
Q 2250 4219 1831 4219 
Q 1534 4219 1204 4116 
Q 875 4013 500 3803 
L 500 4441 
Q 881 4594 1212 4672 
Q 1544 4750 1819 4750 
Q 2544 4750 2975 4387 
Q 3406 4025 3406 3419 
Q 3406 3131 3298 2873 
Q 3191 2616 2906 2266 
Q 2828 2175 2409 1742 
Q 1991 1309 1228 531 
z
" transform="scale(0.015625)"/>
       </defs>
       <use xlink:href="#DejaVuSans-32"/>
       <use xlink:href="#DejaVuSans-2e" x="63.623047"/>
       <use xlink:href="#DejaVuSans-30" x="95.410156"/>
      </g>
     </g>
    </g>
    <g id="xtick_4">
     <g id="line2d_4">
      <g>
       <use xlink:href="#m1fae57a366" x="245.1955" y="296.296" style="stroke: #000000; stroke-width: 0.8"/>
      </g>
     </g>
     <g id="text_4">
      <!-- 2.5 -->
      <g transform="translate(237.243937 310.894437) scale(0.1 -0.1)">
       <use xlink:href="#DejaVuSans-32"/>
       <use xlink:href="#DejaVuSans-2e" x="63.623047"/>
       <use xlink:href="#DejaVuSans-35" x="95.410156"/>
      </g>
     </g>
    </g>
    <g id="text_5">
     <!-- internuclear distance ($\AA$) -->
     <g transform="translate(95.48675 325.594437) scale(0.1 -0.1)">
      <defs>
       <path id="DejaVuSans-69" d="M 603 3500 
L 1178 3500 
L 1178 0 
L 603 0 
L 603 3500 
z
M 603 4863 
L 1178 4863 
L 1178 4134 
L 603 4134 
L 603 4863 
z
" transform="scale(0.015625)"/>
       <path id="DejaVuSans-6e" d="M 3513 2113 
L 3513 0 
L 2938 0 
L 2938 2094 
Q 2938 2591 2744 2837 
Q 2550 3084 2163 3084 
Q 1697 3084 1428 2787 
Q 1159 2491 1159 1978 
L 1159 0 
L 581 0 
L 581 3500 
L 1159 3500 
L 1159 2956 
Q 1366 3272 1645 3428 
Q 1925 3584 2291 3584 
Q 2894 3584 3203 3211 
Q 3513 2838 3513 2113 
z
" transform="scale(0.015625)"/>
       <path id="DejaVuSans-74" d="M 1172 4494 
L 1172 3500 
L 2356 3500 
L 2356 3053 
L 1172 3053 
L 1172 1153 
Q 1172 725 1289 603 
Q 1406 481 1766 481 
L 2356 481 
L 2356 0 
L 1766 0 
Q 1100 0 847 248 
Q 594 497 594 1153 
L 594 3053 
L 172 3053 
L 172 3500 
L 594 3500 
L 594 4494 
L 1172 4494 
z
" transform="scale(0.015625)"/>
       <path id="DejaVuSans-65" d="M 3597 1894 
L 3597 1613 
L 953 1613 
Q 991 1019 1311 708 
Q 1631 397 2203 397 
Q 2534 397 2845 478 
Q 3156 559 3463 722 
L 3463 178 
Q 3153 47 2828 -22 
Q 2503 -91 2169 -91 
Q 1331 -91 842 396 
Q 353 884 353 1716 
Q 353 2575 817 3079 
Q 1281 3584 2069 3584 
Q 2775 3584 3186 3129 
Q 3597 2675 3597 1894 
z
M 3022 2063 
Q 3016 2534 2758 2815 
Q 2500 3097 2075 3097 
Q 1594 3097 1305 2825 
Q 1016 2553 972 2059 
L 3022 2063 
z
" transform="scale(0.015625)"/>
       <path id="DejaVuSans-72" d="M 2631 2963 
Q 2534 3019 2420 3045 
Q 2306 3072 2169 3072 
Q 1681 3072 1420 2755 
Q 1159 2438 1159 1844 
L 1159 0 
L 581 0 
L 581 3500 
L 1159 3500 
L 1159 2956 
Q 1341 3275 1631 3429 
Q 1922 3584 2338 3584 
Q 2397 3584 2469 3576 
Q 2541 3569 2628 3553 
L 2631 2963 
z
" transform="scale(0.015625)"/>
       <path id="DejaVuSans-75" d="M 544 1381 
L 544 3500 
L 1119 3500 
L 1119 1403 
Q 1119 906 1312 657 
Q 1506 409 1894 409 
Q 2359 409 2629 706 
Q 2900 1003 2900 1516 
L 2900 3500 
L 3475 3500 
L 3475 0 
L 2900 0 
L 2900 538 
Q 2691 219 2414 64 
Q 2138 -91 1772 -91 
Q 1169 -91 856 284 
Q 544 659 544 1381 
z
M 1991 3584 
L 1991 3584 
z
" transform="scale(0.015625)"/>
       <path id="DejaVuSans-63" d="M 3122 3366 
L 3122 2828 
Q 2878 2963 2633 3030 
Q 2388 3097 2138 3097 
Q 1578 3097 1268 2742 
Q 959 2388 959 1747 
Q 959 1106 1268 751 
Q 1578 397 2138 397 
Q 2388 397 2633 464 
Q 2878 531 3122 666 
L 3122 134 
Q 2881 22 2623 -34 
Q 2366 -91 2075 -91 
Q 1284 -91 818 406 
Q 353 903 353 1747 
Q 353 2603 823 3093 
Q 1294 3584 2113 3584 
Q 2378 3584 2631 3529 
Q 2884 3475 3122 3366 
z
" transform="scale(0.015625)"/>
       <path id="DejaVuSans-6c" d="M 603 4863 
L 1178 4863 
L 1178 0 
L 603 0 
L 603 4863 
z
" transform="scale(0.015625)"/>
       <path id="DejaVuSans-61" d="M 2194 1759 
Q 1497 1759 1228 1600 
Q 959 1441 959 1056 
Q 959 750 1161 570 
Q 1363 391 1709 391 
Q 2188 391 2477 730 
Q 2766 1069 2766 1631 
L 2766 1759 
L 2194 1759 
z
M 3341 1997 
L 3341 0 
L 2766 0 
L 2766 531 
Q 2569 213 2275 61 
Q 1981 -91 1556 -91 
Q 1019 -91 701 211 
Q 384 513 384 1019 
Q 384 1609 779 1909 
Q 1175 2209 1959 2209 
L 2766 2209 
L 2766 2266 
Q 2766 2663 2505 2880 
Q 2244 3097 1772 3097 
Q 1472 3097 1187 3025 
Q 903 2953 641 2809 
L 641 3341 
Q 956 3463 1253 3523 
Q 1550 3584 1831 3584 
Q 2591 3584 2966 3190 
Q 3341 2797 3341 1997 
z
" transform="scale(0.015625)"/>
       <path id="DejaVuSans-20" transform="scale(0.015625)"/>
       <path id="DejaVuSans-64" d="M 2906 2969 
L 2906 4863 
L 3481 4863 
L 3481 0 
L 2906 0 
L 2906 525 
Q 2725 213 2448 61 
Q 2172 -91 1784 -91 
Q 1150 -91 751 415 
Q 353 922 353 1747 
Q 353 2572 751 3078 
Q 1150 3584 1784 3584 
Q 2172 3584 2448 3432 
Q 2725 3281 2906 2969 
z
M 947 1747 
Q 947 1113 1208 752 
Q 1469 391 1925 391 
Q 2381 391 2643 752 
Q 2906 1113 2906 1747 
Q 2906 2381 2643 2742 
Q 2381 3103 1925 3103 
Q 1469 3103 1208 2742 
Q 947 2381 947 1747 
z
" transform="scale(0.015625)"/>
       <path id="DejaVuSans-73" d="M 2834 3397 
L 2834 2853 
Q 2591 2978 2328 3040 
Q 2066 3103 1784 3103 
Q 1356 3103 1142 2972 
Q 928 2841 928 2578 
Q 928 2378 1081 2264 
Q 1234 2150 1697 2047 
L 1894 2003 
Q 2506 1872 2764 1633 
Q 3022 1394 3022 966 
Q 3022 478 2636 193 
Q 2250 -91 1575 -91 
Q 1294 -91 989 -36 
Q 684 19 347 128 
L 347 722 
Q 666 556 975 473 
Q 1284 391 1588 391 
Q 1994 391 2212 530 
Q 2431 669 2431 922 
Q 2431 1156 2273 1281 
Q 2116 1406 1581 1522 
L 1381 1569 
Q 847 1681 609 1914 
Q 372 2147 372 2553 
Q 372 3047 722 3315 
Q 1072 3584 1716 3584 
Q 2034 3584 2315 3537 
Q 2597 3491 2834 3397 
z
" transform="scale(0.015625)"/>
       <path id="DejaVuSans-28" d="M 1984 4856 
Q 1566 4138 1362 3434 
Q 1159 2731 1159 2009 
Q 1159 1288 1364 580 
Q 1569 -128 1984 -844 
L 1484 -844 
Q 1016 -109 783 600 
Q 550 1309 550 2009 
Q 550 2706 781 3412 
Q 1013 4119 1484 4856 
L 1984 4856 
z
" transform="scale(0.015625)"/>
       <path id="DejaVuSans-Oblique-c5" d="M 3188 5081 
Q 3188 5278 3048 5417 
Q 2909 5556 2713 5556 
Q 2513 5556 2377 5420 
Q 2241 5284 2241 5081 
Q 2241 4884 2377 4746 
Q 2513 4609 2713 4609 
Q 2909 4609 3048 4746 
Q 3188 4884 3188 5081 
z
M 2203 4397 
Q 2034 4513 1945 4689 
Q 1856 4866 1856 5081 
Q 1856 5438 2106 5689 
Q 2356 5941 2713 5941 
Q 3069 5941 3320 5689 
Q 3572 5438 3572 5081 
Q 3572 4834 3458 4643 
Q 3344 4453 3128 4341 
L 3938 0 
L 3278 0 
L 3084 1197 
L 984 1197 
L 325 0 
L -341 0 
L 2203 4397 
z
M 2584 4044 
L 1275 1722 
L 2988 1722 
L 2584 4044 
z
" transform="scale(0.015625)"/>
       <path id="DejaVuSans-29" d="M 513 4856 
L 1013 4856 
Q 1481 4119 1714 3412 
Q 1947 2706 1947 2009 
Q 1947 1309 1714 600 
Q 1481 -109 1013 -844 
L 513 -844 
Q 928 -128 1133 580 
Q 1338 1288 1338 2009 
Q 1338 2731 1133 3434 
Q 928 4138 513 4856 
z
" transform="scale(0.015625)"/>
      </defs>
      <use xlink:href="#DejaVuSans-69" transform="translate(0 0.171875)"/>
      <use xlink:href="#DejaVuSans-6e" transform="translate(27.783203 0.171875)"/>
      <use xlink:href="#DejaVuSans-74" transform="translate(91.162109 0.171875)"/>
      <use xlink:href="#DejaVuSans-65" transform="translate(130.371094 0.171875)"/>
      <use xlink:href="#DejaVuSans-72" transform="translate(191.894531 0.171875)"/>
      <use xlink:href="#DejaVuSans-6e" transform="translate(233.007812 0.171875)"/>
      <use xlink:href="#DejaVuSans-75" transform="translate(296.386719 0.171875)"/>
      <use xlink:href="#DejaVuSans-63" transform="translate(359.765625 0.171875)"/>
      <use xlink:href="#DejaVuSans-6c" transform="translate(414.746094 0.171875)"/>
      <use xlink:href="#DejaVuSans-65" transform="translate(442.529297 0.171875)"/>
      <use xlink:href="#DejaVuSans-61" transform="translate(504.052734 0.171875)"/>
      <use xlink:href="#DejaVuSans-72" transform="translate(565.332031 0.171875)"/>
      <use xlink:href="#DejaVuSans-20" transform="translate(606.445312 0.171875)"/>
      <use xlink:href="#DejaVuSans-64" transform="translate(638.232422 0.171875)"/>
      <use xlink:href="#DejaVuSans-69" transform="translate(701.708984 0.171875)"/>
      <use xlink:href="#DejaVuSans-73" transform="translate(729.492188 0.171875)"/>
      <use xlink:href="#DejaVuSans-74" transform="translate(781.591797 0.171875)"/>
      <use xlink:href="#DejaVuSans-61" transform="translate(820.800781 0.171875)"/>
      <use xlink:href="#DejaVuSans-6e" transform="translate(882.080078 0.171875)"/>
      <use xlink:href="#DejaVuSans-63" transform="translate(945.458984 0.171875)"/>
      <use xlink:href="#DejaVuSans-65" transform="translate(1000.439453 0.171875)"/>
      <use xlink:href="#DejaVuSans-20" transform="translate(1061.962891 0.171875)"/>
      <use xlink:href="#DejaVuSans-28" transform="translate(1093.75 0.171875)"/>
      <use xlink:href="#DejaVuSans-Oblique-c5" transform="translate(1132.763672 0.171875)"/>
      <use xlink:href="#DejaVuSans-29" transform="translate(1201.171875 0.171875)"/>
     </g>
    </g>
   </g>
   <g id="matplotlib.axis_2">
    <g id="ytick_1">
     <g id="line2d_5">
      <defs>
       <path id="m8f6aa01d55" d="M 0 0 
L -3.5 0 
" style="stroke: #000000; stroke-width: 0.8"/>
      </defs>
      <g>
       <use xlink:href="#m8f6aa01d55" x="69.878" y="280.981222" style="stroke: #000000; stroke-width: 0.8"/>
      </g>
     </g>
     <g id="text_6">
      <!-- 50000 -->
      <g transform="translate(31.0655 284.78044) scale(0.1 -0.1)">
       <use xlink:href="#DejaVuSans-35"/>
       <use xlink:href="#DejaVuSans-30" x="63.623047"/>
       <use xlink:href="#DejaVuSans-30" x="127.246094"/>
       <use xlink:href="#DejaVuSans-30" x="190.869141"/>
       <use xlink:href="#DejaVuSans-30" x="254.492188"/>
      </g>
     </g>
    </g>
    <g id="ytick_2">
     <g id="line2d_6">
      <g>
       <use xlink:href="#m8f6aa01d55" x="69.878" y="224.121034" style="stroke: #000000; stroke-width: 0.8"/>
      </g>
     </g>
     <g id="text_7">
      <!-- 60000 -->
      <g transform="translate(31.0655 227.920253) scale(0.1 -0.1)">
       <defs>
        <path id="DejaVuSans-36" d="M 2113 2584 
Q 1688 2584 1439 2293 
Q 1191 2003 1191 1497 
Q 1191 994 1439 701 
Q 1688 409 2113 409 
Q 2538 409 2786 701 
Q 3034 994 3034 1497 
Q 3034 2003 2786 2293 
Q 2538 2584 2113 2584 
z
M 3366 4563 
L 3366 3988 
Q 3128 4100 2886 4159 
Q 2644 4219 2406 4219 
Q 1781 4219 1451 3797 
Q 1122 3375 1075 2522 
Q 1259 2794 1537 2939 
Q 1816 3084 2150 3084 
Q 2853 3084 3261 2657 
Q 3669 2231 3669 1497 
Q 3669 778 3244 343 
Q 2819 -91 2113 -91 
Q 1303 -91 875 529 
Q 447 1150 447 2328 
Q 447 3434 972 4092 
Q 1497 4750 2381 4750 
Q 2619 4750 2861 4703 
Q 3103 4656 3366 4563 
z
" transform="scale(0.015625)"/>
       </defs>
       <use xlink:href="#DejaVuSans-36"/>
       <use xlink:href="#DejaVuSans-30" x="63.623047"/>
       <use xlink:href="#DejaVuSans-30" x="127.246094"/>
       <use xlink:href="#DejaVuSans-30" x="190.869141"/>
       <use xlink:href="#DejaVuSans-30" x="254.492188"/>
      </g>
     </g>
    </g>
    <g id="ytick_3">
     <g id="line2d_7">
      <g>
       <use xlink:href="#m8f6aa01d55" x="69.878" y="167.260847" style="stroke: #000000; stroke-width: 0.8"/>
      </g>
     </g>
     <g id="text_8">
      <!-- 70000 -->
      <g transform="translate(31.0655 171.060066) scale(0.1 -0.1)">
       <defs>
        <path id="DejaVuSans-37" d="M 525 4666 
L 3525 4666 
L 3525 4397 
L 1831 0 
L 1172 0 
L 2766 4134 
L 525 4134 
L 525 4666 
z
" transform="scale(0.015625)"/>
       </defs>
       <use xlink:href="#DejaVuSans-37"/>
       <use xlink:href="#DejaVuSans-30" x="63.623047"/>
       <use xlink:href="#DejaVuSans-30" x="127.246094"/>
       <use xlink:href="#DejaVuSans-30" x="190.869141"/>
       <use xlink:href="#DejaVuSans-30" x="254.492188"/>
      </g>
     </g>
    </g>
    <g id="ytick_4">
     <g id="line2d_8">
      <g>
       <use xlink:href="#m8f6aa01d55" x="69.878" y="110.400659" style="stroke: #000000; stroke-width: 0.8"/>
      </g>
     </g>
     <g id="text_9">
      <!-- 80000 -->
      <g transform="translate(31.0655 114.199878) scale(0.1 -0.1)">
       <defs>
        <path id="DejaVuSans-38" d="M 2034 2216 
Q 1584 2216 1326 1975 
Q 1069 1734 1069 1313 
Q 1069 891 1326 650 
Q 1584 409 2034 409 
Q 2484 409 2743 651 
Q 3003 894 3003 1313 
Q 3003 1734 2745 1975 
Q 2488 2216 2034 2216 
z
M 1403 2484 
Q 997 2584 770 2862 
Q 544 3141 544 3541 
Q 544 4100 942 4425 
Q 1341 4750 2034 4750 
Q 2731 4750 3128 4425 
Q 3525 4100 3525 3541 
Q 3525 3141 3298 2862 
Q 3072 2584 2669 2484 
Q 3125 2378 3379 2068 
Q 3634 1759 3634 1313 
Q 3634 634 3220 271 
Q 2806 -91 2034 -91 
Q 1263 -91 848 271 
Q 434 634 434 1313 
Q 434 1759 690 2068 
Q 947 2378 1403 2484 
z
M 1172 3481 
Q 1172 3119 1398 2916 
Q 1625 2713 2034 2713 
Q 2441 2713 2670 2916 
Q 2900 3119 2900 3481 
Q 2900 3844 2670 4047 
Q 2441 4250 2034 4250 
Q 1625 4250 1398 4047 
Q 1172 3844 1172 3481 
z
" transform="scale(0.015625)"/>
       </defs>
       <use xlink:href="#DejaVuSans-38"/>
       <use xlink:href="#DejaVuSans-30" x="63.623047"/>
       <use xlink:href="#DejaVuSans-30" x="127.246094"/>
       <use xlink:href="#DejaVuSans-30" x="190.869141"/>
       <use xlink:href="#DejaVuSans-30" x="254.492188"/>
      </g>
     </g>
    </g>
    <g id="ytick_5">
     <g id="line2d_9">
      <g>
       <use xlink:href="#m8f6aa01d55" x="69.878" y="53.540472" style="stroke: #000000; stroke-width: 0.8"/>
      </g>
     </g>
     <g id="text_10">
      <!-- 90000 -->
      <g transform="translate(31.0655 57.339691) scale(0.1 -0.1)">
       <defs>
        <path id="DejaVuSans-39" d="M 703 97 
L 703 672 
Q 941 559 1184 500 
Q 1428 441 1663 441 
Q 2288 441 2617 861 
Q 2947 1281 2994 2138 
Q 2813 1869 2534 1725 
Q 2256 1581 1919 1581 
Q 1219 1581 811 2004 
Q 403 2428 403 3163 
Q 403 3881 828 4315 
Q 1253 4750 1959 4750 
Q 2769 4750 3195 4129 
Q 3622 3509 3622 2328 
Q 3622 1225 3098 567 
Q 2575 -91 1691 -91 
Q 1453 -91 1209 -44 
Q 966 3 703 97 
z
M 1959 2075 
Q 2384 2075 2632 2365 
Q 2881 2656 2881 3163 
Q 2881 3666 2632 3958 
Q 2384 4250 1959 4250 
Q 1534 4250 1286 3958 
Q 1038 3666 1038 3163 
Q 1038 2656 1286 2365 
Q 1534 2075 1959 2075 
z
" transform="scale(0.015625)"/>
       </defs>
       <use xlink:href="#DejaVuSans-39"/>
       <use xlink:href="#DejaVuSans-30" x="63.623047"/>
       <use xlink:href="#DejaVuSans-30" x="127.246094"/>
       <use xlink:href="#DejaVuSans-30" x="190.869141"/>
       <use xlink:href="#DejaVuSans-30" x="254.492188"/>
      </g>
     </g>
    </g>
    <g id="text_11">
     <!-- potential energy above $X_{v=0, J=0}$ (cm$^{-1}$) -->
     <g transform="translate(23.9655 267.474) rotate(-90) scale(0.1 -0.1)">
      <defs>
       <path id="DejaVuSans-70" d="M 1159 525 
L 1159 -1331 
L 581 -1331 
L 581 3500 
L 1159 3500 
L 1159 2969 
Q 1341 3281 1617 3432 
Q 1894 3584 2278 3584 
Q 2916 3584 3314 3078 
Q 3713 2572 3713 1747 
Q 3713 922 3314 415 
Q 2916 -91 2278 -91 
Q 1894 -91 1617 61 
Q 1341 213 1159 525 
z
M 3116 1747 
Q 3116 2381 2855 2742 
Q 2594 3103 2138 3103 
Q 1681 3103 1420 2742 
Q 1159 2381 1159 1747 
Q 1159 1113 1420 752 
Q 1681 391 2138 391 
Q 2594 391 2855 752 
Q 3116 1113 3116 1747 
z
" transform="scale(0.015625)"/>
       <path id="DejaVuSans-6f" d="M 1959 3097 
Q 1497 3097 1228 2736 
Q 959 2375 959 1747 
Q 959 1119 1226 758 
Q 1494 397 1959 397 
Q 2419 397 2687 759 
Q 2956 1122 2956 1747 
Q 2956 2369 2687 2733 
Q 2419 3097 1959 3097 
z
M 1959 3584 
Q 2709 3584 3137 3096 
Q 3566 2609 3566 1747 
Q 3566 888 3137 398 
Q 2709 -91 1959 -91 
Q 1206 -91 779 398 
Q 353 888 353 1747 
Q 353 2609 779 3096 
Q 1206 3584 1959 3584 
z
" transform="scale(0.015625)"/>
       <path id="DejaVuSans-67" d="M 2906 1791 
Q 2906 2416 2648 2759 
Q 2391 3103 1925 3103 
Q 1463 3103 1205 2759 
Q 947 2416 947 1791 
Q 947 1169 1205 825 
Q 1463 481 1925 481 
Q 2391 481 2648 825 
Q 2906 1169 2906 1791 
z
M 3481 434 
Q 3481 -459 3084 -895 
Q 2688 -1331 1869 -1331 
Q 1566 -1331 1297 -1286 
Q 1028 -1241 775 -1147 
L 775 -588 
Q 1028 -725 1275 -790 
Q 1522 -856 1778 -856 
Q 2344 -856 2625 -561 
Q 2906 -266 2906 331 
L 2906 616 
Q 2728 306 2450 153 
Q 2172 0 1784 0 
Q 1141 0 747 490 
Q 353 981 353 1791 
Q 353 2603 747 3093 
Q 1141 3584 1784 3584 
Q 2172 3584 2450 3431 
Q 2728 3278 2906 2969 
L 2906 3500 
L 3481 3500 
L 3481 434 
z
" transform="scale(0.015625)"/>
       <path id="DejaVuSans-79" d="M 2059 -325 
Q 1816 -950 1584 -1140 
Q 1353 -1331 966 -1331 
L 506 -1331 
L 506 -850 
L 844 -850 
Q 1081 -850 1212 -737 
Q 1344 -625 1503 -206 
L 1606 56 
L 191 3500 
L 800 3500 
L 1894 763 
L 2988 3500 
L 3597 3500 
L 2059 -325 
z
" transform="scale(0.015625)"/>
       <path id="DejaVuSans-62" d="M 3116 1747 
Q 3116 2381 2855 2742 
Q 2594 3103 2138 3103 
Q 1681 3103 1420 2742 
Q 1159 2381 1159 1747 
Q 1159 1113 1420 752 
Q 1681 391 2138 391 
Q 2594 391 2855 752 
Q 3116 1113 3116 1747 
z
M 1159 2969 
Q 1341 3281 1617 3432 
Q 1894 3584 2278 3584 
Q 2916 3584 3314 3078 
Q 3713 2572 3713 1747 
Q 3713 922 3314 415 
Q 2916 -91 2278 -91 
Q 1894 -91 1617 61 
Q 1341 213 1159 525 
L 1159 0 
L 581 0 
L 581 4863 
L 1159 4863 
L 1159 2969 
z
" transform="scale(0.015625)"/>
       <path id="DejaVuSans-76" d="M 191 3500 
L 800 3500 
L 1894 563 
L 2988 3500 
L 3597 3500 
L 2284 0 
L 1503 0 
L 191 3500 
z
" transform="scale(0.015625)"/>
       <path id="DejaVuSans-Oblique-58" d="M 878 4666 
L 1516 4666 
L 2316 2981 
L 3763 4666 
L 4500 4666 
L 2578 2438 
L 3738 0 
L 3103 0 
L 2163 1966 
L 459 0 
L -275 0 
L 1906 2509 
L 878 4666 
z
" transform="scale(0.015625)"/>
       <path id="DejaVuSans-Oblique-76" d="M 459 3500 
L 1069 3500 
L 1581 525 
L 3256 3500 
L 3866 3500 
L 1875 0 
L 1100 0 
L 459 3500 
z
" transform="scale(0.015625)"/>
       <path id="DejaVuSans-3d" d="M 678 2906 
L 4684 2906 
L 4684 2381 
L 678 2381 
L 678 2906 
z
M 678 1631 
L 4684 1631 
L 4684 1100 
L 678 1100 
L 678 1631 
z
" transform="scale(0.015625)"/>
       <path id="DejaVuSans-2c" d="M 750 794 
L 1409 794 
L 1409 256 
L 897 -744 
L 494 -744 
L 750 256 
L 750 794 
z
" transform="scale(0.015625)"/>
       <path id="DejaVuSans-Oblique-4a" d="M 1069 4666 
L 1703 4666 
L 856 325 
Q 691 -522 298 -901 
Q -94 -1281 -800 -1281 
L -1050 -1281 
L -947 -750 
L -750 -750 
Q -328 -750 -109 -509 
Q 109 -269 225 325 
L 1069 4666 
z
" transform="scale(0.015625)"/>
       <path id="DejaVuSans-6d" d="M 3328 2828 
Q 3544 3216 3844 3400 
Q 4144 3584 4550 3584 
Q 5097 3584 5394 3201 
Q 5691 2819 5691 2113 
L 5691 0 
L 5113 0 
L 5113 2094 
Q 5113 2597 4934 2840 
Q 4756 3084 4391 3084 
Q 3944 3084 3684 2787 
Q 3425 2491 3425 1978 
L 3425 0 
L 2847 0 
L 2847 2094 
Q 2847 2600 2669 2842 
Q 2491 3084 2119 3084 
Q 1678 3084 1418 2786 
Q 1159 2488 1159 1978 
L 1159 0 
L 581 0 
L 581 3500 
L 1159 3500 
L 1159 2956 
Q 1356 3278 1631 3431 
Q 1906 3584 2284 3584 
Q 2666 3584 2933 3390 
Q 3200 3197 3328 2828 
z
" transform="scale(0.015625)"/>
       <path id="DejaVuSans-2212" d="M 678 2272 
L 4684 2272 
L 4684 1741 
L 678 1741 
L 678 2272 
z
" transform="scale(0.015625)"/>
      </defs>
      <use xlink:href="#DejaVuSans-70" transform="translate(0 0.684375)"/>
      <use xlink:href="#DejaVuSans-6f" transform="translate(63.476562 0.684375)"/>
      <use xlink:href="#DejaVuSans-74" transform="translate(124.658203 0.684375)"/>
      <use xlink:href="#DejaVuSans-65" transform="translate(163.867188 0.684375)"/>
      <use xlink:href="#DejaVuSans-6e" transform="translate(225.390625 0.684375)"/>
      <use xlink:href="#DejaVuSans-74" transform="translate(288.769531 0.684375)"/>
      <use xlink:href="#DejaVuSans-69" transform="translate(327.978516 0.684375)"/>
      <use xlink:href="#DejaVuSans-61" transform="translate(355.761719 0.684375)"/>
      <use xlink:href="#DejaVuSans-6c" transform="translate(417.041016 0.684375)"/>
      <use xlink:href="#DejaVuSans-20" transform="translate(444.824219 0.684375)"/>
      <use xlink:href="#DejaVuSans-65" transform="translate(476.611328 0.684375)"/>
      <use xlink:href="#DejaVuSans-6e" transform="translate(538.134766 0.684375)"/>
      <use xlink:href="#DejaVuSans-65" transform="translate(601.513672 0.684375)"/>
      <use xlink:href="#DejaVuSans-72" transform="translate(663.037109 0.684375)"/>
      <use xlink:href="#DejaVuSans-67" transform="translate(704.150391 0.684375)"/>
      <use xlink:href="#DejaVuSans-79" transform="translate(767.626953 0.684375)"/>
      <use xlink:href="#DejaVuSans-20" transform="translate(826.806641 0.684375)"/>
      <use xlink:href="#DejaVuSans-61" transform="translate(858.59375 0.684375)"/>
      <use xlink:href="#DejaVuSans-62" transform="translate(919.873047 0.684375)"/>
      <use xlink:href="#DejaVuSans-6f" transform="translate(983.349609 0.684375)"/>
      <use xlink:href="#DejaVuSans-76" transform="translate(1044.53125 0.684375)"/>
      <use xlink:href="#DejaVuSans-65" transform="translate(1103.710938 0.684375)"/>
      <use xlink:href="#DejaVuSans-20" transform="translate(1165.234375 0.684375)"/>
      <use xlink:href="#DejaVuSans-Oblique-58" transform="translate(1197.021484 0.684375)"/>
      <use xlink:href="#DejaVuSans-Oblique-76" transform="translate(1265.527344 -15.721875) scale(0.7)"/>
      <use xlink:href="#DejaVuSans-3d" transform="translate(1320.59082 -15.721875) scale(0.7)"/>
      <use xlink:href="#DejaVuSans-30" transform="translate(1392.880859 -15.721875) scale(0.7)"/>
      <use xlink:href="#DejaVuSans-2c" transform="translate(1437.416992 -15.721875) scale(0.7)"/>
      <use xlink:href="#DejaVuSans-Oblique-4a" transform="translate(1473.305664 -15.721875) scale(0.7)"/>
      <use xlink:href="#DejaVuSans-3d" transform="translate(1507.587891 -15.721875) scale(0.7)"/>
      <use xlink:href="#DejaVuSans-30" transform="translate(1579.87793 -15.721875) scale(0.7)"/>
      <use xlink:href="#DejaVuSans-20" transform="translate(1627.148438 0.684375)"/>
      <use xlink:href="#DejaVuSans-28" transform="translate(1658.935547 0.684375)"/>
      <use xlink:href="#DejaVuSans-63" transform="translate(1697.949219 0.684375)"/>
      <use xlink:href="#DejaVuSans-6d" transform="translate(1752.929688 0.684375)"/>
      <use xlink:href="#DejaVuSans-2212" transform="translate(1851.298828 38.965625) scale(0.7)"/>
      <use xlink:href="#DejaVuSans-31" transform="translate(1909.951172 38.965625) scale(0.7)"/>
      <use xlink:href="#DejaVuSans-29" transform="translate(1957.22168 0.684375)"/>
     </g>
    </g>
   </g>
   <g id="line2d_10">
    <path d="M 99.998892 -1 
L 101.847662 31.150615 
L 103.910221 63.279816 
L 105.972779 91.87429 
L 108.035338 117.282751 
L 110.097897 139.821039 
L 112.160456 159.775154 
L 114.223015 177.404011 
L 116.285574 192.941949 
L 118.348132 206.601005 
L 120.410691 218.57298 
L 122.47325 229.031323 
L 124.535809 238.183621 
L 127.114007 247.904193 
L 129.176566 254.310958 
L 130.723485 258.531786 
L 132.786044 263.475738 
L 134.848603 267.711206 
L 136.395522 270.452809 
L 137.942441 272.847473 
L 139.48936 274.914397 
L 141.036279 276.675313 
L 142.583199 278.150786 
L 144.130118 279.363387 
L 145.677037 280.33355 
L 147.223956 281.079615 
L 148.770875 281.618496 
L 150.317794 281.966169 
L 152.380353 282.158324 
L 154.442912 282.071895 
L 156.505471 281.739345 
L 158.568029 281.191693 
L 161.146228 280.248236 
L 163.724426 279.06477 
L 166.818265 277.39125 
L 170.427743 275.173021 
L 175.0685 272.044275 
L 193.631529 259.205019 
L 198.787926 256.104558 
L 203.428684 253.573203 
L 207.553801 251.581185 
L 212.194559 249.585328 
L 216.835316 247.832801 
L 221.476074 246.331205 
L 226.632471 244.915095 
L 232.304507 243.605785 
L 237.976544 242.517116 
L 244.164221 241.544253 
L 245.71114 241.330699 
L 245.71114 241.330699 
" clip-path="url(#pe0b1168424)" style="fill: none; stroke-dasharray: 5.55,2.4; stroke-dashoffset: 0; stroke: #1f77b4; stroke-width: 1.5"/>
   </g>
   <g id="line2d_11">
    <path d="M 81.164452 -1 
L 82.768993 20.434915 
L 84.831551 44.834348 
L 86.378471 60.916922 
L 87.92539 75.186557 
L 89.472309 87.723226 
L 91.019228 98.607702 
L 92.566147 107.921138 
L 94.113066 115.744683 
L 95.659985 122.159117 
L 96.691265 125.69215 
L 97.722544 128.658009 
L 98.753824 131.079943 
L 99.785103 132.980927 
L 100.816382 134.383629 
L 101.847662 135.310381 
L 102.878941 135.78315 
L 103.910221 135.823512 
L 104.9415 135.452629 
L 105.972779 134.691229 
L 107.004059 133.559588 
L 108.035338 132.077511 
L 109.066618 130.26432 
L 110.613537 126.964738 
L 112.160456 123.02378 
L 113.707375 118.500214 
L 115.769934 111.659098 
L 117.832493 104.007224 
L 120.410691 93.479784 
L 123.504529 79.709763 
L 127.114007 62.483476 
L 131.754765 39.175481 
L 136.395522 15.280971 
L 136.911162 22.234521 
L 141.551919 5.204609 
L 143.299488 -1 
L 143.299488 -1 
" clip-path="url(#pe0b1168424)" style="fill: none; stroke-dasharray: 5.55,2.4; stroke-dashoffset: 0; stroke: #ff7f0e; stroke-width: 1.5"/>
   </g>
   <g id="line2d_12">
    <path d="M 99.754244 -1 
L 99.785103 -0.421076 
L 100.300743 8.981119 
L 100.816382 18.118879 
L 101.332022 26.998916 
L 101.847662 35.62778 
L 102.363301 44.011859 
L 102.878941 52.157389 
L 103.394581 60.070451 
L 103.910221 67.75698 
L 104.42586 75.222766 
L 104.9415 82.473455 
L 105.45714 89.51456 
L 105.972779 96.351454 
L 106.488419 102.989383 
L 107.004059 109.433463 
L 107.519699 115.688684 
L 108.035338 121.759915 
L 108.550978 127.651907 
L 109.066618 133.36929 
L 109.582257 138.916587 
L 110.097897 144.298204 
L 110.613537 149.518442 
L 111.129176 154.581496 
L 111.644816 159.491458 
L 112.160456 164.252319 
L 112.676096 168.86797 
L 113.191735 173.34221 
L 113.707375 177.678741 
L 114.223015 181.881176 
L 114.738654 185.953037 
L 115.254294 189.89776 
L 115.769934 193.718696 
L 116.285574 197.419114 
L 116.801213 201.0022 
L 117.316853 204.471063 
L 117.832493 207.828734 
L 118.348132 211.078169 
L 118.863772 214.222251 
L 119.379412 217.263792 
L 119.895051 220.205532 
L 120.410691 223.050145 
L 120.926331 225.800237 
" clip-path="url(#pe0b1168424)" style="fill: none; stroke: #2ca02c; stroke-width: 1.5; stroke-linecap: square"/>
   </g>
   <g id="line2d_13">
    <path d="M 80.849413 -1 
L 81.222074 4.296051 
L 81.737713 11.39424 
L 82.253353 18.265335 
L 82.768993 24.912079 
L 83.284632 31.337251 
L 83.800272 37.543656 
L 84.315912 43.534124 
L 84.831551 49.311512 
L 85.347191 54.878699 
L 85.862831 60.238585 
L 86.378471 65.394087 
L 86.89411 70.348141 
L 87.40975 75.103698 
L 87.92539 79.663721 
L 88.441029 84.031186 
L 88.956669 88.209078 
L 89.472309 92.200391 
L 89.987949 96.008123 
L 90.503588 99.635279 
L 91.019228 103.084867 
L 91.534868 106.359894 
L 92.050507 109.46337 
L 92.566147 112.398302 
L 93.081787 115.167694 
L 93.597426 117.774545 
L 94.113066 120.221847 
L 94.628706 122.512588 
L 95.144346 124.649744 
L 95.659985 126.636282 
L 96.175625 128.475158 
L 96.691265 130.169314 
L 97.206904 131.721681 
L 97.722544 133.135173 
L 98.238184 134.412688 
L 98.753824 135.557107 
L 99.269463 136.571293 
L 99.785103 137.458091 
L 100.300743 138.220323 
L 100.816382 138.860793 
L 101.332022 139.382282 
L 101.847662 139.787546 
L 102.363301 140.07932 
L 102.878941 140.260315 
L 103.394581 140.333214 
L 103.910221 140.300676 
L 104.42586 140.165335 
L 104.9415 139.929793 
L 105.45714 139.59663 
L 105.972779 139.168394 
L 106.488419 138.647604 
L 107.004059 138.036753 
L 107.519699 137.338299 
L 108.035338 136.554676 
L 108.550978 135.688281 
L 109.066618 134.741485 
L 109.582257 133.716624 
L 110.097897 132.616005 
L 110.613537 131.441902 
L 111.129176 130.196557 
L 111.644816 128.882179 
L 112.160456 127.500944 
L 112.676096 126.054997 
L 113.191735 124.546449 
L 113.707375 122.977378 
L 114.223015 121.349829 
L 114.738654 119.665813 
L 115.254294 117.927309 
L 115.769934 116.136262 
L 116.285574 114.294585 
L 116.801213 112.404155 
L 117.316853 110.466819 
L 117.832493 108.484389 
L 118.348132 106.458643 
L 118.863772 104.391329 
L 119.379412 102.284161 
L 119.895051 100.138817 
L 120.410691 97.956948 
L 120.926331 95.740169 
L 121.441971 93.490062 
L 121.95761 91.208181 
L 122.47325 88.896045 
L 122.98889 86.555141 
L 123.504529 84.186927 
L 124.020169 81.792828 
L 124.535809 79.37424 
L 125.051449 76.932526 
L 125.567088 74.46902 
L 126.082728 71.985026 
L 126.598368 69.481818 
L 127.114007 66.960641 
L 127.629647 64.42271 
L 128.145287 61.869212 
L 128.660926 59.301306 
L 129.176566 56.720121 
L 129.692206 54.12676 
L 130.207846 51.522298 
L 130.723485 48.907781 
L 131.239125 46.284232 
L 131.754765 43.652645 
L 132.270404 41.013988 
L 132.786044 38.369204 
L 133.301684 35.719211 
L 133.817324 33.0649 
L 134.332963 30.407141 
L 134.848603 27.746777 
L 135.364243 25.084627 
L 135.879882 22.421489 
L 136.395522 19.758136 
" clip-path="url(#pe0b1168424)" style="fill: none; stroke: #d62728; stroke-width: 1.5; stroke-linecap: square"/>
   </g>
   <g id="patch_3">
    <path d="M 69.878 296.296 
L 69.878 38.952 
" style="fill: none; stroke: #000000; stroke-width: 0.8; stroke-linejoin: miter; stroke-linecap: square"/>
   </g>
   <g id="patch_4">
    <path d="M 245.1955 296.296 
L 245.1955 38.952 
" style="fill: none; stroke: #000000; stroke-width: 0.8; stroke-linejoin: miter; stroke-linecap: square"/>
   </g>
   <g id="patch_5">
    <path d="M 69.878 296.296 
L 245.1955 296.296 
" style="fill: none; stroke: #000000; stroke-width: 0.8; stroke-linejoin: miter; stroke-linecap: square"/>
   </g>
   <g id="patch_6">
    <path d="M 69.878 38.952 
L 245.1955 38.952 
" style="fill: none; stroke: #000000; stroke-width: 0.8; stroke-linejoin: miter; stroke-linecap: square"/>
   </g>
   <g id="legend_1">
    <g id="patch_7">
     <path d="M 158.147 72.1054 
L 239.3645 72.1054 
Q 241.0305 72.1054 241.0305 70.4394 
L 241.0305 44.783 
Q 241.0305 43.117 239.3645 43.117 
L 158.147 43.117 
Q 156.481 43.117 156.481 44.783 
L 156.481 70.4394 
Q 156.481 72.1054 158.147 72.1054 
z
" style="fill: #ffffff; opacity: 0.8; stroke: #cccccc; stroke-linejoin: miter"/>
    </g>
    <g id="line2d_14">
     <path d="M 159.813 51.1138 
L 168.143 51.1138 
L 176.473 51.1138 
" style="fill: none; stroke-dasharray: 5.55,2.4; stroke-dashoffset: 0; stroke: #1f77b4; stroke-width: 1.5"/>
    </g>
    <g id="text_12">
     <!-- valence $^3\Sigma^-_1$ -->
     <g transform="translate(183.137 54.0293) scale(0.0833 -0.0833)">
      <defs>
       <path id="DejaVuSans-33" d="M 2597 2516 
Q 3050 2419 3304 2112 
Q 3559 1806 3559 1356 
Q 3559 666 3084 287 
Q 2609 -91 1734 -91 
Q 1441 -91 1130 -33 
Q 819 25 488 141 
L 488 750 
Q 750 597 1062 519 
Q 1375 441 1716 441 
Q 2309 441 2620 675 
Q 2931 909 2931 1356 
Q 2931 1769 2642 2001 
Q 2353 2234 1838 2234 
L 1294 2234 
L 1294 2753 
L 1863 2753 
Q 2328 2753 2575 2939 
Q 2822 3125 2822 3475 
Q 2822 3834 2567 4026 
Q 2313 4219 1838 4219 
Q 1578 4219 1281 4162 
Q 984 4106 628 3988 
L 628 4550 
Q 988 4650 1302 4700 
Q 1616 4750 1894 4750 
Q 2613 4750 3031 4423 
Q 3450 4097 3450 3541 
Q 3450 3153 3228 2886 
Q 3006 2619 2597 2516 
z
" transform="scale(0.015625)"/>
       <path id="DejaVuSans-3a3" d="M 1353 531 
L 3634 531 
L 3634 0 
L 628 0 
L 628 531 
L 2125 2481 
L 628 4134 
L 628 4666 
L 3578 4666 
L 3578 4134 
L 1353 4134 
L 2850 2494 
L 1353 531 
z
" transform="scale(0.015625)"/>
      </defs>
      <use xlink:href="#DejaVuSans-76" transform="translate(0 0.765625)"/>
      <use xlink:href="#DejaVuSans-61" transform="translate(59.179688 0.765625)"/>
      <use xlink:href="#DejaVuSans-6c" transform="translate(120.458984 0.765625)"/>
      <use xlink:href="#DejaVuSans-65" transform="translate(148.242188 0.765625)"/>
      <use xlink:href="#DejaVuSans-6e" transform="translate(209.765625 0.765625)"/>
      <use xlink:href="#DejaVuSans-63" transform="translate(273.144531 0.765625)"/>
      <use xlink:href="#DejaVuSans-65" transform="translate(328.125 0.765625)"/>
      <use xlink:href="#DejaVuSans-20" transform="translate(389.648438 0.765625)"/>
      <use xlink:href="#DejaVuSans-33" transform="translate(422.392578 39.046875) scale(0.7)"/>
      <use xlink:href="#DejaVuSans-3a3" transform="translate(469.663086 0.765625)"/>
      <use xlink:href="#DejaVuSans-2212" transform="translate(547.441406 39.046875) scale(0.7)"/>
      <use xlink:href="#DejaVuSans-31" transform="translate(533.803711 -26.578125) scale(0.7)"/>
     </g>
    </g>
    <g id="line2d_15">
     <path d="M 159.813 63.5255 
L 168.143 63.5255 
L 176.473 63.5255 
" style="fill: none; stroke-dasharray: 5.55,2.4; stroke-dashoffset: 0; stroke: #ff7f0e; stroke-width: 1.5"/>
    </g>
    <g id="text_13">
     <!-- Rygberg $^3\Sigma^-_1$ -->
     <g transform="translate(183.137 66.441) scale(0.0833 -0.0833)">
      <defs>
       <path id="DejaVuSans-52" d="M 2841 2188 
Q 3044 2119 3236 1894 
Q 3428 1669 3622 1275 
L 4263 0 
L 3584 0 
L 2988 1197 
Q 2756 1666 2539 1819 
Q 2322 1972 1947 1972 
L 1259 1972 
L 1259 0 
L 628 0 
L 628 4666 
L 2053 4666 
Q 2853 4666 3247 4331 
Q 3641 3997 3641 3322 
Q 3641 2881 3436 2590 
Q 3231 2300 2841 2188 
z
M 1259 4147 
L 1259 2491 
L 2053 2491 
Q 2509 2491 2742 2702 
Q 2975 2913 2975 3322 
Q 2975 3731 2742 3939 
Q 2509 4147 2053 4147 
L 1259 4147 
z
" transform="scale(0.015625)"/>
      </defs>
      <use xlink:href="#DejaVuSans-52" transform="translate(0 0.765625)"/>
      <use xlink:href="#DejaVuSans-79" transform="translate(69.482422 0.765625)"/>
      <use xlink:href="#DejaVuSans-67" transform="translate(128.662109 0.765625)"/>
      <use xlink:href="#DejaVuSans-62" transform="translate(192.138672 0.765625)"/>
      <use xlink:href="#DejaVuSans-65" transform="translate(255.615234 0.765625)"/>
      <use xlink:href="#DejaVuSans-72" transform="translate(317.138672 0.765625)"/>
      <use xlink:href="#DejaVuSans-67" transform="translate(358.251953 0.765625)"/>
      <use xlink:href="#DejaVuSans-20" transform="translate(421.728516 0.765625)"/>
      <use xlink:href="#DejaVuSans-33" transform="translate(454.472656 39.046875) scale(0.7)"/>
      <use xlink:href="#DejaVuSans-3a3" transform="translate(501.743164 0.765625)"/>
      <use xlink:href="#DejaVuSans-2212" transform="translate(579.521484 39.046875) scale(0.7)"/>
      <use xlink:href="#DejaVuSans-31" transform="translate(565.883789 -26.578125) scale(0.7)"/>
     </g>
    </g>
   </g>
  </g>
  <g id="axes_2">
   <g id="patch_8">
    <path d="M 253.0705 296.296 
L 428.388 296.296 
L 428.388 38.952 
L 253.0705 38.952 
z
" style="fill: #ffffff"/>
   </g>
   <g id="matplotlib.axis_3">
    <g id="xtick_5">
     <g id="line2d_16">
      <g>
       <use xlink:href="#m1fae57a366" x="276.960483" y="296.296" style="stroke: #000000; stroke-width: 0.8"/>
      </g>
     </g>
     <g id="text_14">
      <!-- $\mathdefault{10^{-23}}$ -->
      <g transform="translate(263.010483 310.894437) scale(0.1 -0.1)">
       <use xlink:href="#DejaVuSans-31" transform="translate(0 0.765625)"/>
       <use xlink:href="#DejaVuSans-30" transform="translate(63.623047 0.765625)"/>
       <use xlink:href="#DejaVuSans-2212" transform="translate(128.203125 39.046875) scale(0.7)"/>
       <use xlink:href="#DejaVuSans-32" transform="translate(186.855469 39.046875) scale(0.7)"/>
       <use xlink:href="#DejaVuSans-33" transform="translate(231.391602 39.046875) scale(0.7)"/>
      </g>
     </g>
    </g>
    <g id="xtick_6">
     <g id="line2d_17">
      <g>
       <use xlink:href="#m1fae57a366" x="315.097683" y="296.296" style="stroke: #000000; stroke-width: 0.8"/>
      </g>
     </g>
     <g id="text_15">
      <!-- $\mathdefault{10^{-21}}$ -->
      <g transform="translate(301.147683 310.894437) scale(0.1 -0.1)">
       <use xlink:href="#DejaVuSans-31" transform="translate(0 0.765625)"/>
       <use xlink:href="#DejaVuSans-30" transform="translate(63.623047 0.765625)"/>
       <use xlink:href="#DejaVuSans-2212" transform="translate(128.203125 39.046875) scale(0.7)"/>
       <use xlink:href="#DejaVuSans-32" transform="translate(186.855469 39.046875) scale(0.7)"/>
       <use xlink:href="#DejaVuSans-31" transform="translate(231.391602 39.046875) scale(0.7)"/>
      </g>
     </g>
    </g>
    <g id="xtick_7">
     <g id="line2d_18">
      <g>
       <use xlink:href="#m1fae57a366" x="353.234883" y="296.296" style="stroke: #000000; stroke-width: 0.8"/>
      </g>
     </g>
     <g id="text_16">
      <!-- $\mathdefault{10^{-19}}$ -->
      <g transform="translate(339.284883 310.894437) scale(0.1 -0.1)">
       <use xlink:href="#DejaVuSans-31" transform="translate(0 0.765625)"/>
       <use xlink:href="#DejaVuSans-30" transform="translate(63.623047 0.765625)"/>
       <use xlink:href="#DejaVuSans-2212" transform="translate(128.203125 39.046875) scale(0.7)"/>
       <use xlink:href="#DejaVuSans-31" transform="translate(186.855469 39.046875) scale(0.7)"/>
       <use xlink:href="#DejaVuSans-39" transform="translate(231.391602 39.046875) scale(0.7)"/>
      </g>
     </g>
    </g>
    <g id="xtick_8">
     <g id="line2d_19">
      <g>
       <use xlink:href="#m1fae57a366" x="391.372083" y="296.296" style="stroke: #000000; stroke-width: 0.8"/>
      </g>
     </g>
     <g id="text_17">
      <!-- $\mathdefault{10^{-17}}$ -->
      <g transform="translate(377.422083 310.894437) scale(0.1 -0.1)">
       <use xlink:href="#DejaVuSans-31" transform="translate(0 0.684375)"/>
       <use xlink:href="#DejaVuSans-30" transform="translate(63.623047 0.684375)"/>
       <use xlink:href="#DejaVuSans-2212" transform="translate(128.203125 38.965625) scale(0.7)"/>
       <use xlink:href="#DejaVuSans-31" transform="translate(186.855469 38.965625) scale(0.7)"/>
       <use xlink:href="#DejaVuSans-37" transform="translate(231.391602 38.965625) scale(0.7)"/>
      </g>
     </g>
    </g>
    <g id="text_18">
     <!-- cross section (cm$^2$) -->
     <g transform="translate(292.52925 325.394437) scale(0.1 -0.1)">
      <use xlink:href="#DejaVuSans-63" transform="translate(0 0.765625)"/>
      <use xlink:href="#DejaVuSans-72" transform="translate(54.980469 0.765625)"/>
      <use xlink:href="#DejaVuSans-6f" transform="translate(96.09375 0.765625)"/>
      <use xlink:href="#DejaVuSans-73" transform="translate(157.275391 0.765625)"/>
      <use xlink:href="#DejaVuSans-73" transform="translate(209.375 0.765625)"/>
      <use xlink:href="#DejaVuSans-20" transform="translate(261.474609 0.765625)"/>
      <use xlink:href="#DejaVuSans-73" transform="translate(293.261719 0.765625)"/>
      <use xlink:href="#DejaVuSans-65" transform="translate(345.361328 0.765625)"/>
      <use xlink:href="#DejaVuSans-63" transform="translate(406.884766 0.765625)"/>
      <use xlink:href="#DejaVuSans-74" transform="translate(461.865234 0.765625)"/>
      <use xlink:href="#DejaVuSans-69" transform="translate(501.074219 0.765625)"/>
      <use xlink:href="#DejaVuSans-6f" transform="translate(528.857422 0.765625)"/>
      <use xlink:href="#DejaVuSans-6e" transform="translate(590.039062 0.765625)"/>
      <use xlink:href="#DejaVuSans-20" transform="translate(653.417969 0.765625)"/>
      <use xlink:href="#DejaVuSans-28" transform="translate(685.205078 0.765625)"/>
      <use xlink:href="#DejaVuSans-63" transform="translate(724.21875 0.765625)"/>
      <use xlink:href="#DejaVuSans-6d" transform="translate(779.199219 0.765625)"/>
      <use xlink:href="#DejaVuSans-32" transform="translate(877.568359 39.046875) scale(0.7)"/>
      <use xlink:href="#DejaVuSans-29" transform="translate(924.838867 0.765625)"/>
     </g>
    </g>
   </g>
   <g id="matplotlib.axis_4">
    <g id="ytick_6">
     <g id="line2d_20">
      <defs>
       <path id="mdf159feecf" d="M 0 0 
L 3.5 0 
" style="stroke: #000000; stroke-width: 0.8"/>
      </defs>
      <g>
       <use xlink:href="#mdf159feecf" x="428.388" y="280.981222" style="stroke: #000000; stroke-width: 0.8"/>
      </g>
     </g>
    </g>
    <g id="ytick_7">
     <g id="line2d_21">
      <g>
       <use xlink:href="#mdf159feecf" x="428.388" y="224.121034" style="stroke: #000000; stroke-width: 0.8"/>
      </g>
     </g>
    </g>
    <g id="ytick_8">
     <g id="line2d_22">
      <g>
       <use xlink:href="#mdf159feecf" x="428.388" y="167.260847" style="stroke: #000000; stroke-width: 0.8"/>
      </g>
     </g>
    </g>
    <g id="ytick_9">
     <g id="line2d_23">
      <g>
       <use xlink:href="#mdf159feecf" x="428.388" y="110.400659" style="stroke: #000000; stroke-width: 0.8"/>
      </g>
     </g>
    </g>
    <g id="ytick_10">
     <g id="line2d_24">
      <g>
       <use xlink:href="#mdf159feecf" x="428.388" y="53.540472" style="stroke: #000000; stroke-width: 0.8"/>
      </g>
     </g>
    </g>
    <g id="text_19">
     <!-- wavenumber (cm$^{-1}$) -->
     <g transform="translate(444.208312 218.824) rotate(-90) scale(0.1 -0.1)">
      <defs>
       <path id="DejaVuSans-77" d="M 269 3500 
L 844 3500 
L 1563 769 
L 2278 3500 
L 2956 3500 
L 3675 769 
L 4391 3500 
L 4966 3500 
L 4050 0 
L 3372 0 
L 2619 2869 
L 1863 0 
L 1184 0 
L 269 3500 
z
" transform="scale(0.015625)"/>
      </defs>
      <use xlink:href="#DejaVuSans-77" transform="translate(0 0.684375)"/>
      <use xlink:href="#DejaVuSans-61" transform="translate(81.787109 0.684375)"/>
      <use xlink:href="#DejaVuSans-76" transform="translate(143.066406 0.684375)"/>
      <use xlink:href="#DejaVuSans-65" transform="translate(202.246094 0.684375)"/>
      <use xlink:href="#DejaVuSans-6e" transform="translate(263.769531 0.684375)"/>
      <use xlink:href="#DejaVuSans-75" transform="translate(327.148438 0.684375)"/>
      <use xlink:href="#DejaVuSans-6d" transform="translate(390.527344 0.684375)"/>
      <use xlink:href="#DejaVuSans-62" transform="translate(487.939453 0.684375)"/>
      <use xlink:href="#DejaVuSans-65" transform="translate(551.416016 0.684375)"/>
      <use xlink:href="#DejaVuSans-72" transform="translate(612.939453 0.684375)"/>
      <use xlink:href="#DejaVuSans-20" transform="translate(654.052734 0.684375)"/>
      <use xlink:href="#DejaVuSans-28" transform="translate(685.839844 0.684375)"/>
      <use xlink:href="#DejaVuSans-63" transform="translate(724.853516 0.684375)"/>
      <use xlink:href="#DejaVuSans-6d" transform="translate(779.833984 0.684375)"/>
      <use xlink:href="#DejaVuSans-2212" transform="translate(878.203125 38.965625) scale(0.7)"/>
      <use xlink:href="#DejaVuSans-31" transform="translate(936.855469 38.965625) scale(0.7)"/>
      <use xlink:href="#DejaVuSans-29" transform="translate(984.125977 0.684375)"/>
     </g>
    </g>
   </g>
   <g id="line2d_25">
    <path d="M 366.774049 239.435813 
L 368.944934 237.179519 
L 372.494419 233.154896 
L 375.314197 229.625799 
L 378.215514 225.615567 
L 380.609143 221.923539 
L 382.784968 218.150367 
L 384.744917 214.293348 
L 386.502178 210.349653 
L 388.067932 206.316329 
L 389.444758 202.190285 
L 390.692451 197.73085 
L 391.682646 193.403889 
L 392.480295 188.973837 
L 393.042354 184.691882 
L 393.422854 180.050537 
L 393.582966 175.561889 
L 393.540733 170.967405 
L 393.303536 166.822541 
L 392.825719 162.589613 
L 392.155378 158.847653 
L 391.408807 155.921558 
L 390.583614 153.550172 
L 389.746259 151.753523 
L 388.81582 150.244294 
L 387.82807 149.028957 
L 386.484701 147.80648 
L 385.106956 146.8849 
L 383.210043 145.959243 
L 381.502378 145.339859 
L 379.253976 144.718642 
L 376.190853 144.095585 
L 371.814837 143.470679 
L 365.03103 142.843916 
L 359.88445 142.529836 
L 352.190508 142.215288 
L 323.840054 141.584786 
L 347.437328 141.26883 
L 356.466051 140.952402 
L 365.790019 140.318127 
L 370.776742 139.681954 
L 373.749265 139.043872 
L 375.530667 138.403875 
L 376.51793 137.761953 
L 376.929092 137.118097 
L 376.888131 136.472299 
L 376.461711 135.82455 
L 375.676726 135.174841 
L 374.527323 134.523163 
L 372.974364 133.869508 
L 370.937466 133.213865 
L 368.274781 132.556227 
L 364.734294 131.896584 
L 359.822386 131.234927 
L 352.351364 130.571246 
L 346.644787 130.238644 
L 337.782983 129.905532 
L 317.429576 129.57191 
L 323.014094 129.237777 
L 339.400797 128.90313 
L 347.336187 128.56797 
L 356.364538 127.896102 
L 361.722118 127.222163 
L 365.301841 126.546145 
L 367.784802 125.868036 
L 369.495546 125.187829 
L 370.612555 124.505512 
L 371.240367 123.821076 
L 371.439252 123.134512 
L 371.237919 122.445808 
L 370.637078 121.754956 
L 369.606087 121.061945 
L 368.07149 120.366764 
L 365.891305 119.669405 
L 362.794855 118.969856 
L 358.215571 118.268107 
L 354.987981 117.916404 
L 350.670094 117.564148 
L 344.370119 117.211336 
L 333.217637 116.857968 
L 261.039477 116.504042 
L 334.443314 116.149557 
L 346.206962 115.794511 
L 358.346044 115.082733 
L 365.677174 114.368698 
L 370.987555 113.652394 
L 376.950463 112.57366 
L 381.541441 111.489761 
L 392.630249 108.573826 
L 394.777227 108.206697 
L 397.601825 107.838978 
L 401.701581 107.470666 
L 408.549474 107.10176 
L 420.419023 106.73226 
L 408.621027 106.362163 
L 380.97027 105.620175 
L 368.219107 105.24828 
L 333.480345 104.502682 
L 354.242402 104.128976 
L 361.144724 103.754663 
L 364.87363 103.379743 
L 367.211046 103.004212 
L 368.775388 102.628071 
L 370.590767 101.873948 
L 371.076299 101.495964 
L 371.370514 101.117363 
L 371.496032 100.738144 
L 371.479801 100.358304 
L 371.3301 99.977843 
L 370.635292 99.215049 
L 369.353423 98.44975 
L 367.281552 97.681933 
L 363.918711 96.911587 
L 361.39598 96.525461 
L 357.847019 96.138698 
L 352.388862 95.751296 
L 342.068811 95.363254 
L 288.145279 94.97457 
L 346.49068 94.585243 
L 359.604687 94.19527 
L 375.462796 93.413383 
L 387.560191 92.628897 
L 392.518556 92.235674 
L 395.622755 91.841797 
L 395.947546 91.447264 
L 394.104754 91.052072 
L 382.568684 89.464691 
L 372.858794 88.267164 
L 364.290638 87.465458 
L 358.529785 87.063593 
L 350.659226 86.661052 
L 337.345552 86.257833 
L 301.61703 85.853934 
L 339.221636 85.449353 
L 348.985642 85.044089 
L 354.530102 84.63814 
L 360.978641 83.824179 
L 364.688134 83.007456 
L 367.074957 82.187958 
L 368.714291 81.36567 
L 369.914045 80.540578 
L 372.504788 78.465486 
L 373.390618 78.048333 
L 374.865283 77.630466 
L 378.12498 77.21188 
L 393.079936 76.792576 
L 344.529544 76.372551 
L 356.936554 75.951802 
L 362.22066 75.530329 
L 364.029722 75.108129 
L 364.832191 74.685201 
L 365.197183 74.261542 
L 365.301812 73.837151 
L 365.244848 73.412025 
L 364.755419 72.559564 
L 363.840508 71.704143 
L 362.45004 70.845746 
L 360.384509 69.984359 
L 358.967142 69.552539 
L 357.152576 69.119965 
L 354.742961 68.686635 
L 351.358744 68.252548 
L 346.099553 67.817702 
L 336.046172 67.382094 
L 336.046172 67.382094 
" clip-path="url(#p67cce3320f)" style="fill: none; stroke: #1f77b4; stroke-width: 1.5; stroke-linecap: square"/>
   </g>
   <g id="line2d_26">
    <path d="M 362.107068 239.435813 
L 362.529512 239.248974 
L 361.865079 239.061921 
L 362.099008 238.874654 
L 363.148075 238.687171 
L 363.051323 238.499472 
L 363.357596 238.311558 
L 363.002913 238.123428 
L 363.526985 237.935081 
L 363.700962 237.557736 
L 364.122815 237.368737 
L 364.053631 237.179519 
L 364.734122 236.990084 
L 364.477836 236.800429 
L 364.528072 236.610555 
L 365.158147 236.230148 
L 365.382195 235.84886 
L 366.046424 235.657884 
L 365.679847 235.466687 
L 366.786942 235.083626 
L 366.998408 234.891761 
L 366.516506 234.699674 
L 366.658855 234.507363 
L 367.679551 233.929085 
L 368.180061 233.348782 
L 368.674518 232.960783 
L 368.761495 232.766443 
L 369.495889 232.182057 
L 369.481708 231.986805 
L 370.266185 231.399672 
L 370.16151 231.203502 
L 370.286812 231.0071 
L 370.602419 230.810468 
L 370.571486 230.613604 
L 371.090569 230.02162 
L 371.053478 229.823826 
L 371.631032 229.625799 
L 372.034231 229.030311 
L 373.843668 228.831346 
L 372.810292 228.632144 
L 372.56963 228.432707 
L 373.805902 228.233034 
L 373.757964 228.033123 
L 374.564615 227.832975 
L 373.329088 227.63259 
L 373.663427 227.431966 
L 374.854692 227.030003 
L 374.854388 226.828662 
L 373.906277 226.627082 
L 374.668211 226.425261 
L 374.62415 226.2232 
L 375.55489 225.818353 
L 375.247493 225.615567 
L 375.430368 225.412539 
L 375.282243 225.209268 
L 375.673323 225.005753 
L 375.683241 224.801995 
L 376.247414 224.393745 
L 375.694301 224.189253 
L 376.418715 223.984515 
L 376.084674 223.779532 
L 376.50303 223.574302 
L 376.497193 223.368825 
L 376.84757 223.163101 
L 376.717867 222.957129 
L 377.142367 222.750909 
L 377.13992 222.337723 
L 377.906215 221.923539 
L 377.595834 221.716072 
L 378.081298 221.300384 
L 377.890286 221.092162 
L 378.359941 220.883689 
L 378.823399 220.047262 
L 379.171801 219.837521 
L 379.122368 219.627524 
L 379.244436 219.206764 
L 379.91103 218.784978 
L 380.06044 218.362162 
L 379.927637 218.150367 
L 380.310978 217.938314 
L 380.27633 217.726001 
L 380.678502 217.087502 
L 380.963069 216.874148 
L 380.967637 216.232512 
L 381.12967 216.018108 
L 381.512813 215.803441 
L 381.562045 215.588509 
L 381.431992 215.373313 
L 381.908949 215.157852 
L 381.898375 214.942125 
L 382.222652 214.726133 
L 382.242951 214.509874 
L 382.130218 214.293348 
L 382.590134 213.859492 
L 382.537573 213.424563 
L 382.933217 213.206695 
L 382.983608 212.988556 
L 382.838751 212.770147 
L 383.369381 212.551468 
L 383.249323 212.332516 
L 383.906059 211.893797 
L 383.717949 211.674028 
L 383.74079 211.453986 
L 384.15306 211.233669 
L 384.065774 211.013078 
L 384.259906 210.571071 
L 384.136926 210.349653 
L 384.603003 209.905987 
L 384.443915 209.683738 
L 385.034562 209.238405 
L 384.724254 209.01532 
L 385.2132 208.56831 
L 385.25378 208.344385 
L 385.544381 207.895689 
L 385.612428 207.445863 
L 385.748712 206.994903 
L 386.019728 206.768997 
L 385.936653 206.542806 
L 386.432809 206.089566 
L 386.580948 205.407555 
L 386.893718 204.95144 
L 386.76644 204.722949 
L 387.316279 202.884533 
L 387.739151 202.653412 
L 387.851723 201.958277 
L 388.135148 201.725973 
L 388.203178 201.493372 
L 388.102016 201.260472 
L 388.500019 200.559982 
L 388.605708 200.325885 
L 388.564106 200.091488 
L 388.986219 199.386487 
L 388.891006 199.150881 
L 389.166811 198.914972 
L 389.160681 198.44224 
L 389.412738 198.205416 
L 389.488801 197.968287 
L 389.354059 197.73085 
L 389.638749 197.493107 
L 389.542478 197.255056 
L 390.251499 195.098647 
L 390.417659 194.857485 
L 390.305696 194.616009 
L 390.576942 194.374217 
L 390.426492 194.13211 
L 390.670587 193.646947 
L 390.757086 193.160513 
L 391.024784 191.93884 
L 391.045399 191.693542 
L 391.522018 191.201978 
L 391.404152 190.709119 
L 391.526246 189.96739 
L 391.554729 189.719494 
L 391.823791 189.222718 
L 391.616549 188.973837 
L 392.133934 187.975009 
L 392.139899 187.724473 
L 391.966297 187.473604 
L 391.962674 187.222402 
L 392.365285 186.970865 
L 392.415522 186.466786 
L 392.30239 185.961362 
L 392.933281 185.708144 
L 393.216376 185.454587 
L 392.638318 184.946457 
L 392.695122 184.691882 
L 392.920583 184.436965 
L 393.169316 182.900266 
L 393.011509 182.642943 
L 393.377841 181.091703 
L 393.320835 180.83194 
L 393.472395 180.571824 
L 393.6329 177.687152 
L 394.000885 177.158013 
L 393.849878 176.361588 
L 394.052513 176.095387 
L 393.951542 175.561889 
L 393.955908 175.294591 
L 394.078356 175.026926 
L 393.972319 173.683072 
L 393.901964 173.41319 
L 394.11798 172.872308 
L 394.097447 171.513548 
L 394.165339 170.967405 
L 394.050655 170.419746 
L 394.194368 170.145346 
L 394.162975 169.595399 
L 394.196193 169.319851 
L 394.103939 169.043919 
L 394.223999 168.4909 
L 394.093811 168.213811 
L 394.136624 167.936335 
L 394.019855 167.658471 
L 394.120001 166.543117 
L 394.125051 166.2633 
L 393.819306 165.702486 
L 393.944322 165.140094 
L 394.024245 164.858304 
L 393.773081 164.576116 
L 393.855709 164.293531 
L 393.626279 164.010547 
L 393.911782 163.727163 
L 393.581054 161.732213 
L 393.346908 161.4456 
L 393.372965 160.871153 
L 393.41468 160.295069 
L 393.187428 159.717341 
L 393.116019 159.137963 
L 392.755605 158.847653 
L 392.944385 158.556927 
L 392.87008 157.974226 
L 392.584412 157.389853 
L 392.510472 156.803801 
L 392.266192 156.510143 
L 392.219749 155.921558 
L 391.85627 155.331276 
L 391.601097 154.442654 
L 391.711205 154.14559 
L 391.092687 153.251815 
L 390.517071 152.653803 
L 390.444268 152.354146 
L 390.524927 152.054052 
L 390.243834 151.753523 
L 389.785629 151.452556 
L 389.324855 150.849306 
L 388.63214 150.244294 
L 388.144202 149.941126 
L 386.091957 149.333458 
L 385.721362 149.028957 
L 384.991584 148.724009 
L 381.388892 148.112772 
L 380.539346 147.80648 
L 378.871123 147.499738 
L 369.828795 146.8849 
L 367.914123 146.576802 
L 362.171608 146.26825 
L 352.858222 145.959243 
L 358.865271 145.649779 
L 358.487979 145.339859 
L 363.09424 145.02948 
L 357.554499 144.718642 
L 368.789594 144.095585 
L 373.762965 143.157531 
L 374.627528 142.843916 
L 375.839081 142.215288 
L 377.577325 141.900272 
L 376.870454 141.584786 
L 375.61057 141.26883 
L 376.778439 140.952402 
L 376.638862 140.635501 
L 375.799377 140.318127 
L 375.961164 139.681954 
L 374.401096 138.724114 
L 374.518477 138.403875 
L 373.697089 138.083155 
L 373.416065 137.761953 
L 370.932807 136.795441 
L 369.564982 136.472299 
L 366.188681 135.82455 
L 366.295345 135.499941 
L 365.176985 135.174841 
L 364.474277 134.849249 
L 357.38872 134.196583 
L 355.87742 133.869508 
L 356.237939 133.541935 
L 348.00837 133.213865 
L 348.48735 132.885296 
L 346.019186 132.556227 
L 341.089882 132.226657 
L 341.729394 131.896584 
L 347.875097 131.566008 
L 347.732002 131.234927 
L 354.685612 130.571246 
L 361.72623 128.90313 
L 361.92883 128.56797 
L 363.856377 128.232294 
L 365.130586 126.884415 
L 365.411997 126.546145 
L 366.586698 126.207352 
L 366.051711 125.868036 
L 365.817147 125.528196 
L 365.10949 125.187829 
L 365.103783 124.846935 
L 365.241759 124.505512 
L 364.842089 124.16356 
L 364.816748 123.821076 
L 364.241298 123.478061 
L 364.106721 123.134512 
L 363.754076 122.790428 
L 360.823538 122.100651 
L 360.212789 121.754956 
L 359.053364 121.408721 
L 354.004661 120.366764 
L 352.169872 120.018357 
L 348.752934 119.669405 
L 346.976255 119.319904 
L 341.155343 118.969856 
L 341.034059 118.619257 
L 334.936665 118.268107 
L 342.159848 117.916404 
L 344.808993 117.564148 
L 350.795059 117.211336 
L 352.00866 116.504042 
L 359.815852 115.438904 
L 362.46562 115.082733 
L 363.537231 114.725999 
L 363.54837 114.368698 
L 363.933436 114.01083 
L 365.754929 113.652394 
L 368.451331 112.57366 
L 369.711953 112.212936 
L 370.20681 111.851637 
L 370.952874 111.489761 
L 376.326352 109.671683 
L 380.89424 108.940366 
L 390.556972 108.206697 
L 389.172235 107.838978 
L 366.231977 107.10176 
L 360.84091 106.73226 
L 360.145334 106.362163 
L 364.142806 105.620175 
L 365.218939 105.24828 
L 365.473039 104.875783 
L 366.60773 104.502682 
L 366.964189 104.128976 
L 364.358088 103.379743 
L 364.178382 102.628071 
L 362.594786 101.495964 
L 361.066028 100.738144 
L 360.681688 100.358304 
L 359.590603 99.977843 
L 352.113095 98.832713 
L 349.124286 98.44975 
L 343.028079 98.066157 
L 342.879858 97.681933 
L -1 97.674854 
M -1 96.918803 
L 349.077848 96.911587 
L 361.981156 96.525461 
L 365.456623 96.138698 
L 383.947511 94.97457 
L 392.129778 94.19527 
L 394.667274 93.804651 
L 393.890852 93.413383 
L 386.483221 92.628897 
L 382.730366 92.235674 
L 380.656121 91.841797 
L 373.827218 91.052072 
L 370.515789 90.259707 
L 353.322859 87.866647 
L 349.538566 87.465458 
L 334.031396 87.063593 
L 340.226526 86.661052 
L -1 86.653692 
M -1 85.861384 
L 343.843205 85.853934 
L 345.727363 85.449353 
L 352.171228 85.044089 
L 356.702985 84.231504 
L 359.295445 83.416164 
L 363.582077 82.598055 
L 369.931063 81.777164 
L 373.859467 80.953475 
L 374.819808 80.540578 
L 372.747267 80.126976 
L 360.46833 79.297651 
L 351.884654 78.881924 
L 347.700541 78.465486 
L 337.232429 78.048333 
L 338.233664 77.630466 
L 334.026816 77.21188 
L 333.90718 76.792576 
L 351.830562 76.372551 
L 355.739833 75.951802 
L 348.78395 75.108129 
L 343.577591 74.685201 
L 343.937903 74.261542 
L 337.998828 73.837151 
L 342.052669 73.412025 
L 374.753109 71.704143 
L 370.468061 71.275318 
L 361.037769 70.845746 
L 357.450673 69.984359 
L 352.331949 69.552539 
L 349.813677 69.119965 
L 328.805247 68.686635 
L 332.742797 68.252548 
L 338.294001 67.817702 
L -1 67.809794 
L -1 67.809794 
" clip-path="url(#p67cce3320f)" style="fill: none; stroke: #ff7f0e; stroke-width: 1.5; stroke-linecap: square"/>
   </g>
   <g id="patch_9">
    <path d="M 253.0705 296.296 
L 253.0705 38.952 
" style="fill: none; stroke: #000000; stroke-width: 0.8; stroke-linejoin: miter; stroke-linecap: square"/>
   </g>
   <g id="patch_10">
    <path d="M 428.388 296.296 
L 428.388 38.952 
" style="fill: none; stroke: #000000; stroke-width: 0.8; stroke-linejoin: miter; stroke-linecap: square"/>
   </g>
   <g id="patch_11">
    <path d="M 253.0705 296.296 
L 428.388 296.296 
" style="fill: none; stroke: #000000; stroke-width: 0.8; stroke-linejoin: miter; stroke-linecap: square"/>
   </g>
   <g id="patch_12">
    <path d="M 253.0705 38.952 
L 428.388 38.952 
" style="fill: none; stroke: #000000; stroke-width: 0.8; stroke-linejoin: miter; stroke-linecap: square"/>
   </g>
   <g id="legend_2">
    <g id="patch_13">
     <path d="M 258.9015 292.131 
L 332.714411 292.131 
Q 334.380411 292.131 334.380411 290.465 
L 334.380411 268.510244 
Q 334.380411 266.844244 332.714411 266.844244 
L 258.9015 266.844244 
Q 257.2355 266.844244 257.2355 268.510244 
L 257.2355 290.465 
Q 257.2355 292.131 258.9015 292.131 
z
" style="fill: #ffffff; opacity: 0.8; stroke: #cccccc; stroke-linejoin: miter"/>
    </g>
    <g id="line2d_27">
     <path d="M 260.5675 273.590242 
L 268.8975 273.590242 
L 277.2275 273.590242 
" style="fill: none; stroke: #1f77b4; stroke-width: 1.5; stroke-linecap: square"/>
    </g>
    <g id="text_20">
     <!-- PyDiatomic -->
     <g transform="translate(283.8915 276.505742) scale(0.0833 -0.0833)">
      <defs>
       <path id="DejaVuSans-50" d="M 1259 4147 
L 1259 2394 
L 2053 2394 
Q 2494 2394 2734 2622 
Q 2975 2850 2975 3272 
Q 2975 3691 2734 3919 
Q 2494 4147 2053 4147 
L 1259 4147 
z
M 628 4666 
L 2053 4666 
Q 2838 4666 3239 4311 
Q 3641 3956 3641 3272 
Q 3641 2581 3239 2228 
Q 2838 1875 2053 1875 
L 1259 1875 
L 1259 0 
L 628 0 
L 628 4666 
z
" transform="scale(0.015625)"/>
       <path id="DejaVuSans-44" d="M 1259 4147 
L 1259 519 
L 2022 519 
Q 2988 519 3436 956 
Q 3884 1394 3884 2338 
Q 3884 3275 3436 3711 
Q 2988 4147 2022 4147 
L 1259 4147 
z
M 628 4666 
L 1925 4666 
Q 3281 4666 3915 4102 
Q 4550 3538 4550 2338 
Q 4550 1131 3912 565 
Q 3275 0 1925 0 
L 628 0 
L 628 4666 
z
" transform="scale(0.015625)"/>
      </defs>
      <use xlink:href="#DejaVuSans-50"/>
      <use xlink:href="#DejaVuSans-79" x="60.302734"/>
      <use xlink:href="#DejaVuSans-44" x="119.482422"/>
      <use xlink:href="#DejaVuSans-69" x="196.484375"/>
      <use xlink:href="#DejaVuSans-61" x="224.267578"/>
      <use xlink:href="#DejaVuSans-74" x="285.546875"/>
      <use xlink:href="#DejaVuSans-6f" x="324.755859"/>
      <use xlink:href="#DejaVuSans-6d" x="385.9375"/>
      <use xlink:href="#DejaVuSans-69" x="483.349609"/>
      <use xlink:href="#DejaVuSans-63" x="511.132812"/>
     </g>
    </g>
    <g id="line2d_28">
     <path d="M 260.5675 284.15112 
L 268.8975 284.15112 
L 277.2275 284.15112 
" style="fill: none; stroke: #ff7f0e; stroke-width: 1.5; stroke-linecap: square"/>
    </g>
    <g id="text_21">
     <!-- ANU expt. -->
     <g transform="translate(283.8915 287.06662) scale(0.0833 -0.0833)">
      <defs>
       <path id="DejaVuSans-41" d="M 2188 4044 
L 1331 1722 
L 3047 1722 
L 2188 4044 
z
M 1831 4666 
L 2547 4666 
L 4325 0 
L 3669 0 
L 3244 1197 
L 1141 1197 
L 716 0 
L 50 0 
L 1831 4666 
z
" transform="scale(0.015625)"/>
       <path id="DejaVuSans-4e" d="M 628 4666 
L 1478 4666 
L 3547 763 
L 3547 4666 
L 4159 4666 
L 4159 0 
L 3309 0 
L 1241 3903 
L 1241 0 
L 628 0 
L 628 4666 
z
" transform="scale(0.015625)"/>
       <path id="DejaVuSans-55" d="M 556 4666 
L 1191 4666 
L 1191 1831 
Q 1191 1081 1462 751 
Q 1734 422 2344 422 
Q 2950 422 3222 751 
Q 3494 1081 3494 1831 
L 3494 4666 
L 4128 4666 
L 4128 1753 
Q 4128 841 3676 375 
Q 3225 -91 2344 -91 
Q 1459 -91 1007 375 
Q 556 841 556 1753 
L 556 4666 
z
" transform="scale(0.015625)"/>
       <path id="DejaVuSans-78" d="M 3513 3500 
L 2247 1797 
L 3578 0 
L 2900 0 
L 1881 1375 
L 863 0 
L 184 0 
L 1544 1831 
L 300 3500 
L 978 3500 
L 1906 2253 
L 2834 3500 
L 3513 3500 
z
" transform="scale(0.015625)"/>
      </defs>
      <use xlink:href="#DejaVuSans-41"/>
      <use xlink:href="#DejaVuSans-4e" x="68.408203"/>
      <use xlink:href="#DejaVuSans-55" x="143.212891"/>
      <use xlink:href="#DejaVuSans-20" x="216.40625"/>
      <use xlink:href="#DejaVuSans-65" x="248.193359"/>
      <use xlink:href="#DejaVuSans-78" x="307.966797"/>
      <use xlink:href="#DejaVuSans-70" x="367.146484"/>
      <use xlink:href="#DejaVuSans-74" x="430.623047"/>
      <use xlink:href="#DejaVuSans-2e" x="469.832031"/>
     </g>
    </g>
   </g>
  </g>
  <g id="text_22">
   <!-- O$_2$ photodissociation yielding O($^1D2$) -->
   <g transform="translate(119.82 17.712) scale(0.12 -0.12)">
    <defs>
     <path id="DejaVuSans-4f" d="M 2522 4238 
Q 1834 4238 1429 3725 
Q 1025 3213 1025 2328 
Q 1025 1447 1429 934 
Q 1834 422 2522 422 
Q 3209 422 3611 934 
Q 4013 1447 4013 2328 
Q 4013 3213 3611 3725 
Q 3209 4238 2522 4238 
z
M 2522 4750 
Q 3503 4750 4090 4092 
Q 4678 3434 4678 2328 
Q 4678 1225 4090 567 
Q 3503 -91 2522 -91 
Q 1538 -91 948 565 
Q 359 1222 359 2328 
Q 359 3434 948 4092 
Q 1538 4750 2522 4750 
z
" transform="scale(0.015625)"/>
     <path id="DejaVuSans-68" d="M 3513 2113 
L 3513 0 
L 2938 0 
L 2938 2094 
Q 2938 2591 2744 2837 
Q 2550 3084 2163 3084 
Q 1697 3084 1428 2787 
Q 1159 2491 1159 1978 
L 1159 0 
L 581 0 
L 581 4863 
L 1159 4863 
L 1159 2956 
Q 1366 3272 1645 3428 
Q 1925 3584 2291 3584 
Q 2894 3584 3203 3211 
Q 3513 2838 3513 2113 
z
" transform="scale(0.015625)"/>
     <path id="DejaVuSans-Oblique-44" d="M 1081 4666 
L 2438 4666 
Q 3519 4666 4070 4208 
Q 4622 3750 4622 2847 
Q 4622 2250 4412 1698 
Q 4203 1147 3834 769 
Q 3463 381 2891 190 
Q 2319 0 1538 0 
L 172 0 
L 1081 4666 
z
M 1613 4147 
L 909 519 
L 1734 519 
Q 2794 519 3375 1128 
Q 3956 1738 3956 2847 
Q 3956 3519 3581 3833 
Q 3206 4147 2406 4147 
L 1613 4147 
z
" transform="scale(0.015625)"/>
    </defs>
    <use xlink:href="#DejaVuSans-4f" transform="translate(0 0.684375)"/>
    <use xlink:href="#DejaVuSans-32" transform="translate(79.667969 -15.721875) scale(0.7)"/>
    <use xlink:href="#DejaVuSans-20" transform="translate(126.938477 0.684375)"/>
    <use xlink:href="#DejaVuSans-70" transform="translate(158.725586 0.684375)"/>
    <use xlink:href="#DejaVuSans-68" transform="translate(222.202148 0.684375)"/>
    <use xlink:href="#DejaVuSans-6f" transform="translate(285.581055 0.684375)"/>
    <use xlink:href="#DejaVuSans-74" transform="translate(346.762695 0.684375)"/>
    <use xlink:href="#DejaVuSans-6f" transform="translate(385.97168 0.684375)"/>
    <use xlink:href="#DejaVuSans-64" transform="translate(447.15332 0.684375)"/>
    <use xlink:href="#DejaVuSans-69" transform="translate(510.629883 0.684375)"/>
    <use xlink:href="#DejaVuSans-73" transform="translate(538.413086 0.684375)"/>
    <use xlink:href="#DejaVuSans-73" transform="translate(590.512695 0.684375)"/>
    <use xlink:href="#DejaVuSans-6f" transform="translate(642.612305 0.684375)"/>
    <use xlink:href="#DejaVuSans-63" transform="translate(703.793945 0.684375)"/>
    <use xlink:href="#DejaVuSans-69" transform="translate(758.774414 0.684375)"/>
    <use xlink:href="#DejaVuSans-61" transform="translate(786.557617 0.684375)"/>
    <use xlink:href="#DejaVuSans-74" transform="translate(847.836914 0.684375)"/>
    <use xlink:href="#DejaVuSans-69" transform="translate(887.045898 0.684375)"/>
    <use xlink:href="#DejaVuSans-6f" transform="translate(914.829102 0.684375)"/>
    <use xlink:href="#DejaVuSans-6e" transform="translate(976.010742 0.684375)"/>
    <use xlink:href="#DejaVuSans-20" transform="translate(1039.389648 0.684375)"/>
    <use xlink:href="#DejaVuSans-79" transform="translate(1071.176758 0.684375)"/>
    <use xlink:href="#DejaVuSans-69" transform="translate(1130.356445 0.684375)"/>
    <use xlink:href="#DejaVuSans-65" transform="translate(1158.139648 0.684375)"/>
    <use xlink:href="#DejaVuSans-6c" transform="translate(1219.663086 0.684375)"/>
    <use xlink:href="#DejaVuSans-64" transform="translate(1247.446289 0.684375)"/>
    <use xlink:href="#DejaVuSans-69" transform="translate(1310.922852 0.684375)"/>
    <use xlink:href="#DejaVuSans-6e" transform="translate(1338.706055 0.684375)"/>
    <use xlink:href="#DejaVuSans-67" transform="translate(1402.084961 0.684375)"/>
    <use xlink:href="#DejaVuSans-20" transform="translate(1465.561523 0.684375)"/>
    <use xlink:href="#DejaVuSans-4f" transform="translate(1497.348633 0.684375)"/>
    <use xlink:href="#DejaVuSans-28" transform="translate(1576.05957 0.684375)"/>
    <use xlink:href="#DejaVuSans-31" transform="translate(1616.030273 38.965625) scale(0.7)"/>
    <use xlink:href="#DejaVuSans-Oblique-44" transform="translate(1663.300781 0.684375)"/>
    <use xlink:href="#DejaVuSans-32" transform="translate(1740.302734 0.684375)"/>
    <use xlink:href="#DejaVuSans-29" transform="translate(1803.925781 0.684375)"/>
   </g>
  </g>
 </g>
 <defs>
  <clipPath id="pe0b1168424">
   <rect x="69.878" y="38.952" width="175.3175" height="257.344"/>
  </clipPath>
  <clipPath id="p67cce3320f">
   <rect x="253.0705" y="38.952" width="175.3175" height="257.344"/>
  </clipPath>
 </defs>
</svg>
