<?xml version="1.0" encoding="utf-8" standalone="no"?>
<!DOCTYPE svg PUBLIC "-//W3C//DTD SVG 1.1//EN"
  "http://www.w3.org/Graphics/SVG/1.1/DTD/svg11.dtd">
<svg xmlns:xlink="http://www.w3.org/1999/xlink" width="460.8pt" height="345.6pt" viewBox="0 0 460.8 345.6" xmlns="http://www.w3.org/2000/svg" version="1.1">
 <metadata>
  <rdf:RDF xmlns:dc="http://purl.org/dc/elements/1.1/" xmlns:cc="http://creativecommons.org/ns#" xmlns:rdf="http://www.w3.org/1999/02/22-rdf-syntax-ns#">
   <cc:Work>
    <dc:type rdf:resource="http://purl.org/dc/dcmitype/StillImage"/>
    <dc:date>2023-10-15T08:16:29.350350</dc:date>
    <dc:format>image/svg+xml</dc:format>
    <dc:creator>
     <cc:Agent>
      <dc:title>Matplotlib v3.8.0, https://matplotlib.org/</dc:title>
     </cc:Agent>
    </dc:creator>
   </cc:Work>
  </rdf:RDF>
 </metadata>
 <defs>
  <style type="text/css">*{stroke-linejoin: round; stroke-linecap: butt}</style>
 </defs>
 <g id="figure_1">
  <g id="patch_1">
   <path d="M 0 345.6 
L 460.8 345.6 
L 460.8 0 
L 0 0 
z
" style="fill: #ffffff"/>
  </g>
  <g id="axes_1">
   <g id="patch_2">
    <path d="M 57.6 307.584 
L 414.72 307.584 
L 414.72 41.472 
L 57.6 41.472 
z
" style="fill: #ffffff"/>
   </g>
   <g id="matplotlib.axis_1">
    <g id="xtick_1">
     <g id="line2d_1">
      <defs>
       <path id="m0afb87225c" d="M 0 0 
L 0 3.5 
" style="stroke: #000000; stroke-width: 0.8"/>
      </defs>
      <g>
       <use xlink:href="#m0afb87225c" x="100.619994" y="307.584" style="stroke: #000000; stroke-width: 0.8"/>
      </g>
     </g>
     <g id="text_1">
      <!-- 60000 -->
      <g transform="translate(84.713744 322.182437) scale(0.1 -0.1)">
       <defs>
        <path id="DejaVuSans-36" d="M 2113 2584 
Q 1688 2584 1439 2293 
Q 1191 2003 1191 1497 
Q 1191 994 1439 701 
Q 1688 409 2113 409 
Q 2538 409 2786 701 
Q 3034 994 3034 1497 
Q 3034 2003 2786 2293 
Q 2538 2584 2113 2584 
z
M 3366 4563 
L 3366 3988 
Q 3128 4100 2886 4159 
Q 2644 4219 2406 4219 
Q 1781 4219 1451 3797 
Q 1122 3375 1075 2522 
Q 1259 2794 1537 2939 
Q 1816 3084 2150 3084 
Q 2853 3084 3261 2657 
Q 3669 2231 3669 1497 
Q 3669 778 3244 343 
Q 2819 -91 2113 -91 
Q 1303 -91 875 529 
Q 447 1150 447 2328 
Q 447 3434 972 4092 
Q 1497 4750 2381 4750 
Q 2619 4750 2861 4703 
Q 3103 4656 3366 4563 
z
" transform="scale(0.015625)"/>
        <path id="DejaVuSans-30" d="M 2034 4250 
Q 1547 4250 1301 3770 
Q 1056 3291 1056 2328 
Q 1056 1369 1301 889 
Q 1547 409 2034 409 
Q 2525 409 2770 889 
Q 3016 1369 3016 2328 
Q 3016 3291 2770 3770 
Q 2525 4250 2034 4250 
z
M 2034 4750 
Q 2819 4750 3233 4129 
Q 3647 3509 3647 2328 
Q 3647 1150 3233 529 
Q 2819 -91 2034 -91 
Q 1250 -91 836 529 
Q 422 1150 422 2328 
Q 422 3509 836 4129 
Q 1250 4750 2034 4750 
z
" transform="scale(0.015625)"/>
       </defs>
       <use xlink:href="#DejaVuSans-36"/>
       <use xlink:href="#DejaVuSans-30" x="63.623047"/>
       <use xlink:href="#DejaVuSans-30" x="127.246094"/>
       <use xlink:href="#DejaVuSans-30" x="190.869141"/>
       <use xlink:href="#DejaVuSans-30" x="254.492188"/>
      </g>
     </g>
    </g>
    <g id="xtick_2">
     <g id="line2d_2">
      <g>
       <use xlink:href="#m0afb87225c" x="150.347419" y="307.584" style="stroke: #000000; stroke-width: 0.8"/>
      </g>
     </g>
     <g id="text_2">
      <!-- 65000 -->
      <g transform="translate(134.441169 322.182437) scale(0.1 -0.1)">
       <defs>
        <path id="DejaVuSans-35" d="M 691 4666 
L 3169 4666 
L 3169 4134 
L 1269 4134 
L 1269 2991 
Q 1406 3038 1543 3061 
Q 1681 3084 1819 3084 
Q 2600 3084 3056 2656 
Q 3513 2228 3513 1497 
Q 3513 744 3044 326 
Q 2575 -91 1722 -91 
Q 1428 -91 1123 -41 
Q 819 9 494 109 
L 494 744 
Q 775 591 1075 516 
Q 1375 441 1709 441 
Q 2250 441 2565 725 
Q 2881 1009 2881 1497 
Q 2881 1984 2565 2268 
Q 2250 2553 1709 2553 
Q 1456 2553 1204 2497 
Q 953 2441 691 2322 
L 691 4666 
z
" transform="scale(0.015625)"/>
       </defs>
       <use xlink:href="#DejaVuSans-36"/>
       <use xlink:href="#DejaVuSans-35" x="63.623047"/>
       <use xlink:href="#DejaVuSans-30" x="127.246094"/>
       <use xlink:href="#DejaVuSans-30" x="190.869141"/>
       <use xlink:href="#DejaVuSans-30" x="254.492188"/>
      </g>
     </g>
    </g>
    <g id="xtick_3">
     <g id="line2d_3">
      <g>
       <use xlink:href="#m0afb87225c" x="200.074845" y="307.584" style="stroke: #000000; stroke-width: 0.8"/>
      </g>
     </g>
     <g id="text_3">
      <!-- 70000 -->
      <g transform="translate(184.168595 322.182437) scale(0.1 -0.1)">
       <defs>
        <path id="DejaVuSans-37" d="M 525 4666 
L 3525 4666 
L 3525 4397 
L 1831 0 
L 1172 0 
L 2766 4134 
L 525 4134 
L 525 4666 
z
" transform="scale(0.015625)"/>
       </defs>
       <use xlink:href="#DejaVuSans-37"/>
       <use xlink:href="#DejaVuSans-30" x="63.623047"/>
       <use xlink:href="#DejaVuSans-30" x="127.246094"/>
       <use xlink:href="#DejaVuSans-30" x="190.869141"/>
       <use xlink:href="#DejaVuSans-30" x="254.492188"/>
      </g>
     </g>
    </g>
    <g id="xtick_4">
     <g id="line2d_4">
      <g>
       <use xlink:href="#m0afb87225c" x="249.80227" y="307.584" style="stroke: #000000; stroke-width: 0.8"/>
      </g>
     </g>
     <g id="text_4">
      <!-- 75000 -->
      <g transform="translate(233.89602 322.182437) scale(0.1 -0.1)">
       <use xlink:href="#DejaVuSans-37"/>
       <use xlink:href="#DejaVuSans-35" x="63.623047"/>
       <use xlink:href="#DejaVuSans-30" x="127.246094"/>
       <use xlink:href="#DejaVuSans-30" x="190.869141"/>
       <use xlink:href="#DejaVuSans-30" x="254.492188"/>
      </g>
     </g>
    </g>
    <g id="xtick_5">
     <g id="line2d_5">
      <g>
       <use xlink:href="#m0afb87225c" x="299.529696" y="307.584" style="stroke: #000000; stroke-width: 0.8"/>
      </g>
     </g>
     <g id="text_5">
      <!-- 80000 -->
      <g transform="translate(283.623446 322.182437) scale(0.1 -0.1)">
       <defs>
        <path id="DejaVuSans-38" d="M 2034 2216 
Q 1584 2216 1326 1975 
Q 1069 1734 1069 1313 
Q 1069 891 1326 650 
Q 1584 409 2034 409 
Q 2484 409 2743 651 
Q 3003 894 3003 1313 
Q 3003 1734 2745 1975 
Q 2488 2216 2034 2216 
z
M 1403 2484 
Q 997 2584 770 2862 
Q 544 3141 544 3541 
Q 544 4100 942 4425 
Q 1341 4750 2034 4750 
Q 2731 4750 3128 4425 
Q 3525 4100 3525 3541 
Q 3525 3141 3298 2862 
Q 3072 2584 2669 2484 
Q 3125 2378 3379 2068 
Q 3634 1759 3634 1313 
Q 3634 634 3220 271 
Q 2806 -91 2034 -91 
Q 1263 -91 848 271 
Q 434 634 434 1313 
Q 434 1759 690 2068 
Q 947 2378 1403 2484 
z
M 1172 3481 
Q 1172 3119 1398 2916 
Q 1625 2713 2034 2713 
Q 2441 2713 2670 2916 
Q 2900 3119 2900 3481 
Q 2900 3844 2670 4047 
Q 2441 4250 2034 4250 
Q 1625 4250 1398 4047 
Q 1172 3844 1172 3481 
z
" transform="scale(0.015625)"/>
       </defs>
       <use xlink:href="#DejaVuSans-38"/>
       <use xlink:href="#DejaVuSans-30" x="63.623047"/>
       <use xlink:href="#DejaVuSans-30" x="127.246094"/>
       <use xlink:href="#DejaVuSans-30" x="190.869141"/>
       <use xlink:href="#DejaVuSans-30" x="254.492188"/>
      </g>
     </g>
    </g>
    <g id="xtick_6">
     <g id="line2d_6">
      <g>
       <use xlink:href="#m0afb87225c" x="349.257121" y="307.584" style="stroke: #000000; stroke-width: 0.8"/>
      </g>
     </g>
     <g id="text_6">
      <!-- 85000 -->
      <g transform="translate(333.350871 322.182437) scale(0.1 -0.1)">
       <use xlink:href="#DejaVuSans-38"/>
       <use xlink:href="#DejaVuSans-35" x="63.623047"/>
       <use xlink:href="#DejaVuSans-30" x="127.246094"/>
       <use xlink:href="#DejaVuSans-30" x="190.869141"/>
       <use xlink:href="#DejaVuSans-30" x="254.492188"/>
      </g>
     </g>
    </g>
    <g id="xtick_7">
     <g id="line2d_7">
      <g>
       <use xlink:href="#m0afb87225c" x="398.984547" y="307.584" style="stroke: #000000; stroke-width: 0.8"/>
      </g>
     </g>
     <g id="text_7">
      <!-- 90000 -->
      <g transform="translate(383.078297 322.182437) scale(0.1 -0.1)">
       <defs>
        <path id="DejaVuSans-39" d="M 703 97 
L 703 672 
Q 941 559 1184 500 
Q 1428 441 1663 441 
Q 2288 441 2617 861 
Q 2947 1281 2994 2138 
Q 2813 1869 2534 1725 
Q 2256 1581 1919 1581 
Q 1219 1581 811 2004 
Q 403 2428 403 3163 
Q 403 3881 828 4315 
Q 1253 4750 1959 4750 
Q 2769 4750 3195 4129 
Q 3622 3509 3622 2328 
Q 3622 1225 3098 567 
Q 2575 -91 1691 -91 
Q 1453 -91 1209 -44 
Q 966 3 703 97 
z
M 1959 2075 
Q 2384 2075 2632 2365 
Q 2881 2656 2881 3163 
Q 2881 3666 2632 3958 
Q 2384 4250 1959 4250 
Q 1534 4250 1286 3958 
Q 1038 3666 1038 3163 
Q 1038 2656 1286 2365 
Q 1534 2075 1959 2075 
z
" transform="scale(0.015625)"/>
       </defs>
       <use xlink:href="#DejaVuSans-39"/>
       <use xlink:href="#DejaVuSans-30" x="63.623047"/>
       <use xlink:href="#DejaVuSans-30" x="127.246094"/>
       <use xlink:href="#DejaVuSans-30" x="190.869141"/>
       <use xlink:href="#DejaVuSans-30" x="254.492188"/>
      </g>
     </g>
    </g>
    <g id="text_8">
     <!-- Wavenumber (cm$^{-1}$) -->
     <g transform="translate(184.11 336.582437) scale(0.1 -0.1)">
      <defs>
       <path id="DejaVuSans-57" d="M 213 4666 
L 850 4666 
L 1831 722 
L 2809 4666 
L 3519 4666 
L 4500 722 
L 5478 4666 
L 6119 4666 
L 4947 0 
L 4153 0 
L 3169 4050 
L 2175 0 
L 1381 0 
L 213 4666 
z
" transform="scale(0.015625)"/>
       <path id="DejaVuSans-61" d="M 2194 1759 
Q 1497 1759 1228 1600 
Q 959 1441 959 1056 
Q 959 750 1161 570 
Q 1363 391 1709 391 
Q 2188 391 2477 730 
Q 2766 1069 2766 1631 
L 2766 1759 
L 2194 1759 
z
M 3341 1997 
L 3341 0 
L 2766 0 
L 2766 531 
Q 2569 213 2275 61 
Q 1981 -91 1556 -91 
Q 1019 -91 701 211 
Q 384 513 384 1019 
Q 384 1609 779 1909 
Q 1175 2209 1959 2209 
L 2766 2209 
L 2766 2266 
Q 2766 2663 2505 2880 
Q 2244 3097 1772 3097 
Q 1472 3097 1187 3025 
Q 903 2953 641 2809 
L 641 3341 
Q 956 3463 1253 3523 
Q 1550 3584 1831 3584 
Q 2591 3584 2966 3190 
Q 3341 2797 3341 1997 
z
" transform="scale(0.015625)"/>
       <path id="DejaVuSans-76" d="M 191 3500 
L 800 3500 
L 1894 563 
L 2988 3500 
L 3597 3500 
L 2284 0 
L 1503 0 
L 191 3500 
z
" transform="scale(0.015625)"/>
       <path id="DejaVuSans-65" d="M 3597 1894 
L 3597 1613 
L 953 1613 
Q 991 1019 1311 708 
Q 1631 397 2203 397 
Q 2534 397 2845 478 
Q 3156 559 3463 722 
L 3463 178 
Q 3153 47 2828 -22 
Q 2503 -91 2169 -91 
Q 1331 -91 842 396 
Q 353 884 353 1716 
Q 353 2575 817 3079 
Q 1281 3584 2069 3584 
Q 2775 3584 3186 3129 
Q 3597 2675 3597 1894 
z
M 3022 2063 
Q 3016 2534 2758 2815 
Q 2500 3097 2075 3097 
Q 1594 3097 1305 2825 
Q 1016 2553 972 2059 
L 3022 2063 
z
" transform="scale(0.015625)"/>
       <path id="DejaVuSans-6e" d="M 3513 2113 
L 3513 0 
L 2938 0 
L 2938 2094 
Q 2938 2591 2744 2837 
Q 2550 3084 2163 3084 
Q 1697 3084 1428 2787 
Q 1159 2491 1159 1978 
L 1159 0 
L 581 0 
L 581 3500 
L 1159 3500 
L 1159 2956 
Q 1366 3272 1645 3428 
Q 1925 3584 2291 3584 
Q 2894 3584 3203 3211 
Q 3513 2838 3513 2113 
z
" transform="scale(0.015625)"/>
       <path id="DejaVuSans-75" d="M 544 1381 
L 544 3500 
L 1119 3500 
L 1119 1403 
Q 1119 906 1312 657 
Q 1506 409 1894 409 
Q 2359 409 2629 706 
Q 2900 1003 2900 1516 
L 2900 3500 
L 3475 3500 
L 3475 0 
L 2900 0 
L 2900 538 
Q 2691 219 2414 64 
Q 2138 -91 1772 -91 
Q 1169 -91 856 284 
Q 544 659 544 1381 
z
M 1991 3584 
L 1991 3584 
z
" transform="scale(0.015625)"/>
       <path id="DejaVuSans-6d" d="M 3328 2828 
Q 3544 3216 3844 3400 
Q 4144 3584 4550 3584 
Q 5097 3584 5394 3201 
Q 5691 2819 5691 2113 
L 5691 0 
L 5113 0 
L 5113 2094 
Q 5113 2597 4934 2840 
Q 4756 3084 4391 3084 
Q 3944 3084 3684 2787 
Q 3425 2491 3425 1978 
L 3425 0 
L 2847 0 
L 2847 2094 
Q 2847 2600 2669 2842 
Q 2491 3084 2119 3084 
Q 1678 3084 1418 2786 
Q 1159 2488 1159 1978 
L 1159 0 
L 581 0 
L 581 3500 
L 1159 3500 
L 1159 2956 
Q 1356 3278 1631 3431 
Q 1906 3584 2284 3584 
Q 2666 3584 2933 3390 
Q 3200 3197 3328 2828 
z
" transform="scale(0.015625)"/>
       <path id="DejaVuSans-62" d="M 3116 1747 
Q 3116 2381 2855 2742 
Q 2594 3103 2138 3103 
Q 1681 3103 1420 2742 
Q 1159 2381 1159 1747 
Q 1159 1113 1420 752 
Q 1681 391 2138 391 
Q 2594 391 2855 752 
Q 3116 1113 3116 1747 
z
M 1159 2969 
Q 1341 3281 1617 3432 
Q 1894 3584 2278 3584 
Q 2916 3584 3314 3078 
Q 3713 2572 3713 1747 
Q 3713 922 3314 415 
Q 2916 -91 2278 -91 
Q 1894 -91 1617 61 
Q 1341 213 1159 525 
L 1159 0 
L 581 0 
L 581 4863 
L 1159 4863 
L 1159 2969 
z
" transform="scale(0.015625)"/>
       <path id="DejaVuSans-72" d="M 2631 2963 
Q 2534 3019 2420 3045 
Q 2306 3072 2169 3072 
Q 1681 3072 1420 2755 
Q 1159 2438 1159 1844 
L 1159 0 
L 581 0 
L 581 3500 
L 1159 3500 
L 1159 2956 
Q 1341 3275 1631 3429 
Q 1922 3584 2338 3584 
Q 2397 3584 2469 3576 
Q 2541 3569 2628 3553 
L 2631 2963 
z
" transform="scale(0.015625)"/>
       <path id="DejaVuSans-20" transform="scale(0.015625)"/>
       <path id="DejaVuSans-28" d="M 1984 4856 
Q 1566 4138 1362 3434 
Q 1159 2731 1159 2009 
Q 1159 1288 1364 580 
Q 1569 -128 1984 -844 
L 1484 -844 
Q 1016 -109 783 600 
Q 550 1309 550 2009 
Q 550 2706 781 3412 
Q 1013 4119 1484 4856 
L 1984 4856 
z
" transform="scale(0.015625)"/>
       <path id="DejaVuSans-63" d="M 3122 3366 
L 3122 2828 
Q 2878 2963 2633 3030 
Q 2388 3097 2138 3097 
Q 1578 3097 1268 2742 
Q 959 2388 959 1747 
Q 959 1106 1268 751 
Q 1578 397 2138 397 
Q 2388 397 2633 464 
Q 2878 531 3122 666 
L 3122 134 
Q 2881 22 2623 -34 
Q 2366 -91 2075 -91 
Q 1284 -91 818 406 
Q 353 903 353 1747 
Q 353 2603 823 3093 
Q 1294 3584 2113 3584 
Q 2378 3584 2631 3529 
Q 2884 3475 3122 3366 
z
" transform="scale(0.015625)"/>
       <path id="DejaVuSans-2212" d="M 678 2272 
L 4684 2272 
L 4684 1741 
L 678 1741 
L 678 2272 
z
" transform="scale(0.015625)"/>
       <path id="DejaVuSans-31" d="M 794 531 
L 1825 531 
L 1825 4091 
L 703 3866 
L 703 4441 
L 1819 4666 
L 2450 4666 
L 2450 531 
L 3481 531 
L 3481 0 
L 794 0 
L 794 531 
z
" transform="scale(0.015625)"/>
       <path id="DejaVuSans-29" d="M 513 4856 
L 1013 4856 
Q 1481 4119 1714 3412 
Q 1947 2706 1947 2009 
Q 1947 1309 1714 600 
Q 1481 -109 1013 -844 
L 513 -844 
Q 928 -128 1133 580 
Q 1338 1288 1338 2009 
Q 1338 2731 1133 3434 
Q 928 4138 513 4856 
z
" transform="scale(0.015625)"/>
      </defs>
      <use xlink:href="#DejaVuSans-57" transform="translate(0 0.684375)"/>
      <use xlink:href="#DejaVuSans-61" transform="translate(98.876953 0.684375)"/>
      <use xlink:href="#DejaVuSans-76" transform="translate(160.15625 0.684375)"/>
      <use xlink:href="#DejaVuSans-65" transform="translate(219.335938 0.684375)"/>
      <use xlink:href="#DejaVuSans-6e" transform="translate(280.859375 0.684375)"/>
      <use xlink:href="#DejaVuSans-75" transform="translate(344.238281 0.684375)"/>
      <use xlink:href="#DejaVuSans-6d" transform="translate(407.617188 0.684375)"/>
      <use xlink:href="#DejaVuSans-62" transform="translate(505.029297 0.684375)"/>
      <use xlink:href="#DejaVuSans-65" transform="translate(568.505859 0.684375)"/>
      <use xlink:href="#DejaVuSans-72" transform="translate(630.029297 0.684375)"/>
      <use xlink:href="#DejaVuSans-20" transform="translate(671.142578 0.684375)"/>
      <use xlink:href="#DejaVuSans-28" transform="translate(702.929688 0.684375)"/>
      <use xlink:href="#DejaVuSans-63" transform="translate(741.943359 0.684375)"/>
      <use xlink:href="#DejaVuSans-6d" transform="translate(796.923828 0.684375)"/>
      <use xlink:href="#DejaVuSans-2212" transform="translate(895.292969 38.965625) scale(0.7)"/>
      <use xlink:href="#DejaVuSans-31" transform="translate(953.945312 38.965625) scale(0.7)"/>
      <use xlink:href="#DejaVuSans-29" transform="translate(1001.21582 0.684375)"/>
     </g>
    </g>
   </g>
   <g id="matplotlib.axis_2">
    <g id="ytick_1">
     <g id="line2d_8">
      <defs>
       <path id="mc013d030f6" d="M 0 0 
L -3.5 0 
" style="stroke: #000000; stroke-width: 0.8"/>
      </defs>
      <g>
       <use xlink:href="#mc013d030f6" x="57.6" y="295.438183" style="stroke: #000000; stroke-width: 0.8"/>
      </g>
     </g>
     <g id="text_9">
      <!-- 0 -->
      <g transform="translate(44.2375 299.237402) scale(0.1 -0.1)">
       <use xlink:href="#DejaVuSans-30"/>
      </g>
     </g>
    </g>
    <g id="ytick_2">
     <g id="line2d_9">
      <g>
       <use xlink:href="#mc013d030f6" x="57.6" y="243.698049" style="stroke: #000000; stroke-width: 0.8"/>
      </g>
     </g>
     <g id="text_10">
      <!-- 200 -->
      <g transform="translate(31.5125 247.497267) scale(0.1 -0.1)">
       <defs>
        <path id="DejaVuSans-32" d="M 1228 531 
L 3431 531 
L 3431 0 
L 469 0 
L 469 531 
Q 828 903 1448 1529 
Q 2069 2156 2228 2338 
Q 2531 2678 2651 2914 
Q 2772 3150 2772 3378 
Q 2772 3750 2511 3984 
Q 2250 4219 1831 4219 
Q 1534 4219 1204 4116 
Q 875 4013 500 3803 
L 500 4441 
Q 881 4594 1212 4672 
Q 1544 4750 1819 4750 
Q 2544 4750 2975 4387 
Q 3406 4025 3406 3419 
Q 3406 3131 3298 2873 
Q 3191 2616 2906 2266 
Q 2828 2175 2409 1742 
Q 1991 1309 1228 531 
z
" transform="scale(0.015625)"/>
       </defs>
       <use xlink:href="#DejaVuSans-32"/>
       <use xlink:href="#DejaVuSans-30" x="63.623047"/>
       <use xlink:href="#DejaVuSans-30" x="127.246094"/>
      </g>
     </g>
    </g>
    <g id="ytick_3">
     <g id="line2d_10">
      <g>
       <use xlink:href="#mc013d030f6" x="57.6" y="191.957914" style="stroke: #000000; stroke-width: 0.8"/>
      </g>
     </g>
     <g id="text_11">
      <!-- 400 -->
      <g transform="translate(31.5125 195.757133) scale(0.1 -0.1)">
       <defs>
        <path id="DejaVuSans-34" d="M 2419 4116 
L 825 1625 
L 2419 1625 
L 2419 4116 
z
M 2253 4666 
L 3047 4666 
L 3047 1625 
L 3713 1625 
L 3713 1100 
L 3047 1100 
L 3047 0 
L 2419 0 
L 2419 1100 
L 313 1100 
L 313 1709 
L 2253 4666 
z
" transform="scale(0.015625)"/>
       </defs>
       <use xlink:href="#DejaVuSans-34"/>
       <use xlink:href="#DejaVuSans-30" x="63.623047"/>
       <use xlink:href="#DejaVuSans-30" x="127.246094"/>
      </g>
     </g>
    </g>
    <g id="ytick_4">
     <g id="line2d_11">
      <g>
       <use xlink:href="#mc013d030f6" x="57.6" y="140.21778" style="stroke: #000000; stroke-width: 0.8"/>
      </g>
     </g>
     <g id="text_12">
      <!-- 600 -->
      <g transform="translate(31.5125 144.016999) scale(0.1 -0.1)">
       <use xlink:href="#DejaVuSans-36"/>
       <use xlink:href="#DejaVuSans-30" x="63.623047"/>
       <use xlink:href="#DejaVuSans-30" x="127.246094"/>
      </g>
     </g>
    </g>
    <g id="ytick_5">
     <g id="line2d_12">
      <g>
       <use xlink:href="#mc013d030f6" x="57.6" y="88.477646" style="stroke: #000000; stroke-width: 0.8"/>
      </g>
     </g>
     <g id="text_13">
      <!-- 800 -->
      <g transform="translate(31.5125 92.276864) scale(0.1 -0.1)">
       <use xlink:href="#DejaVuSans-38"/>
       <use xlink:href="#DejaVuSans-30" x="63.623047"/>
       <use xlink:href="#DejaVuSans-30" x="127.246094"/>
      </g>
     </g>
    </g>
    <g id="text_14">
     <!-- Cross section (cm$^{2}$) -->
     <g transform="translate(25.432812 223.478) rotate(-90) scale(0.1 -0.1)">
      <defs>
       <path id="DejaVuSans-43" d="M 4122 4306 
L 4122 3641 
Q 3803 3938 3442 4084 
Q 3081 4231 2675 4231 
Q 1875 4231 1450 3742 
Q 1025 3253 1025 2328 
Q 1025 1406 1450 917 
Q 1875 428 2675 428 
Q 3081 428 3442 575 
Q 3803 722 4122 1019 
L 4122 359 
Q 3791 134 3420 21 
Q 3050 -91 2638 -91 
Q 1578 -91 968 557 
Q 359 1206 359 2328 
Q 359 3453 968 4101 
Q 1578 4750 2638 4750 
Q 3056 4750 3426 4639 
Q 3797 4528 4122 4306 
z
" transform="scale(0.015625)"/>
       <path id="DejaVuSans-6f" d="M 1959 3097 
Q 1497 3097 1228 2736 
Q 959 2375 959 1747 
Q 959 1119 1226 758 
Q 1494 397 1959 397 
Q 2419 397 2687 759 
Q 2956 1122 2956 1747 
Q 2956 2369 2687 2733 
Q 2419 3097 1959 3097 
z
M 1959 3584 
Q 2709 3584 3137 3096 
Q 3566 2609 3566 1747 
Q 3566 888 3137 398 
Q 2709 -91 1959 -91 
Q 1206 -91 779 398 
Q 353 888 353 1747 
Q 353 2609 779 3096 
Q 1206 3584 1959 3584 
z
" transform="scale(0.015625)"/>
       <path id="DejaVuSans-73" d="M 2834 3397 
L 2834 2853 
Q 2591 2978 2328 3040 
Q 2066 3103 1784 3103 
Q 1356 3103 1142 2972 
Q 928 2841 928 2578 
Q 928 2378 1081 2264 
Q 1234 2150 1697 2047 
L 1894 2003 
Q 2506 1872 2764 1633 
Q 3022 1394 3022 966 
Q 3022 478 2636 193 
Q 2250 -91 1575 -91 
Q 1294 -91 989 -36 
Q 684 19 347 128 
L 347 722 
Q 666 556 975 473 
Q 1284 391 1588 391 
Q 1994 391 2212 530 
Q 2431 669 2431 922 
Q 2431 1156 2273 1281 
Q 2116 1406 1581 1522 
L 1381 1569 
Q 847 1681 609 1914 
Q 372 2147 372 2553 
Q 372 3047 722 3315 
Q 1072 3584 1716 3584 
Q 2034 3584 2315 3537 
Q 2597 3491 2834 3397 
z
" transform="scale(0.015625)"/>
       <path id="DejaVuSans-74" d="M 1172 4494 
L 1172 3500 
L 2356 3500 
L 2356 3053 
L 1172 3053 
L 1172 1153 
Q 1172 725 1289 603 
Q 1406 481 1766 481 
L 2356 481 
L 2356 0 
L 1766 0 
Q 1100 0 847 248 
Q 594 497 594 1153 
L 594 3053 
L 172 3053 
L 172 3500 
L 594 3500 
L 594 4494 
L 1172 4494 
z
" transform="scale(0.015625)"/>
       <path id="DejaVuSans-69" d="M 603 3500 
L 1178 3500 
L 1178 0 
L 603 0 
L 603 3500 
z
M 603 4863 
L 1178 4863 
L 1178 4134 
L 603 4134 
L 603 4863 
z
" transform="scale(0.015625)"/>
      </defs>
      <use xlink:href="#DejaVuSans-43" transform="translate(0 0.765625)"/>
      <use xlink:href="#DejaVuSans-72" transform="translate(69.824219 0.765625)"/>
      <use xlink:href="#DejaVuSans-6f" transform="translate(110.9375 0.765625)"/>
      <use xlink:href="#DejaVuSans-73" transform="translate(172.119141 0.765625)"/>
      <use xlink:href="#DejaVuSans-73" transform="translate(224.21875 0.765625)"/>
      <use xlink:href="#DejaVuSans-20" transform="translate(276.318359 0.765625)"/>
      <use xlink:href="#DejaVuSans-73" transform="translate(308.105469 0.765625)"/>
      <use xlink:href="#DejaVuSans-65" transform="translate(360.205078 0.765625)"/>
      <use xlink:href="#DejaVuSans-63" transform="translate(421.728516 0.765625)"/>
      <use xlink:href="#DejaVuSans-74" transform="translate(476.708984 0.765625)"/>
      <use xlink:href="#DejaVuSans-69" transform="translate(515.917969 0.765625)"/>
      <use xlink:href="#DejaVuSans-6f" transform="translate(543.701172 0.765625)"/>
      <use xlink:href="#DejaVuSans-6e" transform="translate(604.882812 0.765625)"/>
      <use xlink:href="#DejaVuSans-20" transform="translate(668.261719 0.765625)"/>
      <use xlink:href="#DejaVuSans-28" transform="translate(700.048828 0.765625)"/>
      <use xlink:href="#DejaVuSans-63" transform="translate(739.0625 0.765625)"/>
      <use xlink:href="#DejaVuSans-6d" transform="translate(794.042969 0.765625)"/>
      <use xlink:href="#DejaVuSans-32" transform="translate(892.412109 39.046875) scale(0.7)"/>
      <use xlink:href="#DejaVuSans-29" transform="translate(939.682617 0.765625)"/>
     </g>
    </g>
    <g id="text_15">
     <!-- 1e−19 -->
     <g transform="translate(57.6 38.472) scale(0.1 -0.1)">
      <use xlink:href="#DejaVuSans-31"/>
      <use xlink:href="#DejaVuSans-65" x="63.623047"/>
      <use xlink:href="#DejaVuSans-2212" x="125.146484"/>
      <use xlink:href="#DejaVuSans-31" x="208.935547"/>
      <use xlink:href="#DejaVuSans-39" x="272.558594"/>
     </g>
    </g>
   </g>
   <g id="line2d_13">
    <path d="M 76.253555 294.954253 
L 77.248104 294.288201 
L 78.242652 293.827369 
L 80.231749 293.517699 
L 86.19904 292.686123 
L 92.166331 291.615226 
L 98.133622 290.280446 
L 104.100914 288.671482 
L 110.068205 286.796264 
L 116.035496 284.680255 
L 122.997335 281.959231 
L 131.948272 278.176029 
L 152.833791 269.1705 
L 158.801082 266.906938 
L 163.773824 265.246836 
L 168.746567 263.839581 
L 172.724761 262.916136 
L 176.702955 262.184034 
L 180.681149 261.648107 
L 184.659343 261.318026 
L 188.637537 261.198089 
L 192.615731 261.297038 
L 196.593925 261.623567 
L 200.572119 262.192921 
L 204.550313 263.013006 
L 208.528507 264.106225 
L 211.512153 265.121327 
L 214.495798 266.327166 
L 217.479444 267.773102 
L 219.468541 268.911312 
L 221.457638 270.253993 
L 223.446735 271.900372 
L 224.441283 272.892839 
L 225.435832 274.04871 
L 226.43038 275.423975 
L 227.424929 277.094719 
L 228.419477 279.158517 
L 229.414026 281.715377 
L 231.403123 288.23728 
L 232.397671 291.506876 
L 233.39222 293.812027 
L 234.386768 294.541529 
L 235.381317 293.754007 
L 238.364962 289.023036 
L 239.359511 288.153931 
L 240.35406 287.746346 
L 241.348608 287.713757 
L 242.343157 287.970918 
L 243.337705 288.447984 
L 245.326802 289.852724 
L 250.299545 294.028181 
L 251.294093 294.632577 
L 252.288642 295.063781 
L 253.28319 295.298139 
L 254.277739 295.330519 
L 255.272287 295.176777 
L 257.261384 294.464953 
L 260.24503 293.149467 
L 262.234127 292.582541 
L 264.223224 292.418132 
L 266.212321 292.632573 
L 268.201418 293.131296 
L 274.168709 295.041416 
L 276.157806 295.358758 
L 278.146903 295.330743 
L 280.136 294.931422 
L 282.125097 294.22741 
L 287.09784 292.179387 
L 289.086937 291.680858 
L 291.076034 291.52537 
L 293.065131 291.75436 
L 295.054228 292.383521 
L 297.043325 293.405954 
L 299.032422 294.62951 
L 300.02697 294.810348 
L 301.021519 291.295297 
L 302.016067 263.89238 
L 303.010616 167.395497 
L 304.005164 53.568 
L 304.999713 70.614392 
L 305.994261 173.455088 
L 306.98881 244.293669 
L 307.983358 269.035273 
L 308.977907 277.5298 
L 309.972455 282.215764 
L 310.967004 285.344365 
L 311.961552 287.667652 
L 312.956101 289.504879 
L 313.950649 291.00833 
L 314.945198 292.253898 
L 315.939746 293.277093 
L 316.934295 294.09228 
L 317.928843 294.703512 
L 318.923392 295.111147 
L 319.91794 295.317001 
L 320.912489 295.327364 
L 321.907037 295.1539 
L 322.901586 294.812566 
L 323.896134 294.320433 
L 324.890683 293.690752 
L 325.885231 292.925668 
L 326.87978 292.003668 
L 327.874328 290.85526 
L 328.868877 289.295601 
L 329.863425 286.772225 
L 330.857974 281.623079 
L 332.847071 259.990876 
L 333.84162 262.247583 
L 334.836168 278.803658 
L 335.830717 291.417908 
L 336.825265 295.00116 
L 337.819814 295.119331 
L 340.803459 294.461765 
L 342.792556 294.238769 
L 345.776202 294.206098 
L 348.759847 294.460804 
L 352.738041 295.141636 
L 353.73259 294.524295 
L 354.727138 290.361958 
L 355.721687 279.641041 
L 356.716235 271.374163 
L 357.710784 277.07334 
L 358.705332 286.201534 
L 359.699881 290.606509 
L 360.694429 292.077559 
L 361.688978 292.888177 
L 363.678075 293.877832 
L 365.667172 294.5462 
L 367.656269 295.042656 
L 369.645366 295.345346 
L 371.634463 295.343187 
L 372.629011 295.179606 
L 373.62356 294.882045 
L 374.618108 294.433967 
L 375.612657 293.820033 
L 376.607205 293.022354 
L 377.601754 292.022098 
L 379.590851 289.617689 
L 380.5854 288.865679 
L 381.579948 289.245072 
L 382.574497 290.84839 
L 383.569045 292.835691 
L 384.563594 294.31087 
L 385.558142 295.066187 
L 386.552691 295.343044 
L 388.541788 295.351761 
L 396.498176 294.872881 
L 398.487273 294.80158 
L 398.487273 294.80158 
" clip-path="url(#pa4d1192448)" style="fill: none; stroke: #1f77b4; stroke-width: 1.5; stroke-linecap: square"/>
   </g>
   <g id="line2d_14">
    <path d="M 374.773997 295.488 
L 374.012069 295.395597 
L 372.492207 295.424642 
L 370.222343 295.007772 
L 368.715679 294.774442 
L 367.214247 291.960729 
L 366.465485 294.239082 
L 365.71802 294.850405 
L 364.971849 295.249464 
L 363.483377 295.397088 
L 359.048678 295.219834 
L 358.314007 295.41311 
L 355.3879 295.305577 
L 354.659502 295.218403 
L 353.932349 294.818548 
L 353.206439 294.025639 
L 352.481767 292.708762 
L 351.75833 291.932608 
L 351.036126 292.316442 
L 348.876878 294.066376 
L 348.159572 294.535724 
L 346.728608 294.900375 
L 341.052933 295.384404 
L 340.348844 295.412731 
L 336.846089 294.631585 
L 336.149055 294.395379 
L 335.453187 293.961794 
L 334.064936 292.84044 
L 333.372548 292.328575 
L 332.681313 291.020843 
L 331.991229 288.345206 
L 331.302294 286.326331 
L 330.614504 281.102622 
L 329.927856 271.80836 
L 329.242349 260.372083 
L 328.557977 256.925414 
L 327.192635 278.187841 
L 325.831805 290.688516 
L 325.153076 293.065127 
L 324.475467 294.306479 
L 323.798975 294.694357 
L 323.123598 295.281582 
L 322.449332 295.468522 
L 321.104125 295.362756 
L 313.124826 294.468345 
L 311.810067 294.44707 
L 309.84592 294.137715 
L 309.193325 294.304233 
L 307.8913 294.472503 
L 306.593479 294.842251 
L 305.946138 294.790034 
L 305.29984 294.195403 
L 304.654584 291.182583 
L 304.010365 275.603163 
L 303.367182 271.993124 
L 302.725032 281.360391 
L 302.083914 288.138297 
L 301.443823 290.060107 
L 300.804758 291.233185 
L 300.166717 291.834922 
L 297.624735 293.240482 
L 293.215102 294.496611 
L 291.340223 294.649544 
L 290.095244 294.965814 
L 288.854195 295.215087 
L 286.383815 295.370263 
L 284.54121 295.378021 
L 278.461379 294.663757 
L 277.256759 294.476701 
L 273.069937 294.256123 
L 271.882015 294.141014 
L 271.28943 294.312561 
L 268.340165 294.505332 
L 267.753031 294.699042 
L 266.581463 294.814678 
L 263.088224 295.305072 
L 259.626838 295.300555 
L 259.053006 295.066404 
L 257.907954 295.01098 
L 256.196871 294.344055 
L 255.628235 294.185857 
L 255.060457 294.201884 
L 254.493537 293.953655 
L 253.362259 293.245801 
L 252.797898 293.078507 
L 251.671722 292.479191 
L 251.109904 292.377056 
L 250.548928 292.057871 
L 249.988795 292.105446 
L 249.429501 291.956719 
L 248.313425 291.414586 
L 247.200686 291.492429 
L 246.645563 291.071471 
L 246.091268 290.99725 
L 245.537801 291.58137 
L 244.985158 290.947631 
L 244.433338 290.547499 
L 243.882339 291.473466 
L 242.234251 292.352608 
L 241.139598 293.339143 
L 240.593488 293.745712 
L 240.048186 294.511403 
L 239.503691 295.002342 
L 238.960001 294.58735 
L 238.417114 294.950338 
L 237.875028 294.927598 
L 237.333742 295.190985 
L 236.793253 294.677052 
L 236.253561 293.915499 
L 235.714663 293.519429 
L 235.176557 292.039917 
L 234.639242 289.72051 
L 234.102716 288.444521 
L 233.566977 287.688986 
L 233.032024 285.887265 
L 232.497855 283.465542 
L 231.964468 282.362597 
L 231.431861 281.764171 
L 230.900033 280.060032 
L 230.368981 277.918741 
L 229.309203 275.923227 
L 228.252512 274.580002 
L 227.72532 274.078226 
L 227.198895 272.863083 
L 226.673235 272.083669 
L 226.148339 272.310033 
L 225.624204 272.105814 
L 224.578214 270.426355 
L 224.056355 270.018229 
L 223.535251 269.069858 
L 223.014901 268.486747 
L 222.495303 268.842719 
L 221.976455 268.374471 
L 221.458355 268.304622 
L 220.424396 267.641313 
L 219.908534 266.77984 
L 219.393413 266.593834 
L 218.879033 266.61867 
L 218.365392 265.755903 
L 217.852489 265.445979 
L 217.340321 265.4897 
L 216.828888 265.208492 
L 216.318187 264.438599 
L 215.298978 264.159202 
L 214.790466 264.864162 
L 214.282681 263.504172 
L 213.77562 263.438462 
L 213.269283 263.227621 
L 212.763668 262.891828 
L 212.258772 262.331482 
L 211.251137 262.497827 
L 210.748393 262.768427 
L 210.246364 262.601307 
L 209.745047 261.659636 
L 209.244441 261.701028 
L 208.744545 260.952349 
L 207.746875 260.895435 
L 207.249099 260.791437 
L 206.255655 260.283349 
L 205.759985 261.474665 
L 205.265013 260.520577 
L 204.77074 260.867236 
L 204.277162 259.802683 
L 203.78428 260.144944 
L 203.29209 260.186336 
L 202.800593 260.673728 
L 202.309785 260.264981 
L 201.819667 259.366255 
L 201.330236 259.388244 
L 200.84149 259.660656 
L 200.35343 259.544758 
L 199.866052 259.621592 
L 199.379356 259.821568 
L 198.893341 259.315808 
L 198.408004 259.502073 
L 197.923344 258.932673 
L 197.439361 258.980015 
L 196.956052 259.458094 
L 196.473416 259.055038 
L 195.510158 259.321241 
L 195.029533 259.063058 
L 194.549575 259.688855 
L 193.591658 259.190338 
L 193.113694 259.255014 
L 192.159753 259.634269 
L 191.683772 259.394453 
L 191.208448 259.517336 
L 190.25977 259.39704 
L 189.313707 260.325 
L 188.841652 260.025424 
L 188.370248 259.435069 
L 187.899492 260.060349 
L 187.429383 259.932551 
L 186.959919 259.596498 
L 186.491101 259.569076 
L 186.022925 260.095532 
L 185.088497 260.045862 
L 184.622243 259.680835 
L 184.156627 260.545154 
L 183.691647 260.632853 
L 182.763591 259.903059 
L 182.300513 260.5599 
L 181.838066 261.447502 
L 180.915061 261.100843 
L 179.994566 261.443363 
L 179.535256 261.50364 
L 178.618507 262.226191 
L 178.161064 261.974992 
L 177.704241 262.163585 
L 177.248037 262.0213 
L 176.792451 262.099945 
L 176.33748 262.704528 
L 175.883124 262.478424 
L 174.976252 263.274705 
L 174.523733 263.07059 
L 174.071824 263.540649 
L 173.169831 263.904641 
L 172.719745 263.297988 
L 172.270263 263.79521 
L 171.821385 264.036578 
L 171.373109 263.649303 
L 170.925435 264.388928 
L 170.478361 264.114964 
L 170.031886 264.248971 
L 169.586008 265.086644 
L 169.140727 265.294122 
L 168.696042 264.358143 
L 168.25195 263.114828 
L 167.808451 264.201112 
L 167.365544 266.492424 
L 166.481501 266.094283 
L 166.040362 266.063757 
L 165.59981 266.271752 
L 165.159844 267.6558 
L 164.720463 267.643642 
L 164.281665 267.054839 
L 163.843449 267.075276 
L 163.405815 267.533694 
L 162.968761 267.797051 
L 162.096387 268.793049 
L 161.661066 268.11784 
L 160.792149 268.991213 
L 160.358551 269.082017 
L 159.925525 268.817884 
L 159.49307 269.256899 
L 159.061184 269.46774 
L 158.629867 269.39815 
L 158.199118 269.09547 
L 157.768935 269.683367 
L 157.339317 270.56877 
L 156.053845 270.734856 
L 155.626478 271.083041 
L 154.773421 271.419688 
L 154.347729 271.704181 
L 153.922594 271.669257 
L 153.073988 272.359625 
L 152.650516 271.936521 
L 152.227596 272.693815 
L 151.805227 272.384228 
L 150.962137 273.396368 
L 150.541414 273.373836 
L 148.863981 274.254763 
L 148.445982 274.095533 
L 148.028524 274.519 
L 147.611606 274.696262 
L 147.195228 274.45373 
L 146.779388 275.162854 
L 146.364085 274.830269 
L 145.949319 275.01868 
L 145.535088 275.630818 
L 144.708227 275.61615 
L 144.295595 276.265436 
L 143.883494 276.04373 
L 143.471923 276.404799 
L 143.060881 276.597091 
L 142.650368 277.007519 
L 142.240381 276.914698 
L 141.013572 277.655642 
L 140.605683 278.00776 
L 140.198316 277.79353 
L 139.79147 277.937885 
L 139.385143 278.526687 
L 138.169274 278.755017 
L 137.765018 279.585523 
L 137.361276 279.432114 
L 136.555334 279.845259 
L 135.751441 280.042466 
L 135.350259 280.142532 
L 134.949587 280.460552 
L 134.549423 280.603873 
L 134.149766 280.374121 
L 132.953829 281.19534 
L 132.556191 281.124663 
L 132.159056 281.189623 
L 131.366288 282.018215 
L 130.970654 281.882915 
L 130.575519 282.319343 
L 129.393095 282.636044 
L 128.999945 282.639071 
L 127.432273 283.350472 
L 127.041583 283.845858 
L 126.651382 283.403247 
L 126.26167 283.674287 
L 125.872445 284.23171 
L 125.483707 284.014349 
L 124.707686 284.639525 
L 124.320401 284.477967 
L 123.9336 284.524662 
L 123.54728 284.731907 
L 123.161442 284.618467 
L 122.776084 285.143914 
L 122.391205 285.172268 
L 122.006804 284.93641 
L 121.622882 285.245609 
L 121.239435 285.737063 
L 120.856465 285.595399 
L 120.473969 286.206294 
L 120.091947 286.043391 
L 119.710399 286.100382 
L 119.329322 286.536008 
L 118.568582 286.479327 
L 117.809721 286.963304 
L 117.430993 286.847148 
L 117.052731 286.86818 
L 116.674936 287.197273 
L 116.297606 287.186744 
L 115.92074 287.648551 
L 115.544338 287.525254 
L 115.168399 287.572156 
L 114.792921 287.927792 
L 114.417904 288.073311 
L 113.295612 288.077373 
L 112.549707 288.544741 
L 111.434266 288.634743 
L 111.06336 288.942494 
L 110.692907 288.837487 
L 109.953356 288.955506 
L 109.215605 289.456868 
L 108.11234 289.5091 
L 107.379061 289.876481 
L 106.282475 290.062771 
L 105.917831 290.359139 
L 105.553628 290.240628 
L 104.826543 290.536556 
L 104.463659 290.34936 
L 103.739205 290.799111 
L 103.016496 290.79774 
L 102.655794 291.029613 
L 102.295527 290.960023 
L 101.935692 291.145537 
L 101.57629 291.14251 
L 101.21732 291.354127 
L 100.858781 291.186024 
L 100.500672 291.542177 
L 100.142992 291.273076 
L 99.428918 291.547377 
L 99.072522 291.552033 
L 98.716552 291.731287 
L 98.361007 291.664387 
L 98.005888 291.746809 
L 97.651192 291.607214 
L 96.94307 292.014461 
L 96.589642 291.996196 
L 96.236635 292.298747 
L 95.884048 291.91794 
L 95.531881 291.91781 
L 94.477889 292.510105 
L 94.127392 292.038986 
L 93.777311 292.354471 
L 93.427645 292.336569 
L 93.078394 292.766685 
L 92.729556 292.68791 
L 92.38113 292.322392 
L 92.033117 292.933935 
L 90.991543 293.05294 
L 90.645171 293.213621 
L 89.608503 293.292126 
L 88.231963 293.440771 
L 87.546117 293.492275 
L 76.787495 294.53398 
L 74.814257 294.683695 
L 73.832727 294.682961 
L 73.832727 294.682961 
" clip-path="url(#pa4d1192448)" style="fill: none; stroke: #ff7f0e; stroke-width: 1.5; stroke-linecap: square"/>
   </g>
   <g id="patch_3">
    <path d="M 57.6 307.584 
L 57.6 41.472 
" style="fill: none; stroke: #000000; stroke-width: 0.8; stroke-linejoin: miter; stroke-linecap: square"/>
   </g>
   <g id="patch_4">
    <path d="M 414.72 307.584 
L 414.72 41.472 
" style="fill: none; stroke: #000000; stroke-width: 0.8; stroke-linejoin: miter; stroke-linecap: square"/>
   </g>
   <g id="patch_5">
    <path d="M 57.6 307.584 
L 414.72 307.584 
" style="fill: none; stroke: #000000; stroke-width: 0.8; stroke-linejoin: miter; stroke-linecap: square"/>
   </g>
   <g id="patch_6">
    <path d="M 57.6 41.472 
L 414.72 41.472 
" style="fill: none; stroke: #000000; stroke-width: 0.8; stroke-linejoin: miter; stroke-linecap: square"/>
   </g>
   <g id="text_16">
    <!-- O$_2$ $^3\Sigma_u^-$ Rydberg-valence interaction -->
    <g transform="translate(127.44 35.472) scale(0.12 -0.12)">
     <defs>
      <path id="DejaVuSans-4f" d="M 2522 4238 
Q 1834 4238 1429 3725 
Q 1025 3213 1025 2328 
Q 1025 1447 1429 934 
Q 1834 422 2522 422 
Q 3209 422 3611 934 
Q 4013 1447 4013 2328 
Q 4013 3213 3611 3725 
Q 3209 4238 2522 4238 
z
M 2522 4750 
Q 3503 4750 4090 4092 
Q 4678 3434 4678 2328 
Q 4678 1225 4090 567 
Q 3503 -91 2522 -91 
Q 1538 -91 948 565 
Q 359 1222 359 2328 
Q 359 3434 948 4092 
Q 1538 4750 2522 4750 
z
" transform="scale(0.015625)"/>
      <path id="DejaVuSans-33" d="M 2597 2516 
Q 3050 2419 3304 2112 
Q 3559 1806 3559 1356 
Q 3559 666 3084 287 
Q 2609 -91 1734 -91 
Q 1441 -91 1130 -33 
Q 819 25 488 141 
L 488 750 
Q 750 597 1062 519 
Q 1375 441 1716 441 
Q 2309 441 2620 675 
Q 2931 909 2931 1356 
Q 2931 1769 2642 2001 
Q 2353 2234 1838 2234 
L 1294 2234 
L 1294 2753 
L 1863 2753 
Q 2328 2753 2575 2939 
Q 2822 3125 2822 3475 
Q 2822 3834 2567 4026 
Q 2313 4219 1838 4219 
Q 1578 4219 1281 4162 
Q 984 4106 628 3988 
L 628 4550 
Q 988 4650 1302 4700 
Q 1616 4750 1894 4750 
Q 2613 4750 3031 4423 
Q 3450 4097 3450 3541 
Q 3450 3153 3228 2886 
Q 3006 2619 2597 2516 
z
" transform="scale(0.015625)"/>
      <path id="DejaVuSans-3a3" d="M 1353 531 
L 3634 531 
L 3634 0 
L 628 0 
L 628 531 
L 2125 2481 
L 628 4134 
L 628 4666 
L 3578 4666 
L 3578 4134 
L 1353 4134 
L 2850 2494 
L 1353 531 
z
" transform="scale(0.015625)"/>
      <path id="DejaVuSans-Oblique-75" d="M 428 1388 
L 838 3500 
L 1416 3500 
L 1006 1409 
Q 975 1256 961 1147 
Q 947 1038 947 966 
Q 947 700 1109 554 
Q 1272 409 1569 409 
Q 2031 409 2368 721 
Q 2706 1034 2809 1563 
L 3194 3500 
L 3769 3500 
L 3091 0 
L 2516 0 
L 2631 550 
Q 2388 244 2052 76 
Q 1716 -91 1338 -91 
Q 878 -91 622 161 
Q 366 413 366 863 
Q 366 956 381 1097 
Q 397 1238 428 1388 
z
" transform="scale(0.015625)"/>
      <path id="DejaVuSans-52" d="M 2841 2188 
Q 3044 2119 3236 1894 
Q 3428 1669 3622 1275 
L 4263 0 
L 3584 0 
L 2988 1197 
Q 2756 1666 2539 1819 
Q 2322 1972 1947 1972 
L 1259 1972 
L 1259 0 
L 628 0 
L 628 4666 
L 2053 4666 
Q 2853 4666 3247 4331 
Q 3641 3997 3641 3322 
Q 3641 2881 3436 2590 
Q 3231 2300 2841 2188 
z
M 1259 4147 
L 1259 2491 
L 2053 2491 
Q 2509 2491 2742 2702 
Q 2975 2913 2975 3322 
Q 2975 3731 2742 3939 
Q 2509 4147 2053 4147 
L 1259 4147 
z
" transform="scale(0.015625)"/>
      <path id="DejaVuSans-79" d="M 2059 -325 
Q 1816 -950 1584 -1140 
Q 1353 -1331 966 -1331 
L 506 -1331 
L 506 -850 
L 844 -850 
Q 1081 -850 1212 -737 
Q 1344 -625 1503 -206 
L 1606 56 
L 191 3500 
L 800 3500 
L 1894 763 
L 2988 3500 
L 3597 3500 
L 2059 -325 
z
" transform="scale(0.015625)"/>
      <path id="DejaVuSans-64" d="M 2906 2969 
L 2906 4863 
L 3481 4863 
L 3481 0 
L 2906 0 
L 2906 525 
Q 2725 213 2448 61 
Q 2172 -91 1784 -91 
Q 1150 -91 751 415 
Q 353 922 353 1747 
Q 353 2572 751 3078 
Q 1150 3584 1784 3584 
Q 2172 3584 2448 3432 
Q 2725 3281 2906 2969 
z
M 947 1747 
Q 947 1113 1208 752 
Q 1469 391 1925 391 
Q 2381 391 2643 752 
Q 2906 1113 2906 1747 
Q 2906 2381 2643 2742 
Q 2381 3103 1925 3103 
Q 1469 3103 1208 2742 
Q 947 2381 947 1747 
z
" transform="scale(0.015625)"/>
      <path id="DejaVuSans-67" d="M 2906 1791 
Q 2906 2416 2648 2759 
Q 2391 3103 1925 3103 
Q 1463 3103 1205 2759 
Q 947 2416 947 1791 
Q 947 1169 1205 825 
Q 1463 481 1925 481 
Q 2391 481 2648 825 
Q 2906 1169 2906 1791 
z
M 3481 434 
Q 3481 -459 3084 -895 
Q 2688 -1331 1869 -1331 
Q 1566 -1331 1297 -1286 
Q 1028 -1241 775 -1147 
L 775 -588 
Q 1028 -725 1275 -790 
Q 1522 -856 1778 -856 
Q 2344 -856 2625 -561 
Q 2906 -266 2906 331 
L 2906 616 
Q 2728 306 2450 153 
Q 2172 0 1784 0 
Q 1141 0 747 490 
Q 353 981 353 1791 
Q 353 2603 747 3093 
Q 1141 3584 1784 3584 
Q 2172 3584 2450 3431 
Q 2728 3278 2906 2969 
L 2906 3500 
L 3481 3500 
L 3481 434 
z
" transform="scale(0.015625)"/>
      <path id="DejaVuSans-2d" d="M 313 2009 
L 1997 2009 
L 1997 1497 
L 313 1497 
L 313 2009 
z
" transform="scale(0.015625)"/>
      <path id="DejaVuSans-6c" d="M 603 4863 
L 1178 4863 
L 1178 0 
L 603 0 
L 603 4863 
z
" transform="scale(0.015625)"/>
     </defs>
     <use xlink:href="#DejaVuSans-4f" transform="translate(0 0.765625)"/>
     <use xlink:href="#DejaVuSans-32" transform="translate(79.667969 -15.640625) scale(0.7)"/>
     <use xlink:href="#DejaVuSans-20" transform="translate(126.938477 0.765625)"/>
     <use xlink:href="#DejaVuSans-33" transform="translate(159.682617 39.046875) scale(0.7)"/>
     <use xlink:href="#DejaVuSans-3a3" transform="translate(206.953125 0.765625)"/>
     <use xlink:href="#DejaVuSans-2212" transform="translate(284.731445 39.046875) scale(0.7)"/>
     <use xlink:href="#DejaVuSans-Oblique-75" transform="translate(271.09375 -26.578125) scale(0.7)"/>
     <use xlink:href="#DejaVuSans-20" transform="translate(359.755859 0.765625)"/>
     <use xlink:href="#DejaVuSans-52" transform="translate(391.542969 0.765625)"/>
     <use xlink:href="#DejaVuSans-79" transform="translate(461.025391 0.765625)"/>
     <use xlink:href="#DejaVuSans-64" transform="translate(520.205078 0.765625)"/>
     <use xlink:href="#DejaVuSans-62" transform="translate(583.681641 0.765625)"/>
     <use xlink:href="#DejaVuSans-65" transform="translate(647.158203 0.765625)"/>
     <use xlink:href="#DejaVuSans-72" transform="translate(708.681641 0.765625)"/>
     <use xlink:href="#DejaVuSans-67" transform="translate(749.794922 0.765625)"/>
     <use xlink:href="#DejaVuSans-2d" transform="translate(813.271484 0.765625)"/>
     <use xlink:href="#DejaVuSans-76" transform="translate(849.355469 0.765625)"/>
     <use xlink:href="#DejaVuSans-61" transform="translate(908.535156 0.765625)"/>
     <use xlink:href="#DejaVuSans-6c" transform="translate(969.814453 0.765625)"/>
     <use xlink:href="#DejaVuSans-65" transform="translate(997.597656 0.765625)"/>
     <use xlink:href="#DejaVuSans-6e" transform="translate(1059.121094 0.765625)"/>
     <use xlink:href="#DejaVuSans-63" transform="translate(1122.5 0.765625)"/>
     <use xlink:href="#DejaVuSans-65" transform="translate(1177.480469 0.765625)"/>
     <use xlink:href="#DejaVuSans-20" transform="translate(1239.003906 0.765625)"/>
     <use xlink:href="#DejaVuSans-69" transform="translate(1270.791016 0.765625)"/>
     <use xlink:href="#DejaVuSans-6e" transform="translate(1298.574219 0.765625)"/>
     <use xlink:href="#DejaVuSans-74" transform="translate(1361.953125 0.765625)"/>
     <use xlink:href="#DejaVuSans-65" transform="translate(1401.162109 0.765625)"/>
     <use xlink:href="#DejaVuSans-72" transform="translate(1462.685547 0.765625)"/>
     <use xlink:href="#DejaVuSans-61" transform="translate(1503.798828 0.765625)"/>
     <use xlink:href="#DejaVuSans-63" transform="translate(1565.078125 0.765625)"/>
     <use xlink:href="#DejaVuSans-74" transform="translate(1620.058594 0.765625)"/>
     <use xlink:href="#DejaVuSans-69" transform="translate(1659.267578 0.765625)"/>
     <use xlink:href="#DejaVuSans-6f" transform="translate(1687.050781 0.765625)"/>
     <use xlink:href="#DejaVuSans-6e" transform="translate(1748.232422 0.765625)"/>
    </g>
   </g>
  </g>
 </g>
 <defs>
  <clipPath id="pa4d1192448">
   <rect x="57.6" y="41.472" width="357.12" height="266.112"/>
  </clipPath>
 </defs>
</svg>
