<?xml version="1.0" encoding="utf-8" standalone="no"?>
<!DOCTYPE svg PUBLIC "-//W3C//DTD SVG 1.1//EN"
  "http://www.w3.org/Graphics/SVG/1.1/DTD/svg11.dtd">
<svg xmlns:xlink="http://www.w3.org/1999/xlink" width="460.8pt" height="345.6pt" viewBox="0 0 460.8 345.6" xmlns="http://www.w3.org/2000/svg" version="1.1">
 <metadata>
  <rdf:RDF xmlns:dc="http://purl.org/dc/elements/1.1/" xmlns:cc="http://creativecommons.org/ns#" xmlns:rdf="http://www.w3.org/1999/02/22-rdf-syntax-ns#">
   <cc:Work>
    <dc:type rdf:resource="http://purl.org/dc/dcmitype/StillImage"/>
    <dc:date>2023-03-06T09:18:27.814837</dc:date>
    <dc:format>image/svg+xml</dc:format>
    <dc:creator>
     <cc:Agent>
      <dc:title>Matplotlib v3.7.0, https://matplotlib.org/</dc:title>
     </cc:Agent>
    </dc:creator>
   </cc:Work>
  </rdf:RDF>
 </metadata>
 <defs>
  <style type="text/css">*{stroke-linejoin: round; stroke-linecap: butt}</style>
 </defs>
 <g id="figure_1">
  <g id="patch_1">
   <path d="M 0 345.6 
L 460.8 345.6 
L 460.8 0 
L 0 0 
z
" style="fill: #ffffff"/>
  </g>
  <g id="axes_1">
   <g id="patch_2">
    <path d="M 31.46274 311.621635 
L 214.663823 311.621635 
L 214.663823 35.559157 
L 31.46274 35.559157 
z
" style="fill: #ffffff"/>
   </g>
   <g id="matplotlib.axis_1">
    <g id="xtick_1">
     <g id="line2d_1">
      <defs>
       <path id="m71ebdd62bc" d="M 0 0 
L 0 3.5 
" style="stroke: #000000; stroke-width: 0.8"/>
      </defs>
      <g>
       <use xlink:href="#m71ebdd62bc" x="48.117384" y="311.621635" style="stroke: #000000; stroke-width: 0.8"/>
      </g>
     </g>
     <g id="text_1">
      <!-- 1.0 -->
      <g transform="translate(40.165821 326.220072) scale(0.1 -0.1)">
       <defs>
        <path id="DejaVuSans-31" d="M 794 531 
L 1825 531 
L 1825 4091 
L 703 3866 
L 703 4441 
L 1819 4666 
L 2450 4666 
L 2450 531 
L 3481 531 
L 3481 0 
L 794 0 
L 794 531 
z
" transform="scale(0.015625)"/>
        <path id="DejaVuSans-2e" d="M 684 794 
L 1344 794 
L 1344 0 
L 684 0 
L 684 794 
z
" transform="scale(0.015625)"/>
        <path id="DejaVuSans-30" d="M 2034 4250 
Q 1547 4250 1301 3770 
Q 1056 3291 1056 2328 
Q 1056 1369 1301 889 
Q 1547 409 2034 409 
Q 2525 409 2770 889 
Q 3016 1369 3016 2328 
Q 3016 3291 2770 3770 
Q 2525 4250 2034 4250 
z
M 2034 4750 
Q 2819 4750 3233 4129 
Q 3647 3509 3647 2328 
Q 3647 1150 3233 529 
Q 2819 -91 2034 -91 
Q 1250 -91 836 529 
Q 422 1150 422 2328 
Q 422 3509 836 4129 
Q 1250 4750 2034 4750 
z
" transform="scale(0.015625)"/>
       </defs>
       <use xlink:href="#DejaVuSans-31"/>
       <use xlink:href="#DejaVuSans-2e" x="63.623047"/>
       <use xlink:href="#DejaVuSans-30" x="95.410156"/>
      </g>
     </g>
    </g>
    <g id="xtick_2">
     <g id="line2d_2">
      <g>
       <use xlink:href="#m71ebdd62bc" x="89.753994" y="311.621635" style="stroke: #000000; stroke-width: 0.8"/>
      </g>
     </g>
     <g id="text_2">
      <!-- 1.5 -->
      <g transform="translate(81.802431 326.220072) scale(0.1 -0.1)">
       <defs>
        <path id="DejaVuSans-35" d="M 691 4666 
L 3169 4666 
L 3169 4134 
L 1269 4134 
L 1269 2991 
Q 1406 3038 1543 3061 
Q 1681 3084 1819 3084 
Q 2600 3084 3056 2656 
Q 3513 2228 3513 1497 
Q 3513 744 3044 326 
Q 2575 -91 1722 -91 
Q 1428 -91 1123 -41 
Q 819 9 494 109 
L 494 744 
Q 775 591 1075 516 
Q 1375 441 1709 441 
Q 2250 441 2565 725 
Q 2881 1009 2881 1497 
Q 2881 1984 2565 2268 
Q 2250 2553 1709 2553 
Q 1456 2553 1204 2497 
Q 953 2441 691 2322 
L 691 4666 
z
" transform="scale(0.015625)"/>
       </defs>
       <use xlink:href="#DejaVuSans-31"/>
       <use xlink:href="#DejaVuSans-2e" x="63.623047"/>
       <use xlink:href="#DejaVuSans-35" x="95.410156"/>
      </g>
     </g>
    </g>
    <g id="xtick_3">
     <g id="line2d_3">
      <g>
       <use xlink:href="#m71ebdd62bc" x="131.390603" y="311.621635" style="stroke: #000000; stroke-width: 0.8"/>
      </g>
     </g>
     <g id="text_3">
      <!-- 2.0 -->
      <g transform="translate(123.439041 326.220072) scale(0.1 -0.1)">
       <defs>
        <path id="DejaVuSans-32" d="M 1228 531 
L 3431 531 
L 3431 0 
L 469 0 
L 469 531 
Q 828 903 1448 1529 
Q 2069 2156 2228 2338 
Q 2531 2678 2651 2914 
Q 2772 3150 2772 3378 
Q 2772 3750 2511 3984 
Q 2250 4219 1831 4219 
Q 1534 4219 1204 4116 
Q 875 4013 500 3803 
L 500 4441 
Q 881 4594 1212 4672 
Q 1544 4750 1819 4750 
Q 2544 4750 2975 4387 
Q 3406 4025 3406 3419 
Q 3406 3131 3298 2873 
Q 3191 2616 2906 2266 
Q 2828 2175 2409 1742 
Q 1991 1309 1228 531 
z
" transform="scale(0.015625)"/>
       </defs>
       <use xlink:href="#DejaVuSans-32"/>
       <use xlink:href="#DejaVuSans-2e" x="63.623047"/>
       <use xlink:href="#DejaVuSans-30" x="95.410156"/>
      </g>
     </g>
    </g>
    <g id="xtick_4">
     <g id="line2d_4">
      <g>
       <use xlink:href="#m71ebdd62bc" x="173.027213" y="311.621635" style="stroke: #000000; stroke-width: 0.8"/>
      </g>
     </g>
     <g id="text_4">
      <!-- 2.5 -->
      <g transform="translate(165.07565 326.220072) scale(0.1 -0.1)">
       <use xlink:href="#DejaVuSans-32"/>
       <use xlink:href="#DejaVuSans-2e" x="63.623047"/>
       <use xlink:href="#DejaVuSans-35" x="95.410156"/>
      </g>
     </g>
    </g>
    <g id="xtick_5">
     <g id="line2d_5">
      <g>
       <use xlink:href="#m71ebdd62bc" x="214.663823" y="311.621635" style="stroke: #000000; stroke-width: 0.8"/>
      </g>
     </g>
     <g id="text_5">
      <!-- 3.0 -->
      <g transform="translate(206.71226 326.220072) scale(0.1 -0.1)">
       <defs>
        <path id="DejaVuSans-33" d="M 2597 2516 
Q 3050 2419 3304 2112 
Q 3559 1806 3559 1356 
Q 3559 666 3084 287 
Q 2609 -91 1734 -91 
Q 1441 -91 1130 -33 
Q 819 25 488 141 
L 488 750 
Q 750 597 1062 519 
Q 1375 441 1716 441 
Q 2309 441 2620 675 
Q 2931 909 2931 1356 
Q 2931 1769 2642 2001 
Q 2353 2234 1838 2234 
L 1294 2234 
L 1294 2753 
L 1863 2753 
Q 2328 2753 2575 2939 
Q 2822 3125 2822 3475 
Q 2822 3834 2567 4026 
Q 2313 4219 1838 4219 
Q 1578 4219 1281 4162 
Q 984 4106 628 3988 
L 628 4550 
Q 988 4650 1302 4700 
Q 1616 4750 1894 4750 
Q 2613 4750 3031 4423 
Q 3450 4097 3450 3541 
Q 3450 3153 3228 2886 
Q 3006 2619 2597 2516 
z
" transform="scale(0.015625)"/>
       </defs>
       <use xlink:href="#DejaVuSans-33"/>
       <use xlink:href="#DejaVuSans-2e" x="63.623047"/>
       <use xlink:href="#DejaVuSans-30" x="95.410156"/>
      </g>
     </g>
    </g>
    <g id="text_6">
     <!-- internuclear distance $/$ $\AA$ -->
     <g transform="translate(61.663281 340.520072) scale(0.1 -0.1)">
      <defs>
       <path id="DejaVuSans-69" d="M 603 3500 
L 1178 3500 
L 1178 0 
L 603 0 
L 603 3500 
z
M 603 4863 
L 1178 4863 
L 1178 4134 
L 603 4134 
L 603 4863 
z
" transform="scale(0.015625)"/>
       <path id="DejaVuSans-6e" d="M 3513 2113 
L 3513 0 
L 2938 0 
L 2938 2094 
Q 2938 2591 2744 2837 
Q 2550 3084 2163 3084 
Q 1697 3084 1428 2787 
Q 1159 2491 1159 1978 
L 1159 0 
L 581 0 
L 581 3500 
L 1159 3500 
L 1159 2956 
Q 1366 3272 1645 3428 
Q 1925 3584 2291 3584 
Q 2894 3584 3203 3211 
Q 3513 2838 3513 2113 
z
" transform="scale(0.015625)"/>
       <path id="DejaVuSans-74" d="M 1172 4494 
L 1172 3500 
L 2356 3500 
L 2356 3053 
L 1172 3053 
L 1172 1153 
Q 1172 725 1289 603 
Q 1406 481 1766 481 
L 2356 481 
L 2356 0 
L 1766 0 
Q 1100 0 847 248 
Q 594 497 594 1153 
L 594 3053 
L 172 3053 
L 172 3500 
L 594 3500 
L 594 4494 
L 1172 4494 
z
" transform="scale(0.015625)"/>
       <path id="DejaVuSans-65" d="M 3597 1894 
L 3597 1613 
L 953 1613 
Q 991 1019 1311 708 
Q 1631 397 2203 397 
Q 2534 397 2845 478 
Q 3156 559 3463 722 
L 3463 178 
Q 3153 47 2828 -22 
Q 2503 -91 2169 -91 
Q 1331 -91 842 396 
Q 353 884 353 1716 
Q 353 2575 817 3079 
Q 1281 3584 2069 3584 
Q 2775 3584 3186 3129 
Q 3597 2675 3597 1894 
z
M 3022 2063 
Q 3016 2534 2758 2815 
Q 2500 3097 2075 3097 
Q 1594 3097 1305 2825 
Q 1016 2553 972 2059 
L 3022 2063 
z
" transform="scale(0.015625)"/>
       <path id="DejaVuSans-72" d="M 2631 2963 
Q 2534 3019 2420 3045 
Q 2306 3072 2169 3072 
Q 1681 3072 1420 2755 
Q 1159 2438 1159 1844 
L 1159 0 
L 581 0 
L 581 3500 
L 1159 3500 
L 1159 2956 
Q 1341 3275 1631 3429 
Q 1922 3584 2338 3584 
Q 2397 3584 2469 3576 
Q 2541 3569 2628 3553 
L 2631 2963 
z
" transform="scale(0.015625)"/>
       <path id="DejaVuSans-75" d="M 544 1381 
L 544 3500 
L 1119 3500 
L 1119 1403 
Q 1119 906 1312 657 
Q 1506 409 1894 409 
Q 2359 409 2629 706 
Q 2900 1003 2900 1516 
L 2900 3500 
L 3475 3500 
L 3475 0 
L 2900 0 
L 2900 538 
Q 2691 219 2414 64 
Q 2138 -91 1772 -91 
Q 1169 -91 856 284 
Q 544 659 544 1381 
z
M 1991 3584 
L 1991 3584 
z
" transform="scale(0.015625)"/>
       <path id="DejaVuSans-63" d="M 3122 3366 
L 3122 2828 
Q 2878 2963 2633 3030 
Q 2388 3097 2138 3097 
Q 1578 3097 1268 2742 
Q 959 2388 959 1747 
Q 959 1106 1268 751 
Q 1578 397 2138 397 
Q 2388 397 2633 464 
Q 2878 531 3122 666 
L 3122 134 
Q 2881 22 2623 -34 
Q 2366 -91 2075 -91 
Q 1284 -91 818 406 
Q 353 903 353 1747 
Q 353 2603 823 3093 
Q 1294 3584 2113 3584 
Q 2378 3584 2631 3529 
Q 2884 3475 3122 3366 
z
" transform="scale(0.015625)"/>
       <path id="DejaVuSans-6c" d="M 603 4863 
L 1178 4863 
L 1178 0 
L 603 0 
L 603 4863 
z
" transform="scale(0.015625)"/>
       <path id="DejaVuSans-61" d="M 2194 1759 
Q 1497 1759 1228 1600 
Q 959 1441 959 1056 
Q 959 750 1161 570 
Q 1363 391 1709 391 
Q 2188 391 2477 730 
Q 2766 1069 2766 1631 
L 2766 1759 
L 2194 1759 
z
M 3341 1997 
L 3341 0 
L 2766 0 
L 2766 531 
Q 2569 213 2275 61 
Q 1981 -91 1556 -91 
Q 1019 -91 701 211 
Q 384 513 384 1019 
Q 384 1609 779 1909 
Q 1175 2209 1959 2209 
L 2766 2209 
L 2766 2266 
Q 2766 2663 2505 2880 
Q 2244 3097 1772 3097 
Q 1472 3097 1187 3025 
Q 903 2953 641 2809 
L 641 3341 
Q 956 3463 1253 3523 
Q 1550 3584 1831 3584 
Q 2591 3584 2966 3190 
Q 3341 2797 3341 1997 
z
" transform="scale(0.015625)"/>
       <path id="DejaVuSans-20" transform="scale(0.015625)"/>
       <path id="DejaVuSans-64" d="M 2906 2969 
L 2906 4863 
L 3481 4863 
L 3481 0 
L 2906 0 
L 2906 525 
Q 2725 213 2448 61 
Q 2172 -91 1784 -91 
Q 1150 -91 751 415 
Q 353 922 353 1747 
Q 353 2572 751 3078 
Q 1150 3584 1784 3584 
Q 2172 3584 2448 3432 
Q 2725 3281 2906 2969 
z
M 947 1747 
Q 947 1113 1208 752 
Q 1469 391 1925 391 
Q 2381 391 2643 752 
Q 2906 1113 2906 1747 
Q 2906 2381 2643 2742 
Q 2381 3103 1925 3103 
Q 1469 3103 1208 2742 
Q 947 2381 947 1747 
z
" transform="scale(0.015625)"/>
       <path id="DejaVuSans-73" d="M 2834 3397 
L 2834 2853 
Q 2591 2978 2328 3040 
Q 2066 3103 1784 3103 
Q 1356 3103 1142 2972 
Q 928 2841 928 2578 
Q 928 2378 1081 2264 
Q 1234 2150 1697 2047 
L 1894 2003 
Q 2506 1872 2764 1633 
Q 3022 1394 3022 966 
Q 3022 478 2636 193 
Q 2250 -91 1575 -91 
Q 1294 -91 989 -36 
Q 684 19 347 128 
L 347 722 
Q 666 556 975 473 
Q 1284 391 1588 391 
Q 1994 391 2212 530 
Q 2431 669 2431 922 
Q 2431 1156 2273 1281 
Q 2116 1406 1581 1522 
L 1381 1569 
Q 847 1681 609 1914 
Q 372 2147 372 2553 
Q 372 3047 722 3315 
Q 1072 3584 1716 3584 
Q 2034 3584 2315 3537 
Q 2597 3491 2834 3397 
z
" transform="scale(0.015625)"/>
       <path id="DejaVuSans-2f" d="M 1625 4666 
L 2156 4666 
L 531 -594 
L 0 -594 
L 1625 4666 
z
" transform="scale(0.015625)"/>
       <path id="DejaVuSans-Oblique-c5" d="M 3188 5081 
Q 3188 5278 3048 5417 
Q 2909 5556 2713 5556 
Q 2513 5556 2377 5420 
Q 2241 5284 2241 5081 
Q 2241 4884 2377 4746 
Q 2513 4609 2713 4609 
Q 2909 4609 3048 4746 
Q 3188 4884 3188 5081 
z
M 2203 4397 
Q 2034 4513 1945 4689 
Q 1856 4866 1856 5081 
Q 1856 5438 2106 5689 
Q 2356 5941 2713 5941 
Q 3069 5941 3320 5689 
Q 3572 5438 3572 5081 
Q 3572 4834 3458 4643 
Q 3344 4453 3128 4341 
L 3938 0 
L 3278 0 
L 3084 1197 
L 984 1197 
L 325 0 
L -341 0 
L 2203 4397 
z
M 2584 4044 
L 1275 1722 
L 2988 1722 
L 2584 4044 
z
" transform="scale(0.015625)"/>
      </defs>
      <use xlink:href="#DejaVuSans-69" transform="translate(0 0.171875)"/>
      <use xlink:href="#DejaVuSans-6e" transform="translate(27.783203 0.171875)"/>
      <use xlink:href="#DejaVuSans-74" transform="translate(91.162109 0.171875)"/>
      <use xlink:href="#DejaVuSans-65" transform="translate(130.371094 0.171875)"/>
      <use xlink:href="#DejaVuSans-72" transform="translate(191.894531 0.171875)"/>
      <use xlink:href="#DejaVuSans-6e" transform="translate(233.007812 0.171875)"/>
      <use xlink:href="#DejaVuSans-75" transform="translate(296.386719 0.171875)"/>
      <use xlink:href="#DejaVuSans-63" transform="translate(359.765625 0.171875)"/>
      <use xlink:href="#DejaVuSans-6c" transform="translate(414.746094 0.171875)"/>
      <use xlink:href="#DejaVuSans-65" transform="translate(442.529297 0.171875)"/>
      <use xlink:href="#DejaVuSans-61" transform="translate(504.052734 0.171875)"/>
      <use xlink:href="#DejaVuSans-72" transform="translate(565.332031 0.171875)"/>
      <use xlink:href="#DejaVuSans-20" transform="translate(606.445312 0.171875)"/>
      <use xlink:href="#DejaVuSans-64" transform="translate(638.232422 0.171875)"/>
      <use xlink:href="#DejaVuSans-69" transform="translate(701.708984 0.171875)"/>
      <use xlink:href="#DejaVuSans-73" transform="translate(729.492188 0.171875)"/>
      <use xlink:href="#DejaVuSans-74" transform="translate(781.591797 0.171875)"/>
      <use xlink:href="#DejaVuSans-61" transform="translate(820.800781 0.171875)"/>
      <use xlink:href="#DejaVuSans-6e" transform="translate(882.080078 0.171875)"/>
      <use xlink:href="#DejaVuSans-63" transform="translate(945.458984 0.171875)"/>
      <use xlink:href="#DejaVuSans-65" transform="translate(1000.439453 0.171875)"/>
      <use xlink:href="#DejaVuSans-20" transform="translate(1061.962891 0.171875)"/>
      <use xlink:href="#DejaVuSans-2f" transform="translate(1093.75 0.171875)"/>
      <use xlink:href="#DejaVuSans-20" transform="translate(1127.441406 0.171875)"/>
      <use xlink:href="#DejaVuSans-Oblique-c5" transform="translate(1159.228516 0.171875)"/>
     </g>
    </g>
   </g>
   <g id="matplotlib.axis_2">
    <g id="ytick_1">
     <g id="line2d_6">
      <defs>
       <path id="m06eb0da6b5" d="M 0 0 
L -3.5 0 
" style="stroke: #000000; stroke-width: 0.8"/>
      </defs>
      <g>
       <use xlink:href="#m06eb0da6b5" x="31.46274" y="305.887101" style="stroke: #000000; stroke-width: 0.8"/>
      </g>
     </g>
     <g id="text_7">
      <!-- 0 -->
      <g transform="translate(18.10024 309.68632) scale(0.1 -0.1)">
       <use xlink:href="#DejaVuSans-30"/>
      </g>
     </g>
    </g>
    <g id="ytick_2">
     <g id="line2d_7">
      <g>
       <use xlink:href="#m06eb0da6b5" x="31.46274" y="248.438573" style="stroke: #000000; stroke-width: 0.8"/>
      </g>
     </g>
     <g id="text_8">
      <!-- 1 -->
      <g transform="translate(18.10024 252.237792) scale(0.1 -0.1)">
       <use xlink:href="#DejaVuSans-31"/>
      </g>
     </g>
    </g>
    <g id="ytick_3">
     <g id="line2d_8">
      <g>
       <use xlink:href="#m06eb0da6b5" x="31.46274" y="190.990045" style="stroke: #000000; stroke-width: 0.8"/>
      </g>
     </g>
     <g id="text_9">
      <!-- 2 -->
      <g transform="translate(18.10024 194.789264) scale(0.1 -0.1)">
       <use xlink:href="#DejaVuSans-32"/>
      </g>
     </g>
    </g>
    <g id="ytick_4">
     <g id="line2d_9">
      <g>
       <use xlink:href="#m06eb0da6b5" x="31.46274" y="133.541517" style="stroke: #000000; stroke-width: 0.8"/>
      </g>
     </g>
     <g id="text_10">
      <!-- 3 -->
      <g transform="translate(18.10024 137.340736) scale(0.1 -0.1)">
       <use xlink:href="#DejaVuSans-33"/>
      </g>
     </g>
    </g>
    <g id="ytick_5">
     <g id="line2d_10">
      <g>
       <use xlink:href="#m06eb0da6b5" x="31.46274" y="76.092989" style="stroke: #000000; stroke-width: 0.8"/>
      </g>
     </g>
     <g id="text_11">
      <!-- 4 -->
      <g transform="translate(18.10024 79.892208) scale(0.1 -0.1)">
       <defs>
        <path id="DejaVuSans-34" d="M 2419 4116 
L 825 1625 
L 2419 1625 
L 2419 4116 
z
M 2253 4666 
L 3047 4666 
L 3047 1625 
L 3713 1625 
L 3713 1100 
L 3047 1100 
L 3047 0 
L 2419 0 
L 2419 1100 
L 313 1100 
L 313 1709 
L 2253 4666 
z
" transform="scale(0.015625)"/>
       </defs>
       <use xlink:href="#DejaVuSans-34"/>
      </g>
     </g>
    </g>
    <g id="text_12">
     <!-- potential energy (rel. to $X$-min.) $/$ cm$^{-1}$ -->
     <g transform="translate(12.00024 270.740396) rotate(-90) scale(0.1 -0.1)">
      <defs>
       <path id="DejaVuSans-70" d="M 1159 525 
L 1159 -1331 
L 581 -1331 
L 581 3500 
L 1159 3500 
L 1159 2969 
Q 1341 3281 1617 3432 
Q 1894 3584 2278 3584 
Q 2916 3584 3314 3078 
Q 3713 2572 3713 1747 
Q 3713 922 3314 415 
Q 2916 -91 2278 -91 
Q 1894 -91 1617 61 
Q 1341 213 1159 525 
z
M 3116 1747 
Q 3116 2381 2855 2742 
Q 2594 3103 2138 3103 
Q 1681 3103 1420 2742 
Q 1159 2381 1159 1747 
Q 1159 1113 1420 752 
Q 1681 391 2138 391 
Q 2594 391 2855 752 
Q 3116 1113 3116 1747 
z
" transform="scale(0.015625)"/>
       <path id="DejaVuSans-6f" d="M 1959 3097 
Q 1497 3097 1228 2736 
Q 959 2375 959 1747 
Q 959 1119 1226 758 
Q 1494 397 1959 397 
Q 2419 397 2687 759 
Q 2956 1122 2956 1747 
Q 2956 2369 2687 2733 
Q 2419 3097 1959 3097 
z
M 1959 3584 
Q 2709 3584 3137 3096 
Q 3566 2609 3566 1747 
Q 3566 888 3137 398 
Q 2709 -91 1959 -91 
Q 1206 -91 779 398 
Q 353 888 353 1747 
Q 353 2609 779 3096 
Q 1206 3584 1959 3584 
z
" transform="scale(0.015625)"/>
       <path id="DejaVuSans-67" d="M 2906 1791 
Q 2906 2416 2648 2759 
Q 2391 3103 1925 3103 
Q 1463 3103 1205 2759 
Q 947 2416 947 1791 
Q 947 1169 1205 825 
Q 1463 481 1925 481 
Q 2391 481 2648 825 
Q 2906 1169 2906 1791 
z
M 3481 434 
Q 3481 -459 3084 -895 
Q 2688 -1331 1869 -1331 
Q 1566 -1331 1297 -1286 
Q 1028 -1241 775 -1147 
L 775 -588 
Q 1028 -725 1275 -790 
Q 1522 -856 1778 -856 
Q 2344 -856 2625 -561 
Q 2906 -266 2906 331 
L 2906 616 
Q 2728 306 2450 153 
Q 2172 0 1784 0 
Q 1141 0 747 490 
Q 353 981 353 1791 
Q 353 2603 747 3093 
Q 1141 3584 1784 3584 
Q 2172 3584 2450 3431 
Q 2728 3278 2906 2969 
L 2906 3500 
L 3481 3500 
L 3481 434 
z
" transform="scale(0.015625)"/>
       <path id="DejaVuSans-79" d="M 2059 -325 
Q 1816 -950 1584 -1140 
Q 1353 -1331 966 -1331 
L 506 -1331 
L 506 -850 
L 844 -850 
Q 1081 -850 1212 -737 
Q 1344 -625 1503 -206 
L 1606 56 
L 191 3500 
L 800 3500 
L 1894 763 
L 2988 3500 
L 3597 3500 
L 2059 -325 
z
" transform="scale(0.015625)"/>
       <path id="DejaVuSans-28" d="M 1984 4856 
Q 1566 4138 1362 3434 
Q 1159 2731 1159 2009 
Q 1159 1288 1364 580 
Q 1569 -128 1984 -844 
L 1484 -844 
Q 1016 -109 783 600 
Q 550 1309 550 2009 
Q 550 2706 781 3412 
Q 1013 4119 1484 4856 
L 1984 4856 
z
" transform="scale(0.015625)"/>
       <path id="DejaVuSans-Oblique-58" d="M 878 4666 
L 1516 4666 
L 2316 2981 
L 3763 4666 
L 4500 4666 
L 2578 2438 
L 3738 0 
L 3103 0 
L 2163 1966 
L 459 0 
L -275 0 
L 1906 2509 
L 878 4666 
z
" transform="scale(0.015625)"/>
       <path id="DejaVuSans-2d" d="M 313 2009 
L 1997 2009 
L 1997 1497 
L 313 1497 
L 313 2009 
z
" transform="scale(0.015625)"/>
       <path id="DejaVuSans-6d" d="M 3328 2828 
Q 3544 3216 3844 3400 
Q 4144 3584 4550 3584 
Q 5097 3584 5394 3201 
Q 5691 2819 5691 2113 
L 5691 0 
L 5113 0 
L 5113 2094 
Q 5113 2597 4934 2840 
Q 4756 3084 4391 3084 
Q 3944 3084 3684 2787 
Q 3425 2491 3425 1978 
L 3425 0 
L 2847 0 
L 2847 2094 
Q 2847 2600 2669 2842 
Q 2491 3084 2119 3084 
Q 1678 3084 1418 2786 
Q 1159 2488 1159 1978 
L 1159 0 
L 581 0 
L 581 3500 
L 1159 3500 
L 1159 2956 
Q 1356 3278 1631 3431 
Q 1906 3584 2284 3584 
Q 2666 3584 2933 3390 
Q 3200 3197 3328 2828 
z
" transform="scale(0.015625)"/>
       <path id="DejaVuSans-29" d="M 513 4856 
L 1013 4856 
Q 1481 4119 1714 3412 
Q 1947 2706 1947 2009 
Q 1947 1309 1714 600 
Q 1481 -109 1013 -844 
L 513 -844 
Q 928 -128 1133 580 
Q 1338 1288 1338 2009 
Q 1338 2731 1133 3434 
Q 928 4138 513 4856 
z
" transform="scale(0.015625)"/>
       <path id="DejaVuSans-2212" d="M 678 2272 
L 4684 2272 
L 4684 1741 
L 678 1741 
L 678 2272 
z
" transform="scale(0.015625)"/>
      </defs>
      <use xlink:href="#DejaVuSans-70" transform="translate(0 0.684375)"/>
      <use xlink:href="#DejaVuSans-6f" transform="translate(63.476562 0.684375)"/>
      <use xlink:href="#DejaVuSans-74" transform="translate(124.658203 0.684375)"/>
      <use xlink:href="#DejaVuSans-65" transform="translate(163.867188 0.684375)"/>
      <use xlink:href="#DejaVuSans-6e" transform="translate(225.390625 0.684375)"/>
      <use xlink:href="#DejaVuSans-74" transform="translate(288.769531 0.684375)"/>
      <use xlink:href="#DejaVuSans-69" transform="translate(327.978516 0.684375)"/>
      <use xlink:href="#DejaVuSans-61" transform="translate(355.761719 0.684375)"/>
      <use xlink:href="#DejaVuSans-6c" transform="translate(417.041016 0.684375)"/>
      <use xlink:href="#DejaVuSans-20" transform="translate(444.824219 0.684375)"/>
      <use xlink:href="#DejaVuSans-65" transform="translate(476.611328 0.684375)"/>
      <use xlink:href="#DejaVuSans-6e" transform="translate(538.134766 0.684375)"/>
      <use xlink:href="#DejaVuSans-65" transform="translate(601.513672 0.684375)"/>
      <use xlink:href="#DejaVuSans-72" transform="translate(663.037109 0.684375)"/>
      <use xlink:href="#DejaVuSans-67" transform="translate(704.150391 0.684375)"/>
      <use xlink:href="#DejaVuSans-79" transform="translate(767.626953 0.684375)"/>
      <use xlink:href="#DejaVuSans-20" transform="translate(826.806641 0.684375)"/>
      <use xlink:href="#DejaVuSans-28" transform="translate(858.59375 0.684375)"/>
      <use xlink:href="#DejaVuSans-72" transform="translate(897.607422 0.684375)"/>
      <use xlink:href="#DejaVuSans-65" transform="translate(938.720703 0.684375)"/>
      <use xlink:href="#DejaVuSans-6c" transform="translate(1000.244141 0.684375)"/>
      <use xlink:href="#DejaVuSans-2e" transform="translate(1028.027344 0.684375)"/>
      <use xlink:href="#DejaVuSans-20" transform="translate(1059.814453 0.684375)"/>
      <use xlink:href="#DejaVuSans-74" transform="translate(1091.601562 0.684375)"/>
      <use xlink:href="#DejaVuSans-6f" transform="translate(1130.810547 0.684375)"/>
      <use xlink:href="#DejaVuSans-20" transform="translate(1191.992188 0.684375)"/>
      <use xlink:href="#DejaVuSans-Oblique-58" transform="translate(1223.779297 0.684375)"/>
      <use xlink:href="#DejaVuSans-2d" transform="translate(1292.285156 0.684375)"/>
      <use xlink:href="#DejaVuSans-6d" transform="translate(1326.619141 0.684375)"/>
      <use xlink:href="#DejaVuSans-69" transform="translate(1424.03125 0.684375)"/>
      <use xlink:href="#DejaVuSans-6e" transform="translate(1451.814453 0.684375)"/>
      <use xlink:href="#DejaVuSans-2e" transform="translate(1515.193359 0.684375)"/>
      <use xlink:href="#DejaVuSans-29" transform="translate(1546.980469 0.684375)"/>
      <use xlink:href="#DejaVuSans-20" transform="translate(1585.994141 0.684375)"/>
      <use xlink:href="#DejaVuSans-2f" transform="translate(1617.78125 0.684375)"/>
      <use xlink:href="#DejaVuSans-20" transform="translate(1651.472656 0.684375)"/>
      <use xlink:href="#DejaVuSans-63" transform="translate(1683.259766 0.684375)"/>
      <use xlink:href="#DejaVuSans-6d" transform="translate(1738.240234 0.684375)"/>
      <use xlink:href="#DejaVuSans-2212" transform="translate(1836.609375 38.965625) scale(0.7)"/>
      <use xlink:href="#DejaVuSans-31" transform="translate(1895.261719 38.965625) scale(0.7)"/>
     </g>
    </g>
    <g id="text_13">
     <!-- 1e4 -->
     <g transform="translate(31.46274 32.559157) scale(0.1 -0.1)">
      <use xlink:href="#DejaVuSans-31"/>
      <use xlink:href="#DejaVuSans-65" x="63.623047"/>
      <use xlink:href="#DejaVuSans-34" x="125.146484"/>
     </g>
    </g>
   </g>
   <g id="line2d_11">
    <path d="M 41.505046 -1 
L 43.120991 53.894764 
L 44.786455 102.232095 
L 46.451919 143.524101 
L 48.117384 178.406971 
L 49.782848 207.555209 
L 51.031947 226.081582 
L 52.281045 242.063389 
L 53.530143 255.749376 
L 54.779241 267.355131 
L 56.02834 277.07591 
L 57.277438 285.094415 
L 58.526536 291.579512 
L 59.775635 296.67645 
L 60.608367 299.372781 
L 61.441099 301.553129 
L 62.273831 303.252911 
L 63.106563 304.505122 
L 63.939296 305.34081 
L 64.772028 305.788908 
L 65.60476 305.876782 
L 66.437492 305.630553 
L 67.270224 305.074008 
L 68.102957 304.230345 
L 68.935689 303.120881 
L 70.184787 301.001774 
L 71.433885 298.391652 
L 73.09935 294.243875 
L 74.764814 289.440272 
L 76.846645 282.675452 
L 79.344841 273.676136 
L 82.259404 262.277936 
L 86.423065 244.935037 
L 102.244976 177.887582 
L 106.408637 161.747102 
L 110.155932 148.154073 
L 113.486861 136.911419 
L 116.401424 127.778351 
L 119.315986 119.340353 
L 122.230549 111.625331 
L 124.728746 105.605007 
L 127.226942 100.136889 
L 129.725139 95.221129 
L 132.223335 90.84625 
L 134.305166 87.599268 
L 136.386996 84.69749 
L 138.468827 82.120682 
L 140.967023 79.415603 
L 143.46522 77.082673 
L 145.54705 75.413521 
L 148.045247 73.722806 
L 150.543444 72.306804 
L 153.458006 70.939177 
L 156.372569 69.820514 
L 159.703498 68.785629 
L 163.450793 67.865666 
L 167.614454 67.076147 
L 172.610847 66.368725 
L 178.439972 65.779545 
L 185.518196 65.295153 
L 194.67825 64.904443 
L 207.169233 64.6125 
L 215.080189 64.507233 
L 215.080189 64.507233 
" clip-path="url(#p43587fb936)" style="fill: none; stroke: #1f77b4; stroke-width: 1.5; stroke-linecap: square"/>
   </g>
   <g id="line2d_12">
    <defs>
     <path id="m039ee70cdf" d="M 0 2 
C 0.530406 2 1.03916 1.789267 1.414214 1.414214 
C 1.789267 1.03916 2 0.530406 2 0 
C 2 -0.530406 1.789267 -1.03916 1.414214 -1.414214 
C 1.03916 -1.789267 0.530406 -2 0 -2 
C -0.530406 -2 -1.03916 -1.789267 -1.414214 -1.414214 
C -1.789267 -1.03916 -2 -0.530406 -2 0 
C -2 0.530406 -1.789267 1.03916 -1.414214 1.414214 
C -1.03916 1.789267 -0.530406 2 0 2 
z
" style="stroke: #ff7f0e"/>
    </defs>
    <g clip-path="url(#p43587fb936)">
     <use xlink:href="#m039ee70cdf" x="43.885083" y="76.066382" style="fill: #ffffff; stroke: #ff7f0e"/>
     <use xlink:href="#m039ee70cdf" x="43.968562" y="79.652847" style="fill: #ffffff; stroke: #ff7f0e"/>
     <use xlink:href="#m039ee70cdf" x="44.092093" y="83.558766" style="fill: #ffffff; stroke: #ff7f0e"/>
     <use xlink:href="#m039ee70cdf" x="44.241878" y="87.756448" style="fill: #ffffff; stroke: #ff7f0e"/>
     <use xlink:href="#m039ee70cdf" x="44.407847" y="92.217836" style="fill: #ffffff; stroke: #ff7f0e"/>
     <use xlink:href="#m039ee70cdf" x="44.585193" y="96.918996" style="fill: #ffffff; stroke: #ff7f0e"/>
     <use xlink:href="#m039ee70cdf" x="44.77158" y="101.840192" style="fill: #ffffff; stroke: #ff7f0e"/>
     <use xlink:href="#m039ee70cdf" x="44.966705" y="106.964682" style="fill: #ffffff; stroke: #ff7f0e"/>
     <use xlink:href="#m039ee70cdf" x="45.171086" y="112.278707" style="fill: #ffffff; stroke: #ff7f0e"/>
     <use xlink:href="#m039ee70cdf" x="45.385198" y="117.771387" style="fill: #ffffff; stroke: #ff7f0e"/>
     <use xlink:href="#m039ee70cdf" x="45.610131" y="123.433142" style="fill: #ffffff; stroke: #ff7f0e"/>
     <use xlink:href="#m039ee70cdf" x="45.846766" y="129.256676" style="fill: #ffffff; stroke: #ff7f0e"/>
     <use xlink:href="#m039ee70cdf" x="46.095745" y="135.235834" style="fill: #ffffff; stroke: #ff7f0e"/>
     <use xlink:href="#m039ee70cdf" x="46.357868" y="141.365691" style="fill: #ffffff; stroke: #ff7f0e"/>
     <use xlink:href="#m039ee70cdf" x="46.634032" y="147.641848" style="fill: #ffffff; stroke: #ff7f0e"/>
     <use xlink:href="#m039ee70cdf" x="46.925021" y="154.061121" style="fill: #ffffff; stroke: #ff7f0e"/>
     <use xlink:href="#m039ee70cdf" x="47.231785" y="160.620608" style="fill: #ffffff; stroke: #ff7f0e"/>
     <use xlink:href="#m039ee70cdf" x="47.555571" y="167.317875" style="fill: #ffffff; stroke: #ff7f0e"/>
     <use xlink:href="#m039ee70cdf" x="47.897782" y="174.151007" style="fill: #ffffff; stroke: #ff7f0e"/>
     <use xlink:href="#m039ee70cdf" x="48.260035" y="181.118374" style="fill: #ffffff; stroke: #ff7f0e"/>
     <use xlink:href="#m039ee70cdf" x="48.644481" y="188.218525" style="fill: #ffffff; stroke: #ff7f0e"/>
     <use xlink:href="#m039ee70cdf" x="49.053476" y="195.450528" style="fill: #ffffff; stroke: #ff7f0e"/>
     <use xlink:href="#m039ee70cdf" x="49.489961" y="202.813444" style="fill: #ffffff; stroke: #ff7f0e"/>
     <use xlink:href="#m039ee70cdf" x="49.957372" y="210.306813" style="fill: #ffffff; stroke: #ff7f0e"/>
     <use xlink:href="#m039ee70cdf" x="50.459955" y="217.930282" style="fill: #ffffff; stroke: #ff7f0e"/>
     <use xlink:href="#m039ee70cdf" x="51.003112" y="225.683644" style="fill: #ffffff; stroke: #ff7f0e"/>
     <use xlink:href="#m039ee70cdf" x="51.593594" y="233.567018" style="fill: #ffffff; stroke: #ff7f0e"/>
     <use xlink:href="#m039ee70cdf" x="52.240385" y="241.580566" style="fill: #ffffff; stroke: #ff7f0e"/>
     <use xlink:href="#m039ee70cdf" x="52.955561" y="249.724729" style="fill: #ffffff; stroke: #ff7f0e"/>
     <use xlink:href="#m039ee70cdf" x="53.756392" y="257.99989" style="fill: #ffffff; stroke: #ff7f0e"/>
     <use xlink:href="#m039ee70cdf" x="54.668678" y="266.406688" style="fill: #ffffff; stroke: #ff7f0e"/>
     <use xlink:href="#m039ee70cdf" x="55.734069" y="274.945697" style="fill: #ffffff; stroke: #ff7f0e"/>
     <use xlink:href="#m039ee70cdf" x="57.027528" y="283.617824" style="fill: #ffffff; stroke: #ff7f0e"/>
     <use xlink:href="#m039ee70cdf" x="58.712859" y="292.424469" style="fill: #ffffff; stroke: #ff7f0e"/>
     <use xlink:href="#m039ee70cdf" x="61.361031" y="301.364911" style="fill: #ffffff; stroke: #ff7f0e"/>
     <use xlink:href="#m039ee70cdf" x="69.99062" y="301.364911" style="fill: #ffffff; stroke: #ff7f0e"/>
     <use xlink:href="#m039ee70cdf" x="73.755186" y="292.424469" style="fill: #ffffff; stroke: #ff7f0e"/>
     <use xlink:href="#m039ee70cdf" x="76.56974" y="283.617824" style="fill: #ffffff; stroke: #ff7f0e"/>
     <use xlink:href="#m039ee70cdf" x="79.005666" y="274.945697" style="fill: #ffffff; stroke: #ff7f0e"/>
     <use xlink:href="#m039ee70cdf" x="81.226691" y="266.406688" style="fill: #ffffff; stroke: #ff7f0e"/>
     <use xlink:href="#m039ee70cdf" x="83.308755" y="257.99989" style="fill: #ffffff; stroke: #ff7f0e"/>
     <use xlink:href="#m039ee70cdf" x="85.293741" y="249.724729" style="fill: #ffffff; stroke: #ff7f0e"/>
     <use xlink:href="#m039ee70cdf" x="87.207965" y="241.580566" style="fill: #ffffff; stroke: #ff7f0e"/>
     <use xlink:href="#m039ee70cdf" x="89.069516" y="233.567018" style="fill: #ffffff; stroke: #ff7f0e"/>
     <use xlink:href="#m039ee70cdf" x="90.89143" y="225.683644" style="fill: #ffffff; stroke: #ff7f0e"/>
     <use xlink:href="#m039ee70cdf" x="92.683772" y="217.930282" style="fill: #ffffff; stroke: #ff7f0e"/>
     <use xlink:href="#m039ee70cdf" x="94.454448" y="210.306813" style="fill: #ffffff; stroke: #ff7f0e"/>
     <use xlink:href="#m039ee70cdf" x="96.210142" y="202.813444" style="fill: #ffffff; stroke: #ff7f0e"/>
     <use xlink:href="#m039ee70cdf" x="97.956375" y="195.450528" style="fill: #ffffff; stroke: #ff7f0e"/>
     <use xlink:href="#m039ee70cdf" x="99.69814" y="188.218525" style="fill: #ffffff; stroke: #ff7f0e"/>
     <use xlink:href="#m039ee70cdf" x="101.440158" y="181.118374" style="fill: #ffffff; stroke: #ff7f0e"/>
     <use xlink:href="#m039ee70cdf" x="103.186511" y="174.151007" style="fill: #ffffff; stroke: #ff7f0e"/>
     <use xlink:href="#m039ee70cdf" x="104.941625" y="167.317875" style="fill: #ffffff; stroke: #ff7f0e"/>
     <use xlink:href="#m039ee70cdf" x="106.709662" y="160.620608" style="fill: #ffffff; stroke: #ff7f0e"/>
     <use xlink:href="#m039ee70cdf" x="108.495001" y="154.061121" style="fill: #ffffff; stroke: #ff7f0e"/>
     <use xlink:href="#m039ee70cdf" x="110.302602" y="147.641848" style="fill: #ffffff; stroke: #ff7f0e"/>
     <use xlink:href="#m039ee70cdf" x="112.137613" y="141.365691" style="fill: #ffffff; stroke: #ff7f0e"/>
     <use xlink:href="#m039ee70cdf" x="114.005808" y="135.235834" style="fill: #ffffff; stroke: #ff7f0e"/>
     <use xlink:href="#m039ee70cdf" x="115.914548" y="129.256676" style="fill: #ffffff; stroke: #ff7f0e"/>
     <use xlink:href="#m039ee70cdf" x="117.871596" y="123.433142" style="fill: #ffffff; stroke: #ff7f0e"/>
     <use xlink:href="#m039ee70cdf" x="119.88685" y="117.771387" style="fill: #ffffff; stroke: #ff7f0e"/>
     <use xlink:href="#m039ee70cdf" x="121.972399" y="112.278707" style="fill: #ffffff; stroke: #ff7f0e"/>
     <use xlink:href="#m039ee70cdf" x="124.144151" y="106.964682" style="fill: #ffffff; stroke: #ff7f0e"/>
     <use xlink:href="#m039ee70cdf" x="126.421135" y="101.840192" style="fill: #ffffff; stroke: #ff7f0e"/>
     <use xlink:href="#m039ee70cdf" x="128.83031" y="96.918996" style="fill: #ffffff; stroke: #ff7f0e"/>
     <use xlink:href="#m039ee70cdf" x="131.406851" y="92.217836" style="fill: #ffffff; stroke: #ff7f0e"/>
     <use xlink:href="#m039ee70cdf" x="134.198945" y="87.756448" style="fill: #ffffff; stroke: #ff7f0e"/>
     <use xlink:href="#m039ee70cdf" x="137.27614" y="83.558766" style="fill: #ffffff; stroke: #ff7f0e"/>
     <use xlink:href="#m039ee70cdf" x="140.73257" y="79.652847" style="fill: #ffffff; stroke: #ff7f0e"/>
    </g>
   </g>
   <g id="patch_3">
    <path d="M 31.46274 311.621635 
L 31.46274 35.559157 
" style="fill: none; stroke: #000000; stroke-width: 0.8; stroke-linejoin: miter; stroke-linecap: square"/>
   </g>
   <g id="patch_4">
    <path d="M 214.663823 311.621635 
L 214.663823 35.559157 
" style="fill: none; stroke: #000000; stroke-width: 0.8; stroke-linejoin: miter; stroke-linecap: square"/>
   </g>
   <g id="patch_5">
    <path d="M 31.46274 311.621635 
L 214.663823 311.621635 
" style="fill: none; stroke: #000000; stroke-width: 0.8; stroke-linejoin: miter; stroke-linecap: square"/>
   </g>
   <g id="patch_6">
    <path d="M 31.46274 35.559157 
L 214.663823 35.559157 
" style="fill: none; stroke: #000000; stroke-width: 0.8; stroke-linejoin: miter; stroke-linecap: square"/>
   </g>
   <g id="legend_1">
    <g id="patch_7">
     <path d="M 99.44951 307.456635 
L 208.832823 307.456635 
Q 210.498823 307.456635 210.498823 305.790635 
L 210.498823 283.835879 
Q 210.498823 282.169879 208.832823 282.169879 
L 99.44951 282.169879 
Q 97.78351 282.169879 97.78351 283.835879 
L 97.78351 305.790635 
Q 97.78351 307.456635 99.44951 307.456635 
z
" style="fill: #ffffff; opacity: 0.8; stroke: #cccccc; stroke-linejoin: miter"/>
    </g>
    <g id="line2d_13">
     <path d="M 101.11551 288.915877 
L 109.44551 288.915877 
L 117.77551 288.915877 
" style="fill: none; stroke: #1f77b4; stroke-width: 1.5; stroke-linecap: square"/>
    </g>
    <g id="text_14">
     <!-- RKR potential curve -->
     <g transform="translate(124.43951 291.831377) scale(0.0833 -0.0833)">
      <defs>
       <path id="DejaVuSans-52" d="M 2841 2188 
Q 3044 2119 3236 1894 
Q 3428 1669 3622 1275 
L 4263 0 
L 3584 0 
L 2988 1197 
Q 2756 1666 2539 1819 
Q 2322 1972 1947 1972 
L 1259 1972 
L 1259 0 
L 628 0 
L 628 4666 
L 2053 4666 
Q 2853 4666 3247 4331 
Q 3641 3997 3641 3322 
Q 3641 2881 3436 2590 
Q 3231 2300 2841 2188 
z
M 1259 4147 
L 1259 2491 
L 2053 2491 
Q 2509 2491 2742 2702 
Q 2975 2913 2975 3322 
Q 2975 3731 2742 3939 
Q 2509 4147 2053 4147 
L 1259 4147 
z
" transform="scale(0.015625)"/>
       <path id="DejaVuSans-4b" d="M 628 4666 
L 1259 4666 
L 1259 2694 
L 3353 4666 
L 4166 4666 
L 1850 2491 
L 4331 0 
L 3500 0 
L 1259 2247 
L 1259 0 
L 628 0 
L 628 4666 
z
" transform="scale(0.015625)"/>
       <path id="DejaVuSans-76" d="M 191 3500 
L 800 3500 
L 1894 563 
L 2988 3500 
L 3597 3500 
L 2284 0 
L 1503 0 
L 191 3500 
z
" transform="scale(0.015625)"/>
      </defs>
      <use xlink:href="#DejaVuSans-52"/>
      <use xlink:href="#DejaVuSans-4b" x="69.482422"/>
      <use xlink:href="#DejaVuSans-52" x="135.058594"/>
      <use xlink:href="#DejaVuSans-20" x="204.541016"/>
      <use xlink:href="#DejaVuSans-70" x="236.328125"/>
      <use xlink:href="#DejaVuSans-6f" x="299.804688"/>
      <use xlink:href="#DejaVuSans-74" x="360.986328"/>
      <use xlink:href="#DejaVuSans-65" x="400.195312"/>
      <use xlink:href="#DejaVuSans-6e" x="461.71875"/>
      <use xlink:href="#DejaVuSans-74" x="525.097656"/>
      <use xlink:href="#DejaVuSans-69" x="564.306641"/>
      <use xlink:href="#DejaVuSans-61" x="592.089844"/>
      <use xlink:href="#DejaVuSans-6c" x="653.369141"/>
      <use xlink:href="#DejaVuSans-20" x="681.152344"/>
      <use xlink:href="#DejaVuSans-63" x="712.939453"/>
      <use xlink:href="#DejaVuSans-75" x="767.919922"/>
      <use xlink:href="#DejaVuSans-72" x="831.298828"/>
      <use xlink:href="#DejaVuSans-76" x="872.412109"/>
      <use xlink:href="#DejaVuSans-65" x="931.591797"/>
     </g>
    </g>
    <g id="line2d_14">
     <g>
      <use xlink:href="#m039ee70cdf" x="109.44551" y="299.476755" style="fill: #ffffff; stroke: #ff7f0e"/>
     </g>
    </g>
    <g id="text_15">
     <!-- turning point -->
     <g transform="translate(124.43951 302.392255) scale(0.0833 -0.0833)">
      <use xlink:href="#DejaVuSans-74"/>
      <use xlink:href="#DejaVuSans-75" x="39.208984"/>
      <use xlink:href="#DejaVuSans-72" x="102.587891"/>
      <use xlink:href="#DejaVuSans-6e" x="141.951172"/>
      <use xlink:href="#DejaVuSans-69" x="205.330078"/>
      <use xlink:href="#DejaVuSans-6e" x="233.113281"/>
      <use xlink:href="#DejaVuSans-67" x="296.492188"/>
      <use xlink:href="#DejaVuSans-20" x="359.96875"/>
      <use xlink:href="#DejaVuSans-70" x="391.755859"/>
      <use xlink:href="#DejaVuSans-6f" x="455.232422"/>
      <use xlink:href="#DejaVuSans-69" x="516.414062"/>
      <use xlink:href="#DejaVuSans-6e" x="544.197266"/>
      <use xlink:href="#DejaVuSans-74" x="607.576172"/>
     </g>
    </g>
   </g>
  </g>
  <g id="axes_2">
   <g id="patch_8">
    <path d="M 274.598678 159.351244 
L 457.79976 159.351244 
L 457.79976 35.559157 
L 274.598678 35.559157 
z
" style="fill: #ffffff"/>
   </g>
   <g id="matplotlib.axis_3">
    <g id="xtick_6">
     <g id="line2d_15">
      <g>
       <use xlink:href="#m71ebdd62bc" x="282.925999" y="159.351244" style="stroke: #000000; stroke-width: 0.8"/>
      </g>
     </g>
    </g>
    <g id="xtick_7">
     <g id="line2d_16">
      <g>
       <use xlink:href="#m71ebdd62bc" x="331.910246" y="159.351244" style="stroke: #000000; stroke-width: 0.8"/>
      </g>
     </g>
    </g>
    <g id="xtick_8">
     <g id="line2d_17">
      <g>
       <use xlink:href="#m71ebdd62bc" x="380.894493" y="159.351244" style="stroke: #000000; stroke-width: 0.8"/>
      </g>
     </g>
    </g>
    <g id="xtick_9">
     <g id="line2d_18">
      <g>
       <use xlink:href="#m71ebdd62bc" x="429.878739" y="159.351244" style="stroke: #000000; stroke-width: 0.8"/>
      </g>
     </g>
    </g>
   </g>
   <g id="matplotlib.axis_4">
    <g id="ytick_6">
     <g id="line2d_19">
      <g>
       <use xlink:href="#m06eb0da6b5" x="274.598678" y="159.351244" style="stroke: #000000; stroke-width: 0.8"/>
      </g>
     </g>
     <g id="text_16">
      <!-- −0.3 -->
      <g transform="translate(243.315865 163.150463) scale(0.1 -0.1)">
       <use xlink:href="#DejaVuSans-2212"/>
       <use xlink:href="#DejaVuSans-30" x="83.789062"/>
       <use xlink:href="#DejaVuSans-2e" x="147.412109"/>
       <use xlink:href="#DejaVuSans-33" x="179.199219"/>
      </g>
     </g>
    </g>
    <g id="ytick_7">
     <g id="line2d_20">
      <g>
       <use xlink:href="#m06eb0da6b5" x="274.598678" y="138.71923" style="stroke: #000000; stroke-width: 0.8"/>
      </g>
     </g>
     <g id="text_17">
      <!-- −0.2 -->
      <g transform="translate(243.315865 142.518449) scale(0.1 -0.1)">
       <use xlink:href="#DejaVuSans-2212"/>
       <use xlink:href="#DejaVuSans-30" x="83.789062"/>
       <use xlink:href="#DejaVuSans-2e" x="147.412109"/>
       <use xlink:href="#DejaVuSans-32" x="179.199219"/>
      </g>
     </g>
    </g>
    <g id="ytick_8">
     <g id="line2d_21">
      <g>
       <use xlink:href="#m06eb0da6b5" x="274.598678" y="118.087215" style="stroke: #000000; stroke-width: 0.8"/>
      </g>
     </g>
     <g id="text_18">
      <!-- −0.1 -->
      <g transform="translate(243.315865 121.886434) scale(0.1 -0.1)">
       <use xlink:href="#DejaVuSans-2212"/>
       <use xlink:href="#DejaVuSans-30" x="83.789062"/>
       <use xlink:href="#DejaVuSans-2e" x="147.412109"/>
       <use xlink:href="#DejaVuSans-31" x="179.199219"/>
      </g>
     </g>
    </g>
    <g id="ytick_9">
     <g id="line2d_22">
      <g>
       <use xlink:href="#m06eb0da6b5" x="274.598678" y="97.455201" style="stroke: #000000; stroke-width: 0.8"/>
      </g>
     </g>
     <g id="text_19">
      <!-- 0.0 -->
      <g transform="translate(251.695553 101.25442) scale(0.1 -0.1)">
       <use xlink:href="#DejaVuSans-30"/>
       <use xlink:href="#DejaVuSans-2e" x="63.623047"/>
       <use xlink:href="#DejaVuSans-30" x="95.410156"/>
      </g>
     </g>
    </g>
    <g id="ytick_10">
     <g id="line2d_23">
      <g>
       <use xlink:href="#m06eb0da6b5" x="274.598678" y="76.823186" style="stroke: #000000; stroke-width: 0.8"/>
      </g>
     </g>
     <g id="text_20">
      <!-- 0.1 -->
      <g transform="translate(251.695553 80.622405) scale(0.1 -0.1)">
       <use xlink:href="#DejaVuSans-30"/>
       <use xlink:href="#DejaVuSans-2e" x="63.623047"/>
       <use xlink:href="#DejaVuSans-31" x="95.410156"/>
      </g>
     </g>
    </g>
    <g id="ytick_11">
     <g id="line2d_24">
      <g>
       <use xlink:href="#m06eb0da6b5" x="274.598678" y="56.191172" style="stroke: #000000; stroke-width: 0.8"/>
      </g>
     </g>
     <g id="text_21">
      <!-- 0.2 -->
      <g transform="translate(251.695553 59.990391) scale(0.1 -0.1)">
       <use xlink:href="#DejaVuSans-30"/>
       <use xlink:href="#DejaVuSans-2e" x="63.623047"/>
       <use xlink:href="#DejaVuSans-32" x="95.410156"/>
      </g>
     </g>
    </g>
    <g id="ytick_12">
     <g id="line2d_25">
      <g>
       <use xlink:href="#m06eb0da6b5" x="274.598678" y="35.559157" style="stroke: #000000; stroke-width: 0.8"/>
      </g>
     </g>
     <g id="text_22">
      <!-- 0.3 -->
      <g transform="translate(251.695553 39.358376) scale(0.1 -0.1)">
       <use xlink:href="#DejaVuSans-30"/>
       <use xlink:href="#DejaVuSans-2e" x="63.623047"/>
       <use xlink:href="#DejaVuSans-33" x="95.410156"/>
      </g>
     </g>
    </g>
    <g id="text_23">
     <!-- $\Delta G_v$ $/$ cm$^{-1}$ -->
     <g transform="translate(237.236178 124.805201) rotate(-90) scale(0.1 -0.1)">
      <defs>
       <path id="DejaVuSans-394" d="M 2188 4044 
L 906 525 
L 3472 525 
L 2188 4044 
z
M 50 0 
L 1831 4666 
L 2547 4666 
L 4325 0 
L 50 0 
z
" transform="scale(0.015625)"/>
       <path id="DejaVuSans-Oblique-47" d="M 3494 697 
L 3738 1919 
L 2700 1919 
L 2797 2438 
L 4453 2438 
L 4050 384 
Q 3634 156 3143 32 
Q 2653 -91 2156 -91 
Q 1278 -91 783 396 
Q 288 884 288 1753 
Q 288 2475 589 3126 
Q 891 3778 1422 4213 
Q 1756 4484 2153 4617 
Q 2550 4750 3034 4750 
Q 3472 4750 3873 4639 
Q 4275 4528 4641 4306 
L 4513 3634 
Q 4231 3928 3853 4083 
Q 3475 4238 3047 4238 
Q 2550 4238 2172 4048 
Q 1794 3859 1497 3463 
Q 1244 3125 1098 2667 
Q 953 2209 953 1734 
Q 953 1081 1287 751 
Q 1622 422 2284 422 
Q 2616 422 2925 492 
Q 3234 563 3494 697 
z
" transform="scale(0.015625)"/>
       <path id="DejaVuSans-Oblique-76" d="M 459 3500 
L 1069 3500 
L 1581 525 
L 3256 3500 
L 3866 3500 
L 1875 0 
L 1100 0 
L 459 3500 
z
" transform="scale(0.015625)"/>
      </defs>
      <use xlink:href="#DejaVuSans-394" transform="translate(0 0.684375)"/>
      <use xlink:href="#DejaVuSans-Oblique-47" transform="translate(68.408203 0.684375)"/>
      <use xlink:href="#DejaVuSans-Oblique-76" transform="translate(145.898438 -15.721875) scale(0.7)"/>
      <use xlink:href="#DejaVuSans-20" transform="translate(190.058594 0.684375)"/>
      <use xlink:href="#DejaVuSans-2f" transform="translate(221.845703 0.684375)"/>
      <use xlink:href="#DejaVuSans-20" transform="translate(255.537109 0.684375)"/>
      <use xlink:href="#DejaVuSans-63" transform="translate(287.324219 0.684375)"/>
      <use xlink:href="#DejaVuSans-6d" transform="translate(342.304688 0.684375)"/>
      <use xlink:href="#DejaVuSans-2212" transform="translate(440.673828 38.965625) scale(0.7)"/>
      <use xlink:href="#DejaVuSans-31" transform="translate(499.326172 38.965625) scale(0.7)"/>
     </g>
    </g>
   </g>
   <g id="line2d_26">
    <path d="M 282.925999 105.050504 
L 287.824424 99.437646 
L 292.722849 88.925124 
L 297.621273 100.454364 
L 302.519698 100.511534 
L 307.418123 98.772256 
L 312.316547 98.759509 
L 317.214972 94.964825 
L 322.113397 99.246726 
L 327.011821 102.263115 
L 331.910246 103.384726 
L 336.808671 102.658123 
L 341.707095 101.634378 
L 346.60552 101.410919 
L 351.503945 100.560182 
L 356.402369 100.760509 
L 361.300794 100.554899 
L 366.199219 100.576561 
L 371.097643 102.587841 
L 375.996068 103.793009 
L 380.894493 103.768814 
L 385.792917 104.116252 
L 390.691342 97.78949 
L 395.589767 89.903747 
L 400.488191 79.50518 
L 405.386616 65.710117 
L 410.285041 51.681736 
L 415.183465 49.815348 
L 420.08189 55.767118 
L 424.980315 78.797095 
L 429.878739 122.388207 
L 434.777164 172.860285 
L 439.675589 217.6558 
L 444.574013 257.121141 
L 449.472438 305.094052 
" clip-path="url(#p889fe15236)" style="fill: none; stroke: #2ca02c; stroke-width: 1.5; stroke-linecap: square"/>
   </g>
   <g id="patch_9">
    <path d="M 274.598678 159.351244 
L 274.598678 35.559157 
" style="fill: none; stroke: #000000; stroke-width: 0.8; stroke-linejoin: miter; stroke-linecap: square"/>
   </g>
   <g id="patch_10">
    <path d="M 457.79976 159.351244 
L 457.79976 35.559157 
" style="fill: none; stroke: #000000; stroke-width: 0.8; stroke-linejoin: miter; stroke-linecap: square"/>
   </g>
   <g id="patch_11">
    <path d="M 274.598678 159.351244 
L 457.79976 159.351244 
" style="fill: none; stroke: #000000; stroke-width: 0.8; stroke-linejoin: miter; stroke-linecap: square"/>
   </g>
   <g id="patch_12">
    <path d="M 274.598678 35.559157 
L 457.79976 35.559157 
" style="fill: none; stroke: #000000; stroke-width: 0.8; stroke-linejoin: miter; stroke-linecap: square"/>
   </g>
  </g>
  <g id="axes_3">
   <g id="patch_13">
    <path d="M 274.598678 311.621635 
L 457.79976 311.621635 
L 457.79976 187.829548 
L 274.598678 187.829548 
z
" style="fill: #ffffff"/>
   </g>
   <g id="matplotlib.axis_5">
    <g id="xtick_10">
     <g id="line2d_27">
      <g>
       <use xlink:href="#m71ebdd62bc" x="282.925999" y="311.621635" style="stroke: #000000; stroke-width: 0.8"/>
      </g>
     </g>
     <g id="text_24">
      <!-- 0 -->
      <g transform="translate(279.744749 326.220072) scale(0.1 -0.1)">
       <use xlink:href="#DejaVuSans-30"/>
      </g>
     </g>
    </g>
    <g id="xtick_11">
     <g id="line2d_28">
      <g>
       <use xlink:href="#m71ebdd62bc" x="331.910246" y="311.621635" style="stroke: #000000; stroke-width: 0.8"/>
      </g>
     </g>
     <g id="text_25">
      <!-- 10 -->
      <g transform="translate(325.547746 326.220072) scale(0.1 -0.1)">
       <use xlink:href="#DejaVuSans-31"/>
       <use xlink:href="#DejaVuSans-30" x="63.623047"/>
      </g>
     </g>
    </g>
    <g id="xtick_12">
     <g id="line2d_29">
      <g>
       <use xlink:href="#m71ebdd62bc" x="380.894493" y="311.621635" style="stroke: #000000; stroke-width: 0.8"/>
      </g>
     </g>
     <g id="text_26">
      <!-- 20 -->
      <g transform="translate(374.531993 326.220072) scale(0.1 -0.1)">
       <use xlink:href="#DejaVuSans-32"/>
       <use xlink:href="#DejaVuSans-30" x="63.623047"/>
      </g>
     </g>
    </g>
    <g id="xtick_13">
     <g id="line2d_30">
      <g>
       <use xlink:href="#m71ebdd62bc" x="429.878739" y="311.621635" style="stroke: #000000; stroke-width: 0.8"/>
      </g>
     </g>
     <g id="text_27">
      <!-- 30 -->
      <g transform="translate(423.516239 326.220072) scale(0.1 -0.1)">
       <use xlink:href="#DejaVuSans-33"/>
       <use xlink:href="#DejaVuSans-30" x="63.623047"/>
      </g>
     </g>
    </g>
    <g id="text_28">
     <!-- vibrational quantum number -->
     <g transform="translate(294.259375 339.898197) scale(0.1 -0.1)">
      <defs>
       <path id="DejaVuSans-62" d="M 3116 1747 
Q 3116 2381 2855 2742 
Q 2594 3103 2138 3103 
Q 1681 3103 1420 2742 
Q 1159 2381 1159 1747 
Q 1159 1113 1420 752 
Q 1681 391 2138 391 
Q 2594 391 2855 752 
Q 3116 1113 3116 1747 
z
M 1159 2969 
Q 1341 3281 1617 3432 
Q 1894 3584 2278 3584 
Q 2916 3584 3314 3078 
Q 3713 2572 3713 1747 
Q 3713 922 3314 415 
Q 2916 -91 2278 -91 
Q 1894 -91 1617 61 
Q 1341 213 1159 525 
L 1159 0 
L 581 0 
L 581 4863 
L 1159 4863 
L 1159 2969 
z
" transform="scale(0.015625)"/>
       <path id="DejaVuSans-71" d="M 947 1747 
Q 947 1113 1208 752 
Q 1469 391 1925 391 
Q 2381 391 2643 752 
Q 2906 1113 2906 1747 
Q 2906 2381 2643 2742 
Q 2381 3103 1925 3103 
Q 1469 3103 1208 2742 
Q 947 2381 947 1747 
z
M 2906 525 
Q 2725 213 2448 61 
Q 2172 -91 1784 -91 
Q 1150 -91 751 415 
Q 353 922 353 1747 
Q 353 2572 751 3078 
Q 1150 3584 1784 3584 
Q 2172 3584 2448 3432 
Q 2725 3281 2906 2969 
L 2906 3500 
L 3481 3500 
L 3481 -1331 
L 2906 -1331 
L 2906 525 
z
" transform="scale(0.015625)"/>
      </defs>
      <use xlink:href="#DejaVuSans-76"/>
      <use xlink:href="#DejaVuSans-69" x="59.179688"/>
      <use xlink:href="#DejaVuSans-62" x="86.962891"/>
      <use xlink:href="#DejaVuSans-72" x="150.439453"/>
      <use xlink:href="#DejaVuSans-61" x="191.552734"/>
      <use xlink:href="#DejaVuSans-74" x="252.832031"/>
      <use xlink:href="#DejaVuSans-69" x="292.041016"/>
      <use xlink:href="#DejaVuSans-6f" x="319.824219"/>
      <use xlink:href="#DejaVuSans-6e" x="381.005859"/>
      <use xlink:href="#DejaVuSans-61" x="444.384766"/>
      <use xlink:href="#DejaVuSans-6c" x="505.664062"/>
      <use xlink:href="#DejaVuSans-20" x="533.447266"/>
      <use xlink:href="#DejaVuSans-71" x="565.234375"/>
      <use xlink:href="#DejaVuSans-75" x="628.710938"/>
      <use xlink:href="#DejaVuSans-61" x="692.089844"/>
      <use xlink:href="#DejaVuSans-6e" x="753.369141"/>
      <use xlink:href="#DejaVuSans-74" x="816.748047"/>
      <use xlink:href="#DejaVuSans-75" x="855.957031"/>
      <use xlink:href="#DejaVuSans-6d" x="919.335938"/>
      <use xlink:href="#DejaVuSans-20" x="1016.748047"/>
      <use xlink:href="#DejaVuSans-6e" x="1048.535156"/>
      <use xlink:href="#DejaVuSans-75" x="1111.914062"/>
      <use xlink:href="#DejaVuSans-6d" x="1175.292969"/>
      <use xlink:href="#DejaVuSans-62" x="1272.705078"/>
      <use xlink:href="#DejaVuSans-65" x="1336.181641"/>
      <use xlink:href="#DejaVuSans-72" x="1397.705078"/>
     </g>
    </g>
   </g>
   <g id="matplotlib.axis_6">
    <g id="ytick_13">
     <g id="line2d_31">
      <g>
       <use xlink:href="#m06eb0da6b5" x="274.598678" y="311.621635" style="stroke: #000000; stroke-width: 0.8"/>
      </g>
     </g>
     <g id="text_29">
      <!-- −2 -->
      <g transform="translate(252.85649 315.420854) scale(0.1 -0.1)">
       <use xlink:href="#DejaVuSans-2212"/>
       <use xlink:href="#DejaVuSans-32" x="83.789062"/>
      </g>
     </g>
    </g>
    <g id="ytick_14">
     <g id="line2d_32">
      <g>
       <use xlink:href="#m06eb0da6b5" x="274.598678" y="276.252467" style="stroke: #000000; stroke-width: 0.8"/>
      </g>
     </g>
     <g id="text_30">
      <!-- 0 -->
      <g transform="translate(261.236178 280.051686) scale(0.1 -0.1)">
       <use xlink:href="#DejaVuSans-30"/>
      </g>
     </g>
    </g>
    <g id="ytick_15">
     <g id="line2d_33">
      <g>
       <use xlink:href="#m06eb0da6b5" x="274.598678" y="240.8833" style="stroke: #000000; stroke-width: 0.8"/>
      </g>
     </g>
     <g id="text_31">
      <!-- 2 -->
      <g transform="translate(261.236178 244.682518) scale(0.1 -0.1)">
       <use xlink:href="#DejaVuSans-32"/>
      </g>
     </g>
    </g>
    <g id="ytick_16">
     <g id="line2d_34">
      <g>
       <use xlink:href="#m06eb0da6b5" x="274.598678" y="205.514132" style="stroke: #000000; stroke-width: 0.8"/>
      </g>
     </g>
     <g id="text_32">
      <!-- 4 -->
      <g transform="translate(261.236178 209.313351) scale(0.1 -0.1)">
       <use xlink:href="#DejaVuSans-34"/>
      </g>
     </g>
    </g>
    <g id="text_33">
     <!-- $\Delta B_v$ $/$ cm$^{-1}$ -->
     <g transform="translate(246.776803 276.625592) rotate(-90) scale(0.1 -0.1)">
      <defs>
       <path id="DejaVuSans-Oblique-42" d="M 1081 4666 
L 2694 4666 
Q 3350 4666 3675 4422 
Q 4000 4178 4000 3688 
Q 4000 3238 3720 2911 
Q 3441 2584 2988 2516 
Q 3375 2428 3569 2181 
Q 3763 1934 3763 1522 
Q 3763 819 3242 409 
Q 2722 0 1819 0 
L 172 0 
L 1081 4666 
z
M 1234 2228 
L 903 519 
L 1919 519 
Q 2491 519 2800 781 
Q 3109 1044 3109 1522 
Q 3109 1891 2904 2059 
Q 2700 2228 2247 2228 
L 1234 2228 
z
M 1606 4147 
L 1331 2741 
L 2272 2741 
Q 2775 2741 3058 2959 
Q 3341 3178 3341 3566 
Q 3341 3869 3150 4008 
Q 2959 4147 2541 4147 
L 1606 4147 
z
" transform="scale(0.015625)"/>
      </defs>
      <use xlink:href="#DejaVuSans-394" transform="translate(0 0.684375)"/>
      <use xlink:href="#DejaVuSans-Oblique-42" transform="translate(68.408203 0.684375)"/>
      <use xlink:href="#DejaVuSans-Oblique-76" transform="translate(137.011719 -15.721875) scale(0.7)"/>
      <use xlink:href="#DejaVuSans-20" transform="translate(181.171875 0.684375)"/>
      <use xlink:href="#DejaVuSans-2f" transform="translate(212.958984 0.684375)"/>
      <use xlink:href="#DejaVuSans-20" transform="translate(246.650391 0.684375)"/>
      <use xlink:href="#DejaVuSans-63" transform="translate(278.4375 0.684375)"/>
      <use xlink:href="#DejaVuSans-6d" transform="translate(333.417969 0.684375)"/>
      <use xlink:href="#DejaVuSans-2212" transform="translate(431.787109 38.965625) scale(0.7)"/>
      <use xlink:href="#DejaVuSans-31" transform="translate(490.439453 38.965625) scale(0.7)"/>
     </g>
    </g>
    <g id="text_34">
     <!-- 1e−4 -->
     <g transform="translate(274.598678 184.829548) scale(0.1 -0.1)">
      <use xlink:href="#DejaVuSans-31"/>
      <use xlink:href="#DejaVuSans-65" x="63.623047"/>
      <use xlink:href="#DejaVuSans-2212" x="125.146484"/>
      <use xlink:href="#DejaVuSans-34" x="208.935547"/>
     </g>
    </g>
   </g>
   <g id="line2d_35">
    <path d="M 282.925999 276.236888 
L 287.824424 275.948608 
L 292.722849 277.537659 
L 297.621273 275.514002 
L 302.519698 274.460739 
L 307.418123 277.900204 
L 312.316547 276.874523 
L 317.214972 275.587826 
L 322.113397 275.053124 
L 327.011821 274.969393 
L 331.910246 276.062484 
L 336.808671 276.561963 
L 341.707095 276.293062 
L 346.60552 276.165825 
L 351.503945 276.2664 
L 356.402369 276.685151 
L 361.300794 276.228354 
L 366.199219 275.395964 
L 371.097643 275.292262 
L 375.996068 274.810093 
L 380.894493 275.975884 
L 385.792917 278.339173 
L 390.691342 281.140754 
L 395.589767 286.452434 
L 400.488191 289.737459 
L 405.386616 291.293416 
L 410.285041 289.885708 
L 415.183465 279.685634 
L 420.08189 258.999241 
L 424.980315 232.182045 
L 429.878739 202.912505 
L 434.777164 190.956677 
L 439.675589 240.308091 
L 442.52177 346.6 
" clip-path="url(#p73aa589284)" style="fill: none; stroke: #d62728; stroke-width: 1.5; stroke-linecap: square"/>
   </g>
   <g id="patch_14">
    <path d="M 274.598678 311.621635 
L 274.598678 187.829548 
" style="fill: none; stroke: #000000; stroke-width: 0.8; stroke-linejoin: miter; stroke-linecap: square"/>
   </g>
   <g id="patch_15">
    <path d="M 457.79976 311.621635 
L 457.79976 187.829548 
" style="fill: none; stroke: #000000; stroke-width: 0.8; stroke-linejoin: miter; stroke-linecap: square"/>
   </g>
   <g id="patch_16">
    <path d="M 274.598678 311.621635 
L 457.79976 311.621635 
" style="fill: none; stroke: #000000; stroke-width: 0.8; stroke-linejoin: miter; stroke-linecap: square"/>
   </g>
   <g id="patch_17">
    <path d="M 274.598678 187.829548 
L 457.79976 187.829548 
" style="fill: none; stroke: #000000; stroke-width: 0.8; stroke-linejoin: miter; stroke-linecap: square"/>
   </g>
  </g>
  <g id="text_35">
   <!-- O$_2$ $X^3\Sigma_g^-$ -->
   <g transform="translate(204.3 13.92024) scale(0.12 -0.12)">
    <defs>
     <path id="DejaVuSans-4f" d="M 2522 4238 
Q 1834 4238 1429 3725 
Q 1025 3213 1025 2328 
Q 1025 1447 1429 934 
Q 1834 422 2522 422 
Q 3209 422 3611 934 
Q 4013 1447 4013 2328 
Q 4013 3213 3611 3725 
Q 3209 4238 2522 4238 
z
M 2522 4750 
Q 3503 4750 4090 4092 
Q 4678 3434 4678 2328 
Q 4678 1225 4090 567 
Q 3503 -91 2522 -91 
Q 1538 -91 948 565 
Q 359 1222 359 2328 
Q 359 3434 948 4092 
Q 1538 4750 2522 4750 
z
" transform="scale(0.015625)"/>
     <path id="DejaVuSans-3a3" d="M 1353 531 
L 3634 531 
L 3634 0 
L 628 0 
L 628 531 
L 2125 2481 
L 628 4134 
L 628 4666 
L 3578 4666 
L 3578 4134 
L 1353 4134 
L 2850 2494 
L 1353 531 
z
" transform="scale(0.015625)"/>
     <path id="DejaVuSans-Oblique-67" d="M 3816 3500 
L 3219 434 
Q 3047 -456 2561 -893 
Q 2075 -1331 1253 -1331 
Q 950 -1331 690 -1286 
Q 431 -1241 206 -1147 
L 313 -588 
Q 525 -725 762 -790 
Q 1000 -856 1269 -856 
Q 1816 -856 2167 -557 
Q 2519 -259 2631 300 
L 2681 563 
Q 2441 288 2122 144 
Q 1803 0 1434 0 
Q 903 0 598 351 
Q 294 703 294 1319 
Q 294 1803 478 2267 
Q 663 2731 997 3091 
Q 1219 3328 1514 3456 
Q 1809 3584 2131 3584 
Q 2484 3584 2746 3420 
Q 3009 3256 3138 2956 
L 3238 3500 
L 3816 3500 
z
M 2950 2216 
Q 2950 2641 2750 2872 
Q 2550 3103 2181 3103 
Q 1953 3103 1747 3012 
Q 1541 2922 1394 2759 
Q 1156 2491 1023 2127 
Q 891 1763 891 1375 
Q 891 944 1092 712 
Q 1294 481 1672 481 
Q 2219 481 2584 976 
Q 2950 1472 2950 2216 
z
" transform="scale(0.015625)"/>
    </defs>
    <use xlink:href="#DejaVuSans-4f" transform="translate(0 0.765625)"/>
    <use xlink:href="#DejaVuSans-32" transform="translate(79.667969 -15.640625) scale(0.7)"/>
    <use xlink:href="#DejaVuSans-20" transform="translate(126.938477 0.765625)"/>
    <use xlink:href="#DejaVuSans-Oblique-58" transform="translate(158.725586 0.765625)"/>
    <use xlink:href="#DejaVuSans-33" transform="translate(234.248216 39.046875) scale(0.7)"/>
    <use xlink:href="#DejaVuSans-3a3" transform="translate(281.518724 0.765625)"/>
    <use xlink:href="#DejaVuSans-2212" transform="translate(359.297044 39.046875) scale(0.7)"/>
    <use xlink:href="#DejaVuSans-Oblique-67" transform="translate(345.659349 -26.578125) scale(0.7)"/>
   </g>
  </g>
 </g>
 <defs>
  <clipPath id="p43587fb936">
   <rect x="31.46274" y="35.559157" width="183.201083" height="276.062477"/>
  </clipPath>
  <clipPath id="p889fe15236">
   <rect x="274.598678" y="35.559157" width="183.201082" height="123.792087"/>
  </clipPath>
  <clipPath id="p73aa589284">
   <rect x="274.598678" y="187.829548" width="183.201082" height="123.792087"/>
  </clipPath>
 </defs>
</svg>
