<?xml version="1.0" encoding="utf-8" standalone="no"?>
<!DOCTYPE svg PUBLIC "-//W3C//DTD SVG 1.1//EN"
  "http://www.w3.org/Graphics/SVG/1.1/DTD/svg11.dtd">
<svg xmlns:xlink="http://www.w3.org/1999/xlink" width="460.8pt" height="345.6pt" viewBox="0 0 460.8 345.6" xmlns="http://www.w3.org/2000/svg" version="1.1">
 <metadata>
  <rdf:RDF xmlns:dc="http://purl.org/dc/elements/1.1/" xmlns:cc="http://creativecommons.org/ns#" xmlns:rdf="http://www.w3.org/1999/02/22-rdf-syntax-ns#">
   <cc:Work>
    <dc:type rdf:resource="http://purl.org/dc/dcmitype/StillImage"/>
    <dc:date>2023-07-28T10:08:49.773619</dc:date>
    <dc:format>image/svg+xml</dc:format>
    <dc:creator>
     <cc:Agent>
      <dc:title>Matplotlib v3.7.2, https://matplotlib.org/</dc:title>
     </cc:Agent>
    </dc:creator>
   </cc:Work>
  </rdf:RDF>
 </metadata>
 <defs>
  <style type="text/css">*{stroke-linejoin: round; stroke-linecap: butt}</style>
 </defs>
 <g id="figure_1">
  <g id="patch_1">
   <path d="M 0 345.6 
L 460.8 345.6 
L 460.8 0 
L 0 0 
z
" style="fill: #ffffff"/>
  </g>
  <g id="axes_1">
   <g id="patch_2">
    <path d="M 57.6 162.432 
L 414.72 162.432 
L 414.72 41.472 
L 57.6 41.472 
z
" style="fill: #ffffff"/>
   </g>
   <g id="matplotlib.axis_1">
    <g id="xtick_1">
     <g id="line2d_1">
      <defs>
       <path id="m6250bc5881" d="M 0 0 
L 0 3.5 
" style="stroke: #000000; stroke-width: 0.8"/>
      </defs>
      <g>
       <use xlink:href="#m6250bc5881" x="89.896523" y="162.432" style="stroke: #000000; stroke-width: 0.8"/>
      </g>
     </g>
    </g>
    <g id="xtick_2">
     <g id="line2d_2">
      <g>
       <use xlink:href="#m6250bc5881" x="139.949278" y="162.432" style="stroke: #000000; stroke-width: 0.8"/>
      </g>
     </g>
    </g>
    <g id="xtick_3">
     <g id="line2d_3">
      <g>
       <use xlink:href="#m6250bc5881" x="190.002033" y="162.432" style="stroke: #000000; stroke-width: 0.8"/>
      </g>
     </g>
    </g>
    <g id="xtick_4">
     <g id="line2d_4">
      <g>
       <use xlink:href="#m6250bc5881" x="240.054788" y="162.432" style="stroke: #000000; stroke-width: 0.8"/>
      </g>
     </g>
    </g>
    <g id="xtick_5">
     <g id="line2d_5">
      <g>
       <use xlink:href="#m6250bc5881" x="290.107542" y="162.432" style="stroke: #000000; stroke-width: 0.8"/>
      </g>
     </g>
    </g>
    <g id="xtick_6">
     <g id="line2d_6">
      <g>
       <use xlink:href="#m6250bc5881" x="340.160297" y="162.432" style="stroke: #000000; stroke-width: 0.8"/>
      </g>
     </g>
    </g>
    <g id="xtick_7">
     <g id="line2d_7">
      <g>
       <use xlink:href="#m6250bc5881" x="390.213052" y="162.432" style="stroke: #000000; stroke-width: 0.8"/>
      </g>
     </g>
    </g>
   </g>
   <g id="matplotlib.axis_2">
    <g id="ytick_1">
     <g id="line2d_8">
      <defs>
       <path id="mf0b5e6d479" d="M 0 0 
L -3.5 0 
" style="stroke: #000000; stroke-width: 0.8"/>
      </defs>
      <g>
       <use xlink:href="#mf0b5e6d479" x="57.6" y="156.933818" style="stroke: #000000; stroke-width: 0.8"/>
      </g>
     </g>
     <g id="text_1">
      <!-- 0.0 -->
      <g transform="translate(34.696875 160.733037) scale(0.1 -0.1)">
       <defs>
        <path id="DejaVuSans-30" d="M 2034 4250 
Q 1547 4250 1301 3770 
Q 1056 3291 1056 2328 
Q 1056 1369 1301 889 
Q 1547 409 2034 409 
Q 2525 409 2770 889 
Q 3016 1369 3016 2328 
Q 3016 3291 2770 3770 
Q 2525 4250 2034 4250 
z
M 2034 4750 
Q 2819 4750 3233 4129 
Q 3647 3509 3647 2328 
Q 3647 1150 3233 529 
Q 2819 -91 2034 -91 
Q 1250 -91 836 529 
Q 422 1150 422 2328 
Q 422 3509 836 4129 
Q 1250 4750 2034 4750 
z
" transform="scale(0.015625)"/>
        <path id="DejaVuSans-2e" d="M 684 794 
L 1344 794 
L 1344 0 
L 684 0 
L 684 794 
z
" transform="scale(0.015625)"/>
       </defs>
       <use xlink:href="#DejaVuSans-30"/>
       <use xlink:href="#DejaVuSans-2e" x="63.623047"/>
       <use xlink:href="#DejaVuSans-30" x="95.410156"/>
      </g>
     </g>
    </g>
    <g id="ytick_2">
     <g id="line2d_9">
      <g>
       <use xlink:href="#mf0b5e6d479" x="57.6" y="135.40023" style="stroke: #000000; stroke-width: 0.8"/>
      </g>
     </g>
     <g id="text_2">
      <!-- 0.2 -->
      <g transform="translate(34.696875 139.199449) scale(0.1 -0.1)">
       <defs>
        <path id="DejaVuSans-32" d="M 1228 531 
L 3431 531 
L 3431 0 
L 469 0 
L 469 531 
Q 828 903 1448 1529 
Q 2069 2156 2228 2338 
Q 2531 2678 2651 2914 
Q 2772 3150 2772 3378 
Q 2772 3750 2511 3984 
Q 2250 4219 1831 4219 
Q 1534 4219 1204 4116 
Q 875 4013 500 3803 
L 500 4441 
Q 881 4594 1212 4672 
Q 1544 4750 1819 4750 
Q 2544 4750 2975 4387 
Q 3406 4025 3406 3419 
Q 3406 3131 3298 2873 
Q 3191 2616 2906 2266 
Q 2828 2175 2409 1742 
Q 1991 1309 1228 531 
z
" transform="scale(0.015625)"/>
       </defs>
       <use xlink:href="#DejaVuSans-30"/>
       <use xlink:href="#DejaVuSans-2e" x="63.623047"/>
       <use xlink:href="#DejaVuSans-32" x="95.410156"/>
      </g>
     </g>
    </g>
    <g id="ytick_3">
     <g id="line2d_10">
      <g>
       <use xlink:href="#mf0b5e6d479" x="57.6" y="113.866642" style="stroke: #000000; stroke-width: 0.8"/>
      </g>
     </g>
     <g id="text_3">
      <!-- 0.4 -->
      <g transform="translate(34.696875 117.665861) scale(0.1 -0.1)">
       <defs>
        <path id="DejaVuSans-34" d="M 2419 4116 
L 825 1625 
L 2419 1625 
L 2419 4116 
z
M 2253 4666 
L 3047 4666 
L 3047 1625 
L 3713 1625 
L 3713 1100 
L 3047 1100 
L 3047 0 
L 2419 0 
L 2419 1100 
L 313 1100 
L 313 1709 
L 2253 4666 
z
" transform="scale(0.015625)"/>
       </defs>
       <use xlink:href="#DejaVuSans-30"/>
       <use xlink:href="#DejaVuSans-2e" x="63.623047"/>
       <use xlink:href="#DejaVuSans-34" x="95.410156"/>
      </g>
     </g>
    </g>
    <g id="ytick_4">
     <g id="line2d_11">
      <g>
       <use xlink:href="#mf0b5e6d479" x="57.6" y="92.333054" style="stroke: #000000; stroke-width: 0.8"/>
      </g>
     </g>
     <g id="text_4">
      <!-- 0.6 -->
      <g transform="translate(34.696875 96.132273) scale(0.1 -0.1)">
       <defs>
        <path id="DejaVuSans-36" d="M 2113 2584 
Q 1688 2584 1439 2293 
Q 1191 2003 1191 1497 
Q 1191 994 1439 701 
Q 1688 409 2113 409 
Q 2538 409 2786 701 
Q 3034 994 3034 1497 
Q 3034 2003 2786 2293 
Q 2538 2584 2113 2584 
z
M 3366 4563 
L 3366 3988 
Q 3128 4100 2886 4159 
Q 2644 4219 2406 4219 
Q 1781 4219 1451 3797 
Q 1122 3375 1075 2522 
Q 1259 2794 1537 2939 
Q 1816 3084 2150 3084 
Q 2853 3084 3261 2657 
Q 3669 2231 3669 1497 
Q 3669 778 3244 343 
Q 2819 -91 2113 -91 
Q 1303 -91 875 529 
Q 447 1150 447 2328 
Q 447 3434 972 4092 
Q 1497 4750 2381 4750 
Q 2619 4750 2861 4703 
Q 3103 4656 3366 4563 
z
" transform="scale(0.015625)"/>
       </defs>
       <use xlink:href="#DejaVuSans-30"/>
       <use xlink:href="#DejaVuSans-2e" x="63.623047"/>
       <use xlink:href="#DejaVuSans-36" x="95.410156"/>
      </g>
     </g>
    </g>
    <g id="ytick_5">
     <g id="line2d_12">
      <g>
       <use xlink:href="#mf0b5e6d479" x="57.6" y="70.799466" style="stroke: #000000; stroke-width: 0.8"/>
      </g>
     </g>
     <g id="text_5">
      <!-- 0.8 -->
      <g transform="translate(34.696875 74.598685) scale(0.1 -0.1)">
       <defs>
        <path id="DejaVuSans-38" d="M 2034 2216 
Q 1584 2216 1326 1975 
Q 1069 1734 1069 1313 
Q 1069 891 1326 650 
Q 1584 409 2034 409 
Q 2484 409 2743 651 
Q 3003 894 3003 1313 
Q 3003 1734 2745 1975 
Q 2488 2216 2034 2216 
z
M 1403 2484 
Q 997 2584 770 2862 
Q 544 3141 544 3541 
Q 544 4100 942 4425 
Q 1341 4750 2034 4750 
Q 2731 4750 3128 4425 
Q 3525 4100 3525 3541 
Q 3525 3141 3298 2862 
Q 3072 2584 2669 2484 
Q 3125 2378 3379 2068 
Q 3634 1759 3634 1313 
Q 3634 634 3220 271 
Q 2806 -91 2034 -91 
Q 1263 -91 848 271 
Q 434 634 434 1313 
Q 434 1759 690 2068 
Q 947 2378 1403 2484 
z
M 1172 3481 
Q 1172 3119 1398 2916 
Q 1625 2713 2034 2713 
Q 2441 2713 2670 2916 
Q 2900 3119 2900 3481 
Q 2900 3844 2670 4047 
Q 2441 4250 2034 4250 
Q 1625 4250 1398 4047 
Q 1172 3844 1172 3481 
z
" transform="scale(0.015625)"/>
       </defs>
       <use xlink:href="#DejaVuSans-30"/>
       <use xlink:href="#DejaVuSans-2e" x="63.623047"/>
       <use xlink:href="#DejaVuSans-38" x="95.410156"/>
      </g>
     </g>
    </g>
    <g id="ytick_6">
     <g id="line2d_13">
      <g>
       <use xlink:href="#mf0b5e6d479" x="57.6" y="49.265878" style="stroke: #000000; stroke-width: 0.8"/>
      </g>
     </g>
     <g id="text_6">
      <!-- 1.0 -->
      <g transform="translate(34.696875 53.065096) scale(0.1 -0.1)">
       <defs>
        <path id="DejaVuSans-31" d="M 794 531 
L 1825 531 
L 1825 4091 
L 703 3866 
L 703 4441 
L 1819 4666 
L 2450 4666 
L 2450 531 
L 3481 531 
L 3481 0 
L 794 0 
L 794 531 
z
" transform="scale(0.015625)"/>
       </defs>
       <use xlink:href="#DejaVuSans-31"/>
       <use xlink:href="#DejaVuSans-2e" x="63.623047"/>
       <use xlink:href="#DejaVuSans-30" x="95.410156"/>
      </g>
     </g>
    </g>
    <g id="text_7">
     <!-- cross section (cm$^{2}$) -->
     <g transform="translate(28.617187 150.152) rotate(-90) scale(0.1 -0.1)">
      <defs>
       <path id="DejaVuSans-63" d="M 3122 3366 
L 3122 2828 
Q 2878 2963 2633 3030 
Q 2388 3097 2138 3097 
Q 1578 3097 1268 2742 
Q 959 2388 959 1747 
Q 959 1106 1268 751 
Q 1578 397 2138 397 
Q 2388 397 2633 464 
Q 2878 531 3122 666 
L 3122 134 
Q 2881 22 2623 -34 
Q 2366 -91 2075 -91 
Q 1284 -91 818 406 
Q 353 903 353 1747 
Q 353 2603 823 3093 
Q 1294 3584 2113 3584 
Q 2378 3584 2631 3529 
Q 2884 3475 3122 3366 
z
" transform="scale(0.015625)"/>
       <path id="DejaVuSans-72" d="M 2631 2963 
Q 2534 3019 2420 3045 
Q 2306 3072 2169 3072 
Q 1681 3072 1420 2755 
Q 1159 2438 1159 1844 
L 1159 0 
L 581 0 
L 581 3500 
L 1159 3500 
L 1159 2956 
Q 1341 3275 1631 3429 
Q 1922 3584 2338 3584 
Q 2397 3584 2469 3576 
Q 2541 3569 2628 3553 
L 2631 2963 
z
" transform="scale(0.015625)"/>
       <path id="DejaVuSans-6f" d="M 1959 3097 
Q 1497 3097 1228 2736 
Q 959 2375 959 1747 
Q 959 1119 1226 758 
Q 1494 397 1959 397 
Q 2419 397 2687 759 
Q 2956 1122 2956 1747 
Q 2956 2369 2687 2733 
Q 2419 3097 1959 3097 
z
M 1959 3584 
Q 2709 3584 3137 3096 
Q 3566 2609 3566 1747 
Q 3566 888 3137 398 
Q 2709 -91 1959 -91 
Q 1206 -91 779 398 
Q 353 888 353 1747 
Q 353 2609 779 3096 
Q 1206 3584 1959 3584 
z
" transform="scale(0.015625)"/>
       <path id="DejaVuSans-73" d="M 2834 3397 
L 2834 2853 
Q 2591 2978 2328 3040 
Q 2066 3103 1784 3103 
Q 1356 3103 1142 2972 
Q 928 2841 928 2578 
Q 928 2378 1081 2264 
Q 1234 2150 1697 2047 
L 1894 2003 
Q 2506 1872 2764 1633 
Q 3022 1394 3022 966 
Q 3022 478 2636 193 
Q 2250 -91 1575 -91 
Q 1294 -91 989 -36 
Q 684 19 347 128 
L 347 722 
Q 666 556 975 473 
Q 1284 391 1588 391 
Q 1994 391 2212 530 
Q 2431 669 2431 922 
Q 2431 1156 2273 1281 
Q 2116 1406 1581 1522 
L 1381 1569 
Q 847 1681 609 1914 
Q 372 2147 372 2553 
Q 372 3047 722 3315 
Q 1072 3584 1716 3584 
Q 2034 3584 2315 3537 
Q 2597 3491 2834 3397 
z
" transform="scale(0.015625)"/>
       <path id="DejaVuSans-20" transform="scale(0.015625)"/>
       <path id="DejaVuSans-65" d="M 3597 1894 
L 3597 1613 
L 953 1613 
Q 991 1019 1311 708 
Q 1631 397 2203 397 
Q 2534 397 2845 478 
Q 3156 559 3463 722 
L 3463 178 
Q 3153 47 2828 -22 
Q 2503 -91 2169 -91 
Q 1331 -91 842 396 
Q 353 884 353 1716 
Q 353 2575 817 3079 
Q 1281 3584 2069 3584 
Q 2775 3584 3186 3129 
Q 3597 2675 3597 1894 
z
M 3022 2063 
Q 3016 2534 2758 2815 
Q 2500 3097 2075 3097 
Q 1594 3097 1305 2825 
Q 1016 2553 972 2059 
L 3022 2063 
z
" transform="scale(0.015625)"/>
       <path id="DejaVuSans-74" d="M 1172 4494 
L 1172 3500 
L 2356 3500 
L 2356 3053 
L 1172 3053 
L 1172 1153 
Q 1172 725 1289 603 
Q 1406 481 1766 481 
L 2356 481 
L 2356 0 
L 1766 0 
Q 1100 0 847 248 
Q 594 497 594 1153 
L 594 3053 
L 172 3053 
L 172 3500 
L 594 3500 
L 594 4494 
L 1172 4494 
z
" transform="scale(0.015625)"/>
       <path id="DejaVuSans-69" d="M 603 3500 
L 1178 3500 
L 1178 0 
L 603 0 
L 603 3500 
z
M 603 4863 
L 1178 4863 
L 1178 4134 
L 603 4134 
L 603 4863 
z
" transform="scale(0.015625)"/>
       <path id="DejaVuSans-6e" d="M 3513 2113 
L 3513 0 
L 2938 0 
L 2938 2094 
Q 2938 2591 2744 2837 
Q 2550 3084 2163 3084 
Q 1697 3084 1428 2787 
Q 1159 2491 1159 1978 
L 1159 0 
L 581 0 
L 581 3500 
L 1159 3500 
L 1159 2956 
Q 1366 3272 1645 3428 
Q 1925 3584 2291 3584 
Q 2894 3584 3203 3211 
Q 3513 2838 3513 2113 
z
" transform="scale(0.015625)"/>
       <path id="DejaVuSans-28" d="M 1984 4856 
Q 1566 4138 1362 3434 
Q 1159 2731 1159 2009 
Q 1159 1288 1364 580 
Q 1569 -128 1984 -844 
L 1484 -844 
Q 1016 -109 783 600 
Q 550 1309 550 2009 
Q 550 2706 781 3412 
Q 1013 4119 1484 4856 
L 1984 4856 
z
" transform="scale(0.015625)"/>
       <path id="DejaVuSans-6d" d="M 3328 2828 
Q 3544 3216 3844 3400 
Q 4144 3584 4550 3584 
Q 5097 3584 5394 3201 
Q 5691 2819 5691 2113 
L 5691 0 
L 5113 0 
L 5113 2094 
Q 5113 2597 4934 2840 
Q 4756 3084 4391 3084 
Q 3944 3084 3684 2787 
Q 3425 2491 3425 1978 
L 3425 0 
L 2847 0 
L 2847 2094 
Q 2847 2600 2669 2842 
Q 2491 3084 2119 3084 
Q 1678 3084 1418 2786 
Q 1159 2488 1159 1978 
L 1159 0 
L 581 0 
L 581 3500 
L 1159 3500 
L 1159 2956 
Q 1356 3278 1631 3431 
Q 1906 3584 2284 3584 
Q 2666 3584 2933 3390 
Q 3200 3197 3328 2828 
z
" transform="scale(0.015625)"/>
       <path id="DejaVuSans-29" d="M 513 4856 
L 1013 4856 
Q 1481 4119 1714 3412 
Q 1947 2706 1947 2009 
Q 1947 1309 1714 600 
Q 1481 -109 1013 -844 
L 513 -844 
Q 928 -128 1133 580 
Q 1338 1288 1338 2009 
Q 1338 2731 1133 3434 
Q 928 4138 513 4856 
z
" transform="scale(0.015625)"/>
      </defs>
      <use xlink:href="#DejaVuSans-63" transform="translate(0 0.765625)"/>
      <use xlink:href="#DejaVuSans-72" transform="translate(54.980469 0.765625)"/>
      <use xlink:href="#DejaVuSans-6f" transform="translate(96.09375 0.765625)"/>
      <use xlink:href="#DejaVuSans-73" transform="translate(157.275391 0.765625)"/>
      <use xlink:href="#DejaVuSans-73" transform="translate(209.375 0.765625)"/>
      <use xlink:href="#DejaVuSans-20" transform="translate(261.474609 0.765625)"/>
      <use xlink:href="#DejaVuSans-73" transform="translate(293.261719 0.765625)"/>
      <use xlink:href="#DejaVuSans-65" transform="translate(345.361328 0.765625)"/>
      <use xlink:href="#DejaVuSans-63" transform="translate(406.884766 0.765625)"/>
      <use xlink:href="#DejaVuSans-74" transform="translate(461.865234 0.765625)"/>
      <use xlink:href="#DejaVuSans-69" transform="translate(501.074219 0.765625)"/>
      <use xlink:href="#DejaVuSans-6f" transform="translate(528.857422 0.765625)"/>
      <use xlink:href="#DejaVuSans-6e" transform="translate(590.039062 0.765625)"/>
      <use xlink:href="#DejaVuSans-20" transform="translate(653.417969 0.765625)"/>
      <use xlink:href="#DejaVuSans-28" transform="translate(685.205078 0.765625)"/>
      <use xlink:href="#DejaVuSans-63" transform="translate(724.21875 0.765625)"/>
      <use xlink:href="#DejaVuSans-6d" transform="translate(779.199219 0.765625)"/>
      <use xlink:href="#DejaVuSans-32" transform="translate(877.568359 39.046875) scale(0.7)"/>
      <use xlink:href="#DejaVuSans-29" transform="translate(924.838867 0.765625)"/>
     </g>
    </g>
    <g id="text_8">
     <!-- 1e−20 -->
     <g transform="translate(57.6 38.472) scale(0.1 -0.1)">
      <defs>
       <path id="DejaVuSans-2212" d="M 678 2272 
L 4684 2272 
L 4684 1741 
L 678 1741 
L 678 2272 
z
" transform="scale(0.015625)"/>
      </defs>
      <use xlink:href="#DejaVuSans-31"/>
      <use xlink:href="#DejaVuSans-65" x="63.623047"/>
      <use xlink:href="#DejaVuSans-2212" x="125.146484"/>
      <use xlink:href="#DejaVuSans-32" x="208.935547"/>
      <use xlink:href="#DejaVuSans-30" x="272.558594"/>
     </g>
    </g>
   </g>
   <g id="line2d_14">
    <path d="M 260.611454 156.663809 
L 260.673519 156.812799 
L 260.735585 156.695657 
L 260.952313 156.409798 
L 261.044911 156.329155 
L 261.075943 156.402046 
L 261.168541 156.633963 
L 261.230606 156.570741 
L 261.292672 156.443068 
L 261.354737 156.475336 
L 261.416302 156.539474 
L 261.447335 156.475616 
L 261.664063 156.379651 
L 261.695096 156.452327 
L 261.756661 156.769302 
L 261.818726 156.714714 
L 262.066488 156.421319 
L 262.128553 156.501736 
L 262.406846 156.849191 
L 262.437879 156.802571 
L 262.561509 156.677698 
L 262.592542 156.701363 
L 262.68564 156.701686 
L 263.057032 156.552501 
L 263.180662 156.765856 
L 263.242727 156.640348 
L 263.27376 156.584982 
L 263.304793 156.616801 
L 263.366858 156.805478 
L 263.39739 156.75875 
L 263.459456 156.457711 
L 263.521521 156.522021 
L 263.645151 156.712453 
L 263.707217 156.657575 
L 263.800315 156.554784 
L 264.016543 156.346382 
L 264.078608 156.475702 
L 264.171706 156.659007 
L 264.202739 156.595784 
L 264.326369 156.452327 
L 264.357402 156.516605 
L 264.481032 156.492983 
L 264.605163 156.36447 
L 264.636196 156.437254 
L 264.821892 156.581806 
L 264.852924 156.558036 
L 264.914489 156.61384 
L 264.976555 156.747983 
L 265.03862 156.67745 
L 265.193283 156.575 
L 265.286381 156.575286 
L 265.347946 156.717729 
L 265.410012 156.67071 
L 265.564675 156.48831 
L 265.595707 156.560318 
L 265.750871 156.750352 
L 265.781903 156.72688 
L 266.276925 156.657596 
L 266.370023 156.474744 
L 266.401056 156.538881 
L 266.586752 156.838747 
L 266.617784 156.753044 
L 266.710883 156.491841 
L 266.741415 156.515959 
L 266.896578 156.714606 
L 267.051241 156.785667 
L 267.082274 156.699533 
L 267.175372 156.597011 
L 267.299002 156.933818 
L 267.361068 156.864372 
L 267.546764 156.802786 
L 267.732459 156.772101 
L 267.887623 156.873847 
L 267.918656 156.811723 
L 268.042286 156.559898 
L 268.073319 156.599778 
L 268.227982 156.804832 
L 268.352112 156.512923 
L 268.383145 156.560943 
L 268.475743 156.608962 
L 268.506775 156.585216 
L 268.630906 156.497763 
L 268.692471 156.344552 
L 268.754537 156.3691 
L 268.847635 156.434131 
L 268.971265 156.721066 
L 269.002298 156.673897 
L 269.126429 156.45911 
L 269.157461 156.491368 
L 269.250059 156.745507 
L 269.281092 156.68265 
L 269.49782 156.224502 
L 269.528853 156.199953 
L 269.559885 156.257448 
L 269.684016 156.817214 
L 269.776614 156.684136 
L 269.869712 156.644956 
L 269.993843 156.356718 
L 270.055408 156.510166 
L 270.148506 156.740447 
L 270.179539 156.661731 
L 270.303169 156.518941 
L 270.334202 156.61469 
L 270.365234 156.717513 
L 270.4273 156.630841 
L 270.520398 156.511598 
L 270.55143 156.599477 
L 270.644028 156.781145 
L 270.675061 156.757673 
L 270.891789 156.50474 
L 270.984887 156.616693 
L 271.01592 156.592952 
L 271.109018 156.408829 
L 271.13955 156.513515 
L 271.294714 156.625586 
L 271.449377 156.594298 
L 271.60454 156.450712 
L 271.883334 156.745722 
L 272.037997 156.706962 
L 272.06903 156.730649 
L 272.100063 156.651847 
L 272.193161 156.339168 
L 272.255226 156.444575 
L 272.378857 156.477209 
L 272.53402 156.27489 
L 272.596086 156.397201 
L 272.688683 156.606066 
L 272.750749 156.550488 
L 272.812814 156.454373 
L 272.843847 156.52678 
L 272.936444 156.678139 
L 272.967477 156.646603 
L 273.246271 156.309775 
L 273.401434 156.342829 
L 273.432467 156.30213 
L 273.4635 156.343044 
L 273.58713 156.61679 
L 273.618163 156.58507 
L 273.773326 156.237637 
L 273.835392 156.344229 
L 273.896957 156.505989 
L 273.959022 156.474044 
L 274.083153 156.602427 
L 274.207284 156.68995 
L 274.486078 156.555839 
L 274.671773 156.500358 
L 274.702806 156.556507 
L 274.764871 156.476531 
L 274.826937 156.371684 
L 274.950567 156.323233 
L 275.074698 156.54967 
L 275.136763 156.453511 
L 275.260894 156.558229 
L 275.44659 156.267461 
L 275.694351 156.431009 
L 275.818482 156.687043 
L 275.849515 156.647583 
L 276.097276 156.480655 
L 276.159341 156.464709 
L 276.190374 156.545115 
L 276.314505 156.553503 
L 276.469168 156.505913 
L 276.593299 156.578315 
L 276.624331 156.530451 
L 276.84106 156.482948 
L 276.996223 156.722251 
L 277.058289 156.619568 
L 277.275017 156.644051 
L 277.399148 156.786313 
L 277.430181 156.754982 
L 277.554311 156.509262 
L 277.584844 156.533412 
L 277.802073 156.53409 
L 277.895171 156.34046 
L 277.988269 156.381374 
L 278.204997 156.702332 
L 278.267063 156.583486 
L 278.298095 156.567617 
L 278.329128 156.671076 
L 278.360161 156.836163 
L 278.422226 156.765964 
L 278.576889 156.496353 
L 278.607922 156.512514 
L 278.732053 156.672325 
L 278.794118 156.712022 
L 278.825151 156.61707 
L 278.948781 156.368131 
L 278.979814 156.384496 
L 279.16601 156.385035 
L 279.228076 156.474216 
L 279.290141 156.442099 
L 279.506869 156.394186 
L 279.568935 156.239145 
L 279.631 156.329478 
L 279.878761 156.452004 
L 280.158056 156.379974 
L 280.282187 156.306975 
L 280.405817 156.340029 
L 280.498915 156.184234 
L 280.56098 156.225686 
L 280.654079 156.2343 
L 280.778209 155.925723 
L 280.840275 156.027039 
L 281.181134 156.202861 
L 281.36733 156.416151 
L 281.398363 156.375668 
L 281.584059 156.079581 
L 281.739222 156.0967 
L 281.863353 156.072044 
L 281.956451 155.793076 
L 282.018016 155.82753 
L 282.17318 156.03113 
L 282.204212 155.980849 
L 282.266278 156.081626 
L 282.328343 156.115219 
L 282.545572 156.35478 
L 282.63817 156.166038 
L 282.669202 156.232254 
L 282.824366 156.363824 
L 283.010562 156.22504 
L 283.10366 156.159147 
L 283.134693 156.192417 
L 283.258824 156.389557 
L 283.289857 156.316235 
L 283.537618 156.143966 
L 283.754847 156.431655 
L 283.785879 156.383097 
L 283.941043 156.359087 
L 284.219837 156.351873 
L 284.312935 156.457711 
L 284.343968 156.384819 
L 284.406033 156.344229 
L 284.468098 156.570707 
L 284.530164 156.48256 
L 284.83999 156.255402 
L 284.871023 156.288457 
L 284.995154 156.403123 
L 285.057219 156.346274 
L 285.088252 156.36264 
L 285.18135 156.556905 
L 285.243416 156.42821 
L 285.336514 156.273383 
L 285.367546 156.314512 
L 285.460645 156.42078 
L 285.491677 156.396447 
L 285.646841 156.315374 
L 285.770471 156.502511 
L 285.801504 156.470351 
L 285.925635 156.462663 
L 286.018733 156.471029 
L 286.142864 156.398493 
L 286.32906 156.439622 
L 286.453191 156.504621 
L 286.546289 156.640951 
L 286.577322 156.625123 
L 286.701452 156.529514 
L 286.79405 156.569903 
L 286.825083 156.505774 
L 287.011279 156.360486 
L 287.104377 156.602836 
L 287.13541 156.53086 
L 287.259541 156.393863 
L 287.352639 156.222025 
L 287.383671 156.263262 
L 287.538835 156.604182 
L 287.6009 156.580401 
L 287.818129 156.346597 
L 288.004326 156.557626 
L 288.035358 156.533649 
L 288.127956 156.363932 
L 288.190021 156.265846 
L 288.221054 156.323341 
L 288.345185 156.694149 
L 288.40725 156.550854 
L 288.500348 156.381374 
L 288.562414 156.454696 
L 288.841708 156.382451 
L 288.934806 156.27629 
L 288.965839 156.292871 
L 289.43133 156.625996 
L 289.679591 156.81646 
L 289.710624 156.74583 
L 289.865788 156.474851 
L 289.89682 156.499163 
L 290.020951 156.627826 
L 290.176115 156.532238 
L 290.392843 156.51682 
L 290.485941 156.387511 
L 290.516974 156.46879 
L 290.70317 156.717298 
L 290.765236 156.598196 
L 291.013497 156.454158 
L 291.075563 156.518931 
L 291.106595 156.486781 
L 291.199693 156.357149 
L 291.230726 156.406138 
L 291.38589 156.632046 
L 291.416922 156.60022 
L 291.51002 156.423257 
L 291.572086 156.504352 
L 291.665184 156.712345 
L 291.727249 156.728388 
L 291.758282 156.665047 
L 291.85138 156.54546 
L 291.913446 156.609748 
L 292.068609 156.546138 
L 292.285838 156.368669 
L 292.472034 156.56344 
L 292.5341 156.48312 
L 292.658231 156.443068 
L 292.844427 156.38665 
L 292.906492 156.288672 
L 292.937525 156.313328 
L 293.030623 156.549121 
L 293.123721 156.509165 
L 293.278885 156.669752 
L 293.309918 156.606088 
L 293.465081 156.486006 
L 293.496114 156.534478 
L 293.651277 156.607143 
L 293.962105 156.479459 
L 294.117268 156.632542 
L 294.179334 156.528545 
L 294.334497 156.480622 
L 294.551726 156.705454 
L 294.613792 156.634081 
L 294.893086 156.498506 
L 294.955152 156.555085 
L 294.986184 156.523 
L 295.172381 156.36124 
L 295.234446 156.410444 
L 295.265479 156.515808 
L 295.327544 156.443175 
L 295.482708 156.386757 
L 295.668904 156.362747 
L 295.855601 156.322372 
L 295.979731 156.485715 
L 296.010764 156.461479 
L 296.07283 156.372222 
L 296.134895 156.405061 
L 296.259026 156.510812 
L 296.290059 156.462448 
L 296.414189 156.340568 
L 296.445222 156.373407 
L 296.724516 156.333354 
L 296.817615 156.407107 
L 297.003811 156.448343 
L 297.531867 156.253572 
L 297.624966 156.393325 
L 297.655998 156.352627 
L 297.749096 156.187895 
L 297.811162 156.254433 
L 298.028391 156.419058 
L 298.183554 156.500638 
L 298.24612 156.435962 
L 298.308186 156.492939 
L 298.680578 156.421103 
L 298.773676 156.282104 
L 298.804709 156.306975 
L 298.92884 156.323772 
L 299.084504 156.299546 
L 299.146569 156.2006 
L 299.177602 156.299869 
L 299.2707 156.495922 
L 299.301733 156.382235 
L 299.456896 156.317204 
L 299.61206 156.22687 
L 299.736191 156.001306 
L 299.767223 156.052018 
L 299.95392 156.367915 
L 300.015986 156.252926 
L 300.202182 156.061816 
L 300.233215 156.112204 
L 300.326313 156.229132 
L 300.357345 156.196077 
L 300.512509 155.721262 
L 300.606108 155.885025 
L 300.823337 155.996246 
L 301.040566 155.963084 
L 301.382426 155.593137 
L 301.444491 155.434865 
L 301.506557 155.514324 
L 301.630688 155.742042 
L 301.66172 155.698759 
L 301.816884 155.336887 
L 301.878949 155.444555 
L 301.941515 155.409025 
L 302.158744 154.880375 
L 302.313908 154.843768 
L 302.375973 154.871762 
L 302.717833 154.18807 
L 302.997128 153.937204 
L 303.152792 154.089016 
L 303.338988 154.318349 
L 303.618783 154.819004 
L 303.804979 155.070947 
L 303.898077 155.089251 
L 303.991175 155.217376 
L 304.022208 155.181845 
L 304.146839 155.117245 
L 304.177872 155.173232 
L 304.239938 155.24537 
L 304.27097 155.200149 
L 304.364068 155.026804 
L 304.395101 155.136625 
L 304.519232 155.417638 
L 304.550765 155.355191 
L 304.643863 155.082791 
L 304.705929 155.147392 
L 304.892125 155.265826 
L 305.016756 155.230296 
L 305.047789 155.302434 
L 305.233985 155.648909 
L 305.389149 155.719108 
L 305.420182 155.675611 
L 305.51378 155.658491 
L 305.544813 155.702205 
L 305.824107 156.096054 
L 305.886173 155.95264 
L 305.948739 155.781448 
L 306.010804 155.79889 
L 306.165968 155.995923 
L 306.41473 155.791461 
L 306.445763 155.705004 
L 306.507828 155.843465 
L 306.600926 156.140413 
L 306.631959 156.064938 
L 306.725057 155.929707 
L 306.75659 155.946826 
L 306.942786 156.216427 
L 306.973819 156.199953 
L 307.09795 156.200384 
L 307.222581 156.471998 
L 307.253614 156.37416 
L 307.377745 155.991185 
L 307.408778 156.042112 
L 307.595474 156.342398 
L 307.719605 156.38385 
L 307.843736 155.984187 
L 307.874769 156.001198 
L 308.372293 156.467401 
L 308.403326 156.410552 
L 308.558489 156.33723 
L 308.652088 156.146766 
L 308.714153 156.222025 
L 308.869317 156.305253 
L 308.931382 156.305468 
L 308.993948 156.156133 
L 309.056014 156.189725 
L 309.149112 156.518511 
L 309.211177 156.445652 
L 309.335809 156.29847 
L 309.366841 156.339706 
L 309.490972 156.356503 
L 309.739734 156.099822 
L 309.863865 156.117049 
L 310.081595 156.642146 
L 310.14366 156.537783 
L 310.329856 156.185418 
L 310.609651 156.425518 
L 310.640684 156.327217 
L 310.70325 156.094439 
L 310.765315 156.211689 
L 310.951512 156.377498 
L 311.014077 156.369531 
L 311.107176 156.516508 
L 311.138208 156.443498 
L 311.293872 156.054171 
L 311.355938 156.071183 
L 311.480069 156.272091 
L 311.511101 156.230639 
L 311.635733 156.280812 
L 311.790896 156.289533 
L 312.039658 156.115434 
L 312.257388 156.149565 
L 312.350486 156.45545 
L 312.412551 156.332708 
L 312.568215 156.150534 
L 312.599248 156.175728 
L 312.754412 156.226224 
L 312.910076 156.134922 
L 312.941109 156.210182 
L 313.003174 156.375668 
L 313.034207 156.276936 
L 313.251936 155.941443 
L 313.282969 155.915925 
L 313.314002 155.992693 
L 313.438633 156.26154 
L 313.469666 156.203507 
L 313.656362 156.16227 
L 313.74946 156.19597 
L 313.905125 156.246466 
L 313.936157 156.213304 
L 313.998223 156.279843 
L 314.091321 156.230424 
L 314.371116 155.99603 
L 314.402148 156.046957 
L 314.495747 156.072582 
L 314.52678 156.013473 
L 314.557812 155.936921 
L 314.619878 156.047603 
L 314.806575 156.240975 
L 314.837607 156.182727 
L 314.961738 156.04868 
L 314.993271 156.065692 
L 315.148435 156.10822 
L 315.397197 156.150965 
L 315.459263 156.083995 
L 315.583894 155.776818 
L 315.614927 155.828714 
L 315.770591 156.084964 
L 315.801623 156.025854 
L 315.894722 155.898376 
L 315.956787 155.975466 
L 316.050386 156.094224 
L 316.112451 155.975897 
L 316.174516 155.839051 
L 316.205549 155.92497 
L 316.268115 155.942304 
L 316.299148 155.899668 
L 316.641008 155.900744 
L 316.827705 155.918402 
L 316.88977 155.875765 
L 316.920803 155.935736 
L 317.014402 155.910434 
L 317.605024 155.669904 
L 317.729656 156.082595 
L 317.791721 155.912803 
L 317.853786 155.609287 
L 317.916352 155.705758 
L 318.413877 155.415485 
L 318.506975 155.496236 
L 318.538008 155.540703 
L 318.600573 155.443479 
L 318.724704 155.24537 
L 318.755737 155.272287 
L 318.880368 155.200149 
L 318.942434 155.145238 
L 319.004499 155.218453 
L 319.067065 155.146315 
L 319.191196 154.744714 
L 319.222229 154.764094 
L 319.284795 154.782397 
L 319.315827 154.735024 
L 319.533557 154.427093 
L 319.595622 154.612282 
L 319.657688 154.47662 
L 319.90695 154.110549 
L 320.031081 154.040565 
L 320.155713 153.596973 
L 320.746335 151.430694 
L 320.777868 151.443615 
L 321.24436 149.038313 
L 321.462089 148.418145 
L 321.866516 148.581801 
L 322.488671 150.992486 
L 322.644336 151.163678 
L 322.768967 151.216435 
L 322.831032 151.138914 
L 322.862065 151.269192 
L 323.110827 152.144533 
L 323.515253 152.406166 
L 323.608852 152.627962 
L 324.013278 153.545293 
L 324.075344 153.58836 
L 324.386672 154.384026 
L 324.635434 154.598285 
L 324.791098 154.404483 
L 324.91573 154.686573 
L 324.977795 154.800701 
L 325.040361 154.753327 
L 325.320156 154.867455 
L 325.444787 155.202302 
L 325.47582 155.157082 
L 325.600451 155.211992 
L 325.724582 155.420868 
L 325.756115 155.367034 
L 325.818181 155.330427 
L 326.004877 155.056951 
L 326.03591 155.075254 
L 326.160542 155.395028 
L 326.25364 155.573649 
L 326.285173 155.484392 
L 326.347238 155.404718 
L 326.409304 155.476856 
L 326.47187 155.521107 
L 326.564968 155.270133 
L 326.596001 155.342271 
L 326.845263 155.698652 
L 326.938361 155.681425 
L 327.24969 155.317507 
L 327.529985 155.604119 
L 327.561018 155.559975 
L 327.716682 155.218453 
L 327.872346 155.498389 
L 327.934411 155.31966 
L 327.996977 155.191536 
L 328.02801 155.229219 
L 328.214707 155.850786 
L 328.401403 155.411178 
L 328.463969 155.285207 
L 328.526035 155.357344 
L 328.681699 155.385338 
L 328.899428 155.590768 
L 328.930461 155.519923 
L 329.241789 155.177539 
L 329.366421 155.476856 
L 329.397453 155.414408 
L 329.428486 155.305664 
L 329.491052 155.459629 
L 329.615683 155.414408 
L 329.739814 155.26152 
L 329.864445 155.620269 
L 329.927011 155.415485 
L 330.144741 155.032187 
L 330.36247 155.345501 
L 330.456069 155.29059 
L 330.611733 155.435942 
L 330.79843 155.173232 
L 330.829463 155.072024 
L 330.923061 155.118321 
L 331.01666 155.256136 
L 331.047693 155.237833 
L 331.265422 154.895449 
L 331.452119 155.339041 
L 331.514685 155.203379 
L 331.607783 155.065564 
L 331.639316 155.138778 
L 331.732414 155.231373 
L 331.763947 155.185075 
L 332.137341 155.112938 
L 332.168374 155.010653 
L 332.23094 155.066641 
L 332.293005 155.094634 
L 332.324038 155.020344 
L 332.511235 154.652119 
L 332.697932 154.71995 
L 332.759997 154.691956 
L 332.79103 154.73933 
L 332.978227 154.920212 
L 333.133891 154.826541 
L 333.445219 154.242981 
L 333.507285 154.352802 
L 333.569851 154.539068 
L 333.631916 154.432477 
L 333.756548 153.868297 
L 333.819114 154.042719 
L 333.912212 154.134236 
L 333.943244 154.083632 
L 334.036843 153.797236 
L 334.098908 153.869373 
L 334.192507 153.640041 
L 334.286106 153.745555 
L 334.348171 153.849993 
L 334.379204 153.767089 
L 334.472803 153.524836 
L 335.126992 151.203515 
L 335.158025 151.242276 
L 335.313689 151.359634 
L 335.376255 151.282113 
L 335.407287 151.36071 
L 335.500386 151.475915 
L 335.936846 149.573422 
L 336.715166 143.096119 
L 337.058027 138.143394 
L 337.400889 134.39655 
L 337.431921 134.42885 
L 337.587585 135.03179 
L 337.618618 134.96719 
L 337.681184 134.773387 
L 337.712217 135.03179 
L 337.867881 136.237671 
L 338.117144 138.035726 
L 338.460005 141.470333 
L 338.553103 141.007361 
L 338.615669 140.856626 
L 338.646702 140.985827 
L 338.926997 142.331677 
L 338.989563 142.374744 
L 339.300891 144.689605 
L 339.550154 146.29278 
L 339.861983 148.470903 
L 340.235877 150.403542 
L 340.422574 150.954802 
L 340.609771 151.492065 
L 340.890066 152.127306 
L 340.983665 151.993798 
L 341.014698 152.127306 
L 341.575789 153.223366 
L 341.606822 153.156611 
L 341.762486 153.080167 
L 342.011748 153.169532 
L 342.198946 153.495766 
L 342.261011 153.323497 
L 342.385643 153.34503 
L 342.57284 153.214752 
L 342.603873 153.28043 
L 342.728504 153.656191 
L 342.760037 153.624967 
L 342.853135 153.615277 
L 342.946734 153.519452 
L 342.977767 153.573286 
L 343.164964 153.678801 
L 343.195997 153.584053 
L 343.289595 153.531296 
L 343.352161 153.62712 
L 343.414227 153.563596 
L 343.476793 153.62712 
L 343.507825 153.574363 
L 343.601424 153.446238 
L 343.632457 153.500072 
L 343.788121 153.869373 
L 344.037884 153.533449 
L 344.162515 153.416091 
L 344.224581 153.307347 
L 344.255613 153.362257 
L 344.287147 153.426858 
L 344.349212 153.340724 
L 344.567442 153.417168 
L 344.723607 153.233056 
L 344.754639 153.276123 
L 344.879271 153.439778 
L 344.910303 153.375177 
L 345.097501 153.223366 
L 345.159566 153.168455 
L 345.191099 153.212599 
L 345.253165 153.333187 
L 345.284198 153.245976 
L 345.346764 153.157688 
L 345.409329 153.212599 
L 345.471395 153.136155 
L 345.533961 153.047867 
L 345.564994 153.114621 
L 345.627559 153.0694 
L 345.783224 152.834684 
L 345.814256 152.857295 
L 345.845289 152.902515 
L 345.876822 152.834684 
L 346.063519 152.523524 
L 346.219684 152.48907 
L 346.437914 152.192983 
L 346.687176 151.851676 
L 346.780775 151.839833 
L 346.967972 151.383321 
L 347.030038 151.563126 
L 347.061571 151.525442 
L 347.248268 151.241199 
L 348.027589 149.473291 
L 348.183754 148.764836 
L 348.214786 148.7896 
L 348.24632 148.78637 
L 348.90101 145.357146 
L 349.618266 136.614509 
L 349.99216 127.484268 
L 350.64735 110.795737 
L 350.678383 110.763437 
L 350.740448 111.258709 
L 350.803014 111.118741 
L 350.834047 111.05414 
L 350.86558 111.204875 
L 351.145876 113.659704 
L 351.30204 115.296257 
L 351.489238 116.39447 
L 351.832099 121.293361 
L 351.863632 121.314895 
L 351.988264 122.811479 
L 352.237526 128.399445 
L 352.986315 140.727424 
L 353.298144 143.236087 
L 353.516374 145.14181 
L 353.890769 147.204728 
L 354.327729 148.608718 
L 354.483393 148.492436 
L 354.639558 149.262262 
L 354.702124 149.12337 
L 354.795222 148.633481 
L 354.857788 148.762683 
L 355.076018 149.431301 
L 355.356814 149.877046 
L 355.388347 149.808139 
L 355.544011 149.627256 
L 355.669143 149.518512 
L 355.700176 149.421611 
L 355.762742 149.552966 
L 355.824807 149.666017 
L 355.887373 149.593879 
L 356.137136 149.893196 
L 356.448965 149.137367 
L 356.479998 149.194431 
L 356.542564 149.37639 
L 356.60513 149.298869 
L 356.760794 148.953255 
L 356.885926 148.729306 
L 356.947991 148.77345 
L 357.010557 148.744379 
L 357.04159 148.848817 
L 357.073123 148.960792 
L 357.104156 148.903728 
L 357.26032 148.085451 
L 357.353919 148.106985 
L 357.415984 148.012237 
L 357.541116 147.367306 
L 357.603682 147.378073 
L 357.884478 146.809586 
L 358.227339 145.260245 
L 358.44607 143.989763 
L 358.508135 143.882095 
L 358.726866 142.568546 
L 359.070228 139.53231 
L 359.194859 138.434097 
L 359.787984 126.063051 
L 360.443175 98.844596 
L 361.0363 78.742991 
L 361.098866 78.936793 
L 361.129899 78.732224 
L 361.286063 76.471198 
L 361.317096 77.149506 
L 361.504293 79.550501 
L 361.566859 79.055228 
L 361.598392 79.109062 
L 361.847655 83.394246 
L 362.035353 88.637675 
L 362.534379 110.537334 
L 363.377267 133.276803 
L 363.752163 137.637355 
L 364.001926 139.586144 
L 364.095524 139.543077 
L 364.314255 140.802792 
L 364.438886 141.610302 
L 364.469919 141.599535 
L 364.501452 141.545701 
L 364.532485 141.631835 
L 364.90738 142.676214 
L 364.969946 142.503945 
L 365.094577 142.170175 
L 365.12561 142.213242 
L 365.219709 142.59008 
L 365.281775 142.482412 
L 365.375373 142.439345 
L 365.563071 141.405732 
L 365.594104 141.427266 
L 365.687703 141.394966 
L 366.062598 139.144706 
L 366.343394 137.594287 
L 366.374927 137.712722 
L 366.40596 137.572754 
L 366.562124 135.742399 
L 367.249348 123.758957 
L 367.623743 111.721681 
L 368.185836 81.973029 
L 368.373533 71.0878 
L 368.87306 49.457311 
L 368.998192 46.970182 
L 369.029224 47.185518 
L 369.373087 57.564707 
L 369.435152 59.405829 
L 369.966212 93.999538 
L 370.310074 108.071738 
L 370.622404 116.69594 
L 370.9037 122.60691 
L 371.278095 125.944616 
L 371.403227 126.181486 
L 371.43476 126.159952 
L 371.528358 125.783114 
L 371.590924 125.901549 
L 371.747089 125.223241 
L 372.121984 120.636587 
L 372.278149 118.192524 
L 372.527912 111.570946 
L 372.746643 102.925211 
L 372.965373 92.707523 
L 373.496433 64.552357 
L 373.558999 58.512185 
L 373.621565 60.37484 
L 373.746697 57.833877 
L 373.777729 58.081513 
L 374.027493 60.450208 
L 374.059026 60.547109 
L 374.246223 67.308656 
L 374.715217 81.639259 
L 375.183711 88.626908 
L 375.215244 88.573074 
L 375.246277 88.691509 
L 375.433975 92.589088 
L 375.496541 92.061515 
L 375.527574 91.867713 
L 375.558606 92.126116 
L 376.308897 110.537334 
L 376.621226 119.463006 
L 376.746358 122.63921 
L 377.152787 131.403381 
L 378.215407 145.034142 
L 378.715434 147.70323 
L 378.840565 148.037001 
L 379.215461 149.228885 
L 379.246994 149.241805 
L 379.621889 150.819141 
L 379.653422 150.737313 
L 379.747021 150.499367 
L 379.778554 150.583348 
L 380.028317 151.251966 
L 380.591411 152.514911 
L 380.622443 152.408319 
L 380.716042 152.20375 
L 380.747575 152.21667 
L 380.841174 152.4923 
L 380.90374 152.349102 
L 380.935273 152.301728 
L 380.966306 152.337258 
L 381.122471 152.842221 
L 381.185036 152.785157 
L 381.247602 152.831454 
L 381.560432 153.227672 
L 381.591465 153.160918 
L 381.654031 153.261049 
L 381.74813 153.468849 
L 381.779163 153.393481 
L 381.841729 153.206139 
L 381.904295 153.294426 
L 382.123025 153.609894 
L 382.217124 153.361181 
L 382.248157 153.405324 
L 382.592019 154.063176 
L 382.717151 153.718638 
L 382.779717 153.803696 
L 382.998448 154.368953 
L 383.280245 154.167613 
L 383.373843 154.289278 
L 383.405377 154.269898 
L 383.467943 154.260208 
L 383.498975 154.340959 
L 383.686673 154.599362 
L 383.780272 154.530454 
L 384.218233 154.630586 
L 384.311832 154.462624 
L 384.343365 154.483081 
L 384.468497 154.532608 
L 384.624662 154.582135 
L 384.843893 154.912676 
L 384.937491 155.232449 
L 385.000057 155.204456 
L 385.031591 155.232449 
L 385.062623 155.195842 
L 385.250321 154.701646 
L 385.312887 154.837308 
L 385.375453 154.913752 
L 385.531618 155.345501 
L 385.563151 155.299204 
L 385.719316 154.924519 
L 385.750849 154.943899 
L 386.063678 155.235679 
L 386.18881 155.039724 
L 386.376508 154.983736 
L 386.532673 155.060181 
L 386.688837 155.376724 
L 386.720371 155.340117 
L 386.813969 155.173232 
L 386.845502 155.191536 
L 386.970634 155.257213 
L 387.189365 155.192612 
L 387.502195 155.542425 
L 387.564761 155.470396 
L 387.596294 155.533704 
L 387.689892 155.497313 
L 387.752458 155.488699 
L 387.783992 155.561375 
L 388.002722 155.607026 
L 388.127854 155.462859 
L 388.284519 155.335811 
L 388.534783 155.581724 
L 388.565816 155.545763 
L 388.722481 155.519169 
L 388.878645 155.708126 
L 388.910179 155.663552 
L 389.035311 155.456399 
L 389.066343 155.484392 
L 389.254041 155.75367 
L 389.285574 155.637927 
L 389.379173 155.430558 
L 389.441739 155.448862 
L 389.692003 155.728476 
L 389.786102 155.567727 
L 389.817135 155.63965 
L 389.848668 155.7555 
L 389.911234 155.693484 
L 390.067899 155.640403 
L 390.224063 155.792107 
L 390.255597 155.694668 
L 390.318163 155.542318 
L 390.349195 155.596475 
L 390.568426 156.08098 
L 390.693558 156.149996 
L 390.724591 156.124478 
L 390.881256 155.882225 
L 390.912289 155.750009 
L 391.006388 155.812241 
L 391.13152 155.607887 
L 391.163053 155.670766 
L 391.256652 155.918402 
L 391.288185 155.90096 
L 391.413317 155.839912 
L 391.726147 156.14472 
L 391.882311 155.858969 
L 391.913844 155.920448 
L 392.07051 155.95587 
L 392.28924 156.000014 
L 392.476938 156.325494 
L 392.633603 155.782094 
L 392.696169 155.922924 
L 393.22823 155.976866 
L 393.353362 156.235161 
L 393.415928 156.192847 
L 393.822857 156.004859 
L 393.853889 156.056863 
L 393.885422 156.013688 
L 393.979522 155.865645 
L 394.010554 155.909573 
L 394.135686 156.313866 
L 394.198252 156.18671 
L 394.449016 156.006797 
L 394.605181 155.946395 
L 394.667747 156.033499 
L 394.730313 156.154195 
L 394.792879 156.120172 
L 395.01211 156.120818 
L 395.231341 155.974497 
L 395.262374 155.983326 
L 395.356473 156.241513 
L 395.419039 156.216211 
L 395.450572 156.267246 
L 395.513138 156.207921 
L 395.700836 156.080011 
L 395.794935 156.15764 
L 395.888534 156.268646 
L 395.920067 156.209213 
L 395.982633 155.968252 
L 396.045199 156.072475 
L 396.232897 156.158932 
L 396.452128 156.329693 
L 396.953156 156.186926 
L 397.078288 156.153118 
L 397.172387 156.196185 
L 397.234953 156.298362 
L 397.265986 156.239037 
L 397.51675 156.111558 
L 397.767014 156.316881 
L 398.173942 155.746348 
L 398.236508 155.843896 
L 398.393174 156.191448 
L 398.424707 156.174436 
L 398.487273 156.157532 
L 398.487273 156.157532 
" clip-path="url(#p928e7abf8b)" style="fill: none; stroke: #1f77b4; stroke-width: 1.5; stroke-linecap: square"/>
   </g>
   <g id="line2d_15">
    <path d="M 73.832727 156.688281 
L 79.138319 156.814657 
L 94.104093 156.893174 
L 163.377106 156.922307 
L 255.824544 156.812454 
L 257.075862 156.825663 
L 259.328236 156.876141 
L 266.886202 156.892464 
L 278.348283 156.772102 
L 279.449444 156.556886 
L 280.550604 156.267337 
L 281.351449 156.53803 
L 282.152293 156.653331 
L 290.060628 156.840211 
L 297.668647 156.701685 
L 299.270335 156.486862 
L 300.021126 156.18944 
L 300.521654 155.769843 
L 301.022181 155.026293 
L 301.572761 154.224547 
L 301.823025 154.208419 
L 302.073289 154.460856 
L 302.924186 155.516612 
L 303.424713 155.680168 
L 304.075399 155.915209 
L 305.17656 156.441132 
L 306.227668 156.606161 
L 308.480042 156.685082 
L 313.084895 156.604999 
L 315.737691 156.374674 
L 316.98901 156.064658 
L 317.739801 155.665474 
L 318.290382 155.114802 
L 318.740856 154.314161 
L 319.141278 153.098102 
L 319.591753 150.881729 
L 320.142333 148.176235 
L 320.342544 147.978162 
L 320.492703 148.214424 
L 320.793019 149.377929 
L 321.293547 151.269556 
L 321.643916 151.830761 
L 322.194496 152.547235 
L 322.895235 154.250668 
L 323.395763 155.095965 
L 323.946343 155.596814 
L 324.647081 155.916335 
L 325.698189 156.123417 
L 327.299877 156.191659 
L 329.35204 156.061547 
L 330.953729 155.754265 
L 332.004836 155.337842 
L 332.755628 154.803794 
L 333.306208 154.156179 
L 333.806736 153.20498 
L 334.25721 151.792885 
L 334.657632 149.712473 
L 335.058054 146.253842 
L 335.508529 140.119559 
L 336.009057 133.800797 
L 336.209268 133.234849 
L 336.309373 133.489702 
L 336.509584 134.848425 
L 337.210323 140.195356 
L 337.760903 142.858835 
L 339.16238 152.101797 
L 339.662908 153.304272 
L 340.213488 154.03191 
L 340.814121 154.46162 
L 341.564913 154.719801 
L 342.415809 154.776395 
L 343.366812 154.61547 
L 344.217709 154.256419 
L 344.9685 153.695338 
L 345.569133 152.976963 
L 346.119713 151.958522 
L 346.620241 150.512408 
L 347.070716 148.455478 
L 347.471138 145.549466 
L 347.87156 140.821791 
L 348.271982 132.990815 
L 348.872615 115.146809 
L 349.222984 107.94734 
L 349.373142 107.138511 
L 349.423195 107.177652 
L 349.573353 108.054921 
L 350.173986 114.921194 
L 350.574408 120.487636 
L 351.225094 134.612701 
L 351.725622 142.518965 
L 352.176097 146.466757 
L 352.626571 148.710604 
L 353.127099 150.115204 
L 353.577574 150.802423 
L 354.028048 151.137022 
L 354.478523 151.224611 
L 354.928998 151.090298 
L 355.379473 150.7163 
L 355.829948 150.062123 
L 356.330475 148.899261 
L 356.78095 147.273046 
L 357.231425 144.760528 
L 357.631847 141.27971 
L 358.032269 135.752951 
L 358.432691 126.63668 
L 358.833113 111.791224 
L 359.734062 74.085092 
L 359.934274 72.30403 
L 359.984326 72.303893 
L 360.084432 72.749496 
L 360.284643 75.153562 
L 360.584959 82.318651 
L 360.985381 98.452825 
L 361.636067 124.379319 
L 362.086542 134.138318 
L 362.537017 139.418108 
L 362.987492 142.197601 
L 363.387914 143.374118 
L 363.68823 143.661891 
L 363.888441 143.601335 
L 364.138705 143.243945 
L 364.439021 142.376774 
L 364.789391 140.675404 
L 365.189813 137.522673 
L 365.590235 132.280653 
L 365.990657 123.422549 
L 366.391079 108.524058 
L 366.891606 79.701031 
L 367.442187 50.792286 
L 367.642398 47.068031 
L 367.692451 46.970182 
L 367.792556 47.799661 
L 367.992767 53.334555 
L 368.343136 72.498632 
L 369.043875 111.384603 
L 369.444297 122.698965 
L 369.844719 128.294986 
L 370.145035 129.878093 
L 370.295194 129.953144 
L 370.445352 129.555824 
L 370.645563 128.246166 
L 370.94588 124.337318 
L 371.296249 115.975769 
L 371.696671 100.381676 
L 372.397409 71.606812 
L 372.547568 70.018989 
L 372.59762 70.088023 
L 372.697726 71.128983 
L 372.897937 76.412021 
L 373.648728 100.857109 
L 373.898992 102.817276 
L 374.299414 103.978428 
L 374.499625 106.112527 
L 374.799942 112.61517 
L 375.800997 138.104526 
L 376.251472 143.542773 
L 376.751999 147.118597 
L 377.302579 149.503613 
L 377.903212 151.127996 
L 378.503846 152.158603 
L 379.154531 152.853263 
L 381.056536 154.374255 
L 382.107644 154.933513 
L 382.558119 155.102571 
L 382.558119 155.102571 
" clip-path="url(#p928e7abf8b)" style="fill: none; stroke: #ff7f0e; stroke-width: 1.5; stroke-linecap: square"/>
   </g>
   <g id="patch_3">
    <path d="M 57.6 162.432 
L 57.6 41.472 
" style="fill: none; stroke: #000000; stroke-width: 0.8; stroke-linejoin: miter; stroke-linecap: square"/>
   </g>
   <g id="patch_4">
    <path d="M 414.72 162.432 
L 414.72 41.472 
" style="fill: none; stroke: #000000; stroke-width: 0.8; stroke-linejoin: miter; stroke-linecap: square"/>
   </g>
   <g id="patch_5">
    <path d="M 57.6 162.432 
L 414.72 162.432 
" style="fill: none; stroke: #000000; stroke-width: 0.8; stroke-linejoin: miter; stroke-linecap: square"/>
   </g>
   <g id="patch_6">
    <path d="M 57.6 41.472 
L 414.72 41.472 
" style="fill: none; stroke: #000000; stroke-width: 0.8; stroke-linejoin: miter; stroke-linecap: square"/>
   </g>
   <g id="text_9">
    <!-- v'=4 79K -->
    <g transform="translate(208.637812 35.472) scale(0.12 -0.12)">
     <defs>
      <path id="DejaVuSans-76" d="M 191 3500 
L 800 3500 
L 1894 563 
L 2988 3500 
L 3597 3500 
L 2284 0 
L 1503 0 
L 191 3500 
z
" transform="scale(0.015625)"/>
      <path id="DejaVuSans-27" d="M 1147 4666 
L 1147 2931 
L 616 2931 
L 616 4666 
L 1147 4666 
z
" transform="scale(0.015625)"/>
      <path id="DejaVuSans-3d" d="M 678 2906 
L 4684 2906 
L 4684 2381 
L 678 2381 
L 678 2906 
z
M 678 1631 
L 4684 1631 
L 4684 1100 
L 678 1100 
L 678 1631 
z
" transform="scale(0.015625)"/>
      <path id="DejaVuSans-37" d="M 525 4666 
L 3525 4666 
L 3525 4397 
L 1831 0 
L 1172 0 
L 2766 4134 
L 525 4134 
L 525 4666 
z
" transform="scale(0.015625)"/>
      <path id="DejaVuSans-39" d="M 703 97 
L 703 672 
Q 941 559 1184 500 
Q 1428 441 1663 441 
Q 2288 441 2617 861 
Q 2947 1281 2994 2138 
Q 2813 1869 2534 1725 
Q 2256 1581 1919 1581 
Q 1219 1581 811 2004 
Q 403 2428 403 3163 
Q 403 3881 828 4315 
Q 1253 4750 1959 4750 
Q 2769 4750 3195 4129 
Q 3622 3509 3622 2328 
Q 3622 1225 3098 567 
Q 2575 -91 1691 -91 
Q 1453 -91 1209 -44 
Q 966 3 703 97 
z
M 1959 2075 
Q 2384 2075 2632 2365 
Q 2881 2656 2881 3163 
Q 2881 3666 2632 3958 
Q 2384 4250 1959 4250 
Q 1534 4250 1286 3958 
Q 1038 3666 1038 3163 
Q 1038 2656 1286 2365 
Q 1534 2075 1959 2075 
z
" transform="scale(0.015625)"/>
      <path id="DejaVuSans-4b" d="M 628 4666 
L 1259 4666 
L 1259 2694 
L 3353 4666 
L 4166 4666 
L 1850 2491 
L 4331 0 
L 3500 0 
L 1259 2247 
L 1259 0 
L 628 0 
L 628 4666 
z
" transform="scale(0.015625)"/>
     </defs>
     <use xlink:href="#DejaVuSans-76"/>
     <use xlink:href="#DejaVuSans-27" x="59.179688"/>
     <use xlink:href="#DejaVuSans-3d" x="86.669922"/>
     <use xlink:href="#DejaVuSans-34" x="170.458984"/>
     <use xlink:href="#DejaVuSans-20" x="234.082031"/>
     <use xlink:href="#DejaVuSans-37" x="265.869141"/>
     <use xlink:href="#DejaVuSans-39" x="329.492188"/>
     <use xlink:href="#DejaVuSans-4b" x="393.115234"/>
    </g>
   </g>
   <g id="legend_1">
    <g id="patch_7">
     <path d="M 63.431 69.257756 
L 193.304811 69.257756 
Q 194.970811 69.257756 194.970811 67.591756 
L 194.970811 47.303 
Q 194.970811 45.637 193.304811 45.637 
L 63.431 45.637 
Q 61.765 45.637 61.765 47.303 
L 61.765 67.591756 
Q 61.765 69.257756 63.431 69.257756 
z
" style="fill: #ffffff; opacity: 0.8; stroke: #cccccc; stroke-linejoin: miter"/>
    </g>
    <g id="line2d_16">
     <path d="M 65.097 52.382998 
L 73.427 52.382998 
L 81.757 52.382998 
" style="fill: none; stroke: #1f77b4; stroke-width: 1.5; stroke-linecap: square"/>
    </g>
    <g id="text_10">
     <!-- data/Harvard/o6lb4 v'=4 -->
     <g transform="translate(88.421 55.298498) scale(0.0833 -0.0833)">
      <defs>
       <path id="DejaVuSans-64" d="M 2906 2969 
L 2906 4863 
L 3481 4863 
L 3481 0 
L 2906 0 
L 2906 525 
Q 2725 213 2448 61 
Q 2172 -91 1784 -91 
Q 1150 -91 751 415 
Q 353 922 353 1747 
Q 353 2572 751 3078 
Q 1150 3584 1784 3584 
Q 2172 3584 2448 3432 
Q 2725 3281 2906 2969 
z
M 947 1747 
Q 947 1113 1208 752 
Q 1469 391 1925 391 
Q 2381 391 2643 752 
Q 2906 1113 2906 1747 
Q 2906 2381 2643 2742 
Q 2381 3103 1925 3103 
Q 1469 3103 1208 2742 
Q 947 2381 947 1747 
z
" transform="scale(0.015625)"/>
       <path id="DejaVuSans-61" d="M 2194 1759 
Q 1497 1759 1228 1600 
Q 959 1441 959 1056 
Q 959 750 1161 570 
Q 1363 391 1709 391 
Q 2188 391 2477 730 
Q 2766 1069 2766 1631 
L 2766 1759 
L 2194 1759 
z
M 3341 1997 
L 3341 0 
L 2766 0 
L 2766 531 
Q 2569 213 2275 61 
Q 1981 -91 1556 -91 
Q 1019 -91 701 211 
Q 384 513 384 1019 
Q 384 1609 779 1909 
Q 1175 2209 1959 2209 
L 2766 2209 
L 2766 2266 
Q 2766 2663 2505 2880 
Q 2244 3097 1772 3097 
Q 1472 3097 1187 3025 
Q 903 2953 641 2809 
L 641 3341 
Q 956 3463 1253 3523 
Q 1550 3584 1831 3584 
Q 2591 3584 2966 3190 
Q 3341 2797 3341 1997 
z
" transform="scale(0.015625)"/>
       <path id="DejaVuSans-2f" d="M 1625 4666 
L 2156 4666 
L 531 -594 
L 0 -594 
L 1625 4666 
z
" transform="scale(0.015625)"/>
       <path id="DejaVuSans-48" d="M 628 4666 
L 1259 4666 
L 1259 2753 
L 3553 2753 
L 3553 4666 
L 4184 4666 
L 4184 0 
L 3553 0 
L 3553 2222 
L 1259 2222 
L 1259 0 
L 628 0 
L 628 4666 
z
" transform="scale(0.015625)"/>
       <path id="DejaVuSans-6c" d="M 603 4863 
L 1178 4863 
L 1178 0 
L 603 0 
L 603 4863 
z
" transform="scale(0.015625)"/>
       <path id="DejaVuSans-62" d="M 3116 1747 
Q 3116 2381 2855 2742 
Q 2594 3103 2138 3103 
Q 1681 3103 1420 2742 
Q 1159 2381 1159 1747 
Q 1159 1113 1420 752 
Q 1681 391 2138 391 
Q 2594 391 2855 752 
Q 3116 1113 3116 1747 
z
M 1159 2969 
Q 1341 3281 1617 3432 
Q 1894 3584 2278 3584 
Q 2916 3584 3314 3078 
Q 3713 2572 3713 1747 
Q 3713 922 3314 415 
Q 2916 -91 2278 -91 
Q 1894 -91 1617 61 
Q 1341 213 1159 525 
L 1159 0 
L 581 0 
L 581 4863 
L 1159 4863 
L 1159 2969 
z
" transform="scale(0.015625)"/>
      </defs>
      <use xlink:href="#DejaVuSans-64"/>
      <use xlink:href="#DejaVuSans-61" x="63.476562"/>
      <use xlink:href="#DejaVuSans-74" x="124.755859"/>
      <use xlink:href="#DejaVuSans-61" x="163.964844"/>
      <use xlink:href="#DejaVuSans-2f" x="225.244141"/>
      <use xlink:href="#DejaVuSans-48" x="258.935547"/>
      <use xlink:href="#DejaVuSans-61" x="334.130859"/>
      <use xlink:href="#DejaVuSans-72" x="395.410156"/>
      <use xlink:href="#DejaVuSans-76" x="436.523438"/>
      <use xlink:href="#DejaVuSans-61" x="495.703125"/>
      <use xlink:href="#DejaVuSans-72" x="556.982422"/>
      <use xlink:href="#DejaVuSans-64" x="596.345703"/>
      <use xlink:href="#DejaVuSans-2f" x="659.822266"/>
      <use xlink:href="#DejaVuSans-6f" x="693.513672"/>
      <use xlink:href="#DejaVuSans-36" x="754.695312"/>
      <use xlink:href="#DejaVuSans-6c" x="818.318359"/>
      <use xlink:href="#DejaVuSans-62" x="846.101562"/>
      <use xlink:href="#DejaVuSans-34" x="909.578125"/>
      <use xlink:href="#DejaVuSans-20" x="973.201172"/>
      <use xlink:href="#DejaVuSans-76" x="1004.988281"/>
      <use xlink:href="#DejaVuSans-27" x="1064.167969"/>
      <use xlink:href="#DejaVuSans-3d" x="1091.658203"/>
      <use xlink:href="#DejaVuSans-34" x="1175.447266"/>
     </g>
    </g>
    <g id="line2d_17">
     <path d="M 65.097 61.277877 
L 73.427 61.277877 
L 81.757 61.277877 
" style="fill: none; stroke: #ff7f0e; stroke-width: 1.5; stroke-linecap: square"/>
    </g>
    <g id="text_11">
     <!-- PyDiatomic -->
     <g transform="translate(88.421 64.193377) scale(0.0833 -0.0833)">
      <defs>
       <path id="DejaVuSans-50" d="M 1259 4147 
L 1259 2394 
L 2053 2394 
Q 2494 2394 2734 2622 
Q 2975 2850 2975 3272 
Q 2975 3691 2734 3919 
Q 2494 4147 2053 4147 
L 1259 4147 
z
M 628 4666 
L 2053 4666 
Q 2838 4666 3239 4311 
Q 3641 3956 3641 3272 
Q 3641 2581 3239 2228 
Q 2838 1875 2053 1875 
L 1259 1875 
L 1259 0 
L 628 0 
L 628 4666 
z
" transform="scale(0.015625)"/>
       <path id="DejaVuSans-79" d="M 2059 -325 
Q 1816 -950 1584 -1140 
Q 1353 -1331 966 -1331 
L 506 -1331 
L 506 -850 
L 844 -850 
Q 1081 -850 1212 -737 
Q 1344 -625 1503 -206 
L 1606 56 
L 191 3500 
L 800 3500 
L 1894 763 
L 2988 3500 
L 3597 3500 
L 2059 -325 
z
" transform="scale(0.015625)"/>
       <path id="DejaVuSans-44" d="M 1259 4147 
L 1259 519 
L 2022 519 
Q 2988 519 3436 956 
Q 3884 1394 3884 2338 
Q 3884 3275 3436 3711 
Q 2988 4147 2022 4147 
L 1259 4147 
z
M 628 4666 
L 1925 4666 
Q 3281 4666 3915 4102 
Q 4550 3538 4550 2338 
Q 4550 1131 3912 565 
Q 3275 0 1925 0 
L 628 0 
L 628 4666 
z
" transform="scale(0.015625)"/>
      </defs>
      <use xlink:href="#DejaVuSans-50"/>
      <use xlink:href="#DejaVuSans-79" x="60.302734"/>
      <use xlink:href="#DejaVuSans-44" x="119.482422"/>
      <use xlink:href="#DejaVuSans-69" x="196.484375"/>
      <use xlink:href="#DejaVuSans-61" x="224.267578"/>
      <use xlink:href="#DejaVuSans-74" x="285.546875"/>
      <use xlink:href="#DejaVuSans-6f" x="324.755859"/>
      <use xlink:href="#DejaVuSans-6d" x="385.9375"/>
      <use xlink:href="#DejaVuSans-69" x="483.349609"/>
      <use xlink:href="#DejaVuSans-63" x="511.132812"/>
     </g>
    </g>
   </g>
  </g>
  <g id="axes_2">
   <g id="patch_8">
    <path d="M 57.6 307.584 
L 414.72 307.584 
L 414.72 186.624 
L 57.6 186.624 
z
" style="fill: #ffffff"/>
   </g>
   <g id="matplotlib.axis_3">
    <g id="xtick_8">
     <g id="line2d_18">
      <g>
       <use xlink:href="#m6250bc5881" x="89.896523" y="307.584" style="stroke: #000000; stroke-width: 0.8"/>
      </g>
     </g>
     <g id="text_12">
      <!-- 51400 -->
      <g transform="translate(73.990273 322.182437) scale(0.1 -0.1)">
       <defs>
        <path id="DejaVuSans-35" d="M 691 4666 
L 3169 4666 
L 3169 4134 
L 1269 4134 
L 1269 2991 
Q 1406 3038 1543 3061 
Q 1681 3084 1819 3084 
Q 2600 3084 3056 2656 
Q 3513 2228 3513 1497 
Q 3513 744 3044 326 
Q 2575 -91 1722 -91 
Q 1428 -91 1123 -41 
Q 819 9 494 109 
L 494 744 
Q 775 591 1075 516 
Q 1375 441 1709 441 
Q 2250 441 2565 725 
Q 2881 1009 2881 1497 
Q 2881 1984 2565 2268 
Q 2250 2553 1709 2553 
Q 1456 2553 1204 2497 
Q 953 2441 691 2322 
L 691 4666 
z
" transform="scale(0.015625)"/>
       </defs>
       <use xlink:href="#DejaVuSans-35"/>
       <use xlink:href="#DejaVuSans-31" x="63.623047"/>
       <use xlink:href="#DejaVuSans-34" x="127.246094"/>
       <use xlink:href="#DejaVuSans-30" x="190.869141"/>
       <use xlink:href="#DejaVuSans-30" x="254.492188"/>
      </g>
     </g>
    </g>
    <g id="xtick_9">
     <g id="line2d_19">
      <g>
       <use xlink:href="#m6250bc5881" x="139.949278" y="307.584" style="stroke: #000000; stroke-width: 0.8"/>
      </g>
     </g>
     <g id="text_13">
      <!-- 51500 -->
      <g transform="translate(124.043028 322.182437) scale(0.1 -0.1)">
       <use xlink:href="#DejaVuSans-35"/>
       <use xlink:href="#DejaVuSans-31" x="63.623047"/>
       <use xlink:href="#DejaVuSans-35" x="127.246094"/>
       <use xlink:href="#DejaVuSans-30" x="190.869141"/>
       <use xlink:href="#DejaVuSans-30" x="254.492188"/>
      </g>
     </g>
    </g>
    <g id="xtick_10">
     <g id="line2d_20">
      <g>
       <use xlink:href="#m6250bc5881" x="190.002033" y="307.584" style="stroke: #000000; stroke-width: 0.8"/>
      </g>
     </g>
     <g id="text_14">
      <!-- 51600 -->
      <g transform="translate(174.095783 322.182437) scale(0.1 -0.1)">
       <use xlink:href="#DejaVuSans-35"/>
       <use xlink:href="#DejaVuSans-31" x="63.623047"/>
       <use xlink:href="#DejaVuSans-36" x="127.246094"/>
       <use xlink:href="#DejaVuSans-30" x="190.869141"/>
       <use xlink:href="#DejaVuSans-30" x="254.492188"/>
      </g>
     </g>
    </g>
    <g id="xtick_11">
     <g id="line2d_21">
      <g>
       <use xlink:href="#m6250bc5881" x="240.054788" y="307.584" style="stroke: #000000; stroke-width: 0.8"/>
      </g>
     </g>
     <g id="text_15">
      <!-- 51700 -->
      <g transform="translate(224.148538 322.182437) scale(0.1 -0.1)">
       <use xlink:href="#DejaVuSans-35"/>
       <use xlink:href="#DejaVuSans-31" x="63.623047"/>
       <use xlink:href="#DejaVuSans-37" x="127.246094"/>
       <use xlink:href="#DejaVuSans-30" x="190.869141"/>
       <use xlink:href="#DejaVuSans-30" x="254.492188"/>
      </g>
     </g>
    </g>
    <g id="xtick_12">
     <g id="line2d_22">
      <g>
       <use xlink:href="#m6250bc5881" x="290.107542" y="307.584" style="stroke: #000000; stroke-width: 0.8"/>
      </g>
     </g>
     <g id="text_16">
      <!-- 51800 -->
      <g transform="translate(274.201292 322.182437) scale(0.1 -0.1)">
       <use xlink:href="#DejaVuSans-35"/>
       <use xlink:href="#DejaVuSans-31" x="63.623047"/>
       <use xlink:href="#DejaVuSans-38" x="127.246094"/>
       <use xlink:href="#DejaVuSans-30" x="190.869141"/>
       <use xlink:href="#DejaVuSans-30" x="254.492188"/>
      </g>
     </g>
    </g>
    <g id="xtick_13">
     <g id="line2d_23">
      <g>
       <use xlink:href="#m6250bc5881" x="340.160297" y="307.584" style="stroke: #000000; stroke-width: 0.8"/>
      </g>
     </g>
     <g id="text_17">
      <!-- 51900 -->
      <g transform="translate(324.254047 322.182437) scale(0.1 -0.1)">
       <use xlink:href="#DejaVuSans-35"/>
       <use xlink:href="#DejaVuSans-31" x="63.623047"/>
       <use xlink:href="#DejaVuSans-39" x="127.246094"/>
       <use xlink:href="#DejaVuSans-30" x="190.869141"/>
       <use xlink:href="#DejaVuSans-30" x="254.492188"/>
      </g>
     </g>
    </g>
    <g id="xtick_14">
     <g id="line2d_24">
      <g>
       <use xlink:href="#m6250bc5881" x="390.213052" y="307.584" style="stroke: #000000; stroke-width: 0.8"/>
      </g>
     </g>
     <g id="text_18">
      <!-- 52000 -->
      <g transform="translate(374.306802 322.182437) scale(0.1 -0.1)">
       <use xlink:href="#DejaVuSans-35"/>
       <use xlink:href="#DejaVuSans-32" x="63.623047"/>
       <use xlink:href="#DejaVuSans-30" x="127.246094"/>
       <use xlink:href="#DejaVuSans-30" x="190.869141"/>
       <use xlink:href="#DejaVuSans-30" x="254.492188"/>
      </g>
     </g>
    </g>
    <g id="text_19">
     <!-- transition energy (wavenumber cm$^{-1}$) -->
     <g transform="translate(140.46 337.262125) scale(0.1 -0.1)">
      <defs>
       <path id="DejaVuSans-67" d="M 2906 1791 
Q 2906 2416 2648 2759 
Q 2391 3103 1925 3103 
Q 1463 3103 1205 2759 
Q 947 2416 947 1791 
Q 947 1169 1205 825 
Q 1463 481 1925 481 
Q 2391 481 2648 825 
Q 2906 1169 2906 1791 
z
M 3481 434 
Q 3481 -459 3084 -895 
Q 2688 -1331 1869 -1331 
Q 1566 -1331 1297 -1286 
Q 1028 -1241 775 -1147 
L 775 -588 
Q 1028 -725 1275 -790 
Q 1522 -856 1778 -856 
Q 2344 -856 2625 -561 
Q 2906 -266 2906 331 
L 2906 616 
Q 2728 306 2450 153 
Q 2172 0 1784 0 
Q 1141 0 747 490 
Q 353 981 353 1791 
Q 353 2603 747 3093 
Q 1141 3584 1784 3584 
Q 2172 3584 2450 3431 
Q 2728 3278 2906 2969 
L 2906 3500 
L 3481 3500 
L 3481 434 
z
" transform="scale(0.015625)"/>
       <path id="DejaVuSans-77" d="M 269 3500 
L 844 3500 
L 1563 769 
L 2278 3500 
L 2956 3500 
L 3675 769 
L 4391 3500 
L 4966 3500 
L 4050 0 
L 3372 0 
L 2619 2869 
L 1863 0 
L 1184 0 
L 269 3500 
z
" transform="scale(0.015625)"/>
       <path id="DejaVuSans-75" d="M 544 1381 
L 544 3500 
L 1119 3500 
L 1119 1403 
Q 1119 906 1312 657 
Q 1506 409 1894 409 
Q 2359 409 2629 706 
Q 2900 1003 2900 1516 
L 2900 3500 
L 3475 3500 
L 3475 0 
L 2900 0 
L 2900 538 
Q 2691 219 2414 64 
Q 2138 -91 1772 -91 
Q 1169 -91 856 284 
Q 544 659 544 1381 
z
M 1991 3584 
L 1991 3584 
z
" transform="scale(0.015625)"/>
      </defs>
      <use xlink:href="#DejaVuSans-74" transform="translate(0 0.684375)"/>
      <use xlink:href="#DejaVuSans-72" transform="translate(39.208984 0.684375)"/>
      <use xlink:href="#DejaVuSans-61" transform="translate(80.322266 0.684375)"/>
      <use xlink:href="#DejaVuSans-6e" transform="translate(141.601562 0.684375)"/>
      <use xlink:href="#DejaVuSans-73" transform="translate(204.980469 0.684375)"/>
      <use xlink:href="#DejaVuSans-69" transform="translate(257.080078 0.684375)"/>
      <use xlink:href="#DejaVuSans-74" transform="translate(284.863281 0.684375)"/>
      <use xlink:href="#DejaVuSans-69" transform="translate(324.072266 0.684375)"/>
      <use xlink:href="#DejaVuSans-6f" transform="translate(351.855469 0.684375)"/>
      <use xlink:href="#DejaVuSans-6e" transform="translate(413.037109 0.684375)"/>
      <use xlink:href="#DejaVuSans-20" transform="translate(476.416016 0.684375)"/>
      <use xlink:href="#DejaVuSans-65" transform="translate(508.203125 0.684375)"/>
      <use xlink:href="#DejaVuSans-6e" transform="translate(569.726562 0.684375)"/>
      <use xlink:href="#DejaVuSans-65" transform="translate(633.105469 0.684375)"/>
      <use xlink:href="#DejaVuSans-72" transform="translate(694.628906 0.684375)"/>
      <use xlink:href="#DejaVuSans-67" transform="translate(735.742188 0.684375)"/>
      <use xlink:href="#DejaVuSans-79" transform="translate(799.21875 0.684375)"/>
      <use xlink:href="#DejaVuSans-20" transform="translate(858.398438 0.684375)"/>
      <use xlink:href="#DejaVuSans-28" transform="translate(890.185547 0.684375)"/>
      <use xlink:href="#DejaVuSans-77" transform="translate(929.199219 0.684375)"/>
      <use xlink:href="#DejaVuSans-61" transform="translate(1010.986328 0.684375)"/>
      <use xlink:href="#DejaVuSans-76" transform="translate(1072.265625 0.684375)"/>
      <use xlink:href="#DejaVuSans-65" transform="translate(1131.445312 0.684375)"/>
      <use xlink:href="#DejaVuSans-6e" transform="translate(1192.96875 0.684375)"/>
      <use xlink:href="#DejaVuSans-75" transform="translate(1256.347656 0.684375)"/>
      <use xlink:href="#DejaVuSans-6d" transform="translate(1319.726562 0.684375)"/>
      <use xlink:href="#DejaVuSans-62" transform="translate(1417.138672 0.684375)"/>
      <use xlink:href="#DejaVuSans-65" transform="translate(1480.615234 0.684375)"/>
      <use xlink:href="#DejaVuSans-72" transform="translate(1542.138672 0.684375)"/>
      <use xlink:href="#DejaVuSans-20" transform="translate(1583.251953 0.684375)"/>
      <use xlink:href="#DejaVuSans-63" transform="translate(1615.039062 0.684375)"/>
      <use xlink:href="#DejaVuSans-6d" transform="translate(1670.019531 0.684375)"/>
      <use xlink:href="#DejaVuSans-2212" transform="translate(1768.388672 38.965625) scale(0.7)"/>
      <use xlink:href="#DejaVuSans-31" transform="translate(1827.041016 38.965625) scale(0.7)"/>
      <use xlink:href="#DejaVuSans-29" transform="translate(1874.311523 0.684375)"/>
     </g>
    </g>
   </g>
   <g id="matplotlib.axis_4">
    <g id="ytick_7">
     <g id="line2d_25">
      <g>
       <use xlink:href="#mf0b5e6d479" x="57.6" y="302.085818" style="stroke: #000000; stroke-width: 0.8"/>
      </g>
     </g>
     <g id="text_20">
      <!-- 0.0 -->
      <g transform="translate(34.696875 305.885037) scale(0.1 -0.1)">
       <use xlink:href="#DejaVuSans-30"/>
       <use xlink:href="#DejaVuSans-2e" x="63.623047"/>
       <use xlink:href="#DejaVuSans-30" x="95.410156"/>
      </g>
     </g>
    </g>
    <g id="ytick_8">
     <g id="line2d_26">
      <g>
       <use xlink:href="#mf0b5e6d479" x="57.6" y="280.55223" style="stroke: #000000; stroke-width: 0.8"/>
      </g>
     </g>
     <g id="text_21">
      <!-- 0.2 -->
      <g transform="translate(34.696875 284.351449) scale(0.1 -0.1)">
       <use xlink:href="#DejaVuSans-30"/>
       <use xlink:href="#DejaVuSans-2e" x="63.623047"/>
       <use xlink:href="#DejaVuSans-32" x="95.410156"/>
      </g>
     </g>
    </g>
    <g id="ytick_9">
     <g id="line2d_27">
      <g>
       <use xlink:href="#mf0b5e6d479" x="57.6" y="259.018642" style="stroke: #000000; stroke-width: 0.8"/>
      </g>
     </g>
     <g id="text_22">
      <!-- 0.4 -->
      <g transform="translate(34.696875 262.817861) scale(0.1 -0.1)">
       <use xlink:href="#DejaVuSans-30"/>
       <use xlink:href="#DejaVuSans-2e" x="63.623047"/>
       <use xlink:href="#DejaVuSans-34" x="95.410156"/>
      </g>
     </g>
    </g>
    <g id="ytick_10">
     <g id="line2d_28">
      <g>
       <use xlink:href="#mf0b5e6d479" x="57.6" y="237.485054" style="stroke: #000000; stroke-width: 0.8"/>
      </g>
     </g>
     <g id="text_23">
      <!-- 0.6 -->
      <g transform="translate(34.696875 241.284273) scale(0.1 -0.1)">
       <use xlink:href="#DejaVuSans-30"/>
       <use xlink:href="#DejaVuSans-2e" x="63.623047"/>
       <use xlink:href="#DejaVuSans-36" x="95.410156"/>
      </g>
     </g>
    </g>
    <g id="ytick_11">
     <g id="line2d_29">
      <g>
       <use xlink:href="#mf0b5e6d479" x="57.6" y="215.951466" style="stroke: #000000; stroke-width: 0.8"/>
      </g>
     </g>
     <g id="text_24">
      <!-- 0.8 -->
      <g transform="translate(34.696875 219.750685) scale(0.1 -0.1)">
       <use xlink:href="#DejaVuSans-30"/>
       <use xlink:href="#DejaVuSans-2e" x="63.623047"/>
       <use xlink:href="#DejaVuSans-38" x="95.410156"/>
      </g>
     </g>
    </g>
    <g id="ytick_12">
     <g id="line2d_30">
      <g>
       <use xlink:href="#mf0b5e6d479" x="57.6" y="194.417878" style="stroke: #000000; stroke-width: 0.8"/>
      </g>
     </g>
     <g id="text_25">
      <!-- 1.0 -->
      <g transform="translate(34.696875 198.217096) scale(0.1 -0.1)">
       <use xlink:href="#DejaVuSans-31"/>
       <use xlink:href="#DejaVuSans-2e" x="63.623047"/>
       <use xlink:href="#DejaVuSans-30" x="95.410156"/>
      </g>
     </g>
    </g>
    <g id="text_26">
     <!-- cross section (cm$^{2}$) -->
     <g transform="translate(28.617187 295.304) rotate(-90) scale(0.1 -0.1)">
      <use xlink:href="#DejaVuSans-63" transform="translate(0 0.765625)"/>
      <use xlink:href="#DejaVuSans-72" transform="translate(54.980469 0.765625)"/>
      <use xlink:href="#DejaVuSans-6f" transform="translate(96.09375 0.765625)"/>
      <use xlink:href="#DejaVuSans-73" transform="translate(157.275391 0.765625)"/>
      <use xlink:href="#DejaVuSans-73" transform="translate(209.375 0.765625)"/>
      <use xlink:href="#DejaVuSans-20" transform="translate(261.474609 0.765625)"/>
      <use xlink:href="#DejaVuSans-73" transform="translate(293.261719 0.765625)"/>
      <use xlink:href="#DejaVuSans-65" transform="translate(345.361328 0.765625)"/>
      <use xlink:href="#DejaVuSans-63" transform="translate(406.884766 0.765625)"/>
      <use xlink:href="#DejaVuSans-74" transform="translate(461.865234 0.765625)"/>
      <use xlink:href="#DejaVuSans-69" transform="translate(501.074219 0.765625)"/>
      <use xlink:href="#DejaVuSans-6f" transform="translate(528.857422 0.765625)"/>
      <use xlink:href="#DejaVuSans-6e" transform="translate(590.039062 0.765625)"/>
      <use xlink:href="#DejaVuSans-20" transform="translate(653.417969 0.765625)"/>
      <use xlink:href="#DejaVuSans-28" transform="translate(685.205078 0.765625)"/>
      <use xlink:href="#DejaVuSans-63" transform="translate(724.21875 0.765625)"/>
      <use xlink:href="#DejaVuSans-6d" transform="translate(779.199219 0.765625)"/>
      <use xlink:href="#DejaVuSans-32" transform="translate(877.568359 39.046875) scale(0.7)"/>
      <use xlink:href="#DejaVuSans-29" transform="translate(924.838867 0.765625)"/>
     </g>
    </g>
    <g id="text_27">
     <!-- 1e−20 -->
     <g transform="translate(57.6 183.624) scale(0.1 -0.1)">
      <use xlink:href="#DejaVuSans-31"/>
      <use xlink:href="#DejaVuSans-65" x="63.623047"/>
      <use xlink:href="#DejaVuSans-2212" x="125.146484"/>
      <use xlink:href="#DejaVuSans-32" x="208.935547"/>
      <use xlink:href="#DejaVuSans-30" x="272.558594"/>
     </g>
    </g>
   </g>
   <g id="line2d_31">
    <path d="M 74.907725 301.940822 
L 76.593002 301.762308 
L 77.165105 301.492277 
L 77.48294 301.111779 
L 78.182177 299.786817 
L 78.245243 299.865415 
L 78.465475 300.251942 
L 78.913948 301.059452 
L 79.390951 301.553002 
L 80.027121 301.843705 
L 81.076227 301.976568 
L 83.201967 302.043968 
L 85.428814 302.060656 
L 94.686572 301.857164 
L 95.704645 301.54848 
L 96.372849 301.404635 
L 97.550591 301.611035 
L 98.155228 301.596069 
L 98.696298 301.38827 
L 99.046167 301.043302 
L 99.364502 300.386527 
L 99.977148 298.530332 
L 100.040215 298.592779 
L 100.29198 299.319538 
L 100.828545 300.893643 
L 101.210448 301.386655 
L 101.815085 301.708797 
L 103.151994 301.937592 
L 104.966407 301.972691 
L 109.869575 302.079283 
L 111.270551 302.068688 
L 114.750219 301.997455 
L 116.087628 301.951589 
L 117.584706 301.626431 
L 117.998642 301.244426 
L 118.317478 300.6094 
L 118.447616 299.981696 
L 118.920614 297.936005 
L 119.046247 297.894015 
L 119.07778 297.946772 
L 119.330046 298.956697 
L 119.782523 300.658927 
L 120.196959 301.335836 
L 120.674463 301.688556 
L 121.502836 301.91552 
L 123.096015 302.016512 
L 126.823944 302.025556 
L 130.564887 301.881389 
L 131.425294 301.812374 
L 132.062966 301.699861 
L 132.700138 301.463099 
L 133.33781 301.016385 
L 134.162679 300.096901 
L 134.541578 299.44874 
L 134.794345 298.305306 
L 135.204277 296.205781 
L 135.33091 296.501868 
L 135.614709 297.852024 
L 136.025142 300.039837 
L 136.270401 300.472662 
L 136.652804 300.92056 
L 136.97164 301.045455 
L 137.704912 301.22483 
L 139.71353 301.829062 
L 142.90189 301.98109 
L 145.847995 301.852965 
L 146.837038 301.648826 
L 147.219441 301.386224 
L 147.697945 300.748292 
L 147.92118 300.100131 
L 148.580876 296.270382 
L 148.644443 296.38451 
L 148.802109 297.118805 
L 149.356693 300.363917 
L 149.739096 301.144187 
L 150.154034 301.53276 
L 150.760173 301.763708 
L 151.876349 301.905937 
L 154.27738 301.925856 
L 157.499776 301.653887 
L 157.914213 301.406789 
L 158.32915 300.880723 
L 158.584419 300.169038 
L 158.823171 298.433431 
L 159.139504 296.527708 
L 159.202571 296.406044 
L 159.265637 296.481411 
L 159.392271 297.102655 
L 159.892798 300.302546 
L 160.243668 301.042225 
L 160.754206 301.520271 
L 161.328812 301.737652 
L 162.286321 301.84855 
L 163.809927 301.816573 
L 164.959138 301.631276 
L 165.629344 301.309349 
L 166.076315 300.815046 
L 166.299551 300.184112 
L 166.432691 299.303388 
L 166.875157 296.93254 
L 166.907191 296.940077 
L 167.033324 297.203863 
L 167.223525 298.32038 
L 167.571391 299.697453 
L 168.108958 299.966622 
L 168.393257 299.751287 
L 168.994391 299.296928 
L 169.437358 299.603781 
L 169.874819 300.234716 
L 170.481458 300.581406 
L 170.864362 300.441438 
L 171.152165 300.03553 
L 171.429958 299.19572 
L 171.872925 297.917702 
L 171.999558 298.163184 
L 172.220792 299.001918 
L 172.505592 299.637159 
L 172.727326 299.869721 
L 172.908016 300.206722 
L 173.450588 300.517882 
L 173.833992 300.486659 
L 174.121295 300.812892 
L 174.663867 301.373519 
L 175.366607 301.683711 
L 176.132915 301.859855 
L 179.48645 302.019635 
L 184.820572 302.018235 
L 186.098418 301.954926 
L 186.833193 301.931885 
L 187.759669 301.846612 
L 189.133617 302.020388 
L 190.379931 302.034278 
L 197.012922 301.811836 
L 198.387371 301.576258 
L 199.474517 301.071295 
L 200.081657 300.406984 
L 200.230814 299.944012 
L 200.462057 299.416439 
L 200.61622 299.125736 
L 201.155288 297.468726 
L 201.27091 297.365365 
L 201.309451 297.393359 
L 202.002681 298.404361 
L 202.580791 299.676996 
L 202.734953 299.728676 
L 202.966197 300.109821 
L 203.004737 300.062447 
L 203.312562 299.726523 
L 203.582346 299.7922 
L 203.775049 299.395982 
L 203.81359 299.417516 
L 204.006293 299.344302 
L 204.314618 299.23771 
L 204.507321 299.133273 
L 204.738565 299.212947 
L 205.04689 299.818041 
L 205.355215 300.381144 
L 206.060458 301.188869 
L 206.667598 301.494753 
L 207.595076 301.731085 
L 208.874424 301.86933 
L 210.953115 301.936838 
L 221.627365 301.898293 
L 224.122996 301.467298 
L 224.443333 301.359953 
L 225.53148 301.622125 
L 226.523526 301.590147 
L 228.219814 301.079909 
L 229.019657 300.400524 
L 229.499663 299.408902 
L 230.159358 296.338213 
L 230.306012 296.028129 
L 230.77801 293.85539 
L 230.816551 293.87154 
L 231.241999 295.187243 
L 231.28054 295.163556 
L 231.357621 295.158172 
L 231.581357 296.269305 
L 232.083886 297.914471 
L 232.200009 297.909088 
L 232.470794 297.546247 
L 232.547875 297.476263 
L 232.586416 297.518253 
L 232.741079 297.819724 
L 232.78012 297.79496 
L 233.591976 296.645066 
L 233.630516 296.718281 
L 234.172087 298.197638 
L 234.481413 298.784428 
L 234.845797 299.908482 
L 235.389871 300.664311 
L 236.702755 301.414756 
L 237.791402 301.650764 
L 240.609372 301.833584 
L 243.107005 301.893986 
L 244.164119 301.901092 
L 248.202875 301.807206 
L 249.356091 301.765215 
L 251.214049 301.644412 
L 253.00844 301.226014 
L 253.649116 300.965781 
L 254.578595 300.607247 
L 255.315372 299.970929 
L 255.585156 299.485347 
L 255.817902 298.645537 
L 255.973065 298.579859 
L 256.128229 297.859561 
L 257.493668 289.083547 
L 257.57125 288.965112 
L 257.60979 289.029713 
L 258.269486 291.958281 
L 258.773517 294.206388 
L 258.89014 294.461561 
L 258.92868 294.405573 
L 259.153417 293.825243 
L 259.200467 293.87477 
L 259.394171 294.267758 
L 259.433212 294.182701 
L 259.704498 293.190002 
L 259.78208 293.221226 
L 259.937243 293.124325 
L 260.014825 293.123248 
L 260.635479 294.897616 
L 260.937798 296.40066 
L 261.789696 299.422899 
L 262.238168 300.144275 
L 263.199682 300.93025 
L 263.77679 301.1865 
L 264.674236 301.412711 
L 265.315412 301.515426 
L 272.994005 301.63343 
L 276.696407 301.203512 
L 277.831103 300.720298 
L 278.967801 299.684532 
L 279.512876 298.447428 
L 279.973361 297.120959 
L 280.245648 295.789106 
L 280.604026 293.122171 
L 281.031977 288.685176 
L 281.420887 284.669161 
L 281.654133 283.96932 
L 281.693174 284.012387 
L 282.043543 285.541272 
L 282.432453 289.126614 
L 282.977027 290.45093 
L 283.171732 290.041792 
L 283.327396 289.320416 
L 283.638724 287.737698 
L 283.755347 287.533129 
L 283.794388 287.586963 
L 284.300422 290.461697 
L 284.95361 295.172169 
L 285.382062 297.016521 
L 285.69339 298.003836 
L 285.962674 298.92978 
L 286.861121 300.013996 
L 287.6955 300.259479 
L 288.241576 299.981696 
L 288.465812 300.069984 
L 288.947319 300.121664 
L 289.140023 299.997846 
L 289.492894 299.77928 
L 289.703116 299.954779 
L 290.014945 300.493119 
L 290.482437 301.096059 
L 290.716184 301.196729 
L 290.988471 301.170996 
L 291.261258 301.518225 
L 292.235285 301.389993 
L 292.741318 301.625355 
L 293.404017 301.482264 
L 293.676804 301.394192 
L 294.027174 301.482587 
L 294.455625 301.283186 
L 294.61179 301.283401 
L 294.806495 301.228706 
L 294.96266 301.21654 
L 295.118324 301.143541 
L 295.157365 301.188438 
L 295.391111 301.423585 
L 295.585816 301.271558 
L 295.70294 301.265851 
L 295.897645 301.414649 
L 295.936686 301.378364 
L 296.209474 301.15463 
L 297.456788 301.127606 
L 297.729576 300.925944 
L 297.924782 301.005618 
L 298.353233 300.521112 
L 298.782185 300.121664 
L 298.821226 300.175498 
L 298.93835 300.245482 
L 298.977391 300.212105 
L 299.172096 300.139968 
L 299.28922 300.07429 
L 300.186165 298.626157 
L 300.419911 297.829414 
L 300.654158 297.19202 
L 300.770781 296.904546 
L 301.199733 295.572694 
L 301.316857 294.991287 
L 301.949023 290.321728 
L 302.18327 287.597729 
L 302.62023 280.459345 
L 302.853977 277.681512 
L 303.010141 277.283141 
L 303.556217 279.953306 
L 303.899579 282.957241 
L 303.977661 283.075676 
L 304.016702 283.054142 
L 304.094284 283.075676 
L 304.250449 283.581715 
L 304.297498 283.495581 
L 304.679901 281.299155 
L 304.797025 280.986918 
L 304.913648 280.523946 
L 304.952689 280.620847 
L 305.108853 281.923629 
L 305.460224 285.68124 
L 306.318629 293.792943 
L 306.934778 296.889473 
L 307.364231 298.366677 
L 307.559436 298.747821 
L 307.67656 298.793042 
L 307.949848 299.284008 
L 307.988889 299.254937 
L 308.106012 299.244171 
L 308.301218 299.385216 
L 308.418342 299.51657 
L 308.652588 300.244406 
L 308.69163 300.201339 
L 308.847794 300.005383 
L 309.472453 300.830119 
L 309.979988 300.713838 
L 310.799852 300.906564 
L 310.956016 301.094982 
L 310.995057 301.068065 
L 311.229304 300.705224 
L 311.268345 300.739678 
L 311.580675 301.017462 
L 311.814922 301.066989 
L 311.996112 300.778439 
L 312.112735 300.640624 
L 312.151777 300.670771 
L 312.346482 300.782745 
L 312.502146 300.584636 
L 312.541187 300.633087 
L 312.891056 301.130513 
L 313.008179 301.151831 
L 313.43613 300.834426 
L 313.591794 300.611553 
L 313.630835 300.6417 
L 313.864081 300.854883 
L 314.097828 300.676154 
L 314.448197 300.808586 
L 314.56482 300.799972 
L 314.759525 301.032535 
L 314.798566 300.956091 
L 314.95423 300.563103 
L 314.993271 300.578176 
L 315.148936 300.741832 
L 315.187977 300.676154 
L 315.499305 300.088287 
L 315.810633 299.780357 
L 316.044379 299.416439 
L 316.161503 299.225867 
L 316.394749 298.3656 
L 316.472831 298.514182 
L 316.550913 298.61862 
L 316.589454 298.585243 
L 317.251652 297.649608 
L 317.485398 296.468491 
L 317.524439 296.513712 
L 317.680103 297.031594 
L 317.719144 296.9713 
L 317.874809 296.473874 
L 317.91385 296.518018 
L 318.420384 297.917702 
L 318.497965 297.829414 
L 318.887876 296.474951 
L 318.965458 296.66014 
L 319.04354 296.837792 
L 319.082582 296.813028 
L 319.238246 296.106727 
L 320.123178 290.569365 
L 320.513089 286.639485 
L 321.332453 272.556518 
L 321.600235 270.446226 
L 321.678317 270.693863 
L 321.833981 271.113768 
L 322.150815 273.137925 
L 322.424103 273.977735 
L 322.462644 273.956201 
L 322.618809 273.417862 
L 322.65785 273.471696 
L 322.696891 273.482462 
L 322.774973 273.094858 
L 322.891596 272.44885 
L 322.930637 272.68572 
L 323.047761 273.643964 
L 323.086802 273.633198 
L 323.281507 272.470384 
L 323.320548 272.588818 
L 323.437672 273.611664 
L 324.411198 288.405239 
L 325.475319 295.903234 
L 325.709066 296.41358 
L 326.021395 297.591468 
L 326.17756 297.885401 
L 326.2161 297.864944 
L 326.294182 297.850947 
L 326.450347 298.386057 
L 326.684594 298.770432 
L 327.074505 299.371219 
L 327.308752 299.019145 
L 327.347793 299.075132 
L 327.776745 299.612395 
L 328.010992 299.665152 
L 328.128115 299.631775 
L 328.323321 299.904175 
L 328.361862 299.838498 
L 328.557067 299.529491 
L 328.869397 299.787894 
L 329.025561 299.768513 
L 329.376932 300.144275 
L 329.649719 299.866491 
L 330.001089 300.04845 
L 330.118213 299.969852 
L 330.274377 299.79543 
L 330.313419 299.822347 
L 330.586707 300.171191 
L 330.625748 300.130278 
L 330.938077 299.814811 
L 331.211365 300.103361 
L 331.250406 300.047373 
L 331.562735 299.708219 
L 331.836023 299.77605 
L 332.109311 299.443356 
L 332.538764 299.082669 
L 332.694929 298.784428 
L 332.73397 298.800579 
L 332.968217 299.217254 
L 333.163422 299.350762 
L 333.39817 299.072979 
L 333.905705 298.087817 
L 334.178993 298.003836 
L 334.335157 297.264157 
L 334.41324 297.068201 
L 334.452781 297.080045 
L 334.569905 297.171563 
L 334.687028 296.514788 
L 334.804152 296.052893 
L 334.843193 296.067966 
L 334.921275 296.062583 
L 335.038399 295.476869 
L 335.417799 293.264293 
L 335.663558 292.090713 
L 336.551994 279.888705 
L 337.445436 262.554166 
L 337.524018 262.27423 
L 337.56306 262.414198 
L 337.797307 264.642924 
L 337.91443 264.427589 
L 337.993013 264.298387 
L 338.032054 264.330687 
L 338.149177 264.815193 
L 338.22726 265.493501 
L 338.266301 265.482734 
L 338.579131 263.264775 
L 338.657213 263.393976 
L 338.735295 263.458577 
L 338.774336 263.393976 
L 338.813377 263.340142 
L 338.852919 263.372443 
L 338.931001 263.867715 
L 339.126207 267.64686 
L 339.639748 278.887393 
L 339.872994 282.763439 
L 340.146783 287.05939 
L 341.163354 293.752029 
L 341.29249 294.09872 
L 341.515225 294.643519 
L 341.644361 294.667206 
L 341.879109 293.771409 
L 341.996232 293.578683 
L 342.113356 294.019045 
L 342.191938 294.234381 
L 342.23098 294.16978 
L 342.348103 293.891997 
L 342.387645 293.984592 
L 342.543809 294.538005 
L 342.58285 294.483094 
L 342.739516 294.025505 
L 342.778557 294.084723 
L 342.89568 294.199928 
L 343.013304 294.048116 
L 343.052345 294.122407 
L 343.326134 295.420882 
L 343.560881 296.876553 
L 343.756588 297.190943 
L 343.952294 297.696982 
L 344.108458 297.48703 
L 344.148 297.53548 
L 344.304165 297.730359 
L 344.343206 297.696982 
L 344.421789 297.436426 
L 344.656536 295.824637 
L 344.695577 295.908618 
L 344.969366 296.591232 
L 345.165072 296.744121 
L 345.752191 297.998452 
L 345.830273 298.08351 
L 345.869815 298.042596 
L 346.025979 297.115575 
L 346.143603 296.642913 
L 346.182645 296.70536 
L 346.456934 297.315838 
L 346.613098 297.050975 
L 346.769763 296.838869 
L 346.887387 297.324451 
L 346.96547 297.632381 
L 347.004511 297.616231 
L 347.748295 295.488713 
L 347.865919 295.23354 
L 348.715814 291.129238 
L 349.302933 284.023154 
L 350.317002 261.208317 
L 350.630332 255.168146 
L 350.669874 255.006644 
L 350.708915 255.200446 
L 350.904621 257.073868 
L 350.943663 256.955434 
L 351.100828 256.180224 
L 351.139869 256.223292 
L 351.178911 256.201758 
L 351.296534 255.803387 
L 351.4532 256.675497 
L 351.492241 256.492461 
L 351.570824 256.244825 
L 351.609865 256.406327 
L 351.727489 258.172081 
L 353.102938 287.156291 
L 353.545405 291.204605 
L 353.847723 292.73995 
L 353.937318 293.029577 
L 354.251149 295.042967 
L 354.604021 296.0895 
L 354.721644 296.028129 
L 354.760686 296.091653 
L 354.995934 296.790418 
L 355.034975 296.747351 
L 355.19164 296.723664 
L 355.466429 297.010061 
L 355.623095 297.215707 
L 355.818801 296.95192 
L 355.936425 296.739814 
L 355.975967 296.783958 
L 356.211214 297.373978 
L 356.250256 297.349215 
L 356.485504 297.212476 
L 356.642169 297.239393 
L 356.877417 296.639683 
L 356.955999 296.755964 
L 357.073623 296.915313 
L 357.112665 296.862556 
L 357.387454 296.436191 
L 357.505078 296.432961 
L 357.661743 295.927998 
L 357.779367 295.769726 
L 357.818909 295.79126 
L 357.896991 295.765419 
L 358.171781 295.128025 
L 358.44607 293.578683 
L 358.956108 290.838534 
L 359.258426 288.749776 
L 359.965171 278.693591 
L 361.176448 252.282645 
L 361.294072 252.056542 
L 361.490279 251.119831 
L 361.52932 251.152132 
L 361.607902 251.05523 
L 361.646944 251.130598 
L 361.765068 253.143988 
L 362.868231 281.611392 
L 363.41781 288.319105 
L 363.849765 290.257128 
L 363.927848 290.170993 
L 364.320762 289.34195 
L 364.438386 289.600353 
L 364.516969 289.708021 
L 364.55601 289.675721 
L 364.674134 289.621887 
L 364.870341 289.815689 
L 364.909382 289.761855 
L 365.145131 289.417318 
L 365.184672 289.449618 
L 365.380879 289.621887 
L 365.459462 289.761855 
L 365.851876 291.247673 
L 366.099637 291.58575 
L 366.217261 291.530839 
L 366.374426 291.764479 
L 366.401955 291.716028 
L 366.951535 289.772622 
L 367.620239 281.342222 
L 368.950642 254.597506 
L 368.990183 255.017411 
L 369.147349 256.460161 
L 369.18639 256.449394 
L 369.264973 257.343038 
L 370.056307 277.541544 
L 370.920218 288.265271 
L 371.509839 290.633965 
L 371.54888 290.569365 
L 371.745587 289.858756 
L 371.784629 289.91259 
L 371.836183 289.934124 
L 371.863712 289.858756 
L 372.374751 287.66233 
L 372.610499 285.304402 
L 373.706654 270.747697 
L 373.903362 268.938875 
L 373.981945 269.348013 
L 374.616613 276.863236 
L 375.127152 280.534713 
L 375.403443 281.579092 
L 375.717274 283.075676 
L 375.953022 284.970632 
L 376.071147 285.95041 
L 376.43453 289.503452 
L 377.239878 295.104338 
L 377.89607 297.77235 
L 378.074758 298.294539 
L 378.313009 298.669224 
L 378.432135 298.824266 
L 378.567778 299.16342 
L 378.747467 299.323845 
L 379.257004 299.830961 
L 379.646915 300.079674 
L 380.186484 300.29178 
L 380.186484 300.29178 
" clip-path="url(#p406e8af1cf)" style="fill: none; stroke: #1f77b4; stroke-width: 1.5; stroke-linecap: square"/>
   </g>
   <g id="line2d_32">
    <path d="M 73.832727 301.978988 
L 84.794281 302.039847 
L 93.153091 301.942976 
L 94.254251 301.73278 
L 95.305359 301.469174 
L 96.006098 301.696427 
L 96.856994 301.866013 
L 97.958155 301.844771 
L 99.159421 301.800902 
L 101.011373 302.006394 
L 105.365963 302.053398 
L 128.139966 302.005128 
L 130.692657 301.836991 
L 131.593606 301.575511 
L 132.244292 301.138748 
L 132.844925 300.764607 
L 133.195294 300.828196 
L 134.146297 301.2087 
L 134.646824 301.080622 
L 135.29751 300.89896 
L 136.19846 301.102345 
L 136.849146 301.403224 
L 137.700042 301.755435 
L 138.801203 301.921174 
L 141.303841 302.015426 
L 150.663706 302.050975 
L 163.076789 301.938487 
L 164.978794 301.737077 
L 165.829691 301.453184 
L 166.380271 301.04917 
L 166.830746 300.448965 
L 167.681642 299.157685 
L 167.881853 299.180442 
L 168.132117 299.452762 
L 169.183225 300.930778 
L 169.6337 301.120555 
L 170.084175 301.092449 
L 171.335494 300.813656 
L 172.987234 301.743035 
L 174.238553 301.906314 
L 177.141613 302.00175 
L 187.052059 302.026976 
L 195.210658 301.891943 
L 197.06261 301.671179 
L 197.963559 301.3558 
L 198.514139 300.94139 
L 198.964614 300.318153 
L 199.465142 299.170829 
L 199.965669 298.094153 
L 200.16588 298.027651 
L 200.366091 298.24764 
L 200.866619 299.386713 
L 201.317094 300.13278 
L 201.717516 300.38579 
L 202.067885 300.335861 
L 202.468307 300.017174 
L 203.018887 299.580247 
L 203.269151 299.663305 
L 203.61952 300.111205 
L 204.370312 301.088961 
L 204.970945 301.46795 
L 205.821842 301.713052 
L 207.323424 301.876481 
L 210.727012 301.972304 
L 219.586349 301.959109 
L 224.291308 301.78632 
L 225.993102 301.529552 
L 226.894051 301.193352 
L 227.494684 300.746562 
L 227.945159 300.148625 
L 228.345581 299.252692 
L 228.796056 297.593329 
L 229.496795 294.874275 
L 229.646953 294.820397 
L 229.797111 295.051978 
L 230.097428 296.125274 
L 230.698061 298.242759 
L 231.04843 298.742373 
L 231.298694 298.776967 
L 231.548958 298.574091 
L 232.399854 297.569013 
L 232.600065 297.800368 
L 233.000487 298.820639 
L 233.60112 300.218763 
L 234.101648 300.853168 
L 234.702281 301.259092 
L 235.553178 301.544932 
L 236.954655 301.74783 
L 239.657504 301.874761 
L 245.363518 301.88817 
L 249.968371 301.716886 
L 251.920429 301.44707 
L 252.971537 301.101873 
L 253.672275 300.654467 
L 254.222855 300.023815 
L 254.67333 299.131575 
L 255.073752 297.799292 
L 255.474174 295.637983 
L 256.325071 290.551638 
L 256.425177 290.535178 
L 256.575335 290.875565 
L 256.875651 292.47887 
L 257.426232 295.301333 
L 257.726548 295.841985 
L 257.926759 295.795774 
L 258.177023 295.348135 
L 258.827709 293.913198 
L 258.977867 294.034078 
L 259.178078 294.603545 
L 260.529503 299.746206 
L 261.03003 300.450675 
L 261.630663 300.926203 
L 262.431507 301.269539 
L 263.632773 301.522941 
L 265.634884 301.692586 
L 269.188629 301.746896 
L 273.042691 301.602152 
L 275.094854 301.331541 
L 276.29612 300.970494 
L 277.096964 300.512072 
L 277.697597 299.91503 
L 278.198125 299.08234 
L 278.6486 297.827236 
L 279.049022 295.961783 
L 279.449444 292.904591 
L 280.400446 284.495963 
L 280.500552 284.563977 
L 280.65071 285.180166 
L 281.051132 288.432328 
L 281.451554 290.897819 
L 281.701818 291.315164 
L 281.851976 291.161677 
L 282.10224 290.395772 
L 282.552715 288.959147 
L 282.65282 288.946703 
L 282.802978 289.269239 
L 283.053242 290.673355 
L 284.054297 297.434417 
L 284.554825 298.966833 
L 285.055352 299.832418 
L 285.655985 300.436394 
L 286.406777 300.865469 
L 287.457885 301.185021 
L 289.00952 301.399678 
L 291.361999 301.484388 
L 294.064848 301.371129 
L 295.966853 301.086372 
L 297.168119 300.693507 
L 297.968963 300.217919 
L 298.619649 299.56893 
L 299.120176 298.762501 
L 299.570651 297.612168 
L 299.971073 295.980281 
L 300.371495 293.321164 
L 300.771917 288.964524 
L 301.72292 277.150042 
L 301.823025 277.227842 
L 301.973183 278.010741 
L 302.82408 284.304053 
L 302.924186 284.246933 
L 303.124397 283.619433 
L 303.624924 281.753227 
L 303.72503 281.868063 
L 303.875188 282.546939 
L 304.175505 285.510721 
L 304.976349 294.173086 
L 305.426824 296.687707 
L 305.927351 298.281709 
L 306.477931 299.292613 
L 307.078564 299.946706 
L 307.829356 300.428787 
L 308.780358 300.76746 
L 310.08173 300.985789 
L 311.783523 301.042758 
L 313.585423 300.88681 
L 314.936847 300.555365 
L 315.887849 300.10439 
L 316.588588 299.543876 
L 317.189221 298.772009 
L 317.689748 297.753044 
L 318.140223 296.304732 
L 318.540645 294.258302 
L 318.941067 290.933847 
L 319.341489 285.479619 
L 320.342544 269.668166 
L 320.44265 269.752367 
L 320.592808 270.595836 
L 321.193441 275.075044 
L 321.293547 275.104038 
L 321.443705 274.707276 
L 321.89418 272.963761 
L 321.944233 272.991501 
L 322.094391 273.587542 
L 322.294602 275.645501 
L 322.845182 285.094973 
L 323.34571 291.572358 
L 323.796185 294.856096 
L 324.296712 296.937651 
L 324.847292 298.259989 
L 325.447925 299.114617 
L 326.148664 299.703393 
L 326.949508 300.083549 
L 327.950563 300.309749 
L 329.151829 300.344586 
L 330.303043 300.163522 
L 331.254045 299.805186 
L 332.004836 299.297986 
L 332.655522 298.576105 
L 333.206102 297.600253 
L 333.656577 296.361494 
L 334.107052 294.416232 
L 334.507474 291.629545 
L 334.907896 287.064507 
L 335.308318 279.681903 
L 336.159215 262.679354 
L 336.309373 262.28307 
L 336.409479 262.517813 
L 336.960059 264.815279 
L 337.010112 264.766063 
L 337.260376 264.058503 
L 337.410534 263.806529 
L 337.510639 263.970079 
L 337.660798 264.934789 
L 337.911061 268.671938 
L 339.062275 290.156825 
L 339.51275 293.676333 
L 340.013277 295.925106 
L 340.513805 297.255691 
L 341.064385 298.149545 
L 341.665018 298.729356 
L 342.315704 299.054389 
L 342.916337 299.110335 
L 343.266706 298.959945 
L 343.51697 298.632375 
L 344.167656 297.330763 
L 344.217709 297.359068 
L 344.467972 298.059445 
L 344.718236 298.442632 
L 344.9685 298.486065 
L 345.318869 298.305089 
L 345.769344 297.824959 
L 346.269871 296.951016 
L 346.720346 295.714573 
L 347.170821 293.761261 
L 347.571243 290.972872 
L 347.971665 286.422956 
L 348.372087 278.980344 
L 349.423195 256.471495 
L 349.673459 255.671447 
L 350.173986 255.099336 
L 350.224039 255.17199 
L 350.374197 255.889937 
L 350.574408 258.374937 
L 350.924778 266.789957 
L 351.625516 283.914946 
L 352.075991 289.764076 
L 352.526466 293.085611 
L 353.026993 295.213465 
L 353.527521 296.448987 
L 354.078101 297.218921 
L 354.628682 297.605248 
L 355.129209 297.699909 
L 355.629737 297.564215 
L 356.130264 297.171647 
L 356.580739 296.531257 
L 357.031214 295.490182 
L 357.481689 293.80514 
L 357.882111 291.388319 
L 358.282533 287.450029 
L 358.682955 280.929742 
L 359.183482 268.253286 
L 359.734062 255.304068 
L 360.084432 251.527201 
L 360.23459 251.05523 
L 360.284643 251.072116 
L 360.384748 251.406785 
L 360.584959 253.452846 
L 360.885276 260.116202 
L 361.836278 284.411965 
L 362.286753 289.689934 
L 362.737228 292.606881 
L 363.187703 294.222901 
L 363.588125 294.985292 
L 363.938494 295.270709 
L 364.23881 295.266406 
L 364.539127 295.032565 
L 364.889496 294.439455 
L 365.239866 293.401678 
L 365.590235 291.694631 
L 365.940604 288.930038 
L 366.341026 283.686609 
L 366.791501 274.192007 
L 367.542292 257.57031 
L 367.742503 256.324144 
L 367.842609 256.579831 
L 367.992767 258.065886 
L 368.293084 264.389602 
L 369.14398 284.326332 
L 369.544402 288.743122 
L 369.944824 290.991473 
L 370.245141 291.697777 
L 370.445352 291.773081 
L 370.645563 291.531359 
L 370.895827 290.735336 
L 371.196143 288.900773 
L 371.546513 285.257966 
L 372.547568 273.316859 
L 372.647673 273.474085 
L 372.797831 274.44793 
L 373.148201 278.941395 
L 373.598676 283.945557 
L 373.898992 285.2591 
L 374.499625 286.810183 
L 374.799942 288.783225 
L 375.750944 295.918438 
L 376.251472 297.739926 
L 376.802052 298.880419 
L 377.402685 299.618425 
L 378.103423 300.140041 
L 378.95432 300.499746 
L 381.156642 301.064927 
L 382.558119 301.254052 
L 382.558119 301.254052 
" clip-path="url(#p406e8af1cf)" style="fill: none; stroke: #ff7f0e; stroke-width: 1.5; stroke-linecap: square"/>
   </g>
   <g id="patch_9">
    <path d="M 57.6 307.584 
L 57.6 186.624 
" style="fill: none; stroke: #000000; stroke-width: 0.8; stroke-linejoin: miter; stroke-linecap: square"/>
   </g>
   <g id="patch_10">
    <path d="M 414.72 307.584 
L 414.72 186.624 
" style="fill: none; stroke: #000000; stroke-width: 0.8; stroke-linejoin: miter; stroke-linecap: square"/>
   </g>
   <g id="patch_11">
    <path d="M 57.6 307.584 
L 414.72 307.584 
" style="fill: none; stroke: #000000; stroke-width: 0.8; stroke-linejoin: miter; stroke-linecap: square"/>
   </g>
   <g id="patch_12">
    <path d="M 57.6 186.624 
L 414.72 186.624 
" style="fill: none; stroke: #000000; stroke-width: 0.8; stroke-linejoin: miter; stroke-linecap: square"/>
   </g>
   <g id="text_28">
    <!-- v'=4 295K -->
    <g transform="translate(204.820312 180.624) scale(0.12 -0.12)">
     <use xlink:href="#DejaVuSans-76"/>
     <use xlink:href="#DejaVuSans-27" x="59.179688"/>
     <use xlink:href="#DejaVuSans-3d" x="86.669922"/>
     <use xlink:href="#DejaVuSans-34" x="170.458984"/>
     <use xlink:href="#DejaVuSans-20" x="234.082031"/>
     <use xlink:href="#DejaVuSans-32" x="265.869141"/>
     <use xlink:href="#DejaVuSans-39" x="329.492188"/>
     <use xlink:href="#DejaVuSans-35" x="393.115234"/>
     <use xlink:href="#DejaVuSans-4b" x="456.738281"/>
    </g>
   </g>
   <g id="legend_2">
    <g id="patch_13">
     <path d="M 264.286708 214.409756 
L 408.889 214.409756 
Q 410.555 214.409756 410.555 212.743756 
L 410.555 192.455 
Q 410.555 190.789 408.889 190.789 
L 264.286708 190.789 
Q 262.620708 190.789 262.620708 192.455 
L 262.620708 212.743756 
Q 262.620708 214.409756 264.286708 214.409756 
z
" style="fill: #ffffff; opacity: 0.8; stroke: #cccccc; stroke-linejoin: miter"/>
    </g>
    <g id="line2d_33">
     <path d="M 265.952708 197.534998 
L 274.282708 197.534998 
L 282.612708 197.534998 
" style="fill: none; stroke: #1f77b4; stroke-width: 1.5; stroke-linecap: square"/>
    </g>
    <g id="text_29">
     <!-- data/Harvard/o2wb4x0 v'=4 -->
     <g transform="translate(289.276708 200.450498) scale(0.0833 -0.0833)">
      <defs>
       <path id="DejaVuSans-78" d="M 3513 3500 
L 2247 1797 
L 3578 0 
L 2900 0 
L 1881 1375 
L 863 0 
L 184 0 
L 1544 1831 
L 300 3500 
L 978 3500 
L 1906 2253 
L 2834 3500 
L 3513 3500 
z
" transform="scale(0.015625)"/>
      </defs>
      <use xlink:href="#DejaVuSans-64"/>
      <use xlink:href="#DejaVuSans-61" x="63.476562"/>
      <use xlink:href="#DejaVuSans-74" x="124.755859"/>
      <use xlink:href="#DejaVuSans-61" x="163.964844"/>
      <use xlink:href="#DejaVuSans-2f" x="225.244141"/>
      <use xlink:href="#DejaVuSans-48" x="258.935547"/>
      <use xlink:href="#DejaVuSans-61" x="334.130859"/>
      <use xlink:href="#DejaVuSans-72" x="395.410156"/>
      <use xlink:href="#DejaVuSans-76" x="436.523438"/>
      <use xlink:href="#DejaVuSans-61" x="495.703125"/>
      <use xlink:href="#DejaVuSans-72" x="556.982422"/>
      <use xlink:href="#DejaVuSans-64" x="596.345703"/>
      <use xlink:href="#DejaVuSans-2f" x="659.822266"/>
      <use xlink:href="#DejaVuSans-6f" x="693.513672"/>
      <use xlink:href="#DejaVuSans-32" x="754.695312"/>
      <use xlink:href="#DejaVuSans-77" x="818.318359"/>
      <use xlink:href="#DejaVuSans-62" x="900.105469"/>
      <use xlink:href="#DejaVuSans-34" x="963.582031"/>
      <use xlink:href="#DejaVuSans-78" x="1027.205078"/>
      <use xlink:href="#DejaVuSans-30" x="1086.384766"/>
      <use xlink:href="#DejaVuSans-20" x="1150.007812"/>
      <use xlink:href="#DejaVuSans-76" x="1181.794922"/>
      <use xlink:href="#DejaVuSans-27" x="1240.974609"/>
      <use xlink:href="#DejaVuSans-3d" x="1268.464844"/>
      <use xlink:href="#DejaVuSans-34" x="1352.253906"/>
     </g>
    </g>
    <g id="line2d_34">
     <path d="M 265.952708 206.429877 
L 274.282708 206.429877 
L 282.612708 206.429877 
" style="fill: none; stroke: #ff7f0e; stroke-width: 1.5; stroke-linecap: square"/>
    </g>
    <g id="text_30">
     <!-- PyDiatomic -->
     <g transform="translate(289.276708 209.345377) scale(0.0833 -0.0833)">
      <use xlink:href="#DejaVuSans-50"/>
      <use xlink:href="#DejaVuSans-79" x="60.302734"/>
      <use xlink:href="#DejaVuSans-44" x="119.482422"/>
      <use xlink:href="#DejaVuSans-69" x="196.484375"/>
      <use xlink:href="#DejaVuSans-61" x="224.267578"/>
      <use xlink:href="#DejaVuSans-74" x="285.546875"/>
      <use xlink:href="#DejaVuSans-6f" x="324.755859"/>
      <use xlink:href="#DejaVuSans-6d" x="385.9375"/>
      <use xlink:href="#DejaVuSans-69" x="483.349609"/>
      <use xlink:href="#DejaVuSans-63" x="511.132812"/>
     </g>
    </g>
   </g>
  </g>
 </g>
 <defs>
  <clipPath id="p928e7abf8b">
   <rect x="57.6" y="41.472" width="357.12" height="120.96"/>
  </clipPath>
  <clipPath id="p406e8af1cf">
   <rect x="57.6" y="186.624" width="357.12" height="120.96"/>
  </clipPath>
 </defs>
</svg>
