<?xml version="1.0" encoding="utf-8" standalone="no"?>
<!DOCTYPE svg PUBLIC "-//W3C//DTD SVG 1.1//EN"
  "http://www.w3.org/Graphics/SVG/1.1/DTD/svg11.dtd">
<svg xmlns:xlink="http://www.w3.org/1999/xlink" width="460.8pt" height="345.6pt" viewBox="0 0 460.8 345.6" xmlns="http://www.w3.org/2000/svg" version="1.1">
 <metadata>
  <rdf:RDF xmlns:dc="http://purl.org/dc/elements/1.1/" xmlns:cc="http://creativecommons.org/ns#" xmlns:rdf="http://www.w3.org/1999/02/22-rdf-syntax-ns#">
   <cc:Work>
    <dc:type rdf:resource="http://purl.org/dc/dcmitype/StillImage"/>
    <dc:date>2022-11-20T16:36:50.539629</dc:date>
    <dc:format>image/svg+xml</dc:format>
    <dc:creator>
     <cc:Agent>
      <dc:title>Matplotlib v3.6.0, https://matplotlib.org/</dc:title>
     </cc:Agent>
    </dc:creator>
   </cc:Work>
  </rdf:RDF>
 </metadata>
 <defs>
  <style type="text/css">*{stroke-linejoin: round; stroke-linecap: butt}</style>
 </defs>
 <g id="figure_1">
  <g id="patch_1">
   <path d="M 0 345.6 
L 460.8 345.6 
L 460.8 0 
L 0 0 
z
" style="fill: #ffffff"/>
  </g>
  <g id="axes_1">
   <g id="patch_2">
    <path d="M 48.602 299.608 
L 247.551 299.608 
L 247.551 26.88 
L 48.602 26.88 
z
" style="fill: #ffffff"/>
   </g>
   <g id="matplotlib.axis_1">
    <g id="xtick_1">
     <g id="line2d_1">
      <defs>
       <path id="m2f983eb11b" d="M 0 0 
L 0 3.5 
" style="stroke: #000000; stroke-width: 0.8"/>
      </defs>
      <g>
       <use xlink:href="#m2f983eb11b" x="235.116687" y="299.608" style="stroke: #000000; stroke-width: 0.8"/>
      </g>
     </g>
     <g id="text_1">
      <!-- 0.0 -->
      <g transform="translate(227.165125 314.206437) scale(0.1 -0.1)">
       <defs>
        <path id="DejaVuSans-30" d="M 2034 4250 
Q 1547 4250 1301 3770 
Q 1056 3291 1056 2328 
Q 1056 1369 1301 889 
Q 1547 409 2034 409 
Q 2525 409 2770 889 
Q 3016 1369 3016 2328 
Q 3016 3291 2770 3770 
Q 2525 4250 2034 4250 
z
M 2034 4750 
Q 2819 4750 3233 4129 
Q 3647 3509 3647 2328 
Q 3647 1150 3233 529 
Q 2819 -91 2034 -91 
Q 1250 -91 836 529 
Q 422 1150 422 2328 
Q 422 3509 836 4129 
Q 1250 4750 2034 4750 
z
" transform="scale(0.015625)"/>
        <path id="DejaVuSans-2e" d="M 684 794 
L 1344 794 
L 1344 0 
L 684 0 
L 684 794 
z
" transform="scale(0.015625)"/>
       </defs>
       <use xlink:href="#DejaVuSans-30"/>
       <use xlink:href="#DejaVuSans-2e" x="63.623047"/>
       <use xlink:href="#DejaVuSans-30" x="95.410156"/>
      </g>
     </g>
    </g>
    <g id="xtick_2">
     <g id="line2d_2">
      <g>
       <use xlink:href="#m2f983eb11b" x="172.945125" y="299.608" style="stroke: #000000; stroke-width: 0.8"/>
      </g>
     </g>
     <g id="text_2">
      <!-- 0.5 -->
      <g transform="translate(164.993562 314.206437) scale(0.1 -0.1)">
       <defs>
        <path id="DejaVuSans-35" d="M 691 4666 
L 3169 4666 
L 3169 4134 
L 1269 4134 
L 1269 2991 
Q 1406 3038 1543 3061 
Q 1681 3084 1819 3084 
Q 2600 3084 3056 2656 
Q 3513 2228 3513 1497 
Q 3513 744 3044 326 
Q 2575 -91 1722 -91 
Q 1428 -91 1123 -41 
Q 819 9 494 109 
L 494 744 
Q 775 591 1075 516 
Q 1375 441 1709 441 
Q 2250 441 2565 725 
Q 2881 1009 2881 1497 
Q 2881 1984 2565 2268 
Q 2250 2553 1709 2553 
Q 1456 2553 1204 2497 
Q 953 2441 691 2322 
L 691 4666 
z
" transform="scale(0.015625)"/>
       </defs>
       <use xlink:href="#DejaVuSans-30"/>
       <use xlink:href="#DejaVuSans-2e" x="63.623047"/>
       <use xlink:href="#DejaVuSans-35" x="95.410156"/>
      </g>
     </g>
    </g>
    <g id="xtick_3">
     <g id="line2d_3">
      <g>
       <use xlink:href="#m2f983eb11b" x="110.773562" y="299.608" style="stroke: #000000; stroke-width: 0.8"/>
      </g>
     </g>
     <g id="text_3">
      <!-- 1.0 -->
      <g transform="translate(102.822 314.206437) scale(0.1 -0.1)">
       <defs>
        <path id="DejaVuSans-31" d="M 794 531 
L 1825 531 
L 1825 4091 
L 703 3866 
L 703 4441 
L 1819 4666 
L 2450 4666 
L 2450 531 
L 3481 531 
L 3481 0 
L 794 0 
L 794 531 
z
" transform="scale(0.015625)"/>
       </defs>
       <use xlink:href="#DejaVuSans-31"/>
       <use xlink:href="#DejaVuSans-2e" x="63.623047"/>
       <use xlink:href="#DejaVuSans-30" x="95.410156"/>
      </g>
     </g>
    </g>
    <g id="xtick_4">
     <g id="line2d_4">
      <g>
       <use xlink:href="#m2f983eb11b" x="48.602" y="299.608" style="stroke: #000000; stroke-width: 0.8"/>
      </g>
     </g>
     <g id="text_4">
      <!-- 1.5 -->
      <g transform="translate(40.650437 314.206437) scale(0.1 -0.1)">
       <use xlink:href="#DejaVuSans-31"/>
       <use xlink:href="#DejaVuSans-2e" x="63.623047"/>
       <use xlink:href="#DejaVuSans-35" x="95.410156"/>
      </g>
     </g>
    </g>
    <g id="text_5">
     <!-- cross section (cm$^{2}$) -->
     <g transform="translate(99.8765 328.706437) scale(0.1 -0.1)">
      <defs>
       <path id="DejaVuSans-63" d="M 3122 3366 
L 3122 2828 
Q 2878 2963 2633 3030 
Q 2388 3097 2138 3097 
Q 1578 3097 1268 2742 
Q 959 2388 959 1747 
Q 959 1106 1268 751 
Q 1578 397 2138 397 
Q 2388 397 2633 464 
Q 2878 531 3122 666 
L 3122 134 
Q 2881 22 2623 -34 
Q 2366 -91 2075 -91 
Q 1284 -91 818 406 
Q 353 903 353 1747 
Q 353 2603 823 3093 
Q 1294 3584 2113 3584 
Q 2378 3584 2631 3529 
Q 2884 3475 3122 3366 
z
" transform="scale(0.015625)"/>
       <path id="DejaVuSans-72" d="M 2631 2963 
Q 2534 3019 2420 3045 
Q 2306 3072 2169 3072 
Q 1681 3072 1420 2755 
Q 1159 2438 1159 1844 
L 1159 0 
L 581 0 
L 581 3500 
L 1159 3500 
L 1159 2956 
Q 1341 3275 1631 3429 
Q 1922 3584 2338 3584 
Q 2397 3584 2469 3576 
Q 2541 3569 2628 3553 
L 2631 2963 
z
" transform="scale(0.015625)"/>
       <path id="DejaVuSans-6f" d="M 1959 3097 
Q 1497 3097 1228 2736 
Q 959 2375 959 1747 
Q 959 1119 1226 758 
Q 1494 397 1959 397 
Q 2419 397 2687 759 
Q 2956 1122 2956 1747 
Q 2956 2369 2687 2733 
Q 2419 3097 1959 3097 
z
M 1959 3584 
Q 2709 3584 3137 3096 
Q 3566 2609 3566 1747 
Q 3566 888 3137 398 
Q 2709 -91 1959 -91 
Q 1206 -91 779 398 
Q 353 888 353 1747 
Q 353 2609 779 3096 
Q 1206 3584 1959 3584 
z
" transform="scale(0.015625)"/>
       <path id="DejaVuSans-73" d="M 2834 3397 
L 2834 2853 
Q 2591 2978 2328 3040 
Q 2066 3103 1784 3103 
Q 1356 3103 1142 2972 
Q 928 2841 928 2578 
Q 928 2378 1081 2264 
Q 1234 2150 1697 2047 
L 1894 2003 
Q 2506 1872 2764 1633 
Q 3022 1394 3022 966 
Q 3022 478 2636 193 
Q 2250 -91 1575 -91 
Q 1294 -91 989 -36 
Q 684 19 347 128 
L 347 722 
Q 666 556 975 473 
Q 1284 391 1588 391 
Q 1994 391 2212 530 
Q 2431 669 2431 922 
Q 2431 1156 2273 1281 
Q 2116 1406 1581 1522 
L 1381 1569 
Q 847 1681 609 1914 
Q 372 2147 372 2553 
Q 372 3047 722 3315 
Q 1072 3584 1716 3584 
Q 2034 3584 2315 3537 
Q 2597 3491 2834 3397 
z
" transform="scale(0.015625)"/>
       <path id="DejaVuSans-20" transform="scale(0.015625)"/>
       <path id="DejaVuSans-65" d="M 3597 1894 
L 3597 1613 
L 953 1613 
Q 991 1019 1311 708 
Q 1631 397 2203 397 
Q 2534 397 2845 478 
Q 3156 559 3463 722 
L 3463 178 
Q 3153 47 2828 -22 
Q 2503 -91 2169 -91 
Q 1331 -91 842 396 
Q 353 884 353 1716 
Q 353 2575 817 3079 
Q 1281 3584 2069 3584 
Q 2775 3584 3186 3129 
Q 3597 2675 3597 1894 
z
M 3022 2063 
Q 3016 2534 2758 2815 
Q 2500 3097 2075 3097 
Q 1594 3097 1305 2825 
Q 1016 2553 972 2059 
L 3022 2063 
z
" transform="scale(0.015625)"/>
       <path id="DejaVuSans-74" d="M 1172 4494 
L 1172 3500 
L 2356 3500 
L 2356 3053 
L 1172 3053 
L 1172 1153 
Q 1172 725 1289 603 
Q 1406 481 1766 481 
L 2356 481 
L 2356 0 
L 1766 0 
Q 1100 0 847 248 
Q 594 497 594 1153 
L 594 3053 
L 172 3053 
L 172 3500 
L 594 3500 
L 594 4494 
L 1172 4494 
z
" transform="scale(0.015625)"/>
       <path id="DejaVuSans-69" d="M 603 3500 
L 1178 3500 
L 1178 0 
L 603 0 
L 603 3500 
z
M 603 4863 
L 1178 4863 
L 1178 4134 
L 603 4134 
L 603 4863 
z
" transform="scale(0.015625)"/>
       <path id="DejaVuSans-6e" d="M 3513 2113 
L 3513 0 
L 2938 0 
L 2938 2094 
Q 2938 2591 2744 2837 
Q 2550 3084 2163 3084 
Q 1697 3084 1428 2787 
Q 1159 2491 1159 1978 
L 1159 0 
L 581 0 
L 581 3500 
L 1159 3500 
L 1159 2956 
Q 1366 3272 1645 3428 
Q 1925 3584 2291 3584 
Q 2894 3584 3203 3211 
Q 3513 2838 3513 2113 
z
" transform="scale(0.015625)"/>
       <path id="DejaVuSans-28" d="M 1984 4856 
Q 1566 4138 1362 3434 
Q 1159 2731 1159 2009 
Q 1159 1288 1364 580 
Q 1569 -128 1984 -844 
L 1484 -844 
Q 1016 -109 783 600 
Q 550 1309 550 2009 
Q 550 2706 781 3412 
Q 1013 4119 1484 4856 
L 1984 4856 
z
" transform="scale(0.015625)"/>
       <path id="DejaVuSans-6d" d="M 3328 2828 
Q 3544 3216 3844 3400 
Q 4144 3584 4550 3584 
Q 5097 3584 5394 3201 
Q 5691 2819 5691 2113 
L 5691 0 
L 5113 0 
L 5113 2094 
Q 5113 2597 4934 2840 
Q 4756 3084 4391 3084 
Q 3944 3084 3684 2787 
Q 3425 2491 3425 1978 
L 3425 0 
L 2847 0 
L 2847 2094 
Q 2847 2600 2669 2842 
Q 2491 3084 2119 3084 
Q 1678 3084 1418 2786 
Q 1159 2488 1159 1978 
L 1159 0 
L 581 0 
L 581 3500 
L 1159 3500 
L 1159 2956 
Q 1356 3278 1631 3431 
Q 1906 3584 2284 3584 
Q 2666 3584 2933 3390 
Q 3200 3197 3328 2828 
z
" transform="scale(0.015625)"/>
       <path id="DejaVuSans-32" d="M 1228 531 
L 3431 531 
L 3431 0 
L 469 0 
L 469 531 
Q 828 903 1448 1529 
Q 2069 2156 2228 2338 
Q 2531 2678 2651 2914 
Q 2772 3150 2772 3378 
Q 2772 3750 2511 3984 
Q 2250 4219 1831 4219 
Q 1534 4219 1204 4116 
Q 875 4013 500 3803 
L 500 4441 
Q 881 4594 1212 4672 
Q 1544 4750 1819 4750 
Q 2544 4750 2975 4387 
Q 3406 4025 3406 3419 
Q 3406 3131 3298 2873 
Q 3191 2616 2906 2266 
Q 2828 2175 2409 1742 
Q 1991 1309 1228 531 
z
" transform="scale(0.015625)"/>
       <path id="DejaVuSans-29" d="M 513 4856 
L 1013 4856 
Q 1481 4119 1714 3412 
Q 1947 2706 1947 2009 
Q 1947 1309 1714 600 
Q 1481 -109 1013 -844 
L 513 -844 
Q 928 -128 1133 580 
Q 1338 1288 1338 2009 
Q 1338 2731 1133 3434 
Q 928 4138 513 4856 
z
" transform="scale(0.015625)"/>
      </defs>
      <use xlink:href="#DejaVuSans-63" transform="translate(0 0.765625)"/>
      <use xlink:href="#DejaVuSans-72" transform="translate(54.980469 0.765625)"/>
      <use xlink:href="#DejaVuSans-6f" transform="translate(96.09375 0.765625)"/>
      <use xlink:href="#DejaVuSans-73" transform="translate(157.275391 0.765625)"/>
      <use xlink:href="#DejaVuSans-73" transform="translate(209.375 0.765625)"/>
      <use xlink:href="#DejaVuSans-20" transform="translate(261.474609 0.765625)"/>
      <use xlink:href="#DejaVuSans-73" transform="translate(293.261719 0.765625)"/>
      <use xlink:href="#DejaVuSans-65" transform="translate(345.361328 0.765625)"/>
      <use xlink:href="#DejaVuSans-63" transform="translate(406.884766 0.765625)"/>
      <use xlink:href="#DejaVuSans-74" transform="translate(461.865234 0.765625)"/>
      <use xlink:href="#DejaVuSans-69" transform="translate(501.074219 0.765625)"/>
      <use xlink:href="#DejaVuSans-6f" transform="translate(528.857422 0.765625)"/>
      <use xlink:href="#DejaVuSans-6e" transform="translate(590.039062 0.765625)"/>
      <use xlink:href="#DejaVuSans-20" transform="translate(653.417969 0.765625)"/>
      <use xlink:href="#DejaVuSans-28" transform="translate(685.205078 0.765625)"/>
      <use xlink:href="#DejaVuSans-63" transform="translate(724.21875 0.765625)"/>
      <use xlink:href="#DejaVuSans-6d" transform="translate(779.199219 0.765625)"/>
      <use xlink:href="#DejaVuSans-32" transform="translate(877.568359 39.046875) scale(0.7)"/>
      <use xlink:href="#DejaVuSans-29" transform="translate(924.838867 0.765625)"/>
     </g>
    </g>
    <g id="text_6">
     <!-- 1e−17 -->
     <g transform="translate(213.930688 326.884563) scale(0.1 -0.1)">
      <defs>
       <path id="DejaVuSans-2212" d="M 678 2272 
L 4684 2272 
L 4684 1741 
L 678 1741 
L 678 2272 
z
" transform="scale(0.015625)"/>
       <path id="DejaVuSans-37" d="M 525 4666 
L 3525 4666 
L 3525 4397 
L 1831 0 
L 1172 0 
L 2766 4134 
L 525 4134 
L 525 4666 
z
" transform="scale(0.015625)"/>
      </defs>
      <use xlink:href="#DejaVuSans-31"/>
      <use xlink:href="#DejaVuSans-65" x="63.623047"/>
      <use xlink:href="#DejaVuSans-2212" x="125.146484"/>
      <use xlink:href="#DejaVuSans-31" x="208.935547"/>
      <use xlink:href="#DejaVuSans-37" x="272.558594"/>
     </g>
    </g>
   </g>
   <g id="matplotlib.axis_2">
    <g id="ytick_1">
     <g id="line2d_5">
      <defs>
       <path id="mab3e8b50a7" d="M 0 0 
L -3.5 0 
" style="stroke: #000000; stroke-width: 0.8"/>
      </defs>
      <g>
       <use xlink:href="#mab3e8b50a7" x="48.602" y="257.732428" style="stroke: #000000; stroke-width: 0.8"/>
      </g>
     </g>
     <g id="text_7">
      <!-- 5 -->
      <g transform="translate(35.2395 261.531647) scale(0.1 -0.1)">
       <use xlink:href="#DejaVuSans-35"/>
      </g>
     </g>
    </g>
    <g id="ytick_2">
     <g id="line2d_6">
      <g>
       <use xlink:href="#mab3e8b50a7" x="48.602" y="212.277762" style="stroke: #000000; stroke-width: 0.8"/>
      </g>
     </g>
     <g id="text_8">
      <!-- 6 -->
      <g transform="translate(35.2395 216.07698) scale(0.1 -0.1)">
       <defs>
        <path id="DejaVuSans-36" d="M 2113 2584 
Q 1688 2584 1439 2293 
Q 1191 2003 1191 1497 
Q 1191 994 1439 701 
Q 1688 409 2113 409 
Q 2538 409 2786 701 
Q 3034 994 3034 1497 
Q 3034 2003 2786 2293 
Q 2538 2584 2113 2584 
z
M 3366 4563 
L 3366 3988 
Q 3128 4100 2886 4159 
Q 2644 4219 2406 4219 
Q 1781 4219 1451 3797 
Q 1122 3375 1075 2522 
Q 1259 2794 1537 2939 
Q 1816 3084 2150 3084 
Q 2853 3084 3261 2657 
Q 3669 2231 3669 1497 
Q 3669 778 3244 343 
Q 2819 -91 2113 -91 
Q 1303 -91 875 529 
Q 447 1150 447 2328 
Q 447 3434 972 4092 
Q 1497 4750 2381 4750 
Q 2619 4750 2861 4703 
Q 3103 4656 3366 4563 
z
" transform="scale(0.015625)"/>
       </defs>
       <use xlink:href="#DejaVuSans-36"/>
      </g>
     </g>
    </g>
    <g id="ytick_3">
     <g id="line2d_7">
      <g>
       <use xlink:href="#mab3e8b50a7" x="48.602" y="166.823095" style="stroke: #000000; stroke-width: 0.8"/>
      </g>
     </g>
     <g id="text_9">
      <!-- 7 -->
      <g transform="translate(35.2395 170.622314) scale(0.1 -0.1)">
       <use xlink:href="#DejaVuSans-37"/>
      </g>
     </g>
    </g>
    <g id="ytick_4">
     <g id="line2d_8">
      <g>
       <use xlink:href="#mab3e8b50a7" x="48.602" y="121.368428" style="stroke: #000000; stroke-width: 0.8"/>
      </g>
     </g>
     <g id="text_10">
      <!-- 8 -->
      <g transform="translate(35.2395 125.167647) scale(0.1 -0.1)">
       <defs>
        <path id="DejaVuSans-38" d="M 2034 2216 
Q 1584 2216 1326 1975 
Q 1069 1734 1069 1313 
Q 1069 891 1326 650 
Q 1584 409 2034 409 
Q 2484 409 2743 651 
Q 3003 894 3003 1313 
Q 3003 1734 2745 1975 
Q 2488 2216 2034 2216 
z
M 1403 2484 
Q 997 2584 770 2862 
Q 544 3141 544 3541 
Q 544 4100 942 4425 
Q 1341 4750 2034 4750 
Q 2731 4750 3128 4425 
Q 3525 4100 3525 3541 
Q 3525 3141 3298 2862 
Q 3072 2584 2669 2484 
Q 3125 2378 3379 2068 
Q 3634 1759 3634 1313 
Q 3634 634 3220 271 
Q 2806 -91 2034 -91 
Q 1263 -91 848 271 
Q 434 634 434 1313 
Q 434 1759 690 2068 
Q 947 2378 1403 2484 
z
M 1172 3481 
Q 1172 3119 1398 2916 
Q 1625 2713 2034 2713 
Q 2441 2713 2670 2916 
Q 2900 3119 2900 3481 
Q 2900 3844 2670 4047 
Q 2441 4250 2034 4250 
Q 1625 4250 1398 4047 
Q 1172 3844 1172 3481 
z
" transform="scale(0.015625)"/>
       </defs>
       <use xlink:href="#DejaVuSans-38"/>
      </g>
     </g>
    </g>
    <g id="ytick_5">
     <g id="line2d_9">
      <g>
       <use xlink:href="#mab3e8b50a7" x="48.602" y="75.913762" style="stroke: #000000; stroke-width: 0.8"/>
      </g>
     </g>
     <g id="text_11">
      <!-- 9 -->
      <g transform="translate(35.2395 79.71298) scale(0.1 -0.1)">
       <defs>
        <path id="DejaVuSans-39" d="M 703 97 
L 703 672 
Q 941 559 1184 500 
Q 1428 441 1663 441 
Q 2288 441 2617 861 
Q 2947 1281 2994 2138 
Q 2813 1869 2534 1725 
Q 2256 1581 1919 1581 
Q 1219 1581 811 2004 
Q 403 2428 403 3163 
Q 403 3881 828 4315 
Q 1253 4750 1959 4750 
Q 2769 4750 3195 4129 
Q 3622 3509 3622 2328 
Q 3622 1225 3098 567 
Q 2575 -91 1691 -91 
Q 1453 -91 1209 -44 
Q 966 3 703 97 
z
M 1959 2075 
Q 2384 2075 2632 2365 
Q 2881 2656 2881 3163 
Q 2881 3666 2632 3958 
Q 2384 4250 1959 4250 
Q 1534 4250 1286 3958 
Q 1038 3666 1038 3163 
Q 1038 2656 1286 2365 
Q 1534 2075 1959 2075 
z
" transform="scale(0.015625)"/>
       </defs>
       <use xlink:href="#DejaVuSans-39"/>
      </g>
     </g>
    </g>
    <g id="ytick_6">
     <g id="line2d_10">
      <g>
       <use xlink:href="#mab3e8b50a7" x="48.602" y="30.459095" style="stroke: #000000; stroke-width: 0.8"/>
      </g>
     </g>
     <g id="text_12">
      <!-- 10 -->
      <g transform="translate(28.877 34.258314) scale(0.1 -0.1)">
       <use xlink:href="#DejaVuSans-31"/>
       <use xlink:href="#DejaVuSans-30" x="63.623047"/>
      </g>
     </g>
    </g>
    <g id="text_13">
     <!-- wavenumber above $X$min. ($10^4$cm$^{-1}$) -->
     <g transform="translate(22.797313 256.144) rotate(-90) scale(0.1 -0.1)">
      <defs>
       <path id="DejaVuSans-77" d="M 269 3500 
L 844 3500 
L 1563 769 
L 2278 3500 
L 2956 3500 
L 3675 769 
L 4391 3500 
L 4966 3500 
L 4050 0 
L 3372 0 
L 2619 2869 
L 1863 0 
L 1184 0 
L 269 3500 
z
" transform="scale(0.015625)"/>
       <path id="DejaVuSans-61" d="M 2194 1759 
Q 1497 1759 1228 1600 
Q 959 1441 959 1056 
Q 959 750 1161 570 
Q 1363 391 1709 391 
Q 2188 391 2477 730 
Q 2766 1069 2766 1631 
L 2766 1759 
L 2194 1759 
z
M 3341 1997 
L 3341 0 
L 2766 0 
L 2766 531 
Q 2569 213 2275 61 
Q 1981 -91 1556 -91 
Q 1019 -91 701 211 
Q 384 513 384 1019 
Q 384 1609 779 1909 
Q 1175 2209 1959 2209 
L 2766 2209 
L 2766 2266 
Q 2766 2663 2505 2880 
Q 2244 3097 1772 3097 
Q 1472 3097 1187 3025 
Q 903 2953 641 2809 
L 641 3341 
Q 956 3463 1253 3523 
Q 1550 3584 1831 3584 
Q 2591 3584 2966 3190 
Q 3341 2797 3341 1997 
z
" transform="scale(0.015625)"/>
       <path id="DejaVuSans-76" d="M 191 3500 
L 800 3500 
L 1894 563 
L 2988 3500 
L 3597 3500 
L 2284 0 
L 1503 0 
L 191 3500 
z
" transform="scale(0.015625)"/>
       <path id="DejaVuSans-75" d="M 544 1381 
L 544 3500 
L 1119 3500 
L 1119 1403 
Q 1119 906 1312 657 
Q 1506 409 1894 409 
Q 2359 409 2629 706 
Q 2900 1003 2900 1516 
L 2900 3500 
L 3475 3500 
L 3475 0 
L 2900 0 
L 2900 538 
Q 2691 219 2414 64 
Q 2138 -91 1772 -91 
Q 1169 -91 856 284 
Q 544 659 544 1381 
z
M 1991 3584 
L 1991 3584 
z
" transform="scale(0.015625)"/>
       <path id="DejaVuSans-62" d="M 3116 1747 
Q 3116 2381 2855 2742 
Q 2594 3103 2138 3103 
Q 1681 3103 1420 2742 
Q 1159 2381 1159 1747 
Q 1159 1113 1420 752 
Q 1681 391 2138 391 
Q 2594 391 2855 752 
Q 3116 1113 3116 1747 
z
M 1159 2969 
Q 1341 3281 1617 3432 
Q 1894 3584 2278 3584 
Q 2916 3584 3314 3078 
Q 3713 2572 3713 1747 
Q 3713 922 3314 415 
Q 2916 -91 2278 -91 
Q 1894 -91 1617 61 
Q 1341 213 1159 525 
L 1159 0 
L 581 0 
L 581 4863 
L 1159 4863 
L 1159 2969 
z
" transform="scale(0.015625)"/>
       <path id="DejaVuSans-Oblique-58" d="M 878 4666 
L 1516 4666 
L 2316 2981 
L 3763 4666 
L 4500 4666 
L 2578 2438 
L 3738 0 
L 3103 0 
L 2163 1966 
L 459 0 
L -275 0 
L 1906 2509 
L 878 4666 
z
" transform="scale(0.015625)"/>
       <path id="DejaVuSans-34" d="M 2419 4116 
L 825 1625 
L 2419 1625 
L 2419 4116 
z
M 2253 4666 
L 3047 4666 
L 3047 1625 
L 3713 1625 
L 3713 1100 
L 3047 1100 
L 3047 0 
L 2419 0 
L 2419 1100 
L 313 1100 
L 313 1709 
L 2253 4666 
z
" transform="scale(0.015625)"/>
      </defs>
      <use xlink:href="#DejaVuSans-77" transform="translate(0 0.684375)"/>
      <use xlink:href="#DejaVuSans-61" transform="translate(81.787109 0.684375)"/>
      <use xlink:href="#DejaVuSans-76" transform="translate(143.066406 0.684375)"/>
      <use xlink:href="#DejaVuSans-65" transform="translate(202.246094 0.684375)"/>
      <use xlink:href="#DejaVuSans-6e" transform="translate(263.769531 0.684375)"/>
      <use xlink:href="#DejaVuSans-75" transform="translate(327.148438 0.684375)"/>
      <use xlink:href="#DejaVuSans-6d" transform="translate(390.527344 0.684375)"/>
      <use xlink:href="#DejaVuSans-62" transform="translate(487.939453 0.684375)"/>
      <use xlink:href="#DejaVuSans-65" transform="translate(551.416016 0.684375)"/>
      <use xlink:href="#DejaVuSans-72" transform="translate(612.939453 0.684375)"/>
      <use xlink:href="#DejaVuSans-20" transform="translate(654.052734 0.684375)"/>
      <use xlink:href="#DejaVuSans-61" transform="translate(685.839844 0.684375)"/>
      <use xlink:href="#DejaVuSans-62" transform="translate(747.119141 0.684375)"/>
      <use xlink:href="#DejaVuSans-6f" transform="translate(810.595703 0.684375)"/>
      <use xlink:href="#DejaVuSans-76" transform="translate(871.777344 0.684375)"/>
      <use xlink:href="#DejaVuSans-65" transform="translate(930.957031 0.684375)"/>
      <use xlink:href="#DejaVuSans-20" transform="translate(992.480469 0.684375)"/>
      <use xlink:href="#DejaVuSans-Oblique-58" transform="translate(1024.267578 0.684375)"/>
      <use xlink:href="#DejaVuSans-6d" transform="translate(1092.773438 0.684375)"/>
      <use xlink:href="#DejaVuSans-69" transform="translate(1190.185547 0.684375)"/>
      <use xlink:href="#DejaVuSans-6e" transform="translate(1217.96875 0.684375)"/>
      <use xlink:href="#DejaVuSans-2e" transform="translate(1281.347656 0.684375)"/>
      <use xlink:href="#DejaVuSans-20" transform="translate(1313.134766 0.684375)"/>
      <use xlink:href="#DejaVuSans-28" transform="translate(1344.921875 0.684375)"/>
      <use xlink:href="#DejaVuSans-31" transform="translate(1383.935547 0.684375)"/>
      <use xlink:href="#DejaVuSans-30" transform="translate(1447.558594 0.684375)"/>
      <use xlink:href="#DejaVuSans-34" transform="translate(1512.138672 38.965625) scale(0.7)"/>
      <use xlink:href="#DejaVuSans-63" transform="translate(1559.40918 0.684375)"/>
      <use xlink:href="#DejaVuSans-6d" transform="translate(1614.389648 0.684375)"/>
      <use xlink:href="#DejaVuSans-2212" transform="translate(1712.758789 38.965625) scale(0.7)"/>
      <use xlink:href="#DejaVuSans-31" transform="translate(1771.411133 38.965625) scale(0.7)"/>
      <use xlink:href="#DejaVuSans-29" transform="translate(1818.681641 0.684375)"/>
     </g>
    </g>
    <g id="text_14">
     <!-- 1e4 -->
     <g transform="translate(48.602 23.88) scale(0.1 -0.1)">
      <use xlink:href="#DejaVuSans-31"/>
      <use xlink:href="#DejaVuSans-65" x="63.623047"/>
      <use xlink:href="#DejaVuSans-34" x="125.146484"/>
     </g>
    </g>
   </g>
   <g id="line2d_11">
    <path d="M 227.752216 223.641428 
L 224.887513 221.277786 
L 222.678697 219.777782 
L 219.885542 218.141414 
L 216.568298 216.459591 
L 212.663065 214.732314 
L 208.116462 212.959582 
L 202.465152 211.005031 
L 195.697222 208.914116 
L 187.553607 206.641383 
L 177.76338 204.141376 
L 164.885425 201.095914 
L 147.544314 197.232267 
L 111.587236 189.2777 
L 100.627801 186.595875 
L 92.293025 184.323142 
L 86.011079 182.368591 
L 80.879115 180.50495 
L 76.940357 178.777672 
L 74.795779 177.641306 
L 72.650035 176.232211 
L 71.426676 175.186754 
L 70.496877 174.095842 
L 69.918077 172.959475 
L 69.729931 171.959472 
L 69.870456 170.914015 
L 70.392882 169.823103 
L 71.261054 168.777646 
L 72.636951 167.641279 
L 74.222496 166.641276 
L 76.879016 165.323091 
L 79.116143 164.413998 
L 82.814223 163.141267 
L 86.421783 162.09581 
L 90.802468 161.004898 
L 95.959602 159.913986 
L 102.172345 158.823074 
L 109.275389 157.823071 
L 117.260313 156.959432 
L 125.616067 156.277612 
L 136.242665 155.641247 
L 150.140096 155.050336 
L 169.993512 154.459426 
L 203.453994 153.732151 
L 229.757932 153.095786 
L 234.60348 152.823058 
L 235.111961 152.686694 
L 234.784232 152.595784 
L 232.749993 152.413966 
L 225.001853 152.050328 
L 202.296638 151.050326 
L 196.125255 150.550324 
L 193.573752 150.141232 
L 192.886725 149.868504 
L 192.799158 149.686686 
L 192.972102 149.504867 
L 193.681691 149.232139 
L 195.559883 148.823047 
L 199.297647 148.277591 
L 206.303174 147.504862 
L 231.74176 144.868491 
L 234.133332 144.36849 
L 234.978322 144.004852 
L 235.116559 143.777579 
L 235.018562 143.59576 
L 234.547173 143.323032 
L 233.388766 142.959395 
L 230.577454 142.368484 
L 221.493911 140.595752 
L 219.906958 140.050296 
L 219.25562 139.641204 
L 219.056009 139.277567 
L 219.13664 139.004839 
L 219.514529 138.641202 
L 220.391438 138.186655 
L 222.073457 137.595744 
L 225.279537 136.732106 
L 232.910513 134.7321 
L 234.416984 134.095735 
L 234.994113 133.641188 
L 235.116682 133.323006 
L 234.995497 133.004823 
L 234.556243 132.641186 
L 233.572334 132.186639 
L 231.656791 131.595728 
L 227.957611 130.73209 
L 220.211005 128.959358 
L 218.245715 128.277538 
L 217.385558 127.777536 
L 217.101 127.413899 
L 217.088913 127.095716 
L 217.312266 126.777534 
L 217.930271 126.368442 
L 219.065259 125.913895 
L 221.015791 125.368439 
L 224.549043 124.641164 
L 231.219271 123.550252 
L 234.576936 122.913887 
L 235.116611 122.641159 
L 235.043872 122.55025 
L 234.584103 122.413886 
L 233.050932 122.232067 
L 228.773544 122.004794 
L 219.836977 121.77752 
L 201.858302 121.550247 
L 164.922386 121.322974 
L 83.44223 121.0957 
L -1 120.974588 
M -1 119.054386 
L 73.727445 118.686603 
L 125.067941 118.232056 
L 161.228697 117.6866 
L 186.113139 117.09569 
L 204.389082 116.459324 
L 218.018218 115.777504 
L 226.683257 115.141139 
L 231.509273 114.595683 
L 233.90991 114.141136 
L 234.881225 113.777499 
L 235.114868 113.504771 
L 235.018164 113.277498 
L 234.589349 113.00477 
L 233.55767 112.641132 
L 231.227263 112.095676 
L 226.823026 111.322947 
L 219.246856 110.232035 
L 212.233725 109.413851 
L 205.794234 108.868395 
L 198.537813 108.459303 
L 187.659547 108.095666 
L 172.662409 107.822938 
L 148.050092 107.595664 
L 106.086746 107.413846 
L -1 107.234742 
M -1 106.80839 
L 187.92511 106.641116 
L 228.405819 106.413843 
L 234.634673 106.18657 
L 235.116687 106.050206 
L 235.081232 106.004751 
L 234.491763 105.822932 
L 229.612099 104.641111 
L 228.466798 104.095655 
L 227.881893 103.595654 
L 227.641475 103.095652 
L 227.664563 102.641106 
L 227.939111 102.09565 
L 228.56413 101.459284 
L 229.641047 100.73201 
L 231.288425 99.913826 
L 235.11318 98.141094 
L 234.968205 98.00473 
L 234.287089 97.822911 
L 232.627634 97.641092 
L 227.780538 97.413819 
L 216.028603 97.186546 
L 187.775175 96.959272 
L 112.964029 96.686544 
L 62.049043 96.459271 
L 62.127329 96.413816 
L 79.379617 96.277452 
L 164.825706 95.731996 
L 188.926266 95.368359 
L 203.179702 94.959267 
L 213.039387 94.459266 
L 220.209387 93.868355 
L 225.768819 93.186535 
L 230.224045 92.413806 
L 232.974981 91.731986 
L 234.393699 91.18653 
L 234.969579 90.777438 
L 235.11633 90.459255 
L 235.031124 90.186527 
L 234.691448 89.868344 
L 233.896968 89.459252 
L 232.283368 88.913796 
L 229.520614 88.231976 
L 225.441083 87.459247 
L 220.915703 86.822882 
L 215.785265 86.32288 
L 209.402096 85.913788 
L 199.091678 85.504696 
L 179.969831 84.868331 
L 180.456784 84.822876 
L 185.558506 84.686512 
L 230.626347 83.868328 
L 233.768828 83.5956 
L 234.868917 83.322872 
L 235.108081 83.095599 
L 235.067876 82.868326 
L 234.670253 82.413779 
L 233.417808 81.095594 
L 232.902949 80.1865 
L 232.620997 79.231952 
L 232.53558 78.186495 
L 232.661283 77.141038 
L 232.930808 76.504672 
L 233.295971 76.18649 
L 233.843304 76.004671 
L 234.103919 75.959216 
L 234.103919 75.959216 
" clip-path="url(#pdb046cb312)" style="fill: none; stroke: #1f77b4; stroke-width: 1.5; stroke-linecap: square"/>
   </g>
   <g id="line2d_12">
    <path d="M 235.35613 86.978908 
L 234.912001 87.327138 
L 235.051603 88.021773 
L 234.294055 88.368182 
L 234.0017 88.713986 
L 233.047941 89.059188 
L 231.926453 89.747791 
L 218.402485 90.434002 
L 229.353272 90.776216 
L 232.291562 91.117836 
L 234.209618 91.458864 
L 234.794431 91.799303 
L 234.919168 92.139153 
L 234.712049 92.478416 
L 234.729277 92.817093 
L 233.955632 93.492698 
L 233.434064 93.829629 
L 234.067203 94.16598 
L 234.996175 94.501753 
L 234.936627 95.505619 
L 234.060326 96.172001 
L 232.138446 96.504337 
L 228.327366 96.836106 
L 221.997866 97.167309 
L 218.267324 97.497947 
L 220.112203 97.828022 
L 228.523169 98.814881 
L 230.779065 99.142717 
L 232.531743 99.796722 
L 234.023131 101.098104 
L 234.614448 101.422077 
L 234.71665 101.745503 
L 235.139004 102.068385 
L 234.858203 102.390722 
L 234.994353 102.712518 
L 233.859976 103.354488 
L 233.390792 103.674666 
L 230.104503 104.631982 
L 228.0205 104.95002 
L 220.17052 105.900952 
L 213.884975 106.216873 
L 191.321049 106.847137 
L 166.213561 107.161484 
L 66.573312 107.788611 
L 50.007077 108.101395 
L 184.387179 109.036641 
L 212.287663 109.34736 
L 223.710718 109.657565 
L 229.67721 109.967258 
L 231.541524 110.27644 
L 234.363995 110.585114 
L 235.262511 110.893279 
L 234.76058 111.200937 
L 234.754149 111.50809 
L 233.087681 112.731669 
L 232.437951 113.036313 
L 232.060719 113.340458 
L 231.915548 113.644106 
L 230.455213 115.154934 
L 230.352953 115.755829 
L 229.690689 116.055545 
L 228.591135 116.354775 
L 228.866058 116.65352 
L 229.666417 116.951781 
L 229.83111 117.249559 
L 230.475195 117.546856 
L 232.252369 118.14001 
L 232.001395 118.435869 
L 229.143331 118.731252 
L 214.662368 119.026159 
L 139.7807 119.320591 
L 122.429238 119.614551 
L 200.030166 120.201053 
L 209.267244 120.493599 
L 214.905583 120.785676 
L 217.797804 121.077286 
L 224.553553 122.239068 
L 228.870522 123.680907 
L 229.477702 123.967901 
L 230.59107 124.254439 
L 230.796684 124.540522 
L 230.802491 124.826153 
L 231.326137 125.11133 
L 232.364091 125.396057 
L 232.846269 125.680334 
L 234.044388 126.24754 
L 234.190558 126.812959 
L 234.667167 127.095001 
L 234.980222 127.657753 
L 234.831728 127.938467 
L 234.827524 128.218739 
L 233.037384 129.891178 
L 232.228943 130.445179 
L 232.007923 130.721532 
L 230.688033 131.272947 
L 230.081674 132.096859 
L 230.066243 132.370644 
L 229.816524 132.644005 
L 229.900506 133.189456 
L 229.435177 133.461549 
L 229.271951 133.733222 
L 228.881912 134.004475 
L 229.706444 134.275309 
L 230.632986 135.623235 
L 231.564043 135.891578 
L 231.649902 136.159509 
L 233.367515 137.227134 
L 233.635189 137.49302 
L 234.476896 138.023573 
L 234.465745 138.288243 
L 234.806768 138.55251 
L 234.829801 138.816374 
L 234.415796 139.342897 
L 234.455185 139.605559 
L 233.329752 139.867822 
L 233.405875 140.129687 
L 233.06336 140.391155 
L 229.857819 141.173185 
L 229.097448 141.433073 
L 229.174479 141.692569 
L 227.981382 141.951674 
L 224.579117 142.468711 
L 223.775028 142.726645 
L 220.894445 143.241351 
L 220.403539 143.498123 
L 218.869393 143.75451 
L 219.09806 144.010513 
L 218.383211 144.266132 
L 215.777477 144.776221 
L 215.825971 145.030693 
L 216.151625 145.284785 
L 214.128314 145.538498 
L 213.771574 145.791831 
L 216.579117 146.044787 
L 211.609868 146.549569 
L 216.060482 146.801397 
L 220.286034 147.554636 
L 225.02776 148.054934 
L 226.981912 148.304527 
L 233.021842 148.802606 
L 231.027204 149.051093 
L 232.771887 149.299213 
L 232.662589 149.546967 
L 233.928544 149.794356 
L 231.458351 150.04138 
L 227.797988 150.28804 
L 225.894295 150.534337 
L 218.783099 150.780272 
L 201.502016 151.271058 
L 197.870575 151.515911 
L 172.269569 152.248319 
L 169.393264 152.491741 
L 145.799902 153.219874 
L 138.007442 153.703527 
L 132.45117 154.185771 
L 122.864439 154.666614 
L 123.952442 154.906512 
L 122.970877 155.146062 
L 114.898646 155.624119 
L 112.937009 155.862629 
L 105.57602 156.338613 
L 107.286981 156.576089 
L 105.036371 156.813223 
L 104.700644 157.050014 
L 101.512487 157.522572 
L 97.37186 157.758342 
L 96.477833 157.993771 
L 96.597203 158.228863 
L 92.45036 158.463616 
L 90.960729 158.698033 
L 91.170869 158.932113 
L 89.819259 159.165857 
L 86.118808 159.399267 
L 85.699771 159.632342 
L 84.775902 159.865085 
L 88.164252 160.097494 
L 81.627534 160.329571 
L 81.311702 160.561317 
L 80.298306 160.792733 
L 78.684332 161.023818 
L 75.99106 161.254575 
L 76.137785 161.485003 
L 76.790586 161.715103 
L 78.091216 161.944876 
L 77.287959 162.174322 
L 72.761869 162.403443 
L 72.960818 162.632239 
L 69.362328 162.860711 
L 69.47175 163.088859 
L 68.588914 163.544187 
L 66.146815 163.998229 
L 71.872816 164.224769 
L 67.287041 164.45099 
L 68.953239 164.676892 
L 63.83652 164.902475 
L 65.481579 165.127742 
L 65.680528 165.352691 
L 68.023153 165.577324 
L 66.058531 165.801642 
L 61.738851 166.025645 
L 61.844543 166.249333 
L 63.153876 166.472709 
L 62.596819 166.695771 
L 62.966118 166.918521 
L 63.92729 167.14096 
L 61.496382 167.363088 
L 62.391653 167.584905 
L 59.65486 167.806413 
L 59.882408 168.027612 
L 62.180269 168.248503 
L 60.243003 168.469086 
L 61.522494 168.909331 
L 60.28155 169.128995 
L 63.28941 169.348354 
L 60.893318 169.786159 
L 61.204176 170.004607 
L 63.027046 170.440594 
L 61.874385 170.658136 
L 62.465015 170.875377 
L 61.886819 171.308959 
L 66.347007 171.741346 
L 64.907114 171.957093 
L 62.069604 172.172543 
L 65.074977 172.387697 
L 64.460722 172.602554 
L 62.845505 172.817117 
L 62.713701 173.031385 
L 65.244084 173.245359 
L 65.333611 173.45904 
L 65.005345 173.672428 
L 63.250864 173.885524 
L 67.405167 174.098329 
L 67.826691 174.310843 
L 64.318971 174.734999 
L 71.742256 175.158 
L 71.121783 175.369068 
L 70.076058 175.579848 
L 71.722361 176.00055 
L 72.01208 176.210472 
L 75.484984 176.629461 
L 74.277612 176.83853 
L 75.184073 177.047315 
L 74.500186 177.255818 
L 74.878189 177.464039 
L 77.784088 177.671978 
L 76.697329 177.879636 
L 80.52461 178.294111 
L 79.543543 178.500929 
L 81.802858 178.707469 
L 82.409652 178.91373 
L 83.552366 179.119714 
L 80.636519 179.325421 
L 84.186516 179.736006 
L 82.325099 179.940885 
L 85.880069 180.145489 
L 84.563275 180.349819 
L 85.207373 180.553875 
L 89.233603 180.757658 
L 90.230835 180.961169 
L 79.75617 181.367374 
L 84.977338 181.57007 
L 95.990408 181.772495 
L 94.076768 182.176537 
L 93.930043 182.378154 
L 94.929762 182.579503 
L 101.582119 182.780584 
L 101.523677 182.981398 
L 98.693628 183.181946 
L 98.791859 183.382227 
L 107.048242 184.180701 
L 103.802887 184.379659 
L 108.437155 184.974959 
L 107.167612 185.172868 
L 110.291111 185.567905 
L 109.956628 185.765033 
L 108.501814 185.961902 
L 115.880335 186.550958 
L 115.766312 186.746794 
L 116.381437 186.942374 
L 118.054972 187.137697 
L 119.673049 187.527577 
L 121.04045 187.722134 
L 120.872587 187.916437 
L 124.190807 188.304282 
L 122.157176 188.497825 
L 125.797072 188.691116 
L 124.309058 188.884155 
L 129.173858 189.269479 
L 129.065555 189.461765 
L 133.299687 190.228416 
L 132.534355 190.419458 
L 135.421727 190.800799 
L 134.25601 190.9911 
L 137.66438 191.181155 
L 136.065825 191.370964 
L 136.971416 191.560528 
L 139.913623 191.749848 
L 139.998798 191.938923 
L 139.84312 192.127755 
L 142.963884 192.316343 
L 141.898263 192.504689 
L 146.530666 193.068275 
L 146.084523 193.255655 
L 149.645835 193.816353 
L 151.338269 194.002774 
L 150.308583 194.188956 
L 151.002418 194.374901 
L 153.832468 194.560607 
L 154.065362 194.746077 
L 154.92992 195.116306 
L 158.921707 195.301067 
L 158.184353 195.485592 
L 160.170112 195.853938 
L 160.386221 196.03776 
L 161.598939 196.404704 
L 163.81635 196.770716 
L 162.712059 196.953375 
L 166.659207 197.499964 
L 166.319502 197.681699 
L 166.631727 197.863205 
L 170.614313 198.22553 
L 169.963999 198.40635 
L 172.061667 198.586942 
L 173.583876 199.127355 
L 173.598424 199.30704 
L 177.017735 200.023526 
L 179.398782 200.202086 
L 177.271395 200.380423 
L 178.574138 200.558536 
L 181.25336 200.736427 
L 180.208629 200.914095 
L 183.213505 201.268766 
L 182.436982 201.44577 
L 182.661421 201.622553 
L 183.657534 201.799116 
L 183.112289 201.975459 
L 185.637823 202.151582 
L 185.774103 202.327486 
L 184.640466 202.503172 
L 188.488762 202.853889 
L 187.807859 203.028921 
L 190.744097 203.203737 
L 189.961109 203.378335 
L 190.235037 203.552717 
L 192.32885 203.726884 
L 192.370878 203.900835 
L 192.056415 204.074571 
L 194.382626 204.4214 
L 193.824325 204.594493 
L 193.925416 204.767373 
L 195.507185 204.94004 
L 195.456577 205.112494 
L 197.676227 205.284736 
L 197.083607 205.456766 
L 197.309041 205.628585 
L 199.717816 205.971589 
L 199.767678 206.313753 
L 199.737338 206.48452 
L 201.983721 206.825427 
L 202.14947 206.995568 
L 202.55284 207.165501 
L 202.416311 207.335226 
L 203.895497 207.504744 
L 203.390788 207.674055 
L 203.958041 208.012059 
L 206.367811 208.349239 
L 206.404865 208.517522 
L 206.788464 208.6856 
L 206.61886 208.853473 
L 208.384656 209.18861 
L 208.596661 209.355873 
L 209.280051 209.689792 
L 210.704526 209.856448 
L 210.13491 210.022902 
L 211.557271 210.355208 
L 210.657524 210.52106 
L 212.81923 210.852163 
L 212.812639 211.182469 
L 213.927127 211.347323 
L 213.592644 211.511979 
L 214.484308 211.676437 
L 214.46976 211.840698 
L 215.486887 212.004761 
L 214.678905 212.168627 
L 216.390737 212.332296 
L 215.09732 212.49577 
L 216.41573 212.822129 
L 216.438112 212.985016 
L 217.299685 213.147707 
L 216.978134 213.310205 
L 217.374291 213.472508 
L 216.703336 213.634617 
L 218.660745 213.958256 
L 218.572959 214.119786 
L 220.027152 214.281124 
L 218.196821 214.44227 
L 218.196199 214.603224 
L 221.043035 215.084938 
L 218.778623 215.245129 
L 220.294987 215.405129 
L 220.208942 215.56494 
L 222.27627 215.724561 
L 221.897646 215.883993 
L 220.140802 216.043237 
L 223.080149 216.202292 
L 223.652139 216.678332 
L 224.424447 216.836637 
L 224.376451 216.994755 
L 225.028991 217.467994 
L 224.99124 217.62537 
L 225.516229 217.939565 
L 225.394112 218.096386 
L 226.272832 218.565746 
L 226.304876 218.877737 
L 227.009466 219.188998 
L 227.219942 219.499531 
L 227.66039 219.80934 
L 228.543263 220.426794 
L 228.934534 220.734444 
L 228.564116 220.888001 
L 228.990899 221.19458 
L 229.528596 221.347602 
L 229.275682 221.500448 
L 229.725878 221.653116 
L 230.28357 222.413811 
L 230.13166 222.565423 
L 230.524907 222.71686 
L 230.486386 222.868122 
L 230.770684 223.170124 
L 230.807825 223.320864 
L 231.072054 223.471431 
L 230.895064 223.621825 
L 231.048342 223.772045 
L 231.000532 223.922093 
L 231.490282 224.071969 
L 231.591286 224.221673 
L 231.29678 224.371205 
L 231.486751 224.520566 
L 231.486751 224.520566 
" clip-path="url(#pdb046cb312)" style="fill: none; stroke: #2ca02c; stroke-width: 1.5; stroke-linecap: square"/>
   </g>
   <g id="patch_3">
    <path d="M 48.602 299.608 
L 48.602 26.88 
" style="fill: none; stroke: #000000; stroke-width: 0.8; stroke-linejoin: miter; stroke-linecap: square"/>
   </g>
   <g id="patch_4">
    <path d="M 247.551 299.608 
L 247.551 26.88 
" style="fill: none; stroke: #000000; stroke-width: 0.8; stroke-linejoin: miter; stroke-linecap: square"/>
   </g>
   <g id="patch_5">
    <path d="M 48.602 299.608 
L 247.551 299.608 
" style="fill: none; stroke: #000000; stroke-width: 0.8; stroke-linejoin: miter; stroke-linecap: square"/>
   </g>
   <g id="patch_6">
    <path d="M 48.602 26.88 
L 247.551 26.88 
" style="fill: none; stroke: #000000; stroke-width: 0.8; stroke-linejoin: miter; stroke-linecap: square"/>
   </g>
   <g id="text_15">
    <!-- photodissociation -->
    <g transform="translate(95.236188 20.88) scale(0.12 -0.12)">
     <defs>
      <path id="DejaVuSans-70" d="M 1159 525 
L 1159 -1331 
L 581 -1331 
L 581 3500 
L 1159 3500 
L 1159 2969 
Q 1341 3281 1617 3432 
Q 1894 3584 2278 3584 
Q 2916 3584 3314 3078 
Q 3713 2572 3713 1747 
Q 3713 922 3314 415 
Q 2916 -91 2278 -91 
Q 1894 -91 1617 61 
Q 1341 213 1159 525 
z
M 3116 1747 
Q 3116 2381 2855 2742 
Q 2594 3103 2138 3103 
Q 1681 3103 1420 2742 
Q 1159 2381 1159 1747 
Q 1159 1113 1420 752 
Q 1681 391 2138 391 
Q 2594 391 2855 752 
Q 3116 1113 3116 1747 
z
" transform="scale(0.015625)"/>
      <path id="DejaVuSans-68" d="M 3513 2113 
L 3513 0 
L 2938 0 
L 2938 2094 
Q 2938 2591 2744 2837 
Q 2550 3084 2163 3084 
Q 1697 3084 1428 2787 
Q 1159 2491 1159 1978 
L 1159 0 
L 581 0 
L 581 4863 
L 1159 4863 
L 1159 2956 
Q 1366 3272 1645 3428 
Q 1925 3584 2291 3584 
Q 2894 3584 3203 3211 
Q 3513 2838 3513 2113 
z
" transform="scale(0.015625)"/>
      <path id="DejaVuSans-64" d="M 2906 2969 
L 2906 4863 
L 3481 4863 
L 3481 0 
L 2906 0 
L 2906 525 
Q 2725 213 2448 61 
Q 2172 -91 1784 -91 
Q 1150 -91 751 415 
Q 353 922 353 1747 
Q 353 2572 751 3078 
Q 1150 3584 1784 3584 
Q 2172 3584 2448 3432 
Q 2725 3281 2906 2969 
z
M 947 1747 
Q 947 1113 1208 752 
Q 1469 391 1925 391 
Q 2381 391 2643 752 
Q 2906 1113 2906 1747 
Q 2906 2381 2643 2742 
Q 2381 3103 1925 3103 
Q 1469 3103 1208 2742 
Q 947 2381 947 1747 
z
" transform="scale(0.015625)"/>
     </defs>
     <use xlink:href="#DejaVuSans-70"/>
     <use xlink:href="#DejaVuSans-68" x="63.476562"/>
     <use xlink:href="#DejaVuSans-6f" x="126.855469"/>
     <use xlink:href="#DejaVuSans-74" x="188.037109"/>
     <use xlink:href="#DejaVuSans-6f" x="227.246094"/>
     <use xlink:href="#DejaVuSans-64" x="288.427734"/>
     <use xlink:href="#DejaVuSans-69" x="351.904297"/>
     <use xlink:href="#DejaVuSans-73" x="379.6875"/>
     <use xlink:href="#DejaVuSans-73" x="431.787109"/>
     <use xlink:href="#DejaVuSans-6f" x="483.886719"/>
     <use xlink:href="#DejaVuSans-63" x="545.068359"/>
     <use xlink:href="#DejaVuSans-69" x="600.048828"/>
     <use xlink:href="#DejaVuSans-61" x="627.832031"/>
     <use xlink:href="#DejaVuSans-74" x="689.111328"/>
     <use xlink:href="#DejaVuSans-69" x="728.320312"/>
     <use xlink:href="#DejaVuSans-6f" x="756.103516"/>
     <use xlink:href="#DejaVuSans-6e" x="817.285156"/>
    </g>
   </g>
   <g id="legend_1">
    <g id="patch_7">
     <path d="M 163.6679 57.516178 
L 241.72 57.516178 
Q 243.386 57.516178 243.386 55.850178 
L 243.386 32.711 
Q 243.386 31.045 241.72 31.045 
L 163.6679 31.045 
Q 162.0019 31.045 162.0019 32.711 
L 162.0019 55.850178 
Q 162.0019 57.516178 163.6679 57.516178 
z
" style="fill: #ffffff; opacity: 0.8; stroke: #cccccc; stroke-linejoin: miter"/>
    </g>
    <g id="line2d_13">
     <path d="M 165.3339 37.790998 
L 173.6639 37.790998 
L 181.9939 37.790998 
" style="fill: none; stroke: #1f77b4; stroke-width: 1.5; stroke-linecap: square"/>
    </g>
    <g id="text_16">
     <!-- B³Σ₁⁻ -->
     <g transform="translate(188.6579 40.706498) scale(0.0833 -0.0833)">
      <defs>
       <path id="DejaVuSans-42" d="M 1259 2228 
L 1259 519 
L 2272 519 
Q 2781 519 3026 730 
Q 3272 941 3272 1375 
Q 3272 1813 3026 2020 
Q 2781 2228 2272 2228 
L 1259 2228 
z
M 1259 4147 
L 1259 2741 
L 2194 2741 
Q 2656 2741 2882 2914 
Q 3109 3088 3109 3444 
Q 3109 3797 2882 3972 
Q 2656 4147 2194 4147 
L 1259 4147 
z
M 628 4666 
L 2241 4666 
Q 2963 4666 3353 4366 
Q 3744 4066 3744 3513 
Q 3744 3084 3544 2831 
Q 3344 2578 2956 2516 
Q 3422 2416 3680 2098 
Q 3938 1781 3938 1306 
Q 3938 681 3513 340 
Q 3088 0 2303 0 
L 628 0 
L 628 4666 
z
" transform="scale(0.015625)"/>
       <path id="DejaVuSans-b3" d="M 1638 3500 
Q 1925 3444 2083 3273 
Q 2241 3103 2241 2847 
Q 2241 2459 1944 2250 
Q 1647 2041 1094 2041 
Q 916 2041 720 2073 
Q 525 2106 306 2169 
L 306 2547 
Q 469 2463 655 2422 
Q 841 2381 1050 2381 
Q 1391 2381 1578 2504 
Q 1766 2628 1766 2847 
Q 1766 3078 1592 3197 
Q 1419 3316 1081 3316 
L 813 3316 
L 813 3653 
L 1106 3653 
Q 1400 3653 1551 3751 
Q 1703 3850 1703 4038 
Q 1703 4219 1547 4314 
Q 1391 4409 1094 4409 
Q 969 4409 809 4381 
Q 650 4353 397 4281 
L 397 4641 
Q 625 4694 825 4722 
Q 1025 4750 1197 4750 
Q 1647 4750 1911 4565 
Q 2175 4381 2175 4072 
Q 2175 3856 2034 3706 
Q 1894 3556 1638 3500 
z
" transform="scale(0.015625)"/>
       <path id="DejaVuSans-3a3" d="M 1353 531 
L 3634 531 
L 3634 0 
L 628 0 
L 628 531 
L 2125 2481 
L 628 4134 
L 628 4666 
L 3578 4666 
L 3578 4134 
L 1353 4134 
L 2850 2494 
L 1353 531 
z
" transform="scale(0.015625)"/>
       <path id="DejaVuSans-2081" d="M 488 319 
L 1125 319 
L 1125 2229 
L 428 2101 
L 428 2463 
L 1147 2585 
L 1575 2585 
L 1575 319 
L 2216 319 
L 2216 -24 
L 488 -24 
L 488 319 
z
" transform="scale(0.015625)"/>
       <path id="DejaVuSans-207b" d="M 428 3359 
L 2950 3359 
L 2950 3063 
L 428 3063 
L 428 3359 
z
" transform="scale(0.015625)"/>
      </defs>
      <use xlink:href="#DejaVuSans-42"/>
      <use xlink:href="#DejaVuSans-b3" x="68.603516"/>
      <use xlink:href="#DejaVuSans-3a3" x="108.691406"/>
      <use xlink:href="#DejaVuSans-2081" x="171.875"/>
      <use xlink:href="#DejaVuSans-207b" x="211.962891"/>
     </g>
    </g>
    <g id="line2d_14">
     <path d="M 165.3339 49.519378 
L 173.6639 49.519378 
L 181.9939 49.519378 
" style="fill: none; stroke: #2ca02c; stroke-width: 1.5; stroke-linecap: square"/>
    </g>
    <g id="text_17">
     <!-- expt. O($^1D_2$) -->
     <g transform="translate(188.6579 52.434878) scale(0.0833 -0.0833)">
      <defs>
       <path id="DejaVuSans-78" d="M 3513 3500 
L 2247 1797 
L 3578 0 
L 2900 0 
L 1881 1375 
L 863 0 
L 184 0 
L 1544 1831 
L 300 3500 
L 978 3500 
L 1906 2253 
L 2834 3500 
L 3513 3500 
z
" transform="scale(0.015625)"/>
       <path id="DejaVuSans-4f" d="M 2522 4238 
Q 1834 4238 1429 3725 
Q 1025 3213 1025 2328 
Q 1025 1447 1429 934 
Q 1834 422 2522 422 
Q 3209 422 3611 934 
Q 4013 1447 4013 2328 
Q 4013 3213 3611 3725 
Q 3209 4238 2522 4238 
z
M 2522 4750 
Q 3503 4750 4090 4092 
Q 4678 3434 4678 2328 
Q 4678 1225 4090 567 
Q 3503 -91 2522 -91 
Q 1538 -91 948 565 
Q 359 1222 359 2328 
Q 359 3434 948 4092 
Q 1538 4750 2522 4750 
z
" transform="scale(0.015625)"/>
       <path id="DejaVuSans-Oblique-44" d="M 1081 4666 
L 2438 4666 
Q 3519 4666 4070 4208 
Q 4622 3750 4622 2847 
Q 4622 2250 4412 1698 
Q 4203 1147 3834 769 
Q 3463 381 2891 190 
Q 2319 0 1538 0 
L 172 0 
L 1081 4666 
z
M 1613 4147 
L 909 519 
L 1734 519 
Q 2794 519 3375 1128 
Q 3956 1738 3956 2847 
Q 3956 3519 3581 3833 
Q 3206 4147 2406 4147 
L 1613 4147 
z
" transform="scale(0.015625)"/>
      </defs>
      <use xlink:href="#DejaVuSans-65" transform="translate(0 0.684375)"/>
      <use xlink:href="#DejaVuSans-78" transform="translate(61.523438 0.684375)"/>
      <use xlink:href="#DejaVuSans-70" transform="translate(120.703125 0.684375)"/>
      <use xlink:href="#DejaVuSans-74" transform="translate(184.179688 0.684375)"/>
      <use xlink:href="#DejaVuSans-2e" transform="translate(223.388672 0.684375)"/>
      <use xlink:href="#DejaVuSans-20" transform="translate(255.175781 0.684375)"/>
      <use xlink:href="#DejaVuSans-4f" transform="translate(286.962891 0.684375)"/>
      <use xlink:href="#DejaVuSans-28" transform="translate(365.673828 0.684375)"/>
      <use xlink:href="#DejaVuSans-31" transform="translate(405.644531 38.965625) scale(0.7)"/>
      <use xlink:href="#DejaVuSans-Oblique-44" transform="translate(452.915039 0.684375)"/>
      <use xlink:href="#DejaVuSans-32" transform="translate(529.916992 -15.721875) scale(0.7)"/>
      <use xlink:href="#DejaVuSans-29" transform="translate(577.1875 0.684375)"/>
     </g>
    </g>
   </g>
  </g>
  <g id="axes_2">
   <g id="patch_8">
    <path d="M 251.051 299.608 
L 450 299.608 
L 450 26.88 
L 251.051 26.88 
z
" style="fill: #ffffff"/>
   </g>
   <g id="matplotlib.axis_3">
    <g id="xtick_5">
     <g id="line2d_15">
      <g>
       <use xlink:href="#m2f983eb11b" x="270.9459" y="299.608" style="stroke: #000000; stroke-width: 0.8"/>
      </g>
     </g>
     <g id="text_18">
      <!-- 1.0 -->
      <g transform="translate(262.994337 314.206437) scale(0.1 -0.1)">
       <use xlink:href="#DejaVuSans-31"/>
       <use xlink:href="#DejaVuSans-2e" x="63.623047"/>
       <use xlink:href="#DejaVuSans-30" x="95.410156"/>
      </g>
     </g>
    </g>
    <g id="xtick_6">
     <g id="line2d_16">
      <g>
       <use xlink:href="#m2f983eb11b" x="320.68315" y="299.608" style="stroke: #000000; stroke-width: 0.8"/>
      </g>
     </g>
     <g id="text_19">
      <!-- 1.5 -->
      <g transform="translate(312.731587 314.206437) scale(0.1 -0.1)">
       <use xlink:href="#DejaVuSans-31"/>
       <use xlink:href="#DejaVuSans-2e" x="63.623047"/>
       <use xlink:href="#DejaVuSans-35" x="95.410156"/>
      </g>
     </g>
    </g>
    <g id="xtick_7">
     <g id="line2d_17">
      <g>
       <use xlink:href="#m2f983eb11b" x="370.4204" y="299.608" style="stroke: #000000; stroke-width: 0.8"/>
      </g>
     </g>
     <g id="text_20">
      <!-- 2.0 -->
      <g transform="translate(362.468838 314.206437) scale(0.1 -0.1)">
       <use xlink:href="#DejaVuSans-32"/>
       <use xlink:href="#DejaVuSans-2e" x="63.623047"/>
       <use xlink:href="#DejaVuSans-30" x="95.410156"/>
      </g>
     </g>
    </g>
    <g id="xtick_8">
     <g id="line2d_18">
      <g>
       <use xlink:href="#m2f983eb11b" x="420.15765" y="299.608" style="stroke: #000000; stroke-width: 0.8"/>
      </g>
     </g>
     <g id="text_21">
      <!-- 2.5 -->
      <g transform="translate(412.206088 314.206437) scale(0.1 -0.1)">
       <use xlink:href="#DejaVuSans-32"/>
       <use xlink:href="#DejaVuSans-2e" x="63.623047"/>
       <use xlink:href="#DejaVuSans-35" x="95.410156"/>
      </g>
     </g>
    </g>
    <g id="text_22">
     <!-- internuclear distance ($\AA$) -->
     <g transform="translate(288.4755 328.906437) scale(0.1 -0.1)">
      <defs>
       <path id="DejaVuSans-6c" d="M 603 4863 
L 1178 4863 
L 1178 0 
L 603 0 
L 603 4863 
z
" transform="scale(0.015625)"/>
       <path id="DejaVuSans-Oblique-c5" d="M 3188 5081 
Q 3188 5278 3048 5417 
Q 2909 5556 2713 5556 
Q 2513 5556 2377 5420 
Q 2241 5284 2241 5081 
Q 2241 4884 2377 4746 
Q 2513 4609 2713 4609 
Q 2909 4609 3048 4746 
Q 3188 4884 3188 5081 
z
M 2203 4397 
Q 2034 4513 1945 4689 
Q 1856 4866 1856 5081 
Q 1856 5438 2106 5689 
Q 2356 5941 2713 5941 
Q 3069 5941 3320 5689 
Q 3572 5438 3572 5081 
Q 3572 4834 3458 4643 
Q 3344 4453 3128 4341 
L 3938 0 
L 3278 0 
L 3084 1197 
L 984 1197 
L 325 0 
L -341 0 
L 2203 4397 
z
M 2584 4044 
L 1275 1722 
L 2988 1722 
L 2584 4044 
z
" transform="scale(0.015625)"/>
      </defs>
      <use xlink:href="#DejaVuSans-69" transform="translate(0 0.171875)"/>
      <use xlink:href="#DejaVuSans-6e" transform="translate(27.783203 0.171875)"/>
      <use xlink:href="#DejaVuSans-74" transform="translate(91.162109 0.171875)"/>
      <use xlink:href="#DejaVuSans-65" transform="translate(130.371094 0.171875)"/>
      <use xlink:href="#DejaVuSans-72" transform="translate(191.894531 0.171875)"/>
      <use xlink:href="#DejaVuSans-6e" transform="translate(233.007812 0.171875)"/>
      <use xlink:href="#DejaVuSans-75" transform="translate(296.386719 0.171875)"/>
      <use xlink:href="#DejaVuSans-63" transform="translate(359.765625 0.171875)"/>
      <use xlink:href="#DejaVuSans-6c" transform="translate(414.746094 0.171875)"/>
      <use xlink:href="#DejaVuSans-65" transform="translate(442.529297 0.171875)"/>
      <use xlink:href="#DejaVuSans-61" transform="translate(504.052734 0.171875)"/>
      <use xlink:href="#DejaVuSans-72" transform="translate(565.332031 0.171875)"/>
      <use xlink:href="#DejaVuSans-20" transform="translate(606.445312 0.171875)"/>
      <use xlink:href="#DejaVuSans-64" transform="translate(638.232422 0.171875)"/>
      <use xlink:href="#DejaVuSans-69" transform="translate(701.708984 0.171875)"/>
      <use xlink:href="#DejaVuSans-73" transform="translate(729.492188 0.171875)"/>
      <use xlink:href="#DejaVuSans-74" transform="translate(781.591797 0.171875)"/>
      <use xlink:href="#DejaVuSans-61" transform="translate(820.800781 0.171875)"/>
      <use xlink:href="#DejaVuSans-6e" transform="translate(882.080078 0.171875)"/>
      <use xlink:href="#DejaVuSans-63" transform="translate(945.458984 0.171875)"/>
      <use xlink:href="#DejaVuSans-65" transform="translate(1000.439453 0.171875)"/>
      <use xlink:href="#DejaVuSans-20" transform="translate(1061.962891 0.171875)"/>
      <use xlink:href="#DejaVuSans-28" transform="translate(1093.75 0.171875)"/>
      <use xlink:href="#DejaVuSans-Oblique-c5" transform="translate(1132.763672 0.171875)"/>
      <use xlink:href="#DejaVuSans-29" transform="translate(1201.171875 0.171875)"/>
     </g>
    </g>
   </g>
   <g id="line2d_19">
    <path d="M 278.032816 -1 
L 279.898605 29.197205 
L 281.888095 58.015061 
L 283.877585 83.699502 
L 285.867075 106.558242 
L 287.856565 126.870049 
L 289.846055 144.887407 
L 291.835545 160.838949 
L 293.825035 174.931653 
L 295.814525 187.352854 
L 297.804015 198.272055 
L 299.793505 207.842586 
L 301.782995 216.203101 
L 303.772485 223.51955 
L 306.259347 231.290283 
L 308.248838 236.411922 
L 310.238327 240.83049 
L 312.227818 244.636113 
L 314.217308 247.886382 
L 316.206797 250.6221 
L 318.196288 252.882541 
L 319.688405 254.290237 
L 321.180522 255.469746 
L 323.170012 256.718415 
L 325.159503 257.631332 
L 327.148993 258.241872 
L 329.138483 258.580586 
L 331.127973 258.675971 
L 333.117462 258.555323 
L 335.604325 258.1396 
L 338.091188 257.473374 
L 341.075423 256.403148 
L 344.059658 255.098724 
L 348.038638 253.089288 
L 353.012362 250.300502 
L 369.923028 240.584523 
L 375.394125 237.845747 
L 379.870478 235.822153 
L 384.34683 234.0431 
L 389.320555 232.305322 
L 394.29428 230.811809 
L 399.268005 229.556831 
L 404.739103 228.401444 
L 410.707573 227.359055 
L 417.173415 226.447517 
L 424.634003 225.619205 
L 433.586708 224.854636 
L 444.528903 224.158014 
L 450.497373 223.858559 
L 450.497373 223.858559 
" clip-path="url(#p178f90a6ed)" style="fill: none; stroke: #1f77b4; stroke-width: 1.5; stroke-linecap: square"/>
   </g>
   <g id="line2d_20">
    <path d="M 258.807635 -1 
L 262.490567 37.325385 
L 266.469547 76.248769 
L 269.951155 108.287252 
L 271.443272 119.400159 
L 272.93539 129.00212 
L 273.930135 133.940667 
L 274.92488 137.929443 
L 275.919625 141.163231 
L 276.91437 143.751064 
L 277.909115 145.772424 
L 278.90386 147.282425 
L 279.898605 148.318282 
L 280.89335 148.91413 
L 281.888095 149.097095 
L 282.88284 148.892773 
L 283.877585 148.32676 
L 284.87233 147.42382 
L 285.867075 146.205255 
L 286.86182 144.696737 
L 288.353938 141.952366 
L 289.846055 138.704394 
L 291.835545 133.707465 
L 293.825035 128.053567 
L 298.301387 114.218523 
L 300.78825 105.785427 
L 305.761975 88.255752 
L 310.7357 71.549288 
L 315.709425 55.660176 
L 320.68315 40.573147 
L 325.159503 27.664726 
L 329.635855 15.374019 
L 334.112208 3.683025 
L 335.971319 -1 
L 335.971319 -1 
" clip-path="url(#p178f90a6ed)" style="fill: none; stroke: #ff7f0e; stroke-width: 1.5; stroke-linecap: square"/>
   </g>
   <g id="line2d_21">
    <path d="M 255.523376 -1 
L 257.01947 58.339429 
L 259.00896 128.13258 
L 260.99845 188.594843 
L 262.98794 240.778154 
L 264.97743 285.623322 
L 266.469547 315.148395 
L 268.319642 346.6 
M 351.272695 346.6 
L 354.50448 340.197799 
L 357.488715 334.717753 
L 360.47295 329.665136 
L 363.457185 325.046832 
L 366.44142 320.86647 
L 369.425655 317.121103 
L 371.912518 314.323874 
L 374.39938 311.810474 
L 376.886243 309.567523 
L 379.373105 307.577427 
L 382.35734 305.489034 
L 385.341575 303.688337 
L 387.828438 302.409596 
L 390.812673 301.111035 
L 394.29428 299.859514 
L 397.775888 298.838115 
L 401.754868 297.895397 
L 406.23122 297.059489 
L 411.702318 296.28263 
L 418.16816 295.616841 
L 425.628748 295.083658 
L 435.078825 294.643586 
L 447.513138 294.303505 
L 450.497373 294.247768 
L 450.497373 294.247768 
" clip-path="url(#p178f90a6ed)" style="fill: none; stroke: #000000; stroke-width: 1.5; stroke-linecap: square"/>
   </g>
   <g id="patch_9">
    <path d="M 251.051 299.608 
L 251.051 26.88 
" style="fill: none; stroke: #000000; stroke-width: 0.8; stroke-linejoin: miter; stroke-linecap: square"/>
   </g>
   <g id="patch_10">
    <path d="M 450 299.608 
L 450 26.88 
" style="fill: none; stroke: #000000; stroke-width: 0.8; stroke-linejoin: miter; stroke-linecap: square"/>
   </g>
   <g id="patch_11">
    <path d="M 251.051 299.608 
L 450 299.608 
" style="fill: none; stroke: #000000; stroke-width: 0.8; stroke-linejoin: miter; stroke-linecap: square"/>
   </g>
   <g id="patch_12">
    <path d="M 251.051 26.88 
L 450 26.88 
" style="fill: none; stroke: #000000; stroke-width: 0.8; stroke-linejoin: miter; stroke-linecap: square"/>
   </g>
   <g id="text_23">
    <!-- diabatic PECs -->
    <g transform="translate(309.937375 20.88) scale(0.12 -0.12)">
     <defs>
      <path id="DejaVuSans-50" d="M 1259 4147 
L 1259 2394 
L 2053 2394 
Q 2494 2394 2734 2622 
Q 2975 2850 2975 3272 
Q 2975 3691 2734 3919 
Q 2494 4147 2053 4147 
L 1259 4147 
z
M 628 4666 
L 2053 4666 
Q 2838 4666 3239 4311 
Q 3641 3956 3641 3272 
Q 3641 2581 3239 2228 
Q 2838 1875 2053 1875 
L 1259 1875 
L 1259 0 
L 628 0 
L 628 4666 
z
" transform="scale(0.015625)"/>
      <path id="DejaVuSans-45" d="M 628 4666 
L 3578 4666 
L 3578 4134 
L 1259 4134 
L 1259 2753 
L 3481 2753 
L 3481 2222 
L 1259 2222 
L 1259 531 
L 3634 531 
L 3634 0 
L 628 0 
L 628 4666 
z
" transform="scale(0.015625)"/>
      <path id="DejaVuSans-43" d="M 4122 4306 
L 4122 3641 
Q 3803 3938 3442 4084 
Q 3081 4231 2675 4231 
Q 1875 4231 1450 3742 
Q 1025 3253 1025 2328 
Q 1025 1406 1450 917 
Q 1875 428 2675 428 
Q 3081 428 3442 575 
Q 3803 722 4122 1019 
L 4122 359 
Q 3791 134 3420 21 
Q 3050 -91 2638 -91 
Q 1578 -91 968 557 
Q 359 1206 359 2328 
Q 359 3453 968 4101 
Q 1578 4750 2638 4750 
Q 3056 4750 3426 4639 
Q 3797 4528 4122 4306 
z
" transform="scale(0.015625)"/>
     </defs>
     <use xlink:href="#DejaVuSans-64"/>
     <use xlink:href="#DejaVuSans-69" x="63.476562"/>
     <use xlink:href="#DejaVuSans-61" x="91.259766"/>
     <use xlink:href="#DejaVuSans-62" x="152.539062"/>
     <use xlink:href="#DejaVuSans-61" x="216.015625"/>
     <use xlink:href="#DejaVuSans-74" x="277.294922"/>
     <use xlink:href="#DejaVuSans-69" x="316.503906"/>
     <use xlink:href="#DejaVuSans-63" x="344.287109"/>
     <use xlink:href="#DejaVuSans-20" x="399.267578"/>
     <use xlink:href="#DejaVuSans-50" x="431.054688"/>
     <use xlink:href="#DejaVuSans-45" x="491.357422"/>
     <use xlink:href="#DejaVuSans-43" x="554.541016"/>
     <use xlink:href="#DejaVuSans-73" x="624.365234"/>
    </g>
   </g>
   <g id="legend_2">
    <g id="patch_13">
     <path d="M 395.458023 66.892634 
L 444.169 66.892634 
Q 445.835 66.892634 445.835 65.226634 
L 445.835 32.711 
Q 445.835 31.045 444.169 31.045 
L 395.458023 31.045 
Q 393.792023 31.045 393.792023 32.711 
L 393.792023 65.226634 
Q 393.792023 66.892634 395.458023 66.892634 
z
" style="fill: #ffffff; opacity: 0.8; stroke: #cccccc; stroke-linejoin: miter"/>
    </g>
    <g id="line2d_22">
     <path d="M 397.124023 37.790998 
L 405.454023 37.790998 
L 413.784023 37.790998 
" style="fill: none; stroke: #1f77b4; stroke-width: 1.5; stroke-linecap: square"/>
    </g>
    <g id="text_24">
     <!-- B³Σ₁⁻ -->
     <g transform="translate(420.448023 40.706498) scale(0.0833 -0.0833)">
      <use xlink:href="#DejaVuSans-42"/>
      <use xlink:href="#DejaVuSans-b3" x="68.603516"/>
      <use xlink:href="#DejaVuSans-3a3" x="108.691406"/>
      <use xlink:href="#DejaVuSans-2081" x="171.875"/>
      <use xlink:href="#DejaVuSans-207b" x="211.962891"/>
     </g>
    </g>
    <g id="line2d_23">
     <path d="M 397.124023 48.351877 
L 405.454023 48.351877 
L 413.784023 48.351877 
" style="fill: none; stroke: #ff7f0e; stroke-width: 1.5; stroke-linecap: square"/>
    </g>
    <g id="text_25">
     <!-- E³Σ₁⁻ -->
     <g transform="translate(420.448023 51.267377) scale(0.0833 -0.0833)">
      <use xlink:href="#DejaVuSans-45"/>
      <use xlink:href="#DejaVuSans-b3" x="63.183594"/>
      <use xlink:href="#DejaVuSans-3a3" x="103.271484"/>
      <use xlink:href="#DejaVuSans-2081" x="166.455078"/>
      <use xlink:href="#DejaVuSans-207b" x="206.542969"/>
     </g>
    </g>
    <g id="line2d_24">
     <path d="M 397.124023 58.912755 
L 405.454023 58.912755 
L 413.784023 58.912755 
" style="fill: none; stroke: #000000; stroke-width: 1.5; stroke-linecap: square"/>
    </g>
    <g id="text_26">
     <!-- X³Σ₁⁻ -->
     <g transform="translate(420.448023 61.828255) scale(0.0833 -0.0833)">
      <defs>
       <path id="DejaVuSans-58" d="M 403 4666 
L 1081 4666 
L 2241 2931 
L 3406 4666 
L 4084 4666 
L 2584 2425 
L 4184 0 
L 3506 0 
L 2194 1984 
L 872 0 
L 191 0 
L 1856 2491 
L 403 4666 
z
" transform="scale(0.015625)"/>
      </defs>
      <use xlink:href="#DejaVuSans-58"/>
      <use xlink:href="#DejaVuSans-b3" x="68.505859"/>
      <use xlink:href="#DejaVuSans-3a3" x="108.59375"/>
      <use xlink:href="#DejaVuSans-2081" x="171.777344"/>
      <use xlink:href="#DejaVuSans-207b" x="211.865234"/>
     </g>
    </g>
   </g>
  </g>
 </g>
 <defs>
  <clipPath id="pdb046cb312">
   <rect x="48.602" y="26.88" width="198.949" height="272.728"/>
  </clipPath>
  <clipPath id="p178f90a6ed">
   <rect x="251.051" y="26.88" width="198.949" height="272.728"/>
  </clipPath>
 </defs>
</svg>
