<?xml version="1.0" encoding="utf-8" standalone="no"?>
<!DOCTYPE svg PUBLIC "-//W3C//DTD SVG 1.1//EN"
  "http://www.w3.org/Graphics/SVG/1.1/DTD/svg11.dtd">
<svg xmlns:xlink="http://www.w3.org/1999/xlink" width="460.8pt" height="345.6pt" viewBox="0 0 460.8 345.6" xmlns="http://www.w3.org/2000/svg" version="1.1">
 <metadata>
  <rdf:RDF xmlns:dc="http://purl.org/dc/elements/1.1/" xmlns:cc="http://creativecommons.org/ns#" xmlns:rdf="http://www.w3.org/1999/02/22-rdf-syntax-ns#">
   <cc:Work>
    <dc:type rdf:resource="http://purl.org/dc/dcmitype/StillImage"/>
    <dc:date>2022-12-22T07:37:33.874531</dc:date>
    <dc:format>image/svg+xml</dc:format>
    <dc:creator>
     <cc:Agent>
      <dc:title>Matplotlib v3.6.0, https://matplotlib.org/</dc:title>
     </cc:Agent>
    </dc:creator>
   </cc:Work>
  </rdf:RDF>
 </metadata>
 <defs>
  <style type="text/css">*{stroke-linejoin: round; stroke-linecap: butt}</style>
 </defs>
 <g id="figure_1">
  <g id="patch_1">
   <path d="M 0 345.6 
L 460.8 345.6 
L 460.8 0 
L 0 0 
z
" style="fill: #ffffff"/>
  </g>
  <g id="axes_1">
   <g id="patch_2">
    <path d="M 44.678 296.296 
L 220.520197 296.296 
L 220.520197 49.872 
L 44.678 49.872 
z
" style="fill: #ffffff"/>
   </g>
   <g id="matplotlib.axis_1">
    <g id="xtick_1">
     <g id="line2d_1">
      <defs>
       <path id="m3707f2b32f" d="M 0 0 
L 0 3.5 
" style="stroke: #000000; stroke-width: 0.8"/>
      </defs>
      <g>
       <use xlink:href="#m3707f2b32f" x="65.365317" y="296.296" style="stroke: #000000; stroke-width: 0.8"/>
      </g>
     </g>
     <g id="text_1">
      <!-- 1.0 -->
      <g transform="translate(57.413755 310.894437) scale(0.1 -0.1)">
       <defs>
        <path id="DejaVuSans-31" d="M 794 531 
L 1825 531 
L 1825 4091 
L 703 3866 
L 703 4441 
L 1819 4666 
L 2450 4666 
L 2450 531 
L 3481 531 
L 3481 0 
L 794 0 
L 794 531 
z
" transform="scale(0.015625)"/>
        <path id="DejaVuSans-2e" d="M 684 794 
L 1344 794 
L 1344 0 
L 684 0 
L 684 794 
z
" transform="scale(0.015625)"/>
        <path id="DejaVuSans-30" d="M 2034 4250 
Q 1547 4250 1301 3770 
Q 1056 3291 1056 2328 
Q 1056 1369 1301 889 
Q 1547 409 2034 409 
Q 2525 409 2770 889 
Q 3016 1369 3016 2328 
Q 3016 3291 2770 3770 
Q 2525 4250 2034 4250 
z
M 2034 4750 
Q 2819 4750 3233 4129 
Q 3647 3509 3647 2328 
Q 3647 1150 3233 529 
Q 2819 -91 2034 -91 
Q 1250 -91 836 529 
Q 422 1150 422 2328 
Q 422 3509 836 4129 
Q 1250 4750 2034 4750 
z
" transform="scale(0.015625)"/>
       </defs>
       <use xlink:href="#DejaVuSans-31"/>
       <use xlink:href="#DejaVuSans-2e" x="63.623047"/>
       <use xlink:href="#DejaVuSans-30" x="95.410156"/>
      </g>
     </g>
    </g>
    <g id="xtick_2">
     <g id="line2d_2">
      <g>
       <use xlink:href="#m3707f2b32f" x="117.08361" y="296.296" style="stroke: #000000; stroke-width: 0.8"/>
      </g>
     </g>
     <g id="text_2">
      <!-- 1.5 -->
      <g transform="translate(109.132048 310.894437) scale(0.1 -0.1)">
       <defs>
        <path id="DejaVuSans-35" d="M 691 4666 
L 3169 4666 
L 3169 4134 
L 1269 4134 
L 1269 2991 
Q 1406 3038 1543 3061 
Q 1681 3084 1819 3084 
Q 2600 3084 3056 2656 
Q 3513 2228 3513 1497 
Q 3513 744 3044 326 
Q 2575 -91 1722 -91 
Q 1428 -91 1123 -41 
Q 819 9 494 109 
L 494 744 
Q 775 591 1075 516 
Q 1375 441 1709 441 
Q 2250 441 2565 725 
Q 2881 1009 2881 1497 
Q 2881 1984 2565 2268 
Q 2250 2553 1709 2553 
Q 1456 2553 1204 2497 
Q 953 2441 691 2322 
L 691 4666 
z
" transform="scale(0.015625)"/>
       </defs>
       <use xlink:href="#DejaVuSans-31"/>
       <use xlink:href="#DejaVuSans-2e" x="63.623047"/>
       <use xlink:href="#DejaVuSans-35" x="95.410156"/>
      </g>
     </g>
    </g>
    <g id="xtick_3">
     <g id="line2d_3">
      <g>
       <use xlink:href="#m3707f2b32f" x="168.801903" y="296.296" style="stroke: #000000; stroke-width: 0.8"/>
      </g>
     </g>
     <g id="text_3">
      <!-- 2.0 -->
      <g transform="translate(160.850341 310.894437) scale(0.1 -0.1)">
       <defs>
        <path id="DejaVuSans-32" d="M 1228 531 
L 3431 531 
L 3431 0 
L 469 0 
L 469 531 
Q 828 903 1448 1529 
Q 2069 2156 2228 2338 
Q 2531 2678 2651 2914 
Q 2772 3150 2772 3378 
Q 2772 3750 2511 3984 
Q 2250 4219 1831 4219 
Q 1534 4219 1204 4116 
Q 875 4013 500 3803 
L 500 4441 
Q 881 4594 1212 4672 
Q 1544 4750 1819 4750 
Q 2544 4750 2975 4387 
Q 3406 4025 3406 3419 
Q 3406 3131 3298 2873 
Q 3191 2616 2906 2266 
Q 2828 2175 2409 1742 
Q 1991 1309 1228 531 
z
" transform="scale(0.015625)"/>
       </defs>
       <use xlink:href="#DejaVuSans-32"/>
       <use xlink:href="#DejaVuSans-2e" x="63.623047"/>
       <use xlink:href="#DejaVuSans-30" x="95.410156"/>
      </g>
     </g>
    </g>
    <g id="xtick_4">
     <g id="line2d_4">
      <g>
       <use xlink:href="#m3707f2b32f" x="220.520197" y="296.296" style="stroke: #000000; stroke-width: 0.8"/>
      </g>
     </g>
     <g id="text_4">
      <!-- 2.5 -->
      <g transform="translate(212.568634 310.894437) scale(0.1 -0.1)">
       <use xlink:href="#DejaVuSans-32"/>
       <use xlink:href="#DejaVuSans-2e" x="63.623047"/>
       <use xlink:href="#DejaVuSans-35" x="95.410156"/>
      </g>
     </g>
    </g>
    <g id="text_5">
     <!-- internuclear distance ($\AA$) -->
     <g transform="translate(70.549098 325.594437) scale(0.1 -0.1)">
      <defs>
       <path id="DejaVuSans-69" d="M 603 3500 
L 1178 3500 
L 1178 0 
L 603 0 
L 603 3500 
z
M 603 4863 
L 1178 4863 
L 1178 4134 
L 603 4134 
L 603 4863 
z
" transform="scale(0.015625)"/>
       <path id="DejaVuSans-6e" d="M 3513 2113 
L 3513 0 
L 2938 0 
L 2938 2094 
Q 2938 2591 2744 2837 
Q 2550 3084 2163 3084 
Q 1697 3084 1428 2787 
Q 1159 2491 1159 1978 
L 1159 0 
L 581 0 
L 581 3500 
L 1159 3500 
L 1159 2956 
Q 1366 3272 1645 3428 
Q 1925 3584 2291 3584 
Q 2894 3584 3203 3211 
Q 3513 2838 3513 2113 
z
" transform="scale(0.015625)"/>
       <path id="DejaVuSans-74" d="M 1172 4494 
L 1172 3500 
L 2356 3500 
L 2356 3053 
L 1172 3053 
L 1172 1153 
Q 1172 725 1289 603 
Q 1406 481 1766 481 
L 2356 481 
L 2356 0 
L 1766 0 
Q 1100 0 847 248 
Q 594 497 594 1153 
L 594 3053 
L 172 3053 
L 172 3500 
L 594 3500 
L 594 4494 
L 1172 4494 
z
" transform="scale(0.015625)"/>
       <path id="DejaVuSans-65" d="M 3597 1894 
L 3597 1613 
L 953 1613 
Q 991 1019 1311 708 
Q 1631 397 2203 397 
Q 2534 397 2845 478 
Q 3156 559 3463 722 
L 3463 178 
Q 3153 47 2828 -22 
Q 2503 -91 2169 -91 
Q 1331 -91 842 396 
Q 353 884 353 1716 
Q 353 2575 817 3079 
Q 1281 3584 2069 3584 
Q 2775 3584 3186 3129 
Q 3597 2675 3597 1894 
z
M 3022 2063 
Q 3016 2534 2758 2815 
Q 2500 3097 2075 3097 
Q 1594 3097 1305 2825 
Q 1016 2553 972 2059 
L 3022 2063 
z
" transform="scale(0.015625)"/>
       <path id="DejaVuSans-72" d="M 2631 2963 
Q 2534 3019 2420 3045 
Q 2306 3072 2169 3072 
Q 1681 3072 1420 2755 
Q 1159 2438 1159 1844 
L 1159 0 
L 581 0 
L 581 3500 
L 1159 3500 
L 1159 2956 
Q 1341 3275 1631 3429 
Q 1922 3584 2338 3584 
Q 2397 3584 2469 3576 
Q 2541 3569 2628 3553 
L 2631 2963 
z
" transform="scale(0.015625)"/>
       <path id="DejaVuSans-75" d="M 544 1381 
L 544 3500 
L 1119 3500 
L 1119 1403 
Q 1119 906 1312 657 
Q 1506 409 1894 409 
Q 2359 409 2629 706 
Q 2900 1003 2900 1516 
L 2900 3500 
L 3475 3500 
L 3475 0 
L 2900 0 
L 2900 538 
Q 2691 219 2414 64 
Q 2138 -91 1772 -91 
Q 1169 -91 856 284 
Q 544 659 544 1381 
z
M 1991 3584 
L 1991 3584 
z
" transform="scale(0.015625)"/>
       <path id="DejaVuSans-63" d="M 3122 3366 
L 3122 2828 
Q 2878 2963 2633 3030 
Q 2388 3097 2138 3097 
Q 1578 3097 1268 2742 
Q 959 2388 959 1747 
Q 959 1106 1268 751 
Q 1578 397 2138 397 
Q 2388 397 2633 464 
Q 2878 531 3122 666 
L 3122 134 
Q 2881 22 2623 -34 
Q 2366 -91 2075 -91 
Q 1284 -91 818 406 
Q 353 903 353 1747 
Q 353 2603 823 3093 
Q 1294 3584 2113 3584 
Q 2378 3584 2631 3529 
Q 2884 3475 3122 3366 
z
" transform="scale(0.015625)"/>
       <path id="DejaVuSans-6c" d="M 603 4863 
L 1178 4863 
L 1178 0 
L 603 0 
L 603 4863 
z
" transform="scale(0.015625)"/>
       <path id="DejaVuSans-61" d="M 2194 1759 
Q 1497 1759 1228 1600 
Q 959 1441 959 1056 
Q 959 750 1161 570 
Q 1363 391 1709 391 
Q 2188 391 2477 730 
Q 2766 1069 2766 1631 
L 2766 1759 
L 2194 1759 
z
M 3341 1997 
L 3341 0 
L 2766 0 
L 2766 531 
Q 2569 213 2275 61 
Q 1981 -91 1556 -91 
Q 1019 -91 701 211 
Q 384 513 384 1019 
Q 384 1609 779 1909 
Q 1175 2209 1959 2209 
L 2766 2209 
L 2766 2266 
Q 2766 2663 2505 2880 
Q 2244 3097 1772 3097 
Q 1472 3097 1187 3025 
Q 903 2953 641 2809 
L 641 3341 
Q 956 3463 1253 3523 
Q 1550 3584 1831 3584 
Q 2591 3584 2966 3190 
Q 3341 2797 3341 1997 
z
" transform="scale(0.015625)"/>
       <path id="DejaVuSans-20" transform="scale(0.015625)"/>
       <path id="DejaVuSans-64" d="M 2906 2969 
L 2906 4863 
L 3481 4863 
L 3481 0 
L 2906 0 
L 2906 525 
Q 2725 213 2448 61 
Q 2172 -91 1784 -91 
Q 1150 -91 751 415 
Q 353 922 353 1747 
Q 353 2572 751 3078 
Q 1150 3584 1784 3584 
Q 2172 3584 2448 3432 
Q 2725 3281 2906 2969 
z
M 947 1747 
Q 947 1113 1208 752 
Q 1469 391 1925 391 
Q 2381 391 2643 752 
Q 2906 1113 2906 1747 
Q 2906 2381 2643 2742 
Q 2381 3103 1925 3103 
Q 1469 3103 1208 2742 
Q 947 2381 947 1747 
z
" transform="scale(0.015625)"/>
       <path id="DejaVuSans-73" d="M 2834 3397 
L 2834 2853 
Q 2591 2978 2328 3040 
Q 2066 3103 1784 3103 
Q 1356 3103 1142 2972 
Q 928 2841 928 2578 
Q 928 2378 1081 2264 
Q 1234 2150 1697 2047 
L 1894 2003 
Q 2506 1872 2764 1633 
Q 3022 1394 3022 966 
Q 3022 478 2636 193 
Q 2250 -91 1575 -91 
Q 1294 -91 989 -36 
Q 684 19 347 128 
L 347 722 
Q 666 556 975 473 
Q 1284 391 1588 391 
Q 1994 391 2212 530 
Q 2431 669 2431 922 
Q 2431 1156 2273 1281 
Q 2116 1406 1581 1522 
L 1381 1569 
Q 847 1681 609 1914 
Q 372 2147 372 2553 
Q 372 3047 722 3315 
Q 1072 3584 1716 3584 
Q 2034 3584 2315 3537 
Q 2597 3491 2834 3397 
z
" transform="scale(0.015625)"/>
       <path id="DejaVuSans-28" d="M 1984 4856 
Q 1566 4138 1362 3434 
Q 1159 2731 1159 2009 
Q 1159 1288 1364 580 
Q 1569 -128 1984 -844 
L 1484 -844 
Q 1016 -109 783 600 
Q 550 1309 550 2009 
Q 550 2706 781 3412 
Q 1013 4119 1484 4856 
L 1984 4856 
z
" transform="scale(0.015625)"/>
       <path id="DejaVuSans-Oblique-c5" d="M 3188 5081 
Q 3188 5278 3048 5417 
Q 2909 5556 2713 5556 
Q 2513 5556 2377 5420 
Q 2241 5284 2241 5081 
Q 2241 4884 2377 4746 
Q 2513 4609 2713 4609 
Q 2909 4609 3048 4746 
Q 3188 4884 3188 5081 
z
M 2203 4397 
Q 2034 4513 1945 4689 
Q 1856 4866 1856 5081 
Q 1856 5438 2106 5689 
Q 2356 5941 2713 5941 
Q 3069 5941 3320 5689 
Q 3572 5438 3572 5081 
Q 3572 4834 3458 4643 
Q 3344 4453 3128 4341 
L 3938 0 
L 3278 0 
L 3084 1197 
L 984 1197 
L 325 0 
L -341 0 
L 2203 4397 
z
M 2584 4044 
L 1275 1722 
L 2988 1722 
L 2584 4044 
z
" transform="scale(0.015625)"/>
       <path id="DejaVuSans-29" d="M 513 4856 
L 1013 4856 
Q 1481 4119 1714 3412 
Q 1947 2706 1947 2009 
Q 1947 1309 1714 600 
Q 1481 -109 1013 -844 
L 513 -844 
Q 928 -128 1133 580 
Q 1338 1288 1338 2009 
Q 1338 2731 1133 3434 
Q 928 4138 513 4856 
z
" transform="scale(0.015625)"/>
      </defs>
      <use xlink:href="#DejaVuSans-69" transform="translate(0 0.171875)"/>
      <use xlink:href="#DejaVuSans-6e" transform="translate(27.783203 0.171875)"/>
      <use xlink:href="#DejaVuSans-74" transform="translate(91.162109 0.171875)"/>
      <use xlink:href="#DejaVuSans-65" transform="translate(130.371094 0.171875)"/>
      <use xlink:href="#DejaVuSans-72" transform="translate(191.894531 0.171875)"/>
      <use xlink:href="#DejaVuSans-6e" transform="translate(233.007812 0.171875)"/>
      <use xlink:href="#DejaVuSans-75" transform="translate(296.386719 0.171875)"/>
      <use xlink:href="#DejaVuSans-63" transform="translate(359.765625 0.171875)"/>
      <use xlink:href="#DejaVuSans-6c" transform="translate(414.746094 0.171875)"/>
      <use xlink:href="#DejaVuSans-65" transform="translate(442.529297 0.171875)"/>
      <use xlink:href="#DejaVuSans-61" transform="translate(504.052734 0.171875)"/>
      <use xlink:href="#DejaVuSans-72" transform="translate(565.332031 0.171875)"/>
      <use xlink:href="#DejaVuSans-20" transform="translate(606.445312 0.171875)"/>
      <use xlink:href="#DejaVuSans-64" transform="translate(638.232422 0.171875)"/>
      <use xlink:href="#DejaVuSans-69" transform="translate(701.708984 0.171875)"/>
      <use xlink:href="#DejaVuSans-73" transform="translate(729.492188 0.171875)"/>
      <use xlink:href="#DejaVuSans-74" transform="translate(781.591797 0.171875)"/>
      <use xlink:href="#DejaVuSans-61" transform="translate(820.800781 0.171875)"/>
      <use xlink:href="#DejaVuSans-6e" transform="translate(882.080078 0.171875)"/>
      <use xlink:href="#DejaVuSans-63" transform="translate(945.458984 0.171875)"/>
      <use xlink:href="#DejaVuSans-65" transform="translate(1000.439453 0.171875)"/>
      <use xlink:href="#DejaVuSans-20" transform="translate(1061.962891 0.171875)"/>
      <use xlink:href="#DejaVuSans-28" transform="translate(1093.75 0.171875)"/>
      <use xlink:href="#DejaVuSans-Oblique-c5" transform="translate(1132.763672 0.171875)"/>
      <use xlink:href="#DejaVuSans-29" transform="translate(1201.171875 0.171875)"/>
     </g>
    </g>
   </g>
   <g id="matplotlib.axis_2">
    <g id="ytick_1">
     <g id="line2d_5">
      <defs>
       <path id="ma13e4ed6eb" d="M 0 0 
L -3.5 0 
" style="stroke: #000000; stroke-width: 0.8"/>
      </defs>
      <g>
       <use xlink:href="#ma13e4ed6eb" x="44.678" y="281.631081" style="stroke: #000000; stroke-width: 0.8"/>
      </g>
     </g>
     <g id="line2d_6">
      <defs>
       <path id="m7cf7e59db8" d="M 0 0 
L 3.5 0 
" style="stroke: #000000; stroke-width: 0.8"/>
      </defs>
      <g>
       <use xlink:href="#m7cf7e59db8" x="220.520197" y="281.631081" style="stroke: #000000; stroke-width: 0.8"/>
      </g>
     </g>
     <g id="text_6">
      <!-- 5 -->
      <g transform="translate(31.3155 285.4303) scale(0.1 -0.1)">
       <use xlink:href="#DejaVuSans-35"/>
      </g>
     </g>
    </g>
    <g id="ytick_2">
     <g id="line2d_7">
      <g>
       <use xlink:href="#ma13e4ed6eb" x="44.678" y="227.183669" style="stroke: #000000; stroke-width: 0.8"/>
      </g>
     </g>
     <g id="line2d_8">
      <g>
       <use xlink:href="#m7cf7e59db8" x="220.520197" y="227.183669" style="stroke: #000000; stroke-width: 0.8"/>
      </g>
     </g>
     <g id="text_7">
      <!-- 6 -->
      <g transform="translate(31.3155 230.982888) scale(0.1 -0.1)">
       <defs>
        <path id="DejaVuSans-36" d="M 2113 2584 
Q 1688 2584 1439 2293 
Q 1191 2003 1191 1497 
Q 1191 994 1439 701 
Q 1688 409 2113 409 
Q 2538 409 2786 701 
Q 3034 994 3034 1497 
Q 3034 2003 2786 2293 
Q 2538 2584 2113 2584 
z
M 3366 4563 
L 3366 3988 
Q 3128 4100 2886 4159 
Q 2644 4219 2406 4219 
Q 1781 4219 1451 3797 
Q 1122 3375 1075 2522 
Q 1259 2794 1537 2939 
Q 1816 3084 2150 3084 
Q 2853 3084 3261 2657 
Q 3669 2231 3669 1497 
Q 3669 778 3244 343 
Q 2819 -91 2113 -91 
Q 1303 -91 875 529 
Q 447 1150 447 2328 
Q 447 3434 972 4092 
Q 1497 4750 2381 4750 
Q 2619 4750 2861 4703 
Q 3103 4656 3366 4563 
z
" transform="scale(0.015625)"/>
       </defs>
       <use xlink:href="#DejaVuSans-36"/>
      </g>
     </g>
    </g>
    <g id="ytick_3">
     <g id="line2d_9">
      <g>
       <use xlink:href="#ma13e4ed6eb" x="44.678" y="172.736257" style="stroke: #000000; stroke-width: 0.8"/>
      </g>
     </g>
     <g id="line2d_10">
      <g>
       <use xlink:href="#m7cf7e59db8" x="220.520197" y="172.736257" style="stroke: #000000; stroke-width: 0.8"/>
      </g>
     </g>
     <g id="text_8">
      <!-- 7 -->
      <g transform="translate(31.3155 176.535475) scale(0.1 -0.1)">
       <defs>
        <path id="DejaVuSans-37" d="M 525 4666 
L 3525 4666 
L 3525 4397 
L 1831 0 
L 1172 0 
L 2766 4134 
L 525 4134 
L 525 4666 
z
" transform="scale(0.015625)"/>
       </defs>
       <use xlink:href="#DejaVuSans-37"/>
      </g>
     </g>
    </g>
    <g id="ytick_4">
     <g id="line2d_11">
      <g>
       <use xlink:href="#ma13e4ed6eb" x="44.678" y="118.288845" style="stroke: #000000; stroke-width: 0.8"/>
      </g>
     </g>
     <g id="line2d_12">
      <g>
       <use xlink:href="#m7cf7e59db8" x="220.520197" y="118.288845" style="stroke: #000000; stroke-width: 0.8"/>
      </g>
     </g>
     <g id="text_9">
      <!-- 8 -->
      <g transform="translate(31.3155 122.088063) scale(0.1 -0.1)">
       <defs>
        <path id="DejaVuSans-38" d="M 2034 2216 
Q 1584 2216 1326 1975 
Q 1069 1734 1069 1313 
Q 1069 891 1326 650 
Q 1584 409 2034 409 
Q 2484 409 2743 651 
Q 3003 894 3003 1313 
Q 3003 1734 2745 1975 
Q 2488 2216 2034 2216 
z
M 1403 2484 
Q 997 2584 770 2862 
Q 544 3141 544 3541 
Q 544 4100 942 4425 
Q 1341 4750 2034 4750 
Q 2731 4750 3128 4425 
Q 3525 4100 3525 3541 
Q 3525 3141 3298 2862 
Q 3072 2584 2669 2484 
Q 3125 2378 3379 2068 
Q 3634 1759 3634 1313 
Q 3634 634 3220 271 
Q 2806 -91 2034 -91 
Q 1263 -91 848 271 
Q 434 634 434 1313 
Q 434 1759 690 2068 
Q 947 2378 1403 2484 
z
M 1172 3481 
Q 1172 3119 1398 2916 
Q 1625 2713 2034 2713 
Q 2441 2713 2670 2916 
Q 2900 3119 2900 3481 
Q 2900 3844 2670 4047 
Q 2441 4250 2034 4250 
Q 1625 4250 1398 4047 
Q 1172 3844 1172 3481 
z
" transform="scale(0.015625)"/>
       </defs>
       <use xlink:href="#DejaVuSans-38"/>
      </g>
     </g>
    </g>
    <g id="ytick_5">
     <g id="line2d_13">
      <g>
       <use xlink:href="#ma13e4ed6eb" x="44.678" y="63.841432" style="stroke: #000000; stroke-width: 0.8"/>
      </g>
     </g>
     <g id="line2d_14">
      <g>
       <use xlink:href="#m7cf7e59db8" x="220.520197" y="63.841432" style="stroke: #000000; stroke-width: 0.8"/>
      </g>
     </g>
     <g id="text_10">
      <!-- 9 -->
      <g transform="translate(31.3155 67.640651) scale(0.1 -0.1)">
       <defs>
        <path id="DejaVuSans-39" d="M 703 97 
L 703 672 
Q 941 559 1184 500 
Q 1428 441 1663 441 
Q 2288 441 2617 861 
Q 2947 1281 2994 2138 
Q 2813 1869 2534 1725 
Q 2256 1581 1919 1581 
Q 1219 1581 811 2004 
Q 403 2428 403 3163 
Q 403 3881 828 4315 
Q 1253 4750 1959 4750 
Q 2769 4750 3195 4129 
Q 3622 3509 3622 2328 
Q 3622 1225 3098 567 
Q 2575 -91 1691 -91 
Q 1453 -91 1209 -44 
Q 966 3 703 97 
z
M 1959 2075 
Q 2384 2075 2632 2365 
Q 2881 2656 2881 3163 
Q 2881 3666 2632 3958 
Q 2384 4250 1959 4250 
Q 1534 4250 1286 3958 
Q 1038 3666 1038 3163 
Q 1038 2656 1286 2365 
Q 1534 2075 1959 2075 
z
" transform="scale(0.015625)"/>
       </defs>
       <use xlink:href="#DejaVuSans-39"/>
      </g>
     </g>
    </g>
    <g id="text_11">
     <!-- potential energy above $X_{v=0, J=0}$ (cm$^{-1}$) -->
     <g transform="translate(24.2155 272.934) rotate(-90) scale(0.1 -0.1)">
      <defs>
       <path id="DejaVuSans-70" d="M 1159 525 
L 1159 -1331 
L 581 -1331 
L 581 3500 
L 1159 3500 
L 1159 2969 
Q 1341 3281 1617 3432 
Q 1894 3584 2278 3584 
Q 2916 3584 3314 3078 
Q 3713 2572 3713 1747 
Q 3713 922 3314 415 
Q 2916 -91 2278 -91 
Q 1894 -91 1617 61 
Q 1341 213 1159 525 
z
M 3116 1747 
Q 3116 2381 2855 2742 
Q 2594 3103 2138 3103 
Q 1681 3103 1420 2742 
Q 1159 2381 1159 1747 
Q 1159 1113 1420 752 
Q 1681 391 2138 391 
Q 2594 391 2855 752 
Q 3116 1113 3116 1747 
z
" transform="scale(0.015625)"/>
       <path id="DejaVuSans-6f" d="M 1959 3097 
Q 1497 3097 1228 2736 
Q 959 2375 959 1747 
Q 959 1119 1226 758 
Q 1494 397 1959 397 
Q 2419 397 2687 759 
Q 2956 1122 2956 1747 
Q 2956 2369 2687 2733 
Q 2419 3097 1959 3097 
z
M 1959 3584 
Q 2709 3584 3137 3096 
Q 3566 2609 3566 1747 
Q 3566 888 3137 398 
Q 2709 -91 1959 -91 
Q 1206 -91 779 398 
Q 353 888 353 1747 
Q 353 2609 779 3096 
Q 1206 3584 1959 3584 
z
" transform="scale(0.015625)"/>
       <path id="DejaVuSans-67" d="M 2906 1791 
Q 2906 2416 2648 2759 
Q 2391 3103 1925 3103 
Q 1463 3103 1205 2759 
Q 947 2416 947 1791 
Q 947 1169 1205 825 
Q 1463 481 1925 481 
Q 2391 481 2648 825 
Q 2906 1169 2906 1791 
z
M 3481 434 
Q 3481 -459 3084 -895 
Q 2688 -1331 1869 -1331 
Q 1566 -1331 1297 -1286 
Q 1028 -1241 775 -1147 
L 775 -588 
Q 1028 -725 1275 -790 
Q 1522 -856 1778 -856 
Q 2344 -856 2625 -561 
Q 2906 -266 2906 331 
L 2906 616 
Q 2728 306 2450 153 
Q 2172 0 1784 0 
Q 1141 0 747 490 
Q 353 981 353 1791 
Q 353 2603 747 3093 
Q 1141 3584 1784 3584 
Q 2172 3584 2450 3431 
Q 2728 3278 2906 2969 
L 2906 3500 
L 3481 3500 
L 3481 434 
z
" transform="scale(0.015625)"/>
       <path id="DejaVuSans-79" d="M 2059 -325 
Q 1816 -950 1584 -1140 
Q 1353 -1331 966 -1331 
L 506 -1331 
L 506 -850 
L 844 -850 
Q 1081 -850 1212 -737 
Q 1344 -625 1503 -206 
L 1606 56 
L 191 3500 
L 800 3500 
L 1894 763 
L 2988 3500 
L 3597 3500 
L 2059 -325 
z
" transform="scale(0.015625)"/>
       <path id="DejaVuSans-62" d="M 3116 1747 
Q 3116 2381 2855 2742 
Q 2594 3103 2138 3103 
Q 1681 3103 1420 2742 
Q 1159 2381 1159 1747 
Q 1159 1113 1420 752 
Q 1681 391 2138 391 
Q 2594 391 2855 752 
Q 3116 1113 3116 1747 
z
M 1159 2969 
Q 1341 3281 1617 3432 
Q 1894 3584 2278 3584 
Q 2916 3584 3314 3078 
Q 3713 2572 3713 1747 
Q 3713 922 3314 415 
Q 2916 -91 2278 -91 
Q 1894 -91 1617 61 
Q 1341 213 1159 525 
L 1159 0 
L 581 0 
L 581 4863 
L 1159 4863 
L 1159 2969 
z
" transform="scale(0.015625)"/>
       <path id="DejaVuSans-76" d="M 191 3500 
L 800 3500 
L 1894 563 
L 2988 3500 
L 3597 3500 
L 2284 0 
L 1503 0 
L 191 3500 
z
" transform="scale(0.015625)"/>
       <path id="DejaVuSans-Oblique-58" d="M 878 4666 
L 1516 4666 
L 2316 2981 
L 3763 4666 
L 4500 4666 
L 2578 2438 
L 3738 0 
L 3103 0 
L 2163 1966 
L 459 0 
L -275 0 
L 1906 2509 
L 878 4666 
z
" transform="scale(0.015625)"/>
       <path id="DejaVuSans-Oblique-76" d="M 459 3500 
L 1069 3500 
L 1581 525 
L 3256 3500 
L 3866 3500 
L 1875 0 
L 1100 0 
L 459 3500 
z
" transform="scale(0.015625)"/>
       <path id="DejaVuSans-3d" d="M 678 2906 
L 4684 2906 
L 4684 2381 
L 678 2381 
L 678 2906 
z
M 678 1631 
L 4684 1631 
L 4684 1100 
L 678 1100 
L 678 1631 
z
" transform="scale(0.015625)"/>
       <path id="DejaVuSans-2c" d="M 750 794 
L 1409 794 
L 1409 256 
L 897 -744 
L 494 -744 
L 750 256 
L 750 794 
z
" transform="scale(0.015625)"/>
       <path id="DejaVuSans-Oblique-4a" d="M 1069 4666 
L 1703 4666 
L 856 325 
Q 691 -522 298 -901 
Q -94 -1281 -800 -1281 
L -1050 -1281 
L -947 -750 
L -750 -750 
Q -328 -750 -109 -509 
Q 109 -269 225 325 
L 1069 4666 
z
" transform="scale(0.015625)"/>
       <path id="DejaVuSans-6d" d="M 3328 2828 
Q 3544 3216 3844 3400 
Q 4144 3584 4550 3584 
Q 5097 3584 5394 3201 
Q 5691 2819 5691 2113 
L 5691 0 
L 5113 0 
L 5113 2094 
Q 5113 2597 4934 2840 
Q 4756 3084 4391 3084 
Q 3944 3084 3684 2787 
Q 3425 2491 3425 1978 
L 3425 0 
L 2847 0 
L 2847 2094 
Q 2847 2600 2669 2842 
Q 2491 3084 2119 3084 
Q 1678 3084 1418 2786 
Q 1159 2488 1159 1978 
L 1159 0 
L 581 0 
L 581 3500 
L 1159 3500 
L 1159 2956 
Q 1356 3278 1631 3431 
Q 1906 3584 2284 3584 
Q 2666 3584 2933 3390 
Q 3200 3197 3328 2828 
z
" transform="scale(0.015625)"/>
       <path id="DejaVuSans-2212" d="M 678 2272 
L 4684 2272 
L 4684 1741 
L 678 1741 
L 678 2272 
z
" transform="scale(0.015625)"/>
      </defs>
      <use xlink:href="#DejaVuSans-70" transform="translate(0 0.684375)"/>
      <use xlink:href="#DejaVuSans-6f" transform="translate(63.476562 0.684375)"/>
      <use xlink:href="#DejaVuSans-74" transform="translate(124.658203 0.684375)"/>
      <use xlink:href="#DejaVuSans-65" transform="translate(163.867188 0.684375)"/>
      <use xlink:href="#DejaVuSans-6e" transform="translate(225.390625 0.684375)"/>
      <use xlink:href="#DejaVuSans-74" transform="translate(288.769531 0.684375)"/>
      <use xlink:href="#DejaVuSans-69" transform="translate(327.978516 0.684375)"/>
      <use xlink:href="#DejaVuSans-61" transform="translate(355.761719 0.684375)"/>
      <use xlink:href="#DejaVuSans-6c" transform="translate(417.041016 0.684375)"/>
      <use xlink:href="#DejaVuSans-20" transform="translate(444.824219 0.684375)"/>
      <use xlink:href="#DejaVuSans-65" transform="translate(476.611328 0.684375)"/>
      <use xlink:href="#DejaVuSans-6e" transform="translate(538.134766 0.684375)"/>
      <use xlink:href="#DejaVuSans-65" transform="translate(601.513672 0.684375)"/>
      <use xlink:href="#DejaVuSans-72" transform="translate(663.037109 0.684375)"/>
      <use xlink:href="#DejaVuSans-67" transform="translate(704.150391 0.684375)"/>
      <use xlink:href="#DejaVuSans-79" transform="translate(767.626953 0.684375)"/>
      <use xlink:href="#DejaVuSans-20" transform="translate(826.806641 0.684375)"/>
      <use xlink:href="#DejaVuSans-61" transform="translate(858.59375 0.684375)"/>
      <use xlink:href="#DejaVuSans-62" transform="translate(919.873047 0.684375)"/>
      <use xlink:href="#DejaVuSans-6f" transform="translate(983.349609 0.684375)"/>
      <use xlink:href="#DejaVuSans-76" transform="translate(1044.53125 0.684375)"/>
      <use xlink:href="#DejaVuSans-65" transform="translate(1103.710938 0.684375)"/>
      <use xlink:href="#DejaVuSans-20" transform="translate(1165.234375 0.684375)"/>
      <use xlink:href="#DejaVuSans-Oblique-58" transform="translate(1197.021484 0.684375)"/>
      <use xlink:href="#DejaVuSans-Oblique-76" transform="translate(1265.527344 -15.721875) scale(0.7)"/>
      <use xlink:href="#DejaVuSans-3d" transform="translate(1320.59082 -15.721875) scale(0.7)"/>
      <use xlink:href="#DejaVuSans-30" transform="translate(1392.880859 -15.721875) scale(0.7)"/>
      <use xlink:href="#DejaVuSans-2c" transform="translate(1437.416992 -15.721875) scale(0.7)"/>
      <use xlink:href="#DejaVuSans-Oblique-4a" transform="translate(1473.305664 -15.721875) scale(0.7)"/>
      <use xlink:href="#DejaVuSans-3d" transform="translate(1507.587891 -15.721875) scale(0.7)"/>
      <use xlink:href="#DejaVuSans-30" transform="translate(1579.87793 -15.721875) scale(0.7)"/>
      <use xlink:href="#DejaVuSans-20" transform="translate(1627.148438 0.684375)"/>
      <use xlink:href="#DejaVuSans-28" transform="translate(1658.935547 0.684375)"/>
      <use xlink:href="#DejaVuSans-63" transform="translate(1697.949219 0.684375)"/>
      <use xlink:href="#DejaVuSans-6d" transform="translate(1752.929688 0.684375)"/>
      <use xlink:href="#DejaVuSans-2212" transform="translate(1851.298828 38.965625) scale(0.7)"/>
      <use xlink:href="#DejaVuSans-31" transform="translate(1909.951172 38.965625) scale(0.7)"/>
      <use xlink:href="#DejaVuSans-29" transform="translate(1957.22168 0.684375)"/>
     </g>
    </g>
    <g id="text_12">
     <!-- 1e4 -->
     <g transform="translate(44.678 46.872) scale(0.1 -0.1)">
      <defs>
       <path id="DejaVuSans-34" d="M 2419 4116 
L 825 1625 
L 2419 1625 
L 2419 4116 
z
M 2253 4666 
L 3047 4666 
L 3047 1625 
L 3713 1625 
L 3713 1100 
L 3047 1100 
L 3047 0 
L 2419 0 
L 2419 1100 
L 313 1100 
L 313 1709 
L 2253 4666 
z
" transform="scale(0.015625)"/>
      </defs>
      <use xlink:href="#DejaVuSans-31"/>
      <use xlink:href="#DejaVuSans-65" x="63.623047"/>
      <use xlink:href="#DejaVuSans-34" x="125.146484"/>
     </g>
    </g>
   </g>
   <g id="line2d_15">
    <path d="M 73.945409 -1 
L 75.708976 29.922901 
L 77.777708 62.517038 
L 79.846439 91.546689 
L 81.915171 117.36269 
L 83.983903 140.282837 
L 86.052634 160.594935 
L 88.121366 178.559566 
L 90.190098 194.412607 
L 92.25883 208.367514 
L 94.327561 220.617403 
L 96.396293 231.336936 
L 98.465025 240.684035 
L 100.533757 248.955174 
L 102.602488 255.859489 
L 104.154037 260.379712 
L 105.705586 264.421436 
L 107.774318 269.155599 
L 109.843049 273.211341 
L 111.394598 275.836608 
L 112.946147 278.129658 
L 114.497696 280.108876 
L 116.049245 281.79507 
L 117.600793 283.207933 
L 119.152342 284.36908 
L 120.703891 285.298075 
L 122.25544 286.012482 
L 123.806988 286.528496 
L 125.358537 286.861416 
L 127.427269 287.045417 
L 129.496001 286.962655 
L 131.564732 286.644217 
L 133.633464 286.119804 
L 136.219379 285.216382 
L 138.805293 284.083133 
L 141.908391 282.480627 
L 145.528672 280.356525 
L 150.183318 277.360543 
L 168.801903 265.066101 
L 173.973733 262.097203 
L 178.628379 259.673262 
L 182.765843 257.765773 
L 187.420489 255.854607 
L 192.075135 254.176446 
L 196.729782 252.738567 
L 201.901611 251.382548 
L 207.590623 250.128797 
L 213.796819 249.001018 
L 220.520197 248.017283 
L 221.03738 247.95025 
L 221.03738 247.95025 
" clip-path="url(#p0837e42809)" style="fill: none; stroke-dasharray: 5.55,2.4; stroke-dashoffset: 0; stroke: #1f77b4; stroke-width: 1.5"/>
   </g>
   <g id="line2d_16">
    <path d="M 55.112869 -1 
L 58.641939 39.877623 
L 62.26222 79.530663 
L 64.848134 105.970672 
L 66.399683 118.590428 
L 67.434049 126.002989 
L 68.468415 131.918578 
L 69.502781 136.696493 
L 70.537147 140.570053 
L 71.571512 143.669863 
L 72.605878 146.091128 
L 73.640244 147.899867 
L 74.67461 149.140658 
L 75.708976 149.854388 
L 76.226159 150.023874 
L 76.743342 150.073551 
L 77.260525 150.007251 
L 78.294891 149.54205 
L 79.329256 148.658846 
L 80.363622 147.38491 
L 81.397988 145.747363 
L 82.949537 142.682825 
L 84.501086 138.983019 
L 86.052634 134.738162 
L 88.121366 128.343103 
L 90.707281 119.417744 
L 94.844744 104.376699 
L 97.947842 91.792818 
L 103.119671 71.088215 
L 108.291501 51.371833 
L 112.946147 34.460538 
L 117.600793 18.324047 
L 122.25544 2.945047 
L 123.487404 -1 
L 123.487404 -1 
" clip-path="url(#p0837e42809)" style="fill: none; stroke-dasharray: 5.55,2.4; stroke-dashoffset: 0; stroke: #ff7f0e; stroke-width: 1.5"/>
   </g>
   <g id="line2d_17">
    <path d="M 54.745035 -1 
L 59.676305 26.770793 
L 66.916866 69.018503 
L 77.260525 129.3415 
L 81.915171 155.159003 
L 86.052634 176.821176 
L 89.672915 194.512801 
L 92.776013 208.588153 
L 95.87911 221.555912 
L 98.465025 231.462732 
L 101.05094 240.519758 
L 103.636854 248.709847 
L 105.705586 254.633944 
L 107.774318 260.002587 
L 109.843049 264.823154 
L 111.911781 269.107256 
L 113.980513 272.870359 
L 116.049245 276.131357 
L 118.117976 278.912115 
L 120.186708 281.236979 
L 121.738257 282.697231 
L 123.289806 283.927516 
L 124.841354 284.939888 
L 126.392903 285.746651 
L 127.944452 286.360262 
L 130.013184 286.899568 
L 132.081915 287.147233 
L 134.150647 287.132304 
L 136.219379 286.883067 
L 138.288111 286.426794 
L 140.874025 285.604864 
L 143.45994 284.547844 
L 146.563037 283.030877 
L 150.183318 281.00428 
L 154.837964 278.135475 
L 174.490916 265.703163 
L 179.662745 262.830942 
L 184.834574 260.216972 
L 190.006404 257.869751 
L 195.178233 255.784746 
L 200.350062 253.948916 
L 205.521892 252.344133 
L 211.210904 250.820952 
L 216.899916 249.523534 
L 221.03738 248.705644 
L 221.03738 248.705644 
" clip-path="url(#p0837e42809)" style="fill: none; stroke: #2ca02c; stroke-width: 1.5; stroke-linecap: square"/>
   </g>
   <g id="line2d_18">
    <path d="M 46.304595 -1 
L 48.815463 28.817358 
L 50.884195 51.0332 
L 52.952927 71.047361 
L 55.021659 88.805532 
L 57.09039 104.276447 
L 58.641939 114.372879 
L 60.193488 123.182713 
L 61.745037 130.717982 
L 63.296586 136.997467 
L 64.848134 142.046353 
L 65.8825 144.743774 
L 66.916866 146.918629 
L 67.951232 148.582565 
L 68.985598 149.748186 
L 70.019964 150.428979 
L 71.054329 150.639234 
L 72.088695 150.393971 
L 73.123061 149.708862 
L 74.157427 148.600148 
L 75.191793 147.084561 
L 76.226159 145.179249 
L 77.260525 142.901694 
L 78.812073 138.826271 
L 80.363622 134.013855 
L 81.915171 128.525441 
L 83.983903 120.261179 
L 86.052634 111.045907 
L 88.638549 98.400787 
L 91.741647 81.916467 
L 95.361927 61.402988 
L 101.05094 27.718816 
L 105.871985 -1 
L 105.871985 -1 
" clip-path="url(#p0837e42809)" style="fill: none; stroke: #d62728; stroke-width: 1.5; stroke-linecap: square"/>
   </g>
   <g id="patch_3">
    <path d="M 44.678 296.296 
L 44.678 49.872 
" style="fill: none; stroke: #000000; stroke-width: 0.8; stroke-linejoin: miter; stroke-linecap: square"/>
   </g>
   <g id="patch_4">
    <path d="M 220.520197 296.296 
L 220.520197 49.872 
" style="fill: none; stroke: #000000; stroke-width: 0.8; stroke-linejoin: miter; stroke-linecap: square"/>
   </g>
   <g id="patch_5">
    <path d="M 44.678 296.296 
L 220.520197 296.296 
" style="fill: none; stroke: #000000; stroke-width: 0.8; stroke-linejoin: miter; stroke-linecap: square"/>
   </g>
   <g id="patch_6">
    <path d="M 44.678 49.872 
L 220.520197 49.872 
" style="fill: none; stroke: #000000; stroke-width: 0.8; stroke-linejoin: miter; stroke-linecap: square"/>
   </g>
   <g id="legend_1">
    <g id="patch_7">
     <path d="M 122.725997 104.165378 
L 214.689197 104.165378 
Q 216.355197 104.165378 216.355197 102.499378 
L 216.355197 55.703 
Q 216.355197 54.037 214.689197 54.037 
L 122.725997 54.037 
Q 121.059997 54.037 121.059997 55.703 
L 121.059997 102.499378 
Q 121.059997 104.165378 122.725997 104.165378 
z
" style="fill: #ffffff; opacity: 0.8; stroke: #cccccc; stroke-linejoin: miter"/>
    </g>
    <g id="line2d_19">
     <path d="M 124.391997 62.0338 
L 132.721997 62.0338 
L 141.051997 62.0338 
" style="fill: none; stroke-dasharray: 5.55,2.4; stroke-dashoffset: 0; stroke: #1f77b4; stroke-width: 1.5"/>
    </g>
    <g id="text_13">
     <!-- valence $^3\Sigma^-_1$ -->
     <g transform="translate(147.715997 64.9493) scale(0.0833 -0.0833)">
      <defs>
       <path id="DejaVuSans-33" d="M 2597 2516 
Q 3050 2419 3304 2112 
Q 3559 1806 3559 1356 
Q 3559 666 3084 287 
Q 2609 -91 1734 -91 
Q 1441 -91 1130 -33 
Q 819 25 488 141 
L 488 750 
Q 750 597 1062 519 
Q 1375 441 1716 441 
Q 2309 441 2620 675 
Q 2931 909 2931 1356 
Q 2931 1769 2642 2001 
Q 2353 2234 1838 2234 
L 1294 2234 
L 1294 2753 
L 1863 2753 
Q 2328 2753 2575 2939 
Q 2822 3125 2822 3475 
Q 2822 3834 2567 4026 
Q 2313 4219 1838 4219 
Q 1578 4219 1281 4162 
Q 984 4106 628 3988 
L 628 4550 
Q 988 4650 1302 4700 
Q 1616 4750 1894 4750 
Q 2613 4750 3031 4423 
Q 3450 4097 3450 3541 
Q 3450 3153 3228 2886 
Q 3006 2619 2597 2516 
z
" transform="scale(0.015625)"/>
       <path id="DejaVuSans-3a3" d="M 1353 531 
L 3634 531 
L 3634 0 
L 628 0 
L 628 531 
L 2125 2481 
L 628 4134 
L 628 4666 
L 3578 4666 
L 3578 4134 
L 1353 4134 
L 2850 2494 
L 1353 531 
z
" transform="scale(0.015625)"/>
      </defs>
      <use xlink:href="#DejaVuSans-76" transform="translate(0 0.765625)"/>
      <use xlink:href="#DejaVuSans-61" transform="translate(59.179688 0.765625)"/>
      <use xlink:href="#DejaVuSans-6c" transform="translate(120.458984 0.765625)"/>
      <use xlink:href="#DejaVuSans-65" transform="translate(148.242188 0.765625)"/>
      <use xlink:href="#DejaVuSans-6e" transform="translate(209.765625 0.765625)"/>
      <use xlink:href="#DejaVuSans-63" transform="translate(273.144531 0.765625)"/>
      <use xlink:href="#DejaVuSans-65" transform="translate(328.125 0.765625)"/>
      <use xlink:href="#DejaVuSans-20" transform="translate(389.648438 0.765625)"/>
      <use xlink:href="#DejaVuSans-33" transform="translate(422.392578 39.046875) scale(0.7)"/>
      <use xlink:href="#DejaVuSans-3a3" transform="translate(469.663086 0.765625)"/>
      <use xlink:href="#DejaVuSans-2212" transform="translate(547.441406 39.046875) scale(0.7)"/>
      <use xlink:href="#DejaVuSans-31" transform="translate(533.803711 -26.578125) scale(0.7)"/>
     </g>
    </g>
    <g id="line2d_20">
     <path d="M 124.391997 74.4455 
L 132.721997 74.4455 
L 141.051997 74.4455 
" style="fill: none; stroke-dasharray: 5.55,2.4; stroke-dashoffset: 0; stroke: #ff7f0e; stroke-width: 1.5"/>
    </g>
    <g id="text_14">
     <!-- Rygberg $^3\Sigma^-_1$ -->
     <g transform="translate(147.715997 77.361) scale(0.0833 -0.0833)">
      <defs>
       <path id="DejaVuSans-52" d="M 2841 2188 
Q 3044 2119 3236 1894 
Q 3428 1669 3622 1275 
L 4263 0 
L 3584 0 
L 2988 1197 
Q 2756 1666 2539 1819 
Q 2322 1972 1947 1972 
L 1259 1972 
L 1259 0 
L 628 0 
L 628 4666 
L 2053 4666 
Q 2853 4666 3247 4331 
Q 3641 3997 3641 3322 
Q 3641 2881 3436 2590 
Q 3231 2300 2841 2188 
z
M 1259 4147 
L 1259 2491 
L 2053 2491 
Q 2509 2491 2742 2702 
Q 2975 2913 2975 3322 
Q 2975 3731 2742 3939 
Q 2509 4147 2053 4147 
L 1259 4147 
z
" transform="scale(0.015625)"/>
      </defs>
      <use xlink:href="#DejaVuSans-52" transform="translate(0 0.765625)"/>
      <use xlink:href="#DejaVuSans-79" transform="translate(69.482422 0.765625)"/>
      <use xlink:href="#DejaVuSans-67" transform="translate(128.662109 0.765625)"/>
      <use xlink:href="#DejaVuSans-62" transform="translate(192.138672 0.765625)"/>
      <use xlink:href="#DejaVuSans-65" transform="translate(255.615234 0.765625)"/>
      <use xlink:href="#DejaVuSans-72" transform="translate(317.138672 0.765625)"/>
      <use xlink:href="#DejaVuSans-67" transform="translate(358.251953 0.765625)"/>
      <use xlink:href="#DejaVuSans-20" transform="translate(421.728516 0.765625)"/>
      <use xlink:href="#DejaVuSans-33" transform="translate(454.472656 39.046875) scale(0.7)"/>
      <use xlink:href="#DejaVuSans-3a3" transform="translate(501.743164 0.765625)"/>
      <use xlink:href="#DejaVuSans-2212" transform="translate(579.521484 39.046875) scale(0.7)"/>
      <use xlink:href="#DejaVuSans-31" transform="translate(565.883789 -26.578125) scale(0.7)"/>
     </g>
    </g>
    <g id="line2d_21">
     <path d="M 124.391997 85.606398 
L 132.721997 85.606398 
L 141.051997 85.606398 
" style="fill: none; stroke: #2ca02c; stroke-width: 1.5; stroke-linecap: square"/>
    </g>
    <g id="text_15">
     <!-- valence fit to $\sigma$ -->
     <g transform="translate(147.715997 88.521898) scale(0.0833 -0.0833)">
      <defs>
       <path id="DejaVuSans-66" d="M 2375 4863 
L 2375 4384 
L 1825 4384 
Q 1516 4384 1395 4259 
Q 1275 4134 1275 3809 
L 1275 3500 
L 2222 3500 
L 2222 3053 
L 1275 3053 
L 1275 0 
L 697 0 
L 697 3053 
L 147 3053 
L 147 3500 
L 697 3500 
L 697 3744 
Q 697 4328 969 4595 
Q 1241 4863 1831 4863 
L 2375 4863 
z
" transform="scale(0.015625)"/>
       <path id="DejaVuSans-Oblique-3c3" d="M 2219 3044 
Q 1744 3044 1422 2700 
Q 1081 2341 969 1747 
Q 844 1119 1044 756 
Q 1241 397 1706 397 
Q 2166 397 2503 759 
Q 2844 1122 2966 1747 
Q 3075 2319 2881 2700 
Q 2700 3044 2219 3044 
z
M 2309 3503 
L 4219 3500 
L 4106 2925 
L 3463 2925 
Q 3706 2438 3575 1747 
Q 3406 888 2884 400 
Q 2359 -91 1609 -91 
Q 856 -91 525 400 
Q 194 888 363 1747 
Q 528 2609 1050 3097 
Q 1484 3503 2309 3503 
z
" transform="scale(0.015625)"/>
      </defs>
      <use xlink:href="#DejaVuSans-76" transform="translate(0 0.015625)"/>
      <use xlink:href="#DejaVuSans-61" transform="translate(59.179688 0.015625)"/>
      <use xlink:href="#DejaVuSans-6c" transform="translate(120.458984 0.015625)"/>
      <use xlink:href="#DejaVuSans-65" transform="translate(148.242188 0.015625)"/>
      <use xlink:href="#DejaVuSans-6e" transform="translate(209.765625 0.015625)"/>
      <use xlink:href="#DejaVuSans-63" transform="translate(273.144531 0.015625)"/>
      <use xlink:href="#DejaVuSans-65" transform="translate(328.125 0.015625)"/>
      <use xlink:href="#DejaVuSans-20" transform="translate(389.648438 0.015625)"/>
      <use xlink:href="#DejaVuSans-66" transform="translate(421.435547 0.015625)"/>
      <use xlink:href="#DejaVuSans-69" transform="translate(456.640625 0.015625)"/>
      <use xlink:href="#DejaVuSans-74" transform="translate(484.423828 0.015625)"/>
      <use xlink:href="#DejaVuSans-20" transform="translate(523.632812 0.015625)"/>
      <use xlink:href="#DejaVuSans-74" transform="translate(555.419922 0.015625)"/>
      <use xlink:href="#DejaVuSans-6f" transform="translate(594.628906 0.015625)"/>
      <use xlink:href="#DejaVuSans-20" transform="translate(655.810547 0.015625)"/>
      <use xlink:href="#DejaVuSans-Oblique-3c3" transform="translate(687.597656 0.015625)"/>
     </g>
    </g>
    <g id="line2d_22">
     <path d="M 124.391997 96.168578 
L 132.721997 96.168578 
L 141.051997 96.168578 
" style="fill: none; stroke: #d62728; stroke-width: 1.5; stroke-linecap: square"/>
    </g>
    <g id="text_16">
     <!-- Rydberg fit to $\sigma$ -->
     <g transform="translate(147.715997 99.084078) scale(0.0833 -0.0833)">
      <use xlink:href="#DejaVuSans-52" transform="translate(0 0.015625)"/>
      <use xlink:href="#DejaVuSans-79" transform="translate(69.482422 0.015625)"/>
      <use xlink:href="#DejaVuSans-64" transform="translate(128.662109 0.015625)"/>
      <use xlink:href="#DejaVuSans-62" transform="translate(192.138672 0.015625)"/>
      <use xlink:href="#DejaVuSans-65" transform="translate(255.615234 0.015625)"/>
      <use xlink:href="#DejaVuSans-72" transform="translate(317.138672 0.015625)"/>
      <use xlink:href="#DejaVuSans-67" transform="translate(358.251953 0.015625)"/>
      <use xlink:href="#DejaVuSans-20" transform="translate(421.728516 0.015625)"/>
      <use xlink:href="#DejaVuSans-66" transform="translate(453.515625 0.015625)"/>
      <use xlink:href="#DejaVuSans-69" transform="translate(488.720703 0.015625)"/>
      <use xlink:href="#DejaVuSans-74" transform="translate(516.503906 0.015625)"/>
      <use xlink:href="#DejaVuSans-20" transform="translate(555.712891 0.015625)"/>
      <use xlink:href="#DejaVuSans-74" transform="translate(587.5 0.015625)"/>
      <use xlink:href="#DejaVuSans-6f" transform="translate(626.708984 0.015625)"/>
      <use xlink:href="#DejaVuSans-20" transform="translate(687.890625 0.015625)"/>
      <use xlink:href="#DejaVuSans-Oblique-3c3" transform="translate(719.677734 0.015625)"/>
     </g>
    </g>
   </g>
  </g>
  <g id="axes_2">
   <g id="patch_8">
    <path d="M 242.655803 296.296 
L 418.498 296.296 
L 418.498 49.872 
L 242.655803 49.872 
z
" style="fill: #ffffff"/>
   </g>
   <g id="matplotlib.axis_3">
    <g id="xtick_5">
     <g id="line2d_23">
      <g>
       <use xlink:href="#m3707f2b32f" x="242.655803" y="296.296" style="stroke: #000000; stroke-width: 0.8"/>
      </g>
     </g>
     <g id="text_17">
      <!-- $\mathdefault{10^{-20}}$ -->
      <g transform="translate(228.705803 310.894437) scale(0.1 -0.1)">
       <use xlink:href="#DejaVuSans-31" transform="translate(0 0.765625)"/>
       <use xlink:href="#DejaVuSans-30" transform="translate(63.623047 0.765625)"/>
       <use xlink:href="#DejaVuSans-2212" transform="translate(128.203125 39.046875) scale(0.7)"/>
       <use xlink:href="#DejaVuSans-32" transform="translate(186.855469 39.046875) scale(0.7)"/>
       <use xlink:href="#DejaVuSans-30" transform="translate(231.391602 39.046875) scale(0.7)"/>
      </g>
     </g>
    </g>
    <g id="xtick_6">
     <g id="line2d_24">
      <g>
       <use xlink:href="#m3707f2b32f" x="317.498672" y="296.296" style="stroke: #000000; stroke-width: 0.8"/>
      </g>
     </g>
     <g id="text_18">
      <!-- $\mathdefault{10^{-18}}$ -->
      <g transform="translate(303.548672 310.894437) scale(0.1 -0.1)">
       <use xlink:href="#DejaVuSans-31" transform="translate(0 0.765625)"/>
       <use xlink:href="#DejaVuSans-30" transform="translate(63.623047 0.765625)"/>
       <use xlink:href="#DejaVuSans-2212" transform="translate(128.203125 39.046875) scale(0.7)"/>
       <use xlink:href="#DejaVuSans-31" transform="translate(186.855469 39.046875) scale(0.7)"/>
       <use xlink:href="#DejaVuSans-38" transform="translate(231.391602 39.046875) scale(0.7)"/>
      </g>
     </g>
    </g>
    <g id="xtick_7">
     <g id="line2d_25">
      <g>
       <use xlink:href="#m3707f2b32f" x="392.34154" y="296.296" style="stroke: #000000; stroke-width: 0.8"/>
      </g>
     </g>
     <g id="text_19">
      <!-- $\mathdefault{10^{-16}}$ -->
      <g transform="translate(378.39154 310.894437) scale(0.1 -0.1)">
       <use xlink:href="#DejaVuSans-31" transform="translate(0 0.765625)"/>
       <use xlink:href="#DejaVuSans-30" transform="translate(63.623047 0.765625)"/>
       <use xlink:href="#DejaVuSans-2212" transform="translate(128.203125 39.046875) scale(0.7)"/>
       <use xlink:href="#DejaVuSans-31" transform="translate(186.855469 39.046875) scale(0.7)"/>
       <use xlink:href="#DejaVuSans-36" transform="translate(231.391602 39.046875) scale(0.7)"/>
      </g>
     </g>
    </g>
    <g id="text_20">
     <!-- cross section (cm$^2$) -->
     <g transform="translate(282.376902 325.394437) scale(0.1 -0.1)">
      <use xlink:href="#DejaVuSans-63" transform="translate(0 0.765625)"/>
      <use xlink:href="#DejaVuSans-72" transform="translate(54.980469 0.765625)"/>
      <use xlink:href="#DejaVuSans-6f" transform="translate(96.09375 0.765625)"/>
      <use xlink:href="#DejaVuSans-73" transform="translate(157.275391 0.765625)"/>
      <use xlink:href="#DejaVuSans-73" transform="translate(209.375 0.765625)"/>
      <use xlink:href="#DejaVuSans-20" transform="translate(261.474609 0.765625)"/>
      <use xlink:href="#DejaVuSans-73" transform="translate(293.261719 0.765625)"/>
      <use xlink:href="#DejaVuSans-65" transform="translate(345.361328 0.765625)"/>
      <use xlink:href="#DejaVuSans-63" transform="translate(406.884766 0.765625)"/>
      <use xlink:href="#DejaVuSans-74" transform="translate(461.865234 0.765625)"/>
      <use xlink:href="#DejaVuSans-69" transform="translate(501.074219 0.765625)"/>
      <use xlink:href="#DejaVuSans-6f" transform="translate(528.857422 0.765625)"/>
      <use xlink:href="#DejaVuSans-6e" transform="translate(590.039062 0.765625)"/>
      <use xlink:href="#DejaVuSans-20" transform="translate(653.417969 0.765625)"/>
      <use xlink:href="#DejaVuSans-28" transform="translate(685.205078 0.765625)"/>
      <use xlink:href="#DejaVuSans-63" transform="translate(724.21875 0.765625)"/>
      <use xlink:href="#DejaVuSans-6d" transform="translate(779.199219 0.765625)"/>
      <use xlink:href="#DejaVuSans-32" transform="translate(877.568359 39.046875) scale(0.7)"/>
      <use xlink:href="#DejaVuSans-29" transform="translate(924.838867 0.765625)"/>
     </g>
    </g>
   </g>
   <g id="matplotlib.axis_4">
    <g id="ytick_6">
     <g id="line2d_26">
      <g>
       <use xlink:href="#m7cf7e59db8" x="418.498" y="281.631081" style="stroke: #000000; stroke-width: 0.8"/>
      </g>
     </g>
     <g id="text_21">
      <!-- 5 -->
      <g transform="translate(425.498 285.4303) scale(0.1 -0.1)">
       <use xlink:href="#DejaVuSans-35"/>
      </g>
     </g>
    </g>
    <g id="ytick_7">
     <g id="line2d_27">
      <g>
       <use xlink:href="#m7cf7e59db8" x="418.498" y="227.183669" style="stroke: #000000; stroke-width: 0.8"/>
      </g>
     </g>
     <g id="text_22">
      <!-- 6 -->
      <g transform="translate(425.498 230.982888) scale(0.1 -0.1)">
       <use xlink:href="#DejaVuSans-36"/>
      </g>
     </g>
    </g>
    <g id="ytick_8">
     <g id="line2d_28">
      <g>
       <use xlink:href="#m7cf7e59db8" x="418.498" y="172.736257" style="stroke: #000000; stroke-width: 0.8"/>
      </g>
     </g>
     <g id="text_23">
      <!-- 7 -->
      <g transform="translate(425.498 176.535475) scale(0.1 -0.1)">
       <use xlink:href="#DejaVuSans-37"/>
      </g>
     </g>
    </g>
    <g id="ytick_9">
     <g id="line2d_29">
      <g>
       <use xlink:href="#m7cf7e59db8" x="418.498" y="118.288845" style="stroke: #000000; stroke-width: 0.8"/>
      </g>
     </g>
     <g id="text_24">
      <!-- 8 -->
      <g transform="translate(425.498 122.088063) scale(0.1 -0.1)">
       <use xlink:href="#DejaVuSans-38"/>
      </g>
     </g>
    </g>
    <g id="ytick_10">
     <g id="line2d_30">
      <g>
       <use xlink:href="#m7cf7e59db8" x="418.498" y="63.841432" style="stroke: #000000; stroke-width: 0.8"/>
      </g>
     </g>
     <g id="text_25">
      <!-- 9 -->
      <g transform="translate(425.498 67.640651) scale(0.1 -0.1)">
       <use xlink:href="#DejaVuSans-39"/>
      </g>
     </g>
    </g>
    <g id="text_26">
     <!-- wavenumber (cm$^{-1}$) -->
     <g transform="translate(444.180813 224.284) rotate(-90) scale(0.1 -0.1)">
      <defs>
       <path id="DejaVuSans-77" d="M 269 3500 
L 844 3500 
L 1563 769 
L 2278 3500 
L 2956 3500 
L 3675 769 
L 4391 3500 
L 4966 3500 
L 4050 0 
L 3372 0 
L 2619 2869 
L 1863 0 
L 1184 0 
L 269 3500 
z
" transform="scale(0.015625)"/>
      </defs>
      <use xlink:href="#DejaVuSans-77" transform="translate(0 0.684375)"/>
      <use xlink:href="#DejaVuSans-61" transform="translate(81.787109 0.684375)"/>
      <use xlink:href="#DejaVuSans-76" transform="translate(143.066406 0.684375)"/>
      <use xlink:href="#DejaVuSans-65" transform="translate(202.246094 0.684375)"/>
      <use xlink:href="#DejaVuSans-6e" transform="translate(263.769531 0.684375)"/>
      <use xlink:href="#DejaVuSans-75" transform="translate(327.148438 0.684375)"/>
      <use xlink:href="#DejaVuSans-6d" transform="translate(390.527344 0.684375)"/>
      <use xlink:href="#DejaVuSans-62" transform="translate(487.939453 0.684375)"/>
      <use xlink:href="#DejaVuSans-65" transform="translate(551.416016 0.684375)"/>
      <use xlink:href="#DejaVuSans-72" transform="translate(612.939453 0.684375)"/>
      <use xlink:href="#DejaVuSans-20" transform="translate(654.052734 0.684375)"/>
      <use xlink:href="#DejaVuSans-28" transform="translate(685.839844 0.684375)"/>
      <use xlink:href="#DejaVuSans-63" transform="translate(724.853516 0.684375)"/>
      <use xlink:href="#DejaVuSans-6d" transform="translate(779.833984 0.684375)"/>
      <use xlink:href="#DejaVuSans-2212" transform="translate(878.203125 38.965625) scale(0.7)"/>
      <use xlink:href="#DejaVuSans-31" transform="translate(936.855469 38.965625) scale(0.7)"/>
      <use xlink:href="#DejaVuSans-29" transform="translate(984.125977 0.684375)"/>
     </g>
    </g>
    <g id="text_27">
     <!-- 1e4 -->
     <g transform="translate(399.619875 46.872) scale(0.1 -0.1)">
      <use xlink:href="#DejaVuSans-31"/>
      <use xlink:href="#DejaVuSans-65" x="63.623047"/>
      <use xlink:href="#DejaVuSans-34" x="125.146484"/>
     </g>
    </g>
   </g>
   <g id="line2d_31">
    <path d="M 295.071342 241.848588 
L 299.883721 239.50664 
L 306.153335 236.205294 
L 311.701658 233.023049 
L 316.911776 229.776403 
L 321.799456 226.463378 
L 326.3793 223.08192 
L 330.419485 219.834938 
L 334.445138 216.31444 
L 338.442348 212.505056 
L 342.421846 208.389638 
L 346.610839 203.724012 
L 350.825591 198.699113 
L 354.302913 194.241906 
L 357.018905 190.400771 
L 358.829761 187.465637 
L 360.110208 184.983236 
L 361.020537 182.720138 
L 361.584448 180.685056 
L 361.855111 178.885964 
L 361.901805 177.330022 
L 361.721179 175.498356 
L 361.279857 173.648783 
L 360.578795 171.781039 
L 359.631405 169.894854 
L 358.459853 167.989955 
L 356.879296 165.789652 
L 354.587914 163.003733 
L 351.969637 160.177526 
L 348.97574 157.310151 
L 346.210707 154.986001 
L 343.414071 152.929908 
L 340.622271 151.150596 
L 337.872618 149.655728 
L 335.848287 148.753468 
L 334.013191 148.14972 
L 332.598209 147.847171 
L 329.908011 147.54417 
L 306.58845 146.93681 
L 330.697244 146.632449 
L 331.752958 146.327632 
L 331.290206 146.022358 
L 328.945026 145.103786 
L 324.309779 143.563604 
L 319.740557 142.323076 
L 315.358541 141.387747 
L 311.589819 140.761828 
L 306.580064 140.134007 
L 299.134985 139.504275 
L 293.613751 139.188689 
L 285.692057 138.872622 
L 272.801145 138.556073 
L 244.340417 138.239041 
L 231.404593 137.921525 
L 275.485228 137.603523 
L 294.553415 137.285034 
L 305.929659 136.966058 
L 312.6893 136.646593 
L 316.272705 136.326637 
L 317.736697 136.006191 
L 317.909777 135.685253 
L 317.318642 135.363821 
L 315.027216 134.719472 
L 310.469885 133.749221 
L 303.289486 132.448543 
L 296.682947 131.467737 
L 291.198426 130.811326 
L 284.153453 130.152872 
L 274.14694 129.492365 
L 267.003489 129.161339 
L 257.033039 128.829796 
L 240.939718 128.497734 
L 201.387275 128.165154 
L 217.461184 127.832053 
L 250.99523 127.49843 
L 281.486081 126.829615 
L 300.169886 126.158698 
L 313.368747 125.48567 
L 321.077545 124.81052 
L 322.712252 124.472147 
L 323.081614 124.133239 
L 322.515289 123.793796 
L 319.846765 123.113299 
L 310.349621 121.058824 
L 307.978222 120.369637 
L 306.259279 119.678252 
L 305.709034 119.331732 
L 305.432265 118.984658 
L 305.487879 118.637029 
L 305.97554 118.288845 
L 307.056602 117.940102 
L 308.962066 117.590801 
L 312.139244 117.240939 
L 317.391502 116.890516 
L 326.563575 116.53953 
L 344.070861 116.18798 
L 348.924645 115.835864 
L 292.249517 115.129929 
L 208.330182 113.711212 
L 149.953498 113.355098 
L 203.764344 112.641139 
L 214.424054 112.283291 
L 225.553554 111.56585 
L 232.124691 110.846074 
L 249.421021 108.672621 
L 257.37768 107.94339 
L 267.584213 107.211766 
L 281.231607 106.477738 
L 300.759496 105.741293 
L 324.627403 105.002419 
L 322.703378 104.632068 
L 303.702493 103.889529 
L 291.555191 103.144531 
L 284.407116 102.397063 
L 280.187906 101.647111 
L 278.859102 101.271199 
L 277.98297 100.894663 
L 277.500108 100.517499 
L 277.414612 100.139707 
L 277.711983 99.761285 
L 278.407574 99.382231 
L 279.53348 99.002543 
L 281.11123 98.622221 
L 285.858323 97.859665 
L 292.875162 97.09455 
L 300.129137 96.326863 
L 301.081879 95.942051 
L 298.517836 95.556592 
L 286.917668 94.783722 
L 275.065458 94.008242 
L 265.821029 93.230137 
L 259.158485 92.449395 
L 254.804572 91.666001 
L 253.436078 91.273306 
L 252.621675 90.879943 
L 252.344797 90.485911 
L 252.664753 90.091207 
L 253.607855 89.69583 
L 255.276662 89.299779 
L 257.797572 88.903051 
L 261.385098 88.505645 
L 266.418695 88.107559 
L 273.532799 87.708791 
L 284.018427 87.30934 
L 299.906549 86.909204 
L 310.912474 86.508381 
L 274.042431 85.704667 
L 251.307762 84.898183 
L 236.523392 84.088917 
L 225.696387 83.276853 
L 217.4377 82.461976 
L 211.219292 81.644272 
L 206.985615 80.823727 
L 205.745863 80.412384 
L 205.338767 80.000325 
L 206.229091 79.587548 
L 209.820644 79.174051 
L 222.859529 78.759833 
L 223.29734 78.344891 
L 137.593788 77.929224 
L 172.511379 77.51283 
L 180.924225 77.095706 
L 180.924225 77.095706 
" clip-path="url(#paab7a07928)" style="fill: none; stroke: #1f77b4; stroke-width: 1.5; stroke-linecap: square"/>
   </g>
   <g id="line2d_32">
    <path d="M 297.488579 241.848588 
L 298.317609 241.669678 
L 297.013683 241.490562 
L 297.472761 241.311241 
L 299.531518 241.131714 
L 299.341644 240.95198 
L 299.942694 240.77204 
L 299.246643 240.591892 
L 300.275114 240.411538 
L 300.616538 240.050204 
L 301.444409 239.869225 
L 301.308637 239.688037 
L 302.644076 239.50664 
L 302.141125 239.325033 
L 302.23971 239.143216 
L 303.476209 238.778951 
L 303.601398 238.596502 
L 303.915895 238.413842 
L 305.219422 238.23097 
L 304.500028 238.047886 
L 306.672661 237.681079 
L 307.087655 237.497356 
L 306.141941 237.31342 
L 306.421295 237.129269 
L 308.424373 236.57553 
L 309.406607 236.019851 
L 310.120152 235.834192 
L 311.047576 235.275911 
L 311.902051 235.089382 
L 311.961042 234.715667 
L 313.500549 234.153449 
L 313.295129 233.965603 
L 313.541028 233.777535 
L 314.160397 233.589247 
L 314.099692 233.400736 
L 315.118372 232.833872 
L 315.045582 232.644471 
L 316.179011 232.454847 
L 316.970275 231.884628 
L 320.521229 231.694105 
L 318.493266 231.503357 
L 318.020976 231.312383 
L 320.447114 231.121182 
L 320.353039 230.929754 
L 321.936062 230.738099 
L 319.511385 230.546217 
L 320.167513 230.354106 
L 322.505327 229.9692 
L 322.50473 229.776403 
L 320.644097 229.583376 
L 322.139364 229.390119 
L 322.052897 229.196632 
L 323.87944 228.808965 
L 323.276185 228.614784 
L 323.635071 228.42037 
L 323.344381 228.225725 
L 324.111861 228.030846 
L 324.131324 227.835734 
L 325.238494 227.444807 
L 324.153029 227.248993 
L 325.574666 227.052943 
L 324.919122 226.856657 
L 325.740131 226.660136 
L 325.728675 226.463378 
L 326.416278 226.266384 
L 326.16174 226.069152 
L 326.994806 225.871683 
L 326.990004 225.47603 
L 328.493831 225.079421 
L 327.884719 224.880757 
L 328.240537 224.681853 
L 328.837424 224.482708 
L 328.46257 224.283322 
L 329.38425 224.083695 
L 329.937937 223.483359 
L 330.293771 223.282761 
L 330.977497 223.08192 
L 330.880485 222.880834 
L 331.09908 222.679503 
L 331.12004 222.477928 
L 332.428207 222.07404 
L 332.721418 221.669166 
L 332.460797 221.466358 
L 333.213091 221.263303 
L 333.145095 221.059999 
L 333.426676 220.652645 
L 334.492795 220.244293 
L 334.50176 219.629884 
L 334.819743 219.424578 
L 335.571648 219.21902 
L 335.668264 219.013208 
L 335.413039 218.807144 
L 336.349051 218.600826 
L 336.328299 218.394253 
L 336.964681 218.187426 
L 337.004518 217.980343 
L 336.783282 217.773005 
L 337.685851 217.35756 
L 337.56673 217.149452 
L 337.582701 216.941086 
L 338.35914 216.732463 
L 338.458029 216.523581 
L 338.173752 216.31444 
L 339.215094 216.105039 
L 338.979485 215.895379 
L 340.268307 215.475276 
L 339.899147 215.264832 
L 339.943971 215.054127 
L 340.753036 214.843159 
L 340.581741 214.631929 
L 340.893329 214.420435 
L 340.962718 214.208677 
L 340.721374 213.996655 
L 341.636032 213.571816 
L 341.323829 213.358998 
L 342.482952 212.932562 
L 341.873984 212.718943 
L 342.554063 212.505056 
L 342.833522 212.290901 
L 342.913159 212.076477 
L 343.483453 211.646821 
L 343.487296 211.431587 
L 343.884446 210.784259 
L 344.416305 210.567939 
L 344.253273 210.351346 
L 345.22696 209.917338 
L 345.300885 209.699923 
L 345.220438 209.482233 
L 346.131478 208.827507 
L 345.8817 208.608711 
L 346.037962 208.389638 
L 346.379428 208.170287 
L 346.849151 207.290089 
L 347.117255 207.069338 
L 346.960738 206.848306 
L 347.790609 206.626993 
L 348.011528 205.961355 
L 348.567739 205.738908 
L 348.701246 205.516177 
L 348.502718 205.29316 
L 349.283785 204.622393 
L 349.491197 204.398231 
L 349.409553 204.17378 
L 349.93252 203.724012 
L 350.237935 203.498694 
L 350.051082 203.273086 
L 350.592341 203.047187 
L 350.58031 202.594515 
L 351.074964 202.36774 
L 351.224234 202.140673 
L 350.959809 201.913312 
L 351.518501 201.685657 
L 351.329573 201.457707 
L 351.467872 201.229462 
L 351.793575 201.000921 
L 351.67187 200.772084 
L 352.334043 199.853758 
L 352.317437 199.62343 
L 353.047084 199.161874 
L 352.827361 198.930644 
L 353.359671 198.699113 
L 353.064418 198.467279 
L 353.543446 198.002703 
L 353.519549 197.769959 
L 353.846665 197.303557 
L 353.939406 197.069897 
L 354.25408 196.601658 
L 354.279001 196.132188 
L 355.214349 195.661483 
L 355.026532 195.425665 
L 354.983041 195.189537 
L 355.11445 194.953098 
L 355.384707 194.716347 
L 355.222646 194.479283 
L 355.278542 194.241906 
L 355.806567 193.76621 
L 355.399862 193.527889 
L 356.415211 192.571445 
L 356.426918 192.33154 
L 356.086231 192.091317 
L 356.07912 191.850774 
L 356.869229 191.609911 
L 356.984715 191.368727 
L 356.881765 190.885394 
L 356.7458 190.643244 
L 357.983902 190.400771 
L 358.539465 190.157974 
L 357.405046 189.671405 
L 357.516523 189.427632 
L 357.958982 189.183533 
L 358.02866 188.939106 
L 357.88589 188.694351 
L 358.268489 188.449268 
L 358.06928 188.203856 
L 358.193722 187.958114 
L 358.447112 187.712041 
L 358.137421 187.465637 
L 358.561692 186.724432 
L 358.458881 186.476697 
L 358.856334 185.980222 
L 358.744462 185.731481 
L 359.041893 185.482403 
L 359.102692 184.733144 
L 358.980233 184.482713 
L 359.358857 183.729378 
L 359.521786 183.225445 
L 359.356878 182.720138 
L 360.079035 182.213451 
L 359.74179 181.705379 
L 359.782689 181.450822 
L 360.180353 181.195916 
L 360.013593 180.940661 
L 359.990769 180.429101 
L 360.231068 180.172794 
L 360.218639 179.916135 
L 360.006939 179.401758 
L 360.291672 179.144039 
L 359.884907 178.627534 
L 360.30883 178.109604 
L 360.268534 176.808501 
L 360.401771 176.285533 
L 360.176707 175.761113 
L 360.458738 175.498356 
L 360.342974 175.235234 
L 360.462321 174.70789 
L 360.281276 174.443667 
L 360.495798 174.179075 
L 360.516888 173.914114 
L 360.261399 173.648783 
L 360.345418 173.383081 
L 360.116262 173.117008 
L 360.242083 172.583743 
L 360.189521 172.31655 
L 360.322706 171.781039 
L 359.912662 171.512719 
L 359.722693 171.244023 
L 359.94896 170.974948 
L 359.968031 170.705495 
L 360.124877 170.435662 
L 359.631978 170.165449 
L 359.794132 169.894854 
L 359.343885 169.623878 
L 359.904173 169.352519 
L 359.581185 168.26324 
L 359.591917 167.989955 
L 359.235205 167.716282 
L 359.255132 167.442222 
L 358.79563 167.167771 
L 358.712706 166.892931 
L 358.913636 166.342077 
L 358.928628 166.066061 
L 358.482654 165.512848 
L 358.342517 164.958055 
L 357.635218 164.680063 
L 358.005692 164.401674 
L 357.859871 163.843699 
L 357.451148 163.564112 
L 357.299259 163.284123 
L 357.322967 163.003733 
L 357.154154 162.722939 
L 356.674763 162.441742 
L 356.688762 162.160141 
L 356.58362 161.878133 
L 356.087592 161.59572 
L 355.695075 161.02967 
L 355.653185 160.746032 
L 355.369538 160.461985 
L 355.585622 160.177526 
L 355.230142 159.892656 
L 354.63485 159.607373 
L 354.371802 159.321677 
L 353.242177 158.74904 
L 353.099304 158.462099 
L 353.257594 158.174739 
L 352.705959 157.886962 
L 351.806748 157.598767 
L 350.902496 157.021114 
L 349.543069 156.441776 
L 348.585507 156.151472 
L 344.558051 155.569589 
L 343.830773 155.278009 
L 342.39861 154.986001 
L 335.328457 154.400701 
L 333.661255 154.107406 
L 330.387428 153.813681 
L 312.642187 153.224932 
L 308.884712 152.929908 
L 297.615236 152.634449 
L 279.338054 152.338554 
L 291.12667 152.042222 
L 290.386248 151.745452 
L 299.425867 151.448244 
L 288.554327 151.150596 
L 310.602793 150.553978 
L 320.362852 149.655728 
L 322.059527 149.355421 
L 324.437154 148.753468 
L 327.848396 148.451819 
L 326.461187 148.14972 
L 323.98871 147.847171 
L 326.28061 147.54417 
L 326.006697 147.240717 
L 324.359236 146.93681 
L 324.635934 146.632449 
L 324.676738 146.327632 
L 323.698562 146.022358 
L 322.324704 145.716626 
L 321.615161 145.410436 
L 321.845518 145.103786 
L 320.233574 144.796676 
L 319.682074 144.489103 
L 314.80877 143.563604 
L 308.472278 142.944276 
L 305.498595 142.633911 
L 305.70792 142.323076 
L 303.51318 142.011771 
L 302.134141 141.699995 
L 288.228992 141.075025 
L 285.263121 140.761828 
L 285.970627 140.448156 
L 269.820397 140.134007 
L 270.760377 139.81938 
L 265.916694 139.504275 
L 256.243115 139.188689 
L 257.498134 138.872622 
L 269.558852 138.556073 
L 269.278033 138.239041 
L 282.92424 137.603523 
L 296.741198 136.006191 
L 297.138792 135.685253 
L 300.921533 135.363821 
L 302.183008 134.719472 
L 303.974381 133.749221 
L 306.27969 133.424805 
L 305.229798 133.099887 
L 304.769474 132.774467 
L 303.380722 132.448543 
L 303.369522 132.122114 
L 303.640297 131.795179 
L 302.855958 131.467737 
L 302.806226 131.139787 
L 301.676928 130.811326 
L 301.412824 130.482355 
L 300.720772 130.152872 
L 294.969698 129.492365 
L 293.771126 129.161339 
L 291.495796 128.829796 
L 281.5879 127.832053 
L 277.987192 127.49843 
L 271.281575 127.164285 
L 267.794908 126.829615 
L 256.37158 126.49442 
L 256.133565 126.158698 
L 244.167651 125.822449 
L 258.342885 125.48567 
L 263.541736 125.148361 
L 275.289171 124.81052 
L 277.67082 124.133239 
L 292.99215 123.113299 
L 298.192224 122.772242 
L 300.295221 122.430644 
L 300.317081 122.088505 
L 301.072759 121.745823 
L 304.647373 121.402596 
L 309.938963 120.369637 
L 312.412889 120.02422 
L 313.384028 119.678252 
L 314.848151 119.331732 
L 325.393407 117.590801 
L 334.357721 116.890516 
L 353.320481 116.18798 
L 350.602986 115.835864 
L 305.583562 115.129929 
L 295.00379 114.776108 
L 293.638748 114.421716 
L 301.483641 113.711212 
L 303.595511 113.355098 
L 304.094173 112.998408 
L 306.320963 112.641139 
L 307.020501 112.283291 
L 301.906124 111.56585 
L 301.553456 110.846074 
L 298.445708 109.762007 
L 295.445576 109.036343 
L 294.691322 108.672621 
L 292.550108 108.308304 
L 277.875769 107.211766 
L 272.010341 106.845053 
L 260.046757 106.477738 
L 259.755878 106.109818 
L -1 106.107199 
M -1 105.374905 
L 271.919207 105.37216 
L 297.24148 105.002419 
L 304.061958 104.632068 
L 340.349654 103.517338 
L 356.407056 102.771107 
L 361.386799 102.397063 
L 359.8631 102.022398 
L 345.325892 101.271199 
L 337.961052 100.894663 
L 333.890421 100.517499 
L 320.488947 99.761285 
L 313.990388 99.002543 
L 280.249888 96.711029 
L 272.823351 96.326863 
L 242.391093 95.942051 
L 254.548811 95.556592 
L -1 95.553902 
M -1 94.786491 
L 261.646411 94.783722 
L 265.344004 94.396309 
L 277.989853 94.008242 
L 286.883261 93.230137 
L 291.97087 92.449395 
L 300.383231 91.666001 
L 312.842884 90.879943 
L 320.552235 90.091207 
L 322.436869 89.69583 
L 318.369582 89.299779 
L 294.272615 88.505645 
L 277.427463 88.107559 
L 269.216293 87.708791 
L 248.673004 87.30934 
L 250.637891 86.909204 
L 242.382104 86.508381 
L 242.147323 86.106869 
L 277.321309 85.704667 
L 284.993112 85.301772 
L 271.342443 84.493899 
L 261.125154 84.088917 
L 261.832252 83.683235 
L 250.177033 83.276853 
L 258.132549 82.869767 
L 322.305975 81.234356 
L 313.896722 80.823727 
L 295.390118 80.412384 
L 288.350572 79.587548 
L 278.305263 79.174051 
L 273.363246 78.759833 
L 232.134965 78.344891 
L 239.862264 77.929224 
L 250.7563 77.51283 
L -1 77.509967 
L -1 77.509967 
" clip-path="url(#paab7a07928)" style="fill: none; stroke: #ff7f0e; stroke-width: 1.5; stroke-linecap: square"/>
   </g>
   <g id="patch_9">
    <path d="M 242.655803 296.296 
L 242.655803 49.872 
" style="fill: none; stroke: #000000; stroke-width: 0.8; stroke-linejoin: miter; stroke-linecap: square"/>
   </g>
   <g id="patch_10">
    <path d="M 418.498 296.296 
L 418.498 49.872 
" style="fill: none; stroke: #000000; stroke-width: 0.8; stroke-linejoin: miter; stroke-linecap: square"/>
   </g>
   <g id="patch_11">
    <path d="M 242.655803 296.296 
L 418.498 296.296 
" style="fill: none; stroke: #000000; stroke-width: 0.8; stroke-linejoin: miter; stroke-linecap: square"/>
   </g>
   <g id="patch_12">
    <path d="M 242.655803 49.872 
L 418.498 49.872 
" style="fill: none; stroke: #000000; stroke-width: 0.8; stroke-linejoin: miter; stroke-linecap: square"/>
   </g>
   <g id="legend_2">
    <g id="patch_13">
     <path d="M 338.854089 79.323756 
L 412.667 79.323756 
Q 414.333 79.323756 414.333 77.657756 
L 414.333 55.703 
Q 414.333 54.037 412.667 54.037 
L 338.854089 54.037 
Q 337.188089 54.037 337.188089 55.703 
L 337.188089 77.657756 
Q 337.188089 79.323756 338.854089 79.323756 
z
" style="fill: #ffffff; opacity: 0.8; stroke: #cccccc; stroke-linejoin: miter"/>
    </g>
    <g id="line2d_33">
     <path d="M 340.520089 60.782998 
L 348.850089 60.782998 
L 357.180089 60.782998 
" style="fill: none; stroke: #1f77b4; stroke-width: 1.5; stroke-linecap: square"/>
    </g>
    <g id="text_28">
     <!-- PyDiatomic -->
     <g transform="translate(363.844089 63.698498) scale(0.0833 -0.0833)">
      <defs>
       <path id="DejaVuSans-50" d="M 1259 4147 
L 1259 2394 
L 2053 2394 
Q 2494 2394 2734 2622 
Q 2975 2850 2975 3272 
Q 2975 3691 2734 3919 
Q 2494 4147 2053 4147 
L 1259 4147 
z
M 628 4666 
L 2053 4666 
Q 2838 4666 3239 4311 
Q 3641 3956 3641 3272 
Q 3641 2581 3239 2228 
Q 2838 1875 2053 1875 
L 1259 1875 
L 1259 0 
L 628 0 
L 628 4666 
z
" transform="scale(0.015625)"/>
       <path id="DejaVuSans-44" d="M 1259 4147 
L 1259 519 
L 2022 519 
Q 2988 519 3436 956 
Q 3884 1394 3884 2338 
Q 3884 3275 3436 3711 
Q 2988 4147 2022 4147 
L 1259 4147 
z
M 628 4666 
L 1925 4666 
Q 3281 4666 3915 4102 
Q 4550 3538 4550 2338 
Q 4550 1131 3912 565 
Q 3275 0 1925 0 
L 628 0 
L 628 4666 
z
" transform="scale(0.015625)"/>
      </defs>
      <use xlink:href="#DejaVuSans-50"/>
      <use xlink:href="#DejaVuSans-79" x="60.302734"/>
      <use xlink:href="#DejaVuSans-44" x="119.482422"/>
      <use xlink:href="#DejaVuSans-69" x="196.484375"/>
      <use xlink:href="#DejaVuSans-61" x="224.267578"/>
      <use xlink:href="#DejaVuSans-74" x="285.546875"/>
      <use xlink:href="#DejaVuSans-6f" x="324.755859"/>
      <use xlink:href="#DejaVuSans-6d" x="385.9375"/>
      <use xlink:href="#DejaVuSans-69" x="483.349609"/>
      <use xlink:href="#DejaVuSans-63" x="511.132812"/>
     </g>
    </g>
    <g id="line2d_34">
     <path d="M 340.520089 71.343877 
L 348.850089 71.343877 
L 357.180089 71.343877 
" style="fill: none; stroke: #ff7f0e; stroke-width: 1.5; stroke-linecap: square"/>
    </g>
    <g id="text_29">
     <!-- ANU expt. -->
     <g transform="translate(363.844089 74.259377) scale(0.0833 -0.0833)">
      <defs>
       <path id="DejaVuSans-41" d="M 2188 4044 
L 1331 1722 
L 3047 1722 
L 2188 4044 
z
M 1831 4666 
L 2547 4666 
L 4325 0 
L 3669 0 
L 3244 1197 
L 1141 1197 
L 716 0 
L 50 0 
L 1831 4666 
z
" transform="scale(0.015625)"/>
       <path id="DejaVuSans-4e" d="M 628 4666 
L 1478 4666 
L 3547 763 
L 3547 4666 
L 4159 4666 
L 4159 0 
L 3309 0 
L 1241 3903 
L 1241 0 
L 628 0 
L 628 4666 
z
" transform="scale(0.015625)"/>
       <path id="DejaVuSans-55" d="M 556 4666 
L 1191 4666 
L 1191 1831 
Q 1191 1081 1462 751 
Q 1734 422 2344 422 
Q 2950 422 3222 751 
Q 3494 1081 3494 1831 
L 3494 4666 
L 4128 4666 
L 4128 1753 
Q 4128 841 3676 375 
Q 3225 -91 2344 -91 
Q 1459 -91 1007 375 
Q 556 841 556 1753 
L 556 4666 
z
" transform="scale(0.015625)"/>
       <path id="DejaVuSans-78" d="M 3513 3500 
L 2247 1797 
L 3578 0 
L 2900 0 
L 1881 1375 
L 863 0 
L 184 0 
L 1544 1831 
L 300 3500 
L 978 3500 
L 1906 2253 
L 2834 3500 
L 3513 3500 
z
" transform="scale(0.015625)"/>
      </defs>
      <use xlink:href="#DejaVuSans-41"/>
      <use xlink:href="#DejaVuSans-4e" x="68.408203"/>
      <use xlink:href="#DejaVuSans-55" x="143.212891"/>
      <use xlink:href="#DejaVuSans-20" x="216.40625"/>
      <use xlink:href="#DejaVuSans-65" x="248.193359"/>
      <use xlink:href="#DejaVuSans-78" x="307.966797"/>
      <use xlink:href="#DejaVuSans-70" x="367.146484"/>
      <use xlink:href="#DejaVuSans-74" x="430.623047"/>
      <use xlink:href="#DejaVuSans-2e" x="469.832031"/>
     </g>
    </g>
   </g>
  </g>
  <g id="text_30">
   <!-- O$_2$ photodissociation yielding O($^1D_2$) -->
   <g transform="translate(120.78 17.712) scale(0.12 -0.12)">
    <defs>
     <path id="DejaVuSans-4f" d="M 2522 4238 
Q 1834 4238 1429 3725 
Q 1025 3213 1025 2328 
Q 1025 1447 1429 934 
Q 1834 422 2522 422 
Q 3209 422 3611 934 
Q 4013 1447 4013 2328 
Q 4013 3213 3611 3725 
Q 3209 4238 2522 4238 
z
M 2522 4750 
Q 3503 4750 4090 4092 
Q 4678 3434 4678 2328 
Q 4678 1225 4090 567 
Q 3503 -91 2522 -91 
Q 1538 -91 948 565 
Q 359 1222 359 2328 
Q 359 3434 948 4092 
Q 1538 4750 2522 4750 
z
" transform="scale(0.015625)"/>
     <path id="DejaVuSans-68" d="M 3513 2113 
L 3513 0 
L 2938 0 
L 2938 2094 
Q 2938 2591 2744 2837 
Q 2550 3084 2163 3084 
Q 1697 3084 1428 2787 
Q 1159 2491 1159 1978 
L 1159 0 
L 581 0 
L 581 4863 
L 1159 4863 
L 1159 2956 
Q 1366 3272 1645 3428 
Q 1925 3584 2291 3584 
Q 2894 3584 3203 3211 
Q 3513 2838 3513 2113 
z
" transform="scale(0.015625)"/>
     <path id="DejaVuSans-Oblique-44" d="M 1081 4666 
L 2438 4666 
Q 3519 4666 4070 4208 
Q 4622 3750 4622 2847 
Q 4622 2250 4412 1698 
Q 4203 1147 3834 769 
Q 3463 381 2891 190 
Q 2319 0 1538 0 
L 172 0 
L 1081 4666 
z
M 1613 4147 
L 909 519 
L 1734 519 
Q 2794 519 3375 1128 
Q 3956 1738 3956 2847 
Q 3956 3519 3581 3833 
Q 3206 4147 2406 4147 
L 1613 4147 
z
" transform="scale(0.015625)"/>
    </defs>
    <use xlink:href="#DejaVuSans-4f" transform="translate(0 0.684375)"/>
    <use xlink:href="#DejaVuSans-32" transform="translate(79.667969 -15.721875) scale(0.7)"/>
    <use xlink:href="#DejaVuSans-20" transform="translate(126.938477 0.684375)"/>
    <use xlink:href="#DejaVuSans-70" transform="translate(158.725586 0.684375)"/>
    <use xlink:href="#DejaVuSans-68" transform="translate(222.202148 0.684375)"/>
    <use xlink:href="#DejaVuSans-6f" transform="translate(285.581055 0.684375)"/>
    <use xlink:href="#DejaVuSans-74" transform="translate(346.762695 0.684375)"/>
    <use xlink:href="#DejaVuSans-6f" transform="translate(385.97168 0.684375)"/>
    <use xlink:href="#DejaVuSans-64" transform="translate(447.15332 0.684375)"/>
    <use xlink:href="#DejaVuSans-69" transform="translate(510.629883 0.684375)"/>
    <use xlink:href="#DejaVuSans-73" transform="translate(538.413086 0.684375)"/>
    <use xlink:href="#DejaVuSans-73" transform="translate(590.512695 0.684375)"/>
    <use xlink:href="#DejaVuSans-6f" transform="translate(642.612305 0.684375)"/>
    <use xlink:href="#DejaVuSans-63" transform="translate(703.793945 0.684375)"/>
    <use xlink:href="#DejaVuSans-69" transform="translate(758.774414 0.684375)"/>
    <use xlink:href="#DejaVuSans-61" transform="translate(786.557617 0.684375)"/>
    <use xlink:href="#DejaVuSans-74" transform="translate(847.836914 0.684375)"/>
    <use xlink:href="#DejaVuSans-69" transform="translate(887.045898 0.684375)"/>
    <use xlink:href="#DejaVuSans-6f" transform="translate(914.829102 0.684375)"/>
    <use xlink:href="#DejaVuSans-6e" transform="translate(976.010742 0.684375)"/>
    <use xlink:href="#DejaVuSans-20" transform="translate(1039.389648 0.684375)"/>
    <use xlink:href="#DejaVuSans-79" transform="translate(1071.176758 0.684375)"/>
    <use xlink:href="#DejaVuSans-69" transform="translate(1130.356445 0.684375)"/>
    <use xlink:href="#DejaVuSans-65" transform="translate(1158.139648 0.684375)"/>
    <use xlink:href="#DejaVuSans-6c" transform="translate(1219.663086 0.684375)"/>
    <use xlink:href="#DejaVuSans-64" transform="translate(1247.446289 0.684375)"/>
    <use xlink:href="#DejaVuSans-69" transform="translate(1310.922852 0.684375)"/>
    <use xlink:href="#DejaVuSans-6e" transform="translate(1338.706055 0.684375)"/>
    <use xlink:href="#DejaVuSans-67" transform="translate(1402.084961 0.684375)"/>
    <use xlink:href="#DejaVuSans-20" transform="translate(1465.561523 0.684375)"/>
    <use xlink:href="#DejaVuSans-4f" transform="translate(1497.348633 0.684375)"/>
    <use xlink:href="#DejaVuSans-28" transform="translate(1576.05957 0.684375)"/>
    <use xlink:href="#DejaVuSans-31" transform="translate(1616.030273 38.965625) scale(0.7)"/>
    <use xlink:href="#DejaVuSans-Oblique-44" transform="translate(1663.300781 0.684375)"/>
    <use xlink:href="#DejaVuSans-32" transform="translate(1740.302734 -15.721875) scale(0.7)"/>
    <use xlink:href="#DejaVuSans-29" transform="translate(1787.573242 0.684375)"/>
   </g>
  </g>
 </g>
 <defs>
  <clipPath id="p0837e42809">
   <rect x="44.678" y="49.872" width="175.842197" height="246.424"/>
  </clipPath>
  <clipPath id="paab7a07928">
   <rect x="242.655803" y="49.872" width="175.842197" height="246.424"/>
  </clipPath>
 </defs>
</svg>
