<?xml version="1.0" encoding="utf-8" standalone="no"?>
<!DOCTYPE svg PUBLIC "-//W3C//DTD SVG 1.1//EN"
  "http://www.w3.org/Graphics/SVG/1.1/DTD/svg11.dtd">
<svg xmlns:xlink="http://www.w3.org/1999/xlink" width="460.8pt" height="345.6pt" viewBox="0 0 460.8 345.6" xmlns="http://www.w3.org/2000/svg" version="1.1">
 <metadata>
  <rdf:RDF xmlns:dc="http://purl.org/dc/elements/1.1/" xmlns:cc="http://creativecommons.org/ns#" xmlns:rdf="http://www.w3.org/1999/02/22-rdf-syntax-ns#">
   <cc:Work>
    <dc:type rdf:resource="http://purl.org/dc/dcmitype/StillImage"/>
    <dc:date>2023-06-15T15:46:40.635651</dc:date>
    <dc:format>image/svg+xml</dc:format>
    <dc:creator>
     <cc:Agent>
      <dc:title>Matplotlib v3.7.0, https://matplotlib.org/</dc:title>
     </cc:Agent>
    </dc:creator>
   </cc:Work>
  </rdf:RDF>
 </metadata>
 <defs>
  <style type="text/css">*{stroke-linejoin: round; stroke-linecap: butt}</style>
 </defs>
 <g id="figure_1">
  <g id="patch_1">
   <path d="M 0 345.6 
L 460.8 345.6 
L 460.8 0 
L 0 0 
z
" style="fill: #ffffff"/>
  </g>
  <g id="axes_1">
   <g id="patch_2">
    <path d="M 57.6 162.432 
L 414.72 162.432 
L 414.72 41.472 
L 57.6 41.472 
z
" style="fill: #ffffff"/>
   </g>
   <g id="matplotlib.axis_1">
    <g id="xtick_1">
     <g id="line2d_1">
      <defs>
       <path id="m663fb73356" d="M 0 0 
L 0 3.5 
" style="stroke: #000000; stroke-width: 0.8"/>
      </defs>
      <g>
       <use xlink:href="#m663fb73356" x="68.471715" y="162.432" style="stroke: #000000; stroke-width: 0.8"/>
      </g>
     </g>
    </g>
    <g id="xtick_2">
     <g id="line2d_2">
      <g>
       <use xlink:href="#m663fb73356" x="109.041679" y="162.432" style="stroke: #000000; stroke-width: 0.8"/>
      </g>
     </g>
    </g>
    <g id="xtick_3">
     <g id="line2d_3">
      <g>
       <use xlink:href="#m663fb73356" x="149.611642" y="162.432" style="stroke: #000000; stroke-width: 0.8"/>
      </g>
     </g>
    </g>
    <g id="xtick_4">
     <g id="line2d_4">
      <g>
       <use xlink:href="#m663fb73356" x="190.181606" y="162.432" style="stroke: #000000; stroke-width: 0.8"/>
      </g>
     </g>
    </g>
    <g id="xtick_5">
     <g id="line2d_5">
      <g>
       <use xlink:href="#m663fb73356" x="230.751569" y="162.432" style="stroke: #000000; stroke-width: 0.8"/>
      </g>
     </g>
    </g>
    <g id="xtick_6">
     <g id="line2d_6">
      <g>
       <use xlink:href="#m663fb73356" x="271.321533" y="162.432" style="stroke: #000000; stroke-width: 0.8"/>
      </g>
     </g>
    </g>
    <g id="xtick_7">
     <g id="line2d_7">
      <g>
       <use xlink:href="#m663fb73356" x="311.891497" y="162.432" style="stroke: #000000; stroke-width: 0.8"/>
      </g>
     </g>
    </g>
    <g id="xtick_8">
     <g id="line2d_8">
      <g>
       <use xlink:href="#m663fb73356" x="352.46146" y="162.432" style="stroke: #000000; stroke-width: 0.8"/>
      </g>
     </g>
    </g>
    <g id="xtick_9">
     <g id="line2d_9">
      <g>
       <use xlink:href="#m663fb73356" x="393.031424" y="162.432" style="stroke: #000000; stroke-width: 0.8"/>
      </g>
     </g>
    </g>
   </g>
   <g id="matplotlib.axis_2">
    <g id="ytick_1">
     <g id="line2d_10">
      <defs>
       <path id="m85ac7ef4f9" d="M 0 0 
L -3.5 0 
" style="stroke: #000000; stroke-width: 0.8"/>
      </defs>
      <g>
       <use xlink:href="#m85ac7ef4f9" x="57.6" y="156.933818" style="stroke: #000000; stroke-width: 0.8"/>
      </g>
     </g>
     <g id="text_1">
      <!-- 0.0 -->
      <g transform="translate(34.696875 160.733037) scale(0.1 -0.1)">
       <defs>
        <path id="DejaVuSans-30" d="M 2034 4250 
Q 1547 4250 1301 3770 
Q 1056 3291 1056 2328 
Q 1056 1369 1301 889 
Q 1547 409 2034 409 
Q 2525 409 2770 889 
Q 3016 1369 3016 2328 
Q 3016 3291 2770 3770 
Q 2525 4250 2034 4250 
z
M 2034 4750 
Q 2819 4750 3233 4129 
Q 3647 3509 3647 2328 
Q 3647 1150 3233 529 
Q 2819 -91 2034 -91 
Q 1250 -91 836 529 
Q 422 1150 422 2328 
Q 422 3509 836 4129 
Q 1250 4750 2034 4750 
z
" transform="scale(0.015625)"/>
        <path id="DejaVuSans-2e" d="M 684 794 
L 1344 794 
L 1344 0 
L 684 0 
L 684 794 
z
" transform="scale(0.015625)"/>
       </defs>
       <use xlink:href="#DejaVuSans-30"/>
       <use xlink:href="#DejaVuSans-2e" x="63.623047"/>
       <use xlink:href="#DejaVuSans-30" x="95.410156"/>
      </g>
     </g>
    </g>
    <g id="ytick_2">
     <g id="line2d_11">
      <g>
       <use xlink:href="#m85ac7ef4f9" x="57.6" y="117.606455" style="stroke: #000000; stroke-width: 0.8"/>
      </g>
     </g>
     <g id="text_2">
      <!-- 0.5 -->
      <g transform="translate(34.696875 121.405674) scale(0.1 -0.1)">
       <defs>
        <path id="DejaVuSans-35" d="M 691 4666 
L 3169 4666 
L 3169 4134 
L 1269 4134 
L 1269 2991 
Q 1406 3038 1543 3061 
Q 1681 3084 1819 3084 
Q 2600 3084 3056 2656 
Q 3513 2228 3513 1497 
Q 3513 744 3044 326 
Q 2575 -91 1722 -91 
Q 1428 -91 1123 -41 
Q 819 9 494 109 
L 494 744 
Q 775 591 1075 516 
Q 1375 441 1709 441 
Q 2250 441 2565 725 
Q 2881 1009 2881 1497 
Q 2881 1984 2565 2268 
Q 2250 2553 1709 2553 
Q 1456 2553 1204 2497 
Q 953 2441 691 2322 
L 691 4666 
z
" transform="scale(0.015625)"/>
       </defs>
       <use xlink:href="#DejaVuSans-30"/>
       <use xlink:href="#DejaVuSans-2e" x="63.623047"/>
       <use xlink:href="#DejaVuSans-35" x="95.410156"/>
      </g>
     </g>
    </g>
    <g id="ytick_3">
     <g id="line2d_12">
      <g>
       <use xlink:href="#m85ac7ef4f9" x="57.6" y="78.279091" style="stroke: #000000; stroke-width: 0.8"/>
      </g>
     </g>
     <g id="text_3">
      <!-- 1.0 -->
      <g transform="translate(34.696875 82.07831) scale(0.1 -0.1)">
       <defs>
        <path id="DejaVuSans-31" d="M 794 531 
L 1825 531 
L 1825 4091 
L 703 3866 
L 703 4441 
L 1819 4666 
L 2450 4666 
L 2450 531 
L 3481 531 
L 3481 0 
L 794 0 
L 794 531 
z
" transform="scale(0.015625)"/>
       </defs>
       <use xlink:href="#DejaVuSans-31"/>
       <use xlink:href="#DejaVuSans-2e" x="63.623047"/>
       <use xlink:href="#DejaVuSans-30" x="95.410156"/>
      </g>
     </g>
    </g>
    <g id="text_4">
     <!-- cross section (cm$^{2}$) -->
     <g transform="translate(28.617187 150.152) rotate(-90) scale(0.1 -0.1)">
      <defs>
       <path id="DejaVuSans-63" d="M 3122 3366 
L 3122 2828 
Q 2878 2963 2633 3030 
Q 2388 3097 2138 3097 
Q 1578 3097 1268 2742 
Q 959 2388 959 1747 
Q 959 1106 1268 751 
Q 1578 397 2138 397 
Q 2388 397 2633 464 
Q 2878 531 3122 666 
L 3122 134 
Q 2881 22 2623 -34 
Q 2366 -91 2075 -91 
Q 1284 -91 818 406 
Q 353 903 353 1747 
Q 353 2603 823 3093 
Q 1294 3584 2113 3584 
Q 2378 3584 2631 3529 
Q 2884 3475 3122 3366 
z
" transform="scale(0.015625)"/>
       <path id="DejaVuSans-72" d="M 2631 2963 
Q 2534 3019 2420 3045 
Q 2306 3072 2169 3072 
Q 1681 3072 1420 2755 
Q 1159 2438 1159 1844 
L 1159 0 
L 581 0 
L 581 3500 
L 1159 3500 
L 1159 2956 
Q 1341 3275 1631 3429 
Q 1922 3584 2338 3584 
Q 2397 3584 2469 3576 
Q 2541 3569 2628 3553 
L 2631 2963 
z
" transform="scale(0.015625)"/>
       <path id="DejaVuSans-6f" d="M 1959 3097 
Q 1497 3097 1228 2736 
Q 959 2375 959 1747 
Q 959 1119 1226 758 
Q 1494 397 1959 397 
Q 2419 397 2687 759 
Q 2956 1122 2956 1747 
Q 2956 2369 2687 2733 
Q 2419 3097 1959 3097 
z
M 1959 3584 
Q 2709 3584 3137 3096 
Q 3566 2609 3566 1747 
Q 3566 888 3137 398 
Q 2709 -91 1959 -91 
Q 1206 -91 779 398 
Q 353 888 353 1747 
Q 353 2609 779 3096 
Q 1206 3584 1959 3584 
z
" transform="scale(0.015625)"/>
       <path id="DejaVuSans-73" d="M 2834 3397 
L 2834 2853 
Q 2591 2978 2328 3040 
Q 2066 3103 1784 3103 
Q 1356 3103 1142 2972 
Q 928 2841 928 2578 
Q 928 2378 1081 2264 
Q 1234 2150 1697 2047 
L 1894 2003 
Q 2506 1872 2764 1633 
Q 3022 1394 3022 966 
Q 3022 478 2636 193 
Q 2250 -91 1575 -91 
Q 1294 -91 989 -36 
Q 684 19 347 128 
L 347 722 
Q 666 556 975 473 
Q 1284 391 1588 391 
Q 1994 391 2212 530 
Q 2431 669 2431 922 
Q 2431 1156 2273 1281 
Q 2116 1406 1581 1522 
L 1381 1569 
Q 847 1681 609 1914 
Q 372 2147 372 2553 
Q 372 3047 722 3315 
Q 1072 3584 1716 3584 
Q 2034 3584 2315 3537 
Q 2597 3491 2834 3397 
z
" transform="scale(0.015625)"/>
       <path id="DejaVuSans-20" transform="scale(0.015625)"/>
       <path id="DejaVuSans-65" d="M 3597 1894 
L 3597 1613 
L 953 1613 
Q 991 1019 1311 708 
Q 1631 397 2203 397 
Q 2534 397 2845 478 
Q 3156 559 3463 722 
L 3463 178 
Q 3153 47 2828 -22 
Q 2503 -91 2169 -91 
Q 1331 -91 842 396 
Q 353 884 353 1716 
Q 353 2575 817 3079 
Q 1281 3584 2069 3584 
Q 2775 3584 3186 3129 
Q 3597 2675 3597 1894 
z
M 3022 2063 
Q 3016 2534 2758 2815 
Q 2500 3097 2075 3097 
Q 1594 3097 1305 2825 
Q 1016 2553 972 2059 
L 3022 2063 
z
" transform="scale(0.015625)"/>
       <path id="DejaVuSans-74" d="M 1172 4494 
L 1172 3500 
L 2356 3500 
L 2356 3053 
L 1172 3053 
L 1172 1153 
Q 1172 725 1289 603 
Q 1406 481 1766 481 
L 2356 481 
L 2356 0 
L 1766 0 
Q 1100 0 847 248 
Q 594 497 594 1153 
L 594 3053 
L 172 3053 
L 172 3500 
L 594 3500 
L 594 4494 
L 1172 4494 
z
" transform="scale(0.015625)"/>
       <path id="DejaVuSans-69" d="M 603 3500 
L 1178 3500 
L 1178 0 
L 603 0 
L 603 3500 
z
M 603 4863 
L 1178 4863 
L 1178 4134 
L 603 4134 
L 603 4863 
z
" transform="scale(0.015625)"/>
       <path id="DejaVuSans-6e" d="M 3513 2113 
L 3513 0 
L 2938 0 
L 2938 2094 
Q 2938 2591 2744 2837 
Q 2550 3084 2163 3084 
Q 1697 3084 1428 2787 
Q 1159 2491 1159 1978 
L 1159 0 
L 581 0 
L 581 3500 
L 1159 3500 
L 1159 2956 
Q 1366 3272 1645 3428 
Q 1925 3584 2291 3584 
Q 2894 3584 3203 3211 
Q 3513 2838 3513 2113 
z
" transform="scale(0.015625)"/>
       <path id="DejaVuSans-28" d="M 1984 4856 
Q 1566 4138 1362 3434 
Q 1159 2731 1159 2009 
Q 1159 1288 1364 580 
Q 1569 -128 1984 -844 
L 1484 -844 
Q 1016 -109 783 600 
Q 550 1309 550 2009 
Q 550 2706 781 3412 
Q 1013 4119 1484 4856 
L 1984 4856 
z
" transform="scale(0.015625)"/>
       <path id="DejaVuSans-6d" d="M 3328 2828 
Q 3544 3216 3844 3400 
Q 4144 3584 4550 3584 
Q 5097 3584 5394 3201 
Q 5691 2819 5691 2113 
L 5691 0 
L 5113 0 
L 5113 2094 
Q 5113 2597 4934 2840 
Q 4756 3084 4391 3084 
Q 3944 3084 3684 2787 
Q 3425 2491 3425 1978 
L 3425 0 
L 2847 0 
L 2847 2094 
Q 2847 2600 2669 2842 
Q 2491 3084 2119 3084 
Q 1678 3084 1418 2786 
Q 1159 2488 1159 1978 
L 1159 0 
L 581 0 
L 581 3500 
L 1159 3500 
L 1159 2956 
Q 1356 3278 1631 3431 
Q 1906 3584 2284 3584 
Q 2666 3584 2933 3390 
Q 3200 3197 3328 2828 
z
" transform="scale(0.015625)"/>
       <path id="DejaVuSans-32" d="M 1228 531 
L 3431 531 
L 3431 0 
L 469 0 
L 469 531 
Q 828 903 1448 1529 
Q 2069 2156 2228 2338 
Q 2531 2678 2651 2914 
Q 2772 3150 2772 3378 
Q 2772 3750 2511 3984 
Q 2250 4219 1831 4219 
Q 1534 4219 1204 4116 
Q 875 4013 500 3803 
L 500 4441 
Q 881 4594 1212 4672 
Q 1544 4750 1819 4750 
Q 2544 4750 2975 4387 
Q 3406 4025 3406 3419 
Q 3406 3131 3298 2873 
Q 3191 2616 2906 2266 
Q 2828 2175 2409 1742 
Q 1991 1309 1228 531 
z
" transform="scale(0.015625)"/>
       <path id="DejaVuSans-29" d="M 513 4856 
L 1013 4856 
Q 1481 4119 1714 3412 
Q 1947 2706 1947 2009 
Q 1947 1309 1714 600 
Q 1481 -109 1013 -844 
L 513 -844 
Q 928 -128 1133 580 
Q 1338 1288 1338 2009 
Q 1338 2731 1133 3434 
Q 928 4138 513 4856 
z
" transform="scale(0.015625)"/>
      </defs>
      <use xlink:href="#DejaVuSans-63" transform="translate(0 0.765625)"/>
      <use xlink:href="#DejaVuSans-72" transform="translate(54.980469 0.765625)"/>
      <use xlink:href="#DejaVuSans-6f" transform="translate(96.09375 0.765625)"/>
      <use xlink:href="#DejaVuSans-73" transform="translate(157.275391 0.765625)"/>
      <use xlink:href="#DejaVuSans-73" transform="translate(209.375 0.765625)"/>
      <use xlink:href="#DejaVuSans-20" transform="translate(261.474609 0.765625)"/>
      <use xlink:href="#DejaVuSans-73" transform="translate(293.261719 0.765625)"/>
      <use xlink:href="#DejaVuSans-65" transform="translate(345.361328 0.765625)"/>
      <use xlink:href="#DejaVuSans-63" transform="translate(406.884766 0.765625)"/>
      <use xlink:href="#DejaVuSans-74" transform="translate(461.865234 0.765625)"/>
      <use xlink:href="#DejaVuSans-69" transform="translate(501.074219 0.765625)"/>
      <use xlink:href="#DejaVuSans-6f" transform="translate(528.857422 0.765625)"/>
      <use xlink:href="#DejaVuSans-6e" transform="translate(590.039062 0.765625)"/>
      <use xlink:href="#DejaVuSans-20" transform="translate(653.417969 0.765625)"/>
      <use xlink:href="#DejaVuSans-28" transform="translate(685.205078 0.765625)"/>
      <use xlink:href="#DejaVuSans-63" transform="translate(724.21875 0.765625)"/>
      <use xlink:href="#DejaVuSans-6d" transform="translate(779.199219 0.765625)"/>
      <use xlink:href="#DejaVuSans-32" transform="translate(877.568359 39.046875) scale(0.7)"/>
      <use xlink:href="#DejaVuSans-29" transform="translate(924.838867 0.765625)"/>
     </g>
    </g>
    <g id="text_5">
     <!-- 1e−18 -->
     <g transform="translate(57.6 38.472) scale(0.1 -0.1)">
      <defs>
       <path id="DejaVuSans-2212" d="M 678 2272 
L 4684 2272 
L 4684 1741 
L 678 1741 
L 678 2272 
z
" transform="scale(0.015625)"/>
       <path id="DejaVuSans-38" d="M 2034 2216 
Q 1584 2216 1326 1975 
Q 1069 1734 1069 1313 
Q 1069 891 1326 650 
Q 1584 409 2034 409 
Q 2484 409 2743 651 
Q 3003 894 3003 1313 
Q 3003 1734 2745 1975 
Q 2488 2216 2034 2216 
z
M 1403 2484 
Q 997 2584 770 2862 
Q 544 3141 544 3541 
Q 544 4100 942 4425 
Q 1341 4750 2034 4750 
Q 2731 4750 3128 4425 
Q 3525 4100 3525 3541 
Q 3525 3141 3298 2862 
Q 3072 2584 2669 2484 
Q 3125 2378 3379 2068 
Q 3634 1759 3634 1313 
Q 3634 634 3220 271 
Q 2806 -91 2034 -91 
Q 1263 -91 848 271 
Q 434 634 434 1313 
Q 434 1759 690 2068 
Q 947 2378 1403 2484 
z
M 1172 3481 
Q 1172 3119 1398 2916 
Q 1625 2713 2034 2713 
Q 2441 2713 2670 2916 
Q 2900 3119 2900 3481 
Q 2900 3844 2670 4047 
Q 2441 4250 2034 4250 
Q 1625 4250 1398 4047 
Q 1172 3844 1172 3481 
z
" transform="scale(0.015625)"/>
      </defs>
      <use xlink:href="#DejaVuSans-31"/>
      <use xlink:href="#DejaVuSans-65" x="63.623047"/>
      <use xlink:href="#DejaVuSans-2212" x="125.146484"/>
      <use xlink:href="#DejaVuSans-31" x="208.935547"/>
      <use xlink:href="#DejaVuSans-38" x="272.558594"/>
     </g>
    </g>
   </g>
   <g id="line2d_13">
    <path d="M 139.159197 156.843048 
L 141.197432 156.902354 
L 143.759831 156.928844 
L 146.671943 156.91372 
L 148.128404 156.911832 
L 149.876158 156.906523 
L 151.449462 156.914577 
L 153.838221 156.813631 
L 154.246355 156.626276 
L 154.770519 156.30151 
L 155.236262 156.436403 
L 155.994109 156.239059 
L 157.392961 156.858323 
L 158.325259 156.892601 
L 161.647939 156.910801 
L 163.163633 156.91324 
L 164.679327 156.913507 
L 179.318592 156.913114 
L 181.94428 156.656007 
L 182.586097 156.358456 
L 183.052652 156.511204 
L 183.344756 156.373951 
L 183.69528 156.279487 
L 184.220255 156.398806 
L 185.328627 156.827475 
L 186.671493 156.892766 
L 194.669455 156.845723 
L 195.720217 156.764944 
L 196.887821 156.622343 
L 197.238345 156.289791 
L 197.413608 155.917203 
L 197.880974 154.2686 
L 197.997815 154.488047 
L 198.34834 154.760192 
L 198.46437 154.587939 
L 198.756473 153.777008 
L 198.990156 153.707006 
L 199.165419 154.035782 
L 199.457522 155.312349 
L 199.866468 156.290892 
L 200.333834 156.625175 
L 200.976462 156.794754 
L 201.676699 156.842026 
L 203.078797 156.909991 
L 208.920872 156.881715 
L 209.739574 156.912084 
L 218.974109 156.812924 
L 219.908841 156.700211 
L 221.254141 156.60032 
L 221.487824 156.406908 
L 221.721507 156.046984 
L 222.013611 154.849072 
L 222.189684 154.226913 
L 222.248105 154.253656 
L 222.715471 154.984358 
L 222.773892 154.924581 
L 222.949154 154.551757 
L 223.242069 153.92252 
L 223.475752 153.953195 
L 223.651014 154.233206 
L 224.060771 155.652137 
L 224.411296 156.340602 
L 224.821052 156.590095 
L 225.639754 156.777686 
L 227.627682 156.859511 
L 228.972982 156.817957 
L 229.674843 156.714762 
L 230.318282 156.732302 
L 231.020143 156.820946 
L 232.716779 156.605511 
L 233.243377 156.484068 
L 234.120499 156.221283 
L 234.413414 155.866864 
L 234.705518 155.093688 
L 234.82236 154.587152 
L 235.40819 147.223497 
L 235.466611 147.254958 
L 235.817135 148.678609 
L 235.875556 148.568492 
L 236.05163 147.278555 
L 236.285313 145.815577 
L 236.402154 146.130196 
L 236.578228 147.506654 
L 236.75349 150.593065 
L 236.928752 153.32789 
L 237.280088 155.249425 
L 237.748265 156.071367 
L 238.099601 156.239295 
L 240.147573 156.762663 
L 241.610526 156.677087 
L 242.254777 156.833295 
L 243.366394 156.849655 
L 245.356756 156.818823 
L 246.17627 156.677244 
L 246.644447 156.710908 
L 247.288698 156.804822 
L 247.756875 156.686289 
L 248.69323 156.652075 
L 249.688817 156.83825 
L 251.269423 156.813553 
L 251.679991 156.713111 
L 252.089748 156.66812 
L 253.026102 156.60614 
L 253.553512 156.397155 
L 253.846427 156.39448 
L 254.197763 156.312994 
L 254.66594 156.216878 
L 254.958855 156.109908 
L 255.19335 155.840122 
L 255.486265 155.245492 
L 255.603106 154.735023 
L 256.247357 147.70329 
L 256.305778 147.663963 
L 256.423431 148.041506 
L 256.657114 149.233125 
L 256.833188 148.717936 
L 257.009261 147.254958 
L 257.242944 145.508823 
L 257.301365 145.477362 
L 257.477439 146.318967 
L 257.711933 148.702205 
L 258.238531 154.714573 
L 258.590679 155.46022 
L 259.23493 156.263284 
L 259.644686 156.454415 
L 260.874767 156.539441 
L 261.343756 156.48981 
L 262.515417 156.516631 
L 264.858738 156.222777 
L 265.327727 155.752029 
L 265.737483 155.344597 
L 266.03121 154.835701 
L 266.089631 154.676032 
L 266.382546 152.664831 
L 266.557808 151.025666 
L 267.20287 131.044219 
L 267.261291 131.209394 
L 267.437365 132.184713 
L 267.612627 131.162201 
L 267.906354 125.868738 
L 267.964774 126.002451 
L 268.081616 127.292389 
L 268.31611 136.37701 
L 268.550605 146.342564 
L 268.90194 152.877198 
L 269.254088 154.528948 
L 269.781497 155.63326 
L 270.543401 156.259116 
L 271.774294 156.576173 
L 273.474175 156.681649 
L 280.275324 156.576959 
L 281.740711 156.268318 
L 282.268932 155.979341 
L 282.737921 155.619102 
L 283.090068 154.775923 
L 283.382983 153.732962 
L 283.617478 152.156721 
L 283.735131 150.925775 
L 284.145699 135.810696 
L 284.321772 131.445358 
L 284.380193 131.295914 
L 284.556267 133.364534 
L 284.73234 134.701664 
L 284.849182 133.647691 
L 285.25975 126.285608 
L 285.318171 126.395725 
L 285.435823 127.536218 
L 285.728739 137.517503 
L 285.964044 146.106599 
L 286.31538 152.321109 
L 286.667528 154.139607 
L 286.902022 154.878961 
L 287.371822 155.61281 
L 287.899232 155.946306 
L 288.661947 156.076086 
L 289.659157 156.079232 
L 291.008514 155.505839 
L 291.360661 154.932446 
L 292.181797 152.774947 
L 292.417103 151.008362 
L 292.827671 142.535675 
L 293.29666 105.229738 
L 293.355892 104.451056 
L 293.414313 104.710617 
L 293.531965 105.685935 
L 293.590386 105.505029 
L 293.708039 102.618401 
L 293.942533 94.123691 
L 294.000954 94.273134 
L 294.118607 98.905898 
L 294.939743 147.899927 
L 295.23347 151.540854 
L 296.289912 155.221896 
L 296.818132 155.734725 
L 297.346353 155.978554 
L 298.285142 156.205788 
L 298.989437 156.285937 
L 299.811384 156.312443 
L 300.339605 156.313309 
L 302.158762 156.271543 
L 302.804636 156.159145 
L 304.214037 155.691464 
L 304.742258 155.120431 
L 305.152826 154.393661 
L 305.505784 153.160355 
L 305.857932 150.356314 
L 306.151658 145.209936 
L 306.327732 137.092768 
L 306.797532 101.10823 
L 306.855953 101.658813 
L 307.090447 103.916204 
L 307.149679 103.782491 
L 307.384174 95.44509 
L 307.560247 91.826972 
L 307.61948 92.330363 
L 307.795553 102.201531 
L 308.382195 142.480617 
L 308.675921 148.301066 
L 309.204954 152.554714 
L 309.733175 154.222194 
L 310.085322 154.563556 
L 310.438281 154.657155 
L 311.084154 154.530521 
L 311.377881 153.883979 
L 311.788449 152.315604 
L 312.082176 151.560518 
L 312.375902 150.792061 
L 312.611208 148.820187 
L 312.845702 144.87172 
L 312.963355 140.836733 
L 313.257082 114.872807 
L 313.491576 84.818836 
L 313.668461 77.960144 
L 313.785303 78.400611 
L 313.844535 78.117454 
L 313.962188 74.577991 
L 314.196682 67.263101 
L 314.314335 71.589111 
L 314.548829 96.900202 
L 314.960209 136.259028 
L 315.195515 144.942509 
L 315.489241 148.088699 
L 315.782968 149.581565 
L 315.899809 150.858131 
L 316.370421 153.600035 
L 316.722568 154.524228 
L 317.368442 155.267515 
L 317.721401 155.405948 
L 317.955895 155.502693 
L 318.191201 155.561684 
L 320.071213 155.413813 
L 320.424171 155.149533 
L 321.187698 154.440854 
L 321.716731 153.338115 
L 321.951225 152.508308 
L 322.186531 150.963529 
L 322.833216 135.897216 
L 323.00929 124.704648 
L 323.244595 92.094399 
L 323.47909 72.297004 
L 323.538322 72.532968 
L 323.714396 75.049919 
L 323.832048 73.004896 
L 324.185007 54.127762 
L 324.243428 56.25144 
L 324.419502 74.027408 
L 324.890113 127.111483 
L 325.124607 135.637655 
L 325.947366 147.813407 
L 326.124251 148.285335 
L 326.417978 147.656098 
L 326.476399 147.695425 
L 326.829357 148.088699 
L 327.005431 147.781945 
L 327.182316 145.61894 
L 327.35839 141.37945 
L 327.710537 116.430171 
L 328.005075 83.21428 
L 328.063496 80.508557 
L 328.122728 80.55575 
L 328.357222 85.393016 
L 328.416454 85.070531 
L 328.474875 85.078397 
L 328.592528 85.817751 
L 328.768602 91.370775 
L 329.12156 112.190681 
L 329.474519 138.831037 
L 329.768246 144.808796 
L 329.885898 145.351514 
L 329.944319 145.327918 
L 330.061972 144.730142 
L 330.179625 144.030115 
L 330.238857 144.053711 
L 330.414931 145.807711 
L 331.002384 152.309311 
L 331.296922 153.165075 
L 331.766722 153.323957 
L 332.06126 153.101364 
L 332.354986 152.686067 
L 332.884019 150.949371 
L 333.295398 146.94034 
L 333.530704 141.670473 
L 334.059736 116.563884 
L 334.588769 59.554938 
L 334.765654 61.75727 
L 334.824074 61.128033 
L 335.177033 46.970182 
L 335.294686 53.970452 
L 335.588413 94.957431 
L 335.88295 124.56307 
L 336.176677 133.309475 
L 336.29433 132.192578 
L 336.470404 126.568765 
L 336.823362 112.709802 
L 337.117089 126.844057 
L 337.411627 142.362634 
L 337.705353 145.320052 
L 337.823006 145.178474 
L 337.940659 144.329003 
L 338.117544 141.45024 
L 338.764229 121.000011 
L 338.999535 114.196377 
L 339.528567 92.078668 
L 339.763873 79.611893 
L 339.822294 80.005167 
L 340.0576 92.471941 
L 340.469791 109.689461 
L 340.705096 122.769742 
L 341.116476 145.107684 
L 341.351782 147.70329 
L 341.411014 147.679694 
L 341.528667 147.058322 
L 341.940046 143.518859 
L 341.998467 143.628976 
L 342.233773 145.909963 
L 342.93969 153.907575 
L 343.351881 155.06144 
L 343.704839 155.466512 
L 344.175451 155.732365 
L 344.58683 155.784277 
L 344.881368 155.623821 
L 345.175095 155.469658 
L 345.35198 155.522357 
L 345.998665 156.001364 
L 346.233971 155.955744 
L 346.469277 155.730792 
L 346.763815 155.394936 
L 346.939888 155.558538 
L 347.4105 156.175742 
L 347.881923 156.360816 
L 348.352534 156.441831 
L 353.413232 156.68566 
L 357.2974 156.758966 
L 359.475196 156.780282 
L 362.890375 156.80553 
L 369.13247 156.827632 
L 370.074504 156.795619 
L 370.722812 156.838644 
L 372.549272 156.752674 
L 373.491307 156.849655 
L 382.212226 156.877145 
L 383.80338 156.876948 
L 385.21846 156.890933 
L 388.04781 156.876272 
L 389.81666 156.88107 
L 391.23174 156.74882 
L 391.762396 156.420672 
L 392.233819 156.798136 
L 392.528356 156.771158 
L 392.823706 156.53134 
L 393.177476 156.191944 
L 393.885016 156.419178 
L 394.298018 156.770293 
L 395.005558 156.857356 
L 396.184522 156.867298 
L 398.013416 156.884122 
L 398.487273 156.877782 
L 398.487273 156.877782 
" clip-path="url(#pde39cde0da)" style="fill: none; stroke: #1f77b4; stroke-width: 1.5; stroke-linecap: square"/>
   </g>
   <g id="line2d_14">
    <path d="M 73.832727 156.750035 
L 85.598017 156.854912 
L 106.937818 156.795978 
L 107.343517 156.797151 
L 107.992637 156.885672 
L 112.130773 156.906129 
L 137.68985 156.830873 
L 138.17669 156.840143 
L 140.448608 156.915461 
L 154.161255 156.874813 
L 154.810375 156.708805 
L 155.297214 156.290826 
L 155.621774 156.525449 
L 155.784054 156.407753 
L 156.027474 156.103695 
L 156.270893 156.477004 
L 156.595453 156.766976 
L 157.163433 156.873939 
L 159.354211 156.917401 
L 181.667691 156.899117 
L 182.64137 156.77926 
L 182.965929 156.51951 
L 183.209349 156.266005 
L 183.696189 156.464546 
L 184.020749 156.143929 
L 184.832148 156.833203 
L 185.886967 156.904059 
L 192.134741 156.919987 
L 197.003137 156.798168 
L 197.571116 156.5927 
L 197.814536 156.31066 
L 197.976816 155.882746 
L 198.301376 153.902645 
L 198.382516 153.926354 
L 198.707075 155.331601 
L 198.788215 155.283125 
L 198.950495 154.600864 
L 199.112775 153.472923 
L 199.193915 153.498375 
L 199.680754 156.238819 
L 200.005314 156.609436 
L 200.492154 156.781251 
L 201.628113 156.878849 
L 206.009669 156.920788 
L 220.939415 156.84406 
L 221.831955 156.663098 
L 222.156514 156.401819 
L 222.399934 155.848215 
L 222.805634 153.908364 
L 223.130193 155.214881 
L 223.211333 155.184851 
L 223.373613 154.58165 
L 223.617033 153.528322 
L 224.185013 156.304604 
L 224.509572 156.616175 
L 225.077552 156.787612 
L 226.45693 156.877921 
L 231.244186 156.880265 
L 233.759524 156.727185 
L 234.489783 156.475654 
L 234.814343 156.168096 
L 235.057763 155.659615 
L 235.301183 154.39193 
L 235.463462 152.284223 
L 235.706882 146.495536 
L 235.788022 146.796038 
L 236.112582 151.96392 
L 236.193722 151.800768 
L 236.356002 149.454333 
L 236.518281 145.315838 
L 236.599421 145.442505 
L 237.005121 154.230772 
L 237.248541 155.5578 
L 237.573101 156.207883 
L 237.9788 156.523273 
L 238.62792 156.717186 
L 240.007298 156.840845 
L 244.064295 156.900846 
L 253.314246 156.827309 
L 254.855905 156.633751 
L 255.423885 156.352717 
L 255.748444 155.940058 
L 255.991864 155.224382 
L 256.154144 154.206451 
L 256.316424 152.086282 
L 256.559844 146.421383 
L 256.640983 146.492465 
L 256.965543 151.494916 
L 257.046683 151.382027 
L 257.208963 149.201619 
L 257.452383 145.273542 
L 257.939222 154.532085 
L 258.263782 155.806138 
L 258.588342 156.267599 
L 259.075181 156.547524 
L 259.886581 156.717256 
L 261.590519 156.795912 
L 264.186997 156.701463 
L 265.322956 156.468305 
L 265.890935 156.138396 
L 266.215495 155.738363 
L 266.458915 155.179505 
L 266.702334 154.074652 
L 266.945754 151.401219 
L 267.108034 146.981605 
L 267.432594 128.122067 
L 267.513734 131.831197 
L 267.757153 144.138477 
L 267.838293 144.713811 
L 267.919433 143.706216 
L 268.081713 135.939403 
L 268.243993 125.855254 
L 268.406273 136.146116 
L 268.649693 149.249735 
L 268.893112 153.228278 
L 269.217672 155.044224 
L 269.542232 155.770645 
L 269.947932 156.197973 
L 270.515911 156.477565 
L 271.48959 156.675596 
L 273.436948 156.798443 
L 278.061924 156.822208 
L 281.307521 156.672117 
L 282.44348 156.436015 
L 283.01146 156.124765 
L 283.417159 155.636837 
L 283.741719 154.838444 
L 283.985139 153.524351 
L 284.228559 150.327632 
L 284.390839 145.096789 
L 284.715398 127.182341 
L 285.121098 143.157989 
L 285.283378 138.357625 
L 285.526798 124.889235 
L 286.094777 151.882784 
L 286.419337 154.438898 
L 286.743896 155.405323 
L 287.149596 155.944018 
L 287.717576 156.273618 
L 288.528975 156.448164 
L 289.746074 156.459497 
L 290.800893 156.257087 
L 291.450012 155.904974 
L 291.855712 155.4425 
L 292.180272 154.737161 
L 292.423691 153.757026 
L 292.667111 151.837543 
L 292.910531 147.254879 
L 293.072811 139.709409 
L 293.235091 121.925936 
L 293.39737 99.208557 
L 293.47851 103.881568 
L 293.72193 131.830034 
L 293.80307 134.038776 
L 293.88421 133.154891 
L 294.04649 120.501187 
L 294.20877 96.490421 
L 294.28991 98.539793 
L 294.614469 141.192276 
L 294.857889 149.609486 
L 295.182449 153.26617 
L 295.507009 154.685488 
L 295.912708 155.506279 
L 296.399548 155.983111 
L 297.048667 156.294218 
L 298.103486 156.514674 
L 299.888565 156.629384 
L 302.403902 156.571011 
L 303.864421 156.356138 
L 304.67582 156.039852 
L 305.16266 155.648583 
L 305.56836 155.02458 
L 305.892919 154.086287 
L 306.136339 152.745914 
L 306.379759 150.024553 
L 306.542039 146.292668 
L 306.704319 138.526379 
L 306.866598 120.780927 
L 307.028878 95.240246 
L 307.110018 96.468829 
L 307.434578 130.093808 
L 307.515718 129.944047 
L 307.677998 118.398411 
L 307.921417 91.537284 
L 308.327117 142.158129 
L 308.570537 149.421966 
L 308.895097 152.864021 
L 309.219656 154.263722 
L 309.625356 155.071254 
L 310.112196 155.498326 
L 310.680175 155.656039 
L 311.248154 155.567956 
L 311.734994 155.253145 
L 312.140694 154.672959 
L 312.465253 153.74924 
L 312.708673 152.447734 
L 312.952093 149.887151 
L 313.195513 143.763846 
L 313.357793 133.630034 
L 313.520072 109.150394 
L 313.682352 74.271276 
L 313.763492 78.543183 
L 314.088052 124.945174 
L 314.169192 124.530955 
L 314.331472 108.522509 
L 314.574892 70.780983 
L 314.980591 139.941616 
L 315.224011 148.388885 
L 315.548571 152.358285 
L 315.87313 153.992003 
L 316.27883 154.969704 
L 316.76567 155.547403 
L 317.333649 155.885653 
L 318.145048 156.098889 
L 319.199867 156.164829 
L 320.254686 156.034665 
L 321.066086 155.718759 
L 321.634065 155.238966 
L 322.039765 154.587104 
L 322.364325 153.646602 
L 322.688884 151.827842 
L 322.932304 149.030522 
L 323.175724 142.681368 
L 323.338004 132.751346 
L 323.500284 109.562364 
L 323.743703 60.021717 
L 324.149403 118.01773 
L 324.230543 115.026478 
L 324.392823 89.577511 
L 324.555103 53.686808 
L 324.717382 89.440314 
L 324.960802 132.514415 
L 325.204222 144.895802 
L 325.528782 150.224121 
L 325.934481 152.705993 
L 326.259041 153.514678 
L 326.502461 153.720017 
L 326.745881 153.666243 
L 326.9893 153.319585 
L 327.23272 152.525217 
L 327.47614 150.845151 
L 327.71956 146.898527 
L 327.88184 140.70094 
L 328.044119 125.956457 
L 328.287539 83.818215 
L 328.368679 88.641332 
L 328.693239 128.081808 
L 328.774379 128.048116 
L 328.936659 114.389883 
L 329.180078 77.157928 
L 329.585778 141.207259 
L 329.829198 148.880895 
L 330.153758 152.42493 
L 330.478317 153.852487 
L 330.884017 154.666257 
L 331.289717 155.031138 
L 331.776556 155.167065 
L 332.263396 155.057325 
L 332.669095 154.742217 
L 332.993655 154.251404 
L 333.318215 153.35793 
L 333.642774 151.579665 
L 333.886194 148.814306 
L 334.129614 142.499416 
L 334.291894 132.540984 
L 334.454174 108.924654 
L 334.697593 57.464349 
L 334.859873 84.215629 
L 335.103293 115.852056 
L 335.184433 114.374339 
L 335.346713 90.944816 
L 335.508993 46.970182 
L 335.590133 53.514295 
L 335.914692 129.802623 
L 336.158112 143.397056 
L 336.401532 147.740898 
L 336.563812 148.49608 
L 336.644952 148.298544 
L 336.807232 146.120299 
L 336.969511 138.882584 
L 337.131791 127.003188 
L 337.212931 129.061492 
L 337.537491 148.748314 
L 337.780911 152.236256 
L 338.10547 153.65666 
L 338.34889 153.962764 
L 338.59231 153.906935 
L 338.83573 153.459812 
L 339.07915 152.333492 
L 339.322569 149.511035 
L 339.484849 144.935176 
L 339.647129 133.809722 
L 339.890549 103.718241 
L 340.377388 139.966704 
L 340.458528 138.015928 
L 340.620808 124.874219 
L 340.783088 99.632236 
L 340.864228 101.480905 
L 341.188788 142.966926 
L 341.432207 150.386854 
L 341.756767 153.533773 
L 342.081327 154.64373 
L 342.243607 154.763186 
L 342.487026 155.448374 
L 342.811586 155.748558 
L 342.892726 155.752177 
L 343.055006 155.250152 
L 343.217286 155.968402 
L 343.541846 156.165761 
L 344.272105 156.321279 
L 344.596665 156.21607 
L 344.758944 156.213925 
L 345.164644 156.450813 
L 345.813764 156.480394 
L 346.057183 156.341172 
L 346.300603 156.085591 
L 346.787443 156.561319 
L 347.517702 156.659979 
L 350.844439 156.766598 
L 354.008896 156.809352 
L 354.008896 156.809352 
" clip-path="url(#pde39cde0da)" style="fill: none; stroke: #ff7f0e; stroke-width: 1.5; stroke-linecap: square"/>
   </g>
   <g id="patch_3">
    <path d="M 57.6 162.432 
L 57.6 41.472 
" style="fill: none; stroke: #000000; stroke-width: 0.8; stroke-linejoin: miter; stroke-linecap: square"/>
   </g>
   <g id="patch_4">
    <path d="M 414.72 162.432 
L 414.72 41.472 
" style="fill: none; stroke: #000000; stroke-width: 0.8; stroke-linejoin: miter; stroke-linecap: square"/>
   </g>
   <g id="patch_5">
    <path d="M 57.6 162.432 
L 414.72 162.432 
" style="fill: none; stroke: #000000; stroke-width: 0.8; stroke-linejoin: miter; stroke-linecap: square"/>
   </g>
   <g id="patch_6">
    <path d="M 57.6 41.472 
L 414.72 41.472 
" style="fill: none; stroke: #000000; stroke-width: 0.8; stroke-linejoin: miter; stroke-linecap: square"/>
   </g>
   <g id="text_6">
    <!-- v'=12 79K -->
    <g transform="translate(204.820312 35.472) scale(0.12 -0.12)">
     <defs>
      <path id="DejaVuSans-76" d="M 191 3500 
L 800 3500 
L 1894 563 
L 2988 3500 
L 3597 3500 
L 2284 0 
L 1503 0 
L 191 3500 
z
" transform="scale(0.015625)"/>
      <path id="DejaVuSans-27" d="M 1147 4666 
L 1147 2931 
L 616 2931 
L 616 4666 
L 1147 4666 
z
" transform="scale(0.015625)"/>
      <path id="DejaVuSans-3d" d="M 678 2906 
L 4684 2906 
L 4684 2381 
L 678 2381 
L 678 2906 
z
M 678 1631 
L 4684 1631 
L 4684 1100 
L 678 1100 
L 678 1631 
z
" transform="scale(0.015625)"/>
      <path id="DejaVuSans-37" d="M 525 4666 
L 3525 4666 
L 3525 4397 
L 1831 0 
L 1172 0 
L 2766 4134 
L 525 4134 
L 525 4666 
z
" transform="scale(0.015625)"/>
      <path id="DejaVuSans-39" d="M 703 97 
L 703 672 
Q 941 559 1184 500 
Q 1428 441 1663 441 
Q 2288 441 2617 861 
Q 2947 1281 2994 2138 
Q 2813 1869 2534 1725 
Q 2256 1581 1919 1581 
Q 1219 1581 811 2004 
Q 403 2428 403 3163 
Q 403 3881 828 4315 
Q 1253 4750 1959 4750 
Q 2769 4750 3195 4129 
Q 3622 3509 3622 2328 
Q 3622 1225 3098 567 
Q 2575 -91 1691 -91 
Q 1453 -91 1209 -44 
Q 966 3 703 97 
z
M 1959 2075 
Q 2384 2075 2632 2365 
Q 2881 2656 2881 3163 
Q 2881 3666 2632 3958 
Q 2384 4250 1959 4250 
Q 1534 4250 1286 3958 
Q 1038 3666 1038 3163 
Q 1038 2656 1286 2365 
Q 1534 2075 1959 2075 
z
" transform="scale(0.015625)"/>
      <path id="DejaVuSans-4b" d="M 628 4666 
L 1259 4666 
L 1259 2694 
L 3353 4666 
L 4166 4666 
L 1850 2491 
L 4331 0 
L 3500 0 
L 1259 2247 
L 1259 0 
L 628 0 
L 628 4666 
z
" transform="scale(0.015625)"/>
     </defs>
     <use xlink:href="#DejaVuSans-76"/>
     <use xlink:href="#DejaVuSans-27" x="59.179688"/>
     <use xlink:href="#DejaVuSans-3d" x="86.669922"/>
     <use xlink:href="#DejaVuSans-31" x="170.458984"/>
     <use xlink:href="#DejaVuSans-32" x="234.082031"/>
     <use xlink:href="#DejaVuSans-20" x="297.705078"/>
     <use xlink:href="#DejaVuSans-37" x="329.492188"/>
     <use xlink:href="#DejaVuSans-39" x="393.115234"/>
     <use xlink:href="#DejaVuSans-4b" x="456.738281"/>
    </g>
   </g>
   <g id="legend_1">
    <g id="patch_7">
     <path d="M 63.431 69.257756 
L 203.904736 69.257756 
Q 205.570736 69.257756 205.570736 67.591756 
L 205.570736 47.303 
Q 205.570736 45.637 203.904736 45.637 
L 63.431 45.637 
Q 61.765 45.637 61.765 47.303 
L 61.765 67.591756 
Q 61.765 69.257756 63.431 69.257756 
z
" style="fill: #ffffff; opacity: 0.8; stroke: #cccccc; stroke-linejoin: miter"/>
    </g>
    <g id="line2d_15">
     <path d="M 65.097 52.382998 
L 73.427 52.382998 
L 81.757 52.382998 
" style="fill: none; stroke: #1f77b4; stroke-width: 1.5; stroke-linecap: square"/>
    </g>
    <g id="text_7">
     <!-- data/Harvard/o6lb12 v'=12 -->
     <g transform="translate(88.421 55.298498) scale(0.0833 -0.0833)">
      <defs>
       <path id="DejaVuSans-64" d="M 2906 2969 
L 2906 4863 
L 3481 4863 
L 3481 0 
L 2906 0 
L 2906 525 
Q 2725 213 2448 61 
Q 2172 -91 1784 -91 
Q 1150 -91 751 415 
Q 353 922 353 1747 
Q 353 2572 751 3078 
Q 1150 3584 1784 3584 
Q 2172 3584 2448 3432 
Q 2725 3281 2906 2969 
z
M 947 1747 
Q 947 1113 1208 752 
Q 1469 391 1925 391 
Q 2381 391 2643 752 
Q 2906 1113 2906 1747 
Q 2906 2381 2643 2742 
Q 2381 3103 1925 3103 
Q 1469 3103 1208 2742 
Q 947 2381 947 1747 
z
" transform="scale(0.015625)"/>
       <path id="DejaVuSans-61" d="M 2194 1759 
Q 1497 1759 1228 1600 
Q 959 1441 959 1056 
Q 959 750 1161 570 
Q 1363 391 1709 391 
Q 2188 391 2477 730 
Q 2766 1069 2766 1631 
L 2766 1759 
L 2194 1759 
z
M 3341 1997 
L 3341 0 
L 2766 0 
L 2766 531 
Q 2569 213 2275 61 
Q 1981 -91 1556 -91 
Q 1019 -91 701 211 
Q 384 513 384 1019 
Q 384 1609 779 1909 
Q 1175 2209 1959 2209 
L 2766 2209 
L 2766 2266 
Q 2766 2663 2505 2880 
Q 2244 3097 1772 3097 
Q 1472 3097 1187 3025 
Q 903 2953 641 2809 
L 641 3341 
Q 956 3463 1253 3523 
Q 1550 3584 1831 3584 
Q 2591 3584 2966 3190 
Q 3341 2797 3341 1997 
z
" transform="scale(0.015625)"/>
       <path id="DejaVuSans-2f" d="M 1625 4666 
L 2156 4666 
L 531 -594 
L 0 -594 
L 1625 4666 
z
" transform="scale(0.015625)"/>
       <path id="DejaVuSans-48" d="M 628 4666 
L 1259 4666 
L 1259 2753 
L 3553 2753 
L 3553 4666 
L 4184 4666 
L 4184 0 
L 3553 0 
L 3553 2222 
L 1259 2222 
L 1259 0 
L 628 0 
L 628 4666 
z
" transform="scale(0.015625)"/>
       <path id="DejaVuSans-36" d="M 2113 2584 
Q 1688 2584 1439 2293 
Q 1191 2003 1191 1497 
Q 1191 994 1439 701 
Q 1688 409 2113 409 
Q 2538 409 2786 701 
Q 3034 994 3034 1497 
Q 3034 2003 2786 2293 
Q 2538 2584 2113 2584 
z
M 3366 4563 
L 3366 3988 
Q 3128 4100 2886 4159 
Q 2644 4219 2406 4219 
Q 1781 4219 1451 3797 
Q 1122 3375 1075 2522 
Q 1259 2794 1537 2939 
Q 1816 3084 2150 3084 
Q 2853 3084 3261 2657 
Q 3669 2231 3669 1497 
Q 3669 778 3244 343 
Q 2819 -91 2113 -91 
Q 1303 -91 875 529 
Q 447 1150 447 2328 
Q 447 3434 972 4092 
Q 1497 4750 2381 4750 
Q 2619 4750 2861 4703 
Q 3103 4656 3366 4563 
z
" transform="scale(0.015625)"/>
       <path id="DejaVuSans-6c" d="M 603 4863 
L 1178 4863 
L 1178 0 
L 603 0 
L 603 4863 
z
" transform="scale(0.015625)"/>
       <path id="DejaVuSans-62" d="M 3116 1747 
Q 3116 2381 2855 2742 
Q 2594 3103 2138 3103 
Q 1681 3103 1420 2742 
Q 1159 2381 1159 1747 
Q 1159 1113 1420 752 
Q 1681 391 2138 391 
Q 2594 391 2855 752 
Q 3116 1113 3116 1747 
z
M 1159 2969 
Q 1341 3281 1617 3432 
Q 1894 3584 2278 3584 
Q 2916 3584 3314 3078 
Q 3713 2572 3713 1747 
Q 3713 922 3314 415 
Q 2916 -91 2278 -91 
Q 1894 -91 1617 61 
Q 1341 213 1159 525 
L 1159 0 
L 581 0 
L 581 4863 
L 1159 4863 
L 1159 2969 
z
" transform="scale(0.015625)"/>
      </defs>
      <use xlink:href="#DejaVuSans-64"/>
      <use xlink:href="#DejaVuSans-61" x="63.476562"/>
      <use xlink:href="#DejaVuSans-74" x="124.755859"/>
      <use xlink:href="#DejaVuSans-61" x="163.964844"/>
      <use xlink:href="#DejaVuSans-2f" x="225.244141"/>
      <use xlink:href="#DejaVuSans-48" x="258.935547"/>
      <use xlink:href="#DejaVuSans-61" x="334.130859"/>
      <use xlink:href="#DejaVuSans-72" x="395.410156"/>
      <use xlink:href="#DejaVuSans-76" x="436.523438"/>
      <use xlink:href="#DejaVuSans-61" x="495.703125"/>
      <use xlink:href="#DejaVuSans-72" x="556.982422"/>
      <use xlink:href="#DejaVuSans-64" x="596.345703"/>
      <use xlink:href="#DejaVuSans-2f" x="659.822266"/>
      <use xlink:href="#DejaVuSans-6f" x="693.513672"/>
      <use xlink:href="#DejaVuSans-36" x="754.695312"/>
      <use xlink:href="#DejaVuSans-6c" x="818.318359"/>
      <use xlink:href="#DejaVuSans-62" x="846.101562"/>
      <use xlink:href="#DejaVuSans-31" x="909.578125"/>
      <use xlink:href="#DejaVuSans-32" x="973.201172"/>
      <use xlink:href="#DejaVuSans-20" x="1036.824219"/>
      <use xlink:href="#DejaVuSans-76" x="1068.611328"/>
      <use xlink:href="#DejaVuSans-27" x="1127.791016"/>
      <use xlink:href="#DejaVuSans-3d" x="1155.28125"/>
      <use xlink:href="#DejaVuSans-31" x="1239.070312"/>
      <use xlink:href="#DejaVuSans-32" x="1302.693359"/>
     </g>
    </g>
    <g id="line2d_16">
     <path d="M 65.097 61.277877 
L 73.427 61.277877 
L 81.757 61.277877 
" style="fill: none; stroke: #ff7f0e; stroke-width: 1.5; stroke-linecap: square"/>
    </g>
    <g id="text_8">
     <!-- PyDiatomic -->
     <g transform="translate(88.421 64.193377) scale(0.0833 -0.0833)">
      <defs>
       <path id="DejaVuSans-50" d="M 1259 4147 
L 1259 2394 
L 2053 2394 
Q 2494 2394 2734 2622 
Q 2975 2850 2975 3272 
Q 2975 3691 2734 3919 
Q 2494 4147 2053 4147 
L 1259 4147 
z
M 628 4666 
L 2053 4666 
Q 2838 4666 3239 4311 
Q 3641 3956 3641 3272 
Q 3641 2581 3239 2228 
Q 2838 1875 2053 1875 
L 1259 1875 
L 1259 0 
L 628 0 
L 628 4666 
z
" transform="scale(0.015625)"/>
       <path id="DejaVuSans-79" d="M 2059 -325 
Q 1816 -950 1584 -1140 
Q 1353 -1331 966 -1331 
L 506 -1331 
L 506 -850 
L 844 -850 
Q 1081 -850 1212 -737 
Q 1344 -625 1503 -206 
L 1606 56 
L 191 3500 
L 800 3500 
L 1894 763 
L 2988 3500 
L 3597 3500 
L 2059 -325 
z
" transform="scale(0.015625)"/>
       <path id="DejaVuSans-44" d="M 1259 4147 
L 1259 519 
L 2022 519 
Q 2988 519 3436 956 
Q 3884 1394 3884 2338 
Q 3884 3275 3436 3711 
Q 2988 4147 2022 4147 
L 1259 4147 
z
M 628 4666 
L 1925 4666 
Q 3281 4666 3915 4102 
Q 4550 3538 4550 2338 
Q 4550 1131 3912 565 
Q 3275 0 1925 0 
L 628 0 
L 628 4666 
z
" transform="scale(0.015625)"/>
      </defs>
      <use xlink:href="#DejaVuSans-50"/>
      <use xlink:href="#DejaVuSans-79" x="60.302734"/>
      <use xlink:href="#DejaVuSans-44" x="119.482422"/>
      <use xlink:href="#DejaVuSans-69" x="196.484375"/>
      <use xlink:href="#DejaVuSans-61" x="224.267578"/>
      <use xlink:href="#DejaVuSans-74" x="285.546875"/>
      <use xlink:href="#DejaVuSans-6f" x="324.755859"/>
      <use xlink:href="#DejaVuSans-6d" x="385.9375"/>
      <use xlink:href="#DejaVuSans-69" x="483.349609"/>
      <use xlink:href="#DejaVuSans-63" x="511.132812"/>
     </g>
    </g>
   </g>
  </g>
  <g id="axes_2">
   <g id="patch_8">
    <path d="M 57.6 307.584 
L 414.72 307.584 
L 414.72 186.624 
L 57.6 186.624 
z
" style="fill: #ffffff"/>
   </g>
   <g id="matplotlib.axis_3">
    <g id="xtick_10">
     <g id="line2d_17">
      <g>
       <use xlink:href="#m663fb73356" x="68.471715" y="307.584" style="stroke: #000000; stroke-width: 0.8"/>
      </g>
     </g>
     <g id="text_9">
      <!-- 55450 -->
      <g transform="translate(52.565465 322.182437) scale(0.1 -0.1)">
       <defs>
        <path id="DejaVuSans-34" d="M 2419 4116 
L 825 1625 
L 2419 1625 
L 2419 4116 
z
M 2253 4666 
L 3047 4666 
L 3047 1625 
L 3713 1625 
L 3713 1100 
L 3047 1100 
L 3047 0 
L 2419 0 
L 2419 1100 
L 313 1100 
L 313 1709 
L 2253 4666 
z
" transform="scale(0.015625)"/>
       </defs>
       <use xlink:href="#DejaVuSans-35"/>
       <use xlink:href="#DejaVuSans-35" x="63.623047"/>
       <use xlink:href="#DejaVuSans-34" x="127.246094"/>
       <use xlink:href="#DejaVuSans-35" x="190.869141"/>
       <use xlink:href="#DejaVuSans-30" x="254.492188"/>
      </g>
     </g>
    </g>
    <g id="xtick_11">
     <g id="line2d_18">
      <g>
       <use xlink:href="#m663fb73356" x="109.041679" y="307.584" style="stroke: #000000; stroke-width: 0.8"/>
      </g>
     </g>
     <g id="text_10">
      <!-- 55500 -->
      <g transform="translate(93.135429 322.182437) scale(0.1 -0.1)">
       <use xlink:href="#DejaVuSans-35"/>
       <use xlink:href="#DejaVuSans-35" x="63.623047"/>
       <use xlink:href="#DejaVuSans-35" x="127.246094"/>
       <use xlink:href="#DejaVuSans-30" x="190.869141"/>
       <use xlink:href="#DejaVuSans-30" x="254.492188"/>
      </g>
     </g>
    </g>
    <g id="xtick_12">
     <g id="line2d_19">
      <g>
       <use xlink:href="#m663fb73356" x="149.611642" y="307.584" style="stroke: #000000; stroke-width: 0.8"/>
      </g>
     </g>
     <g id="text_11">
      <!-- 55550 -->
      <g transform="translate(133.705392 322.182437) scale(0.1 -0.1)">
       <use xlink:href="#DejaVuSans-35"/>
       <use xlink:href="#DejaVuSans-35" x="63.623047"/>
       <use xlink:href="#DejaVuSans-35" x="127.246094"/>
       <use xlink:href="#DejaVuSans-35" x="190.869141"/>
       <use xlink:href="#DejaVuSans-30" x="254.492188"/>
      </g>
     </g>
    </g>
    <g id="xtick_13">
     <g id="line2d_20">
      <g>
       <use xlink:href="#m663fb73356" x="190.181606" y="307.584" style="stroke: #000000; stroke-width: 0.8"/>
      </g>
     </g>
     <g id="text_12">
      <!-- 55600 -->
      <g transform="translate(174.275356 322.182437) scale(0.1 -0.1)">
       <use xlink:href="#DejaVuSans-35"/>
       <use xlink:href="#DejaVuSans-35" x="63.623047"/>
       <use xlink:href="#DejaVuSans-36" x="127.246094"/>
       <use xlink:href="#DejaVuSans-30" x="190.869141"/>
       <use xlink:href="#DejaVuSans-30" x="254.492188"/>
      </g>
     </g>
    </g>
    <g id="xtick_14">
     <g id="line2d_21">
      <g>
       <use xlink:href="#m663fb73356" x="230.751569" y="307.584" style="stroke: #000000; stroke-width: 0.8"/>
      </g>
     </g>
     <g id="text_13">
      <!-- 55650 -->
      <g transform="translate(214.845319 322.182437) scale(0.1 -0.1)">
       <use xlink:href="#DejaVuSans-35"/>
       <use xlink:href="#DejaVuSans-35" x="63.623047"/>
       <use xlink:href="#DejaVuSans-36" x="127.246094"/>
       <use xlink:href="#DejaVuSans-35" x="190.869141"/>
       <use xlink:href="#DejaVuSans-30" x="254.492188"/>
      </g>
     </g>
    </g>
    <g id="xtick_15">
     <g id="line2d_22">
      <g>
       <use xlink:href="#m663fb73356" x="271.321533" y="307.584" style="stroke: #000000; stroke-width: 0.8"/>
      </g>
     </g>
     <g id="text_14">
      <!-- 55700 -->
      <g transform="translate(255.415283 322.182437) scale(0.1 -0.1)">
       <use xlink:href="#DejaVuSans-35"/>
       <use xlink:href="#DejaVuSans-35" x="63.623047"/>
       <use xlink:href="#DejaVuSans-37" x="127.246094"/>
       <use xlink:href="#DejaVuSans-30" x="190.869141"/>
       <use xlink:href="#DejaVuSans-30" x="254.492188"/>
      </g>
     </g>
    </g>
    <g id="xtick_16">
     <g id="line2d_23">
      <g>
       <use xlink:href="#m663fb73356" x="311.891497" y="307.584" style="stroke: #000000; stroke-width: 0.8"/>
      </g>
     </g>
     <g id="text_15">
      <!-- 55750 -->
      <g transform="translate(295.985247 322.182437) scale(0.1 -0.1)">
       <use xlink:href="#DejaVuSans-35"/>
       <use xlink:href="#DejaVuSans-35" x="63.623047"/>
       <use xlink:href="#DejaVuSans-37" x="127.246094"/>
       <use xlink:href="#DejaVuSans-35" x="190.869141"/>
       <use xlink:href="#DejaVuSans-30" x="254.492188"/>
      </g>
     </g>
    </g>
    <g id="xtick_17">
     <g id="line2d_24">
      <g>
       <use xlink:href="#m663fb73356" x="352.46146" y="307.584" style="stroke: #000000; stroke-width: 0.8"/>
      </g>
     </g>
     <g id="text_16">
      <!-- 55800 -->
      <g transform="translate(336.55521 322.182437) scale(0.1 -0.1)">
       <use xlink:href="#DejaVuSans-35"/>
       <use xlink:href="#DejaVuSans-35" x="63.623047"/>
       <use xlink:href="#DejaVuSans-38" x="127.246094"/>
       <use xlink:href="#DejaVuSans-30" x="190.869141"/>
       <use xlink:href="#DejaVuSans-30" x="254.492188"/>
      </g>
     </g>
    </g>
    <g id="xtick_18">
     <g id="line2d_25">
      <g>
       <use xlink:href="#m663fb73356" x="393.031424" y="307.584" style="stroke: #000000; stroke-width: 0.8"/>
      </g>
     </g>
     <g id="text_17">
      <!-- 55850 -->
      <g transform="translate(377.125174 322.182437) scale(0.1 -0.1)">
       <use xlink:href="#DejaVuSans-35"/>
       <use xlink:href="#DejaVuSans-35" x="63.623047"/>
       <use xlink:href="#DejaVuSans-38" x="127.246094"/>
       <use xlink:href="#DejaVuSans-35" x="190.869141"/>
       <use xlink:href="#DejaVuSans-30" x="254.492188"/>
      </g>
     </g>
    </g>
    <g id="text_18">
     <!-- transition energy (wavenumber cm$^{-1}$) -->
     <g transform="translate(140.46 337.262125) scale(0.1 -0.1)">
      <defs>
       <path id="DejaVuSans-67" d="M 2906 1791 
Q 2906 2416 2648 2759 
Q 2391 3103 1925 3103 
Q 1463 3103 1205 2759 
Q 947 2416 947 1791 
Q 947 1169 1205 825 
Q 1463 481 1925 481 
Q 2391 481 2648 825 
Q 2906 1169 2906 1791 
z
M 3481 434 
Q 3481 -459 3084 -895 
Q 2688 -1331 1869 -1331 
Q 1566 -1331 1297 -1286 
Q 1028 -1241 775 -1147 
L 775 -588 
Q 1028 -725 1275 -790 
Q 1522 -856 1778 -856 
Q 2344 -856 2625 -561 
Q 2906 -266 2906 331 
L 2906 616 
Q 2728 306 2450 153 
Q 2172 0 1784 0 
Q 1141 0 747 490 
Q 353 981 353 1791 
Q 353 2603 747 3093 
Q 1141 3584 1784 3584 
Q 2172 3584 2450 3431 
Q 2728 3278 2906 2969 
L 2906 3500 
L 3481 3500 
L 3481 434 
z
" transform="scale(0.015625)"/>
       <path id="DejaVuSans-77" d="M 269 3500 
L 844 3500 
L 1563 769 
L 2278 3500 
L 2956 3500 
L 3675 769 
L 4391 3500 
L 4966 3500 
L 4050 0 
L 3372 0 
L 2619 2869 
L 1863 0 
L 1184 0 
L 269 3500 
z
" transform="scale(0.015625)"/>
       <path id="DejaVuSans-75" d="M 544 1381 
L 544 3500 
L 1119 3500 
L 1119 1403 
Q 1119 906 1312 657 
Q 1506 409 1894 409 
Q 2359 409 2629 706 
Q 2900 1003 2900 1516 
L 2900 3500 
L 3475 3500 
L 3475 0 
L 2900 0 
L 2900 538 
Q 2691 219 2414 64 
Q 2138 -91 1772 -91 
Q 1169 -91 856 284 
Q 544 659 544 1381 
z
M 1991 3584 
L 1991 3584 
z
" transform="scale(0.015625)"/>
      </defs>
      <use xlink:href="#DejaVuSans-74" transform="translate(0 0.684375)"/>
      <use xlink:href="#DejaVuSans-72" transform="translate(39.208984 0.684375)"/>
      <use xlink:href="#DejaVuSans-61" transform="translate(80.322266 0.684375)"/>
      <use xlink:href="#DejaVuSans-6e" transform="translate(141.601562 0.684375)"/>
      <use xlink:href="#DejaVuSans-73" transform="translate(204.980469 0.684375)"/>
      <use xlink:href="#DejaVuSans-69" transform="translate(257.080078 0.684375)"/>
      <use xlink:href="#DejaVuSans-74" transform="translate(284.863281 0.684375)"/>
      <use xlink:href="#DejaVuSans-69" transform="translate(324.072266 0.684375)"/>
      <use xlink:href="#DejaVuSans-6f" transform="translate(351.855469 0.684375)"/>
      <use xlink:href="#DejaVuSans-6e" transform="translate(413.037109 0.684375)"/>
      <use xlink:href="#DejaVuSans-20" transform="translate(476.416016 0.684375)"/>
      <use xlink:href="#DejaVuSans-65" transform="translate(508.203125 0.684375)"/>
      <use xlink:href="#DejaVuSans-6e" transform="translate(569.726562 0.684375)"/>
      <use xlink:href="#DejaVuSans-65" transform="translate(633.105469 0.684375)"/>
      <use xlink:href="#DejaVuSans-72" transform="translate(694.628906 0.684375)"/>
      <use xlink:href="#DejaVuSans-67" transform="translate(735.742188 0.684375)"/>
      <use xlink:href="#DejaVuSans-79" transform="translate(799.21875 0.684375)"/>
      <use xlink:href="#DejaVuSans-20" transform="translate(858.398438 0.684375)"/>
      <use xlink:href="#DejaVuSans-28" transform="translate(890.185547 0.684375)"/>
      <use xlink:href="#DejaVuSans-77" transform="translate(929.199219 0.684375)"/>
      <use xlink:href="#DejaVuSans-61" transform="translate(1010.986328 0.684375)"/>
      <use xlink:href="#DejaVuSans-76" transform="translate(1072.265625 0.684375)"/>
      <use xlink:href="#DejaVuSans-65" transform="translate(1131.445312 0.684375)"/>
      <use xlink:href="#DejaVuSans-6e" transform="translate(1192.96875 0.684375)"/>
      <use xlink:href="#DejaVuSans-75" transform="translate(1256.347656 0.684375)"/>
      <use xlink:href="#DejaVuSans-6d" transform="translate(1319.726562 0.684375)"/>
      <use xlink:href="#DejaVuSans-62" transform="translate(1417.138672 0.684375)"/>
      <use xlink:href="#DejaVuSans-65" transform="translate(1480.615234 0.684375)"/>
      <use xlink:href="#DejaVuSans-72" transform="translate(1542.138672 0.684375)"/>
      <use xlink:href="#DejaVuSans-20" transform="translate(1583.251953 0.684375)"/>
      <use xlink:href="#DejaVuSans-63" transform="translate(1615.039062 0.684375)"/>
      <use xlink:href="#DejaVuSans-6d" transform="translate(1670.019531 0.684375)"/>
      <use xlink:href="#DejaVuSans-2212" transform="translate(1768.388672 38.965625) scale(0.7)"/>
      <use xlink:href="#DejaVuSans-31" transform="translate(1827.041016 38.965625) scale(0.7)"/>
      <use xlink:href="#DejaVuSans-29" transform="translate(1874.311523 0.684375)"/>
     </g>
    </g>
   </g>
   <g id="matplotlib.axis_4">
    <g id="ytick_4">
     <g id="line2d_26">
      <g>
       <use xlink:href="#m85ac7ef4f9" x="57.6" y="302.085818" style="stroke: #000000; stroke-width: 0.8"/>
      </g>
     </g>
     <g id="text_19">
      <!-- 0.0 -->
      <g transform="translate(34.696875 305.885037) scale(0.1 -0.1)">
       <use xlink:href="#DejaVuSans-30"/>
       <use xlink:href="#DejaVuSans-2e" x="63.623047"/>
       <use xlink:href="#DejaVuSans-30" x="95.410156"/>
      </g>
     </g>
    </g>
    <g id="ytick_5">
     <g id="line2d_27">
      <g>
       <use xlink:href="#m85ac7ef4f9" x="57.6" y="262.758455" style="stroke: #000000; stroke-width: 0.8"/>
      </g>
     </g>
     <g id="text_20">
      <!-- 0.5 -->
      <g transform="translate(34.696875 266.557674) scale(0.1 -0.1)">
       <use xlink:href="#DejaVuSans-30"/>
       <use xlink:href="#DejaVuSans-2e" x="63.623047"/>
       <use xlink:href="#DejaVuSans-35" x="95.410156"/>
      </g>
     </g>
    </g>
    <g id="ytick_6">
     <g id="line2d_28">
      <g>
       <use xlink:href="#m85ac7ef4f9" x="57.6" y="223.431091" style="stroke: #000000; stroke-width: 0.8"/>
      </g>
     </g>
     <g id="text_21">
      <!-- 1.0 -->
      <g transform="translate(34.696875 227.23031) scale(0.1 -0.1)">
       <use xlink:href="#DejaVuSans-31"/>
       <use xlink:href="#DejaVuSans-2e" x="63.623047"/>
       <use xlink:href="#DejaVuSans-30" x="95.410156"/>
      </g>
     </g>
    </g>
    <g id="text_22">
     <!-- cross section (cm$^{2}$) -->
     <g transform="translate(28.617187 295.304) rotate(-90) scale(0.1 -0.1)">
      <use xlink:href="#DejaVuSans-63" transform="translate(0 0.765625)"/>
      <use xlink:href="#DejaVuSans-72" transform="translate(54.980469 0.765625)"/>
      <use xlink:href="#DejaVuSans-6f" transform="translate(96.09375 0.765625)"/>
      <use xlink:href="#DejaVuSans-73" transform="translate(157.275391 0.765625)"/>
      <use xlink:href="#DejaVuSans-73" transform="translate(209.375 0.765625)"/>
      <use xlink:href="#DejaVuSans-20" transform="translate(261.474609 0.765625)"/>
      <use xlink:href="#DejaVuSans-73" transform="translate(293.261719 0.765625)"/>
      <use xlink:href="#DejaVuSans-65" transform="translate(345.361328 0.765625)"/>
      <use xlink:href="#DejaVuSans-63" transform="translate(406.884766 0.765625)"/>
      <use xlink:href="#DejaVuSans-74" transform="translate(461.865234 0.765625)"/>
      <use xlink:href="#DejaVuSans-69" transform="translate(501.074219 0.765625)"/>
      <use xlink:href="#DejaVuSans-6f" transform="translate(528.857422 0.765625)"/>
      <use xlink:href="#DejaVuSans-6e" transform="translate(590.039062 0.765625)"/>
      <use xlink:href="#DejaVuSans-20" transform="translate(653.417969 0.765625)"/>
      <use xlink:href="#DejaVuSans-28" transform="translate(685.205078 0.765625)"/>
      <use xlink:href="#DejaVuSans-63" transform="translate(724.21875 0.765625)"/>
      <use xlink:href="#DejaVuSans-6d" transform="translate(779.199219 0.765625)"/>
      <use xlink:href="#DejaVuSans-32" transform="translate(877.568359 39.046875) scale(0.7)"/>
      <use xlink:href="#DejaVuSans-29" transform="translate(924.838867 0.765625)"/>
     </g>
    </g>
    <g id="text_23">
     <!-- 1e−18 -->
     <g transform="translate(57.6 183.624) scale(0.1 -0.1)">
      <use xlink:href="#DejaVuSans-31"/>
      <use xlink:href="#DejaVuSans-65" x="63.623047"/>
      <use xlink:href="#DejaVuSans-2212" x="125.146484"/>
      <use xlink:href="#DejaVuSans-31" x="208.935547"/>
      <use xlink:href="#DejaVuSans-38" x="272.558594"/>
     </g>
    </g>
   </g>
   <g id="line2d_29">
    <path d="M 96.8999 302.043817 
L 103.321314 301.759952 
L 104.041025 301.459491 
L 104.616307 300.158541 
L 104.834573 298.947259 
L 105.115317 296.170747 
L 105.541302 289.079237 
L 105.701959 290.542215 
L 105.99244 293.727731 
L 106.065466 293.633345 
L 106.412745 290.408501 
L 106.718642 287.600528 
L 106.780309 287.584797 
L 106.925549 288.591577 
L 107.299604 292.602968 
L 107.874886 298.995238 
L 108.219731 300.235623 
L 109.143103 301.508886 
L 109.742728 301.75303 
L 110.343163 301.856382 
L 111.363903 301.919385 
L 112.68405 302.031389 
L 114.665487 302.034693 
L 114.72553 302.0214 
L 114.876451 301.557101 
L 115.56614 302.022894 
L 116.226619 301.980028 
L 116.58688 301.762154 
L 116.797844 300.326863 
L 116.944707 299.998872 
L 117.069663 300.131799 
L 117.487534 301.655105 
L 117.787751 301.85945 
L 118.388187 301.914194 
L 118.928579 301.782054 
L 119.048666 301.676892 
L 119.481953 300.547882 
L 119.701031 300.487318 
L 119.993135 301.310833 
L 120.28605 301.810763 
L 120.432102 301.761997 
L 120.943283 300.721709 
L 121.163172 300.817668 
L 122.111698 301.927801 
L 122.712133 302.026355 
L 123.913004 302.074256 
L 124.213222 302.008029 
L 124.305722 301.694826 
L 124.524799 301.46185 
L 124.670851 301.486941 
L 125.054643 302.029344 
L 125.474948 302.018332 
L 126.01534 302.004882 
L 126.555732 302.085425 
L 128.718922 301.956431 
L 128.983438 301.867866 
L 129.12949 301.696792 
L 129.202516 301.696792 
L 129.275542 301.583922 
L 129.348568 301.632924 
L 129.679619 301.968387 
L 130.460997 301.995994 
L 131.301606 301.934565 
L 131.906099 301.73022 
L 132.052962 301.559539 
L 132.603902 301.944318 
L 133.445323 301.96996 
L 135.188209 301.67469 
L 135.706693 301.347801 
L 136.144848 300.035053 
L 136.370417 298.691631 
L 136.516469 297.004487 
L 136.942454 288.528654 
L 137.031708 289.134295 
L 137.323812 294.246852 
L 137.469863 294.57091 
L 137.542889 294.971262 
L 137.615915 294.857213 
L 138.19282 289.165757 
L 138.27396 289.307335 
L 138.566064 290.825372 
L 138.712116 290.526484 
L 138.769725 290.581542 
L 138.858168 290.597273 
L 138.931194 290.841102 
L 139.224109 294.823391 
L 139.439941 297.183033 
L 139.512967 297.803619 
L 139.617637 299.722794 
L 140.83717 301.514077 
L 141.739446 301.803998 
L 142.881085 301.935588 
L 147.066283 302.008186 
L 148.082155 302.009287 
L 150.607229 301.668398 
L 150.727316 301.57063 
L 150.925298 300.427541 
L 151.202796 297.170448 
L 151.275822 297.545631 
L 151.781324 301.037901 
L 152.000402 301.431961 
L 152.230028 301.471761 
L 152.511583 301.298248 
L 152.730661 300.825533 
L 153.043861 299.669309 
L 153.395197 297.011566 
L 153.77412 298.181162 
L 153.833353 298.217343 
L 153.906379 298.066326 
L 154.05243 296.848751 
L 154.274754 291.981596 
L 154.631769 279.679997 
L 154.777821 281.15084 
L 155.135648 289.024178 
L 155.800996 279.412571 
L 156.539369 292.838933 
L 156.901253 297.821709 
L 157.207962 299.353117 
L 157.293159 300.282029 
L 158.30254 301.452412 
L 159.204816 301.766637 
L 160.888469 301.94188 
L 161.970876 301.975387 
L 164.556805 302.053884 
L 165.880198 301.988837 
L 166.602343 301.93197 
L 167.384532 302.070402 
L 173.880594 302.054278 
L 174.301711 301.976881 
L 174.717958 300.720136 
L 174.937036 301.349374 
L 175.0839 301.885799 
L 175.505016 302.013063 
L 176.34806 302.022501 
L 177.611408 301.935116 
L 178.296229 301.146445 
L 178.515307 300.617885 
L 178.880437 301.54019 
L 179.026489 301.521156 
L 179.176597 301.779379 
L 179.958786 301.637093 
L 180.259816 301.455558 
L 180.507292 300.332368 
L 180.852137 300.260006 
L 181.071215 300.85149 
L 181.144241 300.750025 
L 181.602681 299.427839 
L 181.821759 298.163071 
L 182.027855 295.130931 
L 182.46033 282.204813 
L 182.533356 282.322796 
L 182.679408 284.540859 
L 182.9066 290.156806 
L 182.979626 290.314116 
L 183.036424 289.920842 
L 183.10945 290.156806 
L 183.198704 289.881515 
L 183.482693 284.39928 
L 183.701771 281.520517 
L 183.993875 282.377854 
L 184.440145 289.433183 
L 184.804463 296.435813 
L 185.021106 298.244872 
L 185.744875 300.58249 
L 186.256056 301.129141 
L 186.475134 301.157456 
L 186.700703 301.453985 
L 187.362805 301.669971 
L 188.446834 301.753345 
L 188.928805 301.582192 
L 189.048892 301.503616 
L 189.547903 297.927893 
L 189.620929 298.222062 
L 190.052593 301.231392 
L 190.125619 301.299035 
L 190.313053 301.590372 
L 190.795024 301.700095 
L 191.156096 301.573383 
L 191.276995 301.501335 
L 191.811707 298.390383 
L 192.030785 299.434918 
L 192.316397 300.7807 
L 192.535475 300.944302 
L 192.608501 300.893177 
L 192.847864 299.998086 
L 193.125362 298.852873 
L 193.198388 298.965349 
L 193.776916 301.078802 
L 194.589127 301.56127 
L 195.372127 301.402073 
L 195.455701 301.320272 
L 196.18596 300.781487 
L 196.258986 300.772048 
L 196.790453 299.475032 
L 197.140977 296.323337 
L 197.363301 290.502887 
L 197.805513 274.229224 
L 197.878539 275.055099 
L 198.085446 280.914876 
L 198.231498 281.371073 
L 198.450576 277.296759 
L 198.827876 270.320084 
L 198.973928 271.57856 
L 199.11998 275.786588 
L 199.554079 292.532179 
L 199.842126 296.755151 
L 200.148834 298.817478 
L 200.631617 300.482599 
L 201.366745 301.208582 
L 202.359898 301.648891 
L 205.432667 301.960207 
L 207.480638 301.957218 
L 208.625523 301.946127 
L 209.466132 302.023209 
L 213.948302 301.845685 
L 214.143849 301.761603 
L 214.508979 300.873513 
L 214.947134 301.68523 
L 215.667657 301.94424 
L 217.777295 301.751536 
L 218.380165 301.453985 
L 218.595997 300.355965 
L 218.669023 300.38664 
L 218.888101 300.811376 
L 219.127463 300.621818 
L 219.25323 300.569906 
L 219.399282 300.676876 
L 219.545334 300.705192 
L 219.784697 300.372482 
L 219.929937 299.55526 
L 220.135221 296.668631 
L 220.357545 293.365919 
L 220.49954 295.701178 
L 220.733223 298.23386 
L 220.879275 298.290492 
L 221.083747 297.632938 
L 221.375851 295.660278 
L 221.6712 290.439963 
L 222.113413 267.33907 
L 222.186439 267.779537 
L 222.404705 274.488785 
L 222.611612 281.441863 
L 222.684638 281.449728 
L 222.915887 276.439422 
L 223.20799 265.113141 
L 223.281016 266.253635 
L 223.500094 271.106632 
L 223.791387 278.248481 
L 224.152459 291.242242 
L 224.513532 297.176741 
L 224.966293 299.221764 
L 225.476663 300.018536 
L 225.695741 300.221465 
L 226.186637 300.985989 
L 226.942861 301.458704 
L 228.209456 301.731479 
L 228.872369 301.604294 
L 229.053311 301.490087 
L 229.251292 301.203076 
L 229.543396 301.235325 
L 229.762474 301.656678 
L 230.440804 301.729434 
L 231.88834 301.635677 
L 233.191447 300.963179 
L 233.43081 300.646987 
L 233.556577 300.682382 
L 234.014206 299.801449 
L 234.087232 299.768414 
L 234.437756 297.783955 
L 234.656834 295.44791 
L 234.881592 288.662367 
L 235.32137 265.506415 
L 235.601303 275.015771 
L 235.6865 274.488785 
L 235.905578 267.834595 
L 236.123844 260.716342 
L 236.19687 259.701696 
L 236.269896 260.102835 
L 236.415948 266.379482 
L 236.776209 287.285909 
L 237.068313 294.665295 
L 237.357171 297.619567 
L 237.736094 299.239068 
L 238.166136 300.6053 
L 238.902887 301.345441 
L 240.817789 301.713939 
L 241.844209 301.841831 
L 243.292557 301.896418 
L 243.956281 301.900429 
L 244.680861 301.963274 
L 247.636788 301.899249 
L 248.540687 301.870147 
L 250.347673 301.89626 
L 251.493369 301.770255 
L 252.941717 301.433535 
L 253.641143 300.963179 
L 254.305679 300.34574 
L 255.067583 298.538254 
L 255.352384 295.197001 
L 255.561725 288.261227 
L 255.904136 267.645824 
L 256.050187 263.296217 
L 256.196239 267.00872 
L 256.424242 276.549539 
L 256.497268 276.832696 
L 256.570294 276.447287 
L 256.708232 272.459493 
L 257.073362 259.379212 
L 257.146388 260.299472 
L 257.219414 260.716342 
L 257.366277 263.862531 
L 257.585355 272.91569 
L 257.731407 276.769772 
L 258.193093 292.618699 
L 258.495745 295.486451 
L 258.568771 295.570611 
L 258.787849 296.087373 
L 258.99719 294.238987 
L 259.070215 294.356969 
L 259.673085 299.656724 
L 259.819137 299.862013 
L 259.892163 299.721221 
L 260.176964 298.107226 
L 260.623234 301.029249 
L 260.842311 301.17476 
L 260.915337 301.058351 
L 260.988363 301.106331 
L 261.01514 301.236111 
L 262.116208 301.457131 
L 262.538947 301.425669 
L 263.153988 300.809016 
L 263.401465 299.729087 
L 263.547517 298.65073 
L 263.766594 300.043706 
L 263.913458 300.566759 
L 263.986484 300.602941 
L 264.278587 301.403646 
L 264.498477 301.037901 
L 264.571503 300.954527 
L 264.644528 301.053632 
L 264.863606 300.479453 
L 265.441323 297.587318 
L 265.6604 298.062393 
L 265.74154 297.952276 
L 265.806452 298.120597 
L 265.887592 298.069472 
L 266.099367 297.043028 
L 266.318445 294.495401 
L 266.521295 287.710644 
L 266.944034 258.537606 
L 267.01706 258.726378 
L 267.236138 263.886128 
L 267.38219 266.308693 
L 267.455216 264.405249 
L 267.748131 251.28564 
L 267.821157 251.427219 
L 267.967209 257.161148 
L 268.502732 290.825372 
L 268.805384 295.789271 
L 269.170514 298.174869 
L 269.792857 300.403944 
L 270.604256 301.288023 
L 272.442075 301.708826 
L 275.991136 301.857719 
L 276.591571 301.825943 
L 277.312905 301.848124 
L 280.028659 301.689477 
L 281.175977 301.387128 
L 281.674176 301.033969 
L 282.338712 299.75347 
L 282.925354 297.498439 
L 283.072217 294.869011 
L 283.486031 280.183387 
L 283.559868 280.254176 
L 283.632894 280.442948 
L 283.778946 275.613547 
L 284.136773 257.153283 
L 284.209799 255.918404 
L 284.502714 267.048048 
L 284.57574 266.395213 
L 284.722603 261.093885 
L 285.012273 241.249297 
L 285.085299 242.075172 
L 285.305188 248.548456 
L 285.828541 281.347477 
L 285.901567 281.441863 
L 286.04843 282.267737 
L 286.275622 288.2219 
L 286.648054 296.407497 
L 286.731628 297.039095 
L 286.768141 298.759274 
L 287.506514 300.504622 
L 288.318725 300.97891 
L 289.795472 301.147231 
L 290.533845 300.880592 
L 291.205684 299.864373 
L 291.497787 299.382219 
L 291.644651 299.368848 
L 291.717677 299.471886 
L 291.86454 298.654663 
L 292.36923 295.125425 
L 292.645917 287.097137 
L 293.214708 257.672404 
L 293.434597 261.990549 
L 293.580649 258.616261 
L 293.87113 249.036115 
L 294.020428 253.362125 
L 294.702003 293.790655 
L 294.932441 296.4366 
L 295.078492 297.065838 
L 295.298382 297.922388 
L 295.892326 300.371696 
L 295.965352 300.291468 
L 296.038378 300.192363 
L 296.185241 300.483385 
L 296.331293 300.43226 
L 296.404319 300.481812 
L 296.624208 300.950595 
L 296.844097 301.106331 
L 297.063986 300.967899 
L 297.356902 300.05865 
L 297.576791 298.874896 
L 297.649817 299.09041 
L 297.920824 300.988349 
L 299.003231 301.670521 
L 299.909564 301.703084 
L 300.635766 301.629463 
L 300.69581 301.593833 
L 301.16561 300.455856 
L 301.385499 299.246933 
L 301.532362 300.026401 
L 301.615125 301.148804 
L 301.904794 301.492447 
L 302.26749 301.549944 
L 302.69104 301.470817 
L 302.811939 301.422523 
L 303.018846 300.809803 
L 303.216827 300.697326 
L 303.36369 300.074381 
L 303.509742 298.992878 
L 303.58358 299.079399 
L 304.096384 300.890817 
L 304.316273 300.524286 
L 304.536162 300.565973 
L 304.682214 300.010671 
L 304.756052 300.0382 
L 304.902103 300.09955 
L 305.048967 299.919431 
L 305.195019 300.065729 
L 305.847384 296.36581 
L 306.129751 290.078152 
L 306.335035 278.311405 
L 306.692862 255.690305 
L 306.766699 256.68922 
L 306.912751 262.92654 
L 307.059614 261.754585 
L 307.496958 245.024724 
L 308.254805 290.990546 
L 308.558269 296.564807 
L 309.006161 298.1497 
L 309.14491 298.867817 
L 309.372102 299.774706 
L 309.518965 299.733806 
L 309.81188 300.376415 
L 309.958744 300.723282 
L 310.104796 300.411023 
L 310.178633 300.51642 
L 310.398522 300.934864 
L 310.471548 300.729575 
L 310.544574 300.798004 
L 310.618411 300.953741 
L 310.8383 300.296974 
L 310.911326 300.443272 
L 311.131216 300.398438 
L 311.278079 299.778639 
L 311.424131 300.086966 
L 311.570994 299.698411 
L 311.717857 299.388512 
L 311.790883 299.431772 
L 312.00347 298.635786 
L 312.076496 298.837142 
L 312.230662 299.184009 
L 312.5893 297.153144 
L 312.872478 291.80069 
L 313.077762 280.82049 
L 313.43559 261.67593 
L 313.509427 261.644468 
L 313.655479 264.365921 
L 313.729316 263.060253 
L 313.949205 254.526215 
L 314.022231 254.628466 
L 314.096069 256.579104 
L 314.705429 292.540045 
L 315.008893 295.949727 
L 315.081919 296.013437 
L 315.29126 293.837848 
L 315.570381 286.876904 
L 315.658012 288.103918 
L 315.951739 295.790844 
L 316.255202 298.247232 
L 316.702283 299.980782 
L 316.849146 299.892688 
L 316.99601 299.865159 
L 317.142061 298.822198 
L 317.354648 295.420381 
L 317.637826 290.30625 
L 317.78469 292.783874 
L 318.014316 296.772455 
L 318.161179 297.389895 
L 318.234205 297.275846 
L 318.664246 292.178233 
L 318.737272 292.225426 
L 319.341765 299.733019 
L 319.635491 300.536084 
L 319.781543 300.385067 
L 320.07527 300.657212 
L 320.368185 300.702046 
L 320.515048 300.389 
L 320.808775 300.748452 
L 320.881801 300.643055 
L 320.954827 300.624177 
L 321.175527 300.783846 
L 321.321579 300.299333 
L 321.395416 300.385067 
L 321.541468 300.420462 
L 321.615306 300.355965 
L 321.908221 299.22255 
L 322.267671 297.559003 
L 322.340697 297.507091 
L 322.48756 296.637169 
L 322.697712 293.491767 
L 322.908676 288.772483 
L 323.122885 277.225969 
L 323.407687 256.382467 
L 323.480713 255.863345 
L 323.627576 259.253364 
L 323.774439 262.045607 
L 323.921302 256.138637 
L 324.138757 248.823747 
L 324.211783 249.791201 
L 324.434107 265.836765 
L 324.735947 285.673487 
L 324.971253 291.202914 
L 325.934384 298.093855 
L 326.162387 298.705002 
L 326.30925 298.344763 
L 326.382276 298.480836 
L 326.448 298.290492 
L 326.521026 298.316448 
L 326.602166 298.633426 
L 326.676003 298.572076 
L 326.741726 298.524883 
L 326.895892 299.053443 
L 327.108479 298.277907 
L 327.255342 297.506304 
L 327.464683 294.437983 
L 327.684572 288.324151 
L 328.037531 272.821305 
L 328.101631 273.112327 
L 328.404283 277.265297 
L 328.477309 277.163046 
L 328.550335 276.754041 
L 328.624173 277.092256 
L 329.063951 284.706034 
L 329.60272 297.07213 
L 329.903749 298.656236 
L 330.262388 297.37731 
L 330.336225 297.493719 
L 330.637254 299.027486 
L 330.930981 300.366976 
L 331.004007 300.359111 
L 331.192251 300.833399 
L 332.178101 300.71463 
L 332.61788 300.100337 
L 332.691717 299.957972 
L 332.764743 300.112922 
L 332.83858 299.96977 
L 333.554235 294.601585 
L 333.774124 291.71417 
L 333.985899 286.129684 
L 334.411884 263.838935 
L 334.484909 264.829984 
L 334.631773 269.9976 
L 334.70561 269.572864 
L 335.072363 263.083849 
L 335.145388 263.602971 
L 335.447229 280.167656 
L 335.755561 292.744547 
L 335.985998 294.65743 
L 336.059024 294.836763 
L 336.132861 294.725073 
L 336.41604 291.336627 
L 336.700841 287.514008 
L 337.306956 297.821709 
L 337.534959 298.43207 
L 337.607985 298.389597 
L 337.894409 297.530687 
L 337.967435 297.338769 
L 338.54434 291.517533 
L 338.691203 290.825372 
L 338.829141 288.418537 
L 339.117188 280.608123 
L 339.264051 281.512652 
L 339.410914 279.719324 
L 339.557778 278.23275 
L 339.704641 280.293504 
L 340.003236 284.72963 
L 340.077073 284.674572 
L 340.218257 281.772212 
L 340.503058 273.828085 
L 340.658847 280.64745 
L 341.050752 296.511322 
L 341.351782 298.271615 
L 341.637394 297.131121 
L 341.847546 293.38165 
L 342.061756 283.990276 
L 342.273531 276.423691 
L 342.347368 277.48553 
L 342.654889 287.899416 
L 342.719801 287.498277 
L 342.93401 283.628464 
L 343.086553 287.537604 
L 343.407056 296.571886 
L 343.627756 298.405328 
L 343.77462 298.248805 
L 343.987206 297.004487 
L 344.214398 298.287345 
L 344.581962 301.162962 
L 344.654988 301.451625 
L 344.728825 301.399713 
L 345.022552 300.926212 
L 345.169415 301.096892 
L 345.242441 300.919133 
L 345.333318 301.596035 
L 346.814121 301.716534 
L 347.554929 301.893979 
L 350.517348 301.977589 
L 351.258155 301.753895 
L 351.998151 301.832235 
L 351.998151 301.832235 
" clip-path="url(#p700db89489)" style="fill: none; stroke: #1f77b4; stroke-width: 1.5; stroke-linecap: square"/>
   </g>
   <g id="line2d_30">
    <path d="M 73.832727 302.022983 
L 77.889724 301.892487 
L 78.133143 301.654862 
L 78.295423 300.950975 
L 78.376563 300.385418 
L 78.457703 300.598595 
L 78.701123 301.534028 
L 78.863403 301.400157 
L 79.025683 300.456295 
L 79.187962 299.020039 
L 79.431382 301.398104 
L 79.674802 301.811561 
L 80.080502 301.948011 
L 81.297601 301.999544 
L 84.380918 301.904981 
L 85.354597 301.68524 
L 85.760297 301.39594 
L 86.003716 301.012594 
L 86.247136 300.17994 
L 86.490556 298.300911 
L 86.733976 296.73167 
L 87.058535 297.943995 
L 87.220815 297.223962 
L 87.464235 295.156868 
L 87.545375 295.301878 
L 88.194494 300.659634 
L 88.356774 300.927585 
L 88.437914 300.75241 
L 88.519054 299.729092 
L 88.681334 301.305217 
L 88.924754 301.612927 
L 89.492733 301.822485 
L 90.709832 301.95867 
L 94.036569 302.029703 
L 102.637401 301.980835 
L 104.34134 301.813194 
L 104.990459 301.57099 
L 105.396159 301.174181 
L 105.639579 300.641218 
L 105.882999 299.438025 
L 106.126418 296.336203 
L 106.369838 292.760397 
L 106.694398 295.868467 
L 106.775538 295.696681 
L 106.937818 293.565578 
L 107.181237 290.080734 
L 107.830357 300.07896 
L 108.154917 301.024418 
L 108.560616 301.488332 
L 109.128596 301.749938 
L 110.102275 301.913242 
L 112.374193 302.012687 
L 116.836889 301.994646 
L 117.242588 301.857119 
L 117.404868 301.596985 
L 117.486008 301.23068 
L 117.648288 298.333243 
L 117.729428 298.780127 
L 117.891708 301.327032 
L 118.135128 301.86003 
L 118.540827 301.981504 
L 119.433366 301.955951 
L 119.757926 301.808328 
L 119.920206 301.520374 
L 120.163626 300.699909 
L 120.407046 301.505479 
L 120.569325 301.435311 
L 120.731605 300.774911 
L 120.893885 299.55656 
L 121.299585 301.70077 
L 121.624144 301.928916 
L 122.354404 302.022042 
L 125.600001 302.055002 
L 130.549536 301.98264 
L 130.711816 301.728008 
L 130.792956 301.4959 
L 130.955236 301.930154 
L 131.198656 301.969755 
L 131.360936 301.8571 
L 131.442076 301.59655 
L 131.523216 300.953306 
L 131.766635 301.924404 
L 132.091195 302.008999 
L 133.876273 301.9902 
L 135.742492 301.818804 
L 136.472751 301.544477 
L 136.878451 301.130823 
L 137.121871 300.58542 
L 137.36529 299.390706 
L 137.60871 296.475111 
L 137.85213 293.09933 
L 138.01441 294.472913 
L 138.17669 295.706337 
L 138.25783 295.594782 
L 138.420109 293.791368 
L 138.663529 290.663075 
L 138.825809 293.504198 
L 139.150369 298.819377 
L 139.474928 300.540981 
L 139.799488 301.190919 
L 140.205188 301.549058 
L 140.854307 301.788423 
L 142.071406 301.940236 
L 144.992443 302.019051 
L 150.915658 301.958071 
L 152.376177 301.773663 
L 152.781877 301.551443 
L 152.944156 301.30933 
L 153.106436 300.624336 
L 153.512136 297.144427 
L 153.836696 300.424159 
L 153.917835 300.377331 
L 154.080115 299.524993 
L 154.242395 295.248753 
L 154.323535 293.54175 
L 154.566955 298.509651 
L 154.648095 298.354922 
L 154.810375 296.854922 
L 155.053794 290.596425 
L 155.216074 286.668647 
L 155.378354 289.918925 
L 155.540634 292.881783 
L 155.621774 292.988323 
L 155.784054 290.315248 
L 156.027474 283.419383 
L 156.189753 288.56487 
L 156.514313 297.557606 
L 156.838873 300.024887 
L 157.163433 300.905366 
L 157.569132 301.381255 
L 158.137112 301.672136 
L 159.110791 301.867291 
L 161.139289 301.988893 
L 167.143644 302.049215 
L 178.665513 301.971271 
L 179.233493 301.864704 
L 179.314633 301.762146 
L 179.395773 301.359377 
L 179.476913 299.898387 
L 179.639192 301.730016 
L 179.882612 301.818715 
L 180.044892 301.681743 
L 180.126032 301.345178 
L 180.207172 299.123826 
L 180.288312 299.709208 
L 180.450592 301.655526 
L 180.694011 301.758948 
L 181.261991 301.637044 
L 181.748831 301.362698 
L 182.07339 300.983391 
L 182.31681 300.442063 
L 182.56023 299.349142 
L 182.80365 296.71479 
L 183.047069 290.262972 
L 183.209349 287.187598 
L 183.533909 292.649318 
L 183.615049 292.564036 
L 183.777329 289.733216 
L 184.020749 284.305686 
L 184.264168 292.199689 
L 184.588728 298.378958 
L 184.913288 300.239169 
L 185.237847 300.975518 
L 185.643547 301.398853 
L 186.211527 301.668454 
L 187.185206 301.852858 
L 189.213704 301.957487 
L 191.404482 301.882139 
L 191.810182 301.66963 
L 191.972461 301.325828 
L 192.134741 300.08453 
L 192.215881 299.000138 
L 192.297021 299.263007 
L 192.540441 301.082361 
L 192.621581 301.086663 
L 192.702721 300.902642 
L 192.865001 299.421272 
L 193.02728 296.212921 
L 193.35184 301.137781 
L 193.59526 301.636348 
L 194.00096 301.817434 
L 194.893499 301.843749 
L 196.029458 301.677753 
L 196.678577 301.387718 
L 197.084277 300.969433 
L 197.408837 300.244013 
L 197.652256 299.058851 
L 197.895676 296.173783 
L 198.057956 291.568884 
L 198.301376 279.633147 
L 198.382516 279.80631 
L 198.707075 290.178785 
L 198.788215 289.801839 
L 198.950495 284.685838 
L 199.112775 276.247233 
L 199.193915 276.434699 
L 199.680754 296.908504 
L 200.005314 299.676724 
L 200.329874 300.683856 
L 200.735574 301.238371 
L 201.303553 301.582629 
L 202.196092 301.804644 
L 203.900031 301.947627 
L 208.200447 302.025199 
L 217.531538 301.96837 
L 219.560037 301.792729 
L 219.803456 301.657003 
L 219.884596 301.47751 
L 220.046876 300.491658 
L 220.209156 301.526614 
L 220.371436 301.552118 
L 220.533716 301.422074 
L 220.614856 301.221625 
L 220.695996 300.529472 
L 220.777136 298.162263 
L 220.939415 301.024574 
L 221.101695 301.176874 
L 221.345115 300.991642 
L 221.669675 300.417692 
L 221.913095 299.538088 
L 222.156514 297.585073 
L 222.318794 294.393511 
L 222.724494 278.311938 
L 222.805634 278.454084 
L 223.049054 286.35516 
L 223.130193 285.98739 
L 223.292473 272.024295 
L 223.373613 274.787526 
L 223.454753 276.449783 
L 223.535893 274.948074 
L 223.617033 275.461596 
L 224.103873 296.069023 
L 224.428432 299.256855 
L 224.752992 300.431775 
L 225.158692 301.080352 
L 225.645531 301.442556 
L 226.375791 301.6898 
L 227.592889 301.84137 
L 227.836309 301.817557 
L 227.917449 301.692603 
L 227.998589 300.471033 
L 228.160869 301.834311 
L 228.485429 301.866221 
L 228.647709 301.746925 
L 228.728848 300.450147 
L 228.891128 301.805719 
L 229.134548 301.898376 
L 230.757347 301.907704 
L 232.785845 301.760272 
L 233.678384 301.511627 
L 234.165224 301.186401 
L 234.489783 300.758745 
L 234.814343 299.884339 
L 235.057763 298.438221 
L 235.301183 294.833196 
L 235.463462 288.84029 
L 235.706882 272.382279 
L 235.788022 273.233071 
L 236.112582 287.882567 
L 236.193722 287.396902 
L 236.356002 280.645725 
L 236.518281 268.763792 
L 236.599421 269.123917 
L 237.005121 294.326006 
L 237.248541 298.130849 
L 237.573101 299.994464 
L 237.9788 300.898649 
L 238.46564 301.362724 
L 239.114759 301.641092 
L 240.250718 301.838596 
L 242.522636 301.960072 
L 248.283571 301.997012 
L 252.746267 301.857316 
L 254.125646 301.613158 
L 254.774765 301.298101 
L 255.180465 300.88056 
L 255.505024 300.220034 
L 255.748444 299.252374 
L 255.991864 297.211604 
L 256.154144 294.312563 
L 256.316424 288.278572 
L 256.559844 272.160265 
L 256.640983 272.353586 
L 256.965543 286.501559 
L 257.046683 286.147082 
L 257.208963 279.83889 
L 257.452383 268.468498 
L 257.939222 293.672176 
L 258.020362 293.65325 
L 258.101502 291.995 
L 258.182642 292.356436 
L 258.426062 298.265261 
L 258.588342 298.719358 
L 258.669482 298.342191 
L 258.750622 297.124846 
L 258.912901 288.587751 
L 258.994041 291.297502 
L 259.237461 299.693101 
L 259.480881 300.821426 
L 259.805441 301.271377 
L 260.29228 301.536024 
L 261.184819 301.72341 
L 262.807618 301.798847 
L 264.105857 301.687697 
L 264.349277 301.511461 
L 264.430416 301.243925 
L 264.592696 297.917363 
L 264.754976 301.344516 
L 264.917256 301.445952 
L 265.079536 301.325554 
L 265.160676 301.119574 
L 265.241816 300.380341 
L 265.322956 293.529386 
L 265.485236 300.67718 
L 265.647515 301.091676 
L 265.890935 300.964278 
L 266.053215 300.731319 
L 266.134355 300.443544 
L 266.215495 299.450958 
L 266.296635 300.181008 
L 266.377775 300.037838 
L 266.621194 298.966189 
L 266.864614 296.3435 
L 267.270314 276.800784 
L 267.432594 265.390565 
L 267.838293 286.439918 
L 267.919433 285.131103 
L 268.081713 275.147959 
L 268.243993 262.200763 
L 268.406273 275.399366 
L 268.649693 292.208039 
L 268.893112 297.311084 
L 269.217672 299.640383 
L 269.542232 300.572542 
L 269.947932 301.121448 
L 270.515911 301.481388 
L 271.40845 301.724378 
L 273.031249 301.881072 
L 276.520266 301.949818 
L 280.496122 301.83985 
L 282.037781 301.594139 
L 282.76804 301.25115 
L 283.17374 300.840922 
L 283.498299 300.222298 
L 283.741719 299.369962 
L 283.985139 297.67352 
L 284.228559 293.568665 
L 284.390839 286.874831 
L 284.715398 263.907634 
L 285.039958 283.013311 
L 285.121098 282.484268 
L 285.283378 270.40874 
L 285.445658 250.360052 
L 285.607937 263.653618 
L 285.851357 286.300722 
L 286.013637 289.765925 
L 286.094777 285.876285 
L 286.175917 269.061899 
L 286.581617 298.455241 
L 286.906176 300.127019 
L 287.311876 300.866796 
L 287.798716 301.260507 
L 288.528975 301.518693 
L 289.583794 301.632827 
L 290.719753 301.557561 
L 291.450012 301.324261 
L 291.936852 300.935346 
L 292.261412 300.387212 
L 292.504831 299.590537 
L 292.748251 297.936691 
L 292.910531 295.608747 
L 293.072811 290.608061 
L 293.235091 278.82172 
L 293.39737 263.76357 
L 293.47851 266.856705 
L 293.72193 285.354959 
L 293.80307 286.803125 
L 293.88421 286.193413 
L 294.04649 277.710251 
L 294.20877 261.642315 
L 294.28991 263.009909 
L 294.614469 291.529318 
L 294.857889 297.157233 
L 295.182449 299.602498 
L 295.507009 300.552259 
L 295.912708 301.102345 
L 296.480688 301.458512 
L 297.373227 301.695439 
L 298.914886 301.836628 
L 301.592503 301.849231 
L 302.241623 301.715805 
L 302.322762 301.606852 
L 302.403902 301.279724 
L 302.566182 299.106688 
L 302.728462 301.526473 
L 302.890742 301.642521 
L 303.053022 301.525714 
L 303.134162 301.274134 
L 303.215302 300.2576 
L 303.296442 293.26533 
L 303.458721 301.073778 
L 303.621001 301.56298 
L 303.945561 301.640392 
L 304.67582 301.482304 
L 305.2438 301.165819 
L 305.6495 300.692931 
L 305.974059 299.961518 
L 306.217479 298.859582 
L 306.460899 296.476502 
L 306.623179 292.969027 
L 306.785458 285.19715 
L 307.028878 261.203633 
L 307.110018 262.016443 
L 307.434578 284.267677 
L 307.515718 284.139626 
L 307.677998 276.386828 
L 307.921417 258.404464 
L 308.327117 292.252158 
L 308.570537 297.110748 
L 308.895097 299.4156 
L 309.219656 300.354779 
L 309.625356 300.891015 
L 309.949916 301.056356 
L 310.112196 300.966431 
L 310.193335 300.685367 
L 310.274475 299.30252 
L 310.355615 291.186687 
L 310.517895 300.782006 
L 310.680175 301.226446 
L 311.004735 301.359253 
L 311.572714 301.323055 
L 312.059554 301.12005 
L 312.465253 300.699995 
L 312.708673 300.181618 
L 312.952093 299.154787 
L 313.195513 296.691856 
L 313.357793 292.612173 
L 313.520072 282.755063 
L 313.682352 268.709517 
L 313.763492 270.427721 
L 314.088052 289.080379 
L 314.169192 288.894649 
L 314.331472 282.370651 
L 314.574892 267.022287 
L 314.980591 295.113267 
L 315.224011 298.540392 
L 315.548571 300.144753 
L 315.87313 300.795862 
L 316.27883 301.165256 
L 316.76567 301.32058 
L 317.090229 301.265417 
L 317.333649 301.010629 
L 317.495929 300.465781 
L 317.658209 298.459656 
L 317.901629 287.684469 
L 318.145048 299.217587 
L 318.226188 299.689064 
L 318.307328 299.663719 
L 318.388468 299.148521 
L 318.469608 297.74315 
L 318.550748 293.941212 
L 318.713028 277.442994 
L 318.875308 296.847416 
L 319.118727 300.591197 
L 319.362147 301.231952 
L 319.686707 301.484623 
L 320.254686 301.589363 
L 321.147226 301.509693 
L 321.796345 301.270618 
L 322.283185 300.842645 
L 322.607744 300.235582 
L 322.851164 299.342148 
L 323.094584 297.447422 
L 323.256864 294.707426 
L 323.419144 288.658046 
L 323.743703 263.009592 
L 324.149403 285.875497 
L 324.230543 284.978776 
L 324.392823 274.698419 
L 324.555103 260.097832 
L 324.717382 274.422852 
L 325.041942 294.414835 
L 325.285362 298.022125 
L 325.609922 299.695473 
L 326.015621 300.573262 
L 326.421321 300.893464 
L 326.827021 300.933876 
L 327.15158 300.759771 
L 327.395 300.406897 
L 327.63842 299.591779 
L 327.8007 298.389164 
L 327.96298 295.712566 
L 328.125259 289.160416 
L 328.287539 281.125236 
L 328.368679 282.504466 
L 328.693239 293.742075 
L 328.774379 293.722641 
L 328.936659 289.783253 
L 329.180078 279.066277 
L 329.585778 297.498592 
L 329.829198 299.708972 
L 330.153758 300.731983 
L 330.559457 301.209926 
L 331.127437 301.458726 
L 331.938836 301.533055 
L 332.750235 301.390752 
L 333.237075 301.101448 
L 333.561634 300.61913 
L 333.723914 299.995886 
L 333.805054 300.003831 
L 334.048474 298.71227 
L 334.210754 296.756719 
L 334.373034 292.093823 
L 334.697593 273.657561 
L 334.859873 281.301278 
L 335.103293 290.300967 
L 335.184433 289.862167 
L 335.346713 283.106849 
L 335.508993 270.448771 
L 335.590133 272.331652 
L 335.914692 294.292035 
L 336.158112 298.221192 
L 336.401532 299.508436 
L 336.563812 299.777027 
L 336.644952 299.762841 
L 336.807232 299.297587 
L 336.969511 297.624155 
L 337.131791 294.844822 
L 337.212931 295.336735 
L 337.537491 300.006963 
L 337.780911 300.852189 
L 338.10547 301.202963 
L 338.51117 301.285538 
L 338.83573 301.170338 
L 339.07915 300.905242 
L 339.322569 300.238306 
L 339.484849 299.157258 
L 339.647129 296.530875 
L 339.890549 289.428404 
L 340.377388 297.937241 
L 340.539668 296.355258 
L 340.783088 288.30193 
L 340.864228 288.726273 
L 341.188788 298.487829 
L 341.432207 300.099698 
L 341.594487 300.368599 
L 341.675627 300.346562 
L 341.837907 299.821345 
L 341.919047 299.003371 
L 342.000187 297.013994 
L 342.243607 273.149158 
L 342.405887 296.499063 
L 342.568166 299.16974 
L 342.649306 299.130178 
L 342.730446 298.349855 
L 342.811586 295.648548 
L 343.055006 241.249297 
L 343.298426 297.978327 
L 343.541846 300.618579 
L 343.622985 300.783264 
L 343.704125 300.717482 
L 343.785265 300.014626 
L 343.947545 290.831973 
L 344.109825 301.054045 
L 344.353245 301.593579 
L 344.840084 301.754966 
L 345.408064 301.871429 
L 346.138323 301.843872 
L 346.381743 301.841091 
L 346.868583 301.9436 
L 349.46506 302.002499 
L 354.008896 302.030563 
L 354.008896 302.030563 
" clip-path="url(#p700db89489)" style="fill: none; stroke: #ff7f0e; stroke-width: 1.5; stroke-linecap: square"/>
   </g>
   <g id="patch_9">
    <path d="M 57.6 307.584 
L 57.6 186.624 
" style="fill: none; stroke: #000000; stroke-width: 0.8; stroke-linejoin: miter; stroke-linecap: square"/>
   </g>
   <g id="patch_10">
    <path d="M 414.72 307.584 
L 414.72 186.624 
" style="fill: none; stroke: #000000; stroke-width: 0.8; stroke-linejoin: miter; stroke-linecap: square"/>
   </g>
   <g id="patch_11">
    <path d="M 57.6 307.584 
L 414.72 307.584 
" style="fill: none; stroke: #000000; stroke-width: 0.8; stroke-linejoin: miter; stroke-linecap: square"/>
   </g>
   <g id="patch_12">
    <path d="M 57.6 186.624 
L 414.72 186.624 
" style="fill: none; stroke: #000000; stroke-width: 0.8; stroke-linejoin: miter; stroke-linecap: square"/>
   </g>
   <g id="text_24">
    <!-- v'=12 295K -->
    <g transform="translate(201.002813 180.624) scale(0.12 -0.12)">
     <use xlink:href="#DejaVuSans-76"/>
     <use xlink:href="#DejaVuSans-27" x="59.179688"/>
     <use xlink:href="#DejaVuSans-3d" x="86.669922"/>
     <use xlink:href="#DejaVuSans-31" x="170.458984"/>
     <use xlink:href="#DejaVuSans-32" x="234.082031"/>
     <use xlink:href="#DejaVuSans-20" x="297.705078"/>
     <use xlink:href="#DejaVuSans-32" x="329.492188"/>
     <use xlink:href="#DejaVuSans-39" x="393.115234"/>
     <use xlink:href="#DejaVuSans-35" x="456.738281"/>
     <use xlink:href="#DejaVuSans-4b" x="520.361328"/>
    </g>
   </g>
   <g id="legend_2">
    <g id="patch_13">
     <path d="M 253.686783 214.409756 
L 408.889 214.409756 
Q 410.555 214.409756 410.555 212.743756 
L 410.555 192.455 
Q 410.555 190.789 408.889 190.789 
L 253.686783 190.789 
Q 252.020783 190.789 252.020783 192.455 
L 252.020783 212.743756 
Q 252.020783 214.409756 253.686783 214.409756 
z
" style="fill: #ffffff; opacity: 0.8; stroke: #cccccc; stroke-linejoin: miter"/>
    </g>
    <g id="line2d_31">
     <path d="M 255.352783 197.534998 
L 263.682783 197.534998 
L 272.012783 197.534998 
" style="fill: none; stroke: #1f77b4; stroke-width: 1.5; stroke-linecap: square"/>
    </g>
    <g id="text_25">
     <!-- data/Harvard/o2wb12x0 v'=12 -->
     <g transform="translate(278.676783 200.450498) scale(0.0833 -0.0833)">
      <defs>
       <path id="DejaVuSans-78" d="M 3513 3500 
L 2247 1797 
L 3578 0 
L 2900 0 
L 1881 1375 
L 863 0 
L 184 0 
L 1544 1831 
L 300 3500 
L 978 3500 
L 1906 2253 
L 2834 3500 
L 3513 3500 
z
" transform="scale(0.015625)"/>
      </defs>
      <use xlink:href="#DejaVuSans-64"/>
      <use xlink:href="#DejaVuSans-61" x="63.476562"/>
      <use xlink:href="#DejaVuSans-74" x="124.755859"/>
      <use xlink:href="#DejaVuSans-61" x="163.964844"/>
      <use xlink:href="#DejaVuSans-2f" x="225.244141"/>
      <use xlink:href="#DejaVuSans-48" x="258.935547"/>
      <use xlink:href="#DejaVuSans-61" x="334.130859"/>
      <use xlink:href="#DejaVuSans-72" x="395.410156"/>
      <use xlink:href="#DejaVuSans-76" x="436.523438"/>
      <use xlink:href="#DejaVuSans-61" x="495.703125"/>
      <use xlink:href="#DejaVuSans-72" x="556.982422"/>
      <use xlink:href="#DejaVuSans-64" x="596.345703"/>
      <use xlink:href="#DejaVuSans-2f" x="659.822266"/>
      <use xlink:href="#DejaVuSans-6f" x="693.513672"/>
      <use xlink:href="#DejaVuSans-32" x="754.695312"/>
      <use xlink:href="#DejaVuSans-77" x="818.318359"/>
      <use xlink:href="#DejaVuSans-62" x="900.105469"/>
      <use xlink:href="#DejaVuSans-31" x="963.582031"/>
      <use xlink:href="#DejaVuSans-32" x="1027.205078"/>
      <use xlink:href="#DejaVuSans-78" x="1090.828125"/>
      <use xlink:href="#DejaVuSans-30" x="1150.007812"/>
      <use xlink:href="#DejaVuSans-20" x="1213.630859"/>
      <use xlink:href="#DejaVuSans-76" x="1245.417969"/>
      <use xlink:href="#DejaVuSans-27" x="1304.597656"/>
      <use xlink:href="#DejaVuSans-3d" x="1332.087891"/>
      <use xlink:href="#DejaVuSans-31" x="1415.876953"/>
      <use xlink:href="#DejaVuSans-32" x="1479.5"/>
     </g>
    </g>
    <g id="line2d_32">
     <path d="M 255.352783 206.429877 
L 263.682783 206.429877 
L 272.012783 206.429877 
" style="fill: none; stroke: #ff7f0e; stroke-width: 1.5; stroke-linecap: square"/>
    </g>
    <g id="text_26">
     <!-- PyDiatomic -->
     <g transform="translate(278.676783 209.345377) scale(0.0833 -0.0833)">
      <use xlink:href="#DejaVuSans-50"/>
      <use xlink:href="#DejaVuSans-79" x="60.302734"/>
      <use xlink:href="#DejaVuSans-44" x="119.482422"/>
      <use xlink:href="#DejaVuSans-69" x="196.484375"/>
      <use xlink:href="#DejaVuSans-61" x="224.267578"/>
      <use xlink:href="#DejaVuSans-74" x="285.546875"/>
      <use xlink:href="#DejaVuSans-6f" x="324.755859"/>
      <use xlink:href="#DejaVuSans-6d" x="385.9375"/>
      <use xlink:href="#DejaVuSans-69" x="483.349609"/>
      <use xlink:href="#DejaVuSans-63" x="511.132812"/>
     </g>
    </g>
   </g>
  </g>
 </g>
 <defs>
  <clipPath id="pde39cde0da">
   <rect x="57.6" y="41.472" width="357.12" height="120.96"/>
  </clipPath>
  <clipPath id="p700db89489">
   <rect x="57.6" y="186.624" width="357.12" height="120.96"/>
  </clipPath>
 </defs>
</svg>
