<?xml version="1.0" encoding="utf-8" standalone="no"?>
<!DOCTYPE svg PUBLIC "-//W3C//DTD SVG 1.1//EN"
  "http://www.w3.org/Graphics/SVG/1.1/DTD/svg11.dtd">
<svg xmlns:xlink="http://www.w3.org/1999/xlink" width="460.8pt" height="345.6pt" viewBox="0 0 460.8 345.6" xmlns="http://www.w3.org/2000/svg" version="1.1">
 <metadata>
  <rdf:RDF xmlns:dc="http://purl.org/dc/elements/1.1/" xmlns:cc="http://creativecommons.org/ns#" xmlns:rdf="http://www.w3.org/1999/02/22-rdf-syntax-ns#">
   <cc:Work>
    <dc:type rdf:resource="http://purl.org/dc/dcmitype/StillImage"/>
    <dc:date>2023-06-15T16:05:05.805650</dc:date>
    <dc:format>image/svg+xml</dc:format>
    <dc:creator>
     <cc:Agent>
      <dc:title>Matplotlib v3.7.0, https://matplotlib.org/</dc:title>
     </cc:Agent>
    </dc:creator>
   </cc:Work>
  </rdf:RDF>
 </metadata>
 <defs>
  <style type="text/css">*{stroke-linejoin: round; stroke-linecap: butt}</style>
 </defs>
 <g id="figure_1">
  <g id="patch_1">
   <path d="M 0 345.6 
L 460.8 345.6 
L 460.8 0 
L 0 0 
z
" style="fill: #ffffff"/>
  </g>
  <g id="axes_1">
   <g id="patch_2">
    <path d="M 48.602 299.608 
L 249.301 299.608 
L 249.301 26.88 
L 48.602 26.88 
z
" style="fill: #ffffff"/>
   </g>
   <g id="matplotlib.axis_1">
    <g id="xtick_1">
     <g id="line2d_1">
      <defs>
       <path id="me2cbf44b34" d="M 0 0 
L 0 3.5 
" style="stroke: #000000; stroke-width: 0.8"/>
      </defs>
      <g>
       <use xlink:href="#me2cbf44b34" x="236.757312" y="299.608" style="stroke: #000000; stroke-width: 0.8"/>
      </g>
     </g>
     <g id="text_1">
      <!-- 0.0 -->
      <g transform="translate(228.80575 314.206437) scale(0.1 -0.1)">
       <defs>
        <path id="DejaVuSans-30" d="M 2034 4250 
Q 1547 4250 1301 3770 
Q 1056 3291 1056 2328 
Q 1056 1369 1301 889 
Q 1547 409 2034 409 
Q 2525 409 2770 889 
Q 3016 1369 3016 2328 
Q 3016 3291 2770 3770 
Q 2525 4250 2034 4250 
z
M 2034 4750 
Q 2819 4750 3233 4129 
Q 3647 3509 3647 2328 
Q 3647 1150 3233 529 
Q 2819 -91 2034 -91 
Q 1250 -91 836 529 
Q 422 1150 422 2328 
Q 422 3509 836 4129 
Q 1250 4750 2034 4750 
z
" transform="scale(0.015625)"/>
        <path id="DejaVuSans-2e" d="M 684 794 
L 1344 794 
L 1344 0 
L 684 0 
L 684 794 
z
" transform="scale(0.015625)"/>
       </defs>
       <use xlink:href="#DejaVuSans-30"/>
       <use xlink:href="#DejaVuSans-2e" x="63.623047"/>
       <use xlink:href="#DejaVuSans-30" x="95.410156"/>
      </g>
     </g>
    </g>
    <g id="xtick_2">
     <g id="line2d_2">
      <g>
       <use xlink:href="#me2cbf44b34" x="174.038875" y="299.608" style="stroke: #000000; stroke-width: 0.8"/>
      </g>
     </g>
     <g id="text_2">
      <!-- 0.5 -->
      <g transform="translate(166.087312 314.206437) scale(0.1 -0.1)">
       <defs>
        <path id="DejaVuSans-35" d="M 691 4666 
L 3169 4666 
L 3169 4134 
L 1269 4134 
L 1269 2991 
Q 1406 3038 1543 3061 
Q 1681 3084 1819 3084 
Q 2600 3084 3056 2656 
Q 3513 2228 3513 1497 
Q 3513 744 3044 326 
Q 2575 -91 1722 -91 
Q 1428 -91 1123 -41 
Q 819 9 494 109 
L 494 744 
Q 775 591 1075 516 
Q 1375 441 1709 441 
Q 2250 441 2565 725 
Q 2881 1009 2881 1497 
Q 2881 1984 2565 2268 
Q 2250 2553 1709 2553 
Q 1456 2553 1204 2497 
Q 953 2441 691 2322 
L 691 4666 
z
" transform="scale(0.015625)"/>
       </defs>
       <use xlink:href="#DejaVuSans-30"/>
       <use xlink:href="#DejaVuSans-2e" x="63.623047"/>
       <use xlink:href="#DejaVuSans-35" x="95.410156"/>
      </g>
     </g>
    </g>
    <g id="xtick_3">
     <g id="line2d_3">
      <g>
       <use xlink:href="#me2cbf44b34" x="111.320437" y="299.608" style="stroke: #000000; stroke-width: 0.8"/>
      </g>
     </g>
     <g id="text_3">
      <!-- 1.0 -->
      <g transform="translate(103.368875 314.206437) scale(0.1 -0.1)">
       <defs>
        <path id="DejaVuSans-31" d="M 794 531 
L 1825 531 
L 1825 4091 
L 703 3866 
L 703 4441 
L 1819 4666 
L 2450 4666 
L 2450 531 
L 3481 531 
L 3481 0 
L 794 0 
L 794 531 
z
" transform="scale(0.015625)"/>
       </defs>
       <use xlink:href="#DejaVuSans-31"/>
       <use xlink:href="#DejaVuSans-2e" x="63.623047"/>
       <use xlink:href="#DejaVuSans-30" x="95.410156"/>
      </g>
     </g>
    </g>
    <g id="xtick_4">
     <g id="line2d_4">
      <g>
       <use xlink:href="#me2cbf44b34" x="48.602" y="299.608" style="stroke: #000000; stroke-width: 0.8"/>
      </g>
     </g>
     <g id="text_4">
      <!-- 1.5 -->
      <g transform="translate(40.650437 314.206437) scale(0.1 -0.1)">
       <use xlink:href="#DejaVuSans-31"/>
       <use xlink:href="#DejaVuSans-2e" x="63.623047"/>
       <use xlink:href="#DejaVuSans-35" x="95.410156"/>
      </g>
     </g>
    </g>
    <g id="text_5">
     <!-- cross section (cm$^{2}$) -->
     <g transform="translate(100.7515 328.706437) scale(0.1 -0.1)">
      <defs>
       <path id="DejaVuSans-63" d="M 3122 3366 
L 3122 2828 
Q 2878 2963 2633 3030 
Q 2388 3097 2138 3097 
Q 1578 3097 1268 2742 
Q 959 2388 959 1747 
Q 959 1106 1268 751 
Q 1578 397 2138 397 
Q 2388 397 2633 464 
Q 2878 531 3122 666 
L 3122 134 
Q 2881 22 2623 -34 
Q 2366 -91 2075 -91 
Q 1284 -91 818 406 
Q 353 903 353 1747 
Q 353 2603 823 3093 
Q 1294 3584 2113 3584 
Q 2378 3584 2631 3529 
Q 2884 3475 3122 3366 
z
" transform="scale(0.015625)"/>
       <path id="DejaVuSans-72" d="M 2631 2963 
Q 2534 3019 2420 3045 
Q 2306 3072 2169 3072 
Q 1681 3072 1420 2755 
Q 1159 2438 1159 1844 
L 1159 0 
L 581 0 
L 581 3500 
L 1159 3500 
L 1159 2956 
Q 1341 3275 1631 3429 
Q 1922 3584 2338 3584 
Q 2397 3584 2469 3576 
Q 2541 3569 2628 3553 
L 2631 2963 
z
" transform="scale(0.015625)"/>
       <path id="DejaVuSans-6f" d="M 1959 3097 
Q 1497 3097 1228 2736 
Q 959 2375 959 1747 
Q 959 1119 1226 758 
Q 1494 397 1959 397 
Q 2419 397 2687 759 
Q 2956 1122 2956 1747 
Q 2956 2369 2687 2733 
Q 2419 3097 1959 3097 
z
M 1959 3584 
Q 2709 3584 3137 3096 
Q 3566 2609 3566 1747 
Q 3566 888 3137 398 
Q 2709 -91 1959 -91 
Q 1206 -91 779 398 
Q 353 888 353 1747 
Q 353 2609 779 3096 
Q 1206 3584 1959 3584 
z
" transform="scale(0.015625)"/>
       <path id="DejaVuSans-73" d="M 2834 3397 
L 2834 2853 
Q 2591 2978 2328 3040 
Q 2066 3103 1784 3103 
Q 1356 3103 1142 2972 
Q 928 2841 928 2578 
Q 928 2378 1081 2264 
Q 1234 2150 1697 2047 
L 1894 2003 
Q 2506 1872 2764 1633 
Q 3022 1394 3022 966 
Q 3022 478 2636 193 
Q 2250 -91 1575 -91 
Q 1294 -91 989 -36 
Q 684 19 347 128 
L 347 722 
Q 666 556 975 473 
Q 1284 391 1588 391 
Q 1994 391 2212 530 
Q 2431 669 2431 922 
Q 2431 1156 2273 1281 
Q 2116 1406 1581 1522 
L 1381 1569 
Q 847 1681 609 1914 
Q 372 2147 372 2553 
Q 372 3047 722 3315 
Q 1072 3584 1716 3584 
Q 2034 3584 2315 3537 
Q 2597 3491 2834 3397 
z
" transform="scale(0.015625)"/>
       <path id="DejaVuSans-20" transform="scale(0.015625)"/>
       <path id="DejaVuSans-65" d="M 3597 1894 
L 3597 1613 
L 953 1613 
Q 991 1019 1311 708 
Q 1631 397 2203 397 
Q 2534 397 2845 478 
Q 3156 559 3463 722 
L 3463 178 
Q 3153 47 2828 -22 
Q 2503 -91 2169 -91 
Q 1331 -91 842 396 
Q 353 884 353 1716 
Q 353 2575 817 3079 
Q 1281 3584 2069 3584 
Q 2775 3584 3186 3129 
Q 3597 2675 3597 1894 
z
M 3022 2063 
Q 3016 2534 2758 2815 
Q 2500 3097 2075 3097 
Q 1594 3097 1305 2825 
Q 1016 2553 972 2059 
L 3022 2063 
z
" transform="scale(0.015625)"/>
       <path id="DejaVuSans-74" d="M 1172 4494 
L 1172 3500 
L 2356 3500 
L 2356 3053 
L 1172 3053 
L 1172 1153 
Q 1172 725 1289 603 
Q 1406 481 1766 481 
L 2356 481 
L 2356 0 
L 1766 0 
Q 1100 0 847 248 
Q 594 497 594 1153 
L 594 3053 
L 172 3053 
L 172 3500 
L 594 3500 
L 594 4494 
L 1172 4494 
z
" transform="scale(0.015625)"/>
       <path id="DejaVuSans-69" d="M 603 3500 
L 1178 3500 
L 1178 0 
L 603 0 
L 603 3500 
z
M 603 4863 
L 1178 4863 
L 1178 4134 
L 603 4134 
L 603 4863 
z
" transform="scale(0.015625)"/>
       <path id="DejaVuSans-6e" d="M 3513 2113 
L 3513 0 
L 2938 0 
L 2938 2094 
Q 2938 2591 2744 2837 
Q 2550 3084 2163 3084 
Q 1697 3084 1428 2787 
Q 1159 2491 1159 1978 
L 1159 0 
L 581 0 
L 581 3500 
L 1159 3500 
L 1159 2956 
Q 1366 3272 1645 3428 
Q 1925 3584 2291 3584 
Q 2894 3584 3203 3211 
Q 3513 2838 3513 2113 
z
" transform="scale(0.015625)"/>
       <path id="DejaVuSans-28" d="M 1984 4856 
Q 1566 4138 1362 3434 
Q 1159 2731 1159 2009 
Q 1159 1288 1364 580 
Q 1569 -128 1984 -844 
L 1484 -844 
Q 1016 -109 783 600 
Q 550 1309 550 2009 
Q 550 2706 781 3412 
Q 1013 4119 1484 4856 
L 1984 4856 
z
" transform="scale(0.015625)"/>
       <path id="DejaVuSans-6d" d="M 3328 2828 
Q 3544 3216 3844 3400 
Q 4144 3584 4550 3584 
Q 5097 3584 5394 3201 
Q 5691 2819 5691 2113 
L 5691 0 
L 5113 0 
L 5113 2094 
Q 5113 2597 4934 2840 
Q 4756 3084 4391 3084 
Q 3944 3084 3684 2787 
Q 3425 2491 3425 1978 
L 3425 0 
L 2847 0 
L 2847 2094 
Q 2847 2600 2669 2842 
Q 2491 3084 2119 3084 
Q 1678 3084 1418 2786 
Q 1159 2488 1159 1978 
L 1159 0 
L 581 0 
L 581 3500 
L 1159 3500 
L 1159 2956 
Q 1356 3278 1631 3431 
Q 1906 3584 2284 3584 
Q 2666 3584 2933 3390 
Q 3200 3197 3328 2828 
z
" transform="scale(0.015625)"/>
       <path id="DejaVuSans-32" d="M 1228 531 
L 3431 531 
L 3431 0 
L 469 0 
L 469 531 
Q 828 903 1448 1529 
Q 2069 2156 2228 2338 
Q 2531 2678 2651 2914 
Q 2772 3150 2772 3378 
Q 2772 3750 2511 3984 
Q 2250 4219 1831 4219 
Q 1534 4219 1204 4116 
Q 875 4013 500 3803 
L 500 4441 
Q 881 4594 1212 4672 
Q 1544 4750 1819 4750 
Q 2544 4750 2975 4387 
Q 3406 4025 3406 3419 
Q 3406 3131 3298 2873 
Q 3191 2616 2906 2266 
Q 2828 2175 2409 1742 
Q 1991 1309 1228 531 
z
" transform="scale(0.015625)"/>
       <path id="DejaVuSans-29" d="M 513 4856 
L 1013 4856 
Q 1481 4119 1714 3412 
Q 1947 2706 1947 2009 
Q 1947 1309 1714 600 
Q 1481 -109 1013 -844 
L 513 -844 
Q 928 -128 1133 580 
Q 1338 1288 1338 2009 
Q 1338 2731 1133 3434 
Q 928 4138 513 4856 
z
" transform="scale(0.015625)"/>
      </defs>
      <use xlink:href="#DejaVuSans-63" transform="translate(0 0.765625)"/>
      <use xlink:href="#DejaVuSans-72" transform="translate(54.980469 0.765625)"/>
      <use xlink:href="#DejaVuSans-6f" transform="translate(96.09375 0.765625)"/>
      <use xlink:href="#DejaVuSans-73" transform="translate(157.275391 0.765625)"/>
      <use xlink:href="#DejaVuSans-73" transform="translate(209.375 0.765625)"/>
      <use xlink:href="#DejaVuSans-20" transform="translate(261.474609 0.765625)"/>
      <use xlink:href="#DejaVuSans-73" transform="translate(293.261719 0.765625)"/>
      <use xlink:href="#DejaVuSans-65" transform="translate(345.361328 0.765625)"/>
      <use xlink:href="#DejaVuSans-63" transform="translate(406.884766 0.765625)"/>
      <use xlink:href="#DejaVuSans-74" transform="translate(461.865234 0.765625)"/>
      <use xlink:href="#DejaVuSans-69" transform="translate(501.074219 0.765625)"/>
      <use xlink:href="#DejaVuSans-6f" transform="translate(528.857422 0.765625)"/>
      <use xlink:href="#DejaVuSans-6e" transform="translate(590.039062 0.765625)"/>
      <use xlink:href="#DejaVuSans-20" transform="translate(653.417969 0.765625)"/>
      <use xlink:href="#DejaVuSans-28" transform="translate(685.205078 0.765625)"/>
      <use xlink:href="#DejaVuSans-63" transform="translate(724.21875 0.765625)"/>
      <use xlink:href="#DejaVuSans-6d" transform="translate(779.199219 0.765625)"/>
      <use xlink:href="#DejaVuSans-32" transform="translate(877.568359 39.046875) scale(0.7)"/>
      <use xlink:href="#DejaVuSans-29" transform="translate(924.838867 0.765625)"/>
     </g>
    </g>
    <g id="text_6">
     <!-- 1e−17 -->
     <g transform="translate(215.680688 326.884563) scale(0.1 -0.1)">
      <defs>
       <path id="DejaVuSans-2212" d="M 678 2272 
L 4684 2272 
L 4684 1741 
L 678 1741 
L 678 2272 
z
" transform="scale(0.015625)"/>
       <path id="DejaVuSans-37" d="M 525 4666 
L 3525 4666 
L 3525 4397 
L 1831 0 
L 1172 0 
L 2766 4134 
L 525 4134 
L 525 4666 
z
" transform="scale(0.015625)"/>
      </defs>
      <use xlink:href="#DejaVuSans-31"/>
      <use xlink:href="#DejaVuSans-65" x="63.623047"/>
      <use xlink:href="#DejaVuSans-2212" x="125.146484"/>
      <use xlink:href="#DejaVuSans-31" x="208.935547"/>
      <use xlink:href="#DejaVuSans-37" x="272.558594"/>
     </g>
    </g>
   </g>
   <g id="matplotlib.axis_2">
    <g id="ytick_1">
     <g id="line2d_5">
      <defs>
       <path id="me0b42f438a" d="M 0 0 
L -3.5 0 
" style="stroke: #000000; stroke-width: 0.8"/>
      </defs>
      <g>
       <use xlink:href="#me0b42f438a" x="48.602" y="257.732428" style="stroke: #000000; stroke-width: 0.8"/>
      </g>
     </g>
     <g id="text_7">
      <!-- 5 -->
      <g transform="translate(35.2395 261.531647) scale(0.1 -0.1)">
       <use xlink:href="#DejaVuSans-35"/>
      </g>
     </g>
    </g>
    <g id="ytick_2">
     <g id="line2d_6">
      <g>
       <use xlink:href="#me0b42f438a" x="48.602" y="212.277762" style="stroke: #000000; stroke-width: 0.8"/>
      </g>
     </g>
     <g id="text_8">
      <!-- 6 -->
      <g transform="translate(35.2395 216.07698) scale(0.1 -0.1)">
       <defs>
        <path id="DejaVuSans-36" d="M 2113 2584 
Q 1688 2584 1439 2293 
Q 1191 2003 1191 1497 
Q 1191 994 1439 701 
Q 1688 409 2113 409 
Q 2538 409 2786 701 
Q 3034 994 3034 1497 
Q 3034 2003 2786 2293 
Q 2538 2584 2113 2584 
z
M 3366 4563 
L 3366 3988 
Q 3128 4100 2886 4159 
Q 2644 4219 2406 4219 
Q 1781 4219 1451 3797 
Q 1122 3375 1075 2522 
Q 1259 2794 1537 2939 
Q 1816 3084 2150 3084 
Q 2853 3084 3261 2657 
Q 3669 2231 3669 1497 
Q 3669 778 3244 343 
Q 2819 -91 2113 -91 
Q 1303 -91 875 529 
Q 447 1150 447 2328 
Q 447 3434 972 4092 
Q 1497 4750 2381 4750 
Q 2619 4750 2861 4703 
Q 3103 4656 3366 4563 
z
" transform="scale(0.015625)"/>
       </defs>
       <use xlink:href="#DejaVuSans-36"/>
      </g>
     </g>
    </g>
    <g id="ytick_3">
     <g id="line2d_7">
      <g>
       <use xlink:href="#me0b42f438a" x="48.602" y="166.823095" style="stroke: #000000; stroke-width: 0.8"/>
      </g>
     </g>
     <g id="text_9">
      <!-- 7 -->
      <g transform="translate(35.2395 170.622314) scale(0.1 -0.1)">
       <use xlink:href="#DejaVuSans-37"/>
      </g>
     </g>
    </g>
    <g id="ytick_4">
     <g id="line2d_8">
      <g>
       <use xlink:href="#me0b42f438a" x="48.602" y="121.368428" style="stroke: #000000; stroke-width: 0.8"/>
      </g>
     </g>
     <g id="text_10">
      <!-- 8 -->
      <g transform="translate(35.2395 125.167647) scale(0.1 -0.1)">
       <defs>
        <path id="DejaVuSans-38" d="M 2034 2216 
Q 1584 2216 1326 1975 
Q 1069 1734 1069 1313 
Q 1069 891 1326 650 
Q 1584 409 2034 409 
Q 2484 409 2743 651 
Q 3003 894 3003 1313 
Q 3003 1734 2745 1975 
Q 2488 2216 2034 2216 
z
M 1403 2484 
Q 997 2584 770 2862 
Q 544 3141 544 3541 
Q 544 4100 942 4425 
Q 1341 4750 2034 4750 
Q 2731 4750 3128 4425 
Q 3525 4100 3525 3541 
Q 3525 3141 3298 2862 
Q 3072 2584 2669 2484 
Q 3125 2378 3379 2068 
Q 3634 1759 3634 1313 
Q 3634 634 3220 271 
Q 2806 -91 2034 -91 
Q 1263 -91 848 271 
Q 434 634 434 1313 
Q 434 1759 690 2068 
Q 947 2378 1403 2484 
z
M 1172 3481 
Q 1172 3119 1398 2916 
Q 1625 2713 2034 2713 
Q 2441 2713 2670 2916 
Q 2900 3119 2900 3481 
Q 2900 3844 2670 4047 
Q 2441 4250 2034 4250 
Q 1625 4250 1398 4047 
Q 1172 3844 1172 3481 
z
" transform="scale(0.015625)"/>
       </defs>
       <use xlink:href="#DejaVuSans-38"/>
      </g>
     </g>
    </g>
    <g id="ytick_5">
     <g id="line2d_9">
      <g>
       <use xlink:href="#me0b42f438a" x="48.602" y="75.913762" style="stroke: #000000; stroke-width: 0.8"/>
      </g>
     </g>
     <g id="text_11">
      <!-- 9 -->
      <g transform="translate(35.2395 79.71298) scale(0.1 -0.1)">
       <defs>
        <path id="DejaVuSans-39" d="M 703 97 
L 703 672 
Q 941 559 1184 500 
Q 1428 441 1663 441 
Q 2288 441 2617 861 
Q 2947 1281 2994 2138 
Q 2813 1869 2534 1725 
Q 2256 1581 1919 1581 
Q 1219 1581 811 2004 
Q 403 2428 403 3163 
Q 403 3881 828 4315 
Q 1253 4750 1959 4750 
Q 2769 4750 3195 4129 
Q 3622 3509 3622 2328 
Q 3622 1225 3098 567 
Q 2575 -91 1691 -91 
Q 1453 -91 1209 -44 
Q 966 3 703 97 
z
M 1959 2075 
Q 2384 2075 2632 2365 
Q 2881 2656 2881 3163 
Q 2881 3666 2632 3958 
Q 2384 4250 1959 4250 
Q 1534 4250 1286 3958 
Q 1038 3666 1038 3163 
Q 1038 2656 1286 2365 
Q 1534 2075 1959 2075 
z
" transform="scale(0.015625)"/>
       </defs>
       <use xlink:href="#DejaVuSans-39"/>
      </g>
     </g>
    </g>
    <g id="ytick_6">
     <g id="line2d_10">
      <g>
       <use xlink:href="#me0b42f438a" x="48.602" y="30.459095" style="stroke: #000000; stroke-width: 0.8"/>
      </g>
     </g>
     <g id="text_12">
      <!-- 10 -->
      <g transform="translate(28.877 34.258314) scale(0.1 -0.1)">
       <use xlink:href="#DejaVuSans-31"/>
       <use xlink:href="#DejaVuSans-30" x="63.623047"/>
      </g>
     </g>
    </g>
    <g id="text_13">
     <!-- wavenumber above $X$min. ($10^4$cm$^{-1}$) -->
     <g transform="translate(22.797313 256.144) rotate(-90) scale(0.1 -0.1)">
      <defs>
       <path id="DejaVuSans-77" d="M 269 3500 
L 844 3500 
L 1563 769 
L 2278 3500 
L 2956 3500 
L 3675 769 
L 4391 3500 
L 4966 3500 
L 4050 0 
L 3372 0 
L 2619 2869 
L 1863 0 
L 1184 0 
L 269 3500 
z
" transform="scale(0.015625)"/>
       <path id="DejaVuSans-61" d="M 2194 1759 
Q 1497 1759 1228 1600 
Q 959 1441 959 1056 
Q 959 750 1161 570 
Q 1363 391 1709 391 
Q 2188 391 2477 730 
Q 2766 1069 2766 1631 
L 2766 1759 
L 2194 1759 
z
M 3341 1997 
L 3341 0 
L 2766 0 
L 2766 531 
Q 2569 213 2275 61 
Q 1981 -91 1556 -91 
Q 1019 -91 701 211 
Q 384 513 384 1019 
Q 384 1609 779 1909 
Q 1175 2209 1959 2209 
L 2766 2209 
L 2766 2266 
Q 2766 2663 2505 2880 
Q 2244 3097 1772 3097 
Q 1472 3097 1187 3025 
Q 903 2953 641 2809 
L 641 3341 
Q 956 3463 1253 3523 
Q 1550 3584 1831 3584 
Q 2591 3584 2966 3190 
Q 3341 2797 3341 1997 
z
" transform="scale(0.015625)"/>
       <path id="DejaVuSans-76" d="M 191 3500 
L 800 3500 
L 1894 563 
L 2988 3500 
L 3597 3500 
L 2284 0 
L 1503 0 
L 191 3500 
z
" transform="scale(0.015625)"/>
       <path id="DejaVuSans-75" d="M 544 1381 
L 544 3500 
L 1119 3500 
L 1119 1403 
Q 1119 906 1312 657 
Q 1506 409 1894 409 
Q 2359 409 2629 706 
Q 2900 1003 2900 1516 
L 2900 3500 
L 3475 3500 
L 3475 0 
L 2900 0 
L 2900 538 
Q 2691 219 2414 64 
Q 2138 -91 1772 -91 
Q 1169 -91 856 284 
Q 544 659 544 1381 
z
M 1991 3584 
L 1991 3584 
z
" transform="scale(0.015625)"/>
       <path id="DejaVuSans-62" d="M 3116 1747 
Q 3116 2381 2855 2742 
Q 2594 3103 2138 3103 
Q 1681 3103 1420 2742 
Q 1159 2381 1159 1747 
Q 1159 1113 1420 752 
Q 1681 391 2138 391 
Q 2594 391 2855 752 
Q 3116 1113 3116 1747 
z
M 1159 2969 
Q 1341 3281 1617 3432 
Q 1894 3584 2278 3584 
Q 2916 3584 3314 3078 
Q 3713 2572 3713 1747 
Q 3713 922 3314 415 
Q 2916 -91 2278 -91 
Q 1894 -91 1617 61 
Q 1341 213 1159 525 
L 1159 0 
L 581 0 
L 581 4863 
L 1159 4863 
L 1159 2969 
z
" transform="scale(0.015625)"/>
       <path id="DejaVuSans-Oblique-58" d="M 878 4666 
L 1516 4666 
L 2316 2981 
L 3763 4666 
L 4500 4666 
L 2578 2438 
L 3738 0 
L 3103 0 
L 2163 1966 
L 459 0 
L -275 0 
L 1906 2509 
L 878 4666 
z
" transform="scale(0.015625)"/>
       <path id="DejaVuSans-34" d="M 2419 4116 
L 825 1625 
L 2419 1625 
L 2419 4116 
z
M 2253 4666 
L 3047 4666 
L 3047 1625 
L 3713 1625 
L 3713 1100 
L 3047 1100 
L 3047 0 
L 2419 0 
L 2419 1100 
L 313 1100 
L 313 1709 
L 2253 4666 
z
" transform="scale(0.015625)"/>
      </defs>
      <use xlink:href="#DejaVuSans-77" transform="translate(0 0.684375)"/>
      <use xlink:href="#DejaVuSans-61" transform="translate(81.787109 0.684375)"/>
      <use xlink:href="#DejaVuSans-76" transform="translate(143.066406 0.684375)"/>
      <use xlink:href="#DejaVuSans-65" transform="translate(202.246094 0.684375)"/>
      <use xlink:href="#DejaVuSans-6e" transform="translate(263.769531 0.684375)"/>
      <use xlink:href="#DejaVuSans-75" transform="translate(327.148438 0.684375)"/>
      <use xlink:href="#DejaVuSans-6d" transform="translate(390.527344 0.684375)"/>
      <use xlink:href="#DejaVuSans-62" transform="translate(487.939453 0.684375)"/>
      <use xlink:href="#DejaVuSans-65" transform="translate(551.416016 0.684375)"/>
      <use xlink:href="#DejaVuSans-72" transform="translate(612.939453 0.684375)"/>
      <use xlink:href="#DejaVuSans-20" transform="translate(654.052734 0.684375)"/>
      <use xlink:href="#DejaVuSans-61" transform="translate(685.839844 0.684375)"/>
      <use xlink:href="#DejaVuSans-62" transform="translate(747.119141 0.684375)"/>
      <use xlink:href="#DejaVuSans-6f" transform="translate(810.595703 0.684375)"/>
      <use xlink:href="#DejaVuSans-76" transform="translate(871.777344 0.684375)"/>
      <use xlink:href="#DejaVuSans-65" transform="translate(930.957031 0.684375)"/>
      <use xlink:href="#DejaVuSans-20" transform="translate(992.480469 0.684375)"/>
      <use xlink:href="#DejaVuSans-Oblique-58" transform="translate(1024.267578 0.684375)"/>
      <use xlink:href="#DejaVuSans-6d" transform="translate(1092.773438 0.684375)"/>
      <use xlink:href="#DejaVuSans-69" transform="translate(1190.185547 0.684375)"/>
      <use xlink:href="#DejaVuSans-6e" transform="translate(1217.96875 0.684375)"/>
      <use xlink:href="#DejaVuSans-2e" transform="translate(1281.347656 0.684375)"/>
      <use xlink:href="#DejaVuSans-20" transform="translate(1313.134766 0.684375)"/>
      <use xlink:href="#DejaVuSans-28" transform="translate(1344.921875 0.684375)"/>
      <use xlink:href="#DejaVuSans-31" transform="translate(1383.935547 0.684375)"/>
      <use xlink:href="#DejaVuSans-30" transform="translate(1447.558594 0.684375)"/>
      <use xlink:href="#DejaVuSans-34" transform="translate(1512.138672 38.965625) scale(0.7)"/>
      <use xlink:href="#DejaVuSans-63" transform="translate(1559.40918 0.684375)"/>
      <use xlink:href="#DejaVuSans-6d" transform="translate(1614.389648 0.684375)"/>
      <use xlink:href="#DejaVuSans-2212" transform="translate(1712.758789 38.965625) scale(0.7)"/>
      <use xlink:href="#DejaVuSans-31" transform="translate(1771.411133 38.965625) scale(0.7)"/>
      <use xlink:href="#DejaVuSans-29" transform="translate(1818.681641 0.684375)"/>
     </g>
    </g>
    <g id="text_14">
     <!-- 1e4 -->
     <g transform="translate(48.602 23.88) scale(0.1 -0.1)">
      <use xlink:href="#DejaVuSans-31"/>
      <use xlink:href="#DejaVuSans-65" x="63.623047"/>
      <use xlink:href="#DejaVuSans-34" x="125.146484"/>
     </g>
    </g>
   </g>
   <g id="line2d_11">
    <path d="M 229.210809 223.641428 
L 226.314837 221.32324 
L 224.112894 219.868691 
L 221.411346 218.323232 
L 218.217777 216.732319 
L 214.248001 215.005042 
L 209.358303 213.1414 
L 203.692034 211.232304 
L 197.062455 209.232299 
L 188.899103 207.00502 
L 178.679936 204.459559 
L 165.643667 201.459551 
L 148.62696 197.777723 
L 106.976328 188.823154 
L 96.529767 186.277692 
L 89.510507 184.368596 
L 83.622401 182.55041 
L 79.290013 181.004951 
L 75.328786 179.323128 
L 73.024215 178.141307 
L 70.828048 176.732212 
L 69.538214 175.6413 
L 68.564072 174.459479 
L 68.10121 173.550386 
L 67.913039 172.459474 
L 68.078002 171.459471 
L 68.649844 170.368559 
L 69.584428 169.323102 
L 70.985242 168.23219 
L 72.92174 167.095823 
L 75.039567 166.09582 
L 78.453357 164.777635 
L 81.561524 163.777632 
L 85.487363 162.68672 
L 90.255755 161.550354 
L 95.617656 160.459442 
L 101.981919 159.36853 
L 109.084305 158.368527 
L 117.234823 157.459434 
L 125.66817 156.732159 
L 136.174342 156.050339 
L 149.682133 155.413974 
L 167.175195 154.823063 
L 194.794112 154.141243 
L 231.568761 153.23215 
L 236.492009 152.913967 
L 236.756937 152.823058 
L 236.706827 152.777603 
L 235.880428 152.641239 
L 232.622143 152.413966 
L 221.164421 151.913964 
L 205.752248 151.18669 
L 199.429892 150.686688 
L 196.722363 150.277596 
L 195.859247 149.959414 
L 195.779447 149.777595 
L 195.950769 149.595776 
L 196.649553 149.323048 
L 198.501249 148.913956 
L 202.174363 148.3685 
L 209.458227 147.550316 
L 232.629168 145.095764 
L 235.450473 144.550308 
L 236.539227 144.141216 
L 236.756908 143.868488 
L 236.637764 143.641215 
L 236.160077 143.368487 
L 234.853566 142.959395 
L 232.084724 142.368484 
L 223.568426 140.641207 
L 222.017319 140.095751 
L 221.32602 139.641204 
L 221.159509 139.277567 
L 221.288995 138.959384 
L 221.712807 138.595747 
L 222.622914 138.1412 
L 224.462069 137.504835 
L 228.007299 136.550287 
L 234.2562 134.868464 
L 235.934516 134.186644 
L 236.5705 133.732098 
L 236.755485 133.36846 
L 236.666126 133.050278 
L 236.271754 132.68664 
L 235.463891 132.277548 
L 233.840968 131.732092 
L 230.717846 130.959363 
L 220.591068 128.59572 
L 219.117769 128.00481 
L 218.462089 127.550263 
L 218.26582 127.186626 
L 218.335564 126.868443 
L 218.699811 126.504806 
L 219.47187 126.095714 
L 220.927074 125.595712 
L 223.587357 124.959347 
L 227.933198 124.186618 
L 236.593387 122.732068 
L 236.757164 122.595704 
L 236.730737 122.55025 
L 236.325915 122.413886 
L 234.708772 122.232067 
L 229.724039 122.004794 
L 218.328263 121.77752 
L 192.893272 121.550247 
L 132.799592 121.322974 
L -1 121.123215 
M -1 119.427144 
L 72.664728 119.095695 
L 122.033164 118.686603 
L 156.826674 118.186602 
L 182.184373 117.595691 
L 201.51696 116.913871 
L 215.869371 116.186596 
L 225.952995 115.459322 
L 231.915347 114.822956 
L 235.082913 114.2775 
L 236.356578 113.868408 
L 236.739744 113.550226 
L 236.710506 113.322952 
L 236.367175 113.050224 
L 235.43543 112.686587 
L 233.395451 112.186586 
L 229.491969 111.504766 
L 223.103433 110.641127 
L 215.322422 109.822943 
L 207.485216 109.232032 
L 198.21791 108.777486 
L 185.780687 108.413848 
L 169.28618 108.14112 
L 136.649996 107.868392 
L 73.107316 107.641119 
L -1 107.516101 
M -1 107.0609 
L 176.023943 106.86839 
L 223.367966 106.641116 
L 234.171204 106.413843 
L 236.587218 106.18657 
L 236.749458 106.050206 
L 236.520572 105.913842 
L 235.072026 105.50475 
L 232.47041 104.73202 
L 231.193605 104.14111 
L 230.483823 103.595654 
L 230.135637 103.050198 
L 230.080214 102.550196 
L 230.234358 102.050195 
L 230.662912 101.459284 
L 231.469388 100.777464 
L 232.694744 100.05019 
L 234.529101 99.232006 
L 236.701284 98.277458 
L 236.72197 98.095639 
L 236.415839 97.959275 
L 235.160146 97.777456 
L 231.888337 97.595638 
L 223.85764 97.413819 
L 203.550149 97.232 
L 151.001643 97.050182 
L 15.200288 96.731999 
L 23.01796 96.686544 
L 173.206148 96.095634 
L 197.679127 95.731996 
L 210.157011 95.322904 
L 217.627842 94.868358 
L 223.070182 94.322902 
L 227.327635 93.686536 
L 231.07396 92.913807 
L 234.021707 92.095623 
L 235.747126 91.413803 
L 236.510198 90.913802 
L 236.745073 90.550164 
L 236.700719 90.231982 
L 236.404029 89.913799 
L 235.740191 89.550162 
L 234.409652 89.095615 
L 232.077242 88.550159 
L 228.320649 87.913794 
L 223.212377 87.277428 
L 216.541095 86.686518 
L 207.528387 86.141062 
L 194.149153 85.368332 
L 194.198417 85.322878 
L 194.951743 85.231968 
L 199.27152 85.05015 
L 233.147517 84.004692 
L 235.616783 83.68651 
L 236.544628 83.368327 
L 236.752661 83.095599 
L 236.675583 82.777416 
L 236.201116 82.186506 
L 235.043879 80.777411 
L 234.497421 79.731954 
L 234.061436 78.368314 
L 233.635926 77.231947 
L 233.290596 76.86831 
L 232.685678 76.595582 
L 231.693445 76.413763 
L 229.691212 76.277399 
L 225.573374 76.18649 
L 199.445939 76.09558 
L -1 76.066121 
M -1 76.033506 
L 232.498469 75.959216 
L 232.498469 75.959216 
" clip-path="url(#p2765d27923)" style="fill: none; stroke: #1f77b4; stroke-width: 1.5; stroke-linecap: square"/>
   </g>
   <g id="line2d_12">
    <path d="M 236.998861 86.978908 
L 236.550826 87.327138 
L 236.691656 88.021773 
L 235.927443 88.368182 
L 235.632518 88.713986 
L 234.670369 89.059188 
L 233.539016 89.747791 
L 219.896088 90.434002 
L 230.9432 90.776216 
L 233.907337 91.117836 
L 235.842264 91.458864 
L 236.432222 91.799303 
L 236.558056 92.139153 
L 236.349115 92.478416 
L 236.366494 92.817093 
L 235.586044 93.492698 
L 235.059888 93.829629 
L 235.698596 94.16598 
L 236.635739 94.501753 
L 236.575669 95.505619 
L 235.691659 96.172001 
L 233.752874 96.504337 
L 229.908271 96.836106 
L 223.523095 97.167309 
L 219.759738 97.497947 
L 221.620845 97.828022 
L 230.105796 98.814881 
L 232.381535 99.142717 
L 234.14963 99.796722 
L 235.654137 101.098104 
L 236.250655 101.422077 
L 236.353756 101.745503 
L 236.779825 102.068385 
L 236.496554 102.390722 
L 236.633902 102.712518 
L 235.489547 103.354488 
L 235.016236 103.674666 
L 231.70104 104.631982 
L 229.598705 104.95002 
L 221.679675 105.900952 
L 215.338841 106.216873 
L 192.576438 106.847137 
L 167.248099 107.161484 
L 66.731392 107.788611 
L 50.019437 108.101395 
L 185.581576 109.036641 
L 213.727479 109.34736 
L 225.251013 109.657565 
L 231.269989 109.967258 
L 233.150701 110.27644 
L 235.997999 110.585114 
L 236.904419 110.893279 
L 236.398073 111.200937 
L 236.391585 111.50809 
L 234.710459 112.731669 
L 234.055013 113.036313 
L 233.674463 113.340458 
L 233.528015 113.644106 
L 232.054835 115.154934 
L 231.951675 115.755829 
L 231.283586 116.055545 
L 230.17436 116.354775 
L 230.451701 116.65352 
L 231.259101 116.951781 
L 231.425242 117.249559 
L 232.074992 117.546856 
L 233.867799 118.14001 
L 233.614617 118.435869 
L 230.731413 118.731252 
L 216.123072 119.026159 
L 140.582728 119.320591 
L 123.078639 119.614551 
L 201.362162 120.201053 
L 210.680491 120.493599 
L 216.368427 120.785676 
L 219.286088 121.077286 
L 226.101262 122.239068 
L 230.456204 123.680907 
L 231.068725 123.967901 
L 232.191887 124.254439 
L 232.399309 124.540522 
L 232.405167 124.826153 
L 232.93342 125.11133 
L 233.980504 125.396057 
L 234.466923 125.680334 
L 235.675581 126.24754 
L 235.823036 126.812959 
L 236.303838 127.095001 
L 236.619647 127.657753 
L 236.469846 127.938467 
L 236.465605 128.218739 
L 234.659719 129.891178 
L 233.844167 130.445179 
L 233.621202 130.721532 
L 232.289703 131.272947 
L 231.67801 132.096859 
L 231.662443 132.370644 
L 231.410528 132.644005 
L 231.495248 133.189456 
L 231.025826 133.461549 
L 230.861165 133.733222 
L 230.467694 134.004475 
L 231.299479 134.275309 
L 232.234172 135.623235 
L 233.173418 135.891578 
L 233.260032 136.159509 
L 234.992754 137.227134 
L 235.262782 137.49302 
L 236.111893 138.023573 
L 236.100644 138.288243 
L 236.444667 138.55251 
L 236.467902 138.816374 
L 236.050256 139.342897 
L 236.089991 139.605559 
L 234.954659 139.867822 
L 235.031452 140.129687 
L 234.685923 140.391155 
L 231.452186 141.173185 
L 230.685127 141.433073 
L 230.762835 141.692569 
L 229.559243 141.951674 
L 226.127052 142.468711 
L 225.315889 142.726645 
L 222.409968 143.241351 
L 221.914743 143.498123 
L 220.367103 143.75451 
L 220.597782 144.010513 
L 219.876645 144.266132 
L 217.24799 144.776221 
L 217.29691 145.030693 
L 217.625429 145.284785 
L 215.584321 145.538498 
L 215.224442 145.791831 
L 218.056681 146.044787 
L 213.043722 146.549569 
L 217.533484 146.801397 
L 221.796206 147.554636 
L 226.57964 148.054934 
L 228.550981 148.304527 
L 234.64404 148.802606 
L 232.631857 149.051093 
L 234.391887 149.299213 
L 234.281628 149.546967 
L 235.558718 149.794356 
L 233.066797 150.04138 
L 229.374236 150.28804 
L 227.453797 150.534337 
L 220.28005 150.780272 
L 202.846959 151.271058 
L 199.183575 151.515911 
L 173.357376 152.248319 
L 170.455771 152.491741 
L 146.654876 153.219874 
L 138.793873 153.703527 
L 133.188726 154.185771 
L 123.517668 154.666614 
L 124.615241 154.906512 
L 123.625042 155.146062 
L 115.481806 155.624119 
L 113.502914 155.862629 
L 106.077176 156.338613 
L 107.803188 156.576089 
L 105.53278 156.813223 
L 105.194101 157.050014 
L 101.977899 157.522572 
L 97.800851 157.758342 
L 96.89896 157.993771 
L 97.019379 158.228863 
L 92.83606 158.463616 
L 91.333326 158.698033 
L 91.545314 158.932113 
L 90.181815 159.165857 
L 86.448814 159.399267 
L 86.026092 159.632342 
L 85.094096 159.865085 
L 88.512251 160.097494 
L 81.918034 160.329571 
L 81.599424 160.561317 
L 80.577114 160.792733 
L 78.948943 161.023818 
L 76.23198 161.254575 
L 76.379996 161.485003 
L 77.03854 161.715103 
L 78.350609 161.944876 
L 77.540287 162.174322 
L 72.974385 162.403443 
L 73.175084 162.632239 
L 69.544941 162.860711 
L 69.655325 163.088859 
L 68.764723 163.544187 
L 66.301143 163.998229 
L 72.077511 164.224769 
L 67.451399 164.45099 
L 69.132253 164.676892 
L 63.970526 164.902475 
L 65.630056 165.127742 
L 65.830755 165.352691 
L 68.193986 165.577324 
L 66.212083 165.801642 
L 61.854406 166.025645 
L 61.961027 166.249333 
L 63.281877 166.472709 
L 62.71992 166.695771 
L 63.092468 166.918521 
L 64.062095 167.14096 
L 61.609804 167.363088 
L 62.512949 167.584905 
L 59.752084 167.806413 
L 59.981633 168.027612 
L 62.299707 168.248503 
L 60.3454 168.469086 
L 61.636146 168.909331 
L 60.384286 169.128995 
L 63.418604 169.348354 
L 61.001435 169.786159 
L 61.315027 170.004607 
L 63.153932 170.440594 
L 61.991132 170.658136 
L 62.586957 170.875377 
L 62.003676 171.308959 
L 66.503096 171.741346 
L 65.050537 171.957093 
L 62.188068 172.172543 
L 65.219877 172.387697 
L 64.600219 172.602554 
L 62.970794 172.817117 
L 62.837831 173.031385 
L 65.390471 173.245359 
L 65.480786 173.45904 
L 65.149633 173.672428 
L 63.379718 173.885524 
L 67.570564 174.098329 
L 67.995795 174.310843 
L 64.457221 174.734999 
L 71.945802 175.158 
L 71.319872 175.369068 
L 70.264948 175.579848 
L 71.925733 176.00055 
L 72.218 176.210472 
L 75.721452 176.629461 
L 74.50346 176.83853 
L 75.417895 177.047315 
L 74.727992 177.255818 
L 75.10932 177.464039 
L 78.04078 177.671978 
L 76.944462 177.879636 
L 80.805409 178.294111 
L 79.815712 178.500929 
L 82.0949 178.707469 
L 82.707032 178.91373 
L 83.859797 179.119714 
L 80.918302 179.325421 
L 84.499525 179.736006 
L 82.621735 179.940885 
L 86.207975 180.145489 
L 84.879599 180.349819 
L 85.529362 180.553875 
L 89.591008 180.757658 
L 90.597011 180.961169 
L 80.030209 181.367374 
L 85.297303 181.57007 
L 96.407247 181.772495 
L 94.476774 182.176537 
L 94.328758 182.378154 
L 95.337271 182.579503 
L 102.048144 182.780584 
L 101.989188 182.981398 
L 99.134245 183.181946 
L 99.23334 183.382227 
L 107.562349 184.180701 
L 104.288446 184.379659 
L 108.963479 184.974959 
L 107.682768 185.172868 
L 110.833742 185.567905 
L 110.496317 185.765033 
L 109.028706 185.961902 
L 116.47213 186.550958 
L 116.357104 186.746794 
L 116.977641 186.942374 
L 118.665895 187.137697 
L 120.298206 187.527577 
L 121.677635 187.722134 
L 121.508295 187.916437 
L 124.855703 188.304282 
L 122.804183 188.497825 
L 126.476097 188.691116 
L 124.974994 188.884155 
L 129.882586 189.269479 
L 129.773331 189.461765 
L 134.044707 190.228416 
L 133.272643 190.419458 
L 136.185413 190.800799 
L 135.009442 190.9911 
L 138.447792 191.181155 
L 136.835176 191.370964 
L 137.748733 191.560528 
L 140.71682 191.749848 
L 140.802744 191.938923 
L 140.645697 192.127755 
L 143.793912 192.316343 
L 142.718918 192.504689 
L 147.392069 193.068275 
L 146.942001 193.255655 
L 150.534639 193.816353 
L 152.24196 194.002774 
L 151.203217 194.188956 
L 151.903155 194.374901 
L 154.758098 194.560607 
L 154.993042 194.746077 
L 155.865204 195.116306 
L 159.892104 195.301067 
L 159.148264 195.485592 
L 161.15149 195.853938 
L 161.3695 196.03776 
L 162.592886 196.404704 
L 164.829801 196.770716 
L 163.715796 196.953375 
L 167.697665 197.499964 
L 167.354971 197.681699 
L 167.669943 197.863205 
L 171.687561 198.22553 
L 171.031526 198.40635 
L 173.147646 198.586942 
L 174.683244 199.127355 
L 174.69792 199.30704 
L 178.147309 200.023526 
L 180.5493 200.202086 
L 178.4032 200.380423 
L 179.717402 200.558536 
L 182.420191 200.736427 
L 181.36627 200.914095 
L 184.397578 201.268766 
L 183.614224 201.44577 
L 183.840638 201.622553 
L 184.845513 201.799116 
L 184.295472 201.975459 
L 186.84322 202.151582 
L 186.980699 202.327486 
L 185.837091 202.503172 
L 189.719237 202.853889 
L 189.032345 203.028921 
L 191.994411 203.203737 
L 191.204535 203.378335 
L 191.480872 203.552717 
L 193.593104 203.726884 
L 193.635502 203.900835 
L 193.318272 204.074571 
L 195.664945 204.4214 
L 195.101733 204.594493 
L 195.203713 204.767373 
L 196.799396 204.94004 
L 196.748343 205.112494 
L 198.987517 205.284736 
L 198.389685 205.456766 
L 198.617102 205.628585 
L 201.047065 205.971589 
L 201.097365 206.313753 
L 201.066758 206.48452 
L 203.332901 206.825427 
L 203.500108 206.995568 
L 203.907026 207.165501 
L 203.769296 207.335226 
L 205.261493 207.504744 
L 204.752345 207.674055 
L 205.324588 208.012059 
L 207.755554 208.349239 
L 207.792935 208.517522 
L 208.179907 208.6856 
L 208.008811 208.853473 
L 209.79014 209.18861 
L 210.00401 209.355873 
L 210.693411 209.689792 
L 212.130416 209.856448 
L 211.55579 210.022902 
L 212.990662 210.355208 
L 212.083001 210.52106 
L 214.263721 210.852163 
L 214.257073 211.182469 
L 215.381364 211.347323 
L 215.043939 211.511979 
L 215.943446 211.676437 
L 215.92877 211.840698 
L 216.954844 212.004761 
L 216.139755 212.168627 
L 217.866645 212.332296 
L 216.56185 212.49577 
L 217.891857 212.822129 
L 217.914436 212.985016 
L 218.783588 213.147707 
L 218.459208 213.310205 
L 218.85885 213.472508 
L 218.181993 213.634617 
L 220.15662 213.958256 
L 220.068062 214.119786 
L 221.535046 214.281124 
L 219.688615 214.44227 
L 219.687988 214.603224 
L 222.559865 215.084938 
L 220.275534 215.245129 
L 221.805237 215.405129 
L 221.718435 215.56494 
L 223.803948 215.724561 
L 223.421993 215.883993 
L 221.649695 216.043237 
L 224.614898 216.202292 
L 225.19192 216.678332 
L 225.971021 216.836637 
L 225.922602 216.994755 
L 226.580882 217.467994 
L 226.5428 217.62537 
L 227.072407 217.939565 
L 226.949215 218.096386 
L 227.835665 218.565746 
L 227.86799 218.877737 
L 228.578778 219.188998 
L 228.791105 219.499531 
L 229.235428 219.80934 
L 230.126067 220.426794 
L 230.520779 220.734444 
L 230.147103 220.888001 
L 230.57764 221.19458 
L 231.120066 221.347602 
L 230.864928 221.500448 
L 231.319085 221.653116 
L 231.881682 222.413811 
L 231.728435 222.565423 
L 232.125142 222.71686 
L 232.086282 222.868122 
L 232.37308 223.170124 
L 232.410548 223.320864 
L 232.677102 223.471431 
L 232.498555 223.621825 
L 232.653181 223.772045 
L 232.604951 223.922093 
L 233.099009 224.071969 
L 233.200901 224.221673 
L 232.903804 224.371205 
L 233.095446 224.520566 
L 233.095446 224.520566 
" clip-path="url(#p2765d27923)" style="fill: none; stroke: #2ca02c; stroke-width: 1.5; stroke-linecap: square"/>
   </g>
   <g id="patch_3">
    <path d="M 48.602 299.608 
L 48.602 26.88 
" style="fill: none; stroke: #000000; stroke-width: 0.8; stroke-linejoin: miter; stroke-linecap: square"/>
   </g>
   <g id="patch_4">
    <path d="M 249.301 299.608 
L 249.301 26.88 
" style="fill: none; stroke: #000000; stroke-width: 0.8; stroke-linejoin: miter; stroke-linecap: square"/>
   </g>
   <g id="patch_5">
    <path d="M 48.602 299.608 
L 249.301 299.608 
" style="fill: none; stroke: #000000; stroke-width: 0.8; stroke-linejoin: miter; stroke-linecap: square"/>
   </g>
   <g id="patch_6">
    <path d="M 48.602 26.88 
L 249.301 26.88 
" style="fill: none; stroke: #000000; stroke-width: 0.8; stroke-linejoin: miter; stroke-linecap: square"/>
   </g>
   <g id="text_15">
    <!-- photodissociation -->
    <g transform="translate(96.111188 20.88) scale(0.12 -0.12)">
     <defs>
      <path id="DejaVuSans-70" d="M 1159 525 
L 1159 -1331 
L 581 -1331 
L 581 3500 
L 1159 3500 
L 1159 2969 
Q 1341 3281 1617 3432 
Q 1894 3584 2278 3584 
Q 2916 3584 3314 3078 
Q 3713 2572 3713 1747 
Q 3713 922 3314 415 
Q 2916 -91 2278 -91 
Q 1894 -91 1617 61 
Q 1341 213 1159 525 
z
M 3116 1747 
Q 3116 2381 2855 2742 
Q 2594 3103 2138 3103 
Q 1681 3103 1420 2742 
Q 1159 2381 1159 1747 
Q 1159 1113 1420 752 
Q 1681 391 2138 391 
Q 2594 391 2855 752 
Q 3116 1113 3116 1747 
z
" transform="scale(0.015625)"/>
      <path id="DejaVuSans-68" d="M 3513 2113 
L 3513 0 
L 2938 0 
L 2938 2094 
Q 2938 2591 2744 2837 
Q 2550 3084 2163 3084 
Q 1697 3084 1428 2787 
Q 1159 2491 1159 1978 
L 1159 0 
L 581 0 
L 581 4863 
L 1159 4863 
L 1159 2956 
Q 1366 3272 1645 3428 
Q 1925 3584 2291 3584 
Q 2894 3584 3203 3211 
Q 3513 2838 3513 2113 
z
" transform="scale(0.015625)"/>
      <path id="DejaVuSans-64" d="M 2906 2969 
L 2906 4863 
L 3481 4863 
L 3481 0 
L 2906 0 
L 2906 525 
Q 2725 213 2448 61 
Q 2172 -91 1784 -91 
Q 1150 -91 751 415 
Q 353 922 353 1747 
Q 353 2572 751 3078 
Q 1150 3584 1784 3584 
Q 2172 3584 2448 3432 
Q 2725 3281 2906 2969 
z
M 947 1747 
Q 947 1113 1208 752 
Q 1469 391 1925 391 
Q 2381 391 2643 752 
Q 2906 1113 2906 1747 
Q 2906 2381 2643 2742 
Q 2381 3103 1925 3103 
Q 1469 3103 1208 2742 
Q 947 2381 947 1747 
z
" transform="scale(0.015625)"/>
     </defs>
     <use xlink:href="#DejaVuSans-70"/>
     <use xlink:href="#DejaVuSans-68" x="63.476562"/>
     <use xlink:href="#DejaVuSans-6f" x="126.855469"/>
     <use xlink:href="#DejaVuSans-74" x="188.037109"/>
     <use xlink:href="#DejaVuSans-6f" x="227.246094"/>
     <use xlink:href="#DejaVuSans-64" x="288.427734"/>
     <use xlink:href="#DejaVuSans-69" x="351.904297"/>
     <use xlink:href="#DejaVuSans-73" x="379.6875"/>
     <use xlink:href="#DejaVuSans-73" x="431.787109"/>
     <use xlink:href="#DejaVuSans-6f" x="483.886719"/>
     <use xlink:href="#DejaVuSans-63" x="545.068359"/>
     <use xlink:href="#DejaVuSans-69" x="600.048828"/>
     <use xlink:href="#DejaVuSans-61" x="627.832031"/>
     <use xlink:href="#DejaVuSans-74" x="689.111328"/>
     <use xlink:href="#DejaVuSans-69" x="728.320312"/>
     <use xlink:href="#DejaVuSans-6f" x="756.103516"/>
     <use xlink:href="#DejaVuSans-6e" x="817.285156"/>
    </g>
   </g>
   <g id="legend_1">
    <g id="patch_7">
     <path d="M 165.4179 57.516178 
L 243.47 57.516178 
Q 245.136 57.516178 245.136 55.850178 
L 245.136 32.711 
Q 245.136 31.045 243.47 31.045 
L 165.4179 31.045 
Q 163.7519 31.045 163.7519 32.711 
L 163.7519 55.850178 
Q 163.7519 57.516178 165.4179 57.516178 
z
" style="fill: #ffffff; opacity: 0.8; stroke: #cccccc; stroke-linejoin: miter"/>
    </g>
    <g id="line2d_13">
     <path d="M 167.0839 37.790998 
L 175.4139 37.790998 
L 183.7439 37.790998 
" style="fill: none; stroke: #1f77b4; stroke-width: 1.5; stroke-linecap: square"/>
    </g>
    <g id="text_16">
     <!-- B³Σ₁⁻ -->
     <g transform="translate(190.4079 40.706498) scale(0.0833 -0.0833)">
      <defs>
       <path id="DejaVuSans-42" d="M 1259 2228 
L 1259 519 
L 2272 519 
Q 2781 519 3026 730 
Q 3272 941 3272 1375 
Q 3272 1813 3026 2020 
Q 2781 2228 2272 2228 
L 1259 2228 
z
M 1259 4147 
L 1259 2741 
L 2194 2741 
Q 2656 2741 2882 2914 
Q 3109 3088 3109 3444 
Q 3109 3797 2882 3972 
Q 2656 4147 2194 4147 
L 1259 4147 
z
M 628 4666 
L 2241 4666 
Q 2963 4666 3353 4366 
Q 3744 4066 3744 3513 
Q 3744 3084 3544 2831 
Q 3344 2578 2956 2516 
Q 3422 2416 3680 2098 
Q 3938 1781 3938 1306 
Q 3938 681 3513 340 
Q 3088 0 2303 0 
L 628 0 
L 628 4666 
z
" transform="scale(0.015625)"/>
       <path id="DejaVuSans-b3" d="M 1638 3500 
Q 1925 3444 2083 3273 
Q 2241 3103 2241 2847 
Q 2241 2459 1944 2250 
Q 1647 2041 1094 2041 
Q 916 2041 720 2073 
Q 525 2106 306 2169 
L 306 2547 
Q 469 2463 655 2422 
Q 841 2381 1050 2381 
Q 1391 2381 1578 2504 
Q 1766 2628 1766 2847 
Q 1766 3078 1592 3197 
Q 1419 3316 1081 3316 
L 813 3316 
L 813 3653 
L 1106 3653 
Q 1400 3653 1551 3751 
Q 1703 3850 1703 4038 
Q 1703 4219 1547 4314 
Q 1391 4409 1094 4409 
Q 969 4409 809 4381 
Q 650 4353 397 4281 
L 397 4641 
Q 625 4694 825 4722 
Q 1025 4750 1197 4750 
Q 1647 4750 1911 4565 
Q 2175 4381 2175 4072 
Q 2175 3856 2034 3706 
Q 1894 3556 1638 3500 
z
" transform="scale(0.015625)"/>
       <path id="DejaVuSans-3a3" d="M 1353 531 
L 3634 531 
L 3634 0 
L 628 0 
L 628 531 
L 2125 2481 
L 628 4134 
L 628 4666 
L 3578 4666 
L 3578 4134 
L 1353 4134 
L 2850 2494 
L 1353 531 
z
" transform="scale(0.015625)"/>
       <path id="DejaVuSans-2081" d="M 488 319 
L 1125 319 
L 1125 2229 
L 428 2101 
L 428 2463 
L 1147 2585 
L 1575 2585 
L 1575 319 
L 2216 319 
L 2216 -24 
L 488 -24 
L 488 319 
z
" transform="scale(0.015625)"/>
       <path id="DejaVuSans-207b" d="M 428 3359 
L 2950 3359 
L 2950 3063 
L 428 3063 
L 428 3359 
z
" transform="scale(0.015625)"/>
      </defs>
      <use xlink:href="#DejaVuSans-42"/>
      <use xlink:href="#DejaVuSans-b3" x="68.603516"/>
      <use xlink:href="#DejaVuSans-3a3" x="108.691406"/>
      <use xlink:href="#DejaVuSans-2081" x="171.875"/>
      <use xlink:href="#DejaVuSans-207b" x="211.962891"/>
     </g>
    </g>
    <g id="line2d_14">
     <path d="M 167.0839 49.519378 
L 175.4139 49.519378 
L 183.7439 49.519378 
" style="fill: none; stroke: #2ca02c; stroke-width: 1.5; stroke-linecap: square"/>
    </g>
    <g id="text_17">
     <!-- expt. O($^1D_2$) -->
     <g transform="translate(190.4079 52.434878) scale(0.0833 -0.0833)">
      <defs>
       <path id="DejaVuSans-78" d="M 3513 3500 
L 2247 1797 
L 3578 0 
L 2900 0 
L 1881 1375 
L 863 0 
L 184 0 
L 1544 1831 
L 300 3500 
L 978 3500 
L 1906 2253 
L 2834 3500 
L 3513 3500 
z
" transform="scale(0.015625)"/>
       <path id="DejaVuSans-4f" d="M 2522 4238 
Q 1834 4238 1429 3725 
Q 1025 3213 1025 2328 
Q 1025 1447 1429 934 
Q 1834 422 2522 422 
Q 3209 422 3611 934 
Q 4013 1447 4013 2328 
Q 4013 3213 3611 3725 
Q 3209 4238 2522 4238 
z
M 2522 4750 
Q 3503 4750 4090 4092 
Q 4678 3434 4678 2328 
Q 4678 1225 4090 567 
Q 3503 -91 2522 -91 
Q 1538 -91 948 565 
Q 359 1222 359 2328 
Q 359 3434 948 4092 
Q 1538 4750 2522 4750 
z
" transform="scale(0.015625)"/>
       <path id="DejaVuSans-Oblique-44" d="M 1081 4666 
L 2438 4666 
Q 3519 4666 4070 4208 
Q 4622 3750 4622 2847 
Q 4622 2250 4412 1698 
Q 4203 1147 3834 769 
Q 3463 381 2891 190 
Q 2319 0 1538 0 
L 172 0 
L 1081 4666 
z
M 1613 4147 
L 909 519 
L 1734 519 
Q 2794 519 3375 1128 
Q 3956 1738 3956 2847 
Q 3956 3519 3581 3833 
Q 3206 4147 2406 4147 
L 1613 4147 
z
" transform="scale(0.015625)"/>
      </defs>
      <use xlink:href="#DejaVuSans-65" transform="translate(0 0.684375)"/>
      <use xlink:href="#DejaVuSans-78" transform="translate(61.523438 0.684375)"/>
      <use xlink:href="#DejaVuSans-70" transform="translate(120.703125 0.684375)"/>
      <use xlink:href="#DejaVuSans-74" transform="translate(184.179688 0.684375)"/>
      <use xlink:href="#DejaVuSans-2e" transform="translate(223.388672 0.684375)"/>
      <use xlink:href="#DejaVuSans-20" transform="translate(255.175781 0.684375)"/>
      <use xlink:href="#DejaVuSans-4f" transform="translate(286.962891 0.684375)"/>
      <use xlink:href="#DejaVuSans-28" transform="translate(365.673828 0.684375)"/>
      <use xlink:href="#DejaVuSans-31" transform="translate(405.644531 38.965625) scale(0.7)"/>
      <use xlink:href="#DejaVuSans-Oblique-44" transform="translate(452.915039 0.684375)"/>
      <use xlink:href="#DejaVuSans-32" transform="translate(529.916992 -15.721875) scale(0.7)"/>
      <use xlink:href="#DejaVuSans-29" transform="translate(577.1875 0.684375)"/>
     </g>
    </g>
   </g>
  </g>
  <g id="axes_2">
   <g id="patch_8">
    <path d="M 249.301 299.608 
L 450 299.608 
L 450 26.88 
L 249.301 26.88 
z
" style="fill: #ffffff"/>
   </g>
   <g id="matplotlib.axis_3">
    <g id="xtick_5">
     <g id="line2d_15">
      <g>
       <use xlink:href="#me2cbf44b34" x="269.3709" y="299.608" style="stroke: #000000; stroke-width: 0.8"/>
      </g>
     </g>
     <g id="text_18">
      <!-- 1.0 -->
      <g transform="translate(261.419337 314.206437) scale(0.1 -0.1)">
       <use xlink:href="#DejaVuSans-31"/>
       <use xlink:href="#DejaVuSans-2e" x="63.623047"/>
       <use xlink:href="#DejaVuSans-30" x="95.410156"/>
      </g>
     </g>
    </g>
    <g id="xtick_6">
     <g id="line2d_16">
      <g>
       <use xlink:href="#me2cbf44b34" x="319.54565" y="299.608" style="stroke: #000000; stroke-width: 0.8"/>
      </g>
     </g>
     <g id="text_19">
      <!-- 1.5 -->
      <g transform="translate(311.594088 314.206437) scale(0.1 -0.1)">
       <use xlink:href="#DejaVuSans-31"/>
       <use xlink:href="#DejaVuSans-2e" x="63.623047"/>
       <use xlink:href="#DejaVuSans-35" x="95.410156"/>
      </g>
     </g>
    </g>
    <g id="xtick_7">
     <g id="line2d_17">
      <g>
       <use xlink:href="#me2cbf44b34" x="369.7204" y="299.608" style="stroke: #000000; stroke-width: 0.8"/>
      </g>
     </g>
     <g id="text_20">
      <!-- 2.0 -->
      <g transform="translate(361.768838 314.206437) scale(0.1 -0.1)">
       <use xlink:href="#DejaVuSans-32"/>
       <use xlink:href="#DejaVuSans-2e" x="63.623047"/>
       <use xlink:href="#DejaVuSans-30" x="95.410156"/>
      </g>
     </g>
    </g>
    <g id="xtick_8">
     <g id="line2d_18">
      <g>
       <use xlink:href="#me2cbf44b34" x="419.89515" y="299.608" style="stroke: #000000; stroke-width: 0.8"/>
      </g>
     </g>
     <g id="text_21">
      <!-- 2.5 -->
      <g transform="translate(411.943588 314.206437) scale(0.1 -0.1)">
       <use xlink:href="#DejaVuSans-32"/>
       <use xlink:href="#DejaVuSans-2e" x="63.623047"/>
       <use xlink:href="#DejaVuSans-35" x="95.410156"/>
      </g>
     </g>
    </g>
    <g id="text_22">
     <!-- internuclear distance ($\AA$) -->
     <g transform="translate(287.6005 328.906437) scale(0.1 -0.1)">
      <defs>
       <path id="DejaVuSans-6c" d="M 603 4863 
L 1178 4863 
L 1178 0 
L 603 0 
L 603 4863 
z
" transform="scale(0.015625)"/>
       <path id="DejaVuSans-Oblique-c5" d="M 3188 5081 
Q 3188 5278 3048 5417 
Q 2909 5556 2713 5556 
Q 2513 5556 2377 5420 
Q 2241 5284 2241 5081 
Q 2241 4884 2377 4746 
Q 2513 4609 2713 4609 
Q 2909 4609 3048 4746 
Q 3188 4884 3188 5081 
z
M 2203 4397 
Q 2034 4513 1945 4689 
Q 1856 4866 1856 5081 
Q 1856 5438 2106 5689 
Q 2356 5941 2713 5941 
Q 3069 5941 3320 5689 
Q 3572 5438 3572 5081 
Q 3572 4834 3458 4643 
Q 3344 4453 3128 4341 
L 3938 0 
L 3278 0 
L 3084 1197 
L 984 1197 
L 325 0 
L -341 0 
L 2203 4397 
z
M 2584 4044 
L 1275 1722 
L 2988 1722 
L 2584 4044 
z
" transform="scale(0.015625)"/>
      </defs>
      <use xlink:href="#DejaVuSans-69" transform="translate(0 0.171875)"/>
      <use xlink:href="#DejaVuSans-6e" transform="translate(27.783203 0.171875)"/>
      <use xlink:href="#DejaVuSans-74" transform="translate(91.162109 0.171875)"/>
      <use xlink:href="#DejaVuSans-65" transform="translate(130.371094 0.171875)"/>
      <use xlink:href="#DejaVuSans-72" transform="translate(191.894531 0.171875)"/>
      <use xlink:href="#DejaVuSans-6e" transform="translate(233.007812 0.171875)"/>
      <use xlink:href="#DejaVuSans-75" transform="translate(296.386719 0.171875)"/>
      <use xlink:href="#DejaVuSans-63" transform="translate(359.765625 0.171875)"/>
      <use xlink:href="#DejaVuSans-6c" transform="translate(414.746094 0.171875)"/>
      <use xlink:href="#DejaVuSans-65" transform="translate(442.529297 0.171875)"/>
      <use xlink:href="#DejaVuSans-61" transform="translate(504.052734 0.171875)"/>
      <use xlink:href="#DejaVuSans-72" transform="translate(565.332031 0.171875)"/>
      <use xlink:href="#DejaVuSans-20" transform="translate(606.445312 0.171875)"/>
      <use xlink:href="#DejaVuSans-64" transform="translate(638.232422 0.171875)"/>
      <use xlink:href="#DejaVuSans-69" transform="translate(701.708984 0.171875)"/>
      <use xlink:href="#DejaVuSans-73" transform="translate(729.492188 0.171875)"/>
      <use xlink:href="#DejaVuSans-74" transform="translate(781.591797 0.171875)"/>
      <use xlink:href="#DejaVuSans-61" transform="translate(820.800781 0.171875)"/>
      <use xlink:href="#DejaVuSans-6e" transform="translate(882.080078 0.171875)"/>
      <use xlink:href="#DejaVuSans-63" transform="translate(945.458984 0.171875)"/>
      <use xlink:href="#DejaVuSans-65" transform="translate(1000.439453 0.171875)"/>
      <use xlink:href="#DejaVuSans-20" transform="translate(1061.962891 0.171875)"/>
      <use xlink:href="#DejaVuSans-28" transform="translate(1093.75 0.171875)"/>
      <use xlink:href="#DejaVuSans-Oblique-c5" transform="translate(1132.763672 0.171875)"/>
      <use xlink:href="#DejaVuSans-29" transform="translate(1201.171875 0.171875)"/>
     </g>
    </g>
   </g>
   <g id="line2d_19">
    <path d="M 276.27141 -1 
L 277.900607 25.042503 
L 279.907597 54.003065 
L 281.914587 79.857595 
L 283.921577 102.907142 
L 285.928567 123.424794 
L 287.935557 141.658226 
L 289.942547 157.832014 
L 291.949537 172.149743 
L 293.956527 184.795925 
L 295.963517 195.93774 
L 297.970507 205.726627 
L 299.977497 214.299719 
L 301.984488 221.781164 
L 303.991477 228.361287 
L 305.49672 232.638277 
L 307.001962 236.411922 
L 309.008952 240.83049 
L 311.015942 244.636113 
L 313.022933 247.886382 
L 315.029922 250.6221 
L 317.036912 252.882541 
L 318.542155 254.290237 
L 320.047397 255.469746 
L 322.054387 256.718415 
L 324.061377 257.631332 
L 326.068368 258.241872 
L 328.075357 258.580586 
L 330.082347 258.675971 
L 332.089337 258.555323 
L 334.598075 258.1396 
L 337.106812 257.473374 
L 340.117298 256.403148 
L 343.127782 255.098724 
L 347.141763 253.089288 
L 352.159238 250.300502 
L 369.218653 240.584523 
L 374.737875 237.845747 
L 379.253603 235.822153 
L 383.76933 234.0431 
L 388.786805 232.305322 
L 393.80428 230.811809 
L 398.821755 229.556831 
L 404.340978 228.401444 
L 410.361948 227.359055 
L 416.884665 226.447517 
L 424.410878 225.619205 
L 433.442333 224.854636 
L 444.480778 224.158014 
L 450.501748 223.858559 
L 450.501748 223.858559 
" clip-path="url(#p17f0504aaf)" style="fill: none; stroke: #1f77b4; stroke-width: 1.5; stroke-linecap: square"/>
   </g>
   <g id="line2d_20">
    <path d="M 257.125864 -1 
L 260.841192 37.325385 
L 264.855172 76.248769 
L 268.367405 108.287252 
L 269.872647 119.400159 
L 271.37789 129.00212 
L 272.381385 133.940667 
L 273.38488 137.929443 
L 274.388375 141.163231 
L 275.39187 143.751064 
L 276.395365 145.772424 
L 277.39886 147.282425 
L 278.402355 148.318282 
L 279.40585 148.91413 
L 280.409345 149.097095 
L 281.41284 148.892773 
L 282.416335 148.32676 
L 283.41983 147.42382 
L 284.423325 146.205255 
L 285.42682 144.696737 
L 286.932062 141.952366 
L 288.437305 138.704394 
L 290.444295 133.707465 
L 292.451285 128.053567 
L 296.967012 114.218523 
L 299.47575 105.785427 
L 304.493225 88.255752 
L 309.5107 71.549288 
L 314.528175 55.660176 
L 319.54565 40.573147 
L 324.061377 27.664726 
L 328.577105 15.374019 
L 333.092832 3.683025 
L 334.968298 -1 
L 334.968298 -1 
" clip-path="url(#p17f0504aaf)" style="fill: none; stroke: #ff7f0e; stroke-width: 1.5; stroke-linecap: square"/>
   </g>
   <g id="line2d_21">
    <path d="M 253.812755 -1 
L 255.32197 58.337964 
L 257.32896 128.131352 
L 259.33595 188.593838 
L 261.34294 240.777355 
L 263.34993 285.622715 
L 264.855172 315.147804 
L 266.721544 346.6 
M 350.404267 346.6 
L 353.66448 340.197799 
L 356.674965 334.717754 
L 359.68545 329.665137 
L 362.695935 325.046833 
L 365.70642 320.86647 
L 368.716905 317.121103 
L 371.225643 314.323874 
L 373.73438 311.810474 
L 376.243118 309.567523 
L 378.751855 307.577427 
L 381.76234 305.489034 
L 384.772825 303.688339 
L 387.281563 302.409597 
L 390.292048 301.111036 
L 393.80428 299.859514 
L 397.316513 298.838115 
L 401.330492 297.895397 
L 405.84622 297.059489 
L 411.365443 296.28263 
L 417.88816 295.616841 
L 425.414373 295.083658 
L 434.947575 294.643586 
L 447.491263 294.303505 
L 450.501748 294.247768 
L 450.501748 294.247768 
" clip-path="url(#p17f0504aaf)" style="fill: none; stroke: #000000; stroke-width: 1.5; stroke-linecap: square"/>
   </g>
   <g id="patch_9">
    <path d="M 249.301 299.608 
L 249.301 26.88 
" style="fill: none; stroke: #000000; stroke-width: 0.8; stroke-linejoin: miter; stroke-linecap: square"/>
   </g>
   <g id="patch_10">
    <path d="M 450 299.608 
L 450 26.88 
" style="fill: none; stroke: #000000; stroke-width: 0.8; stroke-linejoin: miter; stroke-linecap: square"/>
   </g>
   <g id="patch_11">
    <path d="M 249.301 299.608 
L 450 299.608 
" style="fill: none; stroke: #000000; stroke-width: 0.8; stroke-linejoin: miter; stroke-linecap: square"/>
   </g>
   <g id="patch_12">
    <path d="M 249.301 26.88 
L 450 26.88 
" style="fill: none; stroke: #000000; stroke-width: 0.8; stroke-linejoin: miter; stroke-linecap: square"/>
   </g>
   <g id="text_23">
    <!-- diabatic PECs -->
    <g transform="translate(309.062375 20.88) scale(0.12 -0.12)">
     <defs>
      <path id="DejaVuSans-50" d="M 1259 4147 
L 1259 2394 
L 2053 2394 
Q 2494 2394 2734 2622 
Q 2975 2850 2975 3272 
Q 2975 3691 2734 3919 
Q 2494 4147 2053 4147 
L 1259 4147 
z
M 628 4666 
L 2053 4666 
Q 2838 4666 3239 4311 
Q 3641 3956 3641 3272 
Q 3641 2581 3239 2228 
Q 2838 1875 2053 1875 
L 1259 1875 
L 1259 0 
L 628 0 
L 628 4666 
z
" transform="scale(0.015625)"/>
      <path id="DejaVuSans-45" d="M 628 4666 
L 3578 4666 
L 3578 4134 
L 1259 4134 
L 1259 2753 
L 3481 2753 
L 3481 2222 
L 1259 2222 
L 1259 531 
L 3634 531 
L 3634 0 
L 628 0 
L 628 4666 
z
" transform="scale(0.015625)"/>
      <path id="DejaVuSans-43" d="M 4122 4306 
L 4122 3641 
Q 3803 3938 3442 4084 
Q 3081 4231 2675 4231 
Q 1875 4231 1450 3742 
Q 1025 3253 1025 2328 
Q 1025 1406 1450 917 
Q 1875 428 2675 428 
Q 3081 428 3442 575 
Q 3803 722 4122 1019 
L 4122 359 
Q 3791 134 3420 21 
Q 3050 -91 2638 -91 
Q 1578 -91 968 557 
Q 359 1206 359 2328 
Q 359 3453 968 4101 
Q 1578 4750 2638 4750 
Q 3056 4750 3426 4639 
Q 3797 4528 4122 4306 
z
" transform="scale(0.015625)"/>
     </defs>
     <use xlink:href="#DejaVuSans-64"/>
     <use xlink:href="#DejaVuSans-69" x="63.476562"/>
     <use xlink:href="#DejaVuSans-61" x="91.259766"/>
     <use xlink:href="#DejaVuSans-62" x="152.539062"/>
     <use xlink:href="#DejaVuSans-61" x="216.015625"/>
     <use xlink:href="#DejaVuSans-74" x="277.294922"/>
     <use xlink:href="#DejaVuSans-69" x="316.503906"/>
     <use xlink:href="#DejaVuSans-63" x="344.287109"/>
     <use xlink:href="#DejaVuSans-20" x="399.267578"/>
     <use xlink:href="#DejaVuSans-50" x="431.054688"/>
     <use xlink:href="#DejaVuSans-45" x="491.357422"/>
     <use xlink:href="#DejaVuSans-43" x="554.541016"/>
     <use xlink:href="#DejaVuSans-73" x="624.365234"/>
    </g>
   </g>
   <g id="legend_2">
    <g id="patch_13">
     <path d="M 395.458023 66.892634 
L 444.169 66.892634 
Q 445.835 66.892634 445.835 65.226634 
L 445.835 32.711 
Q 445.835 31.045 444.169 31.045 
L 395.458023 31.045 
Q 393.792023 31.045 393.792023 32.711 
L 393.792023 65.226634 
Q 393.792023 66.892634 395.458023 66.892634 
z
" style="fill: #ffffff; opacity: 0.8; stroke: #cccccc; stroke-linejoin: miter"/>
    </g>
    <g id="line2d_22">
     <path d="M 397.124023 37.790998 
L 405.454023 37.790998 
L 413.784023 37.790998 
" style="fill: none; stroke: #1f77b4; stroke-width: 1.5; stroke-linecap: square"/>
    </g>
    <g id="text_24">
     <!-- B³Σ₁⁻ -->
     <g transform="translate(420.448023 40.706498) scale(0.0833 -0.0833)">
      <use xlink:href="#DejaVuSans-42"/>
      <use xlink:href="#DejaVuSans-b3" x="68.603516"/>
      <use xlink:href="#DejaVuSans-3a3" x="108.691406"/>
      <use xlink:href="#DejaVuSans-2081" x="171.875"/>
      <use xlink:href="#DejaVuSans-207b" x="211.962891"/>
     </g>
    </g>
    <g id="line2d_23">
     <path d="M 397.124023 48.351877 
L 405.454023 48.351877 
L 413.784023 48.351877 
" style="fill: none; stroke: #ff7f0e; stroke-width: 1.5; stroke-linecap: square"/>
    </g>
    <g id="text_25">
     <!-- E³Σ₁⁻ -->
     <g transform="translate(420.448023 51.267377) scale(0.0833 -0.0833)">
      <use xlink:href="#DejaVuSans-45"/>
      <use xlink:href="#DejaVuSans-b3" x="63.183594"/>
      <use xlink:href="#DejaVuSans-3a3" x="103.271484"/>
      <use xlink:href="#DejaVuSans-2081" x="166.455078"/>
      <use xlink:href="#DejaVuSans-207b" x="206.542969"/>
     </g>
    </g>
    <g id="line2d_24">
     <path d="M 397.124023 58.912755 
L 405.454023 58.912755 
L 413.784023 58.912755 
" style="fill: none; stroke: #000000; stroke-width: 1.5; stroke-linecap: square"/>
    </g>
    <g id="text_26">
     <!-- X³Σ₁⁻ -->
     <g transform="translate(420.448023 61.828255) scale(0.0833 -0.0833)">
      <defs>
       <path id="DejaVuSans-58" d="M 403 4666 
L 1081 4666 
L 2241 2931 
L 3406 4666 
L 4084 4666 
L 2584 2425 
L 4184 0 
L 3506 0 
L 2194 1984 
L 872 0 
L 191 0 
L 1856 2491 
L 403 4666 
z
" transform="scale(0.015625)"/>
      </defs>
      <use xlink:href="#DejaVuSans-58"/>
      <use xlink:href="#DejaVuSans-b3" x="68.505859"/>
      <use xlink:href="#DejaVuSans-3a3" x="108.59375"/>
      <use xlink:href="#DejaVuSans-2081" x="171.777344"/>
      <use xlink:href="#DejaVuSans-207b" x="211.865234"/>
     </g>
    </g>
   </g>
  </g>
 </g>
 <defs>
  <clipPath id="p2765d27923">
   <rect x="48.602" y="26.88" width="200.699" height="272.728"/>
  </clipPath>
  <clipPath id="p17f0504aaf">
   <rect x="249.301" y="26.88" width="200.699" height="272.728"/>
  </clipPath>
 </defs>
</svg>
