<?xml version="1.0" encoding="utf-8" standalone="no"?>
<!DOCTYPE svg PUBLIC "-//W3C//DTD SVG 1.1//EN"
  "http://www.w3.org/Graphics/SVG/1.1/DTD/svg11.dtd">
<svg xmlns:xlink="http://www.w3.org/1999/xlink" width="460.8pt" height="345.6pt" viewBox="0 0 460.8 345.6" xmlns="http://www.w3.org/2000/svg" version="1.1">
 <metadata>
  <rdf:RDF xmlns:dc="http://purl.org/dc/elements/1.1/" xmlns:cc="http://creativecommons.org/ns#" xmlns:rdf="http://www.w3.org/1999/02/22-rdf-syntax-ns#">
   <cc:Work>
    <dc:type rdf:resource="http://purl.org/dc/dcmitype/StillImage"/>
    <dc:date>2022-09-27T22:45:50.145900</dc:date>
    <dc:format>image/svg+xml</dc:format>
    <dc:creator>
     <cc:Agent>
      <dc:title>Matplotlib v3.6.0, https://matplotlib.org/</dc:title>
     </cc:Agent>
    </dc:creator>
   </cc:Work>
  </rdf:RDF>
 </metadata>
 <defs>
  <style type="text/css">*{stroke-linejoin: round; stroke-linecap: butt}</style>
 </defs>
 <g id="figure_1">
  <g id="patch_1">
   <path d="M 0 345.6 
L 460.8 345.6 
L 460.8 0 
L 0 0 
z
" style="fill: #ffffff"/>
  </g>
  <g id="axes_1">
   <g id="patch_2">
    <path d="M 57.6 162.432 
L 414.72 162.432 
L 414.72 41.472 
L 57.6 41.472 
z
" style="fill: #ffffff"/>
   </g>
   <g id="matplotlib.axis_1">
    <g id="xtick_1">
     <g id="line2d_1">
      <defs>
       <path id="mec23fb6a43" d="M 0 0 
L 0 3.5 
" style="stroke: #000000; stroke-width: 0.8"/>
      </defs>
      <g>
       <use xlink:href="#mec23fb6a43" x="83.355602" y="162.432" style="stroke: #000000; stroke-width: 0.8"/>
      </g>
     </g>
    </g>
    <g id="xtick_2">
     <g id="line2d_2">
      <g>
       <use xlink:href="#mec23fb6a43" x="131.034341" y="162.432" style="stroke: #000000; stroke-width: 0.8"/>
      </g>
     </g>
    </g>
    <g id="xtick_3">
     <g id="line2d_3">
      <g>
       <use xlink:href="#mec23fb6a43" x="178.71308" y="162.432" style="stroke: #000000; stroke-width: 0.8"/>
      </g>
     </g>
    </g>
    <g id="xtick_4">
     <g id="line2d_4">
      <g>
       <use xlink:href="#mec23fb6a43" x="226.391818" y="162.432" style="stroke: #000000; stroke-width: 0.8"/>
      </g>
     </g>
    </g>
    <g id="xtick_5">
     <g id="line2d_5">
      <g>
       <use xlink:href="#mec23fb6a43" x="274.070557" y="162.432" style="stroke: #000000; stroke-width: 0.8"/>
      </g>
     </g>
    </g>
    <g id="xtick_6">
     <g id="line2d_6">
      <g>
       <use xlink:href="#mec23fb6a43" x="321.749296" y="162.432" style="stroke: #000000; stroke-width: 0.8"/>
      </g>
     </g>
    </g>
    <g id="xtick_7">
     <g id="line2d_7">
      <g>
       <use xlink:href="#mec23fb6a43" x="369.428035" y="162.432" style="stroke: #000000; stroke-width: 0.8"/>
      </g>
     </g>
    </g>
   </g>
   <g id="matplotlib.axis_2">
    <g id="ytick_1">
     <g id="line2d_8">
      <defs>
       <path id="ma6c9eab6cd" d="M 0 0 
L -3.5 0 
" style="stroke: #000000; stroke-width: 0.8"/>
      </defs>
      <g>
       <use xlink:href="#ma6c9eab6cd" x="57.6" y="156.933818" style="stroke: #000000; stroke-width: 0.8"/>
      </g>
     </g>
     <g id="text_1">
      <!-- 0 -->
      <g transform="translate(44.2375 160.733037) scale(0.1 -0.1)">
       <defs>
        <path id="DejaVuSans-30" d="M 2034 4250 
Q 1547 4250 1301 3770 
Q 1056 3291 1056 2328 
Q 1056 1369 1301 889 
Q 1547 409 2034 409 
Q 2525 409 2770 889 
Q 3016 1369 3016 2328 
Q 3016 3291 2770 3770 
Q 2525 4250 2034 4250 
z
M 2034 4750 
Q 2819 4750 3233 4129 
Q 3647 3509 3647 2328 
Q 3647 1150 3233 529 
Q 2819 -91 2034 -91 
Q 1250 -91 836 529 
Q 422 1150 422 2328 
Q 422 3509 836 4129 
Q 1250 4750 2034 4750 
z
" transform="scale(0.015625)"/>
       </defs>
       <use xlink:href="#DejaVuSans-30"/>
      </g>
     </g>
    </g>
    <g id="ytick_2">
     <g id="line2d_9">
      <g>
       <use xlink:href="#ma6c9eab6cd" x="57.6" y="131.735751" style="stroke: #000000; stroke-width: 0.8"/>
      </g>
     </g>
     <g id="text_2">
      <!-- 1 -->
      <g transform="translate(44.2375 135.534969) scale(0.1 -0.1)">
       <defs>
        <path id="DejaVuSans-31" d="M 794 531 
L 1825 531 
L 1825 4091 
L 703 3866 
L 703 4441 
L 1819 4666 
L 2450 4666 
L 2450 531 
L 3481 531 
L 3481 0 
L 794 0 
L 794 531 
z
" transform="scale(0.015625)"/>
       </defs>
       <use xlink:href="#DejaVuSans-31"/>
      </g>
     </g>
    </g>
    <g id="ytick_3">
     <g id="line2d_10">
      <g>
       <use xlink:href="#ma6c9eab6cd" x="57.6" y="106.537683" style="stroke: #000000; stroke-width: 0.8"/>
      </g>
     </g>
     <g id="text_3">
      <!-- 2 -->
      <g transform="translate(44.2375 110.336902) scale(0.1 -0.1)">
       <defs>
        <path id="DejaVuSans-32" d="M 1228 531 
L 3431 531 
L 3431 0 
L 469 0 
L 469 531 
Q 828 903 1448 1529 
Q 2069 2156 2228 2338 
Q 2531 2678 2651 2914 
Q 2772 3150 2772 3378 
Q 2772 3750 2511 3984 
Q 2250 4219 1831 4219 
Q 1534 4219 1204 4116 
Q 875 4013 500 3803 
L 500 4441 
Q 881 4594 1212 4672 
Q 1544 4750 1819 4750 
Q 2544 4750 2975 4387 
Q 3406 4025 3406 3419 
Q 3406 3131 3298 2873 
Q 3191 2616 2906 2266 
Q 2828 2175 2409 1742 
Q 1991 1309 1228 531 
z
" transform="scale(0.015625)"/>
       </defs>
       <use xlink:href="#DejaVuSans-32"/>
      </g>
     </g>
    </g>
    <g id="ytick_4">
     <g id="line2d_11">
      <g>
       <use xlink:href="#ma6c9eab6cd" x="57.6" y="81.339615" style="stroke: #000000; stroke-width: 0.8"/>
      </g>
     </g>
     <g id="text_4">
      <!-- 3 -->
      <g transform="translate(44.2375 85.138834) scale(0.1 -0.1)">
       <defs>
        <path id="DejaVuSans-33" d="M 2597 2516 
Q 3050 2419 3304 2112 
Q 3559 1806 3559 1356 
Q 3559 666 3084 287 
Q 2609 -91 1734 -91 
Q 1441 -91 1130 -33 
Q 819 25 488 141 
L 488 750 
Q 750 597 1062 519 
Q 1375 441 1716 441 
Q 2309 441 2620 675 
Q 2931 909 2931 1356 
Q 2931 1769 2642 2001 
Q 2353 2234 1838 2234 
L 1294 2234 
L 1294 2753 
L 1863 2753 
Q 2328 2753 2575 2939 
Q 2822 3125 2822 3475 
Q 2822 3834 2567 4026 
Q 2313 4219 1838 4219 
Q 1578 4219 1281 4162 
Q 984 4106 628 3988 
L 628 4550 
Q 988 4650 1302 4700 
Q 1616 4750 1894 4750 
Q 2613 4750 3031 4423 
Q 3450 4097 3450 3541 
Q 3450 3153 3228 2886 
Q 3006 2619 2597 2516 
z
" transform="scale(0.015625)"/>
       </defs>
       <use xlink:href="#DejaVuSans-33"/>
      </g>
     </g>
    </g>
    <g id="ytick_5">
     <g id="line2d_12">
      <g>
       <use xlink:href="#ma6c9eab6cd" x="57.6" y="56.141548" style="stroke: #000000; stroke-width: 0.8"/>
      </g>
     </g>
     <g id="text_5">
      <!-- 4 -->
      <g transform="translate(44.2375 59.940766) scale(0.1 -0.1)">
       <defs>
        <path id="DejaVuSans-34" d="M 2419 4116 
L 825 1625 
L 2419 1625 
L 2419 4116 
z
M 2253 4666 
L 3047 4666 
L 3047 1625 
L 3713 1625 
L 3713 1100 
L 3047 1100 
L 3047 0 
L 2419 0 
L 2419 1100 
L 313 1100 
L 313 1709 
L 2253 4666 
z
" transform="scale(0.015625)"/>
       </defs>
       <use xlink:href="#DejaVuSans-34"/>
      </g>
     </g>
    </g>
    <g id="text_6">
     <!-- cross section (cm$^{2}$) -->
     <g transform="translate(38.157812 150.152) rotate(-90) scale(0.1 -0.1)">
      <defs>
       <path id="DejaVuSans-63" d="M 3122 3366 
L 3122 2828 
Q 2878 2963 2633 3030 
Q 2388 3097 2138 3097 
Q 1578 3097 1268 2742 
Q 959 2388 959 1747 
Q 959 1106 1268 751 
Q 1578 397 2138 397 
Q 2388 397 2633 464 
Q 2878 531 3122 666 
L 3122 134 
Q 2881 22 2623 -34 
Q 2366 -91 2075 -91 
Q 1284 -91 818 406 
Q 353 903 353 1747 
Q 353 2603 823 3093 
Q 1294 3584 2113 3584 
Q 2378 3584 2631 3529 
Q 2884 3475 3122 3366 
z
" transform="scale(0.015625)"/>
       <path id="DejaVuSans-72" d="M 2631 2963 
Q 2534 3019 2420 3045 
Q 2306 3072 2169 3072 
Q 1681 3072 1420 2755 
Q 1159 2438 1159 1844 
L 1159 0 
L 581 0 
L 581 3500 
L 1159 3500 
L 1159 2956 
Q 1341 3275 1631 3429 
Q 1922 3584 2338 3584 
Q 2397 3584 2469 3576 
Q 2541 3569 2628 3553 
L 2631 2963 
z
" transform="scale(0.015625)"/>
       <path id="DejaVuSans-6f" d="M 1959 3097 
Q 1497 3097 1228 2736 
Q 959 2375 959 1747 
Q 959 1119 1226 758 
Q 1494 397 1959 397 
Q 2419 397 2687 759 
Q 2956 1122 2956 1747 
Q 2956 2369 2687 2733 
Q 2419 3097 1959 3097 
z
M 1959 3584 
Q 2709 3584 3137 3096 
Q 3566 2609 3566 1747 
Q 3566 888 3137 398 
Q 2709 -91 1959 -91 
Q 1206 -91 779 398 
Q 353 888 353 1747 
Q 353 2609 779 3096 
Q 1206 3584 1959 3584 
z
" transform="scale(0.015625)"/>
       <path id="DejaVuSans-73" d="M 2834 3397 
L 2834 2853 
Q 2591 2978 2328 3040 
Q 2066 3103 1784 3103 
Q 1356 3103 1142 2972 
Q 928 2841 928 2578 
Q 928 2378 1081 2264 
Q 1234 2150 1697 2047 
L 1894 2003 
Q 2506 1872 2764 1633 
Q 3022 1394 3022 966 
Q 3022 478 2636 193 
Q 2250 -91 1575 -91 
Q 1294 -91 989 -36 
Q 684 19 347 128 
L 347 722 
Q 666 556 975 473 
Q 1284 391 1588 391 
Q 1994 391 2212 530 
Q 2431 669 2431 922 
Q 2431 1156 2273 1281 
Q 2116 1406 1581 1522 
L 1381 1569 
Q 847 1681 609 1914 
Q 372 2147 372 2553 
Q 372 3047 722 3315 
Q 1072 3584 1716 3584 
Q 2034 3584 2315 3537 
Q 2597 3491 2834 3397 
z
" transform="scale(0.015625)"/>
       <path id="DejaVuSans-20" transform="scale(0.015625)"/>
       <path id="DejaVuSans-65" d="M 3597 1894 
L 3597 1613 
L 953 1613 
Q 991 1019 1311 708 
Q 1631 397 2203 397 
Q 2534 397 2845 478 
Q 3156 559 3463 722 
L 3463 178 
Q 3153 47 2828 -22 
Q 2503 -91 2169 -91 
Q 1331 -91 842 396 
Q 353 884 353 1716 
Q 353 2575 817 3079 
Q 1281 3584 2069 3584 
Q 2775 3584 3186 3129 
Q 3597 2675 3597 1894 
z
M 3022 2063 
Q 3016 2534 2758 2815 
Q 2500 3097 2075 3097 
Q 1594 3097 1305 2825 
Q 1016 2553 972 2059 
L 3022 2063 
z
" transform="scale(0.015625)"/>
       <path id="DejaVuSans-74" d="M 1172 4494 
L 1172 3500 
L 2356 3500 
L 2356 3053 
L 1172 3053 
L 1172 1153 
Q 1172 725 1289 603 
Q 1406 481 1766 481 
L 2356 481 
L 2356 0 
L 1766 0 
Q 1100 0 847 248 
Q 594 497 594 1153 
L 594 3053 
L 172 3053 
L 172 3500 
L 594 3500 
L 594 4494 
L 1172 4494 
z
" transform="scale(0.015625)"/>
       <path id="DejaVuSans-69" d="M 603 3500 
L 1178 3500 
L 1178 0 
L 603 0 
L 603 3500 
z
M 603 4863 
L 1178 4863 
L 1178 4134 
L 603 4134 
L 603 4863 
z
" transform="scale(0.015625)"/>
       <path id="DejaVuSans-6e" d="M 3513 2113 
L 3513 0 
L 2938 0 
L 2938 2094 
Q 2938 2591 2744 2837 
Q 2550 3084 2163 3084 
Q 1697 3084 1428 2787 
Q 1159 2491 1159 1978 
L 1159 0 
L 581 0 
L 581 3500 
L 1159 3500 
L 1159 2956 
Q 1366 3272 1645 3428 
Q 1925 3584 2291 3584 
Q 2894 3584 3203 3211 
Q 3513 2838 3513 2113 
z
" transform="scale(0.015625)"/>
       <path id="DejaVuSans-28" d="M 1984 4856 
Q 1566 4138 1362 3434 
Q 1159 2731 1159 2009 
Q 1159 1288 1364 580 
Q 1569 -128 1984 -844 
L 1484 -844 
Q 1016 -109 783 600 
Q 550 1309 550 2009 
Q 550 2706 781 3412 
Q 1013 4119 1484 4856 
L 1984 4856 
z
" transform="scale(0.015625)"/>
       <path id="DejaVuSans-6d" d="M 3328 2828 
Q 3544 3216 3844 3400 
Q 4144 3584 4550 3584 
Q 5097 3584 5394 3201 
Q 5691 2819 5691 2113 
L 5691 0 
L 5113 0 
L 5113 2094 
Q 5113 2597 4934 2840 
Q 4756 3084 4391 3084 
Q 3944 3084 3684 2787 
Q 3425 2491 3425 1978 
L 3425 0 
L 2847 0 
L 2847 2094 
Q 2847 2600 2669 2842 
Q 2491 3084 2119 3084 
Q 1678 3084 1418 2786 
Q 1159 2488 1159 1978 
L 1159 0 
L 581 0 
L 581 3500 
L 1159 3500 
L 1159 2956 
Q 1356 3278 1631 3431 
Q 1906 3584 2284 3584 
Q 2666 3584 2933 3390 
Q 3200 3197 3328 2828 
z
" transform="scale(0.015625)"/>
       <path id="DejaVuSans-29" d="M 513 4856 
L 1013 4856 
Q 1481 4119 1714 3412 
Q 1947 2706 1947 2009 
Q 1947 1309 1714 600 
Q 1481 -109 1013 -844 
L 513 -844 
Q 928 -128 1133 580 
Q 1338 1288 1338 2009 
Q 1338 2731 1133 3434 
Q 928 4138 513 4856 
z
" transform="scale(0.015625)"/>
      </defs>
      <use xlink:href="#DejaVuSans-63" transform="translate(0 0.765625)"/>
      <use xlink:href="#DejaVuSans-72" transform="translate(54.980469 0.765625)"/>
      <use xlink:href="#DejaVuSans-6f" transform="translate(96.09375 0.765625)"/>
      <use xlink:href="#DejaVuSans-73" transform="translate(157.275391 0.765625)"/>
      <use xlink:href="#DejaVuSans-73" transform="translate(209.375 0.765625)"/>
      <use xlink:href="#DejaVuSans-20" transform="translate(261.474609 0.765625)"/>
      <use xlink:href="#DejaVuSans-73" transform="translate(293.261719 0.765625)"/>
      <use xlink:href="#DejaVuSans-65" transform="translate(345.361328 0.765625)"/>
      <use xlink:href="#DejaVuSans-63" transform="translate(406.884766 0.765625)"/>
      <use xlink:href="#DejaVuSans-74" transform="translate(461.865234 0.765625)"/>
      <use xlink:href="#DejaVuSans-69" transform="translate(501.074219 0.765625)"/>
      <use xlink:href="#DejaVuSans-6f" transform="translate(528.857422 0.765625)"/>
      <use xlink:href="#DejaVuSans-6e" transform="translate(590.039062 0.765625)"/>
      <use xlink:href="#DejaVuSans-20" transform="translate(653.417969 0.765625)"/>
      <use xlink:href="#DejaVuSans-28" transform="translate(685.205078 0.765625)"/>
      <use xlink:href="#DejaVuSans-63" transform="translate(724.21875 0.765625)"/>
      <use xlink:href="#DejaVuSans-6d" transform="translate(779.199219 0.765625)"/>
      <use xlink:href="#DejaVuSans-32" transform="translate(877.568359 39.046875) scale(0.7)"/>
      <use xlink:href="#DejaVuSans-29" transform="translate(924.838867 0.765625)"/>
     </g>
    </g>
    <g id="text_7">
     <!-- 1e−20 -->
     <g transform="translate(57.6 38.472) scale(0.1 -0.1)">
      <defs>
       <path id="DejaVuSans-2212" d="M 678 2272 
L 4684 2272 
L 4684 1741 
L 678 1741 
L 678 2272 
z
" transform="scale(0.015625)"/>
      </defs>
      <use xlink:href="#DejaVuSans-31"/>
      <use xlink:href="#DejaVuSans-65" x="63.623047"/>
      <use xlink:href="#DejaVuSans-2212" x="125.146484"/>
      <use xlink:href="#DejaVuSans-32" x="208.935547"/>
      <use xlink:href="#DejaVuSans-30" x="272.558594"/>
     </g>
    </g>
   </g>
   <g id="line2d_13">
    <path d="M 238.828817 156.828591 
L 239.00952 156.854994 
L 239.310849 156.889142 
L 240.004098 156.863599 
L 241.843067 156.836423 
L 241.993732 156.814102 
L 242.476241 156.869026 
L 242.838123 156.932533 
L 243.320631 156.833202 
L 243.561886 156.843486 
L 243.89373 156.865831 
L 244.345724 156.823627 
L 259.436045 156.730445 
L 260.130724 156.37238 
L 260.614187 156.278391 
L 260.915993 156.496355 
L 261.218276 156.556074 
L 262.064097 156.719206 
L 262.396418 156.801176 
L 262.608112 156.776406 
L 262.87988 156.824081 
L 263.091574 156.772525 
L 263.212201 156.755819 
L 263.514484 156.836687 
L 263.876843 156.754106 
L 264.058499 156.758414 
L 265.176565 156.808962 
L 265.357744 156.775902 
L 265.5394 156.850047 
L 265.72058 156.854202 
L 266.14349 156.872602 
L 266.445773 156.830204 
L 268.531718 156.790214 
L 268.773449 156.835639 
L 269.347978 156.819595 
L 269.650261 156.836143 
L 269.891993 156.799286 
L 270.375932 156.824282 
L 270.587625 156.826449 
L 271.887825 156.839472 
L 272.099518 156.849768 
L 272.795151 156.80304 
L 272.976807 156.823728 
L 276.81876 156.727698 
L 277.060968 156.691362 
L 277.393765 156.691564 
L 277.514393 156.689473 
L 277.756601 156.706859 
L 278.089398 156.713486 
L 278.241017 156.676873 
L 278.603852 156.639883 
L 279.14882 156.631366 
L 279.330476 156.613727 
L 279.723825 156.481488 
L 280.631628 155.815503 
L 281.267663 154.321509 
L 281.2977 154.336628 
L 282.780986 156.263272 
L 283.356468 156.490559 
L 283.628714 156.568925 
L 283.992503 156.598659 
L 284.355815 156.634364 
L 284.476919 156.589839 
L 284.62806 156.594375 
L 284.840231 156.689372 
L 286.293956 156.713915 
L 286.445097 156.677277 
L 286.596716 156.714091 
L 286.899476 156.758969 
L 288.868607 156.726111 
L 289.050263 156.709077 
L 289.383538 156.672439 
L 290.141153 156.679393 
L 290.504465 156.633508 
L 290.656083 156.633583 
L 292.049733 156.645451 
L 292.292418 156.632323 
L 292.474074 156.665459 
L 292.746796 156.63701 
L 293.595478 156.561114 
L 295.535525 156.452762 
L 295.8688 156.402618 
L 296.081447 156.388255 
L 297.688221 155.767122 
L 298.446312 154.132524 
L 299.17389 148.364686 
L 299.204404 148.417602 
L 299.477127 149.561594 
L 299.750326 150.884493 
L 300.811655 154.888214 
L 301.17592 155.505567 
L 301.26651 155.556467 
L 301.539709 155.87245 
L 301.721842 155.943005 
L 301.994564 156.036994 
L 302.479934 156.225727 
L 302.632029 156.23883 
L 302.813685 156.342898 
L 303.026332 156.345418 
L 303.541739 156.372884 
L 303.845453 156.323496 
L 304.027586 156.343654 
L 304.542993 156.366081 
L 304.96781 156.329039 
L 305.24101 156.346678 
L 305.423142 156.34189 
L 305.665827 156.294266 
L 305.969541 156.266548 
L 306.212225 156.302329 
L 306.485425 156.317448 
L 308.518923 156.221444 
L 308.640504 156.221696 
L 308.792122 156.216404 
L 309.156388 156.120903 
L 309.61172 156.060932 
L 310.735031 155.868923 
L 311.828304 155.545883 
L 312.162055 155.27576 
L 312.344188 155.236451 
L 312.526798 155.029071 
L 312.830511 154.583065 
L 313.437462 153.054047 
L 313.680623 151.69839 
L 314.105917 146.729332 
L 314.379117 138.630673 
L 314.68283 132.079175 
L 314.773897 132.396671 
L 315.138639 138.242622 
L 315.169153 138.182147 
L 315.229705 138.469405 
L 316.323456 151.804222 
L 316.778788 153.857865 
L 317.325663 154.671762 
L 317.690405 155.038394 
L 317.903052 155.237963 
L 319.209926 155.51615 
L 319.361545 155.45391 
L 319.726287 155.499267 
L 320.577353 155.59124 
L 320.698933 155.611146 
L 320.911581 155.527237 
L 321.033161 155.551175 
L 321.154742 155.489692 
L 321.306837 155.486416 
L 321.762646 155.479613 
L 321.853713 155.448367 
L 321.884227 155.472809 
L 321.975293 155.531269 
L 322.005808 155.504055 
L 322.188417 155.455422 
L 322.309998 155.434508 
L 322.522645 155.333716 
L 323.039483 155.297178 
L 323.799482 154.932814 
L 324.012129 154.798761 
L 324.255291 154.620106 
L 324.589995 154.250955 
L 325.167385 153.442097 
L 325.836794 151.564841 
L 326.140508 149.309614 
L 326.414184 145.925513 
L 326.748889 137.277536 
L 326.779403 136.632466 
L 326.99205 126.14251 
L 327.448336 106.991979 
L 327.600431 106.160443 
L 327.874107 111.477235 
L 328.087231 120.624133 
L 328.330392 130.45138 
L 328.695612 142.155882 
L 329.090868 147.747333 
L 329.486125 150.914731 
L 330.30763 153.311067 
L 330.520754 153.621003 
L 330.642334 153.741954 
L 330.672849 153.588246 
L 330.703363 153.779751 
L 330.733401 153.767152 
L 330.763915 153.78731 
L 330.824944 153.613444 
L 330.885496 153.6588 
L 331.737515 154.102286 
L 332.011668 154.142603 
L 332.163763 154.150162 
L 332.498468 154.04685 
L 333.715706 153.636122 
L 333.74622 153.588246 
L 333.776258 153.744474 
L 334.354601 153.248072 
L 334.932944 152.083921 
L 335.054525 151.781544 
L 335.085039 151.945332 
L 335.146068 151.773985 
L 335.845992 148.402483 
L 336.150659 145.411473 
L 336.546393 137.854572 
L 336.820069 128.788307 
L 337.733593 67.305022 
L 337.794622 69.094085 
L 337.946717 77.560636 
L 338.920794 137.348091 
L 339.530128 146.842723 
L 339.743252 148.253815 
L 340.077957 149.969803 
L 340.626262 151.385934 
L 340.687291 151.358217 
L 341.205082 151.476647 
L 341.296149 151.466568 
L 341.326663 151.544682 
L 341.418206 151.70343 
L 341.448721 151.685791 
L 341.692359 151.262464 
L 342.21015 150.627473 
L 343.154189 146.237969 
L 343.794038 137.458962 
L 344.037676 130.098607 
L 344.464401 105.757274 
L 345.134764 46.970182 
L 345.164802 47.423747 
L 345.286859 49.464791 
L 345.499983 73.125776 
L 345.744098 98.525428 
L 346.322918 131.958224 
L 346.932252 143.110889 
L 347.023796 143.36287 
L 347.267434 145.008304 
L 347.328463 144.940269 
L 347.389492 145.154452 
L 347.420006 145.061219 
L 347.541587 144.698367 
L 347.602615 145.038541 
L 347.663644 144.824358 
L 348.090369 142.375105 
L 348.547608 135.052547 
L 348.852275 125.714143 
L 349.065876 117.423979 
L 349.827782 68.464134 
L 349.858297 68.262549 
L 349.919325 68.51453 
L 350.010869 72.042259 
L 350.285021 94.745718 
L 350.589688 108.327476 
L 350.894832 115.534124 
L 350.925347 115.634916 
L 350.986376 115.231747 
L 351.01689 115.408133 
L 351.138471 116.869621 
L 351.168985 116.264868 
L 351.382586 113.064713 
L 351.4131 113.014317 
L 351.717767 109.436191 
L 351.778796 109.738568 
L 351.931368 115.206549 
L 352.388607 132.847716 
L 352.449636 134.828284 
L 352.632722 138.943129 
L 353.059447 144.904991 
L 353.334077 147.802769 
L 353.882859 151.688311 
L 354.21804 152.660957 
L 355.194024 154.446492 
L 355.438139 154.63195 
L 355.895855 155.030079 
L 356.108979 155.189835 
L 356.32258 155.283824 
L 356.475152 155.339763 
L 356.627724 155.506826 
L 356.658238 155.386632 
L 356.688753 155.373529 
L 356.81081 155.558482 
L 356.841325 155.538072 
L 356.993897 155.5416 
L 357.512641 155.704127 
L 357.817308 155.869175 
L 357.939366 155.869427 
L 358.152967 155.934942 
L 358.366568 155.976014 
L 358.549654 155.958628 
L 358.976855 155.993653 
L 359.098913 156.025151 
L 359.343028 156.187678 
L 359.465086 156.128463 
L 359.4956 156.155677 
L 359.617658 156.155677 
L 359.77023 156.166512 
L 359.953316 156.233035 
L 360.227946 156.209601 
L 360.594118 156.285447 
L 361.906237 156.404382 
L 362.119838 156.414209 
L 362.241895 156.460573 
L 362.27241 156.429076 
L 362.394467 156.404634 
L 362.608545 156.44621 
L 363.035746 156.456038 
L 363.34089 156.496858 
L 363.585006 156.567413 
L 364.378857 156.497614 
L 364.622972 156.600171 
L 364.989144 156.542719 
L 366.39376 156.641823 
L 366.576846 156.605714 
L 367.096068 156.619674 
L 367.584775 156.655959 
L 373.388708 156.768746 
L 373.388708 156.768746 
" clip-path="url(#pd611c09493)" style="fill: none; stroke: #1f77b4; stroke-width: 1.5; stroke-linecap: square"/>
   </g>
   <g id="line2d_14">
    <path d="M 77.537704 156.26632 
L 80.207713 156.491835 
L 85.404696 156.678882 
L 96.323127 156.810983 
L 125.788588 156.887332 
L 225.818582 156.871495 
L 235.640402 156.878194 
L 249.085806 156.815958 
L 252.566354 156.631094 
L 253.806001 156.63333 
L 255.808508 156.657225 
L 258.573875 156.705485 
L 260.624061 156.813077 
L 267.871229 156.77977 
L 271.351777 156.602518 
L 273.926429 156.213858 
L 274.689289 155.8664 
L 275.595185 155.436599 
L 276.024294 155.531512 
L 277.025547 155.826826 
L 277.69305 155.733432 
L 278.265194 155.724506 
L 279.218769 155.824761 
L 279.743235 155.805911 
L 280.267701 156.159186 
L 280.887525 156.435235 
L 281.888779 156.585422 
L 283.986643 156.629048 
L 289.278983 156.417697 
L 290.661667 156.125396 
L 291.567563 155.719761 
L 293.57007 154.403801 
L 293.9515 153.882825 
L 294.380608 152.859122 
L 295.095789 151.037999 
L 295.286504 151.078697 
L 295.572577 151.556092 
L 296.097043 152.44314 
L 296.383115 152.544788 
L 296.669188 152.355462 
L 297.098296 152.032106 
L 297.33669 152.139367 
L 297.813477 152.409982 
L 298.290265 152.438872 
L 298.528658 153.025417 
L 299.196161 154.91615 
L 299.625269 155.465486 
L 300.197414 155.824199 
L 301.007953 156.046323 
L 302.2476 156.138775 
L 304.774573 156.017574 
L 306.109578 155.729942 
L 307.015474 155.327717 
L 307.682976 154.799426 
L 308.207442 154.116542 
L 308.731909 153.036497 
L 309.494768 150.768275 
L 310.019234 149.565357 
L 310.448343 148.606973 
L 310.734416 147.333769 
L 311.068167 144.622051 
L 311.783348 138.084636 
L 311.878705 138.257398 
L 312.117099 139.698618 
L 312.546208 142.209197 
L 312.736923 142.418268 
L 312.879959 142.169624 
L 313.404425 140.866575 
L 313.642819 141.196587 
L 314.119606 141.972855 
L 314.310321 143.545881 
L 315.073181 151.241884 
L 315.502289 152.951778 
L 315.931398 153.837221 
L 316.455864 154.418164 
L 317.075688 154.760582 
L 317.838548 154.911667 
L 318.649086 154.845895 
L 319.984091 154.428829 
L 320.603915 154.023017 
L 321.176059 153.37706 
L 321.700526 152.416894 
L 322.129634 151.174479 
L 322.558743 149.209141 
L 322.987851 146.047851 
L 323.655354 138.787545 
L 324.036784 135.931028 
L 324.418214 133.716304 
L 324.656607 130.618299 
L 324.94268 123.517642 
L 325.419467 110.457953 
L 325.467146 110.258215 
L 325.514825 110.346602 
L 325.657861 111.967505 
L 326.134648 118.653895 
L 326.182327 118.760081 
L 326.230006 118.735204 
L 326.373042 117.976144 
L 326.754472 115.284291 
L 326.849829 115.385557 
L 327.040544 116.423625 
L 327.231259 118.989357 
L 327.517332 127.591542 
L 327.994119 141.196197 
L 328.375549 146.351846 
L 328.804658 149.240422 
L 329.233766 150.753166 
L 329.710554 151.64848 
L 330.187341 152.076818 
L 330.61645 152.19318 
L 331.045558 152.097626 
L 331.474667 151.78624 
L 331.951454 151.13396 
L 332.428242 150.06842 
L 332.952708 148.2966 
L 333.334138 146.152592 
L 333.715568 142.604292 
L 334.096998 136.583295 
L 334.478428 126.627851 
L 335.14593 108.619768 
L 335.52736 102.844154 
L 335.765753 93.109282 
L 336.242541 70.705608 
L 336.29022 70.876329 
L 336.433256 73.781383 
L 336.767007 80.837369 
L 336.814686 81.001524 
L 336.862364 80.910214 
L 337.005401 79.402616 
L 337.243794 76.747558 
L 337.291473 76.846713 
L 337.386831 78.00027 
L 337.577546 84.577555 
L 338.054333 116.460519 
L 338.435763 132.366423 
L 338.817193 139.881055 
L 339.198623 143.644377 
L 339.580053 145.581789 
L 339.913804 146.396395 
L 340.199876 146.619876 
L 340.43827 146.511585 
L 340.676664 146.133457 
L 341.010415 145.086543 
L 341.344166 143.244098 
L 341.677917 140.182335 
L 342.011668 135.042538 
L 342.345419 126.098297 
L 342.679171 110.413043 
L 343.394352 71.512787 
L 343.632745 65.754374 
L 344.109533 46.970182 
L 344.157212 47.188911 
L 344.538641 51.563369 
L 344.58632 51.49871 
L 344.824714 49.905579 
L 344.920071 50.35966 
L 345.063108 54.963806 
L 345.301501 74.115943 
L 345.825967 116.824283 
L 346.159719 128.508655 
L 346.49347 133.814896 
L 346.779542 135.440482 
L 346.8749 135.508998 
L 346.922578 135.457496 
L 347.065615 134.948461 
L 347.25633 133.352088 
L 347.494723 129.451082 
L 347.780796 120.436311 
L 348.066868 103.76068 
L 348.543655 73.457348 
L 348.591334 73.455445 
L 348.73437 76.902868 
L 349.020443 84.18537 
L 349.068122 84.130437 
L 349.163479 82.672062 
L 349.449552 71.481864 
L 349.687945 65.521011 
L 349.735624 65.502375 
L 349.830981 66.790394 
L 350.021696 74.411073 
L 350.450805 93.602324 
L 350.546163 94.05142 
L 350.689199 92.620455 
L 350.832235 91.631988 
L 350.927592 92.897802 
L 351.499737 106.715932 
L 351.595095 106.655038 
L 351.690452 107.215006 
L 351.833488 110.714828 
L 352.739385 142.881129 
L 353.120814 147.225608 
L 353.549923 149.868169 
L 354.02671 151.537601 
L 354.503498 152.501248 
L 354.932607 152.944074 
L 355.457073 153.404699 
L 356.029218 154.038966 
L 356.362969 154.083182 
L 356.887435 154.012771 
L 357.554937 154.505161 
L 358.270118 155.328802 
L 358.937621 155.645806 
L 359.31905 155.759425 
L 359.31905 155.759425 
" clip-path="url(#pd611c09493)" style="fill: none; stroke: #ff7f0e; stroke-width: 1.5; stroke-linecap: square"/>
   </g>
   <g id="patch_3">
    <path d="M 57.6 162.432 
L 57.6 41.472 
" style="fill: none; stroke: #000000; stroke-width: 0.8; stroke-linejoin: miter; stroke-linecap: square"/>
   </g>
   <g id="patch_4">
    <path d="M 414.72 162.432 
L 414.72 41.472 
" style="fill: none; stroke: #000000; stroke-width: 0.8; stroke-linejoin: miter; stroke-linecap: square"/>
   </g>
   <g id="patch_5">
    <path d="M 57.6 162.432 
L 414.72 162.432 
" style="fill: none; stroke: #000000; stroke-width: 0.8; stroke-linejoin: miter; stroke-linecap: square"/>
   </g>
   <g id="patch_6">
    <path d="M 57.6 41.472 
L 414.72 41.472 
" style="fill: none; stroke: #000000; stroke-width: 0.8; stroke-linejoin: miter; stroke-linecap: square"/>
   </g>
   <g id="text_8">
    <!-- v'=5 79K 3 -->
    <g transform="translate(202.913437 35.472) scale(0.12 -0.12)">
     <defs>
      <path id="DejaVuSans-76" d="M 191 3500 
L 800 3500 
L 1894 563 
L 2988 3500 
L 3597 3500 
L 2284 0 
L 1503 0 
L 191 3500 
z
" transform="scale(0.015625)"/>
      <path id="DejaVuSans-27" d="M 1147 4666 
L 1147 2931 
L 616 2931 
L 616 4666 
L 1147 4666 
z
" transform="scale(0.015625)"/>
      <path id="DejaVuSans-3d" d="M 678 2906 
L 4684 2906 
L 4684 2381 
L 678 2381 
L 678 2906 
z
M 678 1631 
L 4684 1631 
L 4684 1100 
L 678 1100 
L 678 1631 
z
" transform="scale(0.015625)"/>
      <path id="DejaVuSans-35" d="M 691 4666 
L 3169 4666 
L 3169 4134 
L 1269 4134 
L 1269 2991 
Q 1406 3038 1543 3061 
Q 1681 3084 1819 3084 
Q 2600 3084 3056 2656 
Q 3513 2228 3513 1497 
Q 3513 744 3044 326 
Q 2575 -91 1722 -91 
Q 1428 -91 1123 -41 
Q 819 9 494 109 
L 494 744 
Q 775 591 1075 516 
Q 1375 441 1709 441 
Q 2250 441 2565 725 
Q 2881 1009 2881 1497 
Q 2881 1984 2565 2268 
Q 2250 2553 1709 2553 
Q 1456 2553 1204 2497 
Q 953 2441 691 2322 
L 691 4666 
z
" transform="scale(0.015625)"/>
      <path id="DejaVuSans-37" d="M 525 4666 
L 3525 4666 
L 3525 4397 
L 1831 0 
L 1172 0 
L 2766 4134 
L 525 4134 
L 525 4666 
z
" transform="scale(0.015625)"/>
      <path id="DejaVuSans-39" d="M 703 97 
L 703 672 
Q 941 559 1184 500 
Q 1428 441 1663 441 
Q 2288 441 2617 861 
Q 2947 1281 2994 2138 
Q 2813 1869 2534 1725 
Q 2256 1581 1919 1581 
Q 1219 1581 811 2004 
Q 403 2428 403 3163 
Q 403 3881 828 4315 
Q 1253 4750 1959 4750 
Q 2769 4750 3195 4129 
Q 3622 3509 3622 2328 
Q 3622 1225 3098 567 
Q 2575 -91 1691 -91 
Q 1453 -91 1209 -44 
Q 966 3 703 97 
z
M 1959 2075 
Q 2384 2075 2632 2365 
Q 2881 2656 2881 3163 
Q 2881 3666 2632 3958 
Q 2384 4250 1959 4250 
Q 1534 4250 1286 3958 
Q 1038 3666 1038 3163 
Q 1038 2656 1286 2365 
Q 1534 2075 1959 2075 
z
" transform="scale(0.015625)"/>
      <path id="DejaVuSans-4b" d="M 628 4666 
L 1259 4666 
L 1259 2694 
L 3353 4666 
L 4166 4666 
L 1850 2491 
L 4331 0 
L 3500 0 
L 1259 2247 
L 1259 0 
L 628 0 
L 628 4666 
z
" transform="scale(0.015625)"/>
     </defs>
     <use xlink:href="#DejaVuSans-76"/>
     <use xlink:href="#DejaVuSans-27" x="59.179688"/>
     <use xlink:href="#DejaVuSans-3d" x="86.669922"/>
     <use xlink:href="#DejaVuSans-35" x="170.458984"/>
     <use xlink:href="#DejaVuSans-20" x="234.082031"/>
     <use xlink:href="#DejaVuSans-37" x="265.869141"/>
     <use xlink:href="#DejaVuSans-39" x="329.492188"/>
     <use xlink:href="#DejaVuSans-4b" x="393.115234"/>
     <use xlink:href="#DejaVuSans-20" x="458.691406"/>
     <use xlink:href="#DejaVuSans-33" x="490.478516"/>
    </g>
   </g>
   <g id="legend_1">
    <g id="patch_7">
     <path d="M 63.431 69.257756 
L 193.304811 69.257756 
Q 194.970811 69.257756 194.970811 67.591756 
L 194.970811 47.303 
Q 194.970811 45.637 193.304811 45.637 
L 63.431 45.637 
Q 61.765 45.637 61.765 47.303 
L 61.765 67.591756 
Q 61.765 69.257756 63.431 69.257756 
z
" style="fill: #ffffff; opacity: 0.8; stroke: #cccccc; stroke-linejoin: miter"/>
    </g>
    <g id="line2d_15">
     <path d="M 65.097 52.382998 
L 73.427 52.382998 
L 81.757 52.382998 
" style="fill: none; stroke: #1f77b4; stroke-width: 1.5; stroke-linecap: square"/>
    </g>
    <g id="text_9">
     <!-- data/Harvard/o6lb5 v'=5 -->
     <g transform="translate(88.421 55.298498) scale(0.0833 -0.0833)">
      <defs>
       <path id="DejaVuSans-64" d="M 2906 2969 
L 2906 4863 
L 3481 4863 
L 3481 0 
L 2906 0 
L 2906 525 
Q 2725 213 2448 61 
Q 2172 -91 1784 -91 
Q 1150 -91 751 415 
Q 353 922 353 1747 
Q 353 2572 751 3078 
Q 1150 3584 1784 3584 
Q 2172 3584 2448 3432 
Q 2725 3281 2906 2969 
z
M 947 1747 
Q 947 1113 1208 752 
Q 1469 391 1925 391 
Q 2381 391 2643 752 
Q 2906 1113 2906 1747 
Q 2906 2381 2643 2742 
Q 2381 3103 1925 3103 
Q 1469 3103 1208 2742 
Q 947 2381 947 1747 
z
" transform="scale(0.015625)"/>
       <path id="DejaVuSans-61" d="M 2194 1759 
Q 1497 1759 1228 1600 
Q 959 1441 959 1056 
Q 959 750 1161 570 
Q 1363 391 1709 391 
Q 2188 391 2477 730 
Q 2766 1069 2766 1631 
L 2766 1759 
L 2194 1759 
z
M 3341 1997 
L 3341 0 
L 2766 0 
L 2766 531 
Q 2569 213 2275 61 
Q 1981 -91 1556 -91 
Q 1019 -91 701 211 
Q 384 513 384 1019 
Q 384 1609 779 1909 
Q 1175 2209 1959 2209 
L 2766 2209 
L 2766 2266 
Q 2766 2663 2505 2880 
Q 2244 3097 1772 3097 
Q 1472 3097 1187 3025 
Q 903 2953 641 2809 
L 641 3341 
Q 956 3463 1253 3523 
Q 1550 3584 1831 3584 
Q 2591 3584 2966 3190 
Q 3341 2797 3341 1997 
z
" transform="scale(0.015625)"/>
       <path id="DejaVuSans-2f" d="M 1625 4666 
L 2156 4666 
L 531 -594 
L 0 -594 
L 1625 4666 
z
" transform="scale(0.015625)"/>
       <path id="DejaVuSans-48" d="M 628 4666 
L 1259 4666 
L 1259 2753 
L 3553 2753 
L 3553 4666 
L 4184 4666 
L 4184 0 
L 3553 0 
L 3553 2222 
L 1259 2222 
L 1259 0 
L 628 0 
L 628 4666 
z
" transform="scale(0.015625)"/>
       <path id="DejaVuSans-36" d="M 2113 2584 
Q 1688 2584 1439 2293 
Q 1191 2003 1191 1497 
Q 1191 994 1439 701 
Q 1688 409 2113 409 
Q 2538 409 2786 701 
Q 3034 994 3034 1497 
Q 3034 2003 2786 2293 
Q 2538 2584 2113 2584 
z
M 3366 4563 
L 3366 3988 
Q 3128 4100 2886 4159 
Q 2644 4219 2406 4219 
Q 1781 4219 1451 3797 
Q 1122 3375 1075 2522 
Q 1259 2794 1537 2939 
Q 1816 3084 2150 3084 
Q 2853 3084 3261 2657 
Q 3669 2231 3669 1497 
Q 3669 778 3244 343 
Q 2819 -91 2113 -91 
Q 1303 -91 875 529 
Q 447 1150 447 2328 
Q 447 3434 972 4092 
Q 1497 4750 2381 4750 
Q 2619 4750 2861 4703 
Q 3103 4656 3366 4563 
z
" transform="scale(0.015625)"/>
       <path id="DejaVuSans-6c" d="M 603 4863 
L 1178 4863 
L 1178 0 
L 603 0 
L 603 4863 
z
" transform="scale(0.015625)"/>
       <path id="DejaVuSans-62" d="M 3116 1747 
Q 3116 2381 2855 2742 
Q 2594 3103 2138 3103 
Q 1681 3103 1420 2742 
Q 1159 2381 1159 1747 
Q 1159 1113 1420 752 
Q 1681 391 2138 391 
Q 2594 391 2855 752 
Q 3116 1113 3116 1747 
z
M 1159 2969 
Q 1341 3281 1617 3432 
Q 1894 3584 2278 3584 
Q 2916 3584 3314 3078 
Q 3713 2572 3713 1747 
Q 3713 922 3314 415 
Q 2916 -91 2278 -91 
Q 1894 -91 1617 61 
Q 1341 213 1159 525 
L 1159 0 
L 581 0 
L 581 4863 
L 1159 4863 
L 1159 2969 
z
" transform="scale(0.015625)"/>
      </defs>
      <use xlink:href="#DejaVuSans-64"/>
      <use xlink:href="#DejaVuSans-61" x="63.476562"/>
      <use xlink:href="#DejaVuSans-74" x="124.755859"/>
      <use xlink:href="#DejaVuSans-61" x="163.964844"/>
      <use xlink:href="#DejaVuSans-2f" x="225.244141"/>
      <use xlink:href="#DejaVuSans-48" x="258.935547"/>
      <use xlink:href="#DejaVuSans-61" x="334.130859"/>
      <use xlink:href="#DejaVuSans-72" x="395.410156"/>
      <use xlink:href="#DejaVuSans-76" x="436.523438"/>
      <use xlink:href="#DejaVuSans-61" x="495.703125"/>
      <use xlink:href="#DejaVuSans-72" x="556.982422"/>
      <use xlink:href="#DejaVuSans-64" x="596.345703"/>
      <use xlink:href="#DejaVuSans-2f" x="659.822266"/>
      <use xlink:href="#DejaVuSans-6f" x="693.513672"/>
      <use xlink:href="#DejaVuSans-36" x="754.695312"/>
      <use xlink:href="#DejaVuSans-6c" x="818.318359"/>
      <use xlink:href="#DejaVuSans-62" x="846.101562"/>
      <use xlink:href="#DejaVuSans-35" x="909.578125"/>
      <use xlink:href="#DejaVuSans-20" x="973.201172"/>
      <use xlink:href="#DejaVuSans-76" x="1004.988281"/>
      <use xlink:href="#DejaVuSans-27" x="1064.167969"/>
      <use xlink:href="#DejaVuSans-3d" x="1091.658203"/>
      <use xlink:href="#DejaVuSans-35" x="1175.447266"/>
     </g>
    </g>
    <g id="line2d_16">
     <path d="M 65.097 61.277877 
L 73.427 61.277877 
L 81.757 61.277877 
" style="fill: none; stroke: #ff7f0e; stroke-width: 1.5; stroke-linecap: square"/>
    </g>
    <g id="text_10">
     <!-- PyDia. -->
     <g transform="translate(88.421 64.193377) scale(0.0833 -0.0833)">
      <defs>
       <path id="DejaVuSans-50" d="M 1259 4147 
L 1259 2394 
L 2053 2394 
Q 2494 2394 2734 2622 
Q 2975 2850 2975 3272 
Q 2975 3691 2734 3919 
Q 2494 4147 2053 4147 
L 1259 4147 
z
M 628 4666 
L 2053 4666 
Q 2838 4666 3239 4311 
Q 3641 3956 3641 3272 
Q 3641 2581 3239 2228 
Q 2838 1875 2053 1875 
L 1259 1875 
L 1259 0 
L 628 0 
L 628 4666 
z
" transform="scale(0.015625)"/>
       <path id="DejaVuSans-79" d="M 2059 -325 
Q 1816 -950 1584 -1140 
Q 1353 -1331 966 -1331 
L 506 -1331 
L 506 -850 
L 844 -850 
Q 1081 -850 1212 -737 
Q 1344 -625 1503 -206 
L 1606 56 
L 191 3500 
L 800 3500 
L 1894 763 
L 2988 3500 
L 3597 3500 
L 2059 -325 
z
" transform="scale(0.015625)"/>
       <path id="DejaVuSans-44" d="M 1259 4147 
L 1259 519 
L 2022 519 
Q 2988 519 3436 956 
Q 3884 1394 3884 2338 
Q 3884 3275 3436 3711 
Q 2988 4147 2022 4147 
L 1259 4147 
z
M 628 4666 
L 1925 4666 
Q 3281 4666 3915 4102 
Q 4550 3538 4550 2338 
Q 4550 1131 3912 565 
Q 3275 0 1925 0 
L 628 0 
L 628 4666 
z
" transform="scale(0.015625)"/>
       <path id="DejaVuSans-2e" d="M 684 794 
L 1344 794 
L 1344 0 
L 684 0 
L 684 794 
z
" transform="scale(0.015625)"/>
      </defs>
      <use xlink:href="#DejaVuSans-50"/>
      <use xlink:href="#DejaVuSans-79" x="60.302734"/>
      <use xlink:href="#DejaVuSans-44" x="119.482422"/>
      <use xlink:href="#DejaVuSans-69" x="196.484375"/>
      <use xlink:href="#DejaVuSans-61" x="224.267578"/>
      <use xlink:href="#DejaVuSans-2e" x="285.546875"/>
     </g>
    </g>
   </g>
  </g>
  <g id="axes_2">
   <g id="patch_8">
    <path d="M 57.6 307.584 
L 414.72 307.584 
L 414.72 186.624 
L 57.6 186.624 
z
" style="fill: #ffffff"/>
   </g>
   <g id="matplotlib.axis_3">
    <g id="xtick_8">
     <g id="line2d_17">
      <g>
       <use xlink:href="#mec23fb6a43" x="83.355602" y="307.584" style="stroke: #000000; stroke-width: 0.8"/>
      </g>
     </g>
     <g id="text_11">
      <!-- 52000 -->
      <g transform="translate(67.449352 322.182437) scale(0.1 -0.1)">
       <use xlink:href="#DejaVuSans-35"/>
       <use xlink:href="#DejaVuSans-32" x="63.623047"/>
       <use xlink:href="#DejaVuSans-30" x="127.246094"/>
       <use xlink:href="#DejaVuSans-30" x="190.869141"/>
       <use xlink:href="#DejaVuSans-30" x="254.492188"/>
      </g>
     </g>
    </g>
    <g id="xtick_9">
     <g id="line2d_18">
      <g>
       <use xlink:href="#mec23fb6a43" x="131.034341" y="307.584" style="stroke: #000000; stroke-width: 0.8"/>
      </g>
     </g>
     <g id="text_12">
      <!-- 52100 -->
      <g transform="translate(115.128091 322.182437) scale(0.1 -0.1)">
       <use xlink:href="#DejaVuSans-35"/>
       <use xlink:href="#DejaVuSans-32" x="63.623047"/>
       <use xlink:href="#DejaVuSans-31" x="127.246094"/>
       <use xlink:href="#DejaVuSans-30" x="190.869141"/>
       <use xlink:href="#DejaVuSans-30" x="254.492188"/>
      </g>
     </g>
    </g>
    <g id="xtick_10">
     <g id="line2d_19">
      <g>
       <use xlink:href="#mec23fb6a43" x="178.71308" y="307.584" style="stroke: #000000; stroke-width: 0.8"/>
      </g>
     </g>
     <g id="text_13">
      <!-- 52200 -->
      <g transform="translate(162.80683 322.182437) scale(0.1 -0.1)">
       <use xlink:href="#DejaVuSans-35"/>
       <use xlink:href="#DejaVuSans-32" x="63.623047"/>
       <use xlink:href="#DejaVuSans-32" x="127.246094"/>
       <use xlink:href="#DejaVuSans-30" x="190.869141"/>
       <use xlink:href="#DejaVuSans-30" x="254.492188"/>
      </g>
     </g>
    </g>
    <g id="xtick_11">
     <g id="line2d_20">
      <g>
       <use xlink:href="#mec23fb6a43" x="226.391818" y="307.584" style="stroke: #000000; stroke-width: 0.8"/>
      </g>
     </g>
     <g id="text_14">
      <!-- 52300 -->
      <g transform="translate(210.485568 322.182437) scale(0.1 -0.1)">
       <use xlink:href="#DejaVuSans-35"/>
       <use xlink:href="#DejaVuSans-32" x="63.623047"/>
       <use xlink:href="#DejaVuSans-33" x="127.246094"/>
       <use xlink:href="#DejaVuSans-30" x="190.869141"/>
       <use xlink:href="#DejaVuSans-30" x="254.492188"/>
      </g>
     </g>
    </g>
    <g id="xtick_12">
     <g id="line2d_21">
      <g>
       <use xlink:href="#mec23fb6a43" x="274.070557" y="307.584" style="stroke: #000000; stroke-width: 0.8"/>
      </g>
     </g>
     <g id="text_15">
      <!-- 52400 -->
      <g transform="translate(258.164307 322.182437) scale(0.1 -0.1)">
       <use xlink:href="#DejaVuSans-35"/>
       <use xlink:href="#DejaVuSans-32" x="63.623047"/>
       <use xlink:href="#DejaVuSans-34" x="127.246094"/>
       <use xlink:href="#DejaVuSans-30" x="190.869141"/>
       <use xlink:href="#DejaVuSans-30" x="254.492188"/>
      </g>
     </g>
    </g>
    <g id="xtick_13">
     <g id="line2d_22">
      <g>
       <use xlink:href="#mec23fb6a43" x="321.749296" y="307.584" style="stroke: #000000; stroke-width: 0.8"/>
      </g>
     </g>
     <g id="text_16">
      <!-- 52500 -->
      <g transform="translate(305.843046 322.182437) scale(0.1 -0.1)">
       <use xlink:href="#DejaVuSans-35"/>
       <use xlink:href="#DejaVuSans-32" x="63.623047"/>
       <use xlink:href="#DejaVuSans-35" x="127.246094"/>
       <use xlink:href="#DejaVuSans-30" x="190.869141"/>
       <use xlink:href="#DejaVuSans-30" x="254.492188"/>
      </g>
     </g>
    </g>
    <g id="xtick_14">
     <g id="line2d_23">
      <g>
       <use xlink:href="#mec23fb6a43" x="369.428035" y="307.584" style="stroke: #000000; stroke-width: 0.8"/>
      </g>
     </g>
     <g id="text_17">
      <!-- 52600 -->
      <g transform="translate(353.521785 322.182437) scale(0.1 -0.1)">
       <use xlink:href="#DejaVuSans-35"/>
       <use xlink:href="#DejaVuSans-32" x="63.623047"/>
       <use xlink:href="#DejaVuSans-36" x="127.246094"/>
       <use xlink:href="#DejaVuSans-30" x="190.869141"/>
       <use xlink:href="#DejaVuSans-30" x="254.492188"/>
      </g>
     </g>
    </g>
    <g id="text_18">
     <!-- transition energy (wavenumber cm$^{-1}$) -->
     <g transform="translate(140.46 337.262125) scale(0.1 -0.1)">
      <defs>
       <path id="DejaVuSans-67" d="M 2906 1791 
Q 2906 2416 2648 2759 
Q 2391 3103 1925 3103 
Q 1463 3103 1205 2759 
Q 947 2416 947 1791 
Q 947 1169 1205 825 
Q 1463 481 1925 481 
Q 2391 481 2648 825 
Q 2906 1169 2906 1791 
z
M 3481 434 
Q 3481 -459 3084 -895 
Q 2688 -1331 1869 -1331 
Q 1566 -1331 1297 -1286 
Q 1028 -1241 775 -1147 
L 775 -588 
Q 1028 -725 1275 -790 
Q 1522 -856 1778 -856 
Q 2344 -856 2625 -561 
Q 2906 -266 2906 331 
L 2906 616 
Q 2728 306 2450 153 
Q 2172 0 1784 0 
Q 1141 0 747 490 
Q 353 981 353 1791 
Q 353 2603 747 3093 
Q 1141 3584 1784 3584 
Q 2172 3584 2450 3431 
Q 2728 3278 2906 2969 
L 2906 3500 
L 3481 3500 
L 3481 434 
z
" transform="scale(0.015625)"/>
       <path id="DejaVuSans-77" d="M 269 3500 
L 844 3500 
L 1563 769 
L 2278 3500 
L 2956 3500 
L 3675 769 
L 4391 3500 
L 4966 3500 
L 4050 0 
L 3372 0 
L 2619 2869 
L 1863 0 
L 1184 0 
L 269 3500 
z
" transform="scale(0.015625)"/>
       <path id="DejaVuSans-75" d="M 544 1381 
L 544 3500 
L 1119 3500 
L 1119 1403 
Q 1119 906 1312 657 
Q 1506 409 1894 409 
Q 2359 409 2629 706 
Q 2900 1003 2900 1516 
L 2900 3500 
L 3475 3500 
L 3475 0 
L 2900 0 
L 2900 538 
Q 2691 219 2414 64 
Q 2138 -91 1772 -91 
Q 1169 -91 856 284 
Q 544 659 544 1381 
z
M 1991 3584 
L 1991 3584 
z
" transform="scale(0.015625)"/>
      </defs>
      <use xlink:href="#DejaVuSans-74" transform="translate(0 0.684375)"/>
      <use xlink:href="#DejaVuSans-72" transform="translate(39.208984 0.684375)"/>
      <use xlink:href="#DejaVuSans-61" transform="translate(80.322266 0.684375)"/>
      <use xlink:href="#DejaVuSans-6e" transform="translate(141.601562 0.684375)"/>
      <use xlink:href="#DejaVuSans-73" transform="translate(204.980469 0.684375)"/>
      <use xlink:href="#DejaVuSans-69" transform="translate(257.080078 0.684375)"/>
      <use xlink:href="#DejaVuSans-74" transform="translate(284.863281 0.684375)"/>
      <use xlink:href="#DejaVuSans-69" transform="translate(324.072266 0.684375)"/>
      <use xlink:href="#DejaVuSans-6f" transform="translate(351.855469 0.684375)"/>
      <use xlink:href="#DejaVuSans-6e" transform="translate(413.037109 0.684375)"/>
      <use xlink:href="#DejaVuSans-20" transform="translate(476.416016 0.684375)"/>
      <use xlink:href="#DejaVuSans-65" transform="translate(508.203125 0.684375)"/>
      <use xlink:href="#DejaVuSans-6e" transform="translate(569.726562 0.684375)"/>
      <use xlink:href="#DejaVuSans-65" transform="translate(633.105469 0.684375)"/>
      <use xlink:href="#DejaVuSans-72" transform="translate(694.628906 0.684375)"/>
      <use xlink:href="#DejaVuSans-67" transform="translate(735.742188 0.684375)"/>
      <use xlink:href="#DejaVuSans-79" transform="translate(799.21875 0.684375)"/>
      <use xlink:href="#DejaVuSans-20" transform="translate(858.398438 0.684375)"/>
      <use xlink:href="#DejaVuSans-28" transform="translate(890.185547 0.684375)"/>
      <use xlink:href="#DejaVuSans-77" transform="translate(929.199219 0.684375)"/>
      <use xlink:href="#DejaVuSans-61" transform="translate(1010.986328 0.684375)"/>
      <use xlink:href="#DejaVuSans-76" transform="translate(1072.265625 0.684375)"/>
      <use xlink:href="#DejaVuSans-65" transform="translate(1131.445312 0.684375)"/>
      <use xlink:href="#DejaVuSans-6e" transform="translate(1192.96875 0.684375)"/>
      <use xlink:href="#DejaVuSans-75" transform="translate(1256.347656 0.684375)"/>
      <use xlink:href="#DejaVuSans-6d" transform="translate(1319.726562 0.684375)"/>
      <use xlink:href="#DejaVuSans-62" transform="translate(1417.138672 0.684375)"/>
      <use xlink:href="#DejaVuSans-65" transform="translate(1480.615234 0.684375)"/>
      <use xlink:href="#DejaVuSans-72" transform="translate(1542.138672 0.684375)"/>
      <use xlink:href="#DejaVuSans-20" transform="translate(1583.251953 0.684375)"/>
      <use xlink:href="#DejaVuSans-63" transform="translate(1615.039062 0.684375)"/>
      <use xlink:href="#DejaVuSans-6d" transform="translate(1670.019531 0.684375)"/>
      <use xlink:href="#DejaVuSans-2212" transform="translate(1768.388672 38.965625) scale(0.7)"/>
      <use xlink:href="#DejaVuSans-31" transform="translate(1827.041016 38.965625) scale(0.7)"/>
      <use xlink:href="#DejaVuSans-29" transform="translate(1874.311523 0.684375)"/>
     </g>
    </g>
   </g>
   <g id="matplotlib.axis_4">
    <g id="ytick_6">
     <g id="line2d_24">
      <g>
       <use xlink:href="#ma6c9eab6cd" x="57.6" y="302.085818" style="stroke: #000000; stroke-width: 0.8"/>
      </g>
     </g>
     <g id="text_19">
      <!-- 0 -->
      <g transform="translate(44.2375 305.885037) scale(0.1 -0.1)">
       <use xlink:href="#DejaVuSans-30"/>
      </g>
     </g>
    </g>
    <g id="ytick_7">
     <g id="line2d_25">
      <g>
       <use xlink:href="#ma6c9eab6cd" x="57.6" y="276.887751" style="stroke: #000000; stroke-width: 0.8"/>
      </g>
     </g>
     <g id="text_20">
      <!-- 1 -->
      <g transform="translate(44.2375 280.686969) scale(0.1 -0.1)">
       <use xlink:href="#DejaVuSans-31"/>
      </g>
     </g>
    </g>
    <g id="ytick_8">
     <g id="line2d_26">
      <g>
       <use xlink:href="#ma6c9eab6cd" x="57.6" y="251.689683" style="stroke: #000000; stroke-width: 0.8"/>
      </g>
     </g>
     <g id="text_21">
      <!-- 2 -->
      <g transform="translate(44.2375 255.488902) scale(0.1 -0.1)">
       <use xlink:href="#DejaVuSans-32"/>
      </g>
     </g>
    </g>
    <g id="ytick_9">
     <g id="line2d_27">
      <g>
       <use xlink:href="#ma6c9eab6cd" x="57.6" y="226.491615" style="stroke: #000000; stroke-width: 0.8"/>
      </g>
     </g>
     <g id="text_22">
      <!-- 3 -->
      <g transform="translate(44.2375 230.290834) scale(0.1 -0.1)">
       <use xlink:href="#DejaVuSans-33"/>
      </g>
     </g>
    </g>
    <g id="ytick_10">
     <g id="line2d_28">
      <g>
       <use xlink:href="#ma6c9eab6cd" x="57.6" y="201.293548" style="stroke: #000000; stroke-width: 0.8"/>
      </g>
     </g>
     <g id="text_23">
      <!-- 4 -->
      <g transform="translate(44.2375 205.092766) scale(0.1 -0.1)">
       <use xlink:href="#DejaVuSans-34"/>
      </g>
     </g>
    </g>
    <g id="text_24">
     <!-- cross section (cm$^{2}$) -->
     <g transform="translate(38.157812 295.304) rotate(-90) scale(0.1 -0.1)">
      <use xlink:href="#DejaVuSans-63" transform="translate(0 0.765625)"/>
      <use xlink:href="#DejaVuSans-72" transform="translate(54.980469 0.765625)"/>
      <use xlink:href="#DejaVuSans-6f" transform="translate(96.09375 0.765625)"/>
      <use xlink:href="#DejaVuSans-73" transform="translate(157.275391 0.765625)"/>
      <use xlink:href="#DejaVuSans-73" transform="translate(209.375 0.765625)"/>
      <use xlink:href="#DejaVuSans-20" transform="translate(261.474609 0.765625)"/>
      <use xlink:href="#DejaVuSans-73" transform="translate(293.261719 0.765625)"/>
      <use xlink:href="#DejaVuSans-65" transform="translate(345.361328 0.765625)"/>
      <use xlink:href="#DejaVuSans-63" transform="translate(406.884766 0.765625)"/>
      <use xlink:href="#DejaVuSans-74" transform="translate(461.865234 0.765625)"/>
      <use xlink:href="#DejaVuSans-69" transform="translate(501.074219 0.765625)"/>
      <use xlink:href="#DejaVuSans-6f" transform="translate(528.857422 0.765625)"/>
      <use xlink:href="#DejaVuSans-6e" transform="translate(590.039062 0.765625)"/>
      <use xlink:href="#DejaVuSans-20" transform="translate(653.417969 0.765625)"/>
      <use xlink:href="#DejaVuSans-28" transform="translate(685.205078 0.765625)"/>
      <use xlink:href="#DejaVuSans-63" transform="translate(724.21875 0.765625)"/>
      <use xlink:href="#DejaVuSans-6d" transform="translate(779.199219 0.765625)"/>
      <use xlink:href="#DejaVuSans-32" transform="translate(877.568359 39.046875) scale(0.7)"/>
      <use xlink:href="#DejaVuSans-29" transform="translate(924.838867 0.765625)"/>
     </g>
    </g>
    <g id="text_25">
     <!-- 1e−20 -->
     <g transform="translate(57.6 183.624) scale(0.1 -0.1)">
      <use xlink:href="#DejaVuSans-31"/>
      <use xlink:href="#DejaVuSans-65" x="63.623047"/>
      <use xlink:href="#DejaVuSans-2212" x="125.146484"/>
      <use xlink:href="#DejaVuSans-32" x="208.935547"/>
      <use xlink:href="#DejaVuSans-30" x="272.558594"/>
     </g>
    </g>
   </g>
   <g id="line2d_29">
    <path d="M 73.832727 301.679525 
L 75.149614 301.755119 
L 76.417868 301.551266 
L 76.784041 301.227723 
L 77.443438 300.575345 
L 77.805797 300.531249 
L 78.036562 300.751984 
L 78.563412 301.271568 
L 78.7937 301.2693 
L 79.386347 301.043273 
L 79.975179 301.460301 
L 80.377588 301.471892 
L 80.717537 301.488271 
L 82.295703 301.888442 
L 85.452036 301.995937 
L 88.221217 302.007402 
L 91.687938 301.893683 
L 92.430773 301.699179 
L 92.802667 301.41948 
L 93.76244 300.411054 
L 94.071875 300.758787 
L 94.536266 301.452238 
L 94.907683 301.721353 
L 95.465048 301.889424 
L 97.261106 302.008536 
L 103.598564 301.99639 
L 105.271611 301.829201 
L 105.736479 301.616529 
L 105.984408 301.365557 
L 106.195625 300.964151 
L 106.67575 300.225344 
L 106.867418 300.221816 
L 107.187343 300.634057 
L 107.78142 301.570417 
L 108.277279 301.808539 
L 109.392961 301.957585 
L 111.748291 301.994324 
L 114.304348 301.907038 
L 115.389516 301.673981 
L 115.873932 301.243094 
L 116.159051 300.59752 
L 116.44417 299.908352 
L 116.91905 299.624118 
L 117.172701 299.406911 
L 117.425875 299.537941 
L 118.782335 301.514981 
L 119.402636 301.783089 
L 119.968105 301.896304 
L 121.643536 301.945893 
L 123.877285 301.658358 
L 124.291137 301.225707 
L 124.919066 300.5378 
L 125.327196 301.147845 
L 125.832113 301.684816 
L 126.495801 301.892247 
L 127.644382 301.947128 
L 128.606539 301.799467 
L 129.071884 301.540431 
L 129.630679 301.118616 
L 130.468871 301.665414 
L 131.276072 301.687084 
L 131.710425 301.675997 
L 132.828492 301.958341 
L 134.442894 302.053262 
L 140.374606 302.072514 
L 148.246842 301.950631 
L 149.177531 301.761418 
L 149.927041 301.100473 
L 150.152085 300.427433 
L 150.51778 298.781999 
L 150.592636 298.817276 
L 150.742824 299.086895 
L 151.126638 299.920951 
L 151.426537 300.566778 
L 151.464203 300.544856 
L 151.904755 299.697949 
L 151.95148 299.742297 
L 152.326235 300.713431 
L 152.813035 301.355225 
L 153.220211 301.705731 
L 153.903925 301.894464 
L 155.676143 301.999263 
L 157.697245 302.005613 
L 158.972651 301.966858 
L 160.807329 302.050793 
L 168.396354 302.075084 
L 172.566813 302.053086 
L 179.696215 301.852131 
L 180.630242 301.567645 
L 180.963516 301.229235 
L 181.187129 300.887297 
L 181.411219 300.083983 
L 181.738772 298.013458 
L 182.000052 296.698119 
L 182.112097 296.383143 
L 182.149286 296.466296 
L 182.782937 299.039019 
L 182.857792 298.950826 
L 183.192974 298.043695 
L 183.23064 298.058814 
L 183.491443 298.89539 
L 183.946298 300.32916 
L 184.46838 301.311885 
L 184.959948 301.655082 
L 185.36474 301.791908 
L 186.424162 301.926037 
L 187.825917 301.93405 
L 189.00978 301.934176 
L 190.350029 302.004202 
L 191.316001 301.888114 
L 191.876703 301.807027 
L 193.653212 302.035901 
L 198.453985 302.040285 
L 208.395478 301.71581 
L 209.019593 301.455262 
L 209.383382 301.08863 
L 209.920244 299.834522 
L 210.154347 298.429226 
L 210.767972 292.401848 
L 210.805639 292.535398 
L 211.407821 295.929577 
L 211.445964 295.90186 
L 211.749678 295.476012 
L 211.977582 294.674714 
L 212.015725 294.687313 
L 212.129677 295.362621 
L 212.547343 298.129369 
L 212.84009 299.437149 
L 213.371708 300.803388 
L 213.731206 301.274088 
L 214.074493 301.57974 
L 214.979912 301.798711 
L 216.540437 301.94098 
L 218.631627 301.885569 
L 219.535616 301.766458 
L 220.15973 301.893859 
L 221.126655 301.904241 
L 221.937671 301.609222 
L 222.218498 301.523297 
L 222.623768 301.668941 
L 223.221659 301.888064 
L 224.283465 301.96711 
L 228.005744 301.986361 
L 232.223405 301.853139 
L 234.316502 301.507926 
L 234.816652 301.197737 
L 235.602397 300.104897 
L 235.947591 298.575375 
L 236.255596 296.428499 
L 236.488745 292.779819 
L 236.828694 287.873755 
L 236.866361 287.765404 
L 236.904504 287.820839 
L 237.055168 289.229411 
L 237.395118 291.645906 
L 237.582972 292.230501 
L 237.659735 291.958362 
L 237.886209 290.794211 
L 237.923875 290.80681 
L 238.112683 291.784495 
L 238.263824 292.956206 
L 238.634765 296.698119 
L 238.892707 298.456944 
L 239.378076 300.251046 
L 239.68036 300.61415 
L 240.44465 301.465341 
L 241.226581 301.68532 
L 241.914585 301.778049 
L 244.135461 301.881789 
L 246.356337 301.805011 
L 246.868406 301.586292 
L 247.21217 301.441907 
L 247.680375 301.613002 
L 248.14858 301.766458 
L 248.991541 301.698171 
L 249.30336 301.500114 
L 249.647123 301.214872 
L 249.896483 301.273584 
L 250.645993 301.742268 
L 251.112291 301.824161 
L 252.862101 301.839532 
L 255.951683 301.579236 
L 257.918908 300.831106 
L 258.730877 300.030311 
L 259.108969 298.89791 
L 259.351654 297.532175 
L 259.693034 293.931371 
L 259.997701 287.059858 
L 260.335743 281.410451 
L 260.373409 281.322258 
L 260.448742 282.085759 
L 260.745303 286.062014 
L 260.899306 286.296356 
L 260.974161 286.387069 
L 261.08716 285.323711 
L 261.237348 283.685836 
L 261.275014 283.859703 
L 261.646431 288.455831 
L 262.384498 298.046215 
L 262.727308 299.540461 
L 263.211248 300.771386 
L 263.58791 301.097701 
L 264.215839 301.435103 
L 265.974231 301.744032 
L 267.418896 301.817106 
L 271.127349 301.70825 
L 271.782931 301.406629 
L 272.314072 301.103749 
L 273.282428 301.50339 
L 273.563732 301.476428 
L 274.063405 301.137262 
L 274.532087 300.625993 
L 274.781924 300.836145 
L 275.344533 301.35321 
L 276.34388 301.499106 
L 277.062875 301.374376 
L 278.68729 300.651947 
L 279.312358 299.799245 
L 279.718581 298.693806 
L 280.007037 297.111367 
L 280.244477 294.538644 
L 280.474289 291.240217 
L 281.127964 274.702725 
L 281.204727 275.307479 
L 281.357776 276.642977 
L 281.394012 276.567382 
L 281.434538 276.567382 
L 281.549921 278.207777 
L 281.700586 279.228298 
L 281.74159 279.155224 
L 281.895115 277.288047 
L 281.971878 278.016271 
L 283.158602 296.874505 
L 283.437045 298.451904 
L 283.905727 299.837042 
L 284.436869 300.526965 
L 284.843091 300.82531 
L 286.312073 301.407637 
L 290.157841 301.645759 
L 290.595055 301.629128 
L 291.970586 301.562354 
L 292.439268 301.53262 
L 293.8148 301.133734 
L 294.158563 300.650939 
L 294.470859 300.261881 
L 294.721173 300.336216 
L 294.971009 300.459686 
L 295.377709 300.629269 
L 295.752464 300.363681 
L 296.127695 299.626134 
L 296.440468 299.018861 
L 296.659313 298.968464 
L 297.034545 299.112093 
L 297.190455 299.079336 
L 297.534695 298.537577 
L 298.065836 296.54945 
L 298.330453 294.306822 
L 298.522122 291.45944 
L 298.788646 284.545091 
L 299.441845 264.749489 
L 299.518131 266.059788 
L 299.633036 268.327614 
L 299.671179 268.302416 
L 299.824228 266.790532 
L 299.862371 266.891324 
L 299.977277 267.823653 
L 300.053563 267.622068 
L 300.092183 267.521276 
L 300.168469 268.755981 
L 300.969948 291.72402 
L 301.431955 296.670401 
L 301.97597 298.867672 
L 302.090875 299.102014 
L 302.20149 299.399351 
L 302.582443 300.025271 
L 303.719581 300.896621 
L 304.863871 301.230243 
L 306.389114 301.289962 
L 306.770544 301.487011 
L 307.53388 301.316168 
L 308.67817 301.300546 
L 310.204366 300.988594 
L 311.355808 300.390895 
L 312.119144 299.601188 
L 312.549207 298.570335 
L 313.351163 295.63224 
L 313.843684 288.448271 
L 314.227975 276.768967 
L 314.685691 259.004329 
L 314.761977 259.634281 
L 314.80012 259.558687 
L 314.990835 257.517643 
L 315.028978 257.542841 
L 315.105264 256.988484 
L 315.189655 256.207344 
L 315.219693 256.282938 
L 315.524837 261.045373 
L 316.203782 287.730126 
L 316.55279 293.621434 
L 316.747796 296.189118 
L 317.844407 299.527862 
L 318.225837 300.100362 
L 318.607744 300.471025 
L 321.273462 300.979522 
L 322.418706 300.8558 
L 323.182519 300.706375 
L 324.335868 300.012924 
L 324.717774 299.648056 
L 326.159579 295.269388 
L 326.613958 290.038269 
L 326.994434 279.152704 
L 327.690067 250.033817 
L 327.842639 251.999266 
L 327.880305 251.772484 
L 327.956591 250.109411 
L 327.994734 250.159807 
L 328.177344 258.701952 
L 328.892525 287.969508 
L 329.433678 294.672194 
L 329.738346 296.400781 
L 330.004393 296.645203 
L 330.194631 296.620005 
L 330.347203 297.098768 
L 330.689536 298.023537 
L 330.735785 297.98826 
L 330.812071 297.960542 
L 331.03187 298.567815 
L 331.192547 298.537577 
L 331.374203 298.167166 
L 331.648833 297.615328 
L 331.67887 297.670764 
L 331.991166 298.535058 
L 332.219547 299.495104 
L 332.740676 300.098346 
L 333.504966 300.092298 
L 333.887349 299.982939 
L 334.269733 299.588337 
L 334.65164 299.462347 
L 335.082655 298.703885 
L 335.465039 298.328434 
L 335.685315 297.411224 
L 336.259367 293.981767 
L 336.526368 290.9454 
L 336.754749 285.820113 
L 337.063707 273.845991 
L 337.602477 247.791189 
L 337.64062 247.287228 
L 337.717383 247.463614 
L 337.793669 247.665199 
L 337.908574 250.008619 
L 338.211334 265.757411 
L 338.743906 287.001902 
L 338.974194 291.182262 
L 339.318911 294.440372 
L 339.663152 296.02533 
L 340.313013 297.401145 
L 340.351156 297.378466 
L 340.542348 296.919862 
L 340.619111 297.06853 
L 340.657254 297.093728 
L 340.695397 296.997976 
L 340.886588 296.622524 
L 341.001494 296.864426 
L 341.154066 297.2046 
L 341.192209 297.189481 
L 341.307115 297.113887 
L 341.53645 297.779116 
L 341.651355 297.955502 
L 341.689498 297.912665 
L 341.84207 297.72368 
L 342.148168 298.056294 
L 342.339359 297.942903 
L 342.377502 297.98574 
L 342.453788 298.000859 
L 342.491931 297.945423 
L 343.294841 295.720434 
L 343.638128 292.396808 
L 343.863172 289.158857 
L 344.133987 285.681523 
L 344.324702 282.231908 
L 344.595041 273.543614 
L 345.095191 252.427634 
L 345.133334 252.629218 
L 345.474237 264.648696 
L 346.005854 285.59837 
L 346.312429 291.003355 
L 346.694335 294.551243 
L 347.115339 296.80899 
L 347.191625 296.957659 
L 347.229768 296.909782 
L 347.30653 296.819069 
L 347.344673 296.879545 
L 347.497245 297.272634 
L 347.535388 297.239877 
L 348.032201 296.899703 
L 348.299202 296.015251 
L 348.490394 294.581481 
L 348.986252 290.008032 
L 349.751973 273.316832 
L 349.828259 273.770397 
L 349.942688 275.433469 
L 350.509588 285.971301 
L 350.624017 286.855753 
L 350.815209 288.428113 
L 350.894356 288.365118 
L 351.008785 288.977431 
L 351.124167 289.698095 
L 351.158496 289.680457 
L 351.352548 288.647336 
L 351.540403 287.785562 
L 351.619549 287.712488 
L 351.76926 288.959792 
L 352.078695 292.268298 
L 352.616512 296.763634 
L 353.057063 298.75932 
L 353.339798 299.437149 
L 353.653524 299.844349 
L 353.841855 299.882146 
L 354.12459 299.616055 
L 354.721051 298.608132 
L 354.878391 298.799637 
L 355.09819 299.011301 
L 355.50632 299.142331 
L 355.789055 299.973867 
L 356.197662 300.839673 
L 356.609129 301.225707 
L 356.924762 301.402598 
L 358.251662 301.709762 
L 360.340467 301.7337 
L 361.220617 301.597379 
L 361.723151 301.369336 
L 361.974895 301.03143 
L 362.194693 300.466742 
L 362.6033 299.41699 
L 362.792108 299.457307 
L 363.136349 299.907848 
L 363.387616 300.361414 
L 363.953085 301.304577 
L 364.393637 301.565881 
L 365.871201 301.802239 
L 366.688891 301.60771 
L 367.160434 301.21336 
L 367.789317 300.100362 
L 367.820785 300.122788 
L 368.261336 300.810443 
L 368.607484 301.181359 
L 369.016091 301.290214 
L 369.613982 301.303821 
L 369.96013 301.174807 
L 370.116993 301.272324 
L 370.62048 301.672217 
L 371.666075 301.890861 
L 374.02951 301.757135 
L 374.376134 301.629884 
L 374.785218 301.712534 
L 376.233221 301.775025 
L 376.579846 301.704975 
L 377.083333 301.475168 
L 377.55583 301.041761 
L 377.807573 300.531501 
L 378.721098 298.096611 
L 378.784034 298.184805 
L 380.137157 301.278371 
L 380.576754 301.584528 
L 381.016829 301.758898 
L 381.931307 301.919083 
L 383.512811 301.995937 
L 386.012607 302.04467 
L 398.487273 302.070699 
L 398.487273 302.070699 
" clip-path="url(#pa150817f13)" style="fill: none; stroke: #1f77b4; stroke-width: 1.5; stroke-linecap: square"/>
   </g>
   <g id="line2d_30">
    <path d="M 77.537704 301.717065 
L 82.257899 301.831843 
L 90.935429 301.811343 
L 102.044576 301.769482 
L 110.19764 301.680002 
L 112.295504 301.661881 
L 117.635523 301.883507 
L 124.16751 301.820271 
L 130.747176 301.540573 
L 134.656833 301.369735 
L 138.900241 301.314069 
L 140.712033 301.40369 
L 144.621689 301.684818 
L 152.107251 301.857983 
L 158.019415 301.725927 
L 162.405859 301.404356 
L 165.743371 300.995371 
L 167.984271 300.690822 
L 169.366955 300.802287 
L 171.560177 300.961171 
L 173.753399 301.076045 
L 177.329304 301.531733 
L 179.808599 301.699912 
L 186.054513 301.730679 
L 189.916491 301.524367 
L 192.395786 301.180849 
L 196.496157 300.303548 
L 197.688126 299.823604 
L 199.02313 299.282509 
L 199.690633 299.290797 
L 200.691886 299.588311 
L 201.836176 299.853766 
L 202.980466 299.855276 
L 203.838683 299.944034 
L 204.839937 300.340574 
L 205.84119 300.642825 
L 206.60405 300.629825 
L 207.319231 300.610766 
L 207.939055 300.913812 
L 208.797272 301.242551 
L 209.941562 301.405463 
L 213.612825 301.561337 
L 216.711943 301.462286 
L 219.095879 301.188719 
L 220.716957 300.791563 
L 222.147319 300.206849 
L 225.913939 298.289666 
L 226.772156 297.302158 
L 227.39198 296.714038 
L 227.77341 296.626281 
L 228.15484 296.772403 
L 229.013057 297.458103 
L 229.68056 297.839806 
L 230.252704 297.911306 
L 231.444673 297.906037 
L 231.969139 298.300348 
L 232.731999 298.852809 
L 233.161107 298.903915 
L 234.162361 298.813764 
L 234.496112 299.234577 
L 235.258972 300.251765 
L 235.878796 300.667484 
L 236.689334 300.927424 
L 237.928981 301.064125 
L 242.267747 301.218544 
L 244.317932 300.968235 
L 245.748295 300.580632 
L 246.797227 300.074726 
L 247.703123 299.389755 
L 248.799734 298.235066 
L 249.848666 297.227523 
L 251.231349 296.114628 
L 251.708137 295.270333 
L 252.375639 293.501562 
L 252.900105 292.336855 
L 253.138499 292.177049 
L 253.376893 292.295361 
L 253.710644 292.797753 
L 254.664219 294.389647 
L 255.045649 294.608691 
L 255.3794 294.552335 
L 256.046902 294.332636 
L 256.332975 294.563996 
L 257.334228 295.742184 
L 257.6203 295.594966 
L 258.144767 295.207736 
L 258.287803 295.358527 
L 258.526197 296.027141 
L 259.384414 298.846449 
L 259.861201 299.586175 
L 260.433346 300.073937 
L 261.148527 300.391659 
L 262.102102 300.556044 
L 263.580143 300.766905 
L 264.772111 300.861999 
L 266.34551 300.752573 
L 267.775872 300.443828 
L 268.824804 300.003785 
L 269.635343 299.435396 
L 270.350524 298.651971 
L 271.018026 297.561828 
L 271.828565 295.731063 
L 272.686782 293.919084 
L 273.211248 293.340203 
L 273.783393 292.71777 
L 274.117144 291.980466 
L 274.498574 290.528042 
L 275.118398 286.968004 
L 275.499828 285.409429 
L 275.690543 285.28858 
L 275.833579 285.497337 
L 276.119651 286.429374 
L 276.882511 289.020708 
L 277.168583 289.331312 
L 277.359298 289.27864 
L 277.69305 288.861832 
L 277.979122 288.634514 
L 278.169837 288.778337 
L 278.932697 289.788086 
L 279.17109 289.423413 
L 279.504842 288.984346 
L 279.647878 289.262794 
L 279.838593 290.342348 
L 280.744489 296.723763 
L 281.221276 298.137119 
L 281.745742 298.978896 
L 282.317887 299.494941 
L 283.033068 299.833881 
L 283.843607 299.968643 
L 284.84486 300.135536 
L 285.750756 300.293905 
L 286.799689 300.22749 
L 287.8963 299.943636 
L 288.802196 299.483871 
L 289.517377 298.874491 
L 290.1372 298.042771 
L 290.709345 296.859639 
L 291.233811 295.237595 
L 291.853635 292.508107 
L 292.664174 288.936771 
L 293.045603 288.208847 
L 293.617748 287.498443 
L 293.903821 286.504483 
L 294.237572 284.222682 
L 294.762038 278.399257 
L 295.095789 275.824045 
L 295.191147 275.679576 
L 295.238825 275.714322 
L 295.381862 276.188886 
L 295.763292 278.838061 
L 296.1924 281.272764 
L 296.430794 281.669113 
L 296.57383 281.536509 
L 297.145975 280.347049 
L 297.241332 280.429259 
L 297.71812 280.977692 
L 298.09955 280.668401 
L 298.242586 281.205727 
L 298.433301 283.146287 
L 299.291518 293.948416 
L 299.720627 296.176243 
L 300.197414 297.530096 
L 300.72188 298.376098 
L 301.294025 298.904542 
L 301.961528 299.215872 
L 302.676709 299.296704 
L 303.534926 299.39829 
L 304.297786 299.522275 
L 305.012967 299.388279 
L 305.775827 299.015343 
L 306.443329 298.432617 
L 307.015474 297.624554 
L 307.53994 296.459849 
L 308.016727 294.808032 
L 308.493515 292.238985 
L 309.017981 287.980962 
L 309.780841 281.814384 
L 310.066913 281.135288 
L 310.496022 280.634134 
L 310.686737 279.770566 
L 310.925131 277.543606 
L 311.258882 271.918606 
L 311.735669 264.263495 
L 311.831027 264.116908 
L 311.926384 264.516511 
L 312.212456 267.538774 
L 312.641565 271.363547 
L 312.784601 271.619911 
L 312.879959 271.470777 
L 313.118353 270.383553 
L 313.404425 269.488844 
L 313.547461 269.53168 
L 313.928891 269.892455 
L 314.071927 270.74975 
L 314.262642 273.753347 
L 315.12086 291.012246 
L 315.549968 294.290204 
L 316.026756 296.203355 
L 316.503543 297.278262 
L 317.028009 297.964448 
L 317.600154 298.363629 
L 318.172299 298.502128 
L 318.792122 298.415976 
L 319.602661 298.333704 
L 320.079448 298.222266 
L 320.556236 297.867132 
L 321.033023 297.237076 
L 321.509811 296.220137 
L 321.938919 294.771233 
L 322.368028 292.456179 
L 322.797137 288.659807 
L 323.273924 281.916065 
L 323.846069 273.740164 
L 324.084462 272.751747 
L 324.465892 272.27065 
L 324.656607 270.741573 
L 324.895001 266.399118 
L 325.514825 253.00985 
L 325.610182 253.581484 
L 326.230006 260.441421 
L 326.277684 260.420724 
L 326.420721 259.781474 
L 326.802151 257.615701 
L 326.897508 257.689785 
L 327.040544 258.421747 
L 327.231259 261.301622 
L 327.517332 270.736741 
L 327.994119 285.102205 
L 328.375549 290.620075 
L 328.804658 293.788517 
L 329.281445 295.643604 
L 329.758232 296.657202 
L 330.23502 297.203705 
L 330.711807 297.437023 
L 331.140916 297.422225 
L 331.570024 297.184582 
L 332.046812 296.637218 
L 332.714314 295.504143 
L 333.095744 294.385767 
L 333.477174 292.425423 
L 333.858604 289.032727 
L 334.240034 283.14861 
L 334.7645 270.303229 
L 335.098251 264.966189 
L 335.288966 264.448007 
L 335.432002 264.18925 
L 335.575039 263.101704 
L 335.765753 259.425347 
L 336.29022 247.287228 
L 336.385577 247.914479 
L 336.862364 252.428252 
L 336.957722 252.179594 
L 337.243794 250.659433 
L 337.291473 250.717925 
L 337.386831 251.396079 
L 337.577546 255.533579 
L 338.626478 288.880939 
L 339.007908 292.355659 
L 339.437016 294.3708 
L 339.866125 295.369506 
L 340.247555 295.729988 
L 340.533627 295.738473 
L 340.8197 295.522728 
L 341.153451 294.936932 
L 341.487202 293.855191 
L 341.820953 291.983935 
L 342.154704 288.725589 
L 342.488456 282.941874 
L 342.869886 271.621975 
L 343.251315 261.034669 
L 343.44203 259.84288 
L 343.585067 259.383959 
L 343.728103 257.933355 
L 344.157212 252.86138 
L 344.395605 253.698748 
L 344.58632 253.98851 
L 344.872393 253.908862 
L 344.96775 254.61107 
L 345.158465 258.960528 
L 346.064361 287.900375 
L 346.445791 291.325838 
L 346.779542 292.477108 
L 346.970257 292.588544 
L 347.113293 292.420148 
L 347.304008 291.815474 
L 347.542402 290.265729 
L 347.828474 286.600535 
L 348.162226 278.464739 
L 348.543655 270.04725 
L 348.591334 270.072853 
L 348.73437 271.458568 
L 349.020443 274.440905 
L 349.068122 274.472874 
L 349.163479 274.043636 
L 349.401873 270.996358 
L 349.640266 268.640681 
L 349.687945 268.557296 
L 349.735624 268.620238 
L 349.87866 269.698299 
L 350.164733 275.081053 
L 350.498484 279.778185 
L 350.593841 279.95896 
L 350.64152 279.915359 
L 350.784556 279.729848 
L 350.879914 280.008032 
L 351.070629 282.013733 
L 351.40438 285.073572 
L 351.738131 285.735871 
L 351.928846 287.915201 
L 352.500991 295.279517 
L 352.882421 297.404308 
L 353.311529 298.610955 
L 353.788317 299.334632 
L 354.360462 299.801379 
L 354.932607 299.982867 
L 355.504751 300.156411 
L 356.172254 300.442403 
L 357.84101 300.737723 
L 358.556191 300.944922 
L 359.31905 301.037729 
L 359.31905 301.037729 
" clip-path="url(#pa150817f13)" style="fill: none; stroke: #ff7f0e; stroke-width: 1.5; stroke-linecap: square"/>
   </g>
   <g id="patch_9">
    <path d="M 57.6 307.584 
L 57.6 186.624 
" style="fill: none; stroke: #000000; stroke-width: 0.8; stroke-linejoin: miter; stroke-linecap: square"/>
   </g>
   <g id="patch_10">
    <path d="M 414.72 307.584 
L 414.72 186.624 
" style="fill: none; stroke: #000000; stroke-width: 0.8; stroke-linejoin: miter; stroke-linecap: square"/>
   </g>
   <g id="patch_11">
    <path d="M 57.6 307.584 
L 414.72 307.584 
" style="fill: none; stroke: #000000; stroke-width: 0.8; stroke-linejoin: miter; stroke-linecap: square"/>
   </g>
   <g id="patch_12">
    <path d="M 57.6 186.624 
L 414.72 186.624 
" style="fill: none; stroke: #000000; stroke-width: 0.8; stroke-linejoin: miter; stroke-linecap: square"/>
   </g>
   <g id="text_26">
    <!-- v'=5 295K 3 -->
    <g transform="translate(199.095937 180.624) scale(0.12 -0.12)">
     <use xlink:href="#DejaVuSans-76"/>
     <use xlink:href="#DejaVuSans-27" x="59.179688"/>
     <use xlink:href="#DejaVuSans-3d" x="86.669922"/>
     <use xlink:href="#DejaVuSans-35" x="170.458984"/>
     <use xlink:href="#DejaVuSans-20" x="234.082031"/>
     <use xlink:href="#DejaVuSans-32" x="265.869141"/>
     <use xlink:href="#DejaVuSans-39" x="329.492188"/>
     <use xlink:href="#DejaVuSans-35" x="393.115234"/>
     <use xlink:href="#DejaVuSans-4b" x="456.738281"/>
     <use xlink:href="#DejaVuSans-20" x="522.314453"/>
     <use xlink:href="#DejaVuSans-33" x="554.101562"/>
    </g>
   </g>
   <g id="legend_2">
    <g id="patch_13">
     <path d="M 264.286708 214.409756 
L 408.889 214.409756 
Q 410.555 214.409756 410.555 212.743756 
L 410.555 192.455 
Q 410.555 190.789 408.889 190.789 
L 264.286708 190.789 
Q 262.620708 190.789 262.620708 192.455 
L 262.620708 212.743756 
Q 262.620708 214.409756 264.286708 214.409756 
z
" style="fill: #ffffff; opacity: 0.8; stroke: #cccccc; stroke-linejoin: miter"/>
    </g>
    <g id="line2d_31">
     <path d="M 265.952708 197.534998 
L 274.282708 197.534998 
L 282.612708 197.534998 
" style="fill: none; stroke: #1f77b4; stroke-width: 1.5; stroke-linecap: square"/>
    </g>
    <g id="text_27">
     <!-- data/Harvard/o2wb5x0 v'=5 -->
     <g transform="translate(289.276708 200.450498) scale(0.0833 -0.0833)">
      <defs>
       <path id="DejaVuSans-78" d="M 3513 3500 
L 2247 1797 
L 3578 0 
L 2900 0 
L 1881 1375 
L 863 0 
L 184 0 
L 1544 1831 
L 300 3500 
L 978 3500 
L 1906 2253 
L 2834 3500 
L 3513 3500 
z
" transform="scale(0.015625)"/>
      </defs>
      <use xlink:href="#DejaVuSans-64"/>
      <use xlink:href="#DejaVuSans-61" x="63.476562"/>
      <use xlink:href="#DejaVuSans-74" x="124.755859"/>
      <use xlink:href="#DejaVuSans-61" x="163.964844"/>
      <use xlink:href="#DejaVuSans-2f" x="225.244141"/>
      <use xlink:href="#DejaVuSans-48" x="258.935547"/>
      <use xlink:href="#DejaVuSans-61" x="334.130859"/>
      <use xlink:href="#DejaVuSans-72" x="395.410156"/>
      <use xlink:href="#DejaVuSans-76" x="436.523438"/>
      <use xlink:href="#DejaVuSans-61" x="495.703125"/>
      <use xlink:href="#DejaVuSans-72" x="556.982422"/>
      <use xlink:href="#DejaVuSans-64" x="596.345703"/>
      <use xlink:href="#DejaVuSans-2f" x="659.822266"/>
      <use xlink:href="#DejaVuSans-6f" x="693.513672"/>
      <use xlink:href="#DejaVuSans-32" x="754.695312"/>
      <use xlink:href="#DejaVuSans-77" x="818.318359"/>
      <use xlink:href="#DejaVuSans-62" x="900.105469"/>
      <use xlink:href="#DejaVuSans-35" x="963.582031"/>
      <use xlink:href="#DejaVuSans-78" x="1027.205078"/>
      <use xlink:href="#DejaVuSans-30" x="1086.384766"/>
      <use xlink:href="#DejaVuSans-20" x="1150.007812"/>
      <use xlink:href="#DejaVuSans-76" x="1181.794922"/>
      <use xlink:href="#DejaVuSans-27" x="1240.974609"/>
      <use xlink:href="#DejaVuSans-3d" x="1268.464844"/>
      <use xlink:href="#DejaVuSans-35" x="1352.253906"/>
     </g>
    </g>
    <g id="line2d_32">
     <path d="M 265.952708 206.429877 
L 274.282708 206.429877 
L 282.612708 206.429877 
" style="fill: none; stroke: #ff7f0e; stroke-width: 1.5; stroke-linecap: square"/>
    </g>
    <g id="text_28">
     <!-- PyDia. -->
     <g transform="translate(289.276708 209.345377) scale(0.0833 -0.0833)">
      <use xlink:href="#DejaVuSans-50"/>
      <use xlink:href="#DejaVuSans-79" x="60.302734"/>
      <use xlink:href="#DejaVuSans-44" x="119.482422"/>
      <use xlink:href="#DejaVuSans-69" x="196.484375"/>
      <use xlink:href="#DejaVuSans-61" x="224.267578"/>
      <use xlink:href="#DejaVuSans-2e" x="285.546875"/>
     </g>
    </g>
   </g>
  </g>
 </g>
 <defs>
  <clipPath id="pd611c09493">
   <rect x="57.6" y="41.472" width="357.12" height="120.96"/>
  </clipPath>
  <clipPath id="pa150817f13">
   <rect x="57.6" y="186.624" width="357.12" height="120.96"/>
  </clipPath>
 </defs>
</svg>
