<?xml version="1.0" encoding="utf-8" standalone="no"?>
<!DOCTYPE svg PUBLIC "-//W3C//DTD SVG 1.1//EN"
  "http://www.w3.org/Graphics/SVG/1.1/DTD/svg11.dtd">
<svg xmlns:xlink="http://www.w3.org/1999/xlink" width="460.8pt" height="345.6pt" viewBox="0 0 460.8 345.6" xmlns="http://www.w3.org/2000/svg" version="1.1">
 <metadata>
  <rdf:RDF xmlns:dc="http://purl.org/dc/elements/1.1/" xmlns:cc="http://creativecommons.org/ns#" xmlns:rdf="http://www.w3.org/1999/02/22-rdf-syntax-ns#">
   <cc:Work>
    <dc:type rdf:resource="http://purl.org/dc/dcmitype/StillImage"/>
    <dc:date>2022-09-04T11:01:26.391025</dc:date>
    <dc:format>image/svg+xml</dc:format>
    <dc:creator>
     <cc:Agent>
      <dc:title>Matplotlib v3.5.2, https://matplotlib.org/</dc:title>
     </cc:Agent>
    </dc:creator>
   </cc:Work>
  </rdf:RDF>
 </metadata>
 <defs>
  <style type="text/css">*{stroke-linejoin: round; stroke-linecap: butt}</style>
 </defs>
 <g id="figure_1">
  <g id="patch_1">
   <path d="M 0 345.6 
L 460.8 345.6 
L 460.8 0 
L 0 0 
z
" style="fill: #ffffff"/>
  </g>
  <g id="axes_1">
   <g id="patch_2">
    <path d="M 57.6 307.584 
L 414.72 307.584 
L 414.72 41.472 
L 57.6 41.472 
z
" style="fill: #ffffff"/>
   </g>
   <g id="matplotlib.axis_1">
    <g id="xtick_1">
     <g id="line2d_1">
      <defs>
       <path id="mbac3c15295" d="M 0 0 
L 0 3.5 
" style="stroke: #000000; stroke-width: 0.8"/>
      </defs>
      <g>
       <use xlink:href="#mbac3c15295" x="93.312" y="307.584" style="stroke: #000000; stroke-width: 0.8"/>
      </g>
     </g>
     <g id="text_1">
      <!-- −2 -->
      <g transform="translate(85.940906 322.182437)scale(0.1 -0.1)">
       <defs>
        <path id="DejaVuSans-2212" d="M 678 2272 
L 4684 2272 
L 4684 1741 
L 678 1741 
L 678 2272 
z
" transform="scale(0.015625)"/>
        <path id="DejaVuSans-32" d="M 1228 531 
L 3431 531 
L 3431 0 
L 469 0 
L 469 531 
Q 828 903 1448 1529 
Q 2069 2156 2228 2338 
Q 2531 2678 2651 2914 
Q 2772 3150 2772 3378 
Q 2772 3750 2511 3984 
Q 2250 4219 1831 4219 
Q 1534 4219 1204 4116 
Q 875 4013 500 3803 
L 500 4441 
Q 881 4594 1212 4672 
Q 1544 4750 1819 4750 
Q 2544 4750 2975 4387 
Q 3406 4025 3406 3419 
Q 3406 3131 3298 2873 
Q 3191 2616 2906 2266 
Q 2828 2175 2409 1742 
Q 1991 1309 1228 531 
z
" transform="scale(0.015625)"/>
       </defs>
       <use xlink:href="#DejaVuSans-2212"/>
       <use xlink:href="#DejaVuSans-32" x="83.789062"/>
      </g>
     </g>
    </g>
    <g id="xtick_2">
     <g id="line2d_2">
      <g>
       <use xlink:href="#mbac3c15295" x="164.736" y="307.584" style="stroke: #000000; stroke-width: 0.8"/>
      </g>
     </g>
     <g id="text_2">
      <!-- −1 -->
      <g transform="translate(157.364906 322.182437)scale(0.1 -0.1)">
       <defs>
        <path id="DejaVuSans-31" d="M 794 531 
L 1825 531 
L 1825 4091 
L 703 3866 
L 703 4441 
L 1819 4666 
L 2450 4666 
L 2450 531 
L 3481 531 
L 3481 0 
L 794 0 
L 794 531 
z
" transform="scale(0.015625)"/>
       </defs>
       <use xlink:href="#DejaVuSans-2212"/>
       <use xlink:href="#DejaVuSans-31" x="83.789062"/>
      </g>
     </g>
    </g>
    <g id="xtick_3">
     <g id="line2d_3">
      <g>
       <use xlink:href="#mbac3c15295" x="236.16" y="307.584" style="stroke: #000000; stroke-width: 0.8"/>
      </g>
     </g>
     <g id="text_3">
      <!-- 0 -->
      <g transform="translate(232.97875 322.182437)scale(0.1 -0.1)">
       <defs>
        <path id="DejaVuSans-30" d="M 2034 4250 
Q 1547 4250 1301 3770 
Q 1056 3291 1056 2328 
Q 1056 1369 1301 889 
Q 1547 409 2034 409 
Q 2525 409 2770 889 
Q 3016 1369 3016 2328 
Q 3016 3291 2770 3770 
Q 2525 4250 2034 4250 
z
M 2034 4750 
Q 2819 4750 3233 4129 
Q 3647 3509 3647 2328 
Q 3647 1150 3233 529 
Q 2819 -91 2034 -91 
Q 1250 -91 836 529 
Q 422 1150 422 2328 
Q 422 3509 836 4129 
Q 1250 4750 2034 4750 
z
" transform="scale(0.015625)"/>
       </defs>
       <use xlink:href="#DejaVuSans-30"/>
      </g>
     </g>
    </g>
    <g id="xtick_4">
     <g id="line2d_4">
      <g>
       <use xlink:href="#mbac3c15295" x="307.584" y="307.584" style="stroke: #000000; stroke-width: 0.8"/>
      </g>
     </g>
     <g id="text_4">
      <!-- 1 -->
      <g transform="translate(304.40275 322.182437)scale(0.1 -0.1)">
       <use xlink:href="#DejaVuSans-31"/>
      </g>
     </g>
    </g>
    <g id="xtick_5">
     <g id="line2d_5">
      <g>
       <use xlink:href="#mbac3c15295" x="379.008" y="307.584" style="stroke: #000000; stroke-width: 0.8"/>
      </g>
     </g>
     <g id="text_5">
      <!-- 2 -->
      <g transform="translate(375.82675 322.182437)scale(0.1 -0.1)">
       <use xlink:href="#DejaVuSans-32"/>
      </g>
     </g>
    </g>
    <g id="text_6">
     <!-- $x$ -->
     <g transform="translate(233.16 335.860562)scale(0.1 -0.1)">
      <defs>
       <path id="DejaVuSans-Oblique-78" d="M 3841 3500 
L 2234 1784 
L 3219 0 
L 2559 0 
L 1819 1388 
L 531 0 
L -166 0 
L 1556 1844 
L 641 3500 
L 1300 3500 
L 1972 2234 
L 3144 3500 
L 3841 3500 
z
" transform="scale(0.015625)"/>
      </defs>
      <use xlink:href="#DejaVuSans-Oblique-78" transform="translate(0 0.3125)"/>
     </g>
    </g>
   </g>
   <g id="matplotlib.axis_2">
    <g id="ytick_1">
     <g id="line2d_6">
      <defs>
       <path id="mcbe88f4090" d="M 0 0 
L -3.5 0 
" style="stroke: #000000; stroke-width: 0.8"/>
      </defs>
      <g>
       <use xlink:href="#mcbe88f4090" x="57.6" y="307.584" style="stroke: #000000; stroke-width: 0.8"/>
      </g>
     </g>
     <g id="text_7">
      <!-- −250 -->
      <g transform="translate(23.132812 311.383219)scale(0.1 -0.1)">
       <defs>
        <path id="DejaVuSans-35" d="M 691 4666 
L 3169 4666 
L 3169 4134 
L 1269 4134 
L 1269 2991 
Q 1406 3038 1543 3061 
Q 1681 3084 1819 3084 
Q 2600 3084 3056 2656 
Q 3513 2228 3513 1497 
Q 3513 744 3044 326 
Q 2575 -91 1722 -91 
Q 1428 -91 1123 -41 
Q 819 9 494 109 
L 494 744 
Q 775 591 1075 516 
Q 1375 441 1709 441 
Q 2250 441 2565 725 
Q 2881 1009 2881 1497 
Q 2881 1984 2565 2268 
Q 2250 2553 1709 2553 
Q 1456 2553 1204 2497 
Q 953 2441 691 2322 
L 691 4666 
z
" transform="scale(0.015625)"/>
       </defs>
       <use xlink:href="#DejaVuSans-2212"/>
       <use xlink:href="#DejaVuSans-32" x="83.789062"/>
       <use xlink:href="#DejaVuSans-35" x="147.412109"/>
       <use xlink:href="#DejaVuSans-30" x="211.035156"/>
      </g>
     </g>
    </g>
    <g id="ytick_2">
     <g id="line2d_7">
      <g>
       <use xlink:href="#mcbe88f4090" x="57.6" y="278.016" style="stroke: #000000; stroke-width: 0.8"/>
      </g>
     </g>
     <g id="text_8">
      <!-- 0 -->
      <g transform="translate(44.2375 281.815219)scale(0.1 -0.1)">
       <use xlink:href="#DejaVuSans-30"/>
      </g>
     </g>
    </g>
    <g id="ytick_3">
     <g id="line2d_8">
      <g>
       <use xlink:href="#mcbe88f4090" x="57.6" y="248.448" style="stroke: #000000; stroke-width: 0.8"/>
      </g>
     </g>
     <g id="text_9">
      <!-- 250 -->
      <g transform="translate(31.5125 252.247219)scale(0.1 -0.1)">
       <use xlink:href="#DejaVuSans-32"/>
       <use xlink:href="#DejaVuSans-35" x="63.623047"/>
       <use xlink:href="#DejaVuSans-30" x="127.246094"/>
      </g>
     </g>
    </g>
    <g id="ytick_4">
     <g id="line2d_9">
      <g>
       <use xlink:href="#mcbe88f4090" x="57.6" y="218.88" style="stroke: #000000; stroke-width: 0.8"/>
      </g>
     </g>
     <g id="text_10">
      <!-- 500 -->
      <g transform="translate(31.5125 222.679219)scale(0.1 -0.1)">
       <use xlink:href="#DejaVuSans-35"/>
       <use xlink:href="#DejaVuSans-30" x="63.623047"/>
       <use xlink:href="#DejaVuSans-30" x="127.246094"/>
      </g>
     </g>
    </g>
    <g id="ytick_5">
     <g id="line2d_10">
      <g>
       <use xlink:href="#mcbe88f4090" x="57.6" y="189.312" style="stroke: #000000; stroke-width: 0.8"/>
      </g>
     </g>
     <g id="text_11">
      <!-- 750 -->
      <g transform="translate(31.5125 193.111219)scale(0.1 -0.1)">
       <defs>
        <path id="DejaVuSans-37" d="M 525 4666 
L 3525 4666 
L 3525 4397 
L 1831 0 
L 1172 0 
L 2766 4134 
L 525 4134 
L 525 4666 
z
" transform="scale(0.015625)"/>
       </defs>
       <use xlink:href="#DejaVuSans-37"/>
       <use xlink:href="#DejaVuSans-35" x="63.623047"/>
       <use xlink:href="#DejaVuSans-30" x="127.246094"/>
      </g>
     </g>
    </g>
    <g id="ytick_6">
     <g id="line2d_11">
      <g>
       <use xlink:href="#mcbe88f4090" x="57.6" y="159.744" style="stroke: #000000; stroke-width: 0.8"/>
      </g>
     </g>
     <g id="text_12">
      <!-- 1000 -->
      <g transform="translate(25.15 163.543219)scale(0.1 -0.1)">
       <use xlink:href="#DejaVuSans-31"/>
       <use xlink:href="#DejaVuSans-30" x="63.623047"/>
       <use xlink:href="#DejaVuSans-30" x="127.246094"/>
       <use xlink:href="#DejaVuSans-30" x="190.869141"/>
      </g>
     </g>
    </g>
    <g id="ytick_7">
     <g id="line2d_12">
      <g>
       <use xlink:href="#mcbe88f4090" x="57.6" y="130.176" style="stroke: #000000; stroke-width: 0.8"/>
      </g>
     </g>
     <g id="text_13">
      <!-- 1250 -->
      <g transform="translate(25.15 133.975219)scale(0.1 -0.1)">
       <use xlink:href="#DejaVuSans-31"/>
       <use xlink:href="#DejaVuSans-32" x="63.623047"/>
       <use xlink:href="#DejaVuSans-35" x="127.246094"/>
       <use xlink:href="#DejaVuSans-30" x="190.869141"/>
      </g>
     </g>
    </g>
    <g id="ytick_8">
     <g id="line2d_13">
      <g>
       <use xlink:href="#mcbe88f4090" x="57.6" y="100.608" style="stroke: #000000; stroke-width: 0.8"/>
      </g>
     </g>
     <g id="text_14">
      <!-- 1500 -->
      <g transform="translate(25.15 104.407219)scale(0.1 -0.1)">
       <use xlink:href="#DejaVuSans-31"/>
       <use xlink:href="#DejaVuSans-35" x="63.623047"/>
       <use xlink:href="#DejaVuSans-30" x="127.246094"/>
       <use xlink:href="#DejaVuSans-30" x="190.869141"/>
      </g>
     </g>
    </g>
    <g id="ytick_9">
     <g id="line2d_14">
      <g>
       <use xlink:href="#mcbe88f4090" x="57.6" y="71.04" style="stroke: #000000; stroke-width: 0.8"/>
      </g>
     </g>
     <g id="text_15">
      <!-- 1750 -->
      <g transform="translate(25.15 74.839219)scale(0.1 -0.1)">
       <use xlink:href="#DejaVuSans-31"/>
       <use xlink:href="#DejaVuSans-37" x="63.623047"/>
       <use xlink:href="#DejaVuSans-35" x="127.246094"/>
       <use xlink:href="#DejaVuSans-30" x="190.869141"/>
      </g>
     </g>
    </g>
    <g id="ytick_10">
     <g id="line2d_15">
      <g>
       <use xlink:href="#mcbe88f4090" x="57.6" y="41.472" style="stroke: #000000; stroke-width: 0.8"/>
      </g>
     </g>
     <g id="text_16">
      <!-- 2000 -->
      <g transform="translate(25.15 45.271219)scale(0.1 -0.1)">
       <use xlink:href="#DejaVuSans-32"/>
       <use xlink:href="#DejaVuSans-30" x="63.623047"/>
       <use xlink:href="#DejaVuSans-30" x="127.246094"/>
       <use xlink:href="#DejaVuSans-30" x="190.869141"/>
      </g>
     </g>
    </g>
    <g id="text_17">
     <!-- potential energy (cm$^{-1}$) / wavefunction $\times 400$ -->
     <g transform="translate(17.032812 288.128)rotate(-90)scale(0.1 -0.1)">
      <defs>
       <path id="DejaVuSans-70" d="M 1159 525 
L 1159 -1331 
L 581 -1331 
L 581 3500 
L 1159 3500 
L 1159 2969 
Q 1341 3281 1617 3432 
Q 1894 3584 2278 3584 
Q 2916 3584 3314 3078 
Q 3713 2572 3713 1747 
Q 3713 922 3314 415 
Q 2916 -91 2278 -91 
Q 1894 -91 1617 61 
Q 1341 213 1159 525 
z
M 3116 1747 
Q 3116 2381 2855 2742 
Q 2594 3103 2138 3103 
Q 1681 3103 1420 2742 
Q 1159 2381 1159 1747 
Q 1159 1113 1420 752 
Q 1681 391 2138 391 
Q 2594 391 2855 752 
Q 3116 1113 3116 1747 
z
" transform="scale(0.015625)"/>
       <path id="DejaVuSans-6f" d="M 1959 3097 
Q 1497 3097 1228 2736 
Q 959 2375 959 1747 
Q 959 1119 1226 758 
Q 1494 397 1959 397 
Q 2419 397 2687 759 
Q 2956 1122 2956 1747 
Q 2956 2369 2687 2733 
Q 2419 3097 1959 3097 
z
M 1959 3584 
Q 2709 3584 3137 3096 
Q 3566 2609 3566 1747 
Q 3566 888 3137 398 
Q 2709 -91 1959 -91 
Q 1206 -91 779 398 
Q 353 888 353 1747 
Q 353 2609 779 3096 
Q 1206 3584 1959 3584 
z
" transform="scale(0.015625)"/>
       <path id="DejaVuSans-74" d="M 1172 4494 
L 1172 3500 
L 2356 3500 
L 2356 3053 
L 1172 3053 
L 1172 1153 
Q 1172 725 1289 603 
Q 1406 481 1766 481 
L 2356 481 
L 2356 0 
L 1766 0 
Q 1100 0 847 248 
Q 594 497 594 1153 
L 594 3053 
L 172 3053 
L 172 3500 
L 594 3500 
L 594 4494 
L 1172 4494 
z
" transform="scale(0.015625)"/>
       <path id="DejaVuSans-65" d="M 3597 1894 
L 3597 1613 
L 953 1613 
Q 991 1019 1311 708 
Q 1631 397 2203 397 
Q 2534 397 2845 478 
Q 3156 559 3463 722 
L 3463 178 
Q 3153 47 2828 -22 
Q 2503 -91 2169 -91 
Q 1331 -91 842 396 
Q 353 884 353 1716 
Q 353 2575 817 3079 
Q 1281 3584 2069 3584 
Q 2775 3584 3186 3129 
Q 3597 2675 3597 1894 
z
M 3022 2063 
Q 3016 2534 2758 2815 
Q 2500 3097 2075 3097 
Q 1594 3097 1305 2825 
Q 1016 2553 972 2059 
L 3022 2063 
z
" transform="scale(0.015625)"/>
       <path id="DejaVuSans-6e" d="M 3513 2113 
L 3513 0 
L 2938 0 
L 2938 2094 
Q 2938 2591 2744 2837 
Q 2550 3084 2163 3084 
Q 1697 3084 1428 2787 
Q 1159 2491 1159 1978 
L 1159 0 
L 581 0 
L 581 3500 
L 1159 3500 
L 1159 2956 
Q 1366 3272 1645 3428 
Q 1925 3584 2291 3584 
Q 2894 3584 3203 3211 
Q 3513 2838 3513 2113 
z
" transform="scale(0.015625)"/>
       <path id="DejaVuSans-69" d="M 603 3500 
L 1178 3500 
L 1178 0 
L 603 0 
L 603 3500 
z
M 603 4863 
L 1178 4863 
L 1178 4134 
L 603 4134 
L 603 4863 
z
" transform="scale(0.015625)"/>
       <path id="DejaVuSans-61" d="M 2194 1759 
Q 1497 1759 1228 1600 
Q 959 1441 959 1056 
Q 959 750 1161 570 
Q 1363 391 1709 391 
Q 2188 391 2477 730 
Q 2766 1069 2766 1631 
L 2766 1759 
L 2194 1759 
z
M 3341 1997 
L 3341 0 
L 2766 0 
L 2766 531 
Q 2569 213 2275 61 
Q 1981 -91 1556 -91 
Q 1019 -91 701 211 
Q 384 513 384 1019 
Q 384 1609 779 1909 
Q 1175 2209 1959 2209 
L 2766 2209 
L 2766 2266 
Q 2766 2663 2505 2880 
Q 2244 3097 1772 3097 
Q 1472 3097 1187 3025 
Q 903 2953 641 2809 
L 641 3341 
Q 956 3463 1253 3523 
Q 1550 3584 1831 3584 
Q 2591 3584 2966 3190 
Q 3341 2797 3341 1997 
z
" transform="scale(0.015625)"/>
       <path id="DejaVuSans-6c" d="M 603 4863 
L 1178 4863 
L 1178 0 
L 603 0 
L 603 4863 
z
" transform="scale(0.015625)"/>
       <path id="DejaVuSans-20" transform="scale(0.015625)"/>
       <path id="DejaVuSans-72" d="M 2631 2963 
Q 2534 3019 2420 3045 
Q 2306 3072 2169 3072 
Q 1681 3072 1420 2755 
Q 1159 2438 1159 1844 
L 1159 0 
L 581 0 
L 581 3500 
L 1159 3500 
L 1159 2956 
Q 1341 3275 1631 3429 
Q 1922 3584 2338 3584 
Q 2397 3584 2469 3576 
Q 2541 3569 2628 3553 
L 2631 2963 
z
" transform="scale(0.015625)"/>
       <path id="DejaVuSans-67" d="M 2906 1791 
Q 2906 2416 2648 2759 
Q 2391 3103 1925 3103 
Q 1463 3103 1205 2759 
Q 947 2416 947 1791 
Q 947 1169 1205 825 
Q 1463 481 1925 481 
Q 2391 481 2648 825 
Q 2906 1169 2906 1791 
z
M 3481 434 
Q 3481 -459 3084 -895 
Q 2688 -1331 1869 -1331 
Q 1566 -1331 1297 -1286 
Q 1028 -1241 775 -1147 
L 775 -588 
Q 1028 -725 1275 -790 
Q 1522 -856 1778 -856 
Q 2344 -856 2625 -561 
Q 2906 -266 2906 331 
L 2906 616 
Q 2728 306 2450 153 
Q 2172 0 1784 0 
Q 1141 0 747 490 
Q 353 981 353 1791 
Q 353 2603 747 3093 
Q 1141 3584 1784 3584 
Q 2172 3584 2450 3431 
Q 2728 3278 2906 2969 
L 2906 3500 
L 3481 3500 
L 3481 434 
z
" transform="scale(0.015625)"/>
       <path id="DejaVuSans-79" d="M 2059 -325 
Q 1816 -950 1584 -1140 
Q 1353 -1331 966 -1331 
L 506 -1331 
L 506 -850 
L 844 -850 
Q 1081 -850 1212 -737 
Q 1344 -625 1503 -206 
L 1606 56 
L 191 3500 
L 800 3500 
L 1894 763 
L 2988 3500 
L 3597 3500 
L 2059 -325 
z
" transform="scale(0.015625)"/>
       <path id="DejaVuSans-28" d="M 1984 4856 
Q 1566 4138 1362 3434 
Q 1159 2731 1159 2009 
Q 1159 1288 1364 580 
Q 1569 -128 1984 -844 
L 1484 -844 
Q 1016 -109 783 600 
Q 550 1309 550 2009 
Q 550 2706 781 3412 
Q 1013 4119 1484 4856 
L 1984 4856 
z
" transform="scale(0.015625)"/>
       <path id="DejaVuSans-63" d="M 3122 3366 
L 3122 2828 
Q 2878 2963 2633 3030 
Q 2388 3097 2138 3097 
Q 1578 3097 1268 2742 
Q 959 2388 959 1747 
Q 959 1106 1268 751 
Q 1578 397 2138 397 
Q 2388 397 2633 464 
Q 2878 531 3122 666 
L 3122 134 
Q 2881 22 2623 -34 
Q 2366 -91 2075 -91 
Q 1284 -91 818 406 
Q 353 903 353 1747 
Q 353 2603 823 3093 
Q 1294 3584 2113 3584 
Q 2378 3584 2631 3529 
Q 2884 3475 3122 3366 
z
" transform="scale(0.015625)"/>
       <path id="DejaVuSans-6d" d="M 3328 2828 
Q 3544 3216 3844 3400 
Q 4144 3584 4550 3584 
Q 5097 3584 5394 3201 
Q 5691 2819 5691 2113 
L 5691 0 
L 5113 0 
L 5113 2094 
Q 5113 2597 4934 2840 
Q 4756 3084 4391 3084 
Q 3944 3084 3684 2787 
Q 3425 2491 3425 1978 
L 3425 0 
L 2847 0 
L 2847 2094 
Q 2847 2600 2669 2842 
Q 2491 3084 2119 3084 
Q 1678 3084 1418 2786 
Q 1159 2488 1159 1978 
L 1159 0 
L 581 0 
L 581 3500 
L 1159 3500 
L 1159 2956 
Q 1356 3278 1631 3431 
Q 1906 3584 2284 3584 
Q 2666 3584 2933 3390 
Q 3200 3197 3328 2828 
z
" transform="scale(0.015625)"/>
       <path id="DejaVuSans-29" d="M 513 4856 
L 1013 4856 
Q 1481 4119 1714 3412 
Q 1947 2706 1947 2009 
Q 1947 1309 1714 600 
Q 1481 -109 1013 -844 
L 513 -844 
Q 928 -128 1133 580 
Q 1338 1288 1338 2009 
Q 1338 2731 1133 3434 
Q 928 4138 513 4856 
z
" transform="scale(0.015625)"/>
       <path id="DejaVuSans-2f" d="M 1625 4666 
L 2156 4666 
L 531 -594 
L 0 -594 
L 1625 4666 
z
" transform="scale(0.015625)"/>
       <path id="DejaVuSans-77" d="M 269 3500 
L 844 3500 
L 1563 769 
L 2278 3500 
L 2956 3500 
L 3675 769 
L 4391 3500 
L 4966 3500 
L 4050 0 
L 3372 0 
L 2619 2869 
L 1863 0 
L 1184 0 
L 269 3500 
z
" transform="scale(0.015625)"/>
       <path id="DejaVuSans-76" d="M 191 3500 
L 800 3500 
L 1894 563 
L 2988 3500 
L 3597 3500 
L 2284 0 
L 1503 0 
L 191 3500 
z
" transform="scale(0.015625)"/>
       <path id="DejaVuSans-66" d="M 2375 4863 
L 2375 4384 
L 1825 4384 
Q 1516 4384 1395 4259 
Q 1275 4134 1275 3809 
L 1275 3500 
L 2222 3500 
L 2222 3053 
L 1275 3053 
L 1275 0 
L 697 0 
L 697 3053 
L 147 3053 
L 147 3500 
L 697 3500 
L 697 3744 
Q 697 4328 969 4595 
Q 1241 4863 1831 4863 
L 2375 4863 
z
" transform="scale(0.015625)"/>
       <path id="DejaVuSans-75" d="M 544 1381 
L 544 3500 
L 1119 3500 
L 1119 1403 
Q 1119 906 1312 657 
Q 1506 409 1894 409 
Q 2359 409 2629 706 
Q 2900 1003 2900 1516 
L 2900 3500 
L 3475 3500 
L 3475 0 
L 2900 0 
L 2900 538 
Q 2691 219 2414 64 
Q 2138 -91 1772 -91 
Q 1169 -91 856 284 
Q 544 659 544 1381 
z
M 1991 3584 
L 1991 3584 
z
" transform="scale(0.015625)"/>
       <path id="DejaVuSans-d7" d="M 4488 3438 
L 3059 2003 
L 4488 575 
L 4116 197 
L 2681 1631 
L 1247 197 
L 878 575 
L 2303 2003 
L 878 3438 
L 1247 3816 
L 2681 2381 
L 4116 3816 
L 4488 3438 
z
" transform="scale(0.015625)"/>
       <path id="DejaVuSans-34" d="M 2419 4116 
L 825 1625 
L 2419 1625 
L 2419 4116 
z
M 2253 4666 
L 3047 4666 
L 3047 1625 
L 3713 1625 
L 3713 1100 
L 3047 1100 
L 3047 0 
L 2419 0 
L 2419 1100 
L 313 1100 
L 313 1709 
L 2253 4666 
z
" transform="scale(0.015625)"/>
      </defs>
      <use xlink:href="#DejaVuSans-70" transform="translate(0 0.684375)"/>
      <use xlink:href="#DejaVuSans-6f" transform="translate(63.476562 0.684375)"/>
      <use xlink:href="#DejaVuSans-74" transform="translate(124.658203 0.684375)"/>
      <use xlink:href="#DejaVuSans-65" transform="translate(163.867188 0.684375)"/>
      <use xlink:href="#DejaVuSans-6e" transform="translate(225.390625 0.684375)"/>
      <use xlink:href="#DejaVuSans-74" transform="translate(288.769531 0.684375)"/>
      <use xlink:href="#DejaVuSans-69" transform="translate(327.978516 0.684375)"/>
      <use xlink:href="#DejaVuSans-61" transform="translate(355.761719 0.684375)"/>
      <use xlink:href="#DejaVuSans-6c" transform="translate(417.041016 0.684375)"/>
      <use xlink:href="#DejaVuSans-20" transform="translate(444.824219 0.684375)"/>
      <use xlink:href="#DejaVuSans-65" transform="translate(476.611328 0.684375)"/>
      <use xlink:href="#DejaVuSans-6e" transform="translate(538.134766 0.684375)"/>
      <use xlink:href="#DejaVuSans-65" transform="translate(601.513672 0.684375)"/>
      <use xlink:href="#DejaVuSans-72" transform="translate(663.037109 0.684375)"/>
      <use xlink:href="#DejaVuSans-67" transform="translate(704.150391 0.684375)"/>
      <use xlink:href="#DejaVuSans-79" transform="translate(767.626953 0.684375)"/>
      <use xlink:href="#DejaVuSans-20" transform="translate(826.806641 0.684375)"/>
      <use xlink:href="#DejaVuSans-28" transform="translate(858.59375 0.684375)"/>
      <use xlink:href="#DejaVuSans-63" transform="translate(897.607422 0.684375)"/>
      <use xlink:href="#DejaVuSans-6d" transform="translate(952.587891 0.684375)"/>
      <use xlink:href="#DejaVuSans-2212" transform="translate(1050.957031 38.965625)scale(0.7)"/>
      <use xlink:href="#DejaVuSans-31" transform="translate(1109.609375 38.965625)scale(0.7)"/>
      <use xlink:href="#DejaVuSans-29" transform="translate(1156.879883 0.684375)"/>
      <use xlink:href="#DejaVuSans-20" transform="translate(1195.893555 0.684375)"/>
      <use xlink:href="#DejaVuSans-2f" transform="translate(1227.680664 0.684375)"/>
      <use xlink:href="#DejaVuSans-20" transform="translate(1261.37207 0.684375)"/>
      <use xlink:href="#DejaVuSans-77" transform="translate(1293.15918 0.684375)"/>
      <use xlink:href="#DejaVuSans-61" transform="translate(1374.946289 0.684375)"/>
      <use xlink:href="#DejaVuSans-76" transform="translate(1436.225586 0.684375)"/>
      <use xlink:href="#DejaVuSans-65" transform="translate(1495.405273 0.684375)"/>
      <use xlink:href="#DejaVuSans-66" transform="translate(1556.928711 0.684375)"/>
      <use xlink:href="#DejaVuSans-75" transform="translate(1592.133789 0.684375)"/>
      <use xlink:href="#DejaVuSans-6e" transform="translate(1655.512695 0.684375)"/>
      <use xlink:href="#DejaVuSans-63" transform="translate(1718.891602 0.684375)"/>
      <use xlink:href="#DejaVuSans-74" transform="translate(1773.87207 0.684375)"/>
      <use xlink:href="#DejaVuSans-69" transform="translate(1813.081055 0.684375)"/>
      <use xlink:href="#DejaVuSans-6f" transform="translate(1840.864258 0.684375)"/>
      <use xlink:href="#DejaVuSans-6e" transform="translate(1902.045898 0.684375)"/>
      <use xlink:href="#DejaVuSans-20" transform="translate(1965.424805 0.684375)"/>
      <use xlink:href="#DejaVuSans-d7" transform="translate(1997.211914 0.684375)"/>
      <use xlink:href="#DejaVuSans-34" transform="translate(2081.000977 0.684375)"/>
      <use xlink:href="#DejaVuSans-30" transform="translate(2144.624023 0.684375)"/>
      <use xlink:href="#DejaVuSans-30" transform="translate(2208.24707 0.684375)"/>
     </g>
    </g>
   </g>
   <g id="line2d_16">
    <path d="M 93.312 268.264266 
L 154.73664 268.155197 
L 162.736128 267.906597 
L 168.021504 267.531394 
L 172.164096 267.02561 
L 175.735296 266.367712 
L 178.877952 265.560354 
L 181.734912 264.592456 
L 184.306176 263.492629 
L 186.734592 262.223701 
L 189.163008 260.703311 
L 191.591424 258.906662 
L 193.876992 256.944952 
L 196.305408 254.559397 
L 198.733824 251.857665 
L 201.305088 248.657493 
L 204.0192 244.923247 
L 207.161856 240.2019 
L 211.1616 233.745691 
L 219.875328 219.529335 
L 222.58944 215.592174 
L 224.875008 212.64372 
L 226.87488 210.406121 
L 228.731904 208.65855 
L 230.44608 207.357125 
L 232.017408 206.445949 
L 233.445888 205.862688 
L 234.874368 205.519915 
L 236.302848 205.421634 
L 237.731328 205.568997 
L 239.159808 205.960279 
L 240.588288 206.59091 
L 242.159616 207.552234 
L 243.730944 208.780869 
L 245.44512 210.406121 
L 247.302144 212.472614 
L 249.444864 215.203281 
L 251.87328 218.6675 
L 255.015936 223.573564 
L 260.44416 232.560865 
L 265.300992 240.424464 
L 268.586496 245.33243 
L 271.443456 249.21446 
L 274.01472 252.357371 
L 276.585984 255.149081 
L 279.0144 257.460775 
L 281.442816 259.465076 
L 283.871232 261.178117 
L 286.299648 262.621829 
L 288.870912 263.885516 
L 291.585024 264.959484 
L 294.441984 265.843928 
L 297.58464 266.576813 
L 301.15584 267.169696 
L 305.298432 267.621769 
L 310.44096 267.947478 
L 317.440512 268.152739 
L 329.439744 268.249296 
L 377.008128 268.264265 
L 379.008 268.264266 
L 379.008 268.264266 
" clip-path="url(#p975e259188)" style="fill: none; stroke: #1f77b4; stroke-width: 1.5; stroke-linecap: square"/>
   </g>
   <g id="line2d_17">
    <path d="M 93.312 268.264265 
L 155.593728 268.155195 
L 163.450368 267.909203 
L 168.735744 267.530466 
L 172.878336 267.016717 
L 176.306688 266.377356 
L 179.306496 265.60492 
L 182.163456 264.636996 
L 184.73472 263.533154 
L 187.163136 262.255736 
L 189.591552 260.721114 
L 191.87712 259.018551 
L 194.162688 257.047157 
L 196.448256 254.794062 
L 198.876672 252.084845 
L 201.447936 248.866069 
L 204.162048 245.099321 
L 207.161856 240.54909 
L 210.875904 234.494019 
L 220.589568 218.438107 
L 223.160832 214.718318 
L 225.4464 211.797055 
L 227.446272 209.605318 
L 229.160448 208.036099 
L 230.731776 206.872229 
L 232.303104 205.988016 
L 233.731584 205.437567 
L 235.160064 205.135274 
L 236.445696 205.078432 
L 237.731328 205.226114 
L 239.159808 205.62827 
L 240.588288 206.276308 
L 242.016768 207.162539 
L 243.588096 208.399978 
L 245.302272 210.043614 
L 247.159296 212.139334 
L 249.302016 214.913938 
L 251.730432 218.438107 
L 254.73024 223.196821 
L 260.015616 232.088837 
L 264.872448 240.097574 
L 268.157952 245.099321 
L 271.014912 249.05409 
L 273.586176 252.253199 
L 276.014592 254.943287 
L 278.443008 257.308782 
L 280.871424 259.357776 
L 283.29984 261.10677 
L 285.728256 262.578418 
L 288.156672 263.799395 
L 290.727936 264.850964 
L 293.584896 265.769786 
L 296.584704 266.500272 
L 300.013056 267.102454 
L 304.0128 267.570998 
L 308.869632 267.909203 
L 315.44064 268.130857 
L 326.15424 268.241712 
L 360.009216 268.264247 
L 379.008 268.264265 
L 379.008 268.264265 
" clip-path="url(#p975e259188)" style="fill: none; stroke-dasharray: 5.55,2.4; stroke-dashoffset: 0; stroke: #000000; stroke-width: 1.5"/>
   </g>
   <g id="line2d_18">
    <path d="M 93.312 248.760797 
L 144.308736 248.651073 
L 151.736832 248.406887 
L 156.736512 248.030536 
L 160.593408 247.528349 
L 163.878912 246.882665 
L 166.735872 246.101386 
L 169.307136 245.177362 
L 171.735552 244.07295 
L 174.02112 242.79409 
L 176.306688 241.252218 
L 178.449408 239.54323 
L 180.592128 237.559915 
L 182.877696 235.127446 
L 185.163264 232.362342 
L 187.59168 229.068768 
L 190.305792 224.990969 
L 193.448448 219.848237 
L 203.447808 203.126944 
L 205.44768 200.376402 
L 207.161856 198.366417 
L 208.733184 196.868218 
L 210.018816 195.924628 
L 211.304448 195.263822 
L 212.447232 194.933948 
L 213.447168 194.857183 
L 214.447104 194.988132 
L 215.44704 195.335061 
L 216.446976 195.904897 
L 217.58976 196.83603 
L 218.732544 198.071031 
L 220.018176 199.826954 
L 221.303808 201.970243 
L 222.732288 204.798936 
L 224.303616 208.436269 
L 226.017792 212.996362 
L 227.874816 218.570325 
L 230.017536 225.704859 
L 232.731648 235.56785 
L 237.445632 253.756296 
L 241.302528 268.273412 
L 243.873792 277.116614 
L 246.016512 283.708704 
L 247.873536 288.728298 
L 249.587712 292.722658 
L 251.15904 295.808491 
L 252.58752 298.118421 
L 253.873152 299.788003 
L 255.015936 300.946662 
L 256.15872 301.8026 
L 257.301504 302.36214 
L 258.30144 302.615576 
L 259.301376 302.656419 
L 260.301312 302.493469 
L 261.444096 302.0705 
L 262.58688 301.410802 
L 263.872512 300.407944 
L 265.300992 299.001776 
L 266.87232 297.145192 
L 268.729344 294.603422 
L 271.014912 291.081973 
L 274.300416 285.55827 
L 281.442816 273.43617 
L 284.299776 269.070246 
L 286.87104 265.528064 
L 289.299456 262.557227 
L 291.585024 260.104013 
L 293.870592 257.978363 
L 296.15616 256.164761 
L 298.441728 254.640175 
L 300.727296 253.376766 
L 303.155712 252.286658 
L 305.726976 251.375431 
L 308.583936 250.605712 
L 311.726592 249.993244 
L 315.44064 249.505762 
L 320.011776 249.146257 
L 326.011392 248.912869 
L 335.582208 248.790426 
L 362.151936 248.760917 
L 379.008 248.760797 
L 379.008 248.760797 
" clip-path="url(#p975e259188)" style="fill: none; stroke: #ff7f0e; stroke-width: 1.5; stroke-linecap: square"/>
   </g>
   <g id="line2d_19">
    <path d="M 93.312 248.760796 
L 145.308672 248.65058 
L 152.59392 248.408567 
L 157.5936 248.027836 
L 161.450496 247.516688 
L 164.736 246.856665 
L 167.59296 246.05552 
L 170.164224 245.105771 
L 172.59264 243.968583 
L 174.878208 242.650013 
L 177.020928 241.166754 
L 179.163648 239.420299 
L 181.306368 237.391224 
L 183.449088 235.06629 
L 185.734656 232.255089 
L 188.163072 228.90275 
L 190.877184 224.749127 
L 194.01984 219.510389 
L 203.733504 202.983504 
L 205.733376 200.175044 
L 207.447552 198.122757 
L 209.01888 196.594208 
L 210.304512 195.63327 
L 211.447296 195.022293 
L 212.59008 194.659203 
L 213.590016 194.557963 
L 214.589952 194.669246 
L 215.589888 195.001777 
L 216.589824 195.562888 
L 217.732608 196.491425 
L 218.875392 197.732072 
L 220.018176 199.28785 
L 221.303808 201.414478 
L 222.732288 204.238374 
L 224.303616 207.887426 
L 226.017792 212.480383 
L 227.874816 218.112375 
L 230.017536 225.339674 
L 232.731648 235.35145 
L 237.302784 253.276585 
L 241.302528 268.587251 
L 243.873792 277.552355 
L 246.016512 284.217229 
L 247.873536 289.275195 
L 249.587712 293.28322 
L 251.016192 296.107115 
L 252.444672 298.445476 
L 253.730304 300.129162 
L 254.873088 301.291377 
L 256.015872 302.142716 
L 257.015808 302.637857 
L 258.015744 302.906363 
L 259.01568 302.955977 
L 260.015616 302.795796 
L 261.1584 302.369109 
L 262.301184 301.69895 
L 263.586816 300.677135 
L 265.015296 299.242243 
L 266.586624 297.346549 
L 268.443648 294.751219 
L 270.729216 291.157724 
L 274.01472 285.529535 
L 280.871424 273.695022 
L 283.728384 269.247594 
L 286.299648 265.641724 
L 288.728064 262.620992 
L 291.013632 260.130369 
L 293.2992 257.976259 
L 295.584768 256.142345 
L 297.870336 254.604494 
L 300.155904 253.333623 
L 302.58432 252.24053 
L 305.155584 251.330152 
L 308.012544 250.564476 
L 311.1552 249.958393 
L 314.869248 249.479098 
L 319.440384 249.128612 
L 325.582848 248.900428 
L 335.43936 248.78584 
L 365.151744 248.760839 
L 379.008 248.760798 
L 379.008 248.760798 
" clip-path="url(#p975e259188)" style="fill: none; stroke-dasharray: 5.55,2.4; stroke-dashoffset: 0; stroke: #000000; stroke-width: 1.5"/>
   </g>
   <g id="line2d_20">
    <path d="M 93.312 229.257328 
L 136.023552 229.146155 
L 143.165952 228.899028 
L 147.879936 228.527209 
L 151.593984 228.021344 
L 154.73664 227.373537 
L 157.450752 226.59472 
L 159.879168 225.679898 
L 162.164736 224.591982 
L 164.307456 223.339395 
L 166.450176 221.831719 
L 168.592896 220.042134 
L 170.735616 217.948595 
L 172.878336 215.536566 
L 175.163904 212.608468 
L 177.59232 209.110072 
L 180.306432 204.781308 
L 183.734784 198.854975 
L 190.020096 187.906395 
L 192.162816 184.639142 
L 193.876992 182.381546 
L 195.44832 180.674514 
L 196.733952 179.586293 
L 197.876736 178.884612 
L 198.876672 178.49629 
L 199.876608 178.335071 
L 200.876544 178.415425 
L 201.87648 178.750327 
L 202.876416 179.350996 
L 203.876352 180.226644 
L 204.876288 181.384245 
L 206.019072 183.058129 
L 207.304704 185.391237 
L 208.590336 188.196828 
L 210.018816 191.853184 
L 211.590144 196.496075 
L 213.447168 202.743775 
L 215.589888 210.812823 
L 218.304 221.965476 
L 224.875008 249.378292 
L 226.87488 256.642267 
L 228.589056 262.072395 
L 230.017536 265.914367 
L 231.303168 268.770788 
L 232.445952 270.790887 
L 233.445888 272.135352 
L 234.302976 272.962202 
L 235.160064 273.481833 
L 235.874304 273.677262 
L 236.588544 273.655532 
L 237.302784 273.416759 
L 238.017024 272.962202 
L 238.874112 272.135352 
L 239.7312 271.007548 
L 240.731136 269.322893 
L 241.87392 266.932598 
L 243.159552 263.689107 
L 244.588032 259.460742 
L 246.302208 253.637388 
L 248.30208 246.023811 
L 251.15904 234.171796 
L 256.87296 210.250734 
L 259.158528 201.733362 
L 261.015552 195.605762 
L 262.729728 190.69811 
L 264.301056 186.892152 
L 265.729536 184.036298 
L 267.015168 181.967881 
L 268.157952 180.528372 
L 269.300736 179.459065 
L 270.300672 178.819628 
L 271.300608 178.447402 
L 272.300544 178.33144 
L 273.30048 178.459003 
L 274.300416 178.815817 
L 275.4432 179.484326 
L 276.585984 180.407116 
L 277.871616 181.71674 
L 279.442944 183.6539 
L 281.299968 186.329779 
L 283.585536 190.038142 
L 287.299584 196.564085 
L 292.156416 205.018683 
L 295.013376 209.541272 
L 297.441792 212.994299 
L 299.72736 215.87684 
L 301.87008 218.245911 
L 304.0128 220.29789 
L 306.15552 222.048482 
L 308.29824 223.520522 
L 310.583808 224.814443 
L 312.869376 225.858224 
L 315.44064 226.778338 
L 318.154752 227.509604 
L 321.297408 228.115224 
L 324.868608 228.571583 
L 329.296896 228.906939 
L 335.296512 229.125497 
L 345.295872 229.235532 
L 377.57952 229.25732 
L 379.008 229.257328 
L 379.008 229.257328 
" clip-path="url(#p975e259188)" style="fill: none; stroke: #2ca02c; stroke-width: 1.5; stroke-linecap: square"/>
   </g>
   <g id="line2d_21">
    <path d="M 93.312 229.257321 
L 137.023488 229.147404 
L 144.02304 228.90613 
L 148.737024 228.534986 
L 152.451072 228.026432 
L 155.593728 227.371811 
L 158.30784 226.581714 
L 160.736256 225.650815 
L 163.021824 224.541079 
L 165.164544 223.260853 
L 167.307264 221.717457 
L 169.449984 219.883168 
L 171.592704 217.735401 
L 173.735424 215.259631 
L 176.020992 212.253943 
L 178.449408 208.664659 
L 181.16352 204.229491 
L 184.73472 197.917612 
L 190.305792 188.040745 
L 192.59136 184.469985 
L 194.305536 182.165157 
L 195.876864 180.423237 
L 197.162496 179.31445 
L 198.30528 178.601806 
L 199.305216 178.210346 
L 200.305152 178.052643 
L 201.305088 178.1437 
L 202.162176 178.429962 
L 203.162112 179.017206 
L 204.162048 179.886428 
L 205.161984 181.045056 
L 206.304768 182.729675 
L 207.447552 184.801306 
L 208.733184 187.591367 
L 210.161664 191.247934 
L 211.732992 195.912633 
L 213.447168 201.701954 
L 215.44704 209.244751 
L 218.018304 219.861789 
L 225.589248 251.760826 
L 227.446272 258.388255 
L 229.0176 263.260132 
L 230.44608 266.99356 
L 231.731712 269.719621 
L 232.874496 271.598712 
L 233.874432 272.801415 
L 234.73152 273.49401 
L 235.44576 273.828378 
L 236.16 273.940034 
L 236.87424 273.828378 
L 237.58848 273.49401 
L 238.445568 272.801415 
L 239.302656 271.796144 
L 240.302592 270.238646 
L 241.445376 267.971739 
L 242.731008 264.838053 
L 244.159488 260.695111 
L 245.730816 255.434651 
L 247.730688 247.876255 
L 250.301952 237.187853 
L 257.301504 207.56599 
L 259.444224 199.696453 
L 261.301248 193.711938 
L 262.872576 189.347825 
L 264.301056 185.981728 
L 265.586688 183.461195 
L 266.87232 181.429995 
L 268.015104 180.034086 
L 269.01504 179.123917 
L 270.014976 178.496936 
L 271.014912 178.1437 
L 272.014848 178.052643 
L 273.014784 178.210346 
L 274.01472 178.601806 
L 275.157504 179.31445 
L 276.443136 180.423237 
L 277.871616 181.99095 
L 279.442944 184.060383 
L 281.299968 186.875079 
L 283.728384 190.974291 
L 289.299456 200.994746 
L 292.727808 206.846523 
L 295.299072 210.823494 
L 297.727488 214.176308 
L 300.013056 216.947013 
L 302.155776 219.20299 
L 304.298496 221.139596 
L 306.441216 222.777074 
L 308.583936 224.141734 
L 310.869504 225.330196 
L 313.29792 226.331937 
L 315.869184 227.147584 
L 318.726144 227.816185 
L 322.011648 228.348816 
L 326.011392 228.756032 
L 331.15392 229.035864 
L 338.582016 229.195915 
L 354.0096 229.254402 
L 379.008 229.257321 
L 379.008 229.257321 
" clip-path="url(#p975e259188)" style="fill: none; stroke-dasharray: 5.55,2.4; stroke-dashoffset: 0; stroke: #000000; stroke-width: 1.5"/>
   </g>
   <g id="line2d_22">
    <path d="M 93.312 209.753859 
L 128.738304 209.643515 
L 135.595008 209.402177 
L 140.166144 209.035898 
L 143.737344 208.541314 
L 146.737152 207.913714 
L 149.451264 207.119096 
L 151.87968 206.175601 
L 154.165248 205.043606 
L 156.307968 203.730714 
L 158.30784 202.256126 
L 160.307712 200.516122 
L 162.307584 198.490989 
L 164.450304 195.990424 
L 166.593024 193.144646 
L 168.878592 189.744311 
L 171.592704 185.278038 
L 175.163904 178.917862 
L 180.163584 170.0286 
L 182.306304 166.665044 
L 184.02048 164.357775 
L 185.44896 162.779666 
L 186.734592 161.682618 
L 187.877376 161.002156 
L 188.877312 160.658988 
L 189.877248 160.571069 
L 190.734336 160.712063 
L 191.591424 161.063185 
L 192.448512 161.633058 
L 193.448448 162.583991 
L 194.448384 163.851364 
L 195.591168 165.694439 
L 196.733952 167.961107 
L 198.019584 171.012799 
L 199.448064 175.007732 
L 201.019392 180.091785 
L 202.876416 186.928482 
L 205.019136 195.713018 
L 208.30464 210.264433 
L 212.161536 227.122861 
L 214.161408 234.896458 
L 215.732736 240.203246 
L 217.161216 244.257663 
L 218.304 246.893977 
L 219.303936 248.715412 
L 220.161024 249.894109 
L 221.018112 250.705043 
L 221.732352 251.092302 
L 222.446592 251.212785 
L 223.160832 251.064155 
L 223.875072 250.645903 
L 224.589312 249.959375 
L 225.4464 248.786085 
L 226.303488 247.240345 
L 227.303424 244.983758 
L 228.446208 241.840836 
L 229.73184 237.647678 
L 231.303168 231.703598 
L 233.160192 223.766421 
L 236.017152 210.434708 
L 239.874048 192.591648 
L 241.731072 185.000787 
L 243.3024 179.449107 
L 244.588032 175.634347 
L 245.730816 172.863254 
L 246.730752 170.953695 
L 247.58784 169.717592 
L 248.444928 168.861816 
L 249.159168 168.443563 
L 249.873408 168.294934 
L 250.587648 168.415417 
L 251.301888 168.802675 
L 252.016128 169.452592 
L 252.873216 170.570862 
L 253.873152 172.325016 
L 254.873088 174.537882 
L 256.015872 177.587529 
L 257.444352 182.098966 
L 259.01568 187.821574 
L 261.015552 195.97958 
L 264.158208 209.886524 
L 268.157952 227.405039 
L 270.300672 235.837184 
L 272.157696 242.274886 
L 273.729024 246.971637 
L 275.157504 250.587904 
L 276.443136 253.286302 
L 277.58592 255.235242 
L 278.728704 256.762217 
L 279.72864 257.757882 
L 280.728576 258.444534 
L 281.585664 258.795655 
L 282.442752 258.93665 
L 283.29984 258.877341 
L 284.299776 258.569513 
L 285.299712 258.022541 
L 286.442496 257.130188 
L 287.728128 255.822804 
L 289.156608 254.046676 
L 290.870784 251.551327 
L 293.013504 248.025934 
L 296.441856 241.891587 
L 301.298688 233.255884 
L 304.0128 228.879807 
L 306.441216 225.376566 
L 308.726784 222.475496 
L 310.869504 220.11289 
L 313.012224 218.087054 
L 315.154944 216.377946 
L 317.297664 214.958089 
L 319.440384 213.795773 
L 321.725952 212.80227 
L 324.154368 211.981553 
L 326.86848 211.296785 
L 330.011136 210.740605 
L 333.725184 210.318663 
L 338.439168 210.019685 
L 345.153024 209.837223 
L 357.723648 209.761143 
L 379.008 209.753859 
L 379.008 209.753859 
" clip-path="url(#p975e259188)" style="fill: none; stroke: #d62728; stroke-width: 1.5; stroke-linecap: square"/>
   </g>
   <g id="line2d_23">
    <path d="M 93.312 209.753823 
L 129.881088 209.643575 
L 136.737792 209.397847 
L 141.308928 209.021811 
L 144.880128 208.511498 
L 147.879936 207.861751 
L 150.4512 207.087157 
L 152.879616 206.121322 
L 155.165184 204.960054 
L 157.307904 203.611 
L 159.307776 202.093988 
L 161.307648 200.302465 
L 163.30752 198.216424 
L 165.45024 195.640535 
L 167.59296 192.710378 
L 169.878528 189.2131 
L 172.59264 184.629603 
L 176.449536 177.603429 
L 180.734976 169.880347 
L 182.877696 166.45453 
L 184.591872 164.106733 
L 186.020352 162.504433 
L 187.305984 161.395233 
L 188.448768 160.713072 
L 189.448704 160.376372 
L 190.305792 160.296701 
L 191.16288 160.421933 
L 192.019968 160.762378 
L 192.877056 161.327099 
L 193.876992 162.27951 
L 194.876928 163.556886 
L 196.019712 165.422262 
L 197.162496 167.723047 
L 198.448128 170.827131 
L 199.876608 174.896882 
L 201.447936 180.081361 
L 203.30496 187.056318 
L 205.44768 196.016209 
L 208.876032 211.485873 
L 212.447232 227.314269 
L 214.447104 235.199914 
L 216.018432 240.566578 
L 217.304064 244.27793 
L 218.446848 246.988307 
L 219.446784 248.862811 
L 220.303872 250.077193 
L 221.16096 250.914029 
L 221.8752 251.315015 
L 222.58944 251.441854 
L 223.30368 251.292086 
L 224.01792 250.865172 
L 224.73216 250.162524 
L 225.589248 248.960279 
L 226.446336 247.375536 
L 227.446272 245.061626 
L 228.589056 241.839288 
L 229.874688 237.54211 
L 231.446016 231.455943 
L 233.445888 222.68575 
L 236.588544 207.678067 
L 239.874048 192.317875 
L 241.731072 184.628269 
L 243.3024 179.025658 
L 244.588032 175.195605 
L 245.730816 172.432595 
L 246.730752 170.54744 
L 247.58784 169.345194 
L 248.444928 168.535032 
L 249.159168 168.163497 
L 249.873408 168.069155 
L 250.587648 168.251081 
L 251.301888 168.706436 
L 252.016128 169.430526 
L 252.873216 170.644908 
L 253.873152 172.519412 
L 255.015936 175.229789 
L 256.301568 178.941141 
L 257.730048 183.786273 
L 259.444224 190.421453 
L 261.729792 200.250539 
L 269.157888 233.017014 
L 271.014912 239.926497 
L 272.729088 245.475498 
L 274.157568 249.41696 
L 275.4432 252.400611 
L 276.728832 254.835969 
L 277.871616 256.53854 
L 278.871552 257.675702 
L 279.871488 258.491527 
L 280.871424 258.996691 
L 281.728512 259.192573 
L 282.5856 259.179989 
L 283.585536 258.916609 
L 284.585472 258.403672 
L 285.728256 257.53821 
L 287.013888 256.247013 
L 288.442368 254.473378 
L 290.156544 251.962916 
L 292.299264 248.397311 
L 295.584768 242.433749 
L 300.584448 233.386961 
L 303.29856 228.940458 
L 305.726976 225.386403 
L 307.869696 222.620761 
L 310.012416 220.210468 
L 312.155136 218.146607 
L 314.297856 216.408482 
L 316.440576 214.967557 
L 318.583296 213.790854 
L 320.868864 212.787889 
L 323.29728 211.962119 
L 326.011392 211.275894 
L 329.154048 210.721317 
L 332.868096 210.30329 
L 337.58208 210.009635 
L 344.295936 209.832685 
L 357.152256 209.7601 
L 379.008 209.753896 
L 379.008 209.753896 
" clip-path="url(#p975e259188)" style="fill: none; stroke-dasharray: 5.55,2.4; stroke-dashoffset: 0; stroke: #000000; stroke-width: 1.5"/>
   </g>
   <g id="line2d_24">
    <path d="M 93.312 190.25039 
L 122.310144 190.138545 
L 129.024 189.892936 
L 133.452288 189.524457 
L 137.023488 189.008347 
L 140.023296 188.346741 
L 142.59456 187.553922 
L 144.880128 186.627183 
L 147.022848 185.529106 
L 149.165568 184.171905 
L 151.16544 182.639993 
L 153.165312 180.825303 
L 155.165184 178.707116 
L 157.165056 176.273022 
L 159.307776 173.313948 
L 161.593344 169.778625 
L 164.307456 165.148844 
L 168.450048 157.561798 
L 172.021248 151.184481 
L 174.163968 147.80969 
L 175.735296 145.709213 
L 177.163776 144.163011 
L 178.30656 143.224572 
L 179.306496 142.651574 
L 180.306432 142.334165 
L 181.16352 142.28189 
L 182.020608 142.445749 
L 182.877696 142.837066 
L 183.734784 143.46575 
L 184.73472 144.510169 
L 185.734656 145.898826 
L 186.87744 147.915027 
L 188.020224 150.390969 
L 189.305856 153.718556 
L 190.734336 158.063588 
L 192.305664 163.571962 
L 194.162688 170.933764 
L 196.591104 181.594586 
L 203.162112 211.102838 
L 204.876288 217.518414 
L 206.304768 222.041802 
L 207.447552 225.015159 
L 208.447488 227.089718 
L 209.304576 228.446436 
L 210.161664 229.393682 
L 210.875904 229.859359 
L 211.447296 230.015385 
L 212.018688 229.976591 
L 212.59008 229.741837 
L 213.30432 229.172723 
L 214.01856 228.299291 
L 214.875648 226.856046 
L 215.875584 224.644077 
L 217.018368 221.456213 
L 218.304 217.099865 
L 219.73248 211.429806 
L 221.589504 203.041472 
L 224.446464 188.90434 
L 227.58912 173.643944 
L 229.303296 166.330022 
L 230.731776 161.134603 
L 231.87456 157.702029 
L 232.874496 155.29452 
L 233.731584 153.707904 
L 234.588672 152.583481 
L 235.302912 152.010221 
L 235.874304 151.793644 
L 236.445696 151.793644 
L 237.017088 152.010221 
L 237.58848 152.442125 
L 238.30272 153.280897 
L 239.159808 154.71544 
L 240.016896 156.599138 
L 241.016832 159.331688 
L 242.159616 163.100464 
L 243.588096 168.652385 
L 245.302272 176.284996 
L 247.873536 188.90434 
L 251.587584 207.032125 
L 253.444608 214.927997 
L 254.873088 220.090272 
L 256.15872 223.911262 
L 257.158656 226.281109 
L 258.158592 228.088441 
L 259.01568 229.172723 
L 259.72992 229.741837 
L 260.44416 230.004633 
L 261.015552 229.994577 
L 261.586944 229.790139 
L 262.301184 229.264932 
L 263.015424 228.446436 
L 263.872512 227.089718 
L 264.872448 225.015159 
L 266.015232 222.041802 
L 267.300864 218.007453 
L 268.872192 212.236278 
L 270.729216 204.502446 
L 273.586176 191.503561 
L 277.728768 172.743068 
L 279.871488 164.107584 
L 281.585664 158.063588 
L 283.156992 153.320987 
L 284.585472 149.729051 
L 285.871104 147.105032 
L 287.013888 145.26105 
L 288.013824 144.020906 
L 289.01376 143.121179 
L 289.870848 142.612321 
L 290.727936 142.336065 
L 291.585024 142.281767 
L 292.442112 142.437484 
L 293.442048 142.867155 
L 294.441984 143.542754 
L 295.584768 144.586058 
L 296.8704 146.062536 
L 298.441728 148.22952 
L 300.298752 151.184481 
L 302.870016 155.723153 
L 310.298112 169.075933 
L 312.869376 173.104084 
L 315.154944 176.273022 
L 317.297664 178.868802 
L 319.297536 180.964783 
L 321.297408 182.758508 
L 323.29728 184.271172 
L 325.44 185.609969 
L 327.58272 186.692071 
L 329.868288 187.604421 
L 332.439552 188.384116 
L 335.296512 189.008347 
L 338.582016 189.491727 
L 342.58176 189.848403 
L 348.009984 190.090555 
L 356.438016 190.217019 
L 378.865152 190.250375 
L 379.008 190.25039 
L 379.008 190.25039 
" clip-path="url(#p975e259188)" style="fill: none; stroke: #9467bd; stroke-width: 1.5; stroke-linecap: square"/>
   </g>
   <g id="line2d_25">
    <path d="M 93.312 190.250233 
L 123.452928 190.140051 
L 130.166784 189.892801 
L 134.595072 189.518414 
L 138.023424 189.017247 
L 140.880384 188.388173 
L 143.451648 187.599236 
L 145.737216 186.673085 
L 147.879936 185.571745 
L 149.879808 184.306173 
L 151.87968 182.780186 
L 153.879552 180.966253 
L 155.879424 178.842138 
L 157.879296 176.394008 
L 160.022016 173.4096 
L 162.307584 169.83468 
L 165.021696 165.141515 
L 169.02144 157.701381 
L 172.735488 150.948748 
L 174.73536 147.734933 
L 176.306688 145.575492 
L 177.735168 143.980893 
L 178.877952 143.009265 
L 179.877888 142.41251 
L 180.877824 142.077288 
L 181.734912 142.015171 
L 182.592 142.174772 
L 183.449088 142.567897 
L 184.306176 143.204877 
L 185.306112 144.267625 
L 186.306048 145.684282 
L 187.448832 147.744548 
L 188.591616 150.277325 
L 189.877248 153.68346 
L 191.305728 158.132203 
L 192.877056 163.771064 
L 194.73408 171.301588 
L 197.162496 182.187062 
L 203.447808 210.908585 
L 205.161984 217.468553 
L 206.590464 222.096589 
L 207.733248 225.138745 
L 208.733184 227.260131 
L 209.590272 228.645748 
L 210.44736 229.610645 
L 211.1616 230.081996 
L 211.732992 230.236473 
L 212.304384 230.19065 
L 212.875776 229.943374 
L 213.590016 229.350951 
L 214.304256 228.44589 
L 215.161344 226.954176 
L 216.16128 224.672215 
L 217.304064 221.388797 
L 218.589696 216.909126 
L 220.018176 211.089217 
L 221.8752 202.500725 
L 225.017856 186.634774 
L 227.731968 173.326281 
L 229.446144 165.926754 
L 230.874624 160.695752 
L 232.017408 157.262181 
L 233.017344 154.875432 
L 233.874432 153.323177 
L 234.588672 152.393709 
L 235.302912 151.804507 
L 235.874304 151.58189 
L 236.445696 151.58189 
L 237.017088 151.804507 
L 237.58848 152.248428 
L 238.30272 153.110428 
L 239.159808 154.584358 
L 240.016896 156.519108 
L 241.016832 159.324333 
L 242.159616 163.190527 
L 243.588096 168.879589 
L 245.302272 176.686976 
L 248.016384 190.283957 
L 251.444736 207.245521 
L 253.158912 214.678483 
L 254.587392 219.983367 
L 255.873024 223.916962 
L 256.87296 226.360659 
L 257.872896 228.227742 
L 258.729984 229.350951 
L 259.444224 229.943374 
L 260.158464 230.220965 
L 260.729856 230.216564 
L 261.301248 230.012313 
L 262.015488 229.479763 
L 262.729728 228.645748 
L 263.586816 227.260131 
L 264.586752 225.138745 
L 265.729536 222.096589 
L 267.015168 217.96883 
L 268.586496 212.067059 
L 270.44352 204.167462 
L 273.443328 190.247312 
L 277.300224 172.530401 
L 279.442944 163.771064 
L 281.15712 157.657133 
L 282.728448 152.876473 
L 284.156928 149.272363 
L 285.44256 146.6553 
L 286.585344 144.830964 
L 287.58528 143.617581 
L 288.585216 142.752666 
L 289.442304 142.279324 
L 290.299392 142.043126 
L 291.15648 142.03273 
L 292.013568 142.235473 
L 293.013504 142.722991 
L 294.01344 143.458562 
L 295.156224 144.571588 
L 296.441856 146.126151 
L 298.013184 148.385236 
L 300.013056 151.688497 
L 302.870016 156.896469 
L 308.726784 167.664786 
L 311.298048 171.89302 
L 313.583616 175.244637 
L 315.726336 178.005392 
L 317.726208 180.24418 
L 319.72608 182.166705 
L 321.725952 183.792583 
L 323.725824 185.147781 
L 325.868544 186.332985 
L 328.154112 187.334754 
L 330.582528 188.151531 
L 333.29664 188.82253 
L 336.439296 189.357245 
L 340.153344 189.753285 
L 345.010176 190.030723 
L 352.152576 190.19068 
L 367.008768 190.247661 
L 379.008 190.250233 
L 379.008 190.250233 
" clip-path="url(#p975e259188)" style="fill: none; stroke-dasharray: 5.55,2.4; stroke-dashoffset: 0; stroke: #000000; stroke-width: 1.5"/>
   </g>
   <g id="line2d_26">
    <path clip-path="url(#p975e259188)" style="fill: none; stroke: #000000; stroke-width: 1.5; stroke-linecap: square"/>
   </g>
   <g id="line2d_27">
    <path clip-path="url(#p975e259188)" style="fill: none; stroke-dasharray: 5.55,2.4; stroke-dashoffset: 0; stroke: #000000; stroke-width: 1.5"/>
   </g>
   <g id="line2d_28">
    <path d="M 114.007891 -1 
L 119.167488 22.07301 
L 124.310016 44.078977 
L 129.309696 64.525462 
L 134.309376 84.037099 
L 139.166208 102.096094 
L 143.880192 118.780289 
L 148.451328 134.165234 
L 153.022464 148.768722 
L 157.450752 162.170643 
L 161.736192 174.441968 
L 165.878784 185.651381 
L 170.021376 196.218992 
L 174.02112 205.813215 
L 177.878016 214.498154 
L 181.592064 222.335624 
L 185.306112 229.657209 
L 188.877312 236.210692 
L 192.305664 242.053309 
L 195.734016 247.456355 
L 199.01952 252.221796 
L 202.162176 256.402289 
L 205.304832 260.21342 
L 208.30464 263.50676 
L 211.1616 266.330386 
L 214.01856 268.848755 
L 216.732672 270.958462 
L 219.446784 272.792674 
L 222.160896 274.351391 
L 224.73216 275.573945 
L 227.303424 276.549241 
L 229.874688 277.277278 
L 232.303104 277.737835 
L 234.73152 277.977843 
L 237.159936 277.997303 
L 239.588352 277.796215 
L 242.016768 277.374579 
L 244.445184 276.732395 
L 246.8736 275.869663 
L 249.444864 274.715792 
L 252.016128 273.314663 
L 254.587392 271.666276 
L 257.301504 269.658067 
L 260.015616 267.374365 
L 262.872576 264.672841 
L 265.729536 261.666061 
L 268.729344 258.18041 
L 271.729152 254.358212 
L 274.871808 249.993039 
L 278.157312 245.034523 
L 281.442816 239.672305 
L 284.871168 233.646535 
L 288.442368 226.902266 
L 292.013568 219.681034 
L 295.727616 211.664989 
L 299.584512 202.794606 
L 303.441408 193.367893 
L 307.441152 183.004423 
L 311.583744 171.640092 
L 315.869184 159.208507 
L 320.154624 146.090093 
L 324.582912 131.812849 
L 329.154048 116.305801 
L 333.725184 100.017295 
L 338.439168 82.401304 
L 343.296 63.382275 
L 348.29568 42.88237 
L 353.29536 21.447615 
L 358.312109 -1 
L 358.312109 -1 
" clip-path="url(#p975e259188)" style="fill: none; stroke-dasharray: 1.5,2.475; stroke-dashoffset: 0; stroke: #8c564b; stroke-width: 1.5"/>
   </g>
   <g id="patch_3">
    <path d="M 57.6 307.584 
L 57.6 41.472 
" style="fill: none; stroke: #000000; stroke-width: 0.8; stroke-linejoin: miter; stroke-linecap: square"/>
   </g>
   <g id="patch_4">
    <path d="M 414.72 307.584 
L 414.72 41.472 
" style="fill: none; stroke: #000000; stroke-width: 0.8; stroke-linejoin: miter; stroke-linecap: square"/>
   </g>
   <g id="patch_5">
    <path d="M 57.6 307.584 
L 414.72 307.584 
" style="fill: none; stroke: #000000; stroke-width: 0.8; stroke-linejoin: miter; stroke-linecap: square"/>
   </g>
   <g id="patch_6">
    <path d="M 57.6 41.472 
L 414.72 41.472 
" style="fill: none; stroke: #000000; stroke-width: 0.8; stroke-linejoin: miter; stroke-linecap: square"/>
   </g>
   <g id="text_18">
    <!--   0 -->
    <g transform="translate(379.008 270.562825)scale(0.0833 -0.0833)">
     <use xlink:href="#DejaVuSans-20"/>
     <use xlink:href="#DejaVuSans-20" x="31.787109"/>
     <use xlink:href="#DejaVuSans-30" x="63.574219"/>
    </g>
   </g>
   <g id="text_19">
    <!--   1 -->
    <g transform="translate(379.008 251.059356)scale(0.0833 -0.0833)">
     <use xlink:href="#DejaVuSans-20"/>
     <use xlink:href="#DejaVuSans-20" x="31.787109"/>
     <use xlink:href="#DejaVuSans-31" x="63.574219"/>
    </g>
   </g>
   <g id="text_20">
    <!--   2 -->
    <g transform="translate(379.008 231.555887)scale(0.0833 -0.0833)">
     <use xlink:href="#DejaVuSans-20"/>
     <use xlink:href="#DejaVuSans-20" x="31.787109"/>
     <use xlink:href="#DejaVuSans-32" x="63.574219"/>
    </g>
   </g>
   <g id="text_21">
    <!--   3 -->
    <g transform="translate(379.008 212.052419)scale(0.0833 -0.0833)">
     <defs>
      <path id="DejaVuSans-33" d="M 2597 2516 
Q 3050 2419 3304 2112 
Q 3559 1806 3559 1356 
Q 3559 666 3084 287 
Q 2609 -91 1734 -91 
Q 1441 -91 1130 -33 
Q 819 25 488 141 
L 488 750 
Q 750 597 1062 519 
Q 1375 441 1716 441 
Q 2309 441 2620 675 
Q 2931 909 2931 1356 
Q 2931 1769 2642 2001 
Q 2353 2234 1838 2234 
L 1294 2234 
L 1294 2753 
L 1863 2753 
Q 2328 2753 2575 2939 
Q 2822 3125 2822 3475 
Q 2822 3834 2567 4026 
Q 2313 4219 1838 4219 
Q 1578 4219 1281 4162 
Q 984 4106 628 3988 
L 628 4550 
Q 988 4650 1302 4700 
Q 1616 4750 1894 4750 
Q 2613 4750 3031 4423 
Q 3450 4097 3450 3541 
Q 3450 3153 3228 2886 
Q 3006 2619 2597 2516 
z
" transform="scale(0.015625)"/>
     </defs>
     <use xlink:href="#DejaVuSans-20"/>
     <use xlink:href="#DejaVuSans-20" x="31.787109"/>
     <use xlink:href="#DejaVuSans-33" x="63.574219"/>
    </g>
   </g>
   <g id="text_22">
    <!--   4 -->
    <g transform="translate(379.008 192.54895)scale(0.0833 -0.0833)">
     <use xlink:href="#DejaVuSans-20"/>
     <use xlink:href="#DejaVuSans-20" x="31.787109"/>
     <use xlink:href="#DejaVuSans-34" x="63.574219"/>
    </g>
   </g>
   <g id="text_23">
    <!-- Harmonic oscillator potential: $\psi_v(x) = N_v H_v(x) e^{-x^2/2}$ -->
    <g transform="translate(84.54 35.472)scale(0.12 -0.12)">
     <defs>
      <path id="DejaVuSans-48" d="M 628 4666 
L 1259 4666 
L 1259 2753 
L 3553 2753 
L 3553 4666 
L 4184 4666 
L 4184 0 
L 3553 0 
L 3553 2222 
L 1259 2222 
L 1259 0 
L 628 0 
L 628 4666 
z
" transform="scale(0.015625)"/>
      <path id="DejaVuSans-73" d="M 2834 3397 
L 2834 2853 
Q 2591 2978 2328 3040 
Q 2066 3103 1784 3103 
Q 1356 3103 1142 2972 
Q 928 2841 928 2578 
Q 928 2378 1081 2264 
Q 1234 2150 1697 2047 
L 1894 2003 
Q 2506 1872 2764 1633 
Q 3022 1394 3022 966 
Q 3022 478 2636 193 
Q 2250 -91 1575 -91 
Q 1294 -91 989 -36 
Q 684 19 347 128 
L 347 722 
Q 666 556 975 473 
Q 1284 391 1588 391 
Q 1994 391 2212 530 
Q 2431 669 2431 922 
Q 2431 1156 2273 1281 
Q 2116 1406 1581 1522 
L 1381 1569 
Q 847 1681 609 1914 
Q 372 2147 372 2553 
Q 372 3047 722 3315 
Q 1072 3584 1716 3584 
Q 2034 3584 2315 3537 
Q 2597 3491 2834 3397 
z
" transform="scale(0.015625)"/>
      <path id="DejaVuSans-3a" d="M 750 794 
L 1409 794 
L 1409 0 
L 750 0 
L 750 794 
z
M 750 3309 
L 1409 3309 
L 1409 2516 
L 750 2516 
L 750 3309 
z
" transform="scale(0.015625)"/>
      <path id="DejaVuSans-Oblique-3c8" d="M 1591 -78 
Q 891 38 616 341 
Q 278 713 425 1472 
L 819 3500 
L 1400 3500 
L 1009 1494 
Q 900 922 1119 684 
Q 1313 478 1691 434 
L 2284 3500 
L 2856 3500 
L 2263 438 
Q 2681 481 2928 688 
Q 3247 950 3353 1497 
L 3741 3500 
L 4322 3500 
L 3928 1475 
Q 3775 688 3300 344 
Q 2872 34 2163 -75 
L 1919 -1331 
L 1347 -1331 
L 1591 -78 
z
" transform="scale(0.015625)"/>
      <path id="DejaVuSans-Oblique-76" d="M 459 3500 
L 1069 3500 
L 1581 525 
L 3256 3500 
L 3866 3500 
L 1875 0 
L 1100 0 
L 459 3500 
z
" transform="scale(0.015625)"/>
      <path id="DejaVuSans-3d" d="M 678 2906 
L 4684 2906 
L 4684 2381 
L 678 2381 
L 678 2906 
z
M 678 1631 
L 4684 1631 
L 4684 1100 
L 678 1100 
L 678 1631 
z
" transform="scale(0.015625)"/>
      <path id="DejaVuSans-Oblique-4e" d="M 1081 4666 
L 1931 4666 
L 3219 666 
L 4000 4666 
L 4616 4666 
L 3706 0 
L 2853 0 
L 1569 4025 
L 788 0 
L 172 0 
L 1081 4666 
z
" transform="scale(0.015625)"/>
      <path id="DejaVuSans-Oblique-48" d="M 1081 4666 
L 1716 4666 
L 1344 2753 
L 3634 2753 
L 4006 4666 
L 4641 4666 
L 3731 0 
L 3097 0 
L 3531 2222 
L 1241 2222 
L 806 0 
L 172 0 
L 1081 4666 
z
" transform="scale(0.015625)"/>
      <path id="DejaVuSans-Oblique-65" d="M 3078 2063 
Q 3088 2113 3092 2166 
Q 3097 2219 3097 2272 
Q 3097 2653 2873 2875 
Q 2650 3097 2266 3097 
Q 1838 3097 1509 2826 
Q 1181 2556 1013 2059 
L 3078 2063 
z
M 3578 1613 
L 903 1613 
Q 884 1494 878 1425 
Q 872 1356 872 1306 
Q 872 872 1139 634 
Q 1406 397 1894 397 
Q 2269 397 2603 481 
Q 2938 566 3225 728 
L 3116 159 
Q 2806 34 2476 -28 
Q 2147 -91 1806 -91 
Q 1078 -91 686 257 
Q 294 606 294 1247 
Q 294 1794 489 2264 
Q 684 2734 1063 3103 
Q 1306 3334 1642 3459 
Q 1978 3584 2356 3584 
Q 2950 3584 3301 3228 
Q 3653 2872 3653 2272 
Q 3653 2128 3634 1964 
Q 3616 1800 3578 1613 
z
" transform="scale(0.015625)"/>
     </defs>
     <use xlink:href="#DejaVuSans-48" transform="translate(0 0.554688)"/>
     <use xlink:href="#DejaVuSans-61" transform="translate(75.195312 0.554688)"/>
     <use xlink:href="#DejaVuSans-72" transform="translate(136.474609 0.554688)"/>
     <use xlink:href="#DejaVuSans-6d" transform="translate(177.587891 0.554688)"/>
     <use xlink:href="#DejaVuSans-6f" transform="translate(275 0.554688)"/>
     <use xlink:href="#DejaVuSans-6e" transform="translate(336.181641 0.554688)"/>
     <use xlink:href="#DejaVuSans-69" transform="translate(399.560547 0.554688)"/>
     <use xlink:href="#DejaVuSans-63" transform="translate(427.34375 0.554688)"/>
     <use xlink:href="#DejaVuSans-20" transform="translate(482.324219 0.554688)"/>
     <use xlink:href="#DejaVuSans-6f" transform="translate(514.111328 0.554688)"/>
     <use xlink:href="#DejaVuSans-73" transform="translate(575.292969 0.554688)"/>
     <use xlink:href="#DejaVuSans-63" transform="translate(627.392578 0.554688)"/>
     <use xlink:href="#DejaVuSans-69" transform="translate(682.373047 0.554688)"/>
     <use xlink:href="#DejaVuSans-6c" transform="translate(710.15625 0.554688)"/>
     <use xlink:href="#DejaVuSans-6c" transform="translate(737.939453 0.554688)"/>
     <use xlink:href="#DejaVuSans-61" transform="translate(765.722656 0.554688)"/>
     <use xlink:href="#DejaVuSans-74" transform="translate(827.001953 0.554688)"/>
     <use xlink:href="#DejaVuSans-6f" transform="translate(866.210938 0.554688)"/>
     <use xlink:href="#DejaVuSans-72" transform="translate(927.392578 0.554688)"/>
     <use xlink:href="#DejaVuSans-20" transform="translate(968.505859 0.554688)"/>
     <use xlink:href="#DejaVuSans-70" transform="translate(1000.292969 0.554688)"/>
     <use xlink:href="#DejaVuSans-6f" transform="translate(1063.769531 0.554688)"/>
     <use xlink:href="#DejaVuSans-74" transform="translate(1124.951172 0.554688)"/>
     <use xlink:href="#DejaVuSans-65" transform="translate(1164.160156 0.554688)"/>
     <use xlink:href="#DejaVuSans-6e" transform="translate(1225.683594 0.554688)"/>
     <use xlink:href="#DejaVuSans-74" transform="translate(1289.0625 0.554688)"/>
     <use xlink:href="#DejaVuSans-69" transform="translate(1328.271484 0.554688)"/>
     <use xlink:href="#DejaVuSans-61" transform="translate(1356.054688 0.554688)"/>
     <use xlink:href="#DejaVuSans-6c" transform="translate(1417.333984 0.554688)"/>
     <use xlink:href="#DejaVuSans-3a" transform="translate(1445.117188 0.554688)"/>
     <use xlink:href="#DejaVuSans-20" transform="translate(1478.808594 0.554688)"/>
     <use xlink:href="#DejaVuSans-Oblique-3c8" transform="translate(1510.595703 0.554688)"/>
     <use xlink:href="#DejaVuSans-Oblique-76" transform="translate(1576.5625 -15.851562)scale(0.7)"/>
     <use xlink:href="#DejaVuSans-28" transform="translate(1620.722656 0.554688)"/>
     <use xlink:href="#DejaVuSans-Oblique-78" transform="translate(1659.736328 0.554688)"/>
     <use xlink:href="#DejaVuSans-29" transform="translate(1718.916016 0.554688)"/>
     <use xlink:href="#DejaVuSans-3d" transform="translate(1777.412109 0.554688)"/>
     <use xlink:href="#DejaVuSans-Oblique-4e" transform="translate(1880.683594 0.554688)"/>
     <use xlink:href="#DejaVuSans-Oblique-76" transform="translate(1955.488281 -15.851562)scale(0.7)"/>
     <use xlink:href="#DejaVuSans-Oblique-48" transform="translate(1999.648438 0.554688)"/>
     <use xlink:href="#DejaVuSans-Oblique-76" transform="translate(2074.84375 -15.851562)scale(0.7)"/>
     <use xlink:href="#DejaVuSans-28" transform="translate(2119.003906 0.554688)"/>
     <use xlink:href="#DejaVuSans-Oblique-78" transform="translate(2158.017578 0.554688)"/>
     <use xlink:href="#DejaVuSans-29" transform="translate(2217.197266 0.554688)"/>
     <use xlink:href="#DejaVuSans-Oblique-65" transform="translate(2256.210938 0.554688)"/>
     <use xlink:href="#DejaVuSans-2212" transform="translate(2322.384271 38.835938)scale(0.7)"/>
     <use xlink:href="#DejaVuSans-Oblique-78" transform="translate(2381.036615 38.835938)scale(0.7)"/>
     <use xlink:href="#DejaVuSans-32" transform="translate(2425.588698 65.632812)scale(0.49)"/>
     <use xlink:href="#DejaVuSans-2f" transform="translate(2458.678053 38.835938)scale(0.7)"/>
     <use xlink:href="#DejaVuSans-32" transform="translate(2479.724538 38.835938)scale(0.7)"/>
    </g>
   </g>
   <g id="legend_1">
    <g id="patch_7">
     <path d="M 191.31141 81.484634 
L 281.00859 81.484634 
Q 282.67459 81.484634 282.67459 79.818634 
L 282.67459 47.303 
Q 282.67459 45.637 281.00859 45.637 
L 191.31141 45.637 
Q 189.64541 45.637 189.64541 47.303 
L 189.64541 79.818634 
Q 189.64541 81.484634 191.31141 81.484634 
z
" style="fill: #ffffff; opacity: 0.8; stroke: #cccccc; stroke-linejoin: miter"/>
    </g>
    <g id="line2d_29">
     <path d="M 192.97741 52.382998 
L 201.30741 52.382998 
L 209.63741 52.382998 
" style="fill: none; stroke: #000000; stroke-width: 1.5; stroke-linecap: square"/>
    </g>
    <g id="text_24">
     <!-- PyDiatomic -->
     <g transform="translate(216.30141 55.298498)scale(0.0833 -0.0833)">
      <defs>
       <path id="DejaVuSans-50" d="M 1259 4147 
L 1259 2394 
L 2053 2394 
Q 2494 2394 2734 2622 
Q 2975 2850 2975 3272 
Q 2975 3691 2734 3919 
Q 2494 4147 2053 4147 
L 1259 4147 
z
M 628 4666 
L 2053 4666 
Q 2838 4666 3239 4311 
Q 3641 3956 3641 3272 
Q 3641 2581 3239 2228 
Q 2838 1875 2053 1875 
L 1259 1875 
L 1259 0 
L 628 0 
L 628 4666 
z
" transform="scale(0.015625)"/>
       <path id="DejaVuSans-44" d="M 1259 4147 
L 1259 519 
L 2022 519 
Q 2988 519 3436 956 
Q 3884 1394 3884 2338 
Q 3884 3275 3436 3711 
Q 2988 4147 2022 4147 
L 1259 4147 
z
M 628 4666 
L 1925 4666 
Q 3281 4666 3915 4102 
Q 4550 3538 4550 2338 
Q 4550 1131 3912 565 
Q 3275 0 1925 0 
L 628 0 
L 628 4666 
z
" transform="scale(0.015625)"/>
      </defs>
      <use xlink:href="#DejaVuSans-50"/>
      <use xlink:href="#DejaVuSans-79" x="60.302734"/>
      <use xlink:href="#DejaVuSans-44" x="119.482422"/>
      <use xlink:href="#DejaVuSans-69" x="196.484375"/>
      <use xlink:href="#DejaVuSans-61" x="224.267578"/>
      <use xlink:href="#DejaVuSans-74" x="285.546875"/>
      <use xlink:href="#DejaVuSans-6f" x="324.755859"/>
      <use xlink:href="#DejaVuSans-6d" x="385.9375"/>
      <use xlink:href="#DejaVuSans-69" x="483.349609"/>
      <use xlink:href="#DejaVuSans-63" x="511.132812"/>
     </g>
    </g>
    <g id="line2d_30">
     <path d="M 192.97741 62.943877 
L 201.30741 62.943877 
L 209.63741 62.943877 
" style="fill: none; stroke-dasharray: 5.55,2.4; stroke-dashoffset: 0; stroke: #000000; stroke-width: 1.5"/>
    </g>
    <g id="text_25">
     <!-- analytical -->
     <g transform="translate(216.30141 65.859377)scale(0.0833 -0.0833)">
      <use xlink:href="#DejaVuSans-61"/>
      <use xlink:href="#DejaVuSans-6e" x="61.279297"/>
      <use xlink:href="#DejaVuSans-61" x="124.658203"/>
      <use xlink:href="#DejaVuSans-6c" x="185.9375"/>
      <use xlink:href="#DejaVuSans-79" x="213.720703"/>
      <use xlink:href="#DejaVuSans-74" x="272.900391"/>
      <use xlink:href="#DejaVuSans-69" x="312.109375"/>
      <use xlink:href="#DejaVuSans-63" x="339.892578"/>
      <use xlink:href="#DejaVuSans-61" x="394.873047"/>
      <use xlink:href="#DejaVuSans-6c" x="456.152344"/>
     </g>
    </g>
    <g id="line2d_31">
     <path d="M 192.97741 73.504755 
L 201.30741 73.504755 
L 209.63741 73.504755 
" style="fill: none; stroke-dasharray: 1.5,2.475; stroke-dashoffset: 0; stroke: #8c564b; stroke-width: 1.5"/>
    </g>
    <g id="text_26">
     <!-- potential curve -->
     <g transform="translate(216.30141 76.420255)scale(0.0833 -0.0833)">
      <use xlink:href="#DejaVuSans-70"/>
      <use xlink:href="#DejaVuSans-6f" x="63.476562"/>
      <use xlink:href="#DejaVuSans-74" x="124.658203"/>
      <use xlink:href="#DejaVuSans-65" x="163.867188"/>
      <use xlink:href="#DejaVuSans-6e" x="225.390625"/>
      <use xlink:href="#DejaVuSans-74" x="288.769531"/>
      <use xlink:href="#DejaVuSans-69" x="327.978516"/>
      <use xlink:href="#DejaVuSans-61" x="355.761719"/>
      <use xlink:href="#DejaVuSans-6c" x="417.041016"/>
      <use xlink:href="#DejaVuSans-20" x="444.824219"/>
      <use xlink:href="#DejaVuSans-63" x="476.611328"/>
      <use xlink:href="#DejaVuSans-75" x="531.591797"/>
      <use xlink:href="#DejaVuSans-72" x="594.970703"/>
      <use xlink:href="#DejaVuSans-76" x="636.083984"/>
      <use xlink:href="#DejaVuSans-65" x="695.263672"/>
     </g>
    </g>
   </g>
  </g>
 </g>
 <defs>
  <clipPath id="p975e259188">
   <rect x="57.6" y="41.472" width="357.12" height="266.112"/>
  </clipPath>
 </defs>
</svg>
