<?xml version="1.0" encoding="utf-8" standalone="no"?>
<!DOCTYPE svg PUBLIC "-//W3C//DTD SVG 1.1//EN"
  "http://www.w3.org/Graphics/SVG/1.1/DTD/svg11.dtd">
<svg xmlns:xlink="http://www.w3.org/1999/xlink" width="460.8pt" height="345.6pt" viewBox="0 0 460.8 345.6" xmlns="http://www.w3.org/2000/svg" version="1.1">
 <metadata>
  <rdf:RDF xmlns:dc="http://purl.org/dc/elements/1.1/" xmlns:cc="http://creativecommons.org/ns#" xmlns:rdf="http://www.w3.org/1999/02/22-rdf-syntax-ns#">
   <cc:Work>
    <dc:type rdf:resource="http://purl.org/dc/dcmitype/StillImage"/>
    <dc:date>2023-07-28T10:12:32.080712</dc:date>
    <dc:format>image/svg+xml</dc:format>
    <dc:creator>
     <cc:Agent>
      <dc:title>Matplotlib v3.7.2, https://matplotlib.org/</dc:title>
     </cc:Agent>
    </dc:creator>
   </cc:Work>
  </rdf:RDF>
 </metadata>
 <defs>
  <style type="text/css">*{stroke-linejoin: round; stroke-linecap: butt}</style>
 </defs>
 <g id="figure_1">
  <g id="patch_1">
   <path d="M 0 345.6 
L 460.8 345.6 
L 460.8 0 
L 0 0 
z
" style="fill: #ffffff"/>
  </g>
  <g id="axes_1">
   <g id="patch_2">
    <path d="M 57.6 307.584 
L 414.72 307.584 
L 414.72 41.472 
L 57.6 41.472 
z
" style="fill: #ffffff"/>
   </g>
   <g id="matplotlib.axis_1">
    <g id="xtick_1">
     <g id="line2d_1">
      <defs>
       <path id="m3701354ade" d="M 0 0 
L 0 3.5 
" style="stroke: #000000; stroke-width: 0.8"/>
      </defs>
      <g>
       <use xlink:href="#m3701354ade" x="93.312" y="307.584" style="stroke: #000000; stroke-width: 0.8"/>
      </g>
     </g>
     <g id="text_1">
      <!-- −2 -->
      <g transform="translate(85.940906 322.182437) scale(0.1 -0.1)">
       <defs>
        <path id="DejaVuSans-2212" d="M 678 2272 
L 4684 2272 
L 4684 1741 
L 678 1741 
L 678 2272 
z
" transform="scale(0.015625)"/>
        <path id="DejaVuSans-32" d="M 1228 531 
L 3431 531 
L 3431 0 
L 469 0 
L 469 531 
Q 828 903 1448 1529 
Q 2069 2156 2228 2338 
Q 2531 2678 2651 2914 
Q 2772 3150 2772 3378 
Q 2772 3750 2511 3984 
Q 2250 4219 1831 4219 
Q 1534 4219 1204 4116 
Q 875 4013 500 3803 
L 500 4441 
Q 881 4594 1212 4672 
Q 1544 4750 1819 4750 
Q 2544 4750 2975 4387 
Q 3406 4025 3406 3419 
Q 3406 3131 3298 2873 
Q 3191 2616 2906 2266 
Q 2828 2175 2409 1742 
Q 1991 1309 1228 531 
z
" transform="scale(0.015625)"/>
       </defs>
       <use xlink:href="#DejaVuSans-2212"/>
       <use xlink:href="#DejaVuSans-32" x="83.789062"/>
      </g>
     </g>
    </g>
    <g id="xtick_2">
     <g id="line2d_2">
      <g>
       <use xlink:href="#m3701354ade" x="164.736" y="307.584" style="stroke: #000000; stroke-width: 0.8"/>
      </g>
     </g>
     <g id="text_2">
      <!-- −1 -->
      <g transform="translate(157.364906 322.182437) scale(0.1 -0.1)">
       <defs>
        <path id="DejaVuSans-31" d="M 794 531 
L 1825 531 
L 1825 4091 
L 703 3866 
L 703 4441 
L 1819 4666 
L 2450 4666 
L 2450 531 
L 3481 531 
L 3481 0 
L 794 0 
L 794 531 
z
" transform="scale(0.015625)"/>
       </defs>
       <use xlink:href="#DejaVuSans-2212"/>
       <use xlink:href="#DejaVuSans-31" x="83.789062"/>
      </g>
     </g>
    </g>
    <g id="xtick_3">
     <g id="line2d_3">
      <g>
       <use xlink:href="#m3701354ade" x="236.16" y="307.584" style="stroke: #000000; stroke-width: 0.8"/>
      </g>
     </g>
     <g id="text_3">
      <!-- 0 -->
      <g transform="translate(232.97875 322.182437) scale(0.1 -0.1)">
       <defs>
        <path id="DejaVuSans-30" d="M 2034 4250 
Q 1547 4250 1301 3770 
Q 1056 3291 1056 2328 
Q 1056 1369 1301 889 
Q 1547 409 2034 409 
Q 2525 409 2770 889 
Q 3016 1369 3016 2328 
Q 3016 3291 2770 3770 
Q 2525 4250 2034 4250 
z
M 2034 4750 
Q 2819 4750 3233 4129 
Q 3647 3509 3647 2328 
Q 3647 1150 3233 529 
Q 2819 -91 2034 -91 
Q 1250 -91 836 529 
Q 422 1150 422 2328 
Q 422 3509 836 4129 
Q 1250 4750 2034 4750 
z
" transform="scale(0.015625)"/>
       </defs>
       <use xlink:href="#DejaVuSans-30"/>
      </g>
     </g>
    </g>
    <g id="xtick_4">
     <g id="line2d_4">
      <g>
       <use xlink:href="#m3701354ade" x="307.584" y="307.584" style="stroke: #000000; stroke-width: 0.8"/>
      </g>
     </g>
     <g id="text_4">
      <!-- 1 -->
      <g transform="translate(304.40275 322.182437) scale(0.1 -0.1)">
       <use xlink:href="#DejaVuSans-31"/>
      </g>
     </g>
    </g>
    <g id="xtick_5">
     <g id="line2d_5">
      <g>
       <use xlink:href="#m3701354ade" x="379.008" y="307.584" style="stroke: #000000; stroke-width: 0.8"/>
      </g>
     </g>
     <g id="text_5">
      <!-- 2 -->
      <g transform="translate(375.82675 322.182437) scale(0.1 -0.1)">
       <use xlink:href="#DejaVuSans-32"/>
      </g>
     </g>
    </g>
    <g id="text_6">
     <!-- $x$ -->
     <g transform="translate(233.16 335.860562) scale(0.1 -0.1)">
      <defs>
       <path id="DejaVuSans-Oblique-78" d="M 3841 3500 
L 2234 1784 
L 3219 0 
L 2559 0 
L 1819 1388 
L 531 0 
L -166 0 
L 1556 1844 
L 641 3500 
L 1300 3500 
L 1972 2234 
L 3144 3500 
L 3841 3500 
z
" transform="scale(0.015625)"/>
      </defs>
      <use xlink:href="#DejaVuSans-Oblique-78" transform="translate(0 0.3125)"/>
     </g>
    </g>
   </g>
   <g id="matplotlib.axis_2">
    <g id="ytick_1">
     <g id="line2d_6">
      <defs>
       <path id="ma51ac91b78" d="M 0 0 
L -3.5 0 
" style="stroke: #000000; stroke-width: 0.8"/>
      </defs>
      <g>
       <use xlink:href="#ma51ac91b78" x="57.6" y="294.912" style="stroke: #000000; stroke-width: 0.8"/>
      </g>
     </g>
     <g id="text_7">
      <!-- 0 -->
      <g transform="translate(44.2375 298.711219) scale(0.1 -0.1)">
       <use xlink:href="#DejaVuSans-30"/>
      </g>
     </g>
    </g>
    <g id="ytick_2">
     <g id="line2d_7">
      <g>
       <use xlink:href="#ma51ac91b78" x="57.6" y="244.224" style="stroke: #000000; stroke-width: 0.8"/>
      </g>
     </g>
     <g id="text_8">
      <!-- 200 -->
      <g transform="translate(31.5125 248.023219) scale(0.1 -0.1)">
       <use xlink:href="#DejaVuSans-32"/>
       <use xlink:href="#DejaVuSans-30" x="63.623047"/>
       <use xlink:href="#DejaVuSans-30" x="127.246094"/>
      </g>
     </g>
    </g>
    <g id="ytick_3">
     <g id="line2d_8">
      <g>
       <use xlink:href="#ma51ac91b78" x="57.6" y="193.536" style="stroke: #000000; stroke-width: 0.8"/>
      </g>
     </g>
     <g id="text_9">
      <!-- 400 -->
      <g transform="translate(31.5125 197.335219) scale(0.1 -0.1)">
       <defs>
        <path id="DejaVuSans-34" d="M 2419 4116 
L 825 1625 
L 2419 1625 
L 2419 4116 
z
M 2253 4666 
L 3047 4666 
L 3047 1625 
L 3713 1625 
L 3713 1100 
L 3047 1100 
L 3047 0 
L 2419 0 
L 2419 1100 
L 313 1100 
L 313 1709 
L 2253 4666 
z
" transform="scale(0.015625)"/>
       </defs>
       <use xlink:href="#DejaVuSans-34"/>
       <use xlink:href="#DejaVuSans-30" x="63.623047"/>
       <use xlink:href="#DejaVuSans-30" x="127.246094"/>
      </g>
     </g>
    </g>
    <g id="ytick_4">
     <g id="line2d_9">
      <g>
       <use xlink:href="#ma51ac91b78" x="57.6" y="142.848" style="stroke: #000000; stroke-width: 0.8"/>
      </g>
     </g>
     <g id="text_10">
      <!-- 600 -->
      <g transform="translate(31.5125 146.647219) scale(0.1 -0.1)">
       <defs>
        <path id="DejaVuSans-36" d="M 2113 2584 
Q 1688 2584 1439 2293 
Q 1191 2003 1191 1497 
Q 1191 994 1439 701 
Q 1688 409 2113 409 
Q 2538 409 2786 701 
Q 3034 994 3034 1497 
Q 3034 2003 2786 2293 
Q 2538 2584 2113 2584 
z
M 3366 4563 
L 3366 3988 
Q 3128 4100 2886 4159 
Q 2644 4219 2406 4219 
Q 1781 4219 1451 3797 
Q 1122 3375 1075 2522 
Q 1259 2794 1537 2939 
Q 1816 3084 2150 3084 
Q 2853 3084 3261 2657 
Q 3669 2231 3669 1497 
Q 3669 778 3244 343 
Q 2819 -91 2113 -91 
Q 1303 -91 875 529 
Q 447 1150 447 2328 
Q 447 3434 972 4092 
Q 1497 4750 2381 4750 
Q 2619 4750 2861 4703 
Q 3103 4656 3366 4563 
z
" transform="scale(0.015625)"/>
       </defs>
       <use xlink:href="#DejaVuSans-36"/>
       <use xlink:href="#DejaVuSans-30" x="63.623047"/>
       <use xlink:href="#DejaVuSans-30" x="127.246094"/>
      </g>
     </g>
    </g>
    <g id="ytick_5">
     <g id="line2d_10">
      <g>
       <use xlink:href="#ma51ac91b78" x="57.6" y="92.16" style="stroke: #000000; stroke-width: 0.8"/>
      </g>
     </g>
     <g id="text_11">
      <!-- 800 -->
      <g transform="translate(31.5125 95.959219) scale(0.1 -0.1)">
       <defs>
        <path id="DejaVuSans-38" d="M 2034 2216 
Q 1584 2216 1326 1975 
Q 1069 1734 1069 1313 
Q 1069 891 1326 650 
Q 1584 409 2034 409 
Q 2484 409 2743 651 
Q 3003 894 3003 1313 
Q 3003 1734 2745 1975 
Q 2488 2216 2034 2216 
z
M 1403 2484 
Q 997 2584 770 2862 
Q 544 3141 544 3541 
Q 544 4100 942 4425 
Q 1341 4750 2034 4750 
Q 2731 4750 3128 4425 
Q 3525 4100 3525 3541 
Q 3525 3141 3298 2862 
Q 3072 2584 2669 2484 
Q 3125 2378 3379 2068 
Q 3634 1759 3634 1313 
Q 3634 634 3220 271 
Q 2806 -91 2034 -91 
Q 1263 -91 848 271 
Q 434 634 434 1313 
Q 434 1759 690 2068 
Q 947 2378 1403 2484 
z
M 1172 3481 
Q 1172 3119 1398 2916 
Q 1625 2713 2034 2713 
Q 2441 2713 2670 2916 
Q 2900 3119 2900 3481 
Q 2900 3844 2670 4047 
Q 2441 4250 2034 4250 
Q 1625 4250 1398 4047 
Q 1172 3844 1172 3481 
z
" transform="scale(0.015625)"/>
       </defs>
       <use xlink:href="#DejaVuSans-38"/>
       <use xlink:href="#DejaVuSans-30" x="63.623047"/>
       <use xlink:href="#DejaVuSans-30" x="127.246094"/>
      </g>
     </g>
    </g>
    <g id="ytick_6">
     <g id="line2d_11">
      <g>
       <use xlink:href="#ma51ac91b78" x="57.6" y="41.472" style="stroke: #000000; stroke-width: 0.8"/>
      </g>
     </g>
     <g id="text_12">
      <!-- 1000 -->
      <g transform="translate(25.15 45.271219) scale(0.1 -0.1)">
       <use xlink:href="#DejaVuSans-31"/>
       <use xlink:href="#DejaVuSans-30" x="63.623047"/>
       <use xlink:href="#DejaVuSans-30" x="127.246094"/>
       <use xlink:href="#DejaVuSans-30" x="190.869141"/>
      </g>
     </g>
    </g>
    <g id="text_13">
     <!-- potential energy (cm$^{-1}$) / wavefunction $\times 100$ -->
     <g transform="translate(19.05 288.128) rotate(-90) scale(0.1 -0.1)">
      <defs>
       <path id="DejaVuSans-70" d="M 1159 525 
L 1159 -1331 
L 581 -1331 
L 581 3500 
L 1159 3500 
L 1159 2969 
Q 1341 3281 1617 3432 
Q 1894 3584 2278 3584 
Q 2916 3584 3314 3078 
Q 3713 2572 3713 1747 
Q 3713 922 3314 415 
Q 2916 -91 2278 -91 
Q 1894 -91 1617 61 
Q 1341 213 1159 525 
z
M 3116 1747 
Q 3116 2381 2855 2742 
Q 2594 3103 2138 3103 
Q 1681 3103 1420 2742 
Q 1159 2381 1159 1747 
Q 1159 1113 1420 752 
Q 1681 391 2138 391 
Q 2594 391 2855 752 
Q 3116 1113 3116 1747 
z
" transform="scale(0.015625)"/>
       <path id="DejaVuSans-6f" d="M 1959 3097 
Q 1497 3097 1228 2736 
Q 959 2375 959 1747 
Q 959 1119 1226 758 
Q 1494 397 1959 397 
Q 2419 397 2687 759 
Q 2956 1122 2956 1747 
Q 2956 2369 2687 2733 
Q 2419 3097 1959 3097 
z
M 1959 3584 
Q 2709 3584 3137 3096 
Q 3566 2609 3566 1747 
Q 3566 888 3137 398 
Q 2709 -91 1959 -91 
Q 1206 -91 779 398 
Q 353 888 353 1747 
Q 353 2609 779 3096 
Q 1206 3584 1959 3584 
z
" transform="scale(0.015625)"/>
       <path id="DejaVuSans-74" d="M 1172 4494 
L 1172 3500 
L 2356 3500 
L 2356 3053 
L 1172 3053 
L 1172 1153 
Q 1172 725 1289 603 
Q 1406 481 1766 481 
L 2356 481 
L 2356 0 
L 1766 0 
Q 1100 0 847 248 
Q 594 497 594 1153 
L 594 3053 
L 172 3053 
L 172 3500 
L 594 3500 
L 594 4494 
L 1172 4494 
z
" transform="scale(0.015625)"/>
       <path id="DejaVuSans-65" d="M 3597 1894 
L 3597 1613 
L 953 1613 
Q 991 1019 1311 708 
Q 1631 397 2203 397 
Q 2534 397 2845 478 
Q 3156 559 3463 722 
L 3463 178 
Q 3153 47 2828 -22 
Q 2503 -91 2169 -91 
Q 1331 -91 842 396 
Q 353 884 353 1716 
Q 353 2575 817 3079 
Q 1281 3584 2069 3584 
Q 2775 3584 3186 3129 
Q 3597 2675 3597 1894 
z
M 3022 2063 
Q 3016 2534 2758 2815 
Q 2500 3097 2075 3097 
Q 1594 3097 1305 2825 
Q 1016 2553 972 2059 
L 3022 2063 
z
" transform="scale(0.015625)"/>
       <path id="DejaVuSans-6e" d="M 3513 2113 
L 3513 0 
L 2938 0 
L 2938 2094 
Q 2938 2591 2744 2837 
Q 2550 3084 2163 3084 
Q 1697 3084 1428 2787 
Q 1159 2491 1159 1978 
L 1159 0 
L 581 0 
L 581 3500 
L 1159 3500 
L 1159 2956 
Q 1366 3272 1645 3428 
Q 1925 3584 2291 3584 
Q 2894 3584 3203 3211 
Q 3513 2838 3513 2113 
z
" transform="scale(0.015625)"/>
       <path id="DejaVuSans-69" d="M 603 3500 
L 1178 3500 
L 1178 0 
L 603 0 
L 603 3500 
z
M 603 4863 
L 1178 4863 
L 1178 4134 
L 603 4134 
L 603 4863 
z
" transform="scale(0.015625)"/>
       <path id="DejaVuSans-61" d="M 2194 1759 
Q 1497 1759 1228 1600 
Q 959 1441 959 1056 
Q 959 750 1161 570 
Q 1363 391 1709 391 
Q 2188 391 2477 730 
Q 2766 1069 2766 1631 
L 2766 1759 
L 2194 1759 
z
M 3341 1997 
L 3341 0 
L 2766 0 
L 2766 531 
Q 2569 213 2275 61 
Q 1981 -91 1556 -91 
Q 1019 -91 701 211 
Q 384 513 384 1019 
Q 384 1609 779 1909 
Q 1175 2209 1959 2209 
L 2766 2209 
L 2766 2266 
Q 2766 2663 2505 2880 
Q 2244 3097 1772 3097 
Q 1472 3097 1187 3025 
Q 903 2953 641 2809 
L 641 3341 
Q 956 3463 1253 3523 
Q 1550 3584 1831 3584 
Q 2591 3584 2966 3190 
Q 3341 2797 3341 1997 
z
" transform="scale(0.015625)"/>
       <path id="DejaVuSans-6c" d="M 603 4863 
L 1178 4863 
L 1178 0 
L 603 0 
L 603 4863 
z
" transform="scale(0.015625)"/>
       <path id="DejaVuSans-20" transform="scale(0.015625)"/>
       <path id="DejaVuSans-72" d="M 2631 2963 
Q 2534 3019 2420 3045 
Q 2306 3072 2169 3072 
Q 1681 3072 1420 2755 
Q 1159 2438 1159 1844 
L 1159 0 
L 581 0 
L 581 3500 
L 1159 3500 
L 1159 2956 
Q 1341 3275 1631 3429 
Q 1922 3584 2338 3584 
Q 2397 3584 2469 3576 
Q 2541 3569 2628 3553 
L 2631 2963 
z
" transform="scale(0.015625)"/>
       <path id="DejaVuSans-67" d="M 2906 1791 
Q 2906 2416 2648 2759 
Q 2391 3103 1925 3103 
Q 1463 3103 1205 2759 
Q 947 2416 947 1791 
Q 947 1169 1205 825 
Q 1463 481 1925 481 
Q 2391 481 2648 825 
Q 2906 1169 2906 1791 
z
M 3481 434 
Q 3481 -459 3084 -895 
Q 2688 -1331 1869 -1331 
Q 1566 -1331 1297 -1286 
Q 1028 -1241 775 -1147 
L 775 -588 
Q 1028 -725 1275 -790 
Q 1522 -856 1778 -856 
Q 2344 -856 2625 -561 
Q 2906 -266 2906 331 
L 2906 616 
Q 2728 306 2450 153 
Q 2172 0 1784 0 
Q 1141 0 747 490 
Q 353 981 353 1791 
Q 353 2603 747 3093 
Q 1141 3584 1784 3584 
Q 2172 3584 2450 3431 
Q 2728 3278 2906 2969 
L 2906 3500 
L 3481 3500 
L 3481 434 
z
" transform="scale(0.015625)"/>
       <path id="DejaVuSans-79" d="M 2059 -325 
Q 1816 -950 1584 -1140 
Q 1353 -1331 966 -1331 
L 506 -1331 
L 506 -850 
L 844 -850 
Q 1081 -850 1212 -737 
Q 1344 -625 1503 -206 
L 1606 56 
L 191 3500 
L 800 3500 
L 1894 763 
L 2988 3500 
L 3597 3500 
L 2059 -325 
z
" transform="scale(0.015625)"/>
       <path id="DejaVuSans-28" d="M 1984 4856 
Q 1566 4138 1362 3434 
Q 1159 2731 1159 2009 
Q 1159 1288 1364 580 
Q 1569 -128 1984 -844 
L 1484 -844 
Q 1016 -109 783 600 
Q 550 1309 550 2009 
Q 550 2706 781 3412 
Q 1013 4119 1484 4856 
L 1984 4856 
z
" transform="scale(0.015625)"/>
       <path id="DejaVuSans-63" d="M 3122 3366 
L 3122 2828 
Q 2878 2963 2633 3030 
Q 2388 3097 2138 3097 
Q 1578 3097 1268 2742 
Q 959 2388 959 1747 
Q 959 1106 1268 751 
Q 1578 397 2138 397 
Q 2388 397 2633 464 
Q 2878 531 3122 666 
L 3122 134 
Q 2881 22 2623 -34 
Q 2366 -91 2075 -91 
Q 1284 -91 818 406 
Q 353 903 353 1747 
Q 353 2603 823 3093 
Q 1294 3584 2113 3584 
Q 2378 3584 2631 3529 
Q 2884 3475 3122 3366 
z
" transform="scale(0.015625)"/>
       <path id="DejaVuSans-6d" d="M 3328 2828 
Q 3544 3216 3844 3400 
Q 4144 3584 4550 3584 
Q 5097 3584 5394 3201 
Q 5691 2819 5691 2113 
L 5691 0 
L 5113 0 
L 5113 2094 
Q 5113 2597 4934 2840 
Q 4756 3084 4391 3084 
Q 3944 3084 3684 2787 
Q 3425 2491 3425 1978 
L 3425 0 
L 2847 0 
L 2847 2094 
Q 2847 2600 2669 2842 
Q 2491 3084 2119 3084 
Q 1678 3084 1418 2786 
Q 1159 2488 1159 1978 
L 1159 0 
L 581 0 
L 581 3500 
L 1159 3500 
L 1159 2956 
Q 1356 3278 1631 3431 
Q 1906 3584 2284 3584 
Q 2666 3584 2933 3390 
Q 3200 3197 3328 2828 
z
" transform="scale(0.015625)"/>
       <path id="DejaVuSans-29" d="M 513 4856 
L 1013 4856 
Q 1481 4119 1714 3412 
Q 1947 2706 1947 2009 
Q 1947 1309 1714 600 
Q 1481 -109 1013 -844 
L 513 -844 
Q 928 -128 1133 580 
Q 1338 1288 1338 2009 
Q 1338 2731 1133 3434 
Q 928 4138 513 4856 
z
" transform="scale(0.015625)"/>
       <path id="DejaVuSans-2f" d="M 1625 4666 
L 2156 4666 
L 531 -594 
L 0 -594 
L 1625 4666 
z
" transform="scale(0.015625)"/>
       <path id="DejaVuSans-77" d="M 269 3500 
L 844 3500 
L 1563 769 
L 2278 3500 
L 2956 3500 
L 3675 769 
L 4391 3500 
L 4966 3500 
L 4050 0 
L 3372 0 
L 2619 2869 
L 1863 0 
L 1184 0 
L 269 3500 
z
" transform="scale(0.015625)"/>
       <path id="DejaVuSans-76" d="M 191 3500 
L 800 3500 
L 1894 563 
L 2988 3500 
L 3597 3500 
L 2284 0 
L 1503 0 
L 191 3500 
z
" transform="scale(0.015625)"/>
       <path id="DejaVuSans-66" d="M 2375 4863 
L 2375 4384 
L 1825 4384 
Q 1516 4384 1395 4259 
Q 1275 4134 1275 3809 
L 1275 3500 
L 2222 3500 
L 2222 3053 
L 1275 3053 
L 1275 0 
L 697 0 
L 697 3053 
L 147 3053 
L 147 3500 
L 697 3500 
L 697 3744 
Q 697 4328 969 4595 
Q 1241 4863 1831 4863 
L 2375 4863 
z
" transform="scale(0.015625)"/>
       <path id="DejaVuSans-75" d="M 544 1381 
L 544 3500 
L 1119 3500 
L 1119 1403 
Q 1119 906 1312 657 
Q 1506 409 1894 409 
Q 2359 409 2629 706 
Q 2900 1003 2900 1516 
L 2900 3500 
L 3475 3500 
L 3475 0 
L 2900 0 
L 2900 538 
Q 2691 219 2414 64 
Q 2138 -91 1772 -91 
Q 1169 -91 856 284 
Q 544 659 544 1381 
z
M 1991 3584 
L 1991 3584 
z
" transform="scale(0.015625)"/>
       <path id="DejaVuSans-d7" d="M 4488 3438 
L 3059 2003 
L 4488 575 
L 4116 197 
L 2681 1631 
L 1247 197 
L 878 575 
L 2303 2003 
L 878 3438 
L 1247 3816 
L 2681 2381 
L 4116 3816 
L 4488 3438 
z
" transform="scale(0.015625)"/>
      </defs>
      <use xlink:href="#DejaVuSans-70" transform="translate(0 0.684375)"/>
      <use xlink:href="#DejaVuSans-6f" transform="translate(63.476562 0.684375)"/>
      <use xlink:href="#DejaVuSans-74" transform="translate(124.658203 0.684375)"/>
      <use xlink:href="#DejaVuSans-65" transform="translate(163.867188 0.684375)"/>
      <use xlink:href="#DejaVuSans-6e" transform="translate(225.390625 0.684375)"/>
      <use xlink:href="#DejaVuSans-74" transform="translate(288.769531 0.684375)"/>
      <use xlink:href="#DejaVuSans-69" transform="translate(327.978516 0.684375)"/>
      <use xlink:href="#DejaVuSans-61" transform="translate(355.761719 0.684375)"/>
      <use xlink:href="#DejaVuSans-6c" transform="translate(417.041016 0.684375)"/>
      <use xlink:href="#DejaVuSans-20" transform="translate(444.824219 0.684375)"/>
      <use xlink:href="#DejaVuSans-65" transform="translate(476.611328 0.684375)"/>
      <use xlink:href="#DejaVuSans-6e" transform="translate(538.134766 0.684375)"/>
      <use xlink:href="#DejaVuSans-65" transform="translate(601.513672 0.684375)"/>
      <use xlink:href="#DejaVuSans-72" transform="translate(663.037109 0.684375)"/>
      <use xlink:href="#DejaVuSans-67" transform="translate(704.150391 0.684375)"/>
      <use xlink:href="#DejaVuSans-79" transform="translate(767.626953 0.684375)"/>
      <use xlink:href="#DejaVuSans-20" transform="translate(826.806641 0.684375)"/>
      <use xlink:href="#DejaVuSans-28" transform="translate(858.59375 0.684375)"/>
      <use xlink:href="#DejaVuSans-63" transform="translate(897.607422 0.684375)"/>
      <use xlink:href="#DejaVuSans-6d" transform="translate(952.587891 0.684375)"/>
      <use xlink:href="#DejaVuSans-2212" transform="translate(1050.957031 38.965625) scale(0.7)"/>
      <use xlink:href="#DejaVuSans-31" transform="translate(1109.609375 38.965625) scale(0.7)"/>
      <use xlink:href="#DejaVuSans-29" transform="translate(1156.879883 0.684375)"/>
      <use xlink:href="#DejaVuSans-20" transform="translate(1195.893555 0.684375)"/>
      <use xlink:href="#DejaVuSans-2f" transform="translate(1227.680664 0.684375)"/>
      <use xlink:href="#DejaVuSans-20" transform="translate(1261.37207 0.684375)"/>
      <use xlink:href="#DejaVuSans-77" transform="translate(1293.15918 0.684375)"/>
      <use xlink:href="#DejaVuSans-61" transform="translate(1374.946289 0.684375)"/>
      <use xlink:href="#DejaVuSans-76" transform="translate(1436.225586 0.684375)"/>
      <use xlink:href="#DejaVuSans-65" transform="translate(1495.405273 0.684375)"/>
      <use xlink:href="#DejaVuSans-66" transform="translate(1556.928711 0.684375)"/>
      <use xlink:href="#DejaVuSans-75" transform="translate(1592.133789 0.684375)"/>
      <use xlink:href="#DejaVuSans-6e" transform="translate(1655.512695 0.684375)"/>
      <use xlink:href="#DejaVuSans-63" transform="translate(1718.891602 0.684375)"/>
      <use xlink:href="#DejaVuSans-74" transform="translate(1773.87207 0.684375)"/>
      <use xlink:href="#DejaVuSans-69" transform="translate(1813.081055 0.684375)"/>
      <use xlink:href="#DejaVuSans-6f" transform="translate(1840.864258 0.684375)"/>
      <use xlink:href="#DejaVuSans-6e" transform="translate(1902.045898 0.684375)"/>
      <use xlink:href="#DejaVuSans-20" transform="translate(1965.424805 0.684375)"/>
      <use xlink:href="#DejaVuSans-d7" transform="translate(1997.211914 0.684375)"/>
      <use xlink:href="#DejaVuSans-31" transform="translate(2081.000977 0.684375)"/>
      <use xlink:href="#DejaVuSans-30" transform="translate(2144.624023 0.684375)"/>
      <use xlink:href="#DejaVuSans-30" transform="translate(2208.24707 0.684375)"/>
     </g>
    </g>
   </g>
   <g id="line2d_12">
    <path d="M 93.312 274.015426 
L 158.879232 273.905681 
L 167.307264 273.657973 
L 173.021184 273.278785 
L 177.59232 272.75966 
L 181.449216 272.106318 
L 184.877568 271.310603 
L 188.163072 270.317503 
L 191.16288 269.183551 
L 194.162688 267.809889 
L 197.162496 266.182049 
L 200.162304 264.296358 
L 203.30496 262.055648 
L 206.87616 259.22011 
L 211.304448 255.396638 
L 220.161024 247.675529 
L 223.30368 245.282941 
L 225.874944 243.596111 
L 228.160512 242.352534 
L 230.303232 241.438267 
L 232.303104 240.825826 
L 234.160128 240.477922 
L 236.017152 240.349731 
L 237.874176 240.443785 
L 239.7312 240.758227 
L 241.731072 241.336131 
L 243.730944 242.149321 
L 245.873664 243.261005 
L 248.30208 244.786843 
L 251.016192 246.769832 
L 254.301696 249.459656 
L 259.587072 254.123809 
L 265.586688 259.338601 
L 269.300736 262.269907 
L 272.58624 264.58131 
L 275.586048 266.430436 
L 278.585856 268.021453 
L 281.585664 269.359774 
L 284.585472 270.461142 
L 287.728128 271.385741 
L 291.15648 272.162835 
L 295.013376 272.799408 
L 299.441664 273.29143 
L 304.72704 273.644261 
L 311.726592 273.87434 
L 322.868736 273.990503 
L 356.009472 274.015391 
L 379.008 274.015426 
L 379.008 274.015426 
" clip-path="url(#pa018ab5c2f)" style="fill: none; stroke: #1f77b4; stroke-width: 1.5; stroke-linecap: square"/>
   </g>
   <g id="line2d_13">
    <path d="M 93.312 274.015426 
L 159.73632 273.904899 
L 168.021504 273.65791 
L 173.735424 273.27266 
L 178.163712 272.762746 
L 182.020608 272.101444 
L 185.44896 271.293048 
L 188.591616 270.330591 
L 191.591424 269.184077 
L 194.591232 267.791594 
L 197.448192 266.222739 
L 200.448 264.316591 
L 203.590656 262.046356 
L 207.019008 259.288378 
L 211.304448 255.539182 
L 220.589568 247.322841 
L 223.589376 245.020356 
L 226.16064 243.32331 
L 228.446208 242.080962 
L 230.588928 241.177445 
L 232.5888 240.583684 
L 234.445824 240.260519 
L 236.302848 240.163841 
L 238.159872 240.295606 
L 240.016896 240.65315 
L 241.87392 241.229288 
L 243.873792 242.080962 
L 246.016512 243.237867 
L 248.444928 244.817847 
L 251.15904 246.86193 
L 254.587392 249.746766 
L 260.872704 255.410511 
L 265.872384 259.765869 
L 269.443584 262.585605 
L 272.58624 264.79422 
L 275.586048 266.63755 
L 278.585856 268.215612 
L 281.585664 269.535862 
L 284.585472 270.616071 
L 287.728128 271.517188 
L 291.15648 272.269115 
L 295.013376 272.879866 
L 299.441664 273.347097 
L 304.869888 273.684286 
L 312.155136 273.897592 
L 324.297216 273.998717 
L 369.00864 274.015425 
L 379.008 274.015426 
L 379.008 274.015426 
" clip-path="url(#pa018ab5c2f)" style="fill: none; stroke-dasharray: 5.55,2.4; stroke-dashoffset: 0; stroke: #000000; stroke-width: 1.5"/>
   </g>
   <g id="line2d_14">
    <path d="M 93.312 232.222279 
L 148.165632 232.112774 
L 156.022272 231.868407 
L 161.450496 231.483731 
L 165.735936 230.958411 
L 169.307136 230.302582 
L 172.449792 229.511011 
L 175.4496 228.527071 
L 178.30656 227.349807 
L 181.020672 225.990991 
L 183.734784 224.384045 
L 186.591744 222.422555 
L 189.591552 220.083216 
L 193.019904 217.120223 
L 204.162048 207.225858 
L 206.447616 205.650416 
L 208.30464 204.622395 
L 210.018816 203.917189 
L 211.590144 203.506452 
L 213.018624 203.349624 
L 214.447104 203.415494 
L 215.875584 203.717367 
L 217.304064 204.265565 
L 218.732544 205.067047 
L 220.161024 206.125081 
L 221.732352 207.584311 
L 223.30368 209.346416 
L 225.017856 211.598947 
L 226.87488 214.399605 
L 229.0176 218.041952 
L 231.588864 222.88098 
L 235.160064 230.139517 
L 241.302528 242.675466 
L 244.01664 247.661244 
L 246.15936 251.164125 
L 248.159232 254.013661 
L 249.873408 256.096211 
L 251.587584 257.824442 
L 253.158912 259.087086 
L 254.587392 259.965365 
L 256.015872 260.58898 
L 257.444352 260.963813 
L 258.872832 261.099215 
L 260.301312 261.007639 
L 261.729792 260.704224 
L 263.30112 260.146579 
L 265.015296 259.299981 
L 267.015168 258.044392 
L 269.300736 256.328104 
L 272.157696 253.888689 
L 277.728768 248.755055 
L 282.014208 244.956115 
L 285.299712 242.339387 
L 288.156672 240.337245 
L 291.013632 238.610892 
L 293.727744 237.226425 
L 296.584704 236.024178 
L 299.441664 235.059557 
L 302.58432 234.237033 
L 306.012672 233.576029 
L 309.869568 233.062363 
L 314.583552 232.671676 
L 320.583168 232.411873 
L 329.582592 232.267504 
L 350.152704 232.223202 
L 379.008 232.222279 
L 379.008 232.222279 
" clip-path="url(#pa018ab5c2f)" style="fill: none; stroke: #ff7f0e; stroke-width: 1.5; stroke-linecap: square"/>
   </g>
   <g id="line2d_15">
    <path d="M 93.312 232.222278 
L 149.165568 232.111535 
L 156.87936 231.867503 
L 162.164736 231.489742 
L 166.307328 230.982161 
L 169.878528 230.327261 
L 173.021184 229.532944 
L 176.020992 228.541676 
L 178.735104 227.41738 
L 181.449216 226.053389 
L 184.163328 224.434951 
L 186.87744 222.559239 
L 189.877248 220.203295 
L 193.3056 217.20733 
L 199.448064 211.455388 
L 203.019264 208.282984 
L 205.44768 206.395759 
L 207.447552 205.094757 
L 209.304576 204.148786 
L 210.875904 203.581441 
L 212.447232 203.256021 
L 213.875712 203.190244 
L 215.304192 203.359568 
L 216.732672 203.77653 
L 218.161152 204.45035 
L 219.589632 205.386553 
L 221.018112 206.586655 
L 222.58944 208.208189 
L 224.303616 210.32583 
L 226.16064 213.005975 
L 228.160512 216.297194 
L 230.44608 220.492353 
L 233.445888 226.510772 
L 242.873856 245.838087 
L 245.159424 249.841996 
L 247.159296 252.929641 
L 249.01632 255.397265 
L 250.730496 257.304435 
L 252.301824 258.725643 
L 253.730304 259.741046 
L 255.158784 260.493178 
L 256.587264 260.986391 
L 258.015744 261.228832 
L 259.444224 261.232089 
L 260.872704 261.010763 
L 262.444032 260.528444 
L 264.158208 259.746283 
L 266.015232 258.638496 
L 268.157952 257.085506 
L 270.729216 254.934919 
L 274.586112 251.380947 
L 281.014272 245.455585 
L 284.299776 242.749525 
L 287.156736 240.671039 
L 289.870848 238.957381 
L 292.58496 237.500819 
L 295.299072 236.290516 
L 298.156032 235.260245 
L 301.15584 234.41482 
L 304.441344 233.721873 
L 308.155392 233.171152 
L 312.58368 232.751172 
L 318.154752 232.461199 
L 326.15424 232.290363 
L 341.86752 232.226205 
L 379.008 232.22228 
L 379.008 232.22228 
" clip-path="url(#pa018ab5c2f)" style="fill: none; stroke-dasharray: 5.55,2.4; stroke-dashoffset: 0; stroke: #000000; stroke-width: 1.5"/>
   </g>
   <g id="line2d_16">
    <path d="M 93.312 190.429132 
L 139.7376 190.318171 
L 147.308544 190.069399 
L 152.451072 189.684719 
L 156.450816 189.171013 
L 159.879168 188.512651 
L 162.878976 187.720394 
L 165.735936 186.736465 
L 168.450048 185.561287 
L 171.021312 184.208563 
L 173.592576 182.609525 
L 176.306688 180.653795 
L 179.163648 178.319328 
L 182.592 175.221835 
L 191.16288 167.315288 
L 193.448448 165.60053 
L 195.305472 164.477045 
L 196.8768 163.765023 
L 198.30528 163.340221 
L 199.73376 163.153938 
L 201.019392 163.209528 
L 202.305024 163.491971 
L 203.590656 164.013393 
L 204.876288 164.782837 
L 206.16192 165.805834 
L 207.5904 167.241724 
L 209.01888 168.988684 
L 210.590208 171.25665 
L 212.304384 174.116529 
L 214.304256 177.901634 
L 216.732672 183.011514 
L 220.589568 191.754209 
L 224.446464 200.317945 
L 226.589184 204.573586 
L 228.446208 207.783586 
L 230.017536 210.066831 
L 231.446016 211.747009 
L 232.731648 212.907035 
L 233.874432 213.641371 
L 234.874368 214.046482 
L 235.874304 214.225525 
L 236.87424 214.176647 
L 237.874176 213.900354 
L 238.874112 213.399501 
L 240.016896 212.558854 
L 241.15968 211.443 
L 242.445312 209.877381 
L 243.873792 207.783586 
L 245.587968 204.837972 
L 247.58784 200.91339 
L 250.159104 195.329901 
L 258.015744 177.901634 
L 260.158464 173.863807 
L 262.015488 170.818218 
L 263.729664 168.432435 
L 265.300992 166.629673 
L 266.729472 165.319667 
L 268.157952 164.324333 
L 269.443584 163.693596 
L 270.729216 163.306265 
L 272.014848 163.151528 
L 273.30048 163.215743 
L 274.72896 163.524368 
L 276.15744 164.058904 
L 277.728768 164.875997 
L 279.585792 166.101707 
L 281.728512 167.788849 
L 284.585472 170.339698 
L 294.441984 179.402294 
L 297.298944 181.613821 
L 300.013056 183.44022 
L 302.58432 184.915138 
L 305.298432 186.210783 
L 308.012544 187.25881 
L 310.869504 188.12584 
L 314.01216 188.843576 
L 317.58336 189.419958 
L 321.725952 189.852761 
L 326.86848 190.15642 
L 334.153728 190.343545 
L 347.438592 190.421406 
L 379.008 190.429132 
L 379.008 190.429132 
" clip-path="url(#pa018ab5c2f)" style="fill: none; stroke: #2ca02c; stroke-width: 1.5; stroke-linecap: square"/>
   </g>
   <g id="line2d_17">
    <path d="M 93.312 190.429128 
L 140.737536 190.31859 
L 148.165632 190.073612 
L 153.165312 189.701167 
L 157.165056 189.189579 
L 160.593408 188.529977 
L 163.593216 187.73256 
L 166.450176 186.738557 
L 169.164288 185.547756 
L 171.735552 184.173772 
L 174.306816 182.546619 
L 177.020928 180.553863 
L 179.877888 178.173564 
L 183.30624 175.016217 
L 191.591424 167.241063 
L 193.876992 165.490522 
L 195.734016 164.343913 
L 197.305344 163.618445 
L 198.733824 163.187581 
L 200.019456 163.008927 
L 201.305088 163.046831 
L 202.59072 163.316823 
L 203.876352 163.83172 
L 205.161984 164.601128 
L 206.447616 165.630989 
L 207.876096 167.082868 
L 209.304576 168.854631 
L 210.875904 171.159665 
L 212.59008 174.070588 
L 214.589952 177.926682 
L 217.018368 183.133327 
L 221.018112 192.362502 
L 224.589312 200.403557 
L 226.732032 204.723491 
L 228.589056 207.973293 
L 230.160384 210.275602 
L 231.588864 211.959867 
L 232.874496 213.112016 
L 234.01728 213.829886 
L 235.017216 214.213274 
L 236.017152 214.363902 
L 237.017088 214.280177 
L 238.017024 213.962986 
L 239.01696 213.415676 
L 240.159744 212.515906 
L 241.302528 211.335513 
L 242.58816 209.692303 
L 244.01664 207.508314 
L 245.730816 204.452697 
L 247.730688 200.403557 
L 250.4448 194.34875 
L 257.158656 179.106692 
L 259.444224 174.592949 
L 261.301248 171.386958 
L 263.015424 168.854631 
L 264.586752 166.923167 
L 266.015232 165.503603 
L 267.443712 164.407789 
L 268.729344 163.695587 
L 270.014976 163.236065 
L 271.300608 163.018858 
L 272.58624 163.030507 
L 273.871872 163.254944 
L 275.300352 163.731752 
L 276.87168 164.501309 
L 278.585856 165.589992 
L 280.585728 167.122734 
L 283.156992 169.386926 
L 287.728128 173.778467 
L 292.156416 177.921413 
L 295.299072 180.553863 
L 298.013184 182.546619 
L 300.584448 184.173772 
L 303.155712 185.547756 
L 305.869824 186.738557 
L 308.583936 187.688635 
L 311.583744 188.497071 
L 314.869248 189.143367 
L 318.583296 189.641886 
L 323.154432 190.016962 
L 329.0112 190.26119 
L 338.153472 190.393589 
L 361.294848 190.428819 
L 379.008 190.429128 
L 379.008 190.429128 
" clip-path="url(#pa018ab5c2f)" style="fill: none; stroke-dasharray: 5.55,2.4; stroke-dashoffset: 0; stroke: #000000; stroke-width: 1.5"/>
   </g>
   <g id="line2d_18">
    <path d="M 93.312 148.635984 
L 132.309504 148.526442 
L 139.594752 148.283266 
L 144.594432 147.902602 
L 148.451328 147.396803 
L 151.736832 146.752515 
L 154.73664 145.938612 
L 157.450752 144.974592 
L 160.022016 143.829499 
L 162.59328 142.434392 
L 165.164544 140.774938 
L 167.735808 138.851575 
L 170.592768 136.431039 
L 174.163968 133.088811 
L 180.877824 126.728198 
L 183.163392 124.90769 
L 185.020416 123.705001 
L 186.591744 122.939935 
L 188.020224 122.484741 
L 189.305856 122.297668 
L 190.591488 122.343322 
L 191.734272 122.594323 
L 192.877056 123.05482 
L 194.162688 123.833866 
L 195.44832 124.896893 
L 196.733952 126.24701 
L 198.162432 128.080768 
L 199.73376 130.489332 
L 201.447936 133.550714 
L 203.447808 137.618913 
L 205.876224 143.102598 
L 213.590016 160.970517 
L 215.304192 164.216544 
L 216.87552 166.720396 
L 218.161152 168.372828 
L 219.303936 169.508244 
L 220.303872 170.225949 
L 221.303808 170.674132 
L 222.160896 170.837557 
L 223.017984 170.793985 
L 223.875072 170.542436 
L 224.875008 169.987651 
L 225.874944 169.156622 
L 227.017728 167.880503 
L 228.30336 166.052699 
L 229.73184 163.579101 
L 231.303168 160.394773 
L 233.30304 155.798729 
L 236.445696 147.906604 
L 239.874048 139.441942 
L 241.87392 135.08554 
L 243.445248 132.15587 
L 244.873728 129.956114 
L 246.15936 128.402339 
L 247.302144 127.386294 
L 248.30208 126.791632 
L 249.302016 126.477983 
L 250.159104 126.434412 
L 251.016192 126.597836 
L 251.87328 126.965266 
L 252.873216 127.645092 
L 253.873152 128.584818 
L 255.015936 129.958734 
L 256.301568 131.855747 
L 257.872896 134.618285 
L 259.72992 138.396217 
L 262.158336 143.915664 
L 269.443584 160.863865 
L 271.443456 164.789046 
L 273.157632 167.704463 
L 274.72896 169.966319 
L 276.15744 171.660434 
L 277.58592 173.001011 
L 278.871552 173.905556 
L 280.157184 174.530025 
L 281.442816 174.884975 
L 282.728448 174.984963 
L 284.01408 174.847868 
L 285.299712 174.494207 
L 286.728192 173.874622 
L 288.29952 172.955315 
L 290.156544 171.607037 
L 292.442112 169.660843 
L 295.870464 166.410247 
L 301.87008 160.713627 
L 304.869888 158.194096 
L 307.584 156.201894 
L 310.155264 154.586934 
L 312.726528 153.234812 
L 315.297792 152.129251 
L 318.011904 151.201954 
L 321.011712 150.422015 
L 324.297216 149.807057 
L 328.011264 149.340429 
L 332.5824 148.996446 
L 338.724864 148.771813 
L 348.724224 148.659124 
L 379.008 148.635984 
L 379.008 148.635984 
" clip-path="url(#pa018ab5c2f)" style="fill: none; stroke: #d62728; stroke-width: 1.5; stroke-linecap: square"/>
   </g>
   <g id="line2d_19">
    <path d="M 93.312 148.635965 
L 133.452288 148.525738 
L 140.737536 148.276648 
L 145.594368 147.898868 
L 149.451264 147.38345 
L 152.736768 146.724266 
L 155.593728 145.934758 
L 158.30784 144.95642 
L 160.879104 143.791365 
L 163.30752 142.455215 
L 165.878784 140.776389 
L 168.450048 138.826083 
L 171.307008 136.367219 
L 174.878208 132.968341 
L 181.449216 126.637121 
L 183.734784 124.783345 
L 185.591808 123.560864 
L 187.163136 122.786431 
L 188.591616 122.330116 
L 189.877248 122.149066 
L 191.16288 122.208167 
L 192.305664 122.477822 
L 193.448448 122.963568 
L 194.591232 123.6741 
L 195.876864 124.749246 
L 197.162496 126.119478 
L 198.590976 127.984901 
L 200.162304 130.439017 
L 201.87648 133.561339 
L 203.876352 137.711855 
L 206.304768 143.303326 
L 213.732864 160.822656 
L 215.44704 164.149836 
L 217.018368 166.720274 
L 218.304 168.418799 
L 219.446784 169.587208 
L 220.44672 170.326715 
L 221.446656 170.789498 
L 222.303744 170.959389 
L 223.160832 170.916536 
L 224.01792 170.659902 
L 224.875008 170.190615 
L 225.874944 169.378885 
L 227.017728 168.114151 
L 228.160512 166.509082 
L 229.446144 164.329554 
L 231.017472 161.194814 
L 232.874496 156.956327 
L 235.588608 150.118209 
L 239.874048 139.295278 
L 241.87392 134.882774 
L 243.445248 131.927456 
L 244.873728 129.721109 
L 246.016512 128.326073 
L 247.159296 127.284529 
L 248.159232 126.675576 
L 249.01632 126.383363 
L 249.873408 126.304893 
L 250.730496 126.439489 
L 251.587584 126.784353 
L 252.58752 127.445873 
L 253.587456 128.37587 
L 254.73024 129.748849 
L 256.015872 131.656998 
L 257.444352 134.176229 
L 259.158528 137.658646 
L 261.444096 142.863595 
L 269.586432 161.992662 
L 271.586304 165.841409 
L 273.30048 168.658597 
L 274.871808 170.808046 
L 276.300288 172.385054 
L 277.58592 173.492923 
L 278.871552 174.3084 
L 280.157184 174.839463 
L 281.299968 175.082848 
L 282.5856 175.114268 
L 283.871232 174.907834 
L 285.299712 174.426312 
L 286.728192 173.711104 
L 288.442368 172.592869 
L 290.44224 171.005979 
L 293.013504 168.661842 
L 303.584256 158.678666 
L 306.298368 156.596896 
L 308.869632 154.902821 
L 311.440896 153.480603 
L 314.01216 152.315548 
L 316.726272 151.33721 
L 319.583232 150.547703 
L 322.725888 149.912466 
L 326.297088 149.419221 
L 330.725376 149.045559 
L 336.439296 148.801693 
L 345.295872 148.671113 
L 368.008704 148.63628 
L 379.008 148.636004 
L 379.008 148.636004 
" clip-path="url(#pa018ab5c2f)" style="fill: none; stroke-dasharray: 5.55,2.4; stroke-dashoffset: 0; stroke: #000000; stroke-width: 1.5"/>
   </g>
   <g id="line2d_20">
    <path d="M 93.312 106.842837 
L 125.881344 106.730216 
L 133.023744 106.47897 
L 137.737728 106.104764 
L 141.594624 105.578731 
L 144.73728 104.936594 
L 147.59424 104.13407 
L 150.308352 103.135338 
L 152.879616 101.942298 
L 155.308032 100.571455 
L 157.736448 98.951068 
L 160.307712 96.965706 
L 163.164672 94.466283 
L 166.87872 90.889857 
L 172.306944 85.659184 
L 174.592512 83.780352 
L 176.449536 82.541619 
L 178.020864 81.761587 
L 179.449344 81.310518 
L 180.734976 81.14536 
L 181.87776 81.21027 
L 183.020544 81.490012 
L 184.163328 81.997143 
L 185.306112 82.741405 
L 186.591744 83.870039 
L 187.877376 85.310368 
L 189.305856 87.272211 
L 190.877184 89.851878 
L 192.59136 93.127627 
L 194.591232 97.463914 
L 197.162496 103.608724 
L 202.733568 117.08056 
L 204.590592 120.914605 
L 206.16192 123.652232 
L 207.447552 125.46682 
L 208.590336 126.71415 
L 209.590272 127.498972 
L 210.44736 127.931411 
L 211.304448 128.134365 
L 212.161536 128.103143 
L 213.018624 127.835693 
L 213.875712 127.332703 
L 214.875648 126.453009 
L 215.875584 125.268026 
L 217.018368 123.560242 
L 218.304 121.226484 
L 219.875328 117.862843 
L 221.732352 113.330138 
L 225.017856 104.585547 
L 227.731968 97.600215 
L 229.446144 93.72822 
L 230.874624 90.995223 
L 232.160256 89.006089 
L 233.30304 87.661155 
L 234.302976 86.836865 
L 235.160064 86.404102 
L 236.017152 86.230119 
L 236.87424 86.317174 
L 237.731328 86.664135 
L 238.588416 87.266505 
L 239.588352 88.281485 
L 240.588288 89.615489 
L 241.731072 91.500421 
L 243.159552 94.332955 
L 244.873728 98.295921 
L 247.159296 104.203104 
L 251.87328 116.522857 
L 253.587456 120.360627 
L 255.015936 123.077714 
L 256.301568 125.074669 
L 257.444352 126.453009 
L 258.444288 127.332703 
L 259.301376 127.835693 
L 260.158464 128.103143 
L 261.015552 128.134365 
L 261.87264 127.931411 
L 262.729728 127.498972 
L 263.729664 126.71415 
L 264.7296 125.642292 
L 265.872384 124.09081 
L 267.158016 121.970523 
L 268.729344 118.919833 
L 270.586368 114.811196 
L 273.443328 107.869961 
L 277.871616 97.138652 
L 280.014336 92.550822 
L 281.87136 89.106204 
L 283.442688 86.644345 
L 284.871168 84.795676 
L 286.1568 83.459237 
L 287.442432 82.434031 
L 288.585216 81.779636 
L 289.728 81.35908 
L 290.870784 81.161507 
L 292.013568 81.17343 
L 293.2992 81.417727 
L 294.584832 81.882625 
L 296.013312 82.625632 
L 297.727488 83.780352 
L 299.72736 85.407615 
L 302.441472 87.928465 
L 311.1552 96.245846 
L 313.869312 98.426818 
L 316.440576 100.212833 
L 318.868992 101.641742 
L 321.440256 102.89205 
L 324.01152 103.895237 
L 326.725632 104.719962 
L 329.72544 105.3983 
L 333.153792 105.938103 
L 337.153536 106.337639 
L 342.296064 106.617207 
L 349.867008 106.781353 
L 365.294592 106.83994 
L 379.008 106.842837 
L 379.008 106.842837 
" clip-path="url(#pa018ab5c2f)" style="fill: none; stroke: #9467bd; stroke-width: 1.5; stroke-linecap: square"/>
   </g>
   <g id="line2d_21">
    <path d="M 93.312 106.842752 
L 126.88128 106.733635 
L 133.880832 106.492364 
L 138.594816 106.124275 
L 142.308864 105.626375 
L 145.45152 104.995489 
L 148.30848 104.202082 
L 150.879744 103.268097 
L 153.451008 102.091063 
L 155.879424 100.731273 
L 158.30784 99.115914 
L 160.879104 97.127085 
L 163.593216 94.743406 
L 167.021568 91.42052 
L 173.30688 85.273305 
L 175.4496 83.515818 
L 177.163776 82.37205 
L 178.735104 81.591461 
L 180.020736 81.180878 
L 181.306368 81.004755 
L 182.449152 81.065265 
L 183.591936 81.346308 
L 184.73472 81.860974 
L 185.877504 82.619399 
L 187.020288 83.628262 
L 188.30592 85.065853 
L 189.7344 87.035361 
L 191.16288 89.382163 
L 192.877056 92.657483 
L 194.876928 97.019727 
L 197.448192 103.236401 
L 203.162112 117.276895 
L 205.019136 121.151839 
L 206.447616 123.676431 
L 207.733248 125.533026 
L 208.876032 126.808424 
L 209.875968 127.609586 
L 210.733056 128.049394 
L 211.590144 128.253287 
L 212.447232 128.216416 
L 213.30432 127.936709 
L 214.161408 127.414976 
L 215.161344 126.505579 
L 216.16128 125.2831 
L 217.304064 123.524126 
L 218.589696 121.124302 
L 220.161024 117.672135 
L 222.160896 112.657097 
L 229.160448 94.431924 
L 230.588928 91.528261 
L 231.87456 89.379163 
L 233.017344 87.891966 
L 234.01728 86.946428 
L 234.874368 86.414139 
L 235.731456 86.146218 
L 236.588544 86.146218 
L 237.445632 86.414139 
L 238.30272 86.946428 
L 239.159808 87.736034 
L 240.159744 88.968338 
L 241.302528 90.759312 
L 242.58816 93.211289 
L 244.159488 96.733655 
L 246.15936 101.82041 
L 252.58752 118.663731 
L 254.158848 121.970531 
L 255.44448 124.227187 
L 256.587264 125.844417 
L 257.5872 126.934431 
L 258.587136 127.705931 
L 259.444224 128.106935 
L 260.301312 128.265143 
L 261.1584 128.181197 
L 262.015488 127.858572 
L 262.872576 127.303453 
L 263.872512 126.373753 
L 265.015296 124.961561 
L 266.300928 122.966772 
L 267.729408 120.311346 
L 269.443584 116.632601 
L 271.729152 111.158197 
L 278.30016 95.087101 
L 280.300032 90.960649 
L 282.014208 87.930036 
L 283.585536 85.615985 
L 285.014016 83.920025 
L 286.299648 82.731715 
L 287.58528 81.860974 
L 288.728064 81.346308 
L 289.870848 81.065265 
L 291.013632 81.004755 
L 292.156416 81.149253 
L 293.442048 81.535091 
L 294.870528 82.209407 
L 296.441856 83.204851 
L 298.29888 84.654121 
L 300.727296 86.861366 
L 305.012736 91.133971 
L 309.155328 95.137073 
L 312.012288 97.593042 
L 314.583552 99.519274 
L 317.011968 101.073884 
L 319.440384 102.375178 
L 322.011648 103.495534 
L 324.72576 104.422822 
L 327.58272 105.159037 
L 330.725376 105.7405 
L 334.439424 106.196049 
L 339.01056 106.522769 
L 345.295872 106.730874 
L 356.009472 106.827769 
L 379.008 106.842752 
L 379.008 106.842752 
" clip-path="url(#pa018ab5c2f)" style="fill: none; stroke-dasharray: 5.55,2.4; stroke-dashoffset: 0; stroke: #000000; stroke-width: 1.5"/>
   </g>
   <g id="line2d_22">
    <path clip-path="url(#pa018ab5c2f)" style="fill: none; stroke: #000000; stroke-width: 1.5; stroke-linecap: square"/>
   </g>
   <g id="line2d_23">
    <path clip-path="url(#pa018ab5c2f)" style="fill: none; stroke-dasharray: 5.55,2.4; stroke-dashoffset: 0; stroke: #000000; stroke-width: 1.5"/>
   </g>
   <g id="line2d_24">
    <path d="M 150.224822 -1 
L 154.593792 28.323832 
L 158.879232 55.600712 
L 163.021824 80.56936 
L 167.021568 103.372046 
L 171.021312 124.892655 
L 174.878208 144.430456 
L 178.592256 162.11791 
L 182.163456 178.082571 
L 185.734656 193.025166 
L 189.163008 206.408499 
L 192.448512 218.350311 
L 195.591168 228.963437 
L 198.590976 238.355809 
L 201.590784 247.027012 
L 204.447744 254.614825 
L 207.161856 261.217367 
L 209.875968 267.229564 
L 212.447232 272.380774 
L 214.875648 276.759302 
L 217.161216 280.448549 
L 219.446784 283.719158 
L 221.589504 286.405146 
L 223.589376 288.580101 
L 225.589248 290.434536 
L 227.446272 291.869516 
L 229.303296 293.028129 
L 231.017472 293.852323 
L 232.731648 294.441032 
L 234.445824 294.794258 
L 236.16 294.912 
L 237.874176 294.794258 
L 239.588352 294.441032 
L 241.302528 293.852323 
L 243.016704 293.028129 
L 244.73088 291.968452 
L 246.587904 290.554731 
L 248.444928 288.864644 
L 250.4448 286.735477 
L 252.444672 284.285791 
L 254.587392 281.305448 
L 256.87296 277.720861 
L 259.158528 273.717635 
L 261.586944 269.005505 
L 264.158208 263.50107 
L 266.729472 257.466796 
L 269.443584 250.522475 
L 272.300544 242.574895 
L 275.157504 233.973193 
L 278.157312 224.237407 
L 281.299968 213.264513 
L 284.585472 200.946582 
L 287.870976 187.763574 
L 291.299328 173.08508 
L 294.870528 156.793358 
L 298.584576 138.765761 
L 302.298624 119.632697 
L 306.15552 98.593687 
L 310.155264 75.516268 
L 314.297856 50.263078 
L 318.440448 23.634596 
L 322.095178 -1 
L 322.095178 -1 
" clip-path="url(#pa018ab5c2f)" style="fill: none; stroke-dasharray: 1.5,2.475; stroke-dashoffset: 0; stroke: #8c564b; stroke-width: 1.5"/>
   </g>
   <g id="patch_3">
    <path d="M 57.6 307.584 
L 57.6 41.472 
" style="fill: none; stroke: #000000; stroke-width: 0.8; stroke-linejoin: miter; stroke-linecap: square"/>
   </g>
   <g id="patch_4">
    <path d="M 414.72 307.584 
L 414.72 41.472 
" style="fill: none; stroke: #000000; stroke-width: 0.8; stroke-linejoin: miter; stroke-linecap: square"/>
   </g>
   <g id="patch_5">
    <path d="M 57.6 307.584 
L 414.72 307.584 
" style="fill: none; stroke: #000000; stroke-width: 0.8; stroke-linejoin: miter; stroke-linecap: square"/>
   </g>
   <g id="patch_6">
    <path d="M 57.6 41.472 
L 414.72 41.472 
" style="fill: none; stroke: #000000; stroke-width: 0.8; stroke-linejoin: miter; stroke-linecap: square"/>
   </g>
   <g id="text_14">
    <!--   0 -->
    <g transform="translate(379.008 276.313986) scale(0.0833 -0.0833)">
     <use xlink:href="#DejaVuSans-20"/>
     <use xlink:href="#DejaVuSans-20" x="31.787109"/>
     <use xlink:href="#DejaVuSans-30" x="63.574219"/>
    </g>
   </g>
   <g id="text_15">
    <!--   1 -->
    <g transform="translate(379.008 234.520838) scale(0.0833 -0.0833)">
     <use xlink:href="#DejaVuSans-20"/>
     <use xlink:href="#DejaVuSans-20" x="31.787109"/>
     <use xlink:href="#DejaVuSans-31" x="63.574219"/>
    </g>
   </g>
   <g id="text_16">
    <!--   2 -->
    <g transform="translate(379.008 192.727691) scale(0.0833 -0.0833)">
     <use xlink:href="#DejaVuSans-20"/>
     <use xlink:href="#DejaVuSans-20" x="31.787109"/>
     <use xlink:href="#DejaVuSans-32" x="63.574219"/>
    </g>
   </g>
   <g id="text_17">
    <!--   3 -->
    <g transform="translate(379.008 150.934544) scale(0.0833 -0.0833)">
     <defs>
      <path id="DejaVuSans-33" d="M 2597 2516 
Q 3050 2419 3304 2112 
Q 3559 1806 3559 1356 
Q 3559 666 3084 287 
Q 2609 -91 1734 -91 
Q 1441 -91 1130 -33 
Q 819 25 488 141 
L 488 750 
Q 750 597 1062 519 
Q 1375 441 1716 441 
Q 2309 441 2620 675 
Q 2931 909 2931 1356 
Q 2931 1769 2642 2001 
Q 2353 2234 1838 2234 
L 1294 2234 
L 1294 2753 
L 1863 2753 
Q 2328 2753 2575 2939 
Q 2822 3125 2822 3475 
Q 2822 3834 2567 4026 
Q 2313 4219 1838 4219 
Q 1578 4219 1281 4162 
Q 984 4106 628 3988 
L 628 4550 
Q 988 4650 1302 4700 
Q 1616 4750 1894 4750 
Q 2613 4750 3031 4423 
Q 3450 4097 3450 3541 
Q 3450 3153 3228 2886 
Q 3006 2619 2597 2516 
z
" transform="scale(0.015625)"/>
     </defs>
     <use xlink:href="#DejaVuSans-20"/>
     <use xlink:href="#DejaVuSans-20" x="31.787109"/>
     <use xlink:href="#DejaVuSans-33" x="63.574219"/>
    </g>
   </g>
   <g id="text_18">
    <!--   4 -->
    <g transform="translate(379.008 109.141396) scale(0.0833 -0.0833)">
     <use xlink:href="#DejaVuSans-20"/>
     <use xlink:href="#DejaVuSans-20" x="31.787109"/>
     <use xlink:href="#DejaVuSans-34" x="63.574219"/>
    </g>
   </g>
   <g id="text_19">
    <!-- Harmonic oscillator potential: $\psi_v(x) = N_v H_v(x) e^{-x^2/2}$ -->
    <g transform="translate(84.54 35.472) scale(0.12 -0.12)">
     <defs>
      <path id="DejaVuSans-48" d="M 628 4666 
L 1259 4666 
L 1259 2753 
L 3553 2753 
L 3553 4666 
L 4184 4666 
L 4184 0 
L 3553 0 
L 3553 2222 
L 1259 2222 
L 1259 0 
L 628 0 
L 628 4666 
z
" transform="scale(0.015625)"/>
      <path id="DejaVuSans-73" d="M 2834 3397 
L 2834 2853 
Q 2591 2978 2328 3040 
Q 2066 3103 1784 3103 
Q 1356 3103 1142 2972 
Q 928 2841 928 2578 
Q 928 2378 1081 2264 
Q 1234 2150 1697 2047 
L 1894 2003 
Q 2506 1872 2764 1633 
Q 3022 1394 3022 966 
Q 3022 478 2636 193 
Q 2250 -91 1575 -91 
Q 1294 -91 989 -36 
Q 684 19 347 128 
L 347 722 
Q 666 556 975 473 
Q 1284 391 1588 391 
Q 1994 391 2212 530 
Q 2431 669 2431 922 
Q 2431 1156 2273 1281 
Q 2116 1406 1581 1522 
L 1381 1569 
Q 847 1681 609 1914 
Q 372 2147 372 2553 
Q 372 3047 722 3315 
Q 1072 3584 1716 3584 
Q 2034 3584 2315 3537 
Q 2597 3491 2834 3397 
z
" transform="scale(0.015625)"/>
      <path id="DejaVuSans-3a" d="M 750 794 
L 1409 794 
L 1409 0 
L 750 0 
L 750 794 
z
M 750 3309 
L 1409 3309 
L 1409 2516 
L 750 2516 
L 750 3309 
z
" transform="scale(0.015625)"/>
      <path id="DejaVuSans-Oblique-3c8" d="M 1591 -78 
Q 891 38 616 341 
Q 278 713 425 1472 
L 819 3500 
L 1400 3500 
L 1009 1494 
Q 900 922 1119 684 
Q 1313 478 1691 434 
L 2284 3500 
L 2856 3500 
L 2263 438 
Q 2681 481 2928 688 
Q 3247 950 3353 1497 
L 3741 3500 
L 4322 3500 
L 3928 1475 
Q 3775 688 3300 344 
Q 2872 34 2163 -75 
L 1919 -1331 
L 1347 -1331 
L 1591 -78 
z
" transform="scale(0.015625)"/>
      <path id="DejaVuSans-Oblique-76" d="M 459 3500 
L 1069 3500 
L 1581 525 
L 3256 3500 
L 3866 3500 
L 1875 0 
L 1100 0 
L 459 3500 
z
" transform="scale(0.015625)"/>
      <path id="DejaVuSans-3d" d="M 678 2906 
L 4684 2906 
L 4684 2381 
L 678 2381 
L 678 2906 
z
M 678 1631 
L 4684 1631 
L 4684 1100 
L 678 1100 
L 678 1631 
z
" transform="scale(0.015625)"/>
      <path id="DejaVuSans-Oblique-4e" d="M 1081 4666 
L 1931 4666 
L 3219 666 
L 4000 4666 
L 4616 4666 
L 3706 0 
L 2853 0 
L 1569 4025 
L 788 0 
L 172 0 
L 1081 4666 
z
" transform="scale(0.015625)"/>
      <path id="DejaVuSans-Oblique-48" d="M 1081 4666 
L 1716 4666 
L 1344 2753 
L 3634 2753 
L 4006 4666 
L 4641 4666 
L 3731 0 
L 3097 0 
L 3531 2222 
L 1241 2222 
L 806 0 
L 172 0 
L 1081 4666 
z
" transform="scale(0.015625)"/>
      <path id="DejaVuSans-Oblique-65" d="M 3078 2063 
Q 3088 2113 3092 2166 
Q 3097 2219 3097 2272 
Q 3097 2653 2873 2875 
Q 2650 3097 2266 3097 
Q 1838 3097 1509 2826 
Q 1181 2556 1013 2059 
L 3078 2063 
z
M 3578 1613 
L 903 1613 
Q 884 1494 878 1425 
Q 872 1356 872 1306 
Q 872 872 1139 634 
Q 1406 397 1894 397 
Q 2269 397 2603 481 
Q 2938 566 3225 728 
L 3116 159 
Q 2806 34 2476 -28 
Q 2147 -91 1806 -91 
Q 1078 -91 686 257 
Q 294 606 294 1247 
Q 294 1794 489 2264 
Q 684 2734 1063 3103 
Q 1306 3334 1642 3459 
Q 1978 3584 2356 3584 
Q 2950 3584 3301 3228 
Q 3653 2872 3653 2272 
Q 3653 2128 3634 1964 
Q 3616 1800 3578 1613 
z
" transform="scale(0.015625)"/>
     </defs>
     <use xlink:href="#DejaVuSans-48" transform="translate(0 0.554688)"/>
     <use xlink:href="#DejaVuSans-61" transform="translate(75.195312 0.554688)"/>
     <use xlink:href="#DejaVuSans-72" transform="translate(136.474609 0.554688)"/>
     <use xlink:href="#DejaVuSans-6d" transform="translate(177.587891 0.554688)"/>
     <use xlink:href="#DejaVuSans-6f" transform="translate(275 0.554688)"/>
     <use xlink:href="#DejaVuSans-6e" transform="translate(336.181641 0.554688)"/>
     <use xlink:href="#DejaVuSans-69" transform="translate(399.560547 0.554688)"/>
     <use xlink:href="#DejaVuSans-63" transform="translate(427.34375 0.554688)"/>
     <use xlink:href="#DejaVuSans-20" transform="translate(482.324219 0.554688)"/>
     <use xlink:href="#DejaVuSans-6f" transform="translate(514.111328 0.554688)"/>
     <use xlink:href="#DejaVuSans-73" transform="translate(575.292969 0.554688)"/>
     <use xlink:href="#DejaVuSans-63" transform="translate(627.392578 0.554688)"/>
     <use xlink:href="#DejaVuSans-69" transform="translate(682.373047 0.554688)"/>
     <use xlink:href="#DejaVuSans-6c" transform="translate(710.15625 0.554688)"/>
     <use xlink:href="#DejaVuSans-6c" transform="translate(737.939453 0.554688)"/>
     <use xlink:href="#DejaVuSans-61" transform="translate(765.722656 0.554688)"/>
     <use xlink:href="#DejaVuSans-74" transform="translate(827.001953 0.554688)"/>
     <use xlink:href="#DejaVuSans-6f" transform="translate(866.210938 0.554688)"/>
     <use xlink:href="#DejaVuSans-72" transform="translate(927.392578 0.554688)"/>
     <use xlink:href="#DejaVuSans-20" transform="translate(968.505859 0.554688)"/>
     <use xlink:href="#DejaVuSans-70" transform="translate(1000.292969 0.554688)"/>
     <use xlink:href="#DejaVuSans-6f" transform="translate(1063.769531 0.554688)"/>
     <use xlink:href="#DejaVuSans-74" transform="translate(1124.951172 0.554688)"/>
     <use xlink:href="#DejaVuSans-65" transform="translate(1164.160156 0.554688)"/>
     <use xlink:href="#DejaVuSans-6e" transform="translate(1225.683594 0.554688)"/>
     <use xlink:href="#DejaVuSans-74" transform="translate(1289.0625 0.554688)"/>
     <use xlink:href="#DejaVuSans-69" transform="translate(1328.271484 0.554688)"/>
     <use xlink:href="#DejaVuSans-61" transform="translate(1356.054688 0.554688)"/>
     <use xlink:href="#DejaVuSans-6c" transform="translate(1417.333984 0.554688)"/>
     <use xlink:href="#DejaVuSans-3a" transform="translate(1445.117188 0.554688)"/>
     <use xlink:href="#DejaVuSans-20" transform="translate(1478.808594 0.554688)"/>
     <use xlink:href="#DejaVuSans-Oblique-3c8" transform="translate(1510.595703 0.554688)"/>
     <use xlink:href="#DejaVuSans-Oblique-76" transform="translate(1576.5625 -15.851562) scale(0.7)"/>
     <use xlink:href="#DejaVuSans-28" transform="translate(1620.722656 0.554688)"/>
     <use xlink:href="#DejaVuSans-Oblique-78" transform="translate(1659.736328 0.554688)"/>
     <use xlink:href="#DejaVuSans-29" transform="translate(1718.916016 0.554688)"/>
     <use xlink:href="#DejaVuSans-3d" transform="translate(1777.412109 0.554688)"/>
     <use xlink:href="#DejaVuSans-Oblique-4e" transform="translate(1880.683594 0.554688)"/>
     <use xlink:href="#DejaVuSans-Oblique-76" transform="translate(1955.488281 -15.851562) scale(0.7)"/>
     <use xlink:href="#DejaVuSans-Oblique-48" transform="translate(1999.648438 0.554688)"/>
     <use xlink:href="#DejaVuSans-Oblique-76" transform="translate(2074.84375 -15.851562) scale(0.7)"/>
     <use xlink:href="#DejaVuSans-28" transform="translate(2119.003906 0.554688)"/>
     <use xlink:href="#DejaVuSans-Oblique-78" transform="translate(2158.017578 0.554688)"/>
     <use xlink:href="#DejaVuSans-29" transform="translate(2217.197266 0.554688)"/>
     <use xlink:href="#DejaVuSans-Oblique-65" transform="translate(2256.210938 0.554688)"/>
     <use xlink:href="#DejaVuSans-2212" transform="translate(2322.384271 38.835938) scale(0.7)"/>
     <use xlink:href="#DejaVuSans-Oblique-78" transform="translate(2381.036615 38.835938) scale(0.7)"/>
     <use xlink:href="#DejaVuSans-32" transform="translate(2425.588698 65.632812) scale(0.49)"/>
     <use xlink:href="#DejaVuSans-2f" transform="translate(2458.678053 38.835938) scale(0.7)"/>
     <use xlink:href="#DejaVuSans-32" transform="translate(2479.724538 38.835938) scale(0.7)"/>
    </g>
   </g>
   <g id="legend_1">
    <g id="patch_7">
     <path d="M 319.19182 81.484634 
L 408.889 81.484634 
Q 410.555 81.484634 410.555 79.818634 
L 410.555 47.303 
Q 410.555 45.637 408.889 45.637 
L 319.19182 45.637 
Q 317.52582 45.637 317.52582 47.303 
L 317.52582 79.818634 
Q 317.52582 81.484634 319.19182 81.484634 
z
" style="fill: #ffffff; opacity: 0.8; stroke: #cccccc; stroke-linejoin: miter"/>
    </g>
    <g id="line2d_25">
     <path d="M 320.85782 52.382998 
L 329.18782 52.382998 
L 337.51782 52.382998 
" style="fill: none; stroke: #000000; stroke-width: 1.5; stroke-linecap: square"/>
    </g>
    <g id="text_20">
     <!-- PyDiatomic -->
     <g transform="translate(344.18182 55.298498) scale(0.0833 -0.0833)">
      <defs>
       <path id="DejaVuSans-50" d="M 1259 4147 
L 1259 2394 
L 2053 2394 
Q 2494 2394 2734 2622 
Q 2975 2850 2975 3272 
Q 2975 3691 2734 3919 
Q 2494 4147 2053 4147 
L 1259 4147 
z
M 628 4666 
L 2053 4666 
Q 2838 4666 3239 4311 
Q 3641 3956 3641 3272 
Q 3641 2581 3239 2228 
Q 2838 1875 2053 1875 
L 1259 1875 
L 1259 0 
L 628 0 
L 628 4666 
z
" transform="scale(0.015625)"/>
       <path id="DejaVuSans-44" d="M 1259 4147 
L 1259 519 
L 2022 519 
Q 2988 519 3436 956 
Q 3884 1394 3884 2338 
Q 3884 3275 3436 3711 
Q 2988 4147 2022 4147 
L 1259 4147 
z
M 628 4666 
L 1925 4666 
Q 3281 4666 3915 4102 
Q 4550 3538 4550 2338 
Q 4550 1131 3912 565 
Q 3275 0 1925 0 
L 628 0 
L 628 4666 
z
" transform="scale(0.015625)"/>
      </defs>
      <use xlink:href="#DejaVuSans-50"/>
      <use xlink:href="#DejaVuSans-79" x="60.302734"/>
      <use xlink:href="#DejaVuSans-44" x="119.482422"/>
      <use xlink:href="#DejaVuSans-69" x="196.484375"/>
      <use xlink:href="#DejaVuSans-61" x="224.267578"/>
      <use xlink:href="#DejaVuSans-74" x="285.546875"/>
      <use xlink:href="#DejaVuSans-6f" x="324.755859"/>
      <use xlink:href="#DejaVuSans-6d" x="385.9375"/>
      <use xlink:href="#DejaVuSans-69" x="483.349609"/>
      <use xlink:href="#DejaVuSans-63" x="511.132812"/>
     </g>
    </g>
    <g id="line2d_26">
     <path d="M 320.85782 62.943877 
L 329.18782 62.943877 
L 337.51782 62.943877 
" style="fill: none; stroke-dasharray: 5.55,2.4; stroke-dashoffset: 0; stroke: #000000; stroke-width: 1.5"/>
    </g>
    <g id="text_21">
     <!-- analytical -->
     <g transform="translate(344.18182 65.859377) scale(0.0833 -0.0833)">
      <use xlink:href="#DejaVuSans-61"/>
      <use xlink:href="#DejaVuSans-6e" x="61.279297"/>
      <use xlink:href="#DejaVuSans-61" x="124.658203"/>
      <use xlink:href="#DejaVuSans-6c" x="185.9375"/>
      <use xlink:href="#DejaVuSans-79" x="213.720703"/>
      <use xlink:href="#DejaVuSans-74" x="272.900391"/>
      <use xlink:href="#DejaVuSans-69" x="312.109375"/>
      <use xlink:href="#DejaVuSans-63" x="339.892578"/>
      <use xlink:href="#DejaVuSans-61" x="394.873047"/>
      <use xlink:href="#DejaVuSans-6c" x="456.152344"/>
     </g>
    </g>
    <g id="line2d_27">
     <path d="M 320.85782 73.504755 
L 329.18782 73.504755 
L 337.51782 73.504755 
" style="fill: none; stroke-dasharray: 1.5,2.475; stroke-dashoffset: 0; stroke: #8c564b; stroke-width: 1.5"/>
    </g>
    <g id="text_22">
     <!-- potential curve -->
     <g transform="translate(344.18182 76.420255) scale(0.0833 -0.0833)">
      <use xlink:href="#DejaVuSans-70"/>
      <use xlink:href="#DejaVuSans-6f" x="63.476562"/>
      <use xlink:href="#DejaVuSans-74" x="124.658203"/>
      <use xlink:href="#DejaVuSans-65" x="163.867188"/>
      <use xlink:href="#DejaVuSans-6e" x="225.390625"/>
      <use xlink:href="#DejaVuSans-74" x="288.769531"/>
      <use xlink:href="#DejaVuSans-69" x="327.978516"/>
      <use xlink:href="#DejaVuSans-61" x="355.761719"/>
      <use xlink:href="#DejaVuSans-6c" x="417.041016"/>
      <use xlink:href="#DejaVuSans-20" x="444.824219"/>
      <use xlink:href="#DejaVuSans-63" x="476.611328"/>
      <use xlink:href="#DejaVuSans-75" x="531.591797"/>
      <use xlink:href="#DejaVuSans-72" x="594.970703"/>
      <use xlink:href="#DejaVuSans-76" x="636.083984"/>
      <use xlink:href="#DejaVuSans-65" x="695.263672"/>
     </g>
    </g>
   </g>
  </g>
 </g>
 <defs>
  <clipPath id="pa018ab5c2f">
   <rect x="57.6" y="41.472" width="357.12" height="266.112"/>
  </clipPath>
 </defs>
</svg>
