<?xml version="1.0" encoding="utf-8" standalone="no"?>
<!DOCTYPE svg PUBLIC "-//W3C//DTD SVG 1.1//EN"
  "http://www.w3.org/Graphics/SVG/1.1/DTD/svg11.dtd">
<svg xmlns:xlink="http://www.w3.org/1999/xlink" width="460.8pt" height="345.6pt" viewBox="0 0 460.8 345.6" xmlns="http://www.w3.org/2000/svg" version="1.1">
 <metadata>
  <rdf:RDF xmlns:dc="http://purl.org/dc/elements/1.1/" xmlns:cc="http://creativecommons.org/ns#" xmlns:rdf="http://www.w3.org/1999/02/22-rdf-syntax-ns#">
   <cc:Work>
    <dc:type rdf:resource="http://purl.org/dc/dcmitype/StillImage"/>
    <dc:date>2023-07-11T11:43:45.111027</dc:date>
    <dc:format>image/svg+xml</dc:format>
    <dc:creator>
     <cc:Agent>
      <dc:title>Matplotlib v3.7.2, https://matplotlib.org/</dc:title>
     </cc:Agent>
    </dc:creator>
   </cc:Work>
  </rdf:RDF>
 </metadata>
 <defs>
  <style type="text/css">*{stroke-linejoin: round; stroke-linecap: butt}</style>
 </defs>
 <g id="figure_1">
  <g id="patch_1">
   <path d="M 0 345.6 
L 460.8 345.6 
L 460.8 0 
L 0 0 
z
" style="fill: #ffffff"/>
  </g>
  <g id="axes_1">
   <g id="patch_2">
    <path d="M 77.312 300.76 
L 238.810598 300.76 
L 238.810598 14.76 
L 77.312 14.76 
z
" style="fill: #ffffff"/>
   </g>
   <g id="matplotlib.axis_1">
    <g id="xtick_1">
     <g id="line2d_1">
      <defs>
       <path id="ma7dda96a5b" d="M 0 0 
L 0 3.5 
" style="stroke: #000000; stroke-width: 0.8"/>
      </defs>
      <g>
       <use xlink:href="#ma7dda96a5b" x="77.312" y="300.76" style="stroke: #000000; stroke-width: 0.8"/>
      </g>
     </g>
     <g id="text_1">
      <!-- 0.5 -->
      <g transform="translate(69.360438 315.358437) scale(0.1 -0.1)">
       <defs>
        <path id="DejaVuSans-30" d="M 2034 4250 
Q 1547 4250 1301 3770 
Q 1056 3291 1056 2328 
Q 1056 1369 1301 889 
Q 1547 409 2034 409 
Q 2525 409 2770 889 
Q 3016 1369 3016 2328 
Q 3016 3291 2770 3770 
Q 2525 4250 2034 4250 
z
M 2034 4750 
Q 2819 4750 3233 4129 
Q 3647 3509 3647 2328 
Q 3647 1150 3233 529 
Q 2819 -91 2034 -91 
Q 1250 -91 836 529 
Q 422 1150 422 2328 
Q 422 3509 836 4129 
Q 1250 4750 2034 4750 
z
" transform="scale(0.015625)"/>
        <path id="DejaVuSans-2e" d="M 684 794 
L 1344 794 
L 1344 0 
L 684 0 
L 684 794 
z
" transform="scale(0.015625)"/>
        <path id="DejaVuSans-35" d="M 691 4666 
L 3169 4666 
L 3169 4134 
L 1269 4134 
L 1269 2991 
Q 1406 3038 1543 3061 
Q 1681 3084 1819 3084 
Q 2600 3084 3056 2656 
Q 3513 2228 3513 1497 
Q 3513 744 3044 326 
Q 2575 -91 1722 -91 
Q 1428 -91 1123 -41 
Q 819 9 494 109 
L 494 744 
Q 775 591 1075 516 
Q 1375 441 1709 441 
Q 2250 441 2565 725 
Q 2881 1009 2881 1497 
Q 2881 1984 2565 2268 
Q 2250 2553 1709 2553 
Q 1456 2553 1204 2497 
Q 953 2441 691 2322 
L 691 4666 
z
" transform="scale(0.015625)"/>
       </defs>
       <use xlink:href="#DejaVuSans-30"/>
       <use xlink:href="#DejaVuSans-2e" x="63.623047"/>
       <use xlink:href="#DejaVuSans-35" x="95.410156"/>
      </g>
     </g>
    </g>
    <g id="xtick_2">
     <g id="line2d_2">
      <g>
       <use xlink:href="#ma7dda96a5b" x="109.61172" y="300.76" style="stroke: #000000; stroke-width: 0.8"/>
      </g>
     </g>
     <g id="text_2">
      <!-- 1.0 -->
      <g transform="translate(101.660157 315.358437) scale(0.1 -0.1)">
       <defs>
        <path id="DejaVuSans-31" d="M 794 531 
L 1825 531 
L 1825 4091 
L 703 3866 
L 703 4441 
L 1819 4666 
L 2450 4666 
L 2450 531 
L 3481 531 
L 3481 0 
L 794 0 
L 794 531 
z
" transform="scale(0.015625)"/>
       </defs>
       <use xlink:href="#DejaVuSans-31"/>
       <use xlink:href="#DejaVuSans-2e" x="63.623047"/>
       <use xlink:href="#DejaVuSans-30" x="95.410156"/>
      </g>
     </g>
    </g>
    <g id="xtick_3">
     <g id="line2d_3">
      <g>
       <use xlink:href="#ma7dda96a5b" x="141.911439" y="300.76" style="stroke: #000000; stroke-width: 0.8"/>
      </g>
     </g>
     <g id="text_3">
      <!-- 1.5 -->
      <g transform="translate(133.959877 315.358437) scale(0.1 -0.1)">
       <use xlink:href="#DejaVuSans-31"/>
       <use xlink:href="#DejaVuSans-2e" x="63.623047"/>
       <use xlink:href="#DejaVuSans-35" x="95.410156"/>
      </g>
     </g>
    </g>
    <g id="xtick_4">
     <g id="line2d_4">
      <g>
       <use xlink:href="#ma7dda96a5b" x="174.211159" y="300.76" style="stroke: #000000; stroke-width: 0.8"/>
      </g>
     </g>
     <g id="text_4">
      <!-- 2.0 -->
      <g transform="translate(166.259596 315.358437) scale(0.1 -0.1)">
       <defs>
        <path id="DejaVuSans-32" d="M 1228 531 
L 3431 531 
L 3431 0 
L 469 0 
L 469 531 
Q 828 903 1448 1529 
Q 2069 2156 2228 2338 
Q 2531 2678 2651 2914 
Q 2772 3150 2772 3378 
Q 2772 3750 2511 3984 
Q 2250 4219 1831 4219 
Q 1534 4219 1204 4116 
Q 875 4013 500 3803 
L 500 4441 
Q 881 4594 1212 4672 
Q 1544 4750 1819 4750 
Q 2544 4750 2975 4387 
Q 3406 4025 3406 3419 
Q 3406 3131 3298 2873 
Q 3191 2616 2906 2266 
Q 2828 2175 2409 1742 
Q 1991 1309 1228 531 
z
" transform="scale(0.015625)"/>
       </defs>
       <use xlink:href="#DejaVuSans-32"/>
       <use xlink:href="#DejaVuSans-2e" x="63.623047"/>
       <use xlink:href="#DejaVuSans-30" x="95.410156"/>
      </g>
     </g>
    </g>
    <g id="xtick_5">
     <g id="line2d_5">
      <g>
       <use xlink:href="#ma7dda96a5b" x="206.510878" y="300.76" style="stroke: #000000; stroke-width: 0.8"/>
      </g>
     </g>
     <g id="text_5">
      <!-- 2.5 -->
      <g transform="translate(198.559316 315.358437) scale(0.1 -0.1)">
       <use xlink:href="#DejaVuSans-32"/>
       <use xlink:href="#DejaVuSans-2e" x="63.623047"/>
       <use xlink:href="#DejaVuSans-35" x="95.410156"/>
      </g>
     </g>
    </g>
    <g id="xtick_6">
     <g id="line2d_6">
      <g>
       <use xlink:href="#ma7dda96a5b" x="238.810598" y="300.76" style="stroke: #000000; stroke-width: 0.8"/>
      </g>
     </g>
     <g id="text_6">
      <!-- 3.0 -->
      <g transform="translate(230.859036 315.358437) scale(0.1 -0.1)">
       <defs>
        <path id="DejaVuSans-33" d="M 2597 2516 
Q 3050 2419 3304 2112 
Q 3559 1806 3559 1356 
Q 3559 666 3084 287 
Q 2609 -91 1734 -91 
Q 1441 -91 1130 -33 
Q 819 25 488 141 
L 488 750 
Q 750 597 1062 519 
Q 1375 441 1716 441 
Q 2309 441 2620 675 
Q 2931 909 2931 1356 
Q 2931 1769 2642 2001 
Q 2353 2234 1838 2234 
L 1294 2234 
L 1294 2753 
L 1863 2753 
Q 2328 2753 2575 2939 
Q 2822 3125 2822 3475 
Q 2822 3834 2567 4026 
Q 2313 4219 1838 4219 
Q 1578 4219 1281 4162 
Q 984 4106 628 3988 
L 628 4550 
Q 988 4650 1302 4700 
Q 1616 4750 1894 4750 
Q 2613 4750 3031 4423 
Q 3450 4097 3450 3541 
Q 3450 3153 3228 2886 
Q 3006 2619 2597 2516 
z
" transform="scale(0.015625)"/>
       </defs>
       <use xlink:href="#DejaVuSans-33"/>
       <use xlink:href="#DejaVuSans-2e" x="63.623047"/>
       <use xlink:href="#DejaVuSans-30" x="95.410156"/>
      </g>
     </g>
    </g>
    <g id="text_7">
     <!-- internuclear distance ($\AA$) -->
     <g transform="translate(96.011299 330.058437) scale(0.1 -0.1)">
      <defs>
       <path id="DejaVuSans-69" d="M 603 3500 
L 1178 3500 
L 1178 0 
L 603 0 
L 603 3500 
z
M 603 4863 
L 1178 4863 
L 1178 4134 
L 603 4134 
L 603 4863 
z
" transform="scale(0.015625)"/>
       <path id="DejaVuSans-6e" d="M 3513 2113 
L 3513 0 
L 2938 0 
L 2938 2094 
Q 2938 2591 2744 2837 
Q 2550 3084 2163 3084 
Q 1697 3084 1428 2787 
Q 1159 2491 1159 1978 
L 1159 0 
L 581 0 
L 581 3500 
L 1159 3500 
L 1159 2956 
Q 1366 3272 1645 3428 
Q 1925 3584 2291 3584 
Q 2894 3584 3203 3211 
Q 3513 2838 3513 2113 
z
" transform="scale(0.015625)"/>
       <path id="DejaVuSans-74" d="M 1172 4494 
L 1172 3500 
L 2356 3500 
L 2356 3053 
L 1172 3053 
L 1172 1153 
Q 1172 725 1289 603 
Q 1406 481 1766 481 
L 2356 481 
L 2356 0 
L 1766 0 
Q 1100 0 847 248 
Q 594 497 594 1153 
L 594 3053 
L 172 3053 
L 172 3500 
L 594 3500 
L 594 4494 
L 1172 4494 
z
" transform="scale(0.015625)"/>
       <path id="DejaVuSans-65" d="M 3597 1894 
L 3597 1613 
L 953 1613 
Q 991 1019 1311 708 
Q 1631 397 2203 397 
Q 2534 397 2845 478 
Q 3156 559 3463 722 
L 3463 178 
Q 3153 47 2828 -22 
Q 2503 -91 2169 -91 
Q 1331 -91 842 396 
Q 353 884 353 1716 
Q 353 2575 817 3079 
Q 1281 3584 2069 3584 
Q 2775 3584 3186 3129 
Q 3597 2675 3597 1894 
z
M 3022 2063 
Q 3016 2534 2758 2815 
Q 2500 3097 2075 3097 
Q 1594 3097 1305 2825 
Q 1016 2553 972 2059 
L 3022 2063 
z
" transform="scale(0.015625)"/>
       <path id="DejaVuSans-72" d="M 2631 2963 
Q 2534 3019 2420 3045 
Q 2306 3072 2169 3072 
Q 1681 3072 1420 2755 
Q 1159 2438 1159 1844 
L 1159 0 
L 581 0 
L 581 3500 
L 1159 3500 
L 1159 2956 
Q 1341 3275 1631 3429 
Q 1922 3584 2338 3584 
Q 2397 3584 2469 3576 
Q 2541 3569 2628 3553 
L 2631 2963 
z
" transform="scale(0.015625)"/>
       <path id="DejaVuSans-75" d="M 544 1381 
L 544 3500 
L 1119 3500 
L 1119 1403 
Q 1119 906 1312 657 
Q 1506 409 1894 409 
Q 2359 409 2629 706 
Q 2900 1003 2900 1516 
L 2900 3500 
L 3475 3500 
L 3475 0 
L 2900 0 
L 2900 538 
Q 2691 219 2414 64 
Q 2138 -91 1772 -91 
Q 1169 -91 856 284 
Q 544 659 544 1381 
z
M 1991 3584 
L 1991 3584 
z
" transform="scale(0.015625)"/>
       <path id="DejaVuSans-63" d="M 3122 3366 
L 3122 2828 
Q 2878 2963 2633 3030 
Q 2388 3097 2138 3097 
Q 1578 3097 1268 2742 
Q 959 2388 959 1747 
Q 959 1106 1268 751 
Q 1578 397 2138 397 
Q 2388 397 2633 464 
Q 2878 531 3122 666 
L 3122 134 
Q 2881 22 2623 -34 
Q 2366 -91 2075 -91 
Q 1284 -91 818 406 
Q 353 903 353 1747 
Q 353 2603 823 3093 
Q 1294 3584 2113 3584 
Q 2378 3584 2631 3529 
Q 2884 3475 3122 3366 
z
" transform="scale(0.015625)"/>
       <path id="DejaVuSans-6c" d="M 603 4863 
L 1178 4863 
L 1178 0 
L 603 0 
L 603 4863 
z
" transform="scale(0.015625)"/>
       <path id="DejaVuSans-61" d="M 2194 1759 
Q 1497 1759 1228 1600 
Q 959 1441 959 1056 
Q 959 750 1161 570 
Q 1363 391 1709 391 
Q 2188 391 2477 730 
Q 2766 1069 2766 1631 
L 2766 1759 
L 2194 1759 
z
M 3341 1997 
L 3341 0 
L 2766 0 
L 2766 531 
Q 2569 213 2275 61 
Q 1981 -91 1556 -91 
Q 1019 -91 701 211 
Q 384 513 384 1019 
Q 384 1609 779 1909 
Q 1175 2209 1959 2209 
L 2766 2209 
L 2766 2266 
Q 2766 2663 2505 2880 
Q 2244 3097 1772 3097 
Q 1472 3097 1187 3025 
Q 903 2953 641 2809 
L 641 3341 
Q 956 3463 1253 3523 
Q 1550 3584 1831 3584 
Q 2591 3584 2966 3190 
Q 3341 2797 3341 1997 
z
" transform="scale(0.015625)"/>
       <path id="DejaVuSans-20" transform="scale(0.015625)"/>
       <path id="DejaVuSans-64" d="M 2906 2969 
L 2906 4863 
L 3481 4863 
L 3481 0 
L 2906 0 
L 2906 525 
Q 2725 213 2448 61 
Q 2172 -91 1784 -91 
Q 1150 -91 751 415 
Q 353 922 353 1747 
Q 353 2572 751 3078 
Q 1150 3584 1784 3584 
Q 2172 3584 2448 3432 
Q 2725 3281 2906 2969 
z
M 947 1747 
Q 947 1113 1208 752 
Q 1469 391 1925 391 
Q 2381 391 2643 752 
Q 2906 1113 2906 1747 
Q 2906 2381 2643 2742 
Q 2381 3103 1925 3103 
Q 1469 3103 1208 2742 
Q 947 2381 947 1747 
z
" transform="scale(0.015625)"/>
       <path id="DejaVuSans-73" d="M 2834 3397 
L 2834 2853 
Q 2591 2978 2328 3040 
Q 2066 3103 1784 3103 
Q 1356 3103 1142 2972 
Q 928 2841 928 2578 
Q 928 2378 1081 2264 
Q 1234 2150 1697 2047 
L 1894 2003 
Q 2506 1872 2764 1633 
Q 3022 1394 3022 966 
Q 3022 478 2636 193 
Q 2250 -91 1575 -91 
Q 1294 -91 989 -36 
Q 684 19 347 128 
L 347 722 
Q 666 556 975 473 
Q 1284 391 1588 391 
Q 1994 391 2212 530 
Q 2431 669 2431 922 
Q 2431 1156 2273 1281 
Q 2116 1406 1581 1522 
L 1381 1569 
Q 847 1681 609 1914 
Q 372 2147 372 2553 
Q 372 3047 722 3315 
Q 1072 3584 1716 3584 
Q 2034 3584 2315 3537 
Q 2597 3491 2834 3397 
z
" transform="scale(0.015625)"/>
       <path id="DejaVuSans-28" d="M 1984 4856 
Q 1566 4138 1362 3434 
Q 1159 2731 1159 2009 
Q 1159 1288 1364 580 
Q 1569 -128 1984 -844 
L 1484 -844 
Q 1016 -109 783 600 
Q 550 1309 550 2009 
Q 550 2706 781 3412 
Q 1013 4119 1484 4856 
L 1984 4856 
z
" transform="scale(0.015625)"/>
       <path id="DejaVuSans-Oblique-c5" d="M 3188 5081 
Q 3188 5278 3048 5417 
Q 2909 5556 2713 5556 
Q 2513 5556 2377 5420 
Q 2241 5284 2241 5081 
Q 2241 4884 2377 4746 
Q 2513 4609 2713 4609 
Q 2909 4609 3048 4746 
Q 3188 4884 3188 5081 
z
M 2203 4397 
Q 2034 4513 1945 4689 
Q 1856 4866 1856 5081 
Q 1856 5438 2106 5689 
Q 2356 5941 2713 5941 
Q 3069 5941 3320 5689 
Q 3572 5438 3572 5081 
Q 3572 4834 3458 4643 
Q 3344 4453 3128 4341 
L 3938 0 
L 3278 0 
L 3084 1197 
L 984 1197 
L 325 0 
L -341 0 
L 2203 4397 
z
M 2584 4044 
L 1275 1722 
L 2988 1722 
L 2584 4044 
z
" transform="scale(0.015625)"/>
       <path id="DejaVuSans-29" d="M 513 4856 
L 1013 4856 
Q 1481 4119 1714 3412 
Q 1947 2706 1947 2009 
Q 1947 1309 1714 600 
Q 1481 -109 1013 -844 
L 513 -844 
Q 928 -128 1133 580 
Q 1338 1288 1338 2009 
Q 1338 2731 1133 3434 
Q 928 4138 513 4856 
z
" transform="scale(0.015625)"/>
      </defs>
      <use xlink:href="#DejaVuSans-69" transform="translate(0 0.171875)"/>
      <use xlink:href="#DejaVuSans-6e" transform="translate(27.783203 0.171875)"/>
      <use xlink:href="#DejaVuSans-74" transform="translate(91.162109 0.171875)"/>
      <use xlink:href="#DejaVuSans-65" transform="translate(130.371094 0.171875)"/>
      <use xlink:href="#DejaVuSans-72" transform="translate(191.894531 0.171875)"/>
      <use xlink:href="#DejaVuSans-6e" transform="translate(233.007812 0.171875)"/>
      <use xlink:href="#DejaVuSans-75" transform="translate(296.386719 0.171875)"/>
      <use xlink:href="#DejaVuSans-63" transform="translate(359.765625 0.171875)"/>
      <use xlink:href="#DejaVuSans-6c" transform="translate(414.746094 0.171875)"/>
      <use xlink:href="#DejaVuSans-65" transform="translate(442.529297 0.171875)"/>
      <use xlink:href="#DejaVuSans-61" transform="translate(504.052734 0.171875)"/>
      <use xlink:href="#DejaVuSans-72" transform="translate(565.332031 0.171875)"/>
      <use xlink:href="#DejaVuSans-20" transform="translate(606.445312 0.171875)"/>
      <use xlink:href="#DejaVuSans-64" transform="translate(638.232422 0.171875)"/>
      <use xlink:href="#DejaVuSans-69" transform="translate(701.708984 0.171875)"/>
      <use xlink:href="#DejaVuSans-73" transform="translate(729.492188 0.171875)"/>
      <use xlink:href="#DejaVuSans-74" transform="translate(781.591797 0.171875)"/>
      <use xlink:href="#DejaVuSans-61" transform="translate(820.800781 0.171875)"/>
      <use xlink:href="#DejaVuSans-6e" transform="translate(882.080078 0.171875)"/>
      <use xlink:href="#DejaVuSans-63" transform="translate(945.458984 0.171875)"/>
      <use xlink:href="#DejaVuSans-65" transform="translate(1000.439453 0.171875)"/>
      <use xlink:href="#DejaVuSans-20" transform="translate(1061.962891 0.171875)"/>
      <use xlink:href="#DejaVuSans-28" transform="translate(1093.75 0.171875)"/>
      <use xlink:href="#DejaVuSans-Oblique-c5" transform="translate(1132.763672 0.171875)"/>
      <use xlink:href="#DejaVuSans-29" transform="translate(1201.171875 0.171875)"/>
     </g>
    </g>
   </g>
   <g id="matplotlib.axis_2">
    <g id="ytick_1">
     <g id="line2d_7">
      <defs>
       <path id="mb4c11446a5" d="M 0 0 
L -3.5 0 
" style="stroke: #000000; stroke-width: 0.8"/>
      </defs>
      <g>
       <use xlink:href="#mb4c11446a5" x="77.312" y="300.76" style="stroke: #000000; stroke-width: 0.8"/>
      </g>
     </g>
     <g id="text_8">
      <!-- −10000 -->
      <g transform="translate(30.119813 304.559219) scale(0.1 -0.1)">
       <defs>
        <path id="DejaVuSans-2212" d="M 678 2272 
L 4684 2272 
L 4684 1741 
L 678 1741 
L 678 2272 
z
" transform="scale(0.015625)"/>
       </defs>
       <use xlink:href="#DejaVuSans-2212"/>
       <use xlink:href="#DejaVuSans-31" x="83.789062"/>
       <use xlink:href="#DejaVuSans-30" x="147.412109"/>
       <use xlink:href="#DejaVuSans-30" x="211.035156"/>
       <use xlink:href="#DejaVuSans-30" x="274.658203"/>
       <use xlink:href="#DejaVuSans-30" x="338.28125"/>
      </g>
     </g>
    </g>
    <g id="ytick_2">
     <g id="line2d_8">
      <g>
       <use xlink:href="#mb4c11446a5" x="77.312" y="268.982222" style="stroke: #000000; stroke-width: 0.8"/>
      </g>
     </g>
     <g id="text_9">
      <!-- 0 -->
      <g transform="translate(63.9495 272.781441) scale(0.1 -0.1)">
       <use xlink:href="#DejaVuSans-30"/>
      </g>
     </g>
    </g>
    <g id="ytick_3">
     <g id="line2d_9">
      <g>
       <use xlink:href="#mb4c11446a5" x="77.312" y="237.204444" style="stroke: #000000; stroke-width: 0.8"/>
      </g>
     </g>
     <g id="text_10">
      <!-- 10000 -->
      <g transform="translate(38.4995 241.003663) scale(0.1 -0.1)">
       <use xlink:href="#DejaVuSans-31"/>
       <use xlink:href="#DejaVuSans-30" x="63.623047"/>
       <use xlink:href="#DejaVuSans-30" x="127.246094"/>
       <use xlink:href="#DejaVuSans-30" x="190.869141"/>
       <use xlink:href="#DejaVuSans-30" x="254.492188"/>
      </g>
     </g>
    </g>
    <g id="ytick_4">
     <g id="line2d_10">
      <g>
       <use xlink:href="#mb4c11446a5" x="77.312" y="205.426667" style="stroke: #000000; stroke-width: 0.8"/>
      </g>
     </g>
     <g id="text_11">
      <!-- 20000 -->
      <g transform="translate(38.4995 209.225885) scale(0.1 -0.1)">
       <use xlink:href="#DejaVuSans-32"/>
       <use xlink:href="#DejaVuSans-30" x="63.623047"/>
       <use xlink:href="#DejaVuSans-30" x="127.246094"/>
       <use xlink:href="#DejaVuSans-30" x="190.869141"/>
       <use xlink:href="#DejaVuSans-30" x="254.492188"/>
      </g>
     </g>
    </g>
    <g id="ytick_5">
     <g id="line2d_11">
      <g>
       <use xlink:href="#mb4c11446a5" x="77.312" y="173.648889" style="stroke: #000000; stroke-width: 0.8"/>
      </g>
     </g>
     <g id="text_12">
      <!-- 30000 -->
      <g transform="translate(38.4995 177.448108) scale(0.1 -0.1)">
       <use xlink:href="#DejaVuSans-33"/>
       <use xlink:href="#DejaVuSans-30" x="63.623047"/>
       <use xlink:href="#DejaVuSans-30" x="127.246094"/>
       <use xlink:href="#DejaVuSans-30" x="190.869141"/>
       <use xlink:href="#DejaVuSans-30" x="254.492188"/>
      </g>
     </g>
    </g>
    <g id="ytick_6">
     <g id="line2d_12">
      <g>
       <use xlink:href="#mb4c11446a5" x="77.312" y="141.871111" style="stroke: #000000; stroke-width: 0.8"/>
      </g>
     </g>
     <g id="text_13">
      <!-- 40000 -->
      <g transform="translate(38.4995 145.67033) scale(0.1 -0.1)">
       <defs>
        <path id="DejaVuSans-34" d="M 2419 4116 
L 825 1625 
L 2419 1625 
L 2419 4116 
z
M 2253 4666 
L 3047 4666 
L 3047 1625 
L 3713 1625 
L 3713 1100 
L 3047 1100 
L 3047 0 
L 2419 0 
L 2419 1100 
L 313 1100 
L 313 1709 
L 2253 4666 
z
" transform="scale(0.015625)"/>
       </defs>
       <use xlink:href="#DejaVuSans-34"/>
       <use xlink:href="#DejaVuSans-30" x="63.623047"/>
       <use xlink:href="#DejaVuSans-30" x="127.246094"/>
       <use xlink:href="#DejaVuSans-30" x="190.869141"/>
       <use xlink:href="#DejaVuSans-30" x="254.492188"/>
      </g>
     </g>
    </g>
    <g id="ytick_7">
     <g id="line2d_13">
      <g>
       <use xlink:href="#mb4c11446a5" x="77.312" y="110.093333" style="stroke: #000000; stroke-width: 0.8"/>
      </g>
     </g>
     <g id="text_14">
      <!-- 50000 -->
      <g transform="translate(38.4995 113.892552) scale(0.1 -0.1)">
       <use xlink:href="#DejaVuSans-35"/>
       <use xlink:href="#DejaVuSans-30" x="63.623047"/>
       <use xlink:href="#DejaVuSans-30" x="127.246094"/>
       <use xlink:href="#DejaVuSans-30" x="190.869141"/>
       <use xlink:href="#DejaVuSans-30" x="254.492188"/>
      </g>
     </g>
    </g>
    <g id="ytick_8">
     <g id="line2d_14">
      <g>
       <use xlink:href="#mb4c11446a5" x="77.312" y="78.315556" style="stroke: #000000; stroke-width: 0.8"/>
      </g>
     </g>
     <g id="text_15">
      <!-- 60000 -->
      <g transform="translate(38.4995 82.114774) scale(0.1 -0.1)">
       <defs>
        <path id="DejaVuSans-36" d="M 2113 2584 
Q 1688 2584 1439 2293 
Q 1191 2003 1191 1497 
Q 1191 994 1439 701 
Q 1688 409 2113 409 
Q 2538 409 2786 701 
Q 3034 994 3034 1497 
Q 3034 2003 2786 2293 
Q 2538 2584 2113 2584 
z
M 3366 4563 
L 3366 3988 
Q 3128 4100 2886 4159 
Q 2644 4219 2406 4219 
Q 1781 4219 1451 3797 
Q 1122 3375 1075 2522 
Q 1259 2794 1537 2939 
Q 1816 3084 2150 3084 
Q 2853 3084 3261 2657 
Q 3669 2231 3669 1497 
Q 3669 778 3244 343 
Q 2819 -91 2113 -91 
Q 1303 -91 875 529 
Q 447 1150 447 2328 
Q 447 3434 972 4092 
Q 1497 4750 2381 4750 
Q 2619 4750 2861 4703 
Q 3103 4656 3366 4563 
z
" transform="scale(0.015625)"/>
       </defs>
       <use xlink:href="#DejaVuSans-36"/>
       <use xlink:href="#DejaVuSans-30" x="63.623047"/>
       <use xlink:href="#DejaVuSans-30" x="127.246094"/>
       <use xlink:href="#DejaVuSans-30" x="190.869141"/>
       <use xlink:href="#DejaVuSans-30" x="254.492188"/>
      </g>
     </g>
    </g>
    <g id="ytick_9">
     <g id="line2d_15">
      <g>
       <use xlink:href="#mb4c11446a5" x="77.312" y="46.537778" style="stroke: #000000; stroke-width: 0.8"/>
      </g>
     </g>
     <g id="text_16">
      <!-- 70000 -->
      <g transform="translate(38.4995 50.336997) scale(0.1 -0.1)">
       <defs>
        <path id="DejaVuSans-37" d="M 525 4666 
L 3525 4666 
L 3525 4397 
L 1831 0 
L 1172 0 
L 2766 4134 
L 525 4134 
L 525 4666 
z
" transform="scale(0.015625)"/>
       </defs>
       <use xlink:href="#DejaVuSans-37"/>
       <use xlink:href="#DejaVuSans-30" x="63.623047"/>
       <use xlink:href="#DejaVuSans-30" x="127.246094"/>
       <use xlink:href="#DejaVuSans-30" x="190.869141"/>
       <use xlink:href="#DejaVuSans-30" x="254.492188"/>
      </g>
     </g>
    </g>
    <g id="ytick_10">
     <g id="line2d_16">
      <g>
       <use xlink:href="#mb4c11446a5" x="77.312" y="14.76" style="stroke: #000000; stroke-width: 0.8"/>
      </g>
     </g>
     <g id="text_17">
      <!-- 80000 -->
      <g transform="translate(38.4995 18.559219) scale(0.1 -0.1)">
       <defs>
        <path id="DejaVuSans-38" d="M 2034 2216 
Q 1584 2216 1326 1975 
Q 1069 1734 1069 1313 
Q 1069 891 1326 650 
Q 1584 409 2034 409 
Q 2484 409 2743 651 
Q 3003 894 3003 1313 
Q 3003 1734 2745 1975 
Q 2488 2216 2034 2216 
z
M 1403 2484 
Q 997 2584 770 2862 
Q 544 3141 544 3541 
Q 544 4100 942 4425 
Q 1341 4750 2034 4750 
Q 2731 4750 3128 4425 
Q 3525 4100 3525 3541 
Q 3525 3141 3298 2862 
Q 3072 2584 2669 2484 
Q 3125 2378 3379 2068 
Q 3634 1759 3634 1313 
Q 3634 634 3220 271 
Q 2806 -91 2034 -91 
Q 1263 -91 848 271 
Q 434 634 434 1313 
Q 434 1759 690 2068 
Q 947 2378 1403 2484 
z
M 1172 3481 
Q 1172 3119 1398 2916 
Q 1625 2713 2034 2713 
Q 2441 2713 2670 2916 
Q 2900 3119 2900 3481 
Q 2900 3844 2670 4047 
Q 2441 4250 2034 4250 
Q 1625 4250 1398 4047 
Q 1172 3844 1172 3481 
z
" transform="scale(0.015625)"/>
       </defs>
       <use xlink:href="#DejaVuSans-38"/>
       <use xlink:href="#DejaVuSans-30" x="63.623047"/>
       <use xlink:href="#DejaVuSans-30" x="127.246094"/>
       <use xlink:href="#DejaVuSans-30" x="190.869141"/>
       <use xlink:href="#DejaVuSans-30" x="254.492188"/>
      </g>
     </g>
    </g>
    <g id="text_18">
     <!-- potential energy (cm$^{-1}$) -->
     <g transform="translate(24.019813 217.56) rotate(-90) scale(0.1 -0.1)">
      <defs>
       <path id="DejaVuSans-70" d="M 1159 525 
L 1159 -1331 
L 581 -1331 
L 581 3500 
L 1159 3500 
L 1159 2969 
Q 1341 3281 1617 3432 
Q 1894 3584 2278 3584 
Q 2916 3584 3314 3078 
Q 3713 2572 3713 1747 
Q 3713 922 3314 415 
Q 2916 -91 2278 -91 
Q 1894 -91 1617 61 
Q 1341 213 1159 525 
z
M 3116 1747 
Q 3116 2381 2855 2742 
Q 2594 3103 2138 3103 
Q 1681 3103 1420 2742 
Q 1159 2381 1159 1747 
Q 1159 1113 1420 752 
Q 1681 391 2138 391 
Q 2594 391 2855 752 
Q 3116 1113 3116 1747 
z
" transform="scale(0.015625)"/>
       <path id="DejaVuSans-6f" d="M 1959 3097 
Q 1497 3097 1228 2736 
Q 959 2375 959 1747 
Q 959 1119 1226 758 
Q 1494 397 1959 397 
Q 2419 397 2687 759 
Q 2956 1122 2956 1747 
Q 2956 2369 2687 2733 
Q 2419 3097 1959 3097 
z
M 1959 3584 
Q 2709 3584 3137 3096 
Q 3566 2609 3566 1747 
Q 3566 888 3137 398 
Q 2709 -91 1959 -91 
Q 1206 -91 779 398 
Q 353 888 353 1747 
Q 353 2609 779 3096 
Q 1206 3584 1959 3584 
z
" transform="scale(0.015625)"/>
       <path id="DejaVuSans-67" d="M 2906 1791 
Q 2906 2416 2648 2759 
Q 2391 3103 1925 3103 
Q 1463 3103 1205 2759 
Q 947 2416 947 1791 
Q 947 1169 1205 825 
Q 1463 481 1925 481 
Q 2391 481 2648 825 
Q 2906 1169 2906 1791 
z
M 3481 434 
Q 3481 -459 3084 -895 
Q 2688 -1331 1869 -1331 
Q 1566 -1331 1297 -1286 
Q 1028 -1241 775 -1147 
L 775 -588 
Q 1028 -725 1275 -790 
Q 1522 -856 1778 -856 
Q 2344 -856 2625 -561 
Q 2906 -266 2906 331 
L 2906 616 
Q 2728 306 2450 153 
Q 2172 0 1784 0 
Q 1141 0 747 490 
Q 353 981 353 1791 
Q 353 2603 747 3093 
Q 1141 3584 1784 3584 
Q 2172 3584 2450 3431 
Q 2728 3278 2906 2969 
L 2906 3500 
L 3481 3500 
L 3481 434 
z
" transform="scale(0.015625)"/>
       <path id="DejaVuSans-79" d="M 2059 -325 
Q 1816 -950 1584 -1140 
Q 1353 -1331 966 -1331 
L 506 -1331 
L 506 -850 
L 844 -850 
Q 1081 -850 1212 -737 
Q 1344 -625 1503 -206 
L 1606 56 
L 191 3500 
L 800 3500 
L 1894 763 
L 2988 3500 
L 3597 3500 
L 2059 -325 
z
" transform="scale(0.015625)"/>
       <path id="DejaVuSans-6d" d="M 3328 2828 
Q 3544 3216 3844 3400 
Q 4144 3584 4550 3584 
Q 5097 3584 5394 3201 
Q 5691 2819 5691 2113 
L 5691 0 
L 5113 0 
L 5113 2094 
Q 5113 2597 4934 2840 
Q 4756 3084 4391 3084 
Q 3944 3084 3684 2787 
Q 3425 2491 3425 1978 
L 3425 0 
L 2847 0 
L 2847 2094 
Q 2847 2600 2669 2842 
Q 2491 3084 2119 3084 
Q 1678 3084 1418 2786 
Q 1159 2488 1159 1978 
L 1159 0 
L 581 0 
L 581 3500 
L 1159 3500 
L 1159 2956 
Q 1356 3278 1631 3431 
Q 1906 3584 2284 3584 
Q 2666 3584 2933 3390 
Q 3200 3197 3328 2828 
z
" transform="scale(0.015625)"/>
      </defs>
      <use xlink:href="#DejaVuSans-70" transform="translate(0 0.684375)"/>
      <use xlink:href="#DejaVuSans-6f" transform="translate(63.476562 0.684375)"/>
      <use xlink:href="#DejaVuSans-74" transform="translate(124.658203 0.684375)"/>
      <use xlink:href="#DejaVuSans-65" transform="translate(163.867188 0.684375)"/>
      <use xlink:href="#DejaVuSans-6e" transform="translate(225.390625 0.684375)"/>
      <use xlink:href="#DejaVuSans-74" transform="translate(288.769531 0.684375)"/>
      <use xlink:href="#DejaVuSans-69" transform="translate(327.978516 0.684375)"/>
      <use xlink:href="#DejaVuSans-61" transform="translate(355.761719 0.684375)"/>
      <use xlink:href="#DejaVuSans-6c" transform="translate(417.041016 0.684375)"/>
      <use xlink:href="#DejaVuSans-20" transform="translate(444.824219 0.684375)"/>
      <use xlink:href="#DejaVuSans-65" transform="translate(476.611328 0.684375)"/>
      <use xlink:href="#DejaVuSans-6e" transform="translate(538.134766 0.684375)"/>
      <use xlink:href="#DejaVuSans-65" transform="translate(601.513672 0.684375)"/>
      <use xlink:href="#DejaVuSans-72" transform="translate(663.037109 0.684375)"/>
      <use xlink:href="#DejaVuSans-67" transform="translate(704.150391 0.684375)"/>
      <use xlink:href="#DejaVuSans-79" transform="translate(767.626953 0.684375)"/>
      <use xlink:href="#DejaVuSans-20" transform="translate(826.806641 0.684375)"/>
      <use xlink:href="#DejaVuSans-28" transform="translate(858.59375 0.684375)"/>
      <use xlink:href="#DejaVuSans-63" transform="translate(897.607422 0.684375)"/>
      <use xlink:href="#DejaVuSans-6d" transform="translate(952.587891 0.684375)"/>
      <use xlink:href="#DejaVuSans-2212" transform="translate(1050.957031 38.965625) scale(0.7)"/>
      <use xlink:href="#DejaVuSans-31" transform="translate(1109.609375 38.965625) scale(0.7)"/>
      <use xlink:href="#DejaVuSans-29" transform="translate(1156.879883 0.684375)"/>
     </g>
    </g>
   </g>
   <g id="line2d_17">
    <path d="M 102.261698 -1 
L 103.79777 47.036519 
L 105.348157 88.583589 
L 106.833944 122.621275 
L 108.319731 151.660505 
L 109.740918 175.293725 
L 111.162106 195.3362 
L 112.518694 211.492154 
L 113.875283 225.049051 
L 115.231871 236.309785 
L 116.52386 245.193149 
L 117.751249 252.096749 
L 118.914039 257.37309 
L 120.012229 261.325173 
L 120.981221 264.05135 
L 121.885613 266.004817 
L 122.725406 267.347338 
L 123.500599 268.213407 
L 124.211193 268.71464 
L 124.921787 268.954646 
L 125.632381 268.950949 
L 126.342974 268.72008 
L 127.118168 268.227419 
L 128.02256 267.360256 
L 128.991551 266.112615 
L 130.154341 264.22559 
L 131.44633 261.689873 
L 132.996717 258.125045 
L 134.805501 253.371777 
L 137.001882 246.927979 
L 139.715058 238.240892 
L 143.591025 225.017683 
L 145.787406 217.337471 
L 145.981204 216.31033 
L 148.435983 208.877585 
L 150.955361 201.94874 
L 153.539338 195.494865 
L 156.123316 189.627442 
L 158.771893 184.153864 
L 161.485069 179.051138 
L 164.262845 174.296945 
L 167.105221 169.86975 
L 170.012195 165.748871 
L 172.983769 161.91454 
L 176.084543 158.275608 
L 179.249915 154.89958 
L 182.544486 151.708075 
L 185.968257 148.700023 
L 189.521226 145.872581 
L 193.267993 143.177274 
L 197.14396 140.661433 
L 201.278324 138.245899 
L 205.606486 135.9766 
L 210.193046 133.824353 
L 215.038004 131.796055 
L 220.270559 129.850116 
L 225.826111 128.023207 
L 231.833859 126.284534 
L 238.293803 124.648357 
L 238.810598 124.526764 
L 238.810598 124.526764 
" clip-path="url(#p535a1a4110)" style="fill: none; stroke: #1f77b4; stroke-width: 1.5; stroke-linecap: square"/>
   </g>
   <g id="line2d_18">
    <defs>
     <path id="m8da0e7e282" d="M 0 3 
C 0.795609 3 1.55874 2.683901 2.12132 2.12132 
C 2.683901 1.55874 3 0.795609 3 0 
C 3 -0.795609 2.683901 -1.55874 2.12132 -2.12132 
C 1.55874 -2.683901 0.795609 -3 0 -3 
C -0.795609 -3 -1.55874 -2.683901 -2.12132 -2.12132 
C -2.683901 -1.55874 -3 -0.795609 -3 0 
C -3 0.795609 -2.683901 1.55874 -2.12132 2.12132 
C -1.55874 2.683901 -0.795609 3 0 3 
z
" style="stroke: #17becf"/>
    </defs>
    <g clip-path="url(#p535a1a4110)">
     <use xlink:href="#m8da0e7e282" x="113.014448" y="216.816426" style="fill: #17becf; stroke: #17becf"/>
     <use xlink:href="#m8da0e7e282" x="113.540233" y="221.947234" style="fill: #17becf; stroke: #17becf"/>
     <use xlink:href="#m8da0e7e282" x="114.112009" y="227.162826" style="fill: #17becf; stroke: #17becf"/>
     <use xlink:href="#m8da0e7e282" x="114.739999" y="232.4632" style="fill: #17becf; stroke: #17becf"/>
     <use xlink:href="#m8da0e7e282" x="115.4386" y="237.848358" style="fill: #17becf; stroke: #17becf"/>
     <use xlink:href="#m8da0e7e282" x="116.229232" y="243.318298" style="fill: #17becf; stroke: #17becf"/>
     <use xlink:href="#m8da0e7e282" x="117.146305" y="248.873022" style="fill: #17becf; stroke: #17becf"/>
     <use xlink:href="#m8da0e7e282" x="118.251853" y="254.512529" style="fill: #17becf; stroke: #17becf"/>
     <use xlink:href="#m8da0e7e282" x="119.682049" y="260.236819" style="fill: #17becf; stroke: #17becf"/>
     <use xlink:href="#m8da0e7e282" x="121.907763" y="266.045892" style="fill: #17becf; stroke: #17becf"/>
     <use xlink:href="#m8da0e7e282" x="128.617317" y="266.631462" style="fill: #17becf; stroke: #17becf"/>
     <use xlink:href="#m8da0e7e282" x="131.849519" y="260.813911" style="fill: #17becf; stroke: #17becf"/>
     <use xlink:href="#m8da0e7e282" x="134.179444" y="255.081143" style="fill: #17becf; stroke: #17becf"/>
     <use xlink:href="#m8da0e7e282" x="136.173215" y="249.433157" style="fill: #17becf; stroke: #17becf"/>
     <use xlink:href="#m8da0e7e282" x="137.981016" y="243.869955" style="fill: #17becf; stroke: #17becf"/>
     <use xlink:href="#m8da0e7e282" x="139.66956" y="238.391536" style="fill: #17becf; stroke: #17becf"/>
     <use xlink:href="#m8da0e7e282" x="141.275473" y="232.997901" style="fill: #17becf; stroke: #17becf"/>
     <use xlink:href="#m8da0e7e282" x="142.821493" y="227.689048" style="fill: #17becf; stroke: #17becf"/>
     <use xlink:href="#m8da0e7e282" x="144.322938" y="222.464978" style="fill: #17becf; stroke: #17becf"/>
     <use xlink:href="#m8da0e7e282" x="145.790766" y="217.325692" style="fill: #17becf; stroke: #17becf"/>
    </g>
   </g>
   <g id="line2d_19">
    <path d="M 107.671822 -1 
L 108.901126 24.013387 
L 110.193115 46.060199 
L 111.485103 64.392849 
L 112.841692 80.399918 
L 114.19828 93.096404 
L 115.490269 103.130197 
L 116.717658 110.962638 
L 117.880448 116.997822 
L 118.978638 121.577923 
L 120.012229 124.988259 
L 120.981221 127.464998 
L 121.885613 129.202918 
L 122.725406 130.362368 
L 123.500599 131.075226 
L 124.211193 131.449879 
L 124.921787 131.576833 
L 125.632381 131.473927 
L 126.407574 131.118598 
L 127.247367 130.470362 
L 128.216358 129.412581 
L 129.314549 127.853515 
L 130.541938 125.711708 
L 131.963126 122.7779 
L 133.642711 118.786316 
L 135.645294 113.435509 
L 138.164672 106.029643 
L 141.588442 95.204883 
L 145.916604 80.983953 
L 145.916604 346.6 
L 145.916604 346.6 
" clip-path="url(#p535a1a4110)" style="fill: none; stroke: #2ca02c; stroke-width: 1.5; stroke-linecap: square"/>
   </g>
   <g id="line2d_20">
    <defs>
     <path id="m34a423eb79" d="M 0 3 
C 0.795609 3 1.55874 2.683901 2.12132 2.12132 
C 2.683901 1.55874 3 0.795609 3 0 
C 3 -0.795609 2.683901 -1.55874 2.12132 -2.12132 
C 1.55874 -2.683901 0.795609 -3 0 -3 
C -0.795609 -3 -1.55874 -2.683901 -2.12132 -2.12132 
C -2.683901 -1.55874 -3 -0.795609 -3 0 
C -3 0.795609 -2.683901 1.55874 -2.12132 2.12132 
C -1.55874 2.683901 -0.795609 3 0 3 
z
" style="stroke: #bcbd22"/>
    </defs>
    <g clip-path="url(#p535a1a4110)">
     <use xlink:href="#m34a423eb79" x="112.836049" y="80.342247" style="fill: #bcbd22; stroke: #bcbd22"/>
     <use xlink:href="#m34a423eb79" x="113.342795" y="85.358846" style="fill: #bcbd22; stroke: #bcbd22"/>
     <use xlink:href="#m34a423eb79" x="113.895853" y="90.464041" style="fill: #bcbd22; stroke: #bcbd22"/>
     <use xlink:href="#m34a423eb79" x="114.505496" y="95.657833" style="fill: #bcbd22; stroke: #bcbd22"/>
     <use xlink:href="#m34a423eb79" x="115.186195" y="100.940221" style="fill: #bcbd22; stroke: #bcbd22"/>
     <use xlink:href="#m34a423eb79" x="115.95948" y="106.311206" style="fill: #bcbd22; stroke: #bcbd22"/>
     <use xlink:href="#m34a423eb79" x="116.859951" y="111.770787" style="fill: #bcbd22; stroke: #bcbd22"/>
     <use xlink:href="#m34a423eb79" x="117.949993" y="117.318964" style="fill: #bcbd22; stroke: #bcbd22"/>
     <use xlink:href="#m34a423eb79" x="119.366596" y="122.955738" style="fill: #bcbd22; stroke: #bcbd22"/>
     <use xlink:href="#m34a423eb79" x="121.583606" y="128.681109" style="fill: #bcbd22; stroke: #bcbd22"/>
     <use xlink:href="#m34a423eb79" x="128.337572" y="129.258519" style="fill: #bcbd22; stroke: #bcbd22"/>
     <use xlink:href="#m34a423eb79" x="131.621141" y="123.524289" style="fill: #bcbd22; stroke: #bcbd22"/>
     <use xlink:href="#m34a423eb79" x="133.998342" y="117.878655" style="fill: #bcbd22; stroke: #bcbd22"/>
     <use xlink:href="#m34a423eb79" x="136.038961" y="112.321618" style="fill: #bcbd22; stroke: #bcbd22"/>
     <use xlink:href="#m34a423eb79" x="137.89415" y="106.853177" style="fill: #bcbd22; stroke: #bcbd22"/>
     <use xlink:href="#m34a423eb79" x="139.631073" y="101.473333" style="fill: #bcbd22; stroke: #bcbd22"/>
     <use xlink:href="#m34a423eb79" x="141.28663" y="96.182085" style="fill: #bcbd22; stroke: #bcbd22"/>
     <use xlink:href="#m34a423eb79" x="142.883755" y="90.979433" style="fill: #bcbd22; stroke: #bcbd22"/>
     <use xlink:href="#m34a423eb79" x="144.437927" y="85.865378" style="fill: #bcbd22; stroke: #bcbd22"/>
     <use xlink:href="#m34a423eb79" x="145.960247" y="80.83992" style="fill: #bcbd22; stroke: #bcbd22"/>
    </g>
   </g>
   <g id="line2d_21">
    <path d="M 77.312 268.981858 
L 113.939882 268.874451 
L 115.102672 268.62627 
L 115.877865 268.253955 
L 116.588459 267.654683 
L 117.234453 266.792776 
L 117.880448 265.521711 
L 118.526442 263.736462 
L 119.237036 261.075274 
L 120.012229 257.276354 
L 120.981221 251.319405 
L 123.952795 231.94756 
L 124.53419 229.763376 
L 124.986386 228.746077 
L 125.309383 228.411378 
L 125.567781 228.383363 
L 125.826179 228.567208 
L 126.149176 229.087567 
L 126.601372 230.328106 
L 127.182767 232.699953 
L 127.95796 236.911636 
L 129.508347 246.965617 
L 130.864935 255.152509 
L 131.833927 259.771842 
L 132.673719 262.812521 
L 133.448913 264.882 
L 134.224106 266.354245 
L 134.999299 267.356244 
L 135.774492 268.010169 
L 136.678885 268.470874 
L 137.777075 268.761225 
L 139.327462 268.921265 
L 142.557434 268.97904 
L 183.25508 268.981858 
L 238.810598 268.981858 
L 238.810598 268.981858 
" clip-path="url(#p535a1a4110)" style="fill: none; stroke: #ff7f0e; stroke-width: 1.5; stroke-linecap: square"/>
   </g>
   <g id="line2d_22">
    <path d="M 77.312 268.961386 
L 109.61172 269.070108 
L 110.516112 269.31392 
L 111.162106 269.71391 
L 111.743501 270.366604 
L 112.260297 271.2994 
L 112.777092 272.685925 
L 113.358487 274.926984 
L 114.004481 278.384252 
L 114.844274 284.290208 
L 116.330061 294.967986 
L 116.717658 296.458372 
L 116.976056 296.852827 
L 117.169854 296.776416 
L 117.363652 296.348987 
L 117.62205 295.195373 
L 118.009647 292.158595 
L 118.461843 286.67369 
L 119.107837 275.892423 
L 120.593624 250.123153 
L 121.04582 246.239431 
L 121.304218 245.471455 
L 121.433417 245.513869 
L 121.627215 246.117724 
L 121.885613 247.9132 
L 122.27321 252.558239 
L 122.854605 262.844377 
L 124.146593 286.846291 
L 124.53419 290.661049 
L 124.792588 291.747829 
L 124.921787 291.825225 
L 125.050986 291.589015 
L 125.244784 290.655009 
L 125.567781 287.637524 
L 126.019977 280.831527 
L 127.053568 260.272011 
L 127.699563 249.953884 
L 128.087159 246.52237 
L 128.345557 245.6505 
L 128.474756 245.656784 
L 128.668554 246.215167 
L 128.926952 247.945758 
L 129.314549 252.432634 
L 129.895944 262.287026 
L 131.317131 287.769654 
L 131.769327 292.289705 
L 132.092324 293.802892 
L 132.286123 293.993481 
L 132.415322 293.824018 
L 132.60912 293.137247 
L 132.932117 290.907604 
L 133.384313 285.818635 
L 134.094907 274.664803 
L 135.709893 248.436724 
L 136.355887 241.782711 
L 136.808084 238.998199 
L 137.19568 237.809671 
L 137.454078 237.583407 
L 137.647876 237.683515 
L 137.906274 238.140581 
L 138.293871 239.420201 
L 138.875266 242.339057 
L 139.973456 249.408043 
L 141.265445 257.335203 
L 142.169837 261.564677 
L 142.94503 264.217304 
L 143.720224 266.09827 
L 144.495417 267.393765 
L 145.335209 268.36777 
L 146.045803 268.961386 
L 238.810598 268.961386 
L 238.810598 268.961386 
" clip-path="url(#p535a1a4110)" style="fill: none; stroke: #2ca02c; stroke-width: 1.5; stroke-linecap: square"/>
   </g>
   <g id="patch_3">
    <path d="M 77.312 300.76 
L 77.312 14.76 
" style="fill: none; stroke: #000000; stroke-width: 0.8; stroke-linejoin: miter; stroke-linecap: square"/>
   </g>
   <g id="patch_4">
    <path d="M 238.810598 300.76 
L 238.810598 14.76 
" style="fill: none; stroke: #000000; stroke-width: 0.8; stroke-linejoin: miter; stroke-linecap: square"/>
   </g>
   <g id="patch_5">
    <path d="M 77.312 300.76 
L 238.810598 300.76 
" style="fill: none; stroke: #000000; stroke-width: 0.8; stroke-linejoin: miter; stroke-linecap: square"/>
   </g>
   <g id="patch_6">
    <path d="M 77.312 14.76 
L 238.810598 14.76 
" style="fill: none; stroke: #000000; stroke-width: 0.8; stroke-linejoin: miter; stroke-linecap: square"/>
   </g>
  </g>
  <g id="axes_2">
   <g id="patch_7">
    <path d="M 288.501402 300.76 
L 450 300.76 
L 450 14.76 
L 288.501402 14.76 
z
" style="fill: #ffffff"/>
   </g>
   <g id="matplotlib.axis_3">
    <g id="xtick_7">
     <g id="line2d_23">
      <g>
       <use xlink:href="#ma7dda96a5b" x="295.842247" y="300.76" style="stroke: #000000; stroke-width: 0.8"/>
      </g>
     </g>
     <g id="text_19">
      <!-- 0 -->
      <g transform="translate(292.660997 315.358437) scale(0.1 -0.1)">
       <use xlink:href="#DejaVuSans-30"/>
      </g>
     </g>
    </g>
    <g id="xtick_8">
     <g id="line2d_24">
      <g>
       <use xlink:href="#ma7dda96a5b" x="337.789935" y="300.76" style="stroke: #000000; stroke-width: 0.8"/>
      </g>
     </g>
     <g id="text_20">
      <!-- 2 -->
      <g transform="translate(334.608685 315.358437) scale(0.1 -0.1)">
       <use xlink:href="#DejaVuSans-32"/>
      </g>
     </g>
    </g>
    <g id="xtick_9">
     <g id="line2d_25">
      <g>
       <use xlink:href="#ma7dda96a5b" x="379.737623" y="300.76" style="stroke: #000000; stroke-width: 0.8"/>
      </g>
     </g>
     <g id="text_21">
      <!-- 4 -->
      <g transform="translate(376.556373 315.358437) scale(0.1 -0.1)">
       <use xlink:href="#DejaVuSans-34"/>
      </g>
     </g>
    </g>
    <g id="xtick_10">
     <g id="line2d_26">
      <g>
       <use xlink:href="#ma7dda96a5b" x="421.685311" y="300.76" style="stroke: #000000; stroke-width: 0.8"/>
      </g>
     </g>
     <g id="text_22">
      <!-- 6 -->
      <g transform="translate(418.504061 315.358437) scale(0.1 -0.1)">
       <use xlink:href="#DejaVuSans-36"/>
      </g>
     </g>
    </g>
   </g>
   <g id="matplotlib.axis_4">
    <g id="ytick_11">
     <g id="line2d_27">
      <g>
       <use xlink:href="#mb4c11446a5" x="288.501402" y="247.108743" style="stroke: #000000; stroke-width: 0.8"/>
      </g>
     </g>
     <g id="text_23">
      <!-- $\mathdefault{10^{-7}}$ -->
      <g transform="translate(258.001402 250.907961) scale(0.1 -0.1)">
       <use xlink:href="#DejaVuSans-31" transform="translate(0 0.684375)"/>
       <use xlink:href="#DejaVuSans-30" transform="translate(63.623047 0.684375)"/>
       <use xlink:href="#DejaVuSans-2212" transform="translate(128.203125 38.965625) scale(0.7)"/>
       <use xlink:href="#DejaVuSans-37" transform="translate(186.855469 38.965625) scale(0.7)"/>
      </g>
     </g>
    </g>
    <g id="ytick_12">
     <g id="line2d_28">
      <g>
       <use xlink:href="#mb4c11446a5" x="288.501402" y="184.451199" style="stroke: #000000; stroke-width: 0.8"/>
      </g>
     </g>
     <g id="text_24">
      <!-- $\mathdefault{10^{-5}}$ -->
      <g transform="translate(258.001402 188.250418) scale(0.1 -0.1)">
       <use xlink:href="#DejaVuSans-31" transform="translate(0 0.684375)"/>
       <use xlink:href="#DejaVuSans-30" transform="translate(63.623047 0.684375)"/>
       <use xlink:href="#DejaVuSans-2212" transform="translate(128.203125 38.965625) scale(0.7)"/>
       <use xlink:href="#DejaVuSans-35" transform="translate(186.855469 38.965625) scale(0.7)"/>
      </g>
     </g>
    </g>
    <g id="ytick_13">
     <g id="line2d_29">
      <g>
       <use xlink:href="#mb4c11446a5" x="288.501402" y="121.793656" style="stroke: #000000; stroke-width: 0.8"/>
      </g>
     </g>
     <g id="text_25">
      <!-- $\mathdefault{10^{-3}}$ -->
      <g transform="translate(258.001402 125.592875) scale(0.1 -0.1)">
       <use xlink:href="#DejaVuSans-31" transform="translate(0 0.765625)"/>
       <use xlink:href="#DejaVuSans-30" transform="translate(63.623047 0.765625)"/>
       <use xlink:href="#DejaVuSans-2212" transform="translate(128.203125 39.046875) scale(0.7)"/>
       <use xlink:href="#DejaVuSans-33" transform="translate(186.855469 39.046875) scale(0.7)"/>
      </g>
     </g>
    </g>
    <g id="ytick_14">
     <g id="line2d_30">
      <g>
       <use xlink:href="#mb4c11446a5" x="288.501402" y="59.136112" style="stroke: #000000; stroke-width: 0.8"/>
      </g>
     </g>
     <g id="text_26">
      <!-- $\mathdefault{10^{-1}}$ -->
      <g transform="translate(258.001402 62.935331) scale(0.1 -0.1)">
       <use xlink:href="#DejaVuSans-31" transform="translate(0 0.684375)"/>
       <use xlink:href="#DejaVuSans-30" transform="translate(63.623047 0.684375)"/>
       <use xlink:href="#DejaVuSans-2212" transform="translate(128.203125 38.965625) scale(0.7)"/>
       <use xlink:href="#DejaVuSans-31" transform="translate(186.855469 38.965625) scale(0.7)"/>
      </g>
     </g>
    </g>
   </g>
   <g id="line2d_31">
    <defs>
     <path id="m0792c1bb91" d="M 0 3 
C 0.795609 3 1.55874 2.683901 2.12132 2.12132 
C 2.683901 1.55874 3 0.795609 3 0 
C 3 -0.795609 2.683901 -1.55874 2.12132 -2.12132 
C 1.55874 -2.683901 0.795609 -3 0 -3 
C -0.795609 -3 -1.55874 -2.683901 -2.12132 -2.12132 
C -2.683901 -1.55874 -3 -0.795609 -3 0 
C -3 0.795609 -2.683901 1.55874 -2.12132 2.12132 
C -1.55874 2.683901 -0.795609 3 0 3 
z
" style="stroke: #1f77b4"/>
    </defs>
    <g clip-path="url(#p19d369accf)">
     <use xlink:href="#m0792c1bb91" x="295.842247" y="105.492293" style="fill: #1f77b4; stroke: #1f77b4"/>
    </g>
   </g>
   <g id="line2d_32">
    <g clip-path="url(#p19d369accf)">
     <use xlink:href="#m0792c1bb91" x="316.816091" y="276.338644" style="fill: #1f77b4; stroke: #1f77b4"/>
    </g>
   </g>
   <g id="line2d_33">
    <g clip-path="url(#p19d369accf)">
     <use xlink:href="#m0792c1bb91" x="337.789935" y="153.473123" style="fill: #1f77b4; stroke: #1f77b4"/>
    </g>
   </g>
   <g id="line2d_34">
    <g clip-path="url(#p19d369accf)">
     <use xlink:href="#m0792c1bb91" x="358.763779" y="276.338644" style="fill: #1f77b4; stroke: #1f77b4"/>
    </g>
   </g>
   <g id="line2d_35">
    <g clip-path="url(#p19d369accf)"/>
   </g>
   <g id="line2d_36">
    <g clip-path="url(#p19d369accf)"/>
   </g>
   <g id="line2d_37">
    <g clip-path="url(#p19d369accf)"/>
   </g>
   <g id="line2d_38">
    <g clip-path="url(#p19d369accf)"/>
   </g>
   <g id="line2d_39">
    <defs>
     <path id="m6080479261" d="M -5 0 
L 5 0 
M 0 5 
L 0 -5 
" style="stroke: #17becf"/>
    </defs>
    <g clip-path="url(#p19d369accf)">
     <use xlink:href="#m6080479261" x="295.842247" y="27.845491" style="fill: #17becf; stroke: #17becf"/>
     <use xlink:href="#m6080479261" x="316.816091" y="108.179146" style="fill: #17becf; stroke: #17becf"/>
     <use xlink:href="#m6080479261" x="337.789935" y="154.850899" style="fill: #17becf; stroke: #17becf"/>
     <use xlink:href="#m6080479261" x="358.763779" y="229.396222" style="fill: #17becf; stroke: #17becf"/>
     <use xlink:href="#m6080479261" x="379.737623" y="287.76" style="fill: #17becf; stroke: #17becf"/>
    </g>
   </g>
   <g id="line2d_40">
    <defs>
     <path id="m79700dc5a9" d="M 0 3 
C 0.795609 3 1.55874 2.683901 2.12132 2.12132 
C 2.683901 1.55874 3 0.795609 3 0 
C 3 -0.795609 2.683901 -1.55874 2.12132 -2.12132 
C 1.55874 -2.683901 0.795609 -3 0 -3 
C -0.795609 -3 -1.55874 -2.683901 -2.12132 -2.12132 
C -2.683901 -1.55874 -3 -0.795609 -3 0 
C -3 0.795609 -2.683901 1.55874 -2.12132 2.12132 
C -1.55874 2.683901 -0.795609 3 0 3 
z
" style="stroke: #ff7f0e"/>
    </defs>
    <g clip-path="url(#p19d369accf)">
     <use xlink:href="#m79700dc5a9" x="295.842247" y="27.76" style="fill: #ff7f0e; stroke: #ff7f0e"/>
    </g>
   </g>
   <g id="line2d_41">
    <g clip-path="url(#p19d369accf)">
     <use xlink:href="#m79700dc5a9" x="316.816091" y="138.263813" style="fill: #ff7f0e; stroke: #ff7f0e"/>
    </g>
   </g>
   <g id="line2d_42">
    <g clip-path="url(#p19d369accf)">
     <use xlink:href="#m79700dc5a9" x="337.789935" y="98.542202" style="fill: #ff7f0e; stroke: #ff7f0e"/>
    </g>
   </g>
   <g id="line2d_43">
    <g clip-path="url(#p19d369accf)">
     <use xlink:href="#m79700dc5a9" x="358.763779" y="138.263813" style="fill: #ff7f0e; stroke: #ff7f0e"/>
    </g>
   </g>
   <g id="line2d_44">
    <g clip-path="url(#p19d369accf)"/>
   </g>
   <g id="line2d_45">
    <g clip-path="url(#p19d369accf)"/>
   </g>
   <g id="line2d_46">
    <g clip-path="url(#p19d369accf)"/>
   </g>
   <g id="line2d_47">
    <g clip-path="url(#p19d369accf)"/>
   </g>
   <g id="line2d_48">
    <defs>
     <path id="me82751414d" d="M -5 0 
L 5 0 
M 0 5 
L 0 -5 
" style="stroke: #bcbd22"/>
    </defs>
    <g clip-path="url(#p19d369accf)">
     <use xlink:href="#me82751414d" x="295.842247" y="108.575019" style="fill: #bcbd22; stroke: #bcbd22"/>
     <use xlink:href="#me82751414d" x="316.816091" y="27.913883" style="fill: #bcbd22; stroke: #bcbd22"/>
     <use xlink:href="#me82751414d" x="337.789935" y="100.332671" style="fill: #bcbd22; stroke: #bcbd22"/>
     <use xlink:href="#me82751414d" x="358.763779" y="139.648704" style="fill: #bcbd22; stroke: #bcbd22"/>
     <use xlink:href="#me82751414d" x="379.737623" y="206.840863" style="fill: #bcbd22; stroke: #bcbd22"/>
    </g>
   </g>
   <g id="patch_8">
    <path d="M 288.501402 300.76 
L 288.501402 14.76 
" style="fill: none; stroke: #000000; stroke-width: 0.8; stroke-linejoin: miter; stroke-linecap: square"/>
   </g>
   <g id="patch_9">
    <path d="M 450 300.76 
L 450 14.76 
" style="fill: none; stroke: #000000; stroke-width: 0.8; stroke-linejoin: miter; stroke-linecap: square"/>
   </g>
   <g id="patch_10">
    <path d="M 288.501402 300.76 
L 450 300.76 
" style="fill: none; stroke: #000000; stroke-width: 0.8; stroke-linejoin: miter; stroke-linecap: square"/>
   </g>
   <g id="patch_11">
    <path d="M 288.501402 14.76 
L 450 14.76 
" style="fill: none; stroke: #000000; stroke-width: 0.8; stroke-linejoin: miter; stroke-linecap: square"/>
   </g>
   <g id="legend_1">
    <g id="patch_12">
     <path d="M 357.498437 69.4725 
L 443 69.4725 
Q 445 69.4725 445 67.4725 
L 445 21.76 
Q 445 19.76 443 19.76 
L 357.498437 19.76 
Q 355.498437 19.76 355.498437 21.76 
L 355.498437 67.4725 
Q 355.498437 69.4725 357.498437 69.4725 
z
" style="fill: #ffffff; opacity: 0.8; stroke: #cccccc; stroke-linejoin: miter"/>
    </g>
    <g id="line2d_49">
     <g>
      <use xlink:href="#m0792c1bb91" x="369.498437" y="27.858437" style="fill: #1f77b4; stroke: #1f77b4"/>
     </g>
    </g>
    <g id="text_27">
     <!-- v"=0 -->
     <g transform="translate(387.498437 31.358437) scale(0.1 -0.1)">
      <defs>
       <path id="DejaVuSans-76" d="M 191 3500 
L 800 3500 
L 1894 563 
L 2988 3500 
L 3597 3500 
L 2284 0 
L 1503 0 
L 191 3500 
z
" transform="scale(0.015625)"/>
       <path id="DejaVuSans-22" d="M 1147 4666 
L 1147 2931 
L 616 2931 
L 616 4666 
L 1147 4666 
z
M 2328 4666 
L 2328 2931 
L 1797 2931 
L 1797 4666 
L 2328 4666 
z
" transform="scale(0.015625)"/>
       <path id="DejaVuSans-3d" d="M 678 2906 
L 4684 2906 
L 4684 2381 
L 678 2381 
L 678 2906 
z
M 678 1631 
L 4684 1631 
L 4684 1100 
L 678 1100 
L 678 1631 
z
" transform="scale(0.015625)"/>
      </defs>
      <use xlink:href="#DejaVuSans-76"/>
      <use xlink:href="#DejaVuSans-22" x="59.179688"/>
      <use xlink:href="#DejaVuSans-3d" x="105.175781"/>
      <use xlink:href="#DejaVuSans-30" x="188.964844"/>
     </g>
    </g>
    <g id="line2d_50">
     <g>
      <use xlink:href="#m6080479261" x="369.498437" y="38.536563" style="fill: #17becf; stroke: #17becf"/>
     </g>
    </g>
    <g id="text_28">
     <!-- Sorkhabi 0 -->
     <g transform="translate(387.498437 42.036563) scale(0.1 -0.1)">
      <defs>
       <path id="DejaVuSans-53" d="M 3425 4513 
L 3425 3897 
Q 3066 4069 2747 4153 
Q 2428 4238 2131 4238 
Q 1616 4238 1336 4038 
Q 1056 3838 1056 3469 
Q 1056 3159 1242 3001 
Q 1428 2844 1947 2747 
L 2328 2669 
Q 3034 2534 3370 2195 
Q 3706 1856 3706 1288 
Q 3706 609 3251 259 
Q 2797 -91 1919 -91 
Q 1588 -91 1214 -16 
Q 841 59 441 206 
L 441 856 
Q 825 641 1194 531 
Q 1563 422 1919 422 
Q 2459 422 2753 634 
Q 3047 847 3047 1241 
Q 3047 1584 2836 1778 
Q 2625 1972 2144 2069 
L 1759 2144 
Q 1053 2284 737 2584 
Q 422 2884 422 3419 
Q 422 4038 858 4394 
Q 1294 4750 2059 4750 
Q 2388 4750 2728 4690 
Q 3069 4631 3425 4513 
z
" transform="scale(0.015625)"/>
       <path id="DejaVuSans-6b" d="M 581 4863 
L 1159 4863 
L 1159 1991 
L 2875 3500 
L 3609 3500 
L 1753 1863 
L 3688 0 
L 2938 0 
L 1159 1709 
L 1159 0 
L 581 0 
L 581 4863 
z
" transform="scale(0.015625)"/>
       <path id="DejaVuSans-68" d="M 3513 2113 
L 3513 0 
L 2938 0 
L 2938 2094 
Q 2938 2591 2744 2837 
Q 2550 3084 2163 3084 
Q 1697 3084 1428 2787 
Q 1159 2491 1159 1978 
L 1159 0 
L 581 0 
L 581 4863 
L 1159 4863 
L 1159 2956 
Q 1366 3272 1645 3428 
Q 1925 3584 2291 3584 
Q 2894 3584 3203 3211 
Q 3513 2838 3513 2113 
z
" transform="scale(0.015625)"/>
       <path id="DejaVuSans-62" d="M 3116 1747 
Q 3116 2381 2855 2742 
Q 2594 3103 2138 3103 
Q 1681 3103 1420 2742 
Q 1159 2381 1159 1747 
Q 1159 1113 1420 752 
Q 1681 391 2138 391 
Q 2594 391 2855 752 
Q 3116 1113 3116 1747 
z
M 1159 2969 
Q 1341 3281 1617 3432 
Q 1894 3584 2278 3584 
Q 2916 3584 3314 3078 
Q 3713 2572 3713 1747 
Q 3713 922 3314 415 
Q 2916 -91 2278 -91 
Q 1894 -91 1617 61 
Q 1341 213 1159 525 
L 1159 0 
L 581 0 
L 581 4863 
L 1159 4863 
L 1159 2969 
z
" transform="scale(0.015625)"/>
      </defs>
      <use xlink:href="#DejaVuSans-53"/>
      <use xlink:href="#DejaVuSans-6f" x="63.476562"/>
      <use xlink:href="#DejaVuSans-72" x="124.658203"/>
      <use xlink:href="#DejaVuSans-6b" x="165.771484"/>
      <use xlink:href="#DejaVuSans-68" x="223.681641"/>
      <use xlink:href="#DejaVuSans-61" x="287.060547"/>
      <use xlink:href="#DejaVuSans-62" x="348.339844"/>
      <use xlink:href="#DejaVuSans-69" x="411.816406"/>
      <use xlink:href="#DejaVuSans-20" x="439.599609"/>
      <use xlink:href="#DejaVuSans-30" x="471.386719"/>
     </g>
    </g>
    <g id="line2d_51">
     <g>
      <use xlink:href="#m79700dc5a9" x="369.498437" y="49.214687" style="fill: #ff7f0e; stroke: #ff7f0e"/>
     </g>
    </g>
    <g id="text_29">
     <!-- v"=1 -->
     <g transform="translate(387.498437 52.714687) scale(0.1 -0.1)">
      <use xlink:href="#DejaVuSans-76"/>
      <use xlink:href="#DejaVuSans-22" x="59.179688"/>
      <use xlink:href="#DejaVuSans-3d" x="105.175781"/>
      <use xlink:href="#DejaVuSans-31" x="188.964844"/>
     </g>
    </g>
    <g id="line2d_52">
     <g>
      <use xlink:href="#me82751414d" x="369.498437" y="59.892812" style="fill: #bcbd22; stroke: #bcbd22"/>
     </g>
    </g>
    <g id="text_30">
     <!-- Sorkhabi 1 -->
     <g transform="translate(387.498437 63.392812) scale(0.1 -0.1)">
      <use xlink:href="#DejaVuSans-53"/>
      <use xlink:href="#DejaVuSans-6f" x="63.476562"/>
      <use xlink:href="#DejaVuSans-72" x="124.658203"/>
      <use xlink:href="#DejaVuSans-6b" x="165.771484"/>
      <use xlink:href="#DejaVuSans-68" x="223.681641"/>
      <use xlink:href="#DejaVuSans-61" x="287.060547"/>
      <use xlink:href="#DejaVuSans-62" x="348.339844"/>
      <use xlink:href="#DejaVuSans-69" x="411.816406"/>
      <use xlink:href="#DejaVuSans-20" x="439.599609"/>
      <use xlink:href="#DejaVuSans-31" x="471.386719"/>
     </g>
    </g>
   </g>
  </g>
 </g>
 <defs>
  <clipPath id="p535a1a4110">
   <rect x="77.312" y="14.76" width="161.498598" height="286"/>
  </clipPath>
  <clipPath id="p19d369accf">
   <rect x="288.501402" y="14.76" width="161.498598" height="286"/>
  </clipPath>
 </defs>
</svg>
