<?xml version="1.0" encoding="utf-8" standalone="no"?>
<!DOCTYPE svg PUBLIC "-//W3C//DTD SVG 1.1//EN"
  "http://www.w3.org/Graphics/SVG/1.1/DTD/svg11.dtd">
<svg xmlns:xlink="http://www.w3.org/1999/xlink" width="460.8pt" height="345.6pt" viewBox="0 0 460.8 345.6" xmlns="http://www.w3.org/2000/svg" version="1.1">
 <metadata>
  <rdf:RDF xmlns:dc="http://purl.org/dc/elements/1.1/" xmlns:cc="http://creativecommons.org/ns#" xmlns:rdf="http://www.w3.org/1999/02/22-rdf-syntax-ns#">
   <cc:Work>
    <dc:type rdf:resource="http://purl.org/dc/dcmitype/StillImage"/>
    <dc:date>2023-03-03T07:28:16.462073</dc:date>
    <dc:format>image/svg+xml</dc:format>
    <dc:creator>
     <cc:Agent>
      <dc:title>Matplotlib v3.7.0, https://matplotlib.org/</dc:title>
     </cc:Agent>
    </dc:creator>
   </cc:Work>
  </rdf:RDF>
 </metadata>
 <defs>
  <style type="text/css">*{stroke-linejoin: round; stroke-linecap: butt}</style>
 </defs>
 <g id="figure_1">
  <g id="patch_1">
   <path d="M 0 345.6 
L 460.8 345.6 
L 460.8 0 
L 0 0 
z
" style="fill: #ffffff"/>
  </g>
  <g id="axes_1">
   <g id="patch_2">
    <path d="M 77.312 300.76 
L 236.586018 300.76 
L 236.586018 14.76 
L 77.312 14.76 
z
" style="fill: #ffffff"/>
   </g>
   <g id="matplotlib.axis_1">
    <g id="xtick_1">
     <g id="line2d_1">
      <defs>
       <path id="m4085e8df27" d="M 0 0 
L 0 3.5 
" style="stroke: #000000; stroke-width: 0.8"/>
      </defs>
      <g>
       <use xlink:href="#m4085e8df27" x="77.312" y="300.76" style="stroke: #000000; stroke-width: 0.8"/>
      </g>
     </g>
     <g id="text_1">
      <!-- 0.5 -->
      <g transform="translate(69.360438 315.358437) scale(0.1 -0.1)">
       <defs>
        <path id="DejaVuSans-30" d="M 2034 4250 
Q 1547 4250 1301 3770 
Q 1056 3291 1056 2328 
Q 1056 1369 1301 889 
Q 1547 409 2034 409 
Q 2525 409 2770 889 
Q 3016 1369 3016 2328 
Q 3016 3291 2770 3770 
Q 2525 4250 2034 4250 
z
M 2034 4750 
Q 2819 4750 3233 4129 
Q 3647 3509 3647 2328 
Q 3647 1150 3233 529 
Q 2819 -91 2034 -91 
Q 1250 -91 836 529 
Q 422 1150 422 2328 
Q 422 3509 836 4129 
Q 1250 4750 2034 4750 
z
" transform="scale(0.015625)"/>
        <path id="DejaVuSans-2e" d="M 684 794 
L 1344 794 
L 1344 0 
L 684 0 
L 684 794 
z
" transform="scale(0.015625)"/>
        <path id="DejaVuSans-35" d="M 691 4666 
L 3169 4666 
L 3169 4134 
L 1269 4134 
L 1269 2991 
Q 1406 3038 1543 3061 
Q 1681 3084 1819 3084 
Q 2600 3084 3056 2656 
Q 3513 2228 3513 1497 
Q 3513 744 3044 326 
Q 2575 -91 1722 -91 
Q 1428 -91 1123 -41 
Q 819 9 494 109 
L 494 744 
Q 775 591 1075 516 
Q 1375 441 1709 441 
Q 2250 441 2565 725 
Q 2881 1009 2881 1497 
Q 2881 1984 2565 2268 
Q 2250 2553 1709 2553 
Q 1456 2553 1204 2497 
Q 953 2441 691 2322 
L 691 4666 
z
" transform="scale(0.015625)"/>
       </defs>
       <use xlink:href="#DejaVuSans-30"/>
       <use xlink:href="#DejaVuSans-2e" x="63.623047"/>
       <use xlink:href="#DejaVuSans-35" x="95.410156"/>
      </g>
     </g>
    </g>
    <g id="xtick_2">
     <g id="line2d_2">
      <g>
       <use xlink:href="#m4085e8df27" x="109.166804" y="300.76" style="stroke: #000000; stroke-width: 0.8"/>
      </g>
     </g>
     <g id="text_2">
      <!-- 1.0 -->
      <g transform="translate(101.215241 315.358437) scale(0.1 -0.1)">
       <defs>
        <path id="DejaVuSans-31" d="M 794 531 
L 1825 531 
L 1825 4091 
L 703 3866 
L 703 4441 
L 1819 4666 
L 2450 4666 
L 2450 531 
L 3481 531 
L 3481 0 
L 794 0 
L 794 531 
z
" transform="scale(0.015625)"/>
       </defs>
       <use xlink:href="#DejaVuSans-31"/>
       <use xlink:href="#DejaVuSans-2e" x="63.623047"/>
       <use xlink:href="#DejaVuSans-30" x="95.410156"/>
      </g>
     </g>
    </g>
    <g id="xtick_3">
     <g id="line2d_3">
      <g>
       <use xlink:href="#m4085e8df27" x="141.021607" y="300.76" style="stroke: #000000; stroke-width: 0.8"/>
      </g>
     </g>
     <g id="text_3">
      <!-- 1.5 -->
      <g transform="translate(133.070045 315.358437) scale(0.1 -0.1)">
       <use xlink:href="#DejaVuSans-31"/>
       <use xlink:href="#DejaVuSans-2e" x="63.623047"/>
       <use xlink:href="#DejaVuSans-35" x="95.410156"/>
      </g>
     </g>
    </g>
    <g id="xtick_4">
     <g id="line2d_4">
      <g>
       <use xlink:href="#m4085e8df27" x="172.876411" y="300.76" style="stroke: #000000; stroke-width: 0.8"/>
      </g>
     </g>
     <g id="text_4">
      <!-- 2.0 -->
      <g transform="translate(164.924848 315.358437) scale(0.1 -0.1)">
       <defs>
        <path id="DejaVuSans-32" d="M 1228 531 
L 3431 531 
L 3431 0 
L 469 0 
L 469 531 
Q 828 903 1448 1529 
Q 2069 2156 2228 2338 
Q 2531 2678 2651 2914 
Q 2772 3150 2772 3378 
Q 2772 3750 2511 3984 
Q 2250 4219 1831 4219 
Q 1534 4219 1204 4116 
Q 875 4013 500 3803 
L 500 4441 
Q 881 4594 1212 4672 
Q 1544 4750 1819 4750 
Q 2544 4750 2975 4387 
Q 3406 4025 3406 3419 
Q 3406 3131 3298 2873 
Q 3191 2616 2906 2266 
Q 2828 2175 2409 1742 
Q 1991 1309 1228 531 
z
" transform="scale(0.015625)"/>
       </defs>
       <use xlink:href="#DejaVuSans-32"/>
       <use xlink:href="#DejaVuSans-2e" x="63.623047"/>
       <use xlink:href="#DejaVuSans-30" x="95.410156"/>
      </g>
     </g>
    </g>
    <g id="xtick_5">
     <g id="line2d_5">
      <g>
       <use xlink:href="#m4085e8df27" x="204.731215" y="300.76" style="stroke: #000000; stroke-width: 0.8"/>
      </g>
     </g>
     <g id="text_5">
      <!-- 2.5 -->
      <g transform="translate(196.779652 315.358437) scale(0.1 -0.1)">
       <use xlink:href="#DejaVuSans-32"/>
       <use xlink:href="#DejaVuSans-2e" x="63.623047"/>
       <use xlink:href="#DejaVuSans-35" x="95.410156"/>
      </g>
     </g>
    </g>
    <g id="xtick_6">
     <g id="line2d_6">
      <g>
       <use xlink:href="#m4085e8df27" x="236.586018" y="300.76" style="stroke: #000000; stroke-width: 0.8"/>
      </g>
     </g>
     <g id="text_6">
      <!-- 3.0 -->
      <g transform="translate(228.634456 315.358437) scale(0.1 -0.1)">
       <defs>
        <path id="DejaVuSans-33" d="M 2597 2516 
Q 3050 2419 3304 2112 
Q 3559 1806 3559 1356 
Q 3559 666 3084 287 
Q 2609 -91 1734 -91 
Q 1441 -91 1130 -33 
Q 819 25 488 141 
L 488 750 
Q 750 597 1062 519 
Q 1375 441 1716 441 
Q 2309 441 2620 675 
Q 2931 909 2931 1356 
Q 2931 1769 2642 2001 
Q 2353 2234 1838 2234 
L 1294 2234 
L 1294 2753 
L 1863 2753 
Q 2328 2753 2575 2939 
Q 2822 3125 2822 3475 
Q 2822 3834 2567 4026 
Q 2313 4219 1838 4219 
Q 1578 4219 1281 4162 
Q 984 4106 628 3988 
L 628 4550 
Q 988 4650 1302 4700 
Q 1616 4750 1894 4750 
Q 2613 4750 3031 4423 
Q 3450 4097 3450 3541 
Q 3450 3153 3228 2886 
Q 3006 2619 2597 2516 
z
" transform="scale(0.015625)"/>
       </defs>
       <use xlink:href="#DejaVuSans-33"/>
       <use xlink:href="#DejaVuSans-2e" x="63.623047"/>
       <use xlink:href="#DejaVuSans-30" x="95.410156"/>
      </g>
     </g>
    </g>
    <g id="text_7">
     <!-- internuclear distance ($\AA$) -->
     <g transform="translate(94.899009 330.058437) scale(0.1 -0.1)">
      <defs>
       <path id="DejaVuSans-69" d="M 603 3500 
L 1178 3500 
L 1178 0 
L 603 0 
L 603 3500 
z
M 603 4863 
L 1178 4863 
L 1178 4134 
L 603 4134 
L 603 4863 
z
" transform="scale(0.015625)"/>
       <path id="DejaVuSans-6e" d="M 3513 2113 
L 3513 0 
L 2938 0 
L 2938 2094 
Q 2938 2591 2744 2837 
Q 2550 3084 2163 3084 
Q 1697 3084 1428 2787 
Q 1159 2491 1159 1978 
L 1159 0 
L 581 0 
L 581 3500 
L 1159 3500 
L 1159 2956 
Q 1366 3272 1645 3428 
Q 1925 3584 2291 3584 
Q 2894 3584 3203 3211 
Q 3513 2838 3513 2113 
z
" transform="scale(0.015625)"/>
       <path id="DejaVuSans-74" d="M 1172 4494 
L 1172 3500 
L 2356 3500 
L 2356 3053 
L 1172 3053 
L 1172 1153 
Q 1172 725 1289 603 
Q 1406 481 1766 481 
L 2356 481 
L 2356 0 
L 1766 0 
Q 1100 0 847 248 
Q 594 497 594 1153 
L 594 3053 
L 172 3053 
L 172 3500 
L 594 3500 
L 594 4494 
L 1172 4494 
z
" transform="scale(0.015625)"/>
       <path id="DejaVuSans-65" d="M 3597 1894 
L 3597 1613 
L 953 1613 
Q 991 1019 1311 708 
Q 1631 397 2203 397 
Q 2534 397 2845 478 
Q 3156 559 3463 722 
L 3463 178 
Q 3153 47 2828 -22 
Q 2503 -91 2169 -91 
Q 1331 -91 842 396 
Q 353 884 353 1716 
Q 353 2575 817 3079 
Q 1281 3584 2069 3584 
Q 2775 3584 3186 3129 
Q 3597 2675 3597 1894 
z
M 3022 2063 
Q 3016 2534 2758 2815 
Q 2500 3097 2075 3097 
Q 1594 3097 1305 2825 
Q 1016 2553 972 2059 
L 3022 2063 
z
" transform="scale(0.015625)"/>
       <path id="DejaVuSans-72" d="M 2631 2963 
Q 2534 3019 2420 3045 
Q 2306 3072 2169 3072 
Q 1681 3072 1420 2755 
Q 1159 2438 1159 1844 
L 1159 0 
L 581 0 
L 581 3500 
L 1159 3500 
L 1159 2956 
Q 1341 3275 1631 3429 
Q 1922 3584 2338 3584 
Q 2397 3584 2469 3576 
Q 2541 3569 2628 3553 
L 2631 2963 
z
" transform="scale(0.015625)"/>
       <path id="DejaVuSans-75" d="M 544 1381 
L 544 3500 
L 1119 3500 
L 1119 1403 
Q 1119 906 1312 657 
Q 1506 409 1894 409 
Q 2359 409 2629 706 
Q 2900 1003 2900 1516 
L 2900 3500 
L 3475 3500 
L 3475 0 
L 2900 0 
L 2900 538 
Q 2691 219 2414 64 
Q 2138 -91 1772 -91 
Q 1169 -91 856 284 
Q 544 659 544 1381 
z
M 1991 3584 
L 1991 3584 
z
" transform="scale(0.015625)"/>
       <path id="DejaVuSans-63" d="M 3122 3366 
L 3122 2828 
Q 2878 2963 2633 3030 
Q 2388 3097 2138 3097 
Q 1578 3097 1268 2742 
Q 959 2388 959 1747 
Q 959 1106 1268 751 
Q 1578 397 2138 397 
Q 2388 397 2633 464 
Q 2878 531 3122 666 
L 3122 134 
Q 2881 22 2623 -34 
Q 2366 -91 2075 -91 
Q 1284 -91 818 406 
Q 353 903 353 1747 
Q 353 2603 823 3093 
Q 1294 3584 2113 3584 
Q 2378 3584 2631 3529 
Q 2884 3475 3122 3366 
z
" transform="scale(0.015625)"/>
       <path id="DejaVuSans-6c" d="M 603 4863 
L 1178 4863 
L 1178 0 
L 603 0 
L 603 4863 
z
" transform="scale(0.015625)"/>
       <path id="DejaVuSans-61" d="M 2194 1759 
Q 1497 1759 1228 1600 
Q 959 1441 959 1056 
Q 959 750 1161 570 
Q 1363 391 1709 391 
Q 2188 391 2477 730 
Q 2766 1069 2766 1631 
L 2766 1759 
L 2194 1759 
z
M 3341 1997 
L 3341 0 
L 2766 0 
L 2766 531 
Q 2569 213 2275 61 
Q 1981 -91 1556 -91 
Q 1019 -91 701 211 
Q 384 513 384 1019 
Q 384 1609 779 1909 
Q 1175 2209 1959 2209 
L 2766 2209 
L 2766 2266 
Q 2766 2663 2505 2880 
Q 2244 3097 1772 3097 
Q 1472 3097 1187 3025 
Q 903 2953 641 2809 
L 641 3341 
Q 956 3463 1253 3523 
Q 1550 3584 1831 3584 
Q 2591 3584 2966 3190 
Q 3341 2797 3341 1997 
z
" transform="scale(0.015625)"/>
       <path id="DejaVuSans-20" transform="scale(0.015625)"/>
       <path id="DejaVuSans-64" d="M 2906 2969 
L 2906 4863 
L 3481 4863 
L 3481 0 
L 2906 0 
L 2906 525 
Q 2725 213 2448 61 
Q 2172 -91 1784 -91 
Q 1150 -91 751 415 
Q 353 922 353 1747 
Q 353 2572 751 3078 
Q 1150 3584 1784 3584 
Q 2172 3584 2448 3432 
Q 2725 3281 2906 2969 
z
M 947 1747 
Q 947 1113 1208 752 
Q 1469 391 1925 391 
Q 2381 391 2643 752 
Q 2906 1113 2906 1747 
Q 2906 2381 2643 2742 
Q 2381 3103 1925 3103 
Q 1469 3103 1208 2742 
Q 947 2381 947 1747 
z
" transform="scale(0.015625)"/>
       <path id="DejaVuSans-73" d="M 2834 3397 
L 2834 2853 
Q 2591 2978 2328 3040 
Q 2066 3103 1784 3103 
Q 1356 3103 1142 2972 
Q 928 2841 928 2578 
Q 928 2378 1081 2264 
Q 1234 2150 1697 2047 
L 1894 2003 
Q 2506 1872 2764 1633 
Q 3022 1394 3022 966 
Q 3022 478 2636 193 
Q 2250 -91 1575 -91 
Q 1294 -91 989 -36 
Q 684 19 347 128 
L 347 722 
Q 666 556 975 473 
Q 1284 391 1588 391 
Q 1994 391 2212 530 
Q 2431 669 2431 922 
Q 2431 1156 2273 1281 
Q 2116 1406 1581 1522 
L 1381 1569 
Q 847 1681 609 1914 
Q 372 2147 372 2553 
Q 372 3047 722 3315 
Q 1072 3584 1716 3584 
Q 2034 3584 2315 3537 
Q 2597 3491 2834 3397 
z
" transform="scale(0.015625)"/>
       <path id="DejaVuSans-28" d="M 1984 4856 
Q 1566 4138 1362 3434 
Q 1159 2731 1159 2009 
Q 1159 1288 1364 580 
Q 1569 -128 1984 -844 
L 1484 -844 
Q 1016 -109 783 600 
Q 550 1309 550 2009 
Q 550 2706 781 3412 
Q 1013 4119 1484 4856 
L 1984 4856 
z
" transform="scale(0.015625)"/>
       <path id="DejaVuSans-Oblique-c5" d="M 3188 5081 
Q 3188 5278 3048 5417 
Q 2909 5556 2713 5556 
Q 2513 5556 2377 5420 
Q 2241 5284 2241 5081 
Q 2241 4884 2377 4746 
Q 2513 4609 2713 4609 
Q 2909 4609 3048 4746 
Q 3188 4884 3188 5081 
z
M 2203 4397 
Q 2034 4513 1945 4689 
Q 1856 4866 1856 5081 
Q 1856 5438 2106 5689 
Q 2356 5941 2713 5941 
Q 3069 5941 3320 5689 
Q 3572 5438 3572 5081 
Q 3572 4834 3458 4643 
Q 3344 4453 3128 4341 
L 3938 0 
L 3278 0 
L 3084 1197 
L 984 1197 
L 325 0 
L -341 0 
L 2203 4397 
z
M 2584 4044 
L 1275 1722 
L 2988 1722 
L 2584 4044 
z
" transform="scale(0.015625)"/>
       <path id="DejaVuSans-29" d="M 513 4856 
L 1013 4856 
Q 1481 4119 1714 3412 
Q 1947 2706 1947 2009 
Q 1947 1309 1714 600 
Q 1481 -109 1013 -844 
L 513 -844 
Q 928 -128 1133 580 
Q 1338 1288 1338 2009 
Q 1338 2731 1133 3434 
Q 928 4138 513 4856 
z
" transform="scale(0.015625)"/>
      </defs>
      <use xlink:href="#DejaVuSans-69" transform="translate(0 0.171875)"/>
      <use xlink:href="#DejaVuSans-6e" transform="translate(27.783203 0.171875)"/>
      <use xlink:href="#DejaVuSans-74" transform="translate(91.162109 0.171875)"/>
      <use xlink:href="#DejaVuSans-65" transform="translate(130.371094 0.171875)"/>
      <use xlink:href="#DejaVuSans-72" transform="translate(191.894531 0.171875)"/>
      <use xlink:href="#DejaVuSans-6e" transform="translate(233.007812 0.171875)"/>
      <use xlink:href="#DejaVuSans-75" transform="translate(296.386719 0.171875)"/>
      <use xlink:href="#DejaVuSans-63" transform="translate(359.765625 0.171875)"/>
      <use xlink:href="#DejaVuSans-6c" transform="translate(414.746094 0.171875)"/>
      <use xlink:href="#DejaVuSans-65" transform="translate(442.529297 0.171875)"/>
      <use xlink:href="#DejaVuSans-61" transform="translate(504.052734 0.171875)"/>
      <use xlink:href="#DejaVuSans-72" transform="translate(565.332031 0.171875)"/>
      <use xlink:href="#DejaVuSans-20" transform="translate(606.445312 0.171875)"/>
      <use xlink:href="#DejaVuSans-64" transform="translate(638.232422 0.171875)"/>
      <use xlink:href="#DejaVuSans-69" transform="translate(701.708984 0.171875)"/>
      <use xlink:href="#DejaVuSans-73" transform="translate(729.492188 0.171875)"/>
      <use xlink:href="#DejaVuSans-74" transform="translate(781.591797 0.171875)"/>
      <use xlink:href="#DejaVuSans-61" transform="translate(820.800781 0.171875)"/>
      <use xlink:href="#DejaVuSans-6e" transform="translate(882.080078 0.171875)"/>
      <use xlink:href="#DejaVuSans-63" transform="translate(945.458984 0.171875)"/>
      <use xlink:href="#DejaVuSans-65" transform="translate(1000.439453 0.171875)"/>
      <use xlink:href="#DejaVuSans-20" transform="translate(1061.962891 0.171875)"/>
      <use xlink:href="#DejaVuSans-28" transform="translate(1093.75 0.171875)"/>
      <use xlink:href="#DejaVuSans-Oblique-c5" transform="translate(1132.763672 0.171875)"/>
      <use xlink:href="#DejaVuSans-29" transform="translate(1201.171875 0.171875)"/>
     </g>
    </g>
   </g>
   <g id="matplotlib.axis_2">
    <g id="ytick_1">
     <g id="line2d_7">
      <defs>
       <path id="me0ff61d1d3" d="M 0 0 
L -3.5 0 
" style="stroke: #000000; stroke-width: 0.8"/>
      </defs>
      <g>
       <use xlink:href="#me0ff61d1d3" x="77.312" y="300.76" style="stroke: #000000; stroke-width: 0.8"/>
      </g>
     </g>
     <g id="text_8">
      <!-- −10000 -->
      <g transform="translate(30.119813 304.559219) scale(0.1 -0.1)">
       <defs>
        <path id="DejaVuSans-2212" d="M 678 2272 
L 4684 2272 
L 4684 1741 
L 678 1741 
L 678 2272 
z
" transform="scale(0.015625)"/>
       </defs>
       <use xlink:href="#DejaVuSans-2212"/>
       <use xlink:href="#DejaVuSans-31" x="83.789062"/>
       <use xlink:href="#DejaVuSans-30" x="147.412109"/>
       <use xlink:href="#DejaVuSans-30" x="211.035156"/>
       <use xlink:href="#DejaVuSans-30" x="274.658203"/>
       <use xlink:href="#DejaVuSans-30" x="338.28125"/>
      </g>
     </g>
    </g>
    <g id="ytick_2">
     <g id="line2d_8">
      <g>
       <use xlink:href="#me0ff61d1d3" x="77.312" y="268.982222" style="stroke: #000000; stroke-width: 0.8"/>
      </g>
     </g>
     <g id="text_9">
      <!-- 0 -->
      <g transform="translate(63.9495 272.781441) scale(0.1 -0.1)">
       <use xlink:href="#DejaVuSans-30"/>
      </g>
     </g>
    </g>
    <g id="ytick_3">
     <g id="line2d_9">
      <g>
       <use xlink:href="#me0ff61d1d3" x="77.312" y="237.204444" style="stroke: #000000; stroke-width: 0.8"/>
      </g>
     </g>
     <g id="text_10">
      <!-- 10000 -->
      <g transform="translate(38.4995 241.003663) scale(0.1 -0.1)">
       <use xlink:href="#DejaVuSans-31"/>
       <use xlink:href="#DejaVuSans-30" x="63.623047"/>
       <use xlink:href="#DejaVuSans-30" x="127.246094"/>
       <use xlink:href="#DejaVuSans-30" x="190.869141"/>
       <use xlink:href="#DejaVuSans-30" x="254.492188"/>
      </g>
     </g>
    </g>
    <g id="ytick_4">
     <g id="line2d_10">
      <g>
       <use xlink:href="#me0ff61d1d3" x="77.312" y="205.426667" style="stroke: #000000; stroke-width: 0.8"/>
      </g>
     </g>
     <g id="text_11">
      <!-- 20000 -->
      <g transform="translate(38.4995 209.225885) scale(0.1 -0.1)">
       <use xlink:href="#DejaVuSans-32"/>
       <use xlink:href="#DejaVuSans-30" x="63.623047"/>
       <use xlink:href="#DejaVuSans-30" x="127.246094"/>
       <use xlink:href="#DejaVuSans-30" x="190.869141"/>
       <use xlink:href="#DejaVuSans-30" x="254.492188"/>
      </g>
     </g>
    </g>
    <g id="ytick_5">
     <g id="line2d_11">
      <g>
       <use xlink:href="#me0ff61d1d3" x="77.312" y="173.648889" style="stroke: #000000; stroke-width: 0.8"/>
      </g>
     </g>
     <g id="text_12">
      <!-- 30000 -->
      <g transform="translate(38.4995 177.448108) scale(0.1 -0.1)">
       <use xlink:href="#DejaVuSans-33"/>
       <use xlink:href="#DejaVuSans-30" x="63.623047"/>
       <use xlink:href="#DejaVuSans-30" x="127.246094"/>
       <use xlink:href="#DejaVuSans-30" x="190.869141"/>
       <use xlink:href="#DejaVuSans-30" x="254.492188"/>
      </g>
     </g>
    </g>
    <g id="ytick_6">
     <g id="line2d_12">
      <g>
       <use xlink:href="#me0ff61d1d3" x="77.312" y="141.871111" style="stroke: #000000; stroke-width: 0.8"/>
      </g>
     </g>
     <g id="text_13">
      <!-- 40000 -->
      <g transform="translate(38.4995 145.67033) scale(0.1 -0.1)">
       <defs>
        <path id="DejaVuSans-34" d="M 2419 4116 
L 825 1625 
L 2419 1625 
L 2419 4116 
z
M 2253 4666 
L 3047 4666 
L 3047 1625 
L 3713 1625 
L 3713 1100 
L 3047 1100 
L 3047 0 
L 2419 0 
L 2419 1100 
L 313 1100 
L 313 1709 
L 2253 4666 
z
" transform="scale(0.015625)"/>
       </defs>
       <use xlink:href="#DejaVuSans-34"/>
       <use xlink:href="#DejaVuSans-30" x="63.623047"/>
       <use xlink:href="#DejaVuSans-30" x="127.246094"/>
       <use xlink:href="#DejaVuSans-30" x="190.869141"/>
       <use xlink:href="#DejaVuSans-30" x="254.492188"/>
      </g>
     </g>
    </g>
    <g id="ytick_7">
     <g id="line2d_13">
      <g>
       <use xlink:href="#me0ff61d1d3" x="77.312" y="110.093333" style="stroke: #000000; stroke-width: 0.8"/>
      </g>
     </g>
     <g id="text_14">
      <!-- 50000 -->
      <g transform="translate(38.4995 113.892552) scale(0.1 -0.1)">
       <use xlink:href="#DejaVuSans-35"/>
       <use xlink:href="#DejaVuSans-30" x="63.623047"/>
       <use xlink:href="#DejaVuSans-30" x="127.246094"/>
       <use xlink:href="#DejaVuSans-30" x="190.869141"/>
       <use xlink:href="#DejaVuSans-30" x="254.492188"/>
      </g>
     </g>
    </g>
    <g id="ytick_8">
     <g id="line2d_14">
      <g>
       <use xlink:href="#me0ff61d1d3" x="77.312" y="78.315556" style="stroke: #000000; stroke-width: 0.8"/>
      </g>
     </g>
     <g id="text_15">
      <!-- 60000 -->
      <g transform="translate(38.4995 82.114774) scale(0.1 -0.1)">
       <defs>
        <path id="DejaVuSans-36" d="M 2113 2584 
Q 1688 2584 1439 2293 
Q 1191 2003 1191 1497 
Q 1191 994 1439 701 
Q 1688 409 2113 409 
Q 2538 409 2786 701 
Q 3034 994 3034 1497 
Q 3034 2003 2786 2293 
Q 2538 2584 2113 2584 
z
M 3366 4563 
L 3366 3988 
Q 3128 4100 2886 4159 
Q 2644 4219 2406 4219 
Q 1781 4219 1451 3797 
Q 1122 3375 1075 2522 
Q 1259 2794 1537 2939 
Q 1816 3084 2150 3084 
Q 2853 3084 3261 2657 
Q 3669 2231 3669 1497 
Q 3669 778 3244 343 
Q 2819 -91 2113 -91 
Q 1303 -91 875 529 
Q 447 1150 447 2328 
Q 447 3434 972 4092 
Q 1497 4750 2381 4750 
Q 2619 4750 2861 4703 
Q 3103 4656 3366 4563 
z
" transform="scale(0.015625)"/>
       </defs>
       <use xlink:href="#DejaVuSans-36"/>
       <use xlink:href="#DejaVuSans-30" x="63.623047"/>
       <use xlink:href="#DejaVuSans-30" x="127.246094"/>
       <use xlink:href="#DejaVuSans-30" x="190.869141"/>
       <use xlink:href="#DejaVuSans-30" x="254.492188"/>
      </g>
     </g>
    </g>
    <g id="ytick_9">
     <g id="line2d_15">
      <g>
       <use xlink:href="#me0ff61d1d3" x="77.312" y="46.537778" style="stroke: #000000; stroke-width: 0.8"/>
      </g>
     </g>
     <g id="text_16">
      <!-- 70000 -->
      <g transform="translate(38.4995 50.336997) scale(0.1 -0.1)">
       <defs>
        <path id="DejaVuSans-37" d="M 525 4666 
L 3525 4666 
L 3525 4397 
L 1831 0 
L 1172 0 
L 2766 4134 
L 525 4134 
L 525 4666 
z
" transform="scale(0.015625)"/>
       </defs>
       <use xlink:href="#DejaVuSans-37"/>
       <use xlink:href="#DejaVuSans-30" x="63.623047"/>
       <use xlink:href="#DejaVuSans-30" x="127.246094"/>
       <use xlink:href="#DejaVuSans-30" x="190.869141"/>
       <use xlink:href="#DejaVuSans-30" x="254.492188"/>
      </g>
     </g>
    </g>
    <g id="ytick_10">
     <g id="line2d_16">
      <g>
       <use xlink:href="#me0ff61d1d3" x="77.312" y="14.76" style="stroke: #000000; stroke-width: 0.8"/>
      </g>
     </g>
     <g id="text_17">
      <!-- 80000 -->
      <g transform="translate(38.4995 18.559219) scale(0.1 -0.1)">
       <defs>
        <path id="DejaVuSans-38" d="M 2034 2216 
Q 1584 2216 1326 1975 
Q 1069 1734 1069 1313 
Q 1069 891 1326 650 
Q 1584 409 2034 409 
Q 2484 409 2743 651 
Q 3003 894 3003 1313 
Q 3003 1734 2745 1975 
Q 2488 2216 2034 2216 
z
M 1403 2484 
Q 997 2584 770 2862 
Q 544 3141 544 3541 
Q 544 4100 942 4425 
Q 1341 4750 2034 4750 
Q 2731 4750 3128 4425 
Q 3525 4100 3525 3541 
Q 3525 3141 3298 2862 
Q 3072 2584 2669 2484 
Q 3125 2378 3379 2068 
Q 3634 1759 3634 1313 
Q 3634 634 3220 271 
Q 2806 -91 2034 -91 
Q 1263 -91 848 271 
Q 434 634 434 1313 
Q 434 1759 690 2068 
Q 947 2378 1403 2484 
z
M 1172 3481 
Q 1172 3119 1398 2916 
Q 1625 2713 2034 2713 
Q 2441 2713 2670 2916 
Q 2900 3119 2900 3481 
Q 2900 3844 2670 4047 
Q 2441 4250 2034 4250 
Q 1625 4250 1398 4047 
Q 1172 3844 1172 3481 
z
" transform="scale(0.015625)"/>
       </defs>
       <use xlink:href="#DejaVuSans-38"/>
       <use xlink:href="#DejaVuSans-30" x="63.623047"/>
       <use xlink:href="#DejaVuSans-30" x="127.246094"/>
       <use xlink:href="#DejaVuSans-30" x="190.869141"/>
       <use xlink:href="#DejaVuSans-30" x="254.492188"/>
      </g>
     </g>
    </g>
    <g id="text_18">
     <!-- potential energy (cm$^{-1}$) -->
     <g transform="translate(24.019813 217.56) rotate(-90) scale(0.1 -0.1)">
      <defs>
       <path id="DejaVuSans-70" d="M 1159 525 
L 1159 -1331 
L 581 -1331 
L 581 3500 
L 1159 3500 
L 1159 2969 
Q 1341 3281 1617 3432 
Q 1894 3584 2278 3584 
Q 2916 3584 3314 3078 
Q 3713 2572 3713 1747 
Q 3713 922 3314 415 
Q 2916 -91 2278 -91 
Q 1894 -91 1617 61 
Q 1341 213 1159 525 
z
M 3116 1747 
Q 3116 2381 2855 2742 
Q 2594 3103 2138 3103 
Q 1681 3103 1420 2742 
Q 1159 2381 1159 1747 
Q 1159 1113 1420 752 
Q 1681 391 2138 391 
Q 2594 391 2855 752 
Q 3116 1113 3116 1747 
z
" transform="scale(0.015625)"/>
       <path id="DejaVuSans-6f" d="M 1959 3097 
Q 1497 3097 1228 2736 
Q 959 2375 959 1747 
Q 959 1119 1226 758 
Q 1494 397 1959 397 
Q 2419 397 2687 759 
Q 2956 1122 2956 1747 
Q 2956 2369 2687 2733 
Q 2419 3097 1959 3097 
z
M 1959 3584 
Q 2709 3584 3137 3096 
Q 3566 2609 3566 1747 
Q 3566 888 3137 398 
Q 2709 -91 1959 -91 
Q 1206 -91 779 398 
Q 353 888 353 1747 
Q 353 2609 779 3096 
Q 1206 3584 1959 3584 
z
" transform="scale(0.015625)"/>
       <path id="DejaVuSans-67" d="M 2906 1791 
Q 2906 2416 2648 2759 
Q 2391 3103 1925 3103 
Q 1463 3103 1205 2759 
Q 947 2416 947 1791 
Q 947 1169 1205 825 
Q 1463 481 1925 481 
Q 2391 481 2648 825 
Q 2906 1169 2906 1791 
z
M 3481 434 
Q 3481 -459 3084 -895 
Q 2688 -1331 1869 -1331 
Q 1566 -1331 1297 -1286 
Q 1028 -1241 775 -1147 
L 775 -588 
Q 1028 -725 1275 -790 
Q 1522 -856 1778 -856 
Q 2344 -856 2625 -561 
Q 2906 -266 2906 331 
L 2906 616 
Q 2728 306 2450 153 
Q 2172 0 1784 0 
Q 1141 0 747 490 
Q 353 981 353 1791 
Q 353 2603 747 3093 
Q 1141 3584 1784 3584 
Q 2172 3584 2450 3431 
Q 2728 3278 2906 2969 
L 2906 3500 
L 3481 3500 
L 3481 434 
z
" transform="scale(0.015625)"/>
       <path id="DejaVuSans-79" d="M 2059 -325 
Q 1816 -950 1584 -1140 
Q 1353 -1331 966 -1331 
L 506 -1331 
L 506 -850 
L 844 -850 
Q 1081 -850 1212 -737 
Q 1344 -625 1503 -206 
L 1606 56 
L 191 3500 
L 800 3500 
L 1894 763 
L 2988 3500 
L 3597 3500 
L 2059 -325 
z
" transform="scale(0.015625)"/>
       <path id="DejaVuSans-6d" d="M 3328 2828 
Q 3544 3216 3844 3400 
Q 4144 3584 4550 3584 
Q 5097 3584 5394 3201 
Q 5691 2819 5691 2113 
L 5691 0 
L 5113 0 
L 5113 2094 
Q 5113 2597 4934 2840 
Q 4756 3084 4391 3084 
Q 3944 3084 3684 2787 
Q 3425 2491 3425 1978 
L 3425 0 
L 2847 0 
L 2847 2094 
Q 2847 2600 2669 2842 
Q 2491 3084 2119 3084 
Q 1678 3084 1418 2786 
Q 1159 2488 1159 1978 
L 1159 0 
L 581 0 
L 581 3500 
L 1159 3500 
L 1159 2956 
Q 1356 3278 1631 3431 
Q 1906 3584 2284 3584 
Q 2666 3584 2933 3390 
Q 3200 3197 3328 2828 
z
" transform="scale(0.015625)"/>
      </defs>
      <use xlink:href="#DejaVuSans-70" transform="translate(0 0.684375)"/>
      <use xlink:href="#DejaVuSans-6f" transform="translate(63.476562 0.684375)"/>
      <use xlink:href="#DejaVuSans-74" transform="translate(124.658203 0.684375)"/>
      <use xlink:href="#DejaVuSans-65" transform="translate(163.867188 0.684375)"/>
      <use xlink:href="#DejaVuSans-6e" transform="translate(225.390625 0.684375)"/>
      <use xlink:href="#DejaVuSans-74" transform="translate(288.769531 0.684375)"/>
      <use xlink:href="#DejaVuSans-69" transform="translate(327.978516 0.684375)"/>
      <use xlink:href="#DejaVuSans-61" transform="translate(355.761719 0.684375)"/>
      <use xlink:href="#DejaVuSans-6c" transform="translate(417.041016 0.684375)"/>
      <use xlink:href="#DejaVuSans-20" transform="translate(444.824219 0.684375)"/>
      <use xlink:href="#DejaVuSans-65" transform="translate(476.611328 0.684375)"/>
      <use xlink:href="#DejaVuSans-6e" transform="translate(538.134766 0.684375)"/>
      <use xlink:href="#DejaVuSans-65" transform="translate(601.513672 0.684375)"/>
      <use xlink:href="#DejaVuSans-72" transform="translate(663.037109 0.684375)"/>
      <use xlink:href="#DejaVuSans-67" transform="translate(704.150391 0.684375)"/>
      <use xlink:href="#DejaVuSans-79" transform="translate(767.626953 0.684375)"/>
      <use xlink:href="#DejaVuSans-20" transform="translate(826.806641 0.684375)"/>
      <use xlink:href="#DejaVuSans-28" transform="translate(858.59375 0.684375)"/>
      <use xlink:href="#DejaVuSans-63" transform="translate(897.607422 0.684375)"/>
      <use xlink:href="#DejaVuSans-6d" transform="translate(952.587891 0.684375)"/>
      <use xlink:href="#DejaVuSans-2212" transform="translate(1050.957031 38.965625) scale(0.7)"/>
      <use xlink:href="#DejaVuSans-31" transform="translate(1109.609375 38.965625) scale(0.7)"/>
      <use xlink:href="#DejaVuSans-29" transform="translate(1156.879883 0.684375)"/>
     </g>
    </g>
   </g>
   <g id="line2d_17">
    <path d="M 102.01529 -1 
L 103.496649 46.505476 
L 105.025679 88.517709 
L 106.491 122.868917 
L 107.956321 152.115253 
L 109.357932 175.864927 
L 110.759544 195.95883 
L 112.097446 212.114703 
L 113.435347 225.632231 
L 114.773249 236.795478 
L 116.047441 245.592653 
L 117.257924 252.421094 
L 118.404697 257.632378 
L 119.48776 261.528386 
L 120.507114 264.364232 
L 121.399048 266.23999 
L 122.227273 267.515823 
L 122.991788 268.324767 
L 123.692594 268.777192 
L 124.3934 268.971591 
L 125.094205 268.925412 
L 125.795011 268.654914 
L 126.559526 268.122219 
L 127.451461 267.212243 
L 128.470815 265.826389 
L 129.617588 263.873176 
L 130.955489 261.132835 
L 132.48452 257.482177 
L 134.332099 252.465782 
L 136.561935 245.729303 
L 139.428867 236.303971 
L 143.697411 221.410338 
L 145.927247 213.896623 
L 148.411922 206.541539 
L 150.896596 199.86347 
L 153.444981 193.637745 
L 156.057075 187.83798 
L 158.732878 182.438502 
L 161.472391 177.414492 
L 164.275614 172.742089 
L 167.142546 168.398456 
L 170.073188 164.361833 
L 173.06754 160.611563 
L 176.189311 157.058959 
L 179.374791 153.767288 
L 182.68769 150.66047 
L 186.128009 147.736482 
L 189.759457 144.945114 
L 193.518324 142.337028 
L 197.468319 139.867229 
L 201.609444 137.539282 
L 206.005407 135.323864 
L 210.656208 133.229667 
L 215.625557 131.23784 
L 220.913455 129.358866 
L 226.58361 127.580432 
L 232.699732 125.895972 
L 236.586018 124.934953 
L 236.586018 124.934953 
" clip-path="url(#p6b649c7d84)" style="fill: none; stroke: #1f77b4; stroke-width: 1.5; stroke-linecap: square"/>
   </g>
   <g id="line2d_18">
    <defs>
     <path id="mbcb24f803d" d="M 0 3 
C 0.795609 3 1.55874 2.683901 2.12132 2.12132 
C 2.683901 1.55874 3 0.795609 3 0 
C 3 -0.795609 2.683901 -1.55874 2.12132 -2.12132 
C 1.55874 -2.683901 0.795609 -3 0 -3 
C -0.795609 -3 -1.55874 -2.683901 -2.12132 -2.12132 
C -2.683901 -1.55874 -3 -0.795609 -3 0 
C -3 0.795609 -2.683901 1.55874 -2.12132 2.12132 
C -1.55874 2.683901 -0.795609 3 0 3 
z
" style="stroke: #17becf"/>
    </defs>
    <g clip-path="url(#p6b649c7d84)">
     <use xlink:href="#mbcb24f803d" x="112.522661" y="216.816426" style="fill: #17becf; stroke: #17becf"/>
     <use xlink:href="#mbcb24f803d" x="113.041203" y="221.947234" style="fill: #17becf; stroke: #17becf"/>
     <use xlink:href="#mbcb24f803d" x="113.605103" y="227.162826" style="fill: #17becf; stroke: #17becf"/>
     <use xlink:href="#mbcb24f803d" x="114.224443" y="232.4632" style="fill: #17becf; stroke: #17becf"/>
     <use xlink:href="#mbcb24f803d" x="114.913421" y="237.848358" style="fill: #17becf; stroke: #17becf"/>
     <use xlink:href="#mbcb24f803d" x="115.693162" y="243.318298" style="fill: #17becf; stroke: #17becf"/>
     <use xlink:href="#mbcb24f803d" x="116.597603" y="248.873022" style="fill: #17becf; stroke: #17becf"/>
     <use xlink:href="#mbcb24f803d" x="117.687923" y="254.512529" style="fill: #17becf; stroke: #17becf"/>
     <use xlink:href="#mbcb24f803d" x="119.098418" y="260.236819" style="fill: #17becf; stroke: #17becf"/>
     <use xlink:href="#mbcb24f803d" x="121.293473" y="266.045892" style="fill: #17becf; stroke: #17becf"/>
     <use xlink:href="#mbcb24f803d" x="127.910607" y="266.631462" style="fill: #17becf; stroke: #17becf"/>
     <use xlink:href="#mbcb24f803d" x="131.098286" y="260.813911" style="fill: #17becf; stroke: #17becf"/>
     <use xlink:href="#mbcb24f803d" x="133.396118" y="255.081143" style="fill: #17becf; stroke: #17becf"/>
     <use xlink:href="#mbcb24f803d" x="135.362425" y="249.433157" style="fill: #17becf; stroke: #17becf"/>
     <use xlink:href="#mbcb24f803d" x="137.145324" y="243.869955" style="fill: #17becf; stroke: #17becf"/>
     <use xlink:href="#mbcb24f803d" x="138.810609" y="238.391536" style="fill: #17becf; stroke: #17becf"/>
     <use xlink:href="#mbcb24f803d" x="140.394402" y="232.997901" style="fill: #17becf; stroke: #17becf"/>
     <use xlink:href="#mbcb24f803d" x="141.919125" y="227.689048" style="fill: #17becf; stroke: #17becf"/>
     <use xlink:href="#mbcb24f803d" x="143.399888" y="222.464978" style="fill: #17becf; stroke: #17becf"/>
     <use xlink:href="#mbcb24f803d" x="144.847498" y="217.325692" style="fill: #17becf; stroke: #17becf"/>
    </g>
   </g>
   <g id="line2d_19">
    <path d="M 107.390482 -1 
L 108.657127 25.746365 
L 109.931319 48.037134 
L 111.205511 66.413272 
L 112.543413 82.355856 
L 113.881315 94.72528 
L 115.155507 104.472848 
L 116.365989 112.058392 
L 117.512762 117.881979 
L 118.595826 122.281256 
L 119.615179 125.537249 
L 120.570823 127.882313 
L 121.462758 129.50793 
L 122.290983 130.571646 
L 123.055498 131.203008 
L 123.756304 131.508303 
L 124.457109 131.570854 
L 125.157915 131.408125 
L 125.92243 130.99245 
L 126.750655 130.284362 
L 127.706299 129.16405 
L 128.789363 127.541951 
L 130.063555 125.212336 
L 131.528876 122.051115 
L 133.249035 117.796099 
L 135.351452 111.969556 
L 137.963546 104.04047 
L 141.658703 92.048043 
L 146.691762 74.994497 
L 148.157083 69.030895 
L 149.686114 61.831188 
L 151.215144 53.494062 
L 152.744175 43.860271 
L 154.273206 32.751052 
L 155.802236 19.966059 
L 157.331267 5.28112 
L 157.926243 -1 
L 157.926243 -1 
" clip-path="url(#p6b649c7d84)" style="fill: none; stroke: #2ca02c; stroke-width: 1.5; stroke-linecap: square"/>
   </g>
   <g id="line2d_20">
    <defs>
     <path id="med1488bfb5" d="M 0 3 
C 0.795609 3 1.55874 2.683901 2.12132 2.12132 
C 2.683901 1.55874 3 0.795609 3 0 
C 3 -0.795609 2.683901 -1.55874 2.12132 -2.12132 
C 1.55874 -2.683901 0.795609 -3 0 -3 
C -0.795609 -3 -1.55874 -2.683901 -2.12132 -2.12132 
C -2.683901 -1.55874 -3 -0.795609 -3 0 
C -3 0.795609 -2.683901 1.55874 -2.12132 2.12132 
C -1.55874 2.683901 -0.795609 3 0 3 
z
" style="stroke: #bcbd22"/>
    </defs>
    <g clip-path="url(#p6b649c7d84)">
     <use xlink:href="#med1488bfb5" x="112.346719" y="80.342247" style="fill: #bcbd22; stroke: #bcbd22"/>
     <use xlink:href="#med1488bfb5" x="112.846485" y="85.358846" style="fill: #bcbd22; stroke: #bcbd22"/>
     <use xlink:href="#med1488bfb5" x="113.391925" y="90.464041" style="fill: #bcbd22; stroke: #bcbd22"/>
     <use xlink:href="#med1488bfb5" x="113.993171" y="95.657833" style="fill: #bcbd22; stroke: #bcbd22"/>
     <use xlink:href="#med1488bfb5" x="114.664493" y="100.940221" style="fill: #bcbd22; stroke: #bcbd22"/>
     <use xlink:href="#med1488bfb5" x="115.427126" y="106.311206" style="fill: #bcbd22; stroke: #bcbd22"/>
     <use xlink:href="#med1488bfb5" x="116.315193" y="111.770787" style="fill: #bcbd22; stroke: #bcbd22"/>
     <use xlink:href="#med1488bfb5" x="117.390221" y="117.318964" style="fill: #bcbd22; stroke: #bcbd22"/>
     <use xlink:href="#med1488bfb5" x="118.787311" y="122.955738" style="fill: #bcbd22; stroke: #bcbd22"/>
     <use xlink:href="#med1488bfb5" x="120.973782" y="128.681109" style="fill: #bcbd22; stroke: #bcbd22"/>
     <use xlink:href="#med1488bfb5" x="127.634715" y="129.258519" style="fill: #bcbd22; stroke: #bcbd22"/>
     <use xlink:href="#med1488bfb5" x="130.873053" y="123.524289" style="fill: #bcbd22; stroke: #bcbd22"/>
     <use xlink:href="#med1488bfb5" x="133.21751" y="117.878655" style="fill: #bcbd22; stroke: #bcbd22"/>
     <use xlink:href="#med1488bfb5" x="135.23002" y="112.321618" style="fill: #bcbd22; stroke: #bcbd22"/>
     <use xlink:href="#med1488bfb5" x="137.059655" y="106.853177" style="fill: #bcbd22; stroke: #bcbd22"/>
     <use xlink:href="#med1488bfb5" x="138.772652" y="101.473333" style="fill: #bcbd22; stroke: #bcbd22"/>
     <use xlink:href="#med1488bfb5" x="140.405404" y="96.182085" style="fill: #bcbd22; stroke: #bcbd22"/>
     <use xlink:href="#med1488bfb5" x="141.980529" y="90.979433" style="fill: #bcbd22; stroke: #bcbd22"/>
     <use xlink:href="#med1488bfb5" x="143.513294" y="85.865378" style="fill: #bcbd22; stroke: #bcbd22"/>
     <use xlink:href="#med1488bfb5" x="145.014644" y="80.83992" style="fill: #bcbd22; stroke: #bcbd22"/>
    </g>
   </g>
   <g id="line2d_21">
    <path d="M 77.312 268.981858 
L 113.435347 268.874456 
L 114.58212 268.626272 
L 115.346636 268.253956 
L 116.047441 267.654684 
L 116.684537 266.792777 
L 117.321633 265.521711 
L 117.958729 263.736462 
L 118.659535 261.075275 
L 119.42405 257.276354 
L 120.379695 251.319405 
L 123.310336 231.94756 
L 123.947433 229.579917 
L 124.3934 228.652613 
L 124.711948 228.38438 
L 124.966786 228.409589 
L 125.285334 228.737251 
L 125.667592 229.548782 
L 126.177269 231.28303 
L 126.814365 234.333056 
L 127.770009 240.151246 
L 130.254684 255.835895 
L 131.210328 260.2974 
L 132.038553 263.203953 
L 132.803068 265.165496 
L 133.567583 266.550447 
L 134.332099 267.486323 
L 135.096614 268.092958 
L 135.988548 268.517397 
L 137.135321 268.792869 
L 138.791771 268.936265 
L 142.678057 268.980903 
L 236.586018 268.981858 
L 236.586018 268.981858 
" clip-path="url(#p6b649c7d84)" style="fill: none; stroke: #ff7f0e; stroke-width: 1.5; stroke-linecap: square"/>
   </g>
   <g id="line2d_22">
    <path d="M 77.312 268.962729 
L 110.313577 268.85851 
L 111.269221 268.618719 
L 111.970026 268.207461 
L 112.543413 267.602847 
L 113.116799 266.633059 
L 113.690186 265.159657 
L 114.263572 263.045296 
L 114.900668 259.827186 
L 115.728893 254.310266 
L 117.640181 240.764271 
L 118.086149 239.290383 
L 118.340987 239.051891 
L 118.532116 239.206461 
L 118.786954 239.894778 
L 119.105502 241.57537 
L 119.55147 245.496002 
L 120.124856 253.045821 
L 121.016791 268.595853 
L 122.099854 286.935671 
L 122.609531 292.498976 
L 122.991788 294.608956 
L 123.182917 294.922528 
L 123.310336 294.848489 
L 123.501465 294.312516 
L 123.756304 292.820596 
L 124.138561 289.028705 
L 124.711948 280.486031 
L 126.814365 245.740333 
L 127.196623 243.105298 
L 127.451461 242.383225 
L 127.57888 242.338572 
L 127.706299 242.503336 
L 127.897428 243.135536 
L 128.215976 245.167292 
L 128.661943 249.834879 
L 129.29904 259.251389 
L 131.401457 292.648736 
L 131.974843 297.958233 
L 132.42081 300.422661 
L 132.803068 301.416348 
L 133.057906 301.550695 
L 133.249035 301.399206 
L 133.503874 300.893637 
L 133.886131 299.5747 
L 134.459518 296.641562 
L 135.542581 289.560098 
L 136.944192 280.801518 
L 137.836127 276.595605 
L 138.600642 273.956764 
L 139.365157 272.098296 
L 140.065963 270.940655 
L 140.766769 270.172383 
L 141.531284 269.646789 
L 142.423219 269.299963 
L 143.633701 269.083286 
L 145.672409 268.980775 
L 153.126433 268.962732 
L 236.586018 268.962729 
L 236.586018 268.962729 
" clip-path="url(#p6b649c7d84)" style="fill: none; stroke: #2ca02c; stroke-width: 1.5; stroke-linecap: square"/>
   </g>
   <g id="patch_3">
    <path d="M 77.312 300.76 
L 77.312 14.76 
" style="fill: none; stroke: #000000; stroke-width: 0.8; stroke-linejoin: miter; stroke-linecap: square"/>
   </g>
   <g id="patch_4">
    <path d="M 236.586018 300.76 
L 236.586018 14.76 
" style="fill: none; stroke: #000000; stroke-width: 0.8; stroke-linejoin: miter; stroke-linecap: square"/>
   </g>
   <g id="patch_5">
    <path d="M 77.312 300.76 
L 236.586018 300.76 
" style="fill: none; stroke: #000000; stroke-width: 0.8; stroke-linejoin: miter; stroke-linecap: square"/>
   </g>
   <g id="patch_6">
    <path d="M 77.312 14.76 
L 236.586018 14.76 
" style="fill: none; stroke: #000000; stroke-width: 0.8; stroke-linejoin: miter; stroke-linecap: square"/>
   </g>
  </g>
  <g id="axes_2">
   <g id="patch_7">
    <path d="M 290.725982 300.76 
L 450 300.76 
L 450 14.76 
L 290.725982 14.76 
z
" style="fill: #ffffff"/>
   </g>
   <g id="matplotlib.axis_3">
    <g id="xtick_7">
     <g id="line2d_23">
      <g>
       <use xlink:href="#m4085e8df27" x="297.96571" y="300.76" style="stroke: #000000; stroke-width: 0.8"/>
      </g>
     </g>
     <g id="text_19">
      <!-- 0 -->
      <g transform="translate(294.78446 315.358437) scale(0.1 -0.1)">
       <use xlink:href="#DejaVuSans-30"/>
      </g>
     </g>
    </g>
    <g id="xtick_8">
     <g id="line2d_24">
      <g>
       <use xlink:href="#m4085e8df27" x="339.335585" y="300.76" style="stroke: #000000; stroke-width: 0.8"/>
      </g>
     </g>
     <g id="text_20">
      <!-- 2 -->
      <g transform="translate(336.154335 315.358437) scale(0.1 -0.1)">
       <use xlink:href="#DejaVuSans-32"/>
      </g>
     </g>
    </g>
    <g id="xtick_9">
     <g id="line2d_25">
      <g>
       <use xlink:href="#m4085e8df27" x="380.70546" y="300.76" style="stroke: #000000; stroke-width: 0.8"/>
      </g>
     </g>
     <g id="text_21">
      <!-- 4 -->
      <g transform="translate(377.52421 315.358437) scale(0.1 -0.1)">
       <use xlink:href="#DejaVuSans-34"/>
      </g>
     </g>
    </g>
    <g id="xtick_10">
     <g id="line2d_26">
      <g>
       <use xlink:href="#m4085e8df27" x="422.075334" y="300.76" style="stroke: #000000; stroke-width: 0.8"/>
      </g>
     </g>
     <g id="text_22">
      <!-- 6 -->
      <g transform="translate(418.894084 315.358437) scale(0.1 -0.1)">
       <use xlink:href="#DejaVuSans-36"/>
      </g>
     </g>
    </g>
   </g>
   <g id="matplotlib.axis_4">
    <g id="ytick_11">
     <g id="line2d_27">
      <g>
       <use xlink:href="#me0ff61d1d3" x="290.725982" y="270.489788" style="stroke: #000000; stroke-width: 0.8"/>
      </g>
     </g>
     <g id="text_23">
      <!-- $\mathdefault{10^{-15}}$ -->
      <g transform="translate(255.825982 274.289007) scale(0.1 -0.1)">
       <use xlink:href="#DejaVuSans-31" transform="translate(0 0.684375)"/>
       <use xlink:href="#DejaVuSans-30" transform="translate(63.623047 0.684375)"/>
       <use xlink:href="#DejaVuSans-2212" transform="translate(128.203125 38.965625) scale(0.7)"/>
       <use xlink:href="#DejaVuSans-31" transform="translate(186.855469 38.965625) scale(0.7)"/>
       <use xlink:href="#DejaVuSans-35" transform="translate(231.391602 38.965625) scale(0.7)"/>
      </g>
     </g>
    </g>
    <g id="ytick_12">
     <g id="line2d_28">
      <g>
       <use xlink:href="#me0ff61d1d3" x="290.725982" y="238.13431" style="stroke: #000000; stroke-width: 0.8"/>
      </g>
     </g>
     <g id="text_24">
      <!-- $\mathdefault{10^{-13}}$ -->
      <g transform="translate(255.825982 241.933529) scale(0.1 -0.1)">
       <use xlink:href="#DejaVuSans-31" transform="translate(0 0.765625)"/>
       <use xlink:href="#DejaVuSans-30" transform="translate(63.623047 0.765625)"/>
       <use xlink:href="#DejaVuSans-2212" transform="translate(128.203125 39.046875) scale(0.7)"/>
       <use xlink:href="#DejaVuSans-31" transform="translate(186.855469 39.046875) scale(0.7)"/>
       <use xlink:href="#DejaVuSans-33" transform="translate(231.391602 39.046875) scale(0.7)"/>
      </g>
     </g>
    </g>
    <g id="ytick_13">
     <g id="line2d_29">
      <g>
       <use xlink:href="#me0ff61d1d3" x="290.725982" y="205.778831" style="stroke: #000000; stroke-width: 0.8"/>
      </g>
     </g>
     <g id="text_25">
      <!-- $\mathdefault{10^{-11}}$ -->
      <g transform="translate(255.825982 209.57805) scale(0.1 -0.1)">
       <use xlink:href="#DejaVuSans-31" transform="translate(0 0.684375)"/>
       <use xlink:href="#DejaVuSans-30" transform="translate(63.623047 0.684375)"/>
       <use xlink:href="#DejaVuSans-2212" transform="translate(128.203125 38.965625) scale(0.7)"/>
       <use xlink:href="#DejaVuSans-31" transform="translate(186.855469 38.965625) scale(0.7)"/>
       <use xlink:href="#DejaVuSans-31" transform="translate(231.391602 38.965625) scale(0.7)"/>
      </g>
     </g>
    </g>
    <g id="ytick_14">
     <g id="line2d_30">
      <g>
       <use xlink:href="#me0ff61d1d3" x="290.725982" y="173.423353" style="stroke: #000000; stroke-width: 0.8"/>
      </g>
     </g>
     <g id="text_26">
      <!-- $\mathdefault{10^{-9}}$ -->
      <g transform="translate(260.225982 177.222571) scale(0.1 -0.1)">
       <defs>
        <path id="DejaVuSans-39" d="M 703 97 
L 703 672 
Q 941 559 1184 500 
Q 1428 441 1663 441 
Q 2288 441 2617 861 
Q 2947 1281 2994 2138 
Q 2813 1869 2534 1725 
Q 2256 1581 1919 1581 
Q 1219 1581 811 2004 
Q 403 2428 403 3163 
Q 403 3881 828 4315 
Q 1253 4750 1959 4750 
Q 2769 4750 3195 4129 
Q 3622 3509 3622 2328 
Q 3622 1225 3098 567 
Q 2575 -91 1691 -91 
Q 1453 -91 1209 -44 
Q 966 3 703 97 
z
M 1959 2075 
Q 2384 2075 2632 2365 
Q 2881 2656 2881 3163 
Q 2881 3666 2632 3958 
Q 2384 4250 1959 4250 
Q 1534 4250 1286 3958 
Q 1038 3666 1038 3163 
Q 1038 2656 1286 2365 
Q 1534 2075 1959 2075 
z
" transform="scale(0.015625)"/>
       </defs>
       <use xlink:href="#DejaVuSans-31" transform="translate(0 0.765625)"/>
       <use xlink:href="#DejaVuSans-30" transform="translate(63.623047 0.765625)"/>
       <use xlink:href="#DejaVuSans-2212" transform="translate(128.203125 39.046875) scale(0.7)"/>
       <use xlink:href="#DejaVuSans-39" transform="translate(186.855469 39.046875) scale(0.7)"/>
      </g>
     </g>
    </g>
    <g id="ytick_15">
     <g id="line2d_31">
      <g>
       <use xlink:href="#me0ff61d1d3" x="290.725982" y="141.067874" style="stroke: #000000; stroke-width: 0.8"/>
      </g>
     </g>
     <g id="text_27">
      <!-- $\mathdefault{10^{-7}}$ -->
      <g transform="translate(260.225982 144.867093) scale(0.1 -0.1)">
       <use xlink:href="#DejaVuSans-31" transform="translate(0 0.684375)"/>
       <use xlink:href="#DejaVuSans-30" transform="translate(63.623047 0.684375)"/>
       <use xlink:href="#DejaVuSans-2212" transform="translate(128.203125 38.965625) scale(0.7)"/>
       <use xlink:href="#DejaVuSans-37" transform="translate(186.855469 38.965625) scale(0.7)"/>
      </g>
     </g>
    </g>
    <g id="ytick_16">
     <g id="line2d_32">
      <g>
       <use xlink:href="#me0ff61d1d3" x="290.725982" y="108.712396" style="stroke: #000000; stroke-width: 0.8"/>
      </g>
     </g>
     <g id="text_28">
      <!-- $\mathdefault{10^{-5}}$ -->
      <g transform="translate(260.225982 112.511614) scale(0.1 -0.1)">
       <use xlink:href="#DejaVuSans-31" transform="translate(0 0.684375)"/>
       <use xlink:href="#DejaVuSans-30" transform="translate(63.623047 0.684375)"/>
       <use xlink:href="#DejaVuSans-2212" transform="translate(128.203125 38.965625) scale(0.7)"/>
       <use xlink:href="#DejaVuSans-35" transform="translate(186.855469 38.965625) scale(0.7)"/>
      </g>
     </g>
    </g>
    <g id="ytick_17">
     <g id="line2d_33">
      <g>
       <use xlink:href="#me0ff61d1d3" x="290.725982" y="76.356917" style="stroke: #000000; stroke-width: 0.8"/>
      </g>
     </g>
     <g id="text_29">
      <!-- $\mathdefault{10^{-3}}$ -->
      <g transform="translate(260.225982 80.156136) scale(0.1 -0.1)">
       <use xlink:href="#DejaVuSans-31" transform="translate(0 0.765625)"/>
       <use xlink:href="#DejaVuSans-30" transform="translate(63.623047 0.765625)"/>
       <use xlink:href="#DejaVuSans-2212" transform="translate(128.203125 39.046875) scale(0.7)"/>
       <use xlink:href="#DejaVuSans-33" transform="translate(186.855469 39.046875) scale(0.7)"/>
      </g>
     </g>
    </g>
    <g id="ytick_18">
     <g id="line2d_34">
      <g>
       <use xlink:href="#me0ff61d1d3" x="290.725982" y="44.001438" style="stroke: #000000; stroke-width: 0.8"/>
      </g>
     </g>
     <g id="text_30">
      <!-- $\mathdefault{10^{-1}}$ -->
      <g transform="translate(260.225982 47.800657) scale(0.1 -0.1)">
       <use xlink:href="#DejaVuSans-31" transform="translate(0 0.684375)"/>
       <use xlink:href="#DejaVuSans-30" transform="translate(63.623047 0.684375)"/>
       <use xlink:href="#DejaVuSans-2212" transform="translate(128.203125 38.965625) scale(0.7)"/>
       <use xlink:href="#DejaVuSans-31" transform="translate(186.855469 38.965625) scale(0.7)"/>
      </g>
     </g>
    </g>
   </g>
   <g id="line2d_35">
    <defs>
     <path id="mb7be1000b2" d="M 0 3 
C 0.795609 3 1.55874 2.683901 2.12132 2.12132 
C 2.683901 1.55874 3 0.795609 3 0 
C 3 -0.795609 2.683901 -1.55874 2.12132 -2.12132 
C 1.55874 -2.683901 0.795609 -3 0 -3 
C -0.795609 -3 -1.55874 -2.683901 -2.12132 -2.12132 
C -2.683901 -1.55874 -3 -0.795609 -3 0 
C -3 0.795609 -2.683901 1.55874 -2.12132 2.12132 
C -1.55874 2.683901 -0.795609 3 0 3 
z
" style="stroke: #1f77b4"/>
    </defs>
    <g clip-path="url(#p0dd9a413eb)">
     <use xlink:href="#mb7be1000b2" x="297.96571" y="27.76" style="fill: #1f77b4; stroke: #1f77b4"/>
    </g>
   </g>
   <g id="line2d_36">
    <g clip-path="url(#p0dd9a413eb)">
     <use xlink:href="#mb7be1000b2" x="318.650647" y="67.939124" style="fill: #1f77b4; stroke: #1f77b4"/>
    </g>
   </g>
   <g id="line2d_37">
    <g clip-path="url(#p0dd9a413eb)">
     <use xlink:href="#mb7be1000b2" x="339.335585" y="92.715755" style="fill: #1f77b4; stroke: #1f77b4"/>
    </g>
   </g>
   <g id="line2d_38">
    <g clip-path="url(#p0dd9a413eb)">
     <use xlink:href="#mb7be1000b2" x="360.020522" y="156.161203" style="fill: #1f77b4; stroke: #1f77b4"/>
    </g>
   </g>
   <g id="line2d_39">
    <g clip-path="url(#p0dd9a413eb)">
     <use xlink:href="#mb7be1000b2" x="380.70546" y="143.611858" style="fill: #1f77b4; stroke: #1f77b4"/>
    </g>
   </g>
   <g id="line2d_40">
    <g clip-path="url(#p0dd9a413eb)">
     <use xlink:href="#mb7be1000b2" x="401.390397" y="195.175295" style="fill: #1f77b4; stroke: #1f77b4"/>
    </g>
   </g>
   <g id="line2d_41">
    <g clip-path="url(#p0dd9a413eb)">
     <use xlink:href="#mb7be1000b2" x="422.075334" y="240.54289" style="fill: #1f77b4; stroke: #1f77b4"/>
    </g>
   </g>
   <g id="line2d_42">
    <g clip-path="url(#p0dd9a413eb)">
     <use xlink:href="#mb7be1000b2" x="442.760272" y="287.76" style="fill: #1f77b4; stroke: #1f77b4"/>
    </g>
   </g>
   <g id="line2d_43">
    <defs>
     <path id="m459d4a1753" d="M -5 0 
L 5 0 
M 0 5 
L 0 -5 
" style="stroke: #17becf"/>
    </defs>
    <g clip-path="url(#p0dd9a413eb)">
     <use xlink:href="#m459d4a1753" x="297.96571" y="27.843399" style="fill: #17becf; stroke: #17becf"/>
     <use xlink:href="#m459d4a1753" x="318.650647" y="69.326575" style="fill: #17becf; stroke: #17becf"/>
     <use xlink:href="#m459d4a1753" x="339.335585" y="93.427215" style="fill: #17becf; stroke: #17becf"/>
     <use xlink:href="#m459d4a1753" x="360.020522" y="131.921377" style="fill: #17becf; stroke: #17becf"/>
     <use xlink:href="#m459d4a1753" x="380.70546" y="162.059615" style="fill: #17becf; stroke: #17becf"/>
    </g>
   </g>
   <g id="line2d_44">
    <defs>
     <path id="m5a800ff3e9" d="M 0 3 
C 0.795609 3 1.55874 2.683901 2.12132 2.12132 
C 2.683901 1.55874 3 0.795609 3 0 
C 3 -0.795609 2.683901 -1.55874 2.12132 -2.12132 
C 1.55874 -2.683901 0.795609 -3 0 -3 
C -0.795609 -3 -1.55874 -2.683901 -2.12132 -2.12132 
C -2.683901 -1.55874 -3 -0.795609 -3 0 
C -3 0.795609 -2.683901 1.55874 -2.12132 2.12132 
C -1.55874 2.683901 -0.795609 3 0 3 
z
" style="stroke: #ff7f0e"/>
    </defs>
    <g clip-path="url(#p0dd9a413eb)">
     <use xlink:href="#m5a800ff3e9" x="297.96571" y="68.158742" style="fill: #ff7f0e; stroke: #ff7f0e"/>
    </g>
   </g>
   <g id="line2d_45">
    <g clip-path="url(#p0dd9a413eb)">
     <use xlink:href="#m5a800ff3e9" x="318.650647" y="27.799253" style="fill: #ff7f0e; stroke: #ff7f0e"/>
    </g>
   </g>
   <g id="line2d_46">
    <g clip-path="url(#p0dd9a413eb)">
     <use xlink:href="#m5a800ff3e9" x="339.335585" y="64.350216" style="fill: #ff7f0e; stroke: #ff7f0e"/>
    </g>
   </g>
   <g id="line2d_47">
    <g clip-path="url(#p0dd9a413eb)">
     <use xlink:href="#m5a800ff3e9" x="360.020522" y="84.86189" style="fill: #ff7f0e; stroke: #ff7f0e"/>
    </g>
   </g>
   <g id="line2d_48">
    <g clip-path="url(#p0dd9a413eb)">
     <use xlink:href="#m5a800ff3e9" x="380.70546" y="136.757836" style="fill: #ff7f0e; stroke: #ff7f0e"/>
    </g>
   </g>
   <g id="line2d_49">
    <g clip-path="url(#p0dd9a413eb)">
     <use xlink:href="#m5a800ff3e9" x="401.390397" y="163.10858" style="fill: #ff7f0e; stroke: #ff7f0e"/>
    </g>
   </g>
   <g id="line2d_50">
    <g clip-path="url(#p0dd9a413eb)">
     <use xlink:href="#m5a800ff3e9" x="422.075334" y="213.155855" style="fill: #ff7f0e; stroke: #ff7f0e"/>
    </g>
   </g>
   <g id="line2d_51">
    <g clip-path="url(#p0dd9a413eb)">
     <use xlink:href="#m5a800ff3e9" x="442.760272" y="286.793471" style="fill: #ff7f0e; stroke: #ff7f0e"/>
    </g>
   </g>
   <g id="line2d_52">
    <defs>
     <path id="mf9c9854a1e" d="M -5 0 
L 5 0 
M 0 5 
L 0 -5 
" style="stroke: #bcbd22"/>
    </defs>
    <g clip-path="url(#p0dd9a413eb)">
     <use xlink:href="#mf9c9854a1e" x="297.96571" y="69.530998" style="fill: #bcbd22; stroke: #bcbd22"/>
     <use xlink:href="#mf9c9854a1e" x="318.650647" y="27.878716" style="fill: #bcbd22; stroke: #bcbd22"/>
     <use xlink:href="#mf9c9854a1e" x="339.335585" y="65.274765" style="fill: #bcbd22; stroke: #bcbd22"/>
     <use xlink:href="#mf9c9854a1e" x="360.020522" y="85.577014" style="fill: #bcbd22; stroke: #bcbd22"/>
     <use xlink:href="#mf9c9854a1e" x="380.70546" y="120.274105" style="fill: #bcbd22; stroke: #bcbd22"/>
    </g>
   </g>
   <g id="patch_8">
    <path d="M 290.725982 300.76 
L 290.725982 14.76 
" style="fill: none; stroke: #000000; stroke-width: 0.8; stroke-linejoin: miter; stroke-linecap: square"/>
   </g>
   <g id="patch_9">
    <path d="M 450 300.76 
L 450 14.76 
" style="fill: none; stroke: #000000; stroke-width: 0.8; stroke-linejoin: miter; stroke-linecap: square"/>
   </g>
   <g id="patch_10">
    <path d="M 290.725982 300.76 
L 450 300.76 
" style="fill: none; stroke: #000000; stroke-width: 0.8; stroke-linejoin: miter; stroke-linecap: square"/>
   </g>
   <g id="patch_11">
    <path d="M 290.725982 14.76 
L 450 14.76 
" style="fill: none; stroke: #000000; stroke-width: 0.8; stroke-linejoin: miter; stroke-linecap: square"/>
   </g>
   <g id="legend_1">
    <g id="patch_12">
     <path d="M 357.498437 69.4725 
L 443 69.4725 
Q 445 69.4725 445 67.4725 
L 445 21.76 
Q 445 19.76 443 19.76 
L 357.498437 19.76 
Q 355.498437 19.76 355.498437 21.76 
L 355.498437 67.4725 
Q 355.498437 69.4725 357.498437 69.4725 
z
" style="fill: #ffffff; opacity: 0.8; stroke: #cccccc; stroke-linejoin: miter"/>
    </g>
    <g id="line2d_53">
     <g>
      <use xlink:href="#mb7be1000b2" x="369.498437" y="27.858437" style="fill: #1f77b4; stroke: #1f77b4"/>
     </g>
    </g>
    <g id="text_31">
     <!-- v"=0 -->
     <g transform="translate(387.498437 31.358437) scale(0.1 -0.1)">
      <defs>
       <path id="DejaVuSans-76" d="M 191 3500 
L 800 3500 
L 1894 563 
L 2988 3500 
L 3597 3500 
L 2284 0 
L 1503 0 
L 191 3500 
z
" transform="scale(0.015625)"/>
       <path id="DejaVuSans-22" d="M 1147 4666 
L 1147 2931 
L 616 2931 
L 616 4666 
L 1147 4666 
z
M 2328 4666 
L 2328 2931 
L 1797 2931 
L 1797 4666 
L 2328 4666 
z
" transform="scale(0.015625)"/>
       <path id="DejaVuSans-3d" d="M 678 2906 
L 4684 2906 
L 4684 2381 
L 678 2381 
L 678 2906 
z
M 678 1631 
L 4684 1631 
L 4684 1100 
L 678 1100 
L 678 1631 
z
" transform="scale(0.015625)"/>
      </defs>
      <use xlink:href="#DejaVuSans-76"/>
      <use xlink:href="#DejaVuSans-22" x="59.179688"/>
      <use xlink:href="#DejaVuSans-3d" x="105.175781"/>
      <use xlink:href="#DejaVuSans-30" x="188.964844"/>
     </g>
    </g>
    <g id="line2d_54">
     <g>
      <use xlink:href="#m459d4a1753" x="369.498437" y="38.536563" style="fill: #17becf; stroke: #17becf"/>
     </g>
    </g>
    <g id="text_32">
     <!-- Sorkhabi 0 -->
     <g transform="translate(387.498437 42.036563) scale(0.1 -0.1)">
      <defs>
       <path id="DejaVuSans-53" d="M 3425 4513 
L 3425 3897 
Q 3066 4069 2747 4153 
Q 2428 4238 2131 4238 
Q 1616 4238 1336 4038 
Q 1056 3838 1056 3469 
Q 1056 3159 1242 3001 
Q 1428 2844 1947 2747 
L 2328 2669 
Q 3034 2534 3370 2195 
Q 3706 1856 3706 1288 
Q 3706 609 3251 259 
Q 2797 -91 1919 -91 
Q 1588 -91 1214 -16 
Q 841 59 441 206 
L 441 856 
Q 825 641 1194 531 
Q 1563 422 1919 422 
Q 2459 422 2753 634 
Q 3047 847 3047 1241 
Q 3047 1584 2836 1778 
Q 2625 1972 2144 2069 
L 1759 2144 
Q 1053 2284 737 2584 
Q 422 2884 422 3419 
Q 422 4038 858 4394 
Q 1294 4750 2059 4750 
Q 2388 4750 2728 4690 
Q 3069 4631 3425 4513 
z
" transform="scale(0.015625)"/>
       <path id="DejaVuSans-6b" d="M 581 4863 
L 1159 4863 
L 1159 1991 
L 2875 3500 
L 3609 3500 
L 1753 1863 
L 3688 0 
L 2938 0 
L 1159 1709 
L 1159 0 
L 581 0 
L 581 4863 
z
" transform="scale(0.015625)"/>
       <path id="DejaVuSans-68" d="M 3513 2113 
L 3513 0 
L 2938 0 
L 2938 2094 
Q 2938 2591 2744 2837 
Q 2550 3084 2163 3084 
Q 1697 3084 1428 2787 
Q 1159 2491 1159 1978 
L 1159 0 
L 581 0 
L 581 4863 
L 1159 4863 
L 1159 2956 
Q 1366 3272 1645 3428 
Q 1925 3584 2291 3584 
Q 2894 3584 3203 3211 
Q 3513 2838 3513 2113 
z
" transform="scale(0.015625)"/>
       <path id="DejaVuSans-62" d="M 3116 1747 
Q 3116 2381 2855 2742 
Q 2594 3103 2138 3103 
Q 1681 3103 1420 2742 
Q 1159 2381 1159 1747 
Q 1159 1113 1420 752 
Q 1681 391 2138 391 
Q 2594 391 2855 752 
Q 3116 1113 3116 1747 
z
M 1159 2969 
Q 1341 3281 1617 3432 
Q 1894 3584 2278 3584 
Q 2916 3584 3314 3078 
Q 3713 2572 3713 1747 
Q 3713 922 3314 415 
Q 2916 -91 2278 -91 
Q 1894 -91 1617 61 
Q 1341 213 1159 525 
L 1159 0 
L 581 0 
L 581 4863 
L 1159 4863 
L 1159 2969 
z
" transform="scale(0.015625)"/>
      </defs>
      <use xlink:href="#DejaVuSans-53"/>
      <use xlink:href="#DejaVuSans-6f" x="63.476562"/>
      <use xlink:href="#DejaVuSans-72" x="124.658203"/>
      <use xlink:href="#DejaVuSans-6b" x="165.771484"/>
      <use xlink:href="#DejaVuSans-68" x="223.681641"/>
      <use xlink:href="#DejaVuSans-61" x="287.060547"/>
      <use xlink:href="#DejaVuSans-62" x="348.339844"/>
      <use xlink:href="#DejaVuSans-69" x="411.816406"/>
      <use xlink:href="#DejaVuSans-20" x="439.599609"/>
      <use xlink:href="#DejaVuSans-30" x="471.386719"/>
     </g>
    </g>
    <g id="line2d_55">
     <g>
      <use xlink:href="#m5a800ff3e9" x="369.498437" y="49.214687" style="fill: #ff7f0e; stroke: #ff7f0e"/>
     </g>
    </g>
    <g id="text_33">
     <!-- v"=1 -->
     <g transform="translate(387.498437 52.714687) scale(0.1 -0.1)">
      <use xlink:href="#DejaVuSans-76"/>
      <use xlink:href="#DejaVuSans-22" x="59.179688"/>
      <use xlink:href="#DejaVuSans-3d" x="105.175781"/>
      <use xlink:href="#DejaVuSans-31" x="188.964844"/>
     </g>
    </g>
    <g id="line2d_56">
     <g>
      <use xlink:href="#mf9c9854a1e" x="369.498437" y="59.892812" style="fill: #bcbd22; stroke: #bcbd22"/>
     </g>
    </g>
    <g id="text_34">
     <!-- Sorkhabi 1 -->
     <g transform="translate(387.498437 63.392812) scale(0.1 -0.1)">
      <use xlink:href="#DejaVuSans-53"/>
      <use xlink:href="#DejaVuSans-6f" x="63.476562"/>
      <use xlink:href="#DejaVuSans-72" x="124.658203"/>
      <use xlink:href="#DejaVuSans-6b" x="165.771484"/>
      <use xlink:href="#DejaVuSans-68" x="223.681641"/>
      <use xlink:href="#DejaVuSans-61" x="287.060547"/>
      <use xlink:href="#DejaVuSans-62" x="348.339844"/>
      <use xlink:href="#DejaVuSans-69" x="411.816406"/>
      <use xlink:href="#DejaVuSans-20" x="439.599609"/>
      <use xlink:href="#DejaVuSans-31" x="471.386719"/>
     </g>
    </g>
   </g>
  </g>
 </g>
 <defs>
  <clipPath id="p6b649c7d84">
   <rect x="77.312" y="14.76" width="159.274018" height="286"/>
  </clipPath>
  <clipPath id="p0dd9a413eb">
   <rect x="290.725982" y="14.76" width="159.274018" height="286"/>
  </clipPath>
 </defs>
</svg>
