<?xml version="1.0" encoding="utf-8" standalone="no"?>
<!DOCTYPE svg PUBLIC "-//W3C//DTD SVG 1.1//EN"
  "http://www.w3.org/Graphics/SVG/1.1/DTD/svg11.dtd">
<svg xmlns:xlink="http://www.w3.org/1999/xlink" width="460.8pt" height="345.6pt" viewBox="0 0 460.8 345.6" xmlns="http://www.w3.org/2000/svg" version="1.1">
 <metadata>
  <rdf:RDF xmlns:dc="http://purl.org/dc/elements/1.1/" xmlns:cc="http://creativecommons.org/ns#" xmlns:rdf="http://www.w3.org/1999/02/22-rdf-syntax-ns#">
   <cc:Work>
    <dc:type rdf:resource="http://purl.org/dc/dcmitype/StillImage"/>
    <dc:date>2023-03-06T09:00:04.489300</dc:date>
    <dc:format>image/svg+xml</dc:format>
    <dc:creator>
     <cc:Agent>
      <dc:title>Matplotlib v3.7.0, https://matplotlib.org/</dc:title>
     </cc:Agent>
    </dc:creator>
   </cc:Work>
  </rdf:RDF>
 </metadata>
 <defs>
  <style type="text/css">*{stroke-linejoin: round; stroke-linecap: butt}</style>
 </defs>
 <g id="figure_1">
  <g id="patch_1">
   <path d="M 0 345.6 
L 460.8 345.6 
L 460.8 0 
L 0 0 
z
" style="fill: #ffffff"/>
  </g>
  <g id="axes_1">
   <g id="patch_2">
    <path d="M 41.003365 311.621635 
L 226.009135 311.621635 
L 226.009135 32.919157 
L 41.003365 32.919157 
z
" style="fill: #ffffff"/>
   </g>
   <g id="matplotlib.axis_1">
    <g id="xtick_1">
     <g id="line2d_1">
      <defs>
       <path id="m5c2304ce7c" d="M 0 0 
L 0 3.5 
" style="stroke: #000000; stroke-width: 0.8"/>
      </defs>
      <g>
       <use xlink:href="#m5c2304ce7c" x="52.566226" y="311.621635" style="stroke: #000000; stroke-width: 0.8"/>
      </g>
     </g>
     <g id="text_1">
      <!-- 1 -->
      <g transform="translate(49.384976 326.220072) scale(0.1 -0.1)">
       <defs>
        <path id="DejaVuSans-31" d="M 794 531 
L 1825 531 
L 1825 4091 
L 703 3866 
L 703 4441 
L 1819 4666 
L 2450 4666 
L 2450 531 
L 3481 531 
L 3481 0 
L 794 0 
L 794 531 
z
" transform="scale(0.015625)"/>
       </defs>
       <use xlink:href="#DejaVuSans-31"/>
      </g>
     </g>
    </g>
    <g id="xtick_2">
     <g id="line2d_2">
      <g>
       <use xlink:href="#m5c2304ce7c" x="110.380529" y="311.621635" style="stroke: #000000; stroke-width: 0.8"/>
      </g>
     </g>
     <g id="text_2">
      <!-- 2 -->
      <g transform="translate(107.199279 326.220072) scale(0.1 -0.1)">
       <defs>
        <path id="DejaVuSans-32" d="M 1228 531 
L 3431 531 
L 3431 0 
L 469 0 
L 469 531 
Q 828 903 1448 1529 
Q 2069 2156 2228 2338 
Q 2531 2678 2651 2914 
Q 2772 3150 2772 3378 
Q 2772 3750 2511 3984 
Q 2250 4219 1831 4219 
Q 1534 4219 1204 4116 
Q 875 4013 500 3803 
L 500 4441 
Q 881 4594 1212 4672 
Q 1544 4750 1819 4750 
Q 2544 4750 2975 4387 
Q 3406 4025 3406 3419 
Q 3406 3131 3298 2873 
Q 3191 2616 2906 2266 
Q 2828 2175 2409 1742 
Q 1991 1309 1228 531 
z
" transform="scale(0.015625)"/>
       </defs>
       <use xlink:href="#DejaVuSans-32"/>
      </g>
     </g>
    </g>
    <g id="xtick_3">
     <g id="line2d_3">
      <g>
       <use xlink:href="#m5c2304ce7c" x="168.194832" y="311.621635" style="stroke: #000000; stroke-width: 0.8"/>
      </g>
     </g>
     <g id="text_3">
      <!-- 3 -->
      <g transform="translate(165.013582 326.220072) scale(0.1 -0.1)">
       <defs>
        <path id="DejaVuSans-33" d="M 2597 2516 
Q 3050 2419 3304 2112 
Q 3559 1806 3559 1356 
Q 3559 666 3084 287 
Q 2609 -91 1734 -91 
Q 1441 -91 1130 -33 
Q 819 25 488 141 
L 488 750 
Q 750 597 1062 519 
Q 1375 441 1716 441 
Q 2309 441 2620 675 
Q 2931 909 2931 1356 
Q 2931 1769 2642 2001 
Q 2353 2234 1838 2234 
L 1294 2234 
L 1294 2753 
L 1863 2753 
Q 2328 2753 2575 2939 
Q 2822 3125 2822 3475 
Q 2822 3834 2567 4026 
Q 2313 4219 1838 4219 
Q 1578 4219 1281 4162 
Q 984 4106 628 3988 
L 628 4550 
Q 988 4650 1302 4700 
Q 1616 4750 1894 4750 
Q 2613 4750 3031 4423 
Q 3450 4097 3450 3541 
Q 3450 3153 3228 2886 
Q 3006 2619 2597 2516 
z
" transform="scale(0.015625)"/>
       </defs>
       <use xlink:href="#DejaVuSans-33"/>
      </g>
     </g>
    </g>
    <g id="xtick_4">
     <g id="line2d_4">
      <g>
       <use xlink:href="#m5c2304ce7c" x="226.009135" y="311.621635" style="stroke: #000000; stroke-width: 0.8"/>
      </g>
     </g>
     <g id="text_4">
      <!-- 4 -->
      <g transform="translate(222.827885 326.220072) scale(0.1 -0.1)">
       <defs>
        <path id="DejaVuSans-34" d="M 2419 4116 
L 825 1625 
L 2419 1625 
L 2419 4116 
z
M 2253 4666 
L 3047 4666 
L 3047 1625 
L 3713 1625 
L 3713 1100 
L 3047 1100 
L 3047 0 
L 2419 0 
L 2419 1100 
L 313 1100 
L 313 1709 
L 2253 4666 
z
" transform="scale(0.015625)"/>
       </defs>
       <use xlink:href="#DejaVuSans-34"/>
      </g>
     </g>
    </g>
    <g id="text_5">
     <!-- internuclear distance $/$ $\AA$ -->
     <g transform="translate(72.10625 340.520072) scale(0.1 -0.1)">
      <defs>
       <path id="DejaVuSans-69" d="M 603 3500 
L 1178 3500 
L 1178 0 
L 603 0 
L 603 3500 
z
M 603 4863 
L 1178 4863 
L 1178 4134 
L 603 4134 
L 603 4863 
z
" transform="scale(0.015625)"/>
       <path id="DejaVuSans-6e" d="M 3513 2113 
L 3513 0 
L 2938 0 
L 2938 2094 
Q 2938 2591 2744 2837 
Q 2550 3084 2163 3084 
Q 1697 3084 1428 2787 
Q 1159 2491 1159 1978 
L 1159 0 
L 581 0 
L 581 3500 
L 1159 3500 
L 1159 2956 
Q 1366 3272 1645 3428 
Q 1925 3584 2291 3584 
Q 2894 3584 3203 3211 
Q 3513 2838 3513 2113 
z
" transform="scale(0.015625)"/>
       <path id="DejaVuSans-74" d="M 1172 4494 
L 1172 3500 
L 2356 3500 
L 2356 3053 
L 1172 3053 
L 1172 1153 
Q 1172 725 1289 603 
Q 1406 481 1766 481 
L 2356 481 
L 2356 0 
L 1766 0 
Q 1100 0 847 248 
Q 594 497 594 1153 
L 594 3053 
L 172 3053 
L 172 3500 
L 594 3500 
L 594 4494 
L 1172 4494 
z
" transform="scale(0.015625)"/>
       <path id="DejaVuSans-65" d="M 3597 1894 
L 3597 1613 
L 953 1613 
Q 991 1019 1311 708 
Q 1631 397 2203 397 
Q 2534 397 2845 478 
Q 3156 559 3463 722 
L 3463 178 
Q 3153 47 2828 -22 
Q 2503 -91 2169 -91 
Q 1331 -91 842 396 
Q 353 884 353 1716 
Q 353 2575 817 3079 
Q 1281 3584 2069 3584 
Q 2775 3584 3186 3129 
Q 3597 2675 3597 1894 
z
M 3022 2063 
Q 3016 2534 2758 2815 
Q 2500 3097 2075 3097 
Q 1594 3097 1305 2825 
Q 1016 2553 972 2059 
L 3022 2063 
z
" transform="scale(0.015625)"/>
       <path id="DejaVuSans-72" d="M 2631 2963 
Q 2534 3019 2420 3045 
Q 2306 3072 2169 3072 
Q 1681 3072 1420 2755 
Q 1159 2438 1159 1844 
L 1159 0 
L 581 0 
L 581 3500 
L 1159 3500 
L 1159 2956 
Q 1341 3275 1631 3429 
Q 1922 3584 2338 3584 
Q 2397 3584 2469 3576 
Q 2541 3569 2628 3553 
L 2631 2963 
z
" transform="scale(0.015625)"/>
       <path id="DejaVuSans-75" d="M 544 1381 
L 544 3500 
L 1119 3500 
L 1119 1403 
Q 1119 906 1312 657 
Q 1506 409 1894 409 
Q 2359 409 2629 706 
Q 2900 1003 2900 1516 
L 2900 3500 
L 3475 3500 
L 3475 0 
L 2900 0 
L 2900 538 
Q 2691 219 2414 64 
Q 2138 -91 1772 -91 
Q 1169 -91 856 284 
Q 544 659 544 1381 
z
M 1991 3584 
L 1991 3584 
z
" transform="scale(0.015625)"/>
       <path id="DejaVuSans-63" d="M 3122 3366 
L 3122 2828 
Q 2878 2963 2633 3030 
Q 2388 3097 2138 3097 
Q 1578 3097 1268 2742 
Q 959 2388 959 1747 
Q 959 1106 1268 751 
Q 1578 397 2138 397 
Q 2388 397 2633 464 
Q 2878 531 3122 666 
L 3122 134 
Q 2881 22 2623 -34 
Q 2366 -91 2075 -91 
Q 1284 -91 818 406 
Q 353 903 353 1747 
Q 353 2603 823 3093 
Q 1294 3584 2113 3584 
Q 2378 3584 2631 3529 
Q 2884 3475 3122 3366 
z
" transform="scale(0.015625)"/>
       <path id="DejaVuSans-6c" d="M 603 4863 
L 1178 4863 
L 1178 0 
L 603 0 
L 603 4863 
z
" transform="scale(0.015625)"/>
       <path id="DejaVuSans-61" d="M 2194 1759 
Q 1497 1759 1228 1600 
Q 959 1441 959 1056 
Q 959 750 1161 570 
Q 1363 391 1709 391 
Q 2188 391 2477 730 
Q 2766 1069 2766 1631 
L 2766 1759 
L 2194 1759 
z
M 3341 1997 
L 3341 0 
L 2766 0 
L 2766 531 
Q 2569 213 2275 61 
Q 1981 -91 1556 -91 
Q 1019 -91 701 211 
Q 384 513 384 1019 
Q 384 1609 779 1909 
Q 1175 2209 1959 2209 
L 2766 2209 
L 2766 2266 
Q 2766 2663 2505 2880 
Q 2244 3097 1772 3097 
Q 1472 3097 1187 3025 
Q 903 2953 641 2809 
L 641 3341 
Q 956 3463 1253 3523 
Q 1550 3584 1831 3584 
Q 2591 3584 2966 3190 
Q 3341 2797 3341 1997 
z
" transform="scale(0.015625)"/>
       <path id="DejaVuSans-20" transform="scale(0.015625)"/>
       <path id="DejaVuSans-64" d="M 2906 2969 
L 2906 4863 
L 3481 4863 
L 3481 0 
L 2906 0 
L 2906 525 
Q 2725 213 2448 61 
Q 2172 -91 1784 -91 
Q 1150 -91 751 415 
Q 353 922 353 1747 
Q 353 2572 751 3078 
Q 1150 3584 1784 3584 
Q 2172 3584 2448 3432 
Q 2725 3281 2906 2969 
z
M 947 1747 
Q 947 1113 1208 752 
Q 1469 391 1925 391 
Q 2381 391 2643 752 
Q 2906 1113 2906 1747 
Q 2906 2381 2643 2742 
Q 2381 3103 1925 3103 
Q 1469 3103 1208 2742 
Q 947 2381 947 1747 
z
" transform="scale(0.015625)"/>
       <path id="DejaVuSans-73" d="M 2834 3397 
L 2834 2853 
Q 2591 2978 2328 3040 
Q 2066 3103 1784 3103 
Q 1356 3103 1142 2972 
Q 928 2841 928 2578 
Q 928 2378 1081 2264 
Q 1234 2150 1697 2047 
L 1894 2003 
Q 2506 1872 2764 1633 
Q 3022 1394 3022 966 
Q 3022 478 2636 193 
Q 2250 -91 1575 -91 
Q 1294 -91 989 -36 
Q 684 19 347 128 
L 347 722 
Q 666 556 975 473 
Q 1284 391 1588 391 
Q 1994 391 2212 530 
Q 2431 669 2431 922 
Q 2431 1156 2273 1281 
Q 2116 1406 1581 1522 
L 1381 1569 
Q 847 1681 609 1914 
Q 372 2147 372 2553 
Q 372 3047 722 3315 
Q 1072 3584 1716 3584 
Q 2034 3584 2315 3537 
Q 2597 3491 2834 3397 
z
" transform="scale(0.015625)"/>
       <path id="DejaVuSans-2f" d="M 1625 4666 
L 2156 4666 
L 531 -594 
L 0 -594 
L 1625 4666 
z
" transform="scale(0.015625)"/>
       <path id="DejaVuSans-Oblique-c5" d="M 3188 5081 
Q 3188 5278 3048 5417 
Q 2909 5556 2713 5556 
Q 2513 5556 2377 5420 
Q 2241 5284 2241 5081 
Q 2241 4884 2377 4746 
Q 2513 4609 2713 4609 
Q 2909 4609 3048 4746 
Q 3188 4884 3188 5081 
z
M 2203 4397 
Q 2034 4513 1945 4689 
Q 1856 4866 1856 5081 
Q 1856 5438 2106 5689 
Q 2356 5941 2713 5941 
Q 3069 5941 3320 5689 
Q 3572 5438 3572 5081 
Q 3572 4834 3458 4643 
Q 3344 4453 3128 4341 
L 3938 0 
L 3278 0 
L 3084 1197 
L 984 1197 
L 325 0 
L -341 0 
L 2203 4397 
z
M 2584 4044 
L 1275 1722 
L 2988 1722 
L 2584 4044 
z
" transform="scale(0.015625)"/>
      </defs>
      <use xlink:href="#DejaVuSans-69" transform="translate(0 0.171875)"/>
      <use xlink:href="#DejaVuSans-6e" transform="translate(27.783203 0.171875)"/>
      <use xlink:href="#DejaVuSans-74" transform="translate(91.162109 0.171875)"/>
      <use xlink:href="#DejaVuSans-65" transform="translate(130.371094 0.171875)"/>
      <use xlink:href="#DejaVuSans-72" transform="translate(191.894531 0.171875)"/>
      <use xlink:href="#DejaVuSans-6e" transform="translate(233.007812 0.171875)"/>
      <use xlink:href="#DejaVuSans-75" transform="translate(296.386719 0.171875)"/>
      <use xlink:href="#DejaVuSans-63" transform="translate(359.765625 0.171875)"/>
      <use xlink:href="#DejaVuSans-6c" transform="translate(414.746094 0.171875)"/>
      <use xlink:href="#DejaVuSans-65" transform="translate(442.529297 0.171875)"/>
      <use xlink:href="#DejaVuSans-61" transform="translate(504.052734 0.171875)"/>
      <use xlink:href="#DejaVuSans-72" transform="translate(565.332031 0.171875)"/>
      <use xlink:href="#DejaVuSans-20" transform="translate(606.445312 0.171875)"/>
      <use xlink:href="#DejaVuSans-64" transform="translate(638.232422 0.171875)"/>
      <use xlink:href="#DejaVuSans-69" transform="translate(701.708984 0.171875)"/>
      <use xlink:href="#DejaVuSans-73" transform="translate(729.492188 0.171875)"/>
      <use xlink:href="#DejaVuSans-74" transform="translate(781.591797 0.171875)"/>
      <use xlink:href="#DejaVuSans-61" transform="translate(820.800781 0.171875)"/>
      <use xlink:href="#DejaVuSans-6e" transform="translate(882.080078 0.171875)"/>
      <use xlink:href="#DejaVuSans-63" transform="translate(945.458984 0.171875)"/>
      <use xlink:href="#DejaVuSans-65" transform="translate(1000.439453 0.171875)"/>
      <use xlink:href="#DejaVuSans-20" transform="translate(1061.962891 0.171875)"/>
      <use xlink:href="#DejaVuSans-2f" transform="translate(1093.75 0.171875)"/>
      <use xlink:href="#DejaVuSans-20" transform="translate(1127.441406 0.171875)"/>
      <use xlink:href="#DejaVuSans-Oblique-c5" transform="translate(1159.228516 0.171875)"/>
     </g>
    </g>
   </g>
   <g id="matplotlib.axis_2">
    <g id="ytick_1">
     <g id="line2d_5">
      <defs>
       <path id="mede4fc7145" d="M 0 0 
L -3.5 0 
" style="stroke: #000000; stroke-width: 0.8"/>
      </defs>
      <g>
       <use xlink:href="#mede4fc7145" x="41.003365" y="295.051751" style="stroke: #000000; stroke-width: 0.8"/>
      </g>
     </g>
     <g id="text_6">
      <!-- 6.5 -->
      <g transform="translate(18.10024 298.85097) scale(0.1 -0.1)">
       <defs>
        <path id="DejaVuSans-36" d="M 2113 2584 
Q 1688 2584 1439 2293 
Q 1191 2003 1191 1497 
Q 1191 994 1439 701 
Q 1688 409 2113 409 
Q 2538 409 2786 701 
Q 3034 994 3034 1497 
Q 3034 2003 2786 2293 
Q 2538 2584 2113 2584 
z
M 3366 4563 
L 3366 3988 
Q 3128 4100 2886 4159 
Q 2644 4219 2406 4219 
Q 1781 4219 1451 3797 
Q 1122 3375 1075 2522 
Q 1259 2794 1537 2939 
Q 1816 3084 2150 3084 
Q 2853 3084 3261 2657 
Q 3669 2231 3669 1497 
Q 3669 778 3244 343 
Q 2819 -91 2113 -91 
Q 1303 -91 875 529 
Q 447 1150 447 2328 
Q 447 3434 972 4092 
Q 1497 4750 2381 4750 
Q 2619 4750 2861 4703 
Q 3103 4656 3366 4563 
z
" transform="scale(0.015625)"/>
        <path id="DejaVuSans-2e" d="M 684 794 
L 1344 794 
L 1344 0 
L 684 0 
L 684 794 
z
" transform="scale(0.015625)"/>
        <path id="DejaVuSans-35" d="M 691 4666 
L 3169 4666 
L 3169 4134 
L 1269 4134 
L 1269 2991 
Q 1406 3038 1543 3061 
Q 1681 3084 1819 3084 
Q 2600 3084 3056 2656 
Q 3513 2228 3513 1497 
Q 3513 744 3044 326 
Q 2575 -91 1722 -91 
Q 1428 -91 1123 -41 
Q 819 9 494 109 
L 494 744 
Q 775 591 1075 516 
Q 1375 441 1709 441 
Q 2250 441 2565 725 
Q 2881 1009 2881 1497 
Q 2881 1984 2565 2268 
Q 2250 2553 1709 2553 
Q 1456 2553 1204 2497 
Q 953 2441 691 2322 
L 691 4666 
z
" transform="scale(0.015625)"/>
       </defs>
       <use xlink:href="#DejaVuSans-36"/>
       <use xlink:href="#DejaVuSans-2e" x="63.623047"/>
       <use xlink:href="#DejaVuSans-35" x="95.410156"/>
      </g>
     </g>
    </g>
    <g id="ytick_2">
     <g id="line2d_6">
      <g>
       <use xlink:href="#mede4fc7145" x="41.003365" y="253.778286" style="stroke: #000000; stroke-width: 0.8"/>
      </g>
     </g>
     <g id="text_7">
      <!-- 7.0 -->
      <g transform="translate(18.10024 257.577504) scale(0.1 -0.1)">
       <defs>
        <path id="DejaVuSans-37" d="M 525 4666 
L 3525 4666 
L 3525 4397 
L 1831 0 
L 1172 0 
L 2766 4134 
L 525 4134 
L 525 4666 
z
" transform="scale(0.015625)"/>
        <path id="DejaVuSans-30" d="M 2034 4250 
Q 1547 4250 1301 3770 
Q 1056 3291 1056 2328 
Q 1056 1369 1301 889 
Q 1547 409 2034 409 
Q 2525 409 2770 889 
Q 3016 1369 3016 2328 
Q 3016 3291 2770 3770 
Q 2525 4250 2034 4250 
z
M 2034 4750 
Q 2819 4750 3233 4129 
Q 3647 3509 3647 2328 
Q 3647 1150 3233 529 
Q 2819 -91 2034 -91 
Q 1250 -91 836 529 
Q 422 1150 422 2328 
Q 422 3509 836 4129 
Q 1250 4750 2034 4750 
z
" transform="scale(0.015625)"/>
       </defs>
       <use xlink:href="#DejaVuSans-37"/>
       <use xlink:href="#DejaVuSans-2e" x="63.623047"/>
       <use xlink:href="#DejaVuSans-30" x="95.410156"/>
      </g>
     </g>
    </g>
    <g id="ytick_3">
     <g id="line2d_7">
      <g>
       <use xlink:href="#mede4fc7145" x="41.003365" y="212.50482" style="stroke: #000000; stroke-width: 0.8"/>
      </g>
     </g>
     <g id="text_8">
      <!-- 7.5 -->
      <g transform="translate(18.10024 216.304039) scale(0.1 -0.1)">
       <use xlink:href="#DejaVuSans-37"/>
       <use xlink:href="#DejaVuSans-2e" x="63.623047"/>
       <use xlink:href="#DejaVuSans-35" x="95.410156"/>
      </g>
     </g>
    </g>
    <g id="ytick_4">
     <g id="line2d_8">
      <g>
       <use xlink:href="#mede4fc7145" x="41.003365" y="171.231354" style="stroke: #000000; stroke-width: 0.8"/>
      </g>
     </g>
     <g id="text_9">
      <!-- 8.0 -->
      <g transform="translate(18.10024 175.030573) scale(0.1 -0.1)">
       <defs>
        <path id="DejaVuSans-38" d="M 2034 2216 
Q 1584 2216 1326 1975 
Q 1069 1734 1069 1313 
Q 1069 891 1326 650 
Q 1584 409 2034 409 
Q 2484 409 2743 651 
Q 3003 894 3003 1313 
Q 3003 1734 2745 1975 
Q 2488 2216 2034 2216 
z
M 1403 2484 
Q 997 2584 770 2862 
Q 544 3141 544 3541 
Q 544 4100 942 4425 
Q 1341 4750 2034 4750 
Q 2731 4750 3128 4425 
Q 3525 4100 3525 3541 
Q 3525 3141 3298 2862 
Q 3072 2584 2669 2484 
Q 3125 2378 3379 2068 
Q 3634 1759 3634 1313 
Q 3634 634 3220 271 
Q 2806 -91 2034 -91 
Q 1263 -91 848 271 
Q 434 634 434 1313 
Q 434 1759 690 2068 
Q 947 2378 1403 2484 
z
M 1172 3481 
Q 1172 3119 1398 2916 
Q 1625 2713 2034 2713 
Q 2441 2713 2670 2916 
Q 2900 3119 2900 3481 
Q 2900 3844 2670 4047 
Q 2441 4250 2034 4250 
Q 1625 4250 1398 4047 
Q 1172 3844 1172 3481 
z
" transform="scale(0.015625)"/>
       </defs>
       <use xlink:href="#DejaVuSans-38"/>
       <use xlink:href="#DejaVuSans-2e" x="63.623047"/>
       <use xlink:href="#DejaVuSans-30" x="95.410156"/>
      </g>
     </g>
    </g>
    <g id="ytick_5">
     <g id="line2d_9">
      <g>
       <use xlink:href="#mede4fc7145" x="41.003365" y="129.957889" style="stroke: #000000; stroke-width: 0.8"/>
      </g>
     </g>
     <g id="text_10">
      <!-- 8.5 -->
      <g transform="translate(18.10024 133.757107) scale(0.1 -0.1)">
       <use xlink:href="#DejaVuSans-38"/>
       <use xlink:href="#DejaVuSans-2e" x="63.623047"/>
       <use xlink:href="#DejaVuSans-35" x="95.410156"/>
      </g>
     </g>
    </g>
    <g id="ytick_6">
     <g id="line2d_10">
      <g>
       <use xlink:href="#mede4fc7145" x="41.003365" y="88.684423" style="stroke: #000000; stroke-width: 0.8"/>
      </g>
     </g>
     <g id="text_11">
      <!-- 9.0 -->
      <g transform="translate(18.10024 92.483642) scale(0.1 -0.1)">
       <defs>
        <path id="DejaVuSans-39" d="M 703 97 
L 703 672 
Q 941 559 1184 500 
Q 1428 441 1663 441 
Q 2288 441 2617 861 
Q 2947 1281 2994 2138 
Q 2813 1869 2534 1725 
Q 2256 1581 1919 1581 
Q 1219 1581 811 2004 
Q 403 2428 403 3163 
Q 403 3881 828 4315 
Q 1253 4750 1959 4750 
Q 2769 4750 3195 4129 
Q 3622 3509 3622 2328 
Q 3622 1225 3098 567 
Q 2575 -91 1691 -91 
Q 1453 -91 1209 -44 
Q 966 3 703 97 
z
M 1959 2075 
Q 2384 2075 2632 2365 
Q 2881 2656 2881 3163 
Q 2881 3666 2632 3958 
Q 2384 4250 1959 4250 
Q 1534 4250 1286 3958 
Q 1038 3666 1038 3163 
Q 1038 2656 1286 2365 
Q 1534 2075 1959 2075 
z
" transform="scale(0.015625)"/>
       </defs>
       <use xlink:href="#DejaVuSans-39"/>
       <use xlink:href="#DejaVuSans-2e" x="63.623047"/>
       <use xlink:href="#DejaVuSans-30" x="95.410156"/>
      </g>
     </g>
    </g>
    <g id="ytick_7">
     <g id="line2d_11">
      <g>
       <use xlink:href="#mede4fc7145" x="41.003365" y="47.410957" style="stroke: #000000; stroke-width: 0.8"/>
      </g>
     </g>
     <g id="text_12">
      <!-- 9.5 -->
      <g transform="translate(18.10024 51.210176) scale(0.1 -0.1)">
       <use xlink:href="#DejaVuSans-39"/>
       <use xlink:href="#DejaVuSans-2e" x="63.623047"/>
       <use xlink:href="#DejaVuSans-35" x="95.410156"/>
      </g>
     </g>
    </g>
    <g id="text_13">
     <!-- potential energy (rel. to $X$-min.) $/$ cm$^{-1}$ -->
     <g transform="translate(12.00024 269.420396) rotate(-90) scale(0.1 -0.1)">
      <defs>
       <path id="DejaVuSans-70" d="M 1159 525 
L 1159 -1331 
L 581 -1331 
L 581 3500 
L 1159 3500 
L 1159 2969 
Q 1341 3281 1617 3432 
Q 1894 3584 2278 3584 
Q 2916 3584 3314 3078 
Q 3713 2572 3713 1747 
Q 3713 922 3314 415 
Q 2916 -91 2278 -91 
Q 1894 -91 1617 61 
Q 1341 213 1159 525 
z
M 3116 1747 
Q 3116 2381 2855 2742 
Q 2594 3103 2138 3103 
Q 1681 3103 1420 2742 
Q 1159 2381 1159 1747 
Q 1159 1113 1420 752 
Q 1681 391 2138 391 
Q 2594 391 2855 752 
Q 3116 1113 3116 1747 
z
" transform="scale(0.015625)"/>
       <path id="DejaVuSans-6f" d="M 1959 3097 
Q 1497 3097 1228 2736 
Q 959 2375 959 1747 
Q 959 1119 1226 758 
Q 1494 397 1959 397 
Q 2419 397 2687 759 
Q 2956 1122 2956 1747 
Q 2956 2369 2687 2733 
Q 2419 3097 1959 3097 
z
M 1959 3584 
Q 2709 3584 3137 3096 
Q 3566 2609 3566 1747 
Q 3566 888 3137 398 
Q 2709 -91 1959 -91 
Q 1206 -91 779 398 
Q 353 888 353 1747 
Q 353 2609 779 3096 
Q 1206 3584 1959 3584 
z
" transform="scale(0.015625)"/>
       <path id="DejaVuSans-67" d="M 2906 1791 
Q 2906 2416 2648 2759 
Q 2391 3103 1925 3103 
Q 1463 3103 1205 2759 
Q 947 2416 947 1791 
Q 947 1169 1205 825 
Q 1463 481 1925 481 
Q 2391 481 2648 825 
Q 2906 1169 2906 1791 
z
M 3481 434 
Q 3481 -459 3084 -895 
Q 2688 -1331 1869 -1331 
Q 1566 -1331 1297 -1286 
Q 1028 -1241 775 -1147 
L 775 -588 
Q 1028 -725 1275 -790 
Q 1522 -856 1778 -856 
Q 2344 -856 2625 -561 
Q 2906 -266 2906 331 
L 2906 616 
Q 2728 306 2450 153 
Q 2172 0 1784 0 
Q 1141 0 747 490 
Q 353 981 353 1791 
Q 353 2603 747 3093 
Q 1141 3584 1784 3584 
Q 2172 3584 2450 3431 
Q 2728 3278 2906 2969 
L 2906 3500 
L 3481 3500 
L 3481 434 
z
" transform="scale(0.015625)"/>
       <path id="DejaVuSans-79" d="M 2059 -325 
Q 1816 -950 1584 -1140 
Q 1353 -1331 966 -1331 
L 506 -1331 
L 506 -850 
L 844 -850 
Q 1081 -850 1212 -737 
Q 1344 -625 1503 -206 
L 1606 56 
L 191 3500 
L 800 3500 
L 1894 763 
L 2988 3500 
L 3597 3500 
L 2059 -325 
z
" transform="scale(0.015625)"/>
       <path id="DejaVuSans-28" d="M 1984 4856 
Q 1566 4138 1362 3434 
Q 1159 2731 1159 2009 
Q 1159 1288 1364 580 
Q 1569 -128 1984 -844 
L 1484 -844 
Q 1016 -109 783 600 
Q 550 1309 550 2009 
Q 550 2706 781 3412 
Q 1013 4119 1484 4856 
L 1984 4856 
z
" transform="scale(0.015625)"/>
       <path id="DejaVuSans-Oblique-58" d="M 878 4666 
L 1516 4666 
L 2316 2981 
L 3763 4666 
L 4500 4666 
L 2578 2438 
L 3738 0 
L 3103 0 
L 2163 1966 
L 459 0 
L -275 0 
L 1906 2509 
L 878 4666 
z
" transform="scale(0.015625)"/>
       <path id="DejaVuSans-2d" d="M 313 2009 
L 1997 2009 
L 1997 1497 
L 313 1497 
L 313 2009 
z
" transform="scale(0.015625)"/>
       <path id="DejaVuSans-6d" d="M 3328 2828 
Q 3544 3216 3844 3400 
Q 4144 3584 4550 3584 
Q 5097 3584 5394 3201 
Q 5691 2819 5691 2113 
L 5691 0 
L 5113 0 
L 5113 2094 
Q 5113 2597 4934 2840 
Q 4756 3084 4391 3084 
Q 3944 3084 3684 2787 
Q 3425 2491 3425 1978 
L 3425 0 
L 2847 0 
L 2847 2094 
Q 2847 2600 2669 2842 
Q 2491 3084 2119 3084 
Q 1678 3084 1418 2786 
Q 1159 2488 1159 1978 
L 1159 0 
L 581 0 
L 581 3500 
L 1159 3500 
L 1159 2956 
Q 1356 3278 1631 3431 
Q 1906 3584 2284 3584 
Q 2666 3584 2933 3390 
Q 3200 3197 3328 2828 
z
" transform="scale(0.015625)"/>
       <path id="DejaVuSans-29" d="M 513 4856 
L 1013 4856 
Q 1481 4119 1714 3412 
Q 1947 2706 1947 2009 
Q 1947 1309 1714 600 
Q 1481 -109 1013 -844 
L 513 -844 
Q 928 -128 1133 580 
Q 1338 1288 1338 2009 
Q 1338 2731 1133 3434 
Q 928 4138 513 4856 
z
" transform="scale(0.015625)"/>
       <path id="DejaVuSans-2212" d="M 678 2272 
L 4684 2272 
L 4684 1741 
L 678 1741 
L 678 2272 
z
" transform="scale(0.015625)"/>
      </defs>
      <use xlink:href="#DejaVuSans-70" transform="translate(0 0.684375)"/>
      <use xlink:href="#DejaVuSans-6f" transform="translate(63.476562 0.684375)"/>
      <use xlink:href="#DejaVuSans-74" transform="translate(124.658203 0.684375)"/>
      <use xlink:href="#DejaVuSans-65" transform="translate(163.867188 0.684375)"/>
      <use xlink:href="#DejaVuSans-6e" transform="translate(225.390625 0.684375)"/>
      <use xlink:href="#DejaVuSans-74" transform="translate(288.769531 0.684375)"/>
      <use xlink:href="#DejaVuSans-69" transform="translate(327.978516 0.684375)"/>
      <use xlink:href="#DejaVuSans-61" transform="translate(355.761719 0.684375)"/>
      <use xlink:href="#DejaVuSans-6c" transform="translate(417.041016 0.684375)"/>
      <use xlink:href="#DejaVuSans-20" transform="translate(444.824219 0.684375)"/>
      <use xlink:href="#DejaVuSans-65" transform="translate(476.611328 0.684375)"/>
      <use xlink:href="#DejaVuSans-6e" transform="translate(538.134766 0.684375)"/>
      <use xlink:href="#DejaVuSans-65" transform="translate(601.513672 0.684375)"/>
      <use xlink:href="#DejaVuSans-72" transform="translate(663.037109 0.684375)"/>
      <use xlink:href="#DejaVuSans-67" transform="translate(704.150391 0.684375)"/>
      <use xlink:href="#DejaVuSans-79" transform="translate(767.626953 0.684375)"/>
      <use xlink:href="#DejaVuSans-20" transform="translate(826.806641 0.684375)"/>
      <use xlink:href="#DejaVuSans-28" transform="translate(858.59375 0.684375)"/>
      <use xlink:href="#DejaVuSans-72" transform="translate(897.607422 0.684375)"/>
      <use xlink:href="#DejaVuSans-65" transform="translate(938.720703 0.684375)"/>
      <use xlink:href="#DejaVuSans-6c" transform="translate(1000.244141 0.684375)"/>
      <use xlink:href="#DejaVuSans-2e" transform="translate(1028.027344 0.684375)"/>
      <use xlink:href="#DejaVuSans-20" transform="translate(1059.814453 0.684375)"/>
      <use xlink:href="#DejaVuSans-74" transform="translate(1091.601562 0.684375)"/>
      <use xlink:href="#DejaVuSans-6f" transform="translate(1130.810547 0.684375)"/>
      <use xlink:href="#DejaVuSans-20" transform="translate(1191.992188 0.684375)"/>
      <use xlink:href="#DejaVuSans-Oblique-58" transform="translate(1223.779297 0.684375)"/>
      <use xlink:href="#DejaVuSans-2d" transform="translate(1292.285156 0.684375)"/>
      <use xlink:href="#DejaVuSans-6d" transform="translate(1326.619141 0.684375)"/>
      <use xlink:href="#DejaVuSans-69" transform="translate(1424.03125 0.684375)"/>
      <use xlink:href="#DejaVuSans-6e" transform="translate(1451.814453 0.684375)"/>
      <use xlink:href="#DejaVuSans-2e" transform="translate(1515.193359 0.684375)"/>
      <use xlink:href="#DejaVuSans-29" transform="translate(1546.980469 0.684375)"/>
      <use xlink:href="#DejaVuSans-20" transform="translate(1585.994141 0.684375)"/>
      <use xlink:href="#DejaVuSans-2f" transform="translate(1617.78125 0.684375)"/>
      <use xlink:href="#DejaVuSans-20" transform="translate(1651.472656 0.684375)"/>
      <use xlink:href="#DejaVuSans-63" transform="translate(1683.259766 0.684375)"/>
      <use xlink:href="#DejaVuSans-6d" transform="translate(1738.240234 0.684375)"/>
      <use xlink:href="#DejaVuSans-2212" transform="translate(1836.609375 38.965625) scale(0.7)"/>
      <use xlink:href="#DejaVuSans-31" transform="translate(1895.261719 38.965625) scale(0.7)"/>
     </g>
    </g>
    <g id="text_14">
     <!-- 1e4 -->
     <g transform="translate(41.003365 29.919157) scale(0.1 -0.1)">
      <use xlink:href="#DejaVuSans-31"/>
      <use xlink:href="#DejaVuSans-65" x="63.623047"/>
      <use xlink:href="#DejaVuSans-34" x="125.146484"/>
     </g>
    </g>
   </g>
   <g id="line2d_12">
    <path d="M 50.140366 -1 
L 51.40994 61.066608 
L 52.855297 119.801637 
L 54.011583 158.244462 
L 55.167869 190.758864 
L 56.324155 217.984803 
L 57.480441 240.402514 
L 58.636727 258.63625 
L 59.793014 273.104308 
L 60.9493 284.259307 
L 61.816514 290.685818 
L 62.683729 295.630664 
L 63.550943 299.242622 
L 64.129086 300.977078 
L 64.707229 302.215952 
L 65.285372 302.993964 
L 65.863515 303.343216 
L 66.441658 303.29516 
L 67.019801 302.878896 
L 67.597944 302.121865 
L 68.176087 301.050975 
L 69.043302 298.910216 
L 69.910517 296.197939 
L 71.066803 291.817328 
L 72.51216 285.328438 
L 74.246589 276.396324 
L 76.559161 263.134266 
L 80.02802 241.677511 
L 87.254807 196.712386 
L 90.723666 176.668094 
L 93.903452 159.720999 
L 96.505096 147.031383 
L 98.817668 136.71991 
L 101.13024 127.394377 
L 103.153741 120.091892 
L 105.177241 113.628759 
L 106.911671 108.769223 
L 108.6461 104.52278 
L 110.380529 100.923428 
L 111.825886 98.387482 
L 113.271244 96.223653 
L 115.005673 94.047898 
L 116.740102 92.255181 
L 118.763603 90.540172 
L 121.365246 88.625275 
L 124.255961 86.796837 
L 127.146677 85.232982 
L 130.326463 83.767417 
L 133.795322 82.420432 
L 137.553251 81.203598 
L 141.600252 80.121055 
L 146.225397 79.114271 
L 151.428684 78.211188 
L 157.499186 77.391313 
L 164.436902 76.682239 
L 172.819976 76.056355 
L 182.937479 75.529945 
L 195.945697 75.087599 
L 213.289988 74.736924 
L 226.298207 74.576903 
L 226.298207 74.576903 
" clip-path="url(#pc0ca43506f)" style="fill: none; stroke: #1f77b4; stroke-width: 1.5; stroke-linecap: square"/>
   </g>
   <g id="line2d_13">
    <defs>
     <path id="mf3fc204673" d="M 0 2 
C 0.530406 2 1.03916 1.789267 1.414214 1.414214 
C 1.789267 1.03916 2 0.530406 2 0 
C 2 -0.530406 1.789267 -1.03916 1.414214 -1.414214 
C 1.03916 -1.789267 0.530406 -2 0 -2 
C -0.530406 -2 -1.03916 -1.789267 -1.414214 -1.414214 
C -1.789267 -1.03916 -2 -0.530406 -2 0 
C -2 0.530406 -1.789267 1.03916 -1.414214 1.414214 
C -1.03916 1.789267 -0.530406 2 0 2 
z
" style="stroke: #ff7f0e"/>
    </defs>
    <g clip-path="url(#pc0ca43506f)">
     <use xlink:href="#mf3fc204673" x="52.161095" y="91.357458" style="fill: #ffffff; stroke: #ff7f0e"/>
     <use xlink:href="#mf3fc204673" x="52.234758" y="95.96427" style="fill: #ffffff; stroke: #ff7f0e"/>
     <use xlink:href="#mf3fc204673" x="52.364493" y="101.338537" style="fill: #ffffff; stroke: #ff7f0e"/>
     <use xlink:href="#mf3fc204673" x="52.519185" y="107.33293" style="fill: #ffffff; stroke: #ff7f0e"/>
     <use xlink:href="#mf3fc204673" x="52.691887" y="113.816021" style="fill: #ffffff; stroke: #ff7f0e"/>
     <use xlink:href="#mf3fc204673" x="52.880555" y="120.719979" style="fill: #ffffff; stroke: #ff7f0e"/>
     <use xlink:href="#mf3fc204673" x="53.08524" y="127.996491" style="fill: #ffffff; stroke: #ff7f0e"/>
     <use xlink:href="#mf3fc204673" x="53.30879" y="135.613757" style="fill: #ffffff; stroke: #ff7f0e"/>
     <use xlink:href="#mf3fc204673" x="53.548482" y="143.552213" style="fill: #ffffff; stroke: #ff7f0e"/>
     <use xlink:href="#mf3fc204673" x="53.80407" y="151.796587" style="fill: #ffffff; stroke: #ff7f0e"/>
     <use xlink:href="#mf3fc204673" x="54.080333" y="160.335655" style="fill: #ffffff; stroke: #ff7f0e"/>
     <use xlink:href="#mf3fc204673" x="54.377578" y="169.163801" style="fill: #ffffff; stroke: #ff7f0e"/>
     <use xlink:href="#mf3fc204673" x="54.699968" y="178.273185" style="fill: #ffffff; stroke: #ff7f0e"/>
     <use xlink:href="#mf3fc204673" x="55.048795" y="187.668017" style="fill: #ffffff; stroke: #ff7f0e"/>
     <use xlink:href="#mf3fc204673" x="55.428863" y="197.338637" style="fill: #ffffff; stroke: #ff7f0e"/>
     <use xlink:href="#mf3fc204673" x="55.843426" y="207.290908" style="fill: #ffffff; stroke: #ff7f0e"/>
     <use xlink:href="#mf3fc204673" x="56.302685" y="217.525655" style="fill: #ffffff; stroke: #ff7f0e"/>
     <use xlink:href="#mf3fc204673" x="56.814689" y="228.04395" style="fill: #ffffff; stroke: #ff7f0e"/>
     <use xlink:href="#mf3fc204673" x="57.392134" y="238.844555" style="fill: #ffffff; stroke: #ff7f0e"/>
     <use xlink:href="#mf3fc204673" x="58.053086" y="249.932342" style="fill: #ffffff; stroke: #ff7f0e"/>
     <use xlink:href="#mf3fc204673" x="58.830141" y="261.304915" style="fill: #ffffff; stroke: #ff7f0e"/>
     <use xlink:href="#mf3fc204673" x="59.78029" y="272.963843" style="fill: #ffffff; stroke: #ff7f0e"/>
     <use xlink:href="#mf3fc204673" x="61.028299" y="284.910283" style="fill: #ffffff; stroke: #ff7f0e"/>
     <use xlink:href="#mf3fc204673" x="63.011447" y="297.144729" style="fill: #ffffff; stroke: #ff7f0e"/>
     <use xlink:href="#mf3fc204673" x="69.62645" y="297.144729" style="fill: #ffffff; stroke: #ff7f0e"/>
     <use xlink:href="#mf3fc204673" x="72.598544" y="284.910283" style="fill: #ffffff; stroke: #ff7f0e"/>
     <use xlink:href="#mf3fc204673" x="74.867241" y="272.963843" style="fill: #ffffff; stroke: #ff7f0e"/>
     <use xlink:href="#mf3fc204673" x="76.863888" y="261.304915" style="fill: #ffffff; stroke: #ff7f0e"/>
     <use xlink:href="#mf3fc204673" x="78.71417" y="249.932342" style="fill: #ffffff; stroke: #ff7f0e"/>
     <use xlink:href="#mf3fc204673" x="80.476471" y="238.844555" style="fill: #ffffff; stroke: #ff7f0e"/>
     <use xlink:href="#mf3fc204673" x="82.183301" y="228.04395" style="fill: #ffffff; stroke: #ff7f0e"/>
     <use xlink:href="#mf3fc204673" x="83.853569" y="217.525655" style="fill: #ffffff; stroke: #ff7f0e"/>
     <use xlink:href="#mf3fc204673" x="85.505407" y="207.290908" style="fill: #ffffff; stroke: #ff7f0e"/>
     <use xlink:href="#mf3fc204673" x="87.149818" y="197.338637" style="fill: #ffffff; stroke: #ff7f0e"/>
     <use xlink:href="#mf3fc204673" x="88.790277" y="187.668017" style="fill: #ffffff; stroke: #ff7f0e"/>
     <use xlink:href="#mf3fc204673" x="90.435237" y="178.273185" style="fill: #ffffff; stroke: #ff7f0e"/>
     <use xlink:href="#mf3fc204673" x="92.099635" y="169.163801" style="fill: #ffffff; stroke: #ff7f0e"/>
     <use xlink:href="#mf3fc204673" x="93.782925" y="160.335655" style="fill: #ffffff; stroke: #ff7f0e"/>
     <use xlink:href="#mf3fc204673" x="95.501208" y="151.796587" style="fill: #ffffff; stroke: #ff7f0e"/>
     <use xlink:href="#mf3fc204673" x="97.262017" y="143.552213" style="fill: #ffffff; stroke: #ff7f0e"/>
     <use xlink:href="#mf3fc204673" x="99.079413" y="135.613757" style="fill: #ffffff; stroke: #ff7f0e"/>
     <use xlink:href="#mf3fc204673" x="100.972889" y="127.996491" style="fill: #ffffff; stroke: #ff7f0e"/>
     <use xlink:href="#mf3fc204673" x="102.970351" y="120.719979" style="fill: #ffffff; stroke: #ff7f0e"/>
     <use xlink:href="#mf3fc204673" x="105.114559" y="113.816021" style="fill: #ffffff; stroke: #ff7f0e"/>
     <use xlink:href="#mf3fc204673" x="107.470485" y="107.33293" style="fill: #ffffff; stroke: #ff7f0e"/>
     <use xlink:href="#mf3fc204673" x="110.16392" y="101.338537" style="fill: #ffffff; stroke: #ff7f0e"/>
     <use xlink:href="#mf3fc204673" x="113.46121" y="95.96427" style="fill: #ffffff; stroke: #ff7f0e"/>
    </g>
   </g>
   <g id="patch_3">
    <path d="M 41.003365 311.621635 
L 41.003365 32.919157 
" style="fill: none; stroke: #000000; stroke-width: 0.8; stroke-linejoin: miter; stroke-linecap: square"/>
   </g>
   <g id="patch_4">
    <path d="M 226.009135 311.621635 
L 226.009135 32.919157 
" style="fill: none; stroke: #000000; stroke-width: 0.8; stroke-linejoin: miter; stroke-linecap: square"/>
   </g>
   <g id="patch_5">
    <path d="M 41.003365 311.621635 
L 226.009135 311.621635 
" style="fill: none; stroke: #000000; stroke-width: 0.8; stroke-linejoin: miter; stroke-linecap: square"/>
   </g>
   <g id="patch_6">
    <path d="M 41.003365 32.919157 
L 226.009135 32.919157 
" style="fill: none; stroke: #000000; stroke-width: 0.8; stroke-linejoin: miter; stroke-linecap: square"/>
   </g>
   <g id="legend_1">
    <g id="patch_7">
     <path d="M 87.696635 70.275407 
L 219.009135 70.275407 
Q 221.009135 70.275407 221.009135 68.275407 
L 221.009135 39.919157 
Q 221.009135 37.919157 219.009135 37.919157 
L 87.696635 37.919157 
Q 85.696635 37.919157 85.696635 39.919157 
L 85.696635 68.275407 
Q 85.696635 70.275407 87.696635 70.275407 
z
" style="fill: #ffffff; opacity: 0.8; stroke: #cccccc; stroke-linejoin: miter"/>
    </g>
    <g id="line2d_14">
     <path d="M 89.696635 46.017595 
L 99.696635 46.017595 
L 109.696635 46.017595 
" style="fill: none; stroke: #1f77b4; stroke-width: 1.5; stroke-linecap: square"/>
    </g>
    <g id="text_15">
     <!-- RKR potential curve -->
     <g transform="translate(117.696635 49.517595) scale(0.1 -0.1)">
      <defs>
       <path id="DejaVuSans-52" d="M 2841 2188 
Q 3044 2119 3236 1894 
Q 3428 1669 3622 1275 
L 4263 0 
L 3584 0 
L 2988 1197 
Q 2756 1666 2539 1819 
Q 2322 1972 1947 1972 
L 1259 1972 
L 1259 0 
L 628 0 
L 628 4666 
L 2053 4666 
Q 2853 4666 3247 4331 
Q 3641 3997 3641 3322 
Q 3641 2881 3436 2590 
Q 3231 2300 2841 2188 
z
M 1259 4147 
L 1259 2491 
L 2053 2491 
Q 2509 2491 2742 2702 
Q 2975 2913 2975 3322 
Q 2975 3731 2742 3939 
Q 2509 4147 2053 4147 
L 1259 4147 
z
" transform="scale(0.015625)"/>
       <path id="DejaVuSans-4b" d="M 628 4666 
L 1259 4666 
L 1259 2694 
L 3353 4666 
L 4166 4666 
L 1850 2491 
L 4331 0 
L 3500 0 
L 1259 2247 
L 1259 0 
L 628 0 
L 628 4666 
z
" transform="scale(0.015625)"/>
       <path id="DejaVuSans-76" d="M 191 3500 
L 800 3500 
L 1894 563 
L 2988 3500 
L 3597 3500 
L 2284 0 
L 1503 0 
L 191 3500 
z
" transform="scale(0.015625)"/>
      </defs>
      <use xlink:href="#DejaVuSans-52"/>
      <use xlink:href="#DejaVuSans-4b" x="69.482422"/>
      <use xlink:href="#DejaVuSans-52" x="135.058594"/>
      <use xlink:href="#DejaVuSans-20" x="204.541016"/>
      <use xlink:href="#DejaVuSans-70" x="236.328125"/>
      <use xlink:href="#DejaVuSans-6f" x="299.804688"/>
      <use xlink:href="#DejaVuSans-74" x="360.986328"/>
      <use xlink:href="#DejaVuSans-65" x="400.195312"/>
      <use xlink:href="#DejaVuSans-6e" x="461.71875"/>
      <use xlink:href="#DejaVuSans-74" x="525.097656"/>
      <use xlink:href="#DejaVuSans-69" x="564.306641"/>
      <use xlink:href="#DejaVuSans-61" x="592.089844"/>
      <use xlink:href="#DejaVuSans-6c" x="653.369141"/>
      <use xlink:href="#DejaVuSans-20" x="681.152344"/>
      <use xlink:href="#DejaVuSans-63" x="712.939453"/>
      <use xlink:href="#DejaVuSans-75" x="767.919922"/>
      <use xlink:href="#DejaVuSans-72" x="831.298828"/>
      <use xlink:href="#DejaVuSans-76" x="872.412109"/>
      <use xlink:href="#DejaVuSans-65" x="931.591797"/>
     </g>
    </g>
    <g id="line2d_15">
     <g>
      <use xlink:href="#mf3fc204673" x="99.696635" y="60.69572" style="fill: #ffffff; stroke: #ff7f0e"/>
     </g>
    </g>
    <g id="text_16">
     <!-- turning point -->
     <g transform="translate(117.696635 64.19572) scale(0.1 -0.1)">
      <use xlink:href="#DejaVuSans-74"/>
      <use xlink:href="#DejaVuSans-75" x="39.208984"/>
      <use xlink:href="#DejaVuSans-72" x="102.587891"/>
      <use xlink:href="#DejaVuSans-6e" x="141.951172"/>
      <use xlink:href="#DejaVuSans-69" x="205.330078"/>
      <use xlink:href="#DejaVuSans-6e" x="233.113281"/>
      <use xlink:href="#DejaVuSans-67" x="296.492188"/>
      <use xlink:href="#DejaVuSans-20" x="359.96875"/>
      <use xlink:href="#DejaVuSans-70" x="391.755859"/>
      <use xlink:href="#DejaVuSans-6f" x="455.232422"/>
      <use xlink:href="#DejaVuSans-69" x="516.414062"/>
      <use xlink:href="#DejaVuSans-6e" x="544.197266"/>
      <use xlink:href="#DejaVuSans-74" x="607.576172"/>
     </g>
    </g>
   </g>
  </g>
  <g id="axes_2">
   <g id="patch_8">
    <path d="M 272.79399 158.031244 
L 457.79976 158.031244 
L 457.79976 32.919157 
L 272.79399 32.919157 
z
" style="fill: #ffffff"/>
   </g>
   <g id="matplotlib.axis_3">
    <g id="xtick_5">
     <g id="line2d_16">
      <g>
       <use xlink:href="#m5c2304ce7c" x="281.203343" y="158.031244" style="stroke: #000000; stroke-width: 0.8"/>
      </g>
     </g>
    </g>
    <g id="xtick_6">
     <g id="line2d_17">
      <g>
       <use xlink:href="#m5c2304ce7c" x="317.765748" y="158.031244" style="stroke: #000000; stroke-width: 0.8"/>
      </g>
     </g>
    </g>
    <g id="xtick_7">
     <g id="line2d_18">
      <g>
       <use xlink:href="#m5c2304ce7c" x="354.328153" y="158.031244" style="stroke: #000000; stroke-width: 0.8"/>
      </g>
     </g>
    </g>
    <g id="xtick_8">
     <g id="line2d_19">
      <g>
       <use xlink:href="#m5c2304ce7c" x="390.890559" y="158.031244" style="stroke: #000000; stroke-width: 0.8"/>
      </g>
     </g>
    </g>
    <g id="xtick_9">
     <g id="line2d_20">
      <g>
       <use xlink:href="#m5c2304ce7c" x="427.452964" y="158.031244" style="stroke: #000000; stroke-width: 0.8"/>
      </g>
     </g>
    </g>
   </g>
   <g id="matplotlib.axis_4">
    <g id="ytick_8">
     <g id="line2d_21">
      <g>
       <use xlink:href="#mede4fc7145" x="272.79399" y="158.031244" style="stroke: #000000; stroke-width: 0.8"/>
      </g>
     </g>
     <g id="text_17">
      <!-- 0.0 -->
      <g transform="translate(249.890865 161.830463) scale(0.1 -0.1)">
       <use xlink:href="#DejaVuSans-30"/>
       <use xlink:href="#DejaVuSans-2e" x="63.623047"/>
       <use xlink:href="#DejaVuSans-30" x="95.410156"/>
      </g>
     </g>
    </g>
    <g id="ytick_9">
     <g id="line2d_22">
      <g>
       <use xlink:href="#mede4fc7145" x="272.79399" y="137.17923" style="stroke: #000000; stroke-width: 0.8"/>
      </g>
     </g>
     <g id="text_18">
      <!-- 0.5 -->
      <g transform="translate(249.890865 140.978449) scale(0.1 -0.1)">
       <use xlink:href="#DejaVuSans-30"/>
       <use xlink:href="#DejaVuSans-2e" x="63.623047"/>
       <use xlink:href="#DejaVuSans-35" x="95.410156"/>
      </g>
     </g>
    </g>
    <g id="ytick_10">
     <g id="line2d_23">
      <g>
       <use xlink:href="#mede4fc7145" x="272.79399" y="116.327215" style="stroke: #000000; stroke-width: 0.8"/>
      </g>
     </g>
     <g id="text_19">
      <!-- 1.0 -->
      <g transform="translate(249.890865 120.126434) scale(0.1 -0.1)">
       <use xlink:href="#DejaVuSans-31"/>
       <use xlink:href="#DejaVuSans-2e" x="63.623047"/>
       <use xlink:href="#DejaVuSans-30" x="95.410156"/>
      </g>
     </g>
    </g>
    <g id="ytick_11">
     <g id="line2d_24">
      <g>
       <use xlink:href="#mede4fc7145" x="272.79399" y="95.475201" style="stroke: #000000; stroke-width: 0.8"/>
      </g>
     </g>
     <g id="text_20">
      <!-- 1.5 -->
      <g transform="translate(249.890865 99.27442) scale(0.1 -0.1)">
       <use xlink:href="#DejaVuSans-31"/>
       <use xlink:href="#DejaVuSans-2e" x="63.623047"/>
       <use xlink:href="#DejaVuSans-35" x="95.410156"/>
      </g>
     </g>
    </g>
    <g id="ytick_12">
     <g id="line2d_25">
      <g>
       <use xlink:href="#mede4fc7145" x="272.79399" y="74.623186" style="stroke: #000000; stroke-width: 0.8"/>
      </g>
     </g>
     <g id="text_21">
      <!-- 2.0 -->
      <g transform="translate(249.890865 78.422405) scale(0.1 -0.1)">
       <use xlink:href="#DejaVuSans-32"/>
       <use xlink:href="#DejaVuSans-2e" x="63.623047"/>
       <use xlink:href="#DejaVuSans-30" x="95.410156"/>
      </g>
     </g>
    </g>
    <g id="ytick_13">
     <g id="line2d_26">
      <g>
       <use xlink:href="#mede4fc7145" x="272.79399" y="53.771172" style="stroke: #000000; stroke-width: 0.8"/>
      </g>
     </g>
     <g id="text_22">
      <!-- 2.5 -->
      <g transform="translate(249.890865 57.570391) scale(0.1 -0.1)">
       <use xlink:href="#DejaVuSans-32"/>
       <use xlink:href="#DejaVuSans-2e" x="63.623047"/>
       <use xlink:href="#DejaVuSans-35" x="95.410156"/>
      </g>
     </g>
    </g>
    <g id="ytick_14">
     <g id="line2d_27">
      <g>
       <use xlink:href="#mede4fc7145" x="272.79399" y="32.919157" style="stroke: #000000; stroke-width: 0.8"/>
      </g>
     </g>
     <g id="text_23">
      <!-- 3.0 -->
      <g transform="translate(249.890865 36.718376) scale(0.1 -0.1)">
       <use xlink:href="#DejaVuSans-33"/>
       <use xlink:href="#DejaVuSans-2e" x="63.623047"/>
       <use xlink:href="#DejaVuSans-30" x="95.410156"/>
      </g>
     </g>
    </g>
    <g id="text_24">
     <!-- $\Delta G_v$ $/$ cm$^{-1}$ -->
     <g transform="translate(243.811177 122.825201) rotate(-90) scale(0.1 -0.1)">
      <defs>
       <path id="DejaVuSans-394" d="M 2188 4044 
L 906 525 
L 3472 525 
L 2188 4044 
z
M 50 0 
L 1831 4666 
L 2547 4666 
L 4325 0 
L 50 0 
z
" transform="scale(0.015625)"/>
       <path id="DejaVuSans-Oblique-47" d="M 3494 697 
L 3738 1919 
L 2700 1919 
L 2797 2438 
L 4453 2438 
L 4050 384 
Q 3634 156 3143 32 
Q 2653 -91 2156 -91 
Q 1278 -91 783 396 
Q 288 884 288 1753 
Q 288 2475 589 3126 
Q 891 3778 1422 4213 
Q 1756 4484 2153 4617 
Q 2550 4750 3034 4750 
Q 3472 4750 3873 4639 
Q 4275 4528 4641 4306 
L 4513 3634 
Q 4231 3928 3853 4083 
Q 3475 4238 3047 4238 
Q 2550 4238 2172 4048 
Q 1794 3859 1497 3463 
Q 1244 3125 1098 2667 
Q 953 2209 953 1734 
Q 953 1081 1287 751 
Q 1622 422 2284 422 
Q 2616 422 2925 492 
Q 3234 563 3494 697 
z
" transform="scale(0.015625)"/>
       <path id="DejaVuSans-Oblique-76" d="M 459 3500 
L 1069 3500 
L 1581 525 
L 3256 3500 
L 3866 3500 
L 1875 0 
L 1100 0 
L 459 3500 
z
" transform="scale(0.015625)"/>
      </defs>
      <use xlink:href="#DejaVuSans-394" transform="translate(0 0.684375)"/>
      <use xlink:href="#DejaVuSans-Oblique-47" transform="translate(68.408203 0.684375)"/>
      <use xlink:href="#DejaVuSans-Oblique-76" transform="translate(145.898438 -15.721875) scale(0.7)"/>
      <use xlink:href="#DejaVuSans-20" transform="translate(190.058594 0.684375)"/>
      <use xlink:href="#DejaVuSans-2f" transform="translate(221.845703 0.684375)"/>
      <use xlink:href="#DejaVuSans-20" transform="translate(255.537109 0.684375)"/>
      <use xlink:href="#DejaVuSans-63" transform="translate(287.324219 0.684375)"/>
      <use xlink:href="#DejaVuSans-6d" transform="translate(342.304688 0.684375)"/>
      <use xlink:href="#DejaVuSans-2212" transform="translate(440.673828 38.965625) scale(0.7)"/>
      <use xlink:href="#DejaVuSans-31" transform="translate(499.326172 38.965625) scale(0.7)"/>
     </g>
    </g>
   </g>
   <g id="line2d_28">
    <path d="M 281.203343 145.868094 
L 288.515824 151.325613 
L 295.828305 149.852559 
L 303.140786 147.425073 
L 310.453267 147.425903 
L 317.765748 143.899045 
L 325.078229 149.226066 
L 332.39071 145.821202 
L 339.703191 148.016112 
L 347.015672 147.694695 
L 354.328153 140.482998 
L 361.640634 121.000234 
L 368.953116 133.352944 
L 376.265597 125.543154 
L 383.578078 116.640136 
L 390.890559 116.61091 
L 398.20304 106.261887 
L 405.515521 107.131758 
L 412.828002 101.67947 
L 427.452964 77.511721 
L 434.765445 46.752641 
L 449.390407 108.948017 
" clip-path="url(#p9f9a3b717d)" style="fill: none; stroke: #2ca02c; stroke-width: 1.5; stroke-linecap: square"/>
   </g>
   <g id="patch_9">
    <path d="M 272.79399 158.031244 
L 272.79399 32.919157 
" style="fill: none; stroke: #000000; stroke-width: 0.8; stroke-linejoin: miter; stroke-linecap: square"/>
   </g>
   <g id="patch_10">
    <path d="M 457.79976 158.031244 
L 457.79976 32.919157 
" style="fill: none; stroke: #000000; stroke-width: 0.8; stroke-linejoin: miter; stroke-linecap: square"/>
   </g>
   <g id="patch_11">
    <path d="M 272.79399 158.031244 
L 457.79976 158.031244 
" style="fill: none; stroke: #000000; stroke-width: 0.8; stroke-linejoin: miter; stroke-linecap: square"/>
   </g>
   <g id="patch_12">
    <path d="M 272.79399 32.919157 
L 457.79976 32.919157 
" style="fill: none; stroke: #000000; stroke-width: 0.8; stroke-linejoin: miter; stroke-linecap: square"/>
   </g>
  </g>
  <g id="axes_3">
   <g id="patch_13">
    <path d="M 272.79399 311.621635 
L 457.79976 311.621635 
L 457.79976 186.509548 
L 272.79399 186.509548 
z
" style="fill: #ffffff"/>
   </g>
   <g id="matplotlib.axis_5">
    <g id="xtick_10">
     <g id="line2d_29">
      <g>
       <use xlink:href="#m5c2304ce7c" x="281.203343" y="311.621635" style="stroke: #000000; stroke-width: 0.8"/>
      </g>
     </g>
     <g id="text_25">
      <!-- 0 -->
      <g transform="translate(278.022093 326.220072) scale(0.1 -0.1)">
       <use xlink:href="#DejaVuSans-30"/>
      </g>
     </g>
    </g>
    <g id="xtick_11">
     <g id="line2d_30">
      <g>
       <use xlink:href="#m5c2304ce7c" x="317.765748" y="311.621635" style="stroke: #000000; stroke-width: 0.8"/>
      </g>
     </g>
     <g id="text_26">
      <!-- 5 -->
      <g transform="translate(314.584498 326.220072) scale(0.1 -0.1)">
       <use xlink:href="#DejaVuSans-35"/>
      </g>
     </g>
    </g>
    <g id="xtick_12">
     <g id="line2d_31">
      <g>
       <use xlink:href="#m5c2304ce7c" x="354.328153" y="311.621635" style="stroke: #000000; stroke-width: 0.8"/>
      </g>
     </g>
     <g id="text_27">
      <!-- 10 -->
      <g transform="translate(347.965653 326.220072) scale(0.1 -0.1)">
       <use xlink:href="#DejaVuSans-31"/>
       <use xlink:href="#DejaVuSans-30" x="63.623047"/>
      </g>
     </g>
    </g>
    <g id="xtick_13">
     <g id="line2d_32">
      <g>
       <use xlink:href="#m5c2304ce7c" x="390.890559" y="311.621635" style="stroke: #000000; stroke-width: 0.8"/>
      </g>
     </g>
     <g id="text_28">
      <!-- 15 -->
      <g transform="translate(384.528059 326.220072) scale(0.1 -0.1)">
       <use xlink:href="#DejaVuSans-31"/>
       <use xlink:href="#DejaVuSans-35" x="63.623047"/>
      </g>
     </g>
    </g>
    <g id="xtick_14">
     <g id="line2d_33">
      <g>
       <use xlink:href="#m5c2304ce7c" x="427.452964" y="311.621635" style="stroke: #000000; stroke-width: 0.8"/>
      </g>
     </g>
     <g id="text_29">
      <!-- 20 -->
      <g transform="translate(421.090464 326.220072) scale(0.1 -0.1)">
       <use xlink:href="#DejaVuSans-32"/>
       <use xlink:href="#DejaVuSans-30" x="63.623047"/>
      </g>
     </g>
    </g>
    <g id="text_30">
     <!-- vibrational quantum number -->
     <g transform="translate(293.357031 339.898197) scale(0.1 -0.1)">
      <defs>
       <path id="DejaVuSans-62" d="M 3116 1747 
Q 3116 2381 2855 2742 
Q 2594 3103 2138 3103 
Q 1681 3103 1420 2742 
Q 1159 2381 1159 1747 
Q 1159 1113 1420 752 
Q 1681 391 2138 391 
Q 2594 391 2855 752 
Q 3116 1113 3116 1747 
z
M 1159 2969 
Q 1341 3281 1617 3432 
Q 1894 3584 2278 3584 
Q 2916 3584 3314 3078 
Q 3713 2572 3713 1747 
Q 3713 922 3314 415 
Q 2916 -91 2278 -91 
Q 1894 -91 1617 61 
Q 1341 213 1159 525 
L 1159 0 
L 581 0 
L 581 4863 
L 1159 4863 
L 1159 2969 
z
" transform="scale(0.015625)"/>
       <path id="DejaVuSans-71" d="M 947 1747 
Q 947 1113 1208 752 
Q 1469 391 1925 391 
Q 2381 391 2643 752 
Q 2906 1113 2906 1747 
Q 2906 2381 2643 2742 
Q 2381 3103 1925 3103 
Q 1469 3103 1208 2742 
Q 947 2381 947 1747 
z
M 2906 525 
Q 2725 213 2448 61 
Q 2172 -91 1784 -91 
Q 1150 -91 751 415 
Q 353 922 353 1747 
Q 353 2572 751 3078 
Q 1150 3584 1784 3584 
Q 2172 3584 2448 3432 
Q 2725 3281 2906 2969 
L 2906 3500 
L 3481 3500 
L 3481 -1331 
L 2906 -1331 
L 2906 525 
z
" transform="scale(0.015625)"/>
      </defs>
      <use xlink:href="#DejaVuSans-76"/>
      <use xlink:href="#DejaVuSans-69" x="59.179688"/>
      <use xlink:href="#DejaVuSans-62" x="86.962891"/>
      <use xlink:href="#DejaVuSans-72" x="150.439453"/>
      <use xlink:href="#DejaVuSans-61" x="191.552734"/>
      <use xlink:href="#DejaVuSans-74" x="252.832031"/>
      <use xlink:href="#DejaVuSans-69" x="292.041016"/>
      <use xlink:href="#DejaVuSans-6f" x="319.824219"/>
      <use xlink:href="#DejaVuSans-6e" x="381.005859"/>
      <use xlink:href="#DejaVuSans-61" x="444.384766"/>
      <use xlink:href="#DejaVuSans-6c" x="505.664062"/>
      <use xlink:href="#DejaVuSans-20" x="533.447266"/>
      <use xlink:href="#DejaVuSans-71" x="565.234375"/>
      <use xlink:href="#DejaVuSans-75" x="628.710938"/>
      <use xlink:href="#DejaVuSans-61" x="692.089844"/>
      <use xlink:href="#DejaVuSans-6e" x="753.369141"/>
      <use xlink:href="#DejaVuSans-74" x="816.748047"/>
      <use xlink:href="#DejaVuSans-75" x="855.957031"/>
      <use xlink:href="#DejaVuSans-6d" x="919.335938"/>
      <use xlink:href="#DejaVuSans-20" x="1016.748047"/>
      <use xlink:href="#DejaVuSans-6e" x="1048.535156"/>
      <use xlink:href="#DejaVuSans-75" x="1111.914062"/>
      <use xlink:href="#DejaVuSans-6d" x="1175.292969"/>
      <use xlink:href="#DejaVuSans-62" x="1272.705078"/>
      <use xlink:href="#DejaVuSans-65" x="1336.181641"/>
      <use xlink:href="#DejaVuSans-72" x="1397.705078"/>
     </g>
    </g>
   </g>
   <g id="matplotlib.axis_6">
    <g id="ytick_15">
     <g id="line2d_34">
      <g>
       <use xlink:href="#mede4fc7145" x="272.79399" y="311.621635" style="stroke: #000000; stroke-width: 0.8"/>
      </g>
     </g>
     <g id="text_31">
      <!-- 2 -->
      <g transform="translate(251.051802 315.420854) scale(0.1 -0.1)">
       <use xlink:href="#DejaVuSans-2212"/>
       <use xlink:href="#DejaVuSans-32" x="83.789062"/>
      </g>
     </g>
    </g>
    <g id="ytick_16">
     <g id="line2d_35">
      <g>
       <use xlink:href="#mede4fc7145" x="272.79399" y="280.343613" style="stroke: #000000; stroke-width: 0.8"/>
      </g>
     </g>
     <g id="text_32">
      <!-- 0 -->
      <g transform="translate(259.43149 284.142832) scale(0.1 -0.1)">
       <use xlink:href="#DejaVuSans-30"/>
      </g>
     </g>
    </g>
    <g id="ytick_17">
     <g id="line2d_36">
      <g>
       <use xlink:href="#mede4fc7145" x="272.79399" y="249.065592" style="stroke: #000000; stroke-width: 0.8"/>
      </g>
     </g>
     <g id="text_33">
      <!-- 2 -->
      <g transform="translate(259.43149 252.86481) scale(0.1 -0.1)">
       <use xlink:href="#DejaVuSans-32"/>
      </g>
     </g>
    </g>
    <g id="ytick_18">
     <g id="line2d_37">
      <g>
       <use xlink:href="#mede4fc7145" x="272.79399" y="217.78757" style="stroke: #000000; stroke-width: 0.8"/>
      </g>
     </g>
     <g id="text_34">
      <!-- 4 -->
      <g transform="translate(259.43149 221.586789) scale(0.1 -0.1)">
       <use xlink:href="#DejaVuSans-34"/>
      </g>
     </g>
    </g>
    <g id="ytick_19">
     <g id="line2d_38">
      <g>
       <use xlink:href="#mede4fc7145" x="272.79399" y="186.509548" style="stroke: #000000; stroke-width: 0.8"/>
      </g>
     </g>
     <g id="text_35">
      <!-- 6 -->
      <g transform="translate(259.43149 190.308767) scale(0.1 -0.1)">
       <use xlink:href="#DejaVuSans-36"/>
      </g>
     </g>
    </g>
    <g id="text_36">
     <!-- $\Delta B_v$ $/$ cm$^{-1}$ -->
     <g transform="translate(244.972115 275.965592) rotate(-90) scale(0.1 -0.1)">
      <defs>
       <path id="DejaVuSans-Oblique-42" d="M 1081 4666 
L 2694 4666 
Q 3350 4666 3675 4422 
Q 4000 4178 4000 3688 
Q 4000 3238 3720 2911 
Q 3441 2584 2988 2516 
Q 3375 2428 3569 2181 
Q 3763 1934 3763 1522 
Q 3763 819 3242 409 
Q 2722 0 1819 0 
L 172 0 
L 1081 4666 
z
M 1234 2228 
L 903 519 
L 1919 519 
Q 2491 519 2800 781 
Q 3109 1044 3109 1522 
Q 3109 1891 2904 2059 
Q 2700 2228 2247 2228 
L 1234 2228 
z
M 1606 4147 
L 1331 2741 
L 2272 2741 
Q 2775 2741 3058 2959 
Q 3341 3178 3341 3566 
Q 3341 3869 3150 4008 
Q 2959 4147 2541 4147 
L 1606 4147 
z
" transform="scale(0.015625)"/>
      </defs>
      <use xlink:href="#DejaVuSans-394" transform="translate(0 0.684375)"/>
      <use xlink:href="#DejaVuSans-Oblique-42" transform="translate(68.408203 0.684375)"/>
      <use xlink:href="#DejaVuSans-Oblique-76" transform="translate(137.011719 -15.721875) scale(0.7)"/>
      <use xlink:href="#DejaVuSans-20" transform="translate(181.171875 0.684375)"/>
      <use xlink:href="#DejaVuSans-2f" transform="translate(212.958984 0.684375)"/>
      <use xlink:href="#DejaVuSans-20" transform="translate(246.650391 0.684375)"/>
      <use xlink:href="#DejaVuSans-63" transform="translate(278.4375 0.684375)"/>
      <use xlink:href="#DejaVuSans-6d" transform="translate(333.417969 0.684375)"/>
      <use xlink:href="#DejaVuSans-2212" transform="translate(431.787109 38.965625) scale(0.7)"/>
      <use xlink:href="#DejaVuSans-31" transform="translate(490.439453 38.965625) scale(0.7)"/>
     </g>
    </g>
    <g id="text_37">
     <!-- 1e1 -->
     <g transform="translate(272.79399 183.509548) scale(0.1 -0.1)">
      <use xlink:href="#DejaVuSans-31"/>
      <use xlink:href="#DejaVuSans-65" x="63.623047"/>
      <use xlink:href="#DejaVuSans-2212" x="125.146484"/>
      <use xlink:href="#DejaVuSans-31" x="208.935547"/>
     </g>
    </g>
   </g>
   <g id="line2d_39">
    <path d="M 281.203343 273.45081 
L 288.515824 281.805257 
L 295.828305 288.877608 
L 303.140786 279.140819 
L 310.453267 283.554834 
L 317.765748 285.960111 
L 325.078229 274.299018 
L 332.39071 265.262038 
L 339.703191 288.856445 
L 347.015672 311.360737 
L 354.328153 266.097142 
L 361.640634 276.684894 
L 368.953116 291.036406 
L 376.265597 263.375129 
L 383.578078 265.5137 
L 390.890559 273.843363 
L 398.20304 230.237025 
L 405.515521 251.21512 
L 412.828002 240.810669 
L 427.452964 191.462328 
L 434.765445 273.211166 
L 435.460761 346.6 
" clip-path="url(#p5481a32168)" style="fill: none; stroke: #d62728; stroke-width: 1.5; stroke-linecap: square"/>
   </g>
   <g id="patch_14">
    <path d="M 272.79399 311.621635 
L 272.79399 186.509548 
" style="fill: none; stroke: #000000; stroke-width: 0.8; stroke-linejoin: miter; stroke-linecap: square"/>
   </g>
   <g id="patch_15">
    <path d="M 457.79976 311.621635 
L 457.79976 186.509548 
" style="fill: none; stroke: #000000; stroke-width: 0.8; stroke-linejoin: miter; stroke-linecap: square"/>
   </g>
   <g id="patch_16">
    <path d="M 272.79399 311.621635 
L 457.79976 311.621635 
" style="fill: none; stroke: #000000; stroke-width: 0.8; stroke-linejoin: miter; stroke-linecap: square"/>
   </g>
   <g id="patch_17">
    <path d="M 272.79399 186.509548 
L 457.79976 186.509548 
" style="fill: none; stroke: #000000; stroke-width: 0.8; stroke-linejoin: miter; stroke-linecap: square"/>
   </g>
  </g>
  <g id="text_38">
   <!-- CO $A^1\Pi$ $-$ Rydberg-Klein-Rees -->
   <g transform="translate(139.74 13.80024) scale(0.12 -0.12)">
    <defs>
     <path id="DejaVuSans-43" d="M 4122 4306 
L 4122 3641 
Q 3803 3938 3442 4084 
Q 3081 4231 2675 4231 
Q 1875 4231 1450 3742 
Q 1025 3253 1025 2328 
Q 1025 1406 1450 917 
Q 1875 428 2675 428 
Q 3081 428 3442 575 
Q 3803 722 4122 1019 
L 4122 359 
Q 3791 134 3420 21 
Q 3050 -91 2638 -91 
Q 1578 -91 968 557 
Q 359 1206 359 2328 
Q 359 3453 968 4101 
Q 1578 4750 2638 4750 
Q 3056 4750 3426 4639 
Q 3797 4528 4122 4306 
z
" transform="scale(0.015625)"/>
     <path id="DejaVuSans-4f" d="M 2522 4238 
Q 1834 4238 1429 3725 
Q 1025 3213 1025 2328 
Q 1025 1447 1429 934 
Q 1834 422 2522 422 
Q 3209 422 3611 934 
Q 4013 1447 4013 2328 
Q 4013 3213 3611 3725 
Q 3209 4238 2522 4238 
z
M 2522 4750 
Q 3503 4750 4090 4092 
Q 4678 3434 4678 2328 
Q 4678 1225 4090 567 
Q 3503 -91 2522 -91 
Q 1538 -91 948 565 
Q 359 1222 359 2328 
Q 359 3434 948 4092 
Q 1538 4750 2522 4750 
z
" transform="scale(0.015625)"/>
     <path id="DejaVuSans-Oblique-41" d="M 2356 4666 
L 3072 4666 
L 3938 0 
L 3278 0 
L 3084 1197 
L 984 1197 
L 325 0 
L -341 0 
L 2356 4666 
z
M 2584 4044 
L 1275 1722 
L 2988 1722 
L 2584 4044 
z
" transform="scale(0.015625)"/>
     <path id="DejaVuSans-3a0" d="M 4184 4666 
L 4184 0 
L 3553 0 
L 3553 4134 
L 1259 4134 
L 1259 0 
L 628 0 
L 628 4666 
L 4184 4666 
z
" transform="scale(0.015625)"/>
    </defs>
    <use xlink:href="#DejaVuSans-43" transform="translate(0 0.684375)"/>
    <use xlink:href="#DejaVuSans-4f" transform="translate(69.824219 0.684375)"/>
    <use xlink:href="#DejaVuSans-20" transform="translate(148.535156 0.684375)"/>
    <use xlink:href="#DejaVuSans-Oblique-41" transform="translate(180.322266 0.684375)"/>
    <use xlink:href="#DejaVuSans-31" transform="translate(255.74724 38.965625) scale(0.7)"/>
    <use xlink:href="#DejaVuSans-3a0" transform="translate(303.017747 0.684375)"/>
    <use xlink:href="#DejaVuSans-20" transform="translate(378.21306 0.684375)"/>
    <use xlink:href="#DejaVuSans-2212" transform="translate(410.000169 0.684375)"/>
    <use xlink:href="#DejaVuSans-20" transform="translate(493.789232 0.684375)"/>
    <use xlink:href="#DejaVuSans-52" transform="translate(525.576341 0.684375)"/>
    <use xlink:href="#DejaVuSans-79" transform="translate(595.058763 0.684375)"/>
    <use xlink:href="#DejaVuSans-64" transform="translate(654.238451 0.684375)"/>
    <use xlink:href="#DejaVuSans-62" transform="translate(717.715013 0.684375)"/>
    <use xlink:href="#DejaVuSans-65" transform="translate(781.191576 0.684375)"/>
    <use xlink:href="#DejaVuSans-72" transform="translate(842.715013 0.684375)"/>
    <use xlink:href="#DejaVuSans-67" transform="translate(883.828294 0.684375)"/>
    <use xlink:href="#DejaVuSans-2d" transform="translate(947.304857 0.684375)"/>
    <use xlink:href="#DejaVuSans-4b" transform="translate(983.388841 0.684375)"/>
    <use xlink:href="#DejaVuSans-6c" transform="translate(1048.965013 0.684375)"/>
    <use xlink:href="#DejaVuSans-65" transform="translate(1076.748216 0.684375)"/>
    <use xlink:href="#DejaVuSans-69" transform="translate(1138.271654 0.684375)"/>
    <use xlink:href="#DejaVuSans-6e" transform="translate(1166.054857 0.684375)"/>
    <use xlink:href="#DejaVuSans-2d" transform="translate(1229.433763 0.684375)"/>
    <use xlink:href="#DejaVuSans-52" transform="translate(1265.517747 0.684375)"/>
    <use xlink:href="#DejaVuSans-65" transform="translate(1335.000169 0.684375)"/>
    <use xlink:href="#DejaVuSans-65" transform="translate(1396.523607 0.684375)"/>
    <use xlink:href="#DejaVuSans-73" transform="translate(1458.047044 0.684375)"/>
   </g>
  </g>
 </g>
 <defs>
  <clipPath id="pc0ca43506f">
   <rect x="41.003365" y="32.919157" width="185.00577" height="278.702477"/>
  </clipPath>
  <clipPath id="p9f9a3b717d">
   <rect x="272.79399" y="32.919157" width="185.00577" height="125.112087"/>
  </clipPath>
  <clipPath id="p5481a32168">
   <rect x="272.79399" y="186.509548" width="185.00577" height="125.112087"/>
  </clipPath>
 </defs>
</svg>
