<?xml version="1.0" encoding="utf-8" standalone="no"?>
<!DOCTYPE svg PUBLIC "-//W3C//DTD SVG 1.1//EN"
  "http://www.w3.org/Graphics/SVG/1.1/DTD/svg11.dtd">
<svg xmlns:xlink="http://www.w3.org/1999/xlink" width="460.8pt" height="345.6pt" viewBox="0 0 460.8 345.6" xmlns="http://www.w3.org/2000/svg" version="1.1">
 <metadata>
  <rdf:RDF xmlns:dc="http://purl.org/dc/elements/1.1/" xmlns:cc="http://creativecommons.org/ns#" xmlns:rdf="http://www.w3.org/1999/02/22-rdf-syntax-ns#">
   <cc:Work>
    <dc:type rdf:resource="http://purl.org/dc/dcmitype/StillImage"/>
    <dc:date>2023-06-15T16:06:53.955986</dc:date>
    <dc:format>image/svg+xml</dc:format>
    <dc:creator>
     <cc:Agent>
      <dc:title>Matplotlib v3.7.0, https://matplotlib.org/</dc:title>
     </cc:Agent>
    </dc:creator>
   </cc:Work>
  </rdf:RDF>
 </metadata>
 <defs>
  <style type="text/css">*{stroke-linejoin: round; stroke-linecap: butt}</style>
 </defs>
 <g id="figure_1">
  <g id="patch_1">
   <path d="M 0 345.6 
L 460.8 345.6 
L 460.8 0 
L 0 0 
z
" style="fill: #ffffff"/>
  </g>
  <g id="axes_1">
   <g id="patch_2">
    <path d="M 31.46274 311.621635 
L 217.048979 311.621635 
L 217.048979 32.919157 
L 31.46274 32.919157 
z
" style="fill: #ffffff"/>
   </g>
   <g id="matplotlib.axis_1">
    <g id="xtick_1">
     <g id="line2d_1">
      <defs>
       <path id="m1663471ba3" d="M 0 0 
L 0 3.5 
" style="stroke: #000000; stroke-width: 0.8"/>
      </defs>
      <g>
       <use xlink:href="#m1663471ba3" x="48.334216" y="311.621635" style="stroke: #000000; stroke-width: 0.8"/>
      </g>
     </g>
     <g id="text_1">
      <!-- 1 -->
      <g transform="translate(45.152966 326.220072) scale(0.1 -0.1)">
       <defs>
        <path id="DejaVuSans-31" d="M 794 531 
L 1825 531 
L 1825 4091 
L 703 3866 
L 703 4441 
L 1819 4666 
L 2450 4666 
L 2450 531 
L 3481 531 
L 3481 0 
L 794 0 
L 794 531 
z
" transform="scale(0.015625)"/>
       </defs>
       <use xlink:href="#DejaVuSans-31"/>
      </g>
     </g>
    </g>
    <g id="xtick_2">
     <g id="line2d_2">
      <g>
       <use xlink:href="#m1663471ba3" x="104.57247" y="311.621635" style="stroke: #000000; stroke-width: 0.8"/>
      </g>
     </g>
     <g id="text_2">
      <!-- 2 -->
      <g transform="translate(101.39122 326.220072) scale(0.1 -0.1)">
       <defs>
        <path id="DejaVuSans-32" d="M 1228 531 
L 3431 531 
L 3431 0 
L 469 0 
L 469 531 
Q 828 903 1448 1529 
Q 2069 2156 2228 2338 
Q 2531 2678 2651 2914 
Q 2772 3150 2772 3378 
Q 2772 3750 2511 3984 
Q 2250 4219 1831 4219 
Q 1534 4219 1204 4116 
Q 875 4013 500 3803 
L 500 4441 
Q 881 4594 1212 4672 
Q 1544 4750 1819 4750 
Q 2544 4750 2975 4387 
Q 3406 4025 3406 3419 
Q 3406 3131 3298 2873 
Q 3191 2616 2906 2266 
Q 2828 2175 2409 1742 
Q 1991 1309 1228 531 
z
" transform="scale(0.015625)"/>
       </defs>
       <use xlink:href="#DejaVuSans-32"/>
      </g>
     </g>
    </g>
    <g id="xtick_3">
     <g id="line2d_3">
      <g>
       <use xlink:href="#m1663471ba3" x="160.810725" y="311.621635" style="stroke: #000000; stroke-width: 0.8"/>
      </g>
     </g>
     <g id="text_3">
      <!-- 3 -->
      <g transform="translate(157.629475 326.220072) scale(0.1 -0.1)">
       <defs>
        <path id="DejaVuSans-33" d="M 2597 2516 
Q 3050 2419 3304 2112 
Q 3559 1806 3559 1356 
Q 3559 666 3084 287 
Q 2609 -91 1734 -91 
Q 1441 -91 1130 -33 
Q 819 25 488 141 
L 488 750 
Q 750 597 1062 519 
Q 1375 441 1716 441 
Q 2309 441 2620 675 
Q 2931 909 2931 1356 
Q 2931 1769 2642 2001 
Q 2353 2234 1838 2234 
L 1294 2234 
L 1294 2753 
L 1863 2753 
Q 2328 2753 2575 2939 
Q 2822 3125 2822 3475 
Q 2822 3834 2567 4026 
Q 2313 4219 1838 4219 
Q 1578 4219 1281 4162 
Q 984 4106 628 3988 
L 628 4550 
Q 988 4650 1302 4700 
Q 1616 4750 1894 4750 
Q 2613 4750 3031 4423 
Q 3450 4097 3450 3541 
Q 3450 3153 3228 2886 
Q 3006 2619 2597 2516 
z
" transform="scale(0.015625)"/>
       </defs>
       <use xlink:href="#DejaVuSans-33"/>
      </g>
     </g>
    </g>
    <g id="xtick_4">
     <g id="line2d_4">
      <g>
       <use xlink:href="#m1663471ba3" x="217.048979" y="311.621635" style="stroke: #000000; stroke-width: 0.8"/>
      </g>
     </g>
     <g id="text_4">
      <!-- 4 -->
      <g transform="translate(213.867729 326.220072) scale(0.1 -0.1)">
       <defs>
        <path id="DejaVuSans-34" d="M 2419 4116 
L 825 1625 
L 2419 1625 
L 2419 4116 
z
M 2253 4666 
L 3047 4666 
L 3047 1625 
L 3713 1625 
L 3713 1100 
L 3047 1100 
L 3047 0 
L 2419 0 
L 2419 1100 
L 313 1100 
L 313 1709 
L 2253 4666 
z
" transform="scale(0.015625)"/>
       </defs>
       <use xlink:href="#DejaVuSans-34"/>
      </g>
     </g>
    </g>
    <g id="text_5">
     <!-- internuclear distance $/$ $\AA$ -->
     <g transform="translate(62.855859 340.520072) scale(0.1 -0.1)">
      <defs>
       <path id="DejaVuSans-69" d="M 603 3500 
L 1178 3500 
L 1178 0 
L 603 0 
L 603 3500 
z
M 603 4863 
L 1178 4863 
L 1178 4134 
L 603 4134 
L 603 4863 
z
" transform="scale(0.015625)"/>
       <path id="DejaVuSans-6e" d="M 3513 2113 
L 3513 0 
L 2938 0 
L 2938 2094 
Q 2938 2591 2744 2837 
Q 2550 3084 2163 3084 
Q 1697 3084 1428 2787 
Q 1159 2491 1159 1978 
L 1159 0 
L 581 0 
L 581 3500 
L 1159 3500 
L 1159 2956 
Q 1366 3272 1645 3428 
Q 1925 3584 2291 3584 
Q 2894 3584 3203 3211 
Q 3513 2838 3513 2113 
z
" transform="scale(0.015625)"/>
       <path id="DejaVuSans-74" d="M 1172 4494 
L 1172 3500 
L 2356 3500 
L 2356 3053 
L 1172 3053 
L 1172 1153 
Q 1172 725 1289 603 
Q 1406 481 1766 481 
L 2356 481 
L 2356 0 
L 1766 0 
Q 1100 0 847 248 
Q 594 497 594 1153 
L 594 3053 
L 172 3053 
L 172 3500 
L 594 3500 
L 594 4494 
L 1172 4494 
z
" transform="scale(0.015625)"/>
       <path id="DejaVuSans-65" d="M 3597 1894 
L 3597 1613 
L 953 1613 
Q 991 1019 1311 708 
Q 1631 397 2203 397 
Q 2534 397 2845 478 
Q 3156 559 3463 722 
L 3463 178 
Q 3153 47 2828 -22 
Q 2503 -91 2169 -91 
Q 1331 -91 842 396 
Q 353 884 353 1716 
Q 353 2575 817 3079 
Q 1281 3584 2069 3584 
Q 2775 3584 3186 3129 
Q 3597 2675 3597 1894 
z
M 3022 2063 
Q 3016 2534 2758 2815 
Q 2500 3097 2075 3097 
Q 1594 3097 1305 2825 
Q 1016 2553 972 2059 
L 3022 2063 
z
" transform="scale(0.015625)"/>
       <path id="DejaVuSans-72" d="M 2631 2963 
Q 2534 3019 2420 3045 
Q 2306 3072 2169 3072 
Q 1681 3072 1420 2755 
Q 1159 2438 1159 1844 
L 1159 0 
L 581 0 
L 581 3500 
L 1159 3500 
L 1159 2956 
Q 1341 3275 1631 3429 
Q 1922 3584 2338 3584 
Q 2397 3584 2469 3576 
Q 2541 3569 2628 3553 
L 2631 2963 
z
" transform="scale(0.015625)"/>
       <path id="DejaVuSans-75" d="M 544 1381 
L 544 3500 
L 1119 3500 
L 1119 1403 
Q 1119 906 1312 657 
Q 1506 409 1894 409 
Q 2359 409 2629 706 
Q 2900 1003 2900 1516 
L 2900 3500 
L 3475 3500 
L 3475 0 
L 2900 0 
L 2900 538 
Q 2691 219 2414 64 
Q 2138 -91 1772 -91 
Q 1169 -91 856 284 
Q 544 659 544 1381 
z
M 1991 3584 
L 1991 3584 
z
" transform="scale(0.015625)"/>
       <path id="DejaVuSans-63" d="M 3122 3366 
L 3122 2828 
Q 2878 2963 2633 3030 
Q 2388 3097 2138 3097 
Q 1578 3097 1268 2742 
Q 959 2388 959 1747 
Q 959 1106 1268 751 
Q 1578 397 2138 397 
Q 2388 397 2633 464 
Q 2878 531 3122 666 
L 3122 134 
Q 2881 22 2623 -34 
Q 2366 -91 2075 -91 
Q 1284 -91 818 406 
Q 353 903 353 1747 
Q 353 2603 823 3093 
Q 1294 3584 2113 3584 
Q 2378 3584 2631 3529 
Q 2884 3475 3122 3366 
z
" transform="scale(0.015625)"/>
       <path id="DejaVuSans-6c" d="M 603 4863 
L 1178 4863 
L 1178 0 
L 603 0 
L 603 4863 
z
" transform="scale(0.015625)"/>
       <path id="DejaVuSans-61" d="M 2194 1759 
Q 1497 1759 1228 1600 
Q 959 1441 959 1056 
Q 959 750 1161 570 
Q 1363 391 1709 391 
Q 2188 391 2477 730 
Q 2766 1069 2766 1631 
L 2766 1759 
L 2194 1759 
z
M 3341 1997 
L 3341 0 
L 2766 0 
L 2766 531 
Q 2569 213 2275 61 
Q 1981 -91 1556 -91 
Q 1019 -91 701 211 
Q 384 513 384 1019 
Q 384 1609 779 1909 
Q 1175 2209 1959 2209 
L 2766 2209 
L 2766 2266 
Q 2766 2663 2505 2880 
Q 2244 3097 1772 3097 
Q 1472 3097 1187 3025 
Q 903 2953 641 2809 
L 641 3341 
Q 956 3463 1253 3523 
Q 1550 3584 1831 3584 
Q 2591 3584 2966 3190 
Q 3341 2797 3341 1997 
z
" transform="scale(0.015625)"/>
       <path id="DejaVuSans-20" transform="scale(0.015625)"/>
       <path id="DejaVuSans-64" d="M 2906 2969 
L 2906 4863 
L 3481 4863 
L 3481 0 
L 2906 0 
L 2906 525 
Q 2725 213 2448 61 
Q 2172 -91 1784 -91 
Q 1150 -91 751 415 
Q 353 922 353 1747 
Q 353 2572 751 3078 
Q 1150 3584 1784 3584 
Q 2172 3584 2448 3432 
Q 2725 3281 2906 2969 
z
M 947 1747 
Q 947 1113 1208 752 
Q 1469 391 1925 391 
Q 2381 391 2643 752 
Q 2906 1113 2906 1747 
Q 2906 2381 2643 2742 
Q 2381 3103 1925 3103 
Q 1469 3103 1208 2742 
Q 947 2381 947 1747 
z
" transform="scale(0.015625)"/>
       <path id="DejaVuSans-73" d="M 2834 3397 
L 2834 2853 
Q 2591 2978 2328 3040 
Q 2066 3103 1784 3103 
Q 1356 3103 1142 2972 
Q 928 2841 928 2578 
Q 928 2378 1081 2264 
Q 1234 2150 1697 2047 
L 1894 2003 
Q 2506 1872 2764 1633 
Q 3022 1394 3022 966 
Q 3022 478 2636 193 
Q 2250 -91 1575 -91 
Q 1294 -91 989 -36 
Q 684 19 347 128 
L 347 722 
Q 666 556 975 473 
Q 1284 391 1588 391 
Q 1994 391 2212 530 
Q 2431 669 2431 922 
Q 2431 1156 2273 1281 
Q 2116 1406 1581 1522 
L 1381 1569 
Q 847 1681 609 1914 
Q 372 2147 372 2553 
Q 372 3047 722 3315 
Q 1072 3584 1716 3584 
Q 2034 3584 2315 3537 
Q 2597 3491 2834 3397 
z
" transform="scale(0.015625)"/>
       <path id="DejaVuSans-2f" d="M 1625 4666 
L 2156 4666 
L 531 -594 
L 0 -594 
L 1625 4666 
z
" transform="scale(0.015625)"/>
       <path id="DejaVuSans-Oblique-c5" d="M 3188 5081 
Q 3188 5278 3048 5417 
Q 2909 5556 2713 5556 
Q 2513 5556 2377 5420 
Q 2241 5284 2241 5081 
Q 2241 4884 2377 4746 
Q 2513 4609 2713 4609 
Q 2909 4609 3048 4746 
Q 3188 4884 3188 5081 
z
M 2203 4397 
Q 2034 4513 1945 4689 
Q 1856 4866 1856 5081 
Q 1856 5438 2106 5689 
Q 2356 5941 2713 5941 
Q 3069 5941 3320 5689 
Q 3572 5438 3572 5081 
Q 3572 4834 3458 4643 
Q 3344 4453 3128 4341 
L 3938 0 
L 3278 0 
L 3084 1197 
L 984 1197 
L 325 0 
L -341 0 
L 2203 4397 
z
M 2584 4044 
L 1275 1722 
L 2988 1722 
L 2584 4044 
z
" transform="scale(0.015625)"/>
      </defs>
      <use xlink:href="#DejaVuSans-69" transform="translate(0 0.171875)"/>
      <use xlink:href="#DejaVuSans-6e" transform="translate(27.783203 0.171875)"/>
      <use xlink:href="#DejaVuSans-74" transform="translate(91.162109 0.171875)"/>
      <use xlink:href="#DejaVuSans-65" transform="translate(130.371094 0.171875)"/>
      <use xlink:href="#DejaVuSans-72" transform="translate(191.894531 0.171875)"/>
      <use xlink:href="#DejaVuSans-6e" transform="translate(233.007812 0.171875)"/>
      <use xlink:href="#DejaVuSans-75" transform="translate(296.386719 0.171875)"/>
      <use xlink:href="#DejaVuSans-63" transform="translate(359.765625 0.171875)"/>
      <use xlink:href="#DejaVuSans-6c" transform="translate(414.746094 0.171875)"/>
      <use xlink:href="#DejaVuSans-65" transform="translate(442.529297 0.171875)"/>
      <use xlink:href="#DejaVuSans-61" transform="translate(504.052734 0.171875)"/>
      <use xlink:href="#DejaVuSans-72" transform="translate(565.332031 0.171875)"/>
      <use xlink:href="#DejaVuSans-20" transform="translate(606.445312 0.171875)"/>
      <use xlink:href="#DejaVuSans-64" transform="translate(638.232422 0.171875)"/>
      <use xlink:href="#DejaVuSans-69" transform="translate(701.708984 0.171875)"/>
      <use xlink:href="#DejaVuSans-73" transform="translate(729.492188 0.171875)"/>
      <use xlink:href="#DejaVuSans-74" transform="translate(781.591797 0.171875)"/>
      <use xlink:href="#DejaVuSans-61" transform="translate(820.800781 0.171875)"/>
      <use xlink:href="#DejaVuSans-6e" transform="translate(882.080078 0.171875)"/>
      <use xlink:href="#DejaVuSans-63" transform="translate(945.458984 0.171875)"/>
      <use xlink:href="#DejaVuSans-65" transform="translate(1000.439453 0.171875)"/>
      <use xlink:href="#DejaVuSans-20" transform="translate(1061.962891 0.171875)"/>
      <use xlink:href="#DejaVuSans-2f" transform="translate(1093.75 0.171875)"/>
      <use xlink:href="#DejaVuSans-20" transform="translate(1127.441406 0.171875)"/>
      <use xlink:href="#DejaVuSans-Oblique-c5" transform="translate(1159.228516 0.171875)"/>
     </g>
    </g>
   </g>
   <g id="matplotlib.axis_2">
    <g id="ytick_1">
     <g id="line2d_5">
      <defs>
       <path id="m4166366bb1" d="M 0 0 
L -3.5 0 
" style="stroke: #000000; stroke-width: 0.8"/>
      </defs>
      <g>
       <use xlink:href="#m4166366bb1" x="31.46274" y="308.742595" style="stroke: #000000; stroke-width: 0.8"/>
      </g>
     </g>
     <g id="text_6">
      <!-- 0 -->
      <g transform="translate(18.10024 312.541814) scale(0.1 -0.1)">
       <defs>
        <path id="DejaVuSans-30" d="M 2034 4250 
Q 1547 4250 1301 3770 
Q 1056 3291 1056 2328 
Q 1056 1369 1301 889 
Q 1547 409 2034 409 
Q 2525 409 2770 889 
Q 3016 1369 3016 2328 
Q 3016 3291 2770 3770 
Q 2525 4250 2034 4250 
z
M 2034 4750 
Q 2819 4750 3233 4129 
Q 3647 3509 3647 2328 
Q 3647 1150 3233 529 
Q 2819 -91 2034 -91 
Q 1250 -91 836 529 
Q 422 1150 422 2328 
Q 422 3509 836 4129 
Q 1250 4750 2034 4750 
z
" transform="scale(0.015625)"/>
       </defs>
       <use xlink:href="#DejaVuSans-30"/>
      </g>
     </g>
    </g>
    <g id="ytick_2">
     <g id="line2d_6">
      <g>
       <use xlink:href="#m4166366bb1" x="31.46274" y="251.083579" style="stroke: #000000; stroke-width: 0.8"/>
      </g>
     </g>
     <g id="text_7">
      <!-- 2 -->
      <g transform="translate(18.10024 254.882797) scale(0.1 -0.1)">
       <use xlink:href="#DejaVuSans-32"/>
      </g>
     </g>
    </g>
    <g id="ytick_3">
     <g id="line2d_7">
      <g>
       <use xlink:href="#m4166366bb1" x="31.46274" y="193.424562" style="stroke: #000000; stroke-width: 0.8"/>
      </g>
     </g>
     <g id="text_8">
      <!-- 4 -->
      <g transform="translate(18.10024 197.223781) scale(0.1 -0.1)">
       <use xlink:href="#DejaVuSans-34"/>
      </g>
     </g>
    </g>
    <g id="ytick_4">
     <g id="line2d_8">
      <g>
       <use xlink:href="#m4166366bb1" x="31.46274" y="135.765545" style="stroke: #000000; stroke-width: 0.8"/>
      </g>
     </g>
     <g id="text_9">
      <!-- 6 -->
      <g transform="translate(18.10024 139.564764) scale(0.1 -0.1)">
       <defs>
        <path id="DejaVuSans-36" d="M 2113 2584 
Q 1688 2584 1439 2293 
Q 1191 2003 1191 1497 
Q 1191 994 1439 701 
Q 1688 409 2113 409 
Q 2538 409 2786 701 
Q 3034 994 3034 1497 
Q 3034 2003 2786 2293 
Q 2538 2584 2113 2584 
z
M 3366 4563 
L 3366 3988 
Q 3128 4100 2886 4159 
Q 2644 4219 2406 4219 
Q 1781 4219 1451 3797 
Q 1122 3375 1075 2522 
Q 1259 2794 1537 2939 
Q 1816 3084 2150 3084 
Q 2853 3084 3261 2657 
Q 3669 2231 3669 1497 
Q 3669 778 3244 343 
Q 2819 -91 2113 -91 
Q 1303 -91 875 529 
Q 447 1150 447 2328 
Q 447 3434 972 4092 
Q 1497 4750 2381 4750 
Q 2619 4750 2861 4703 
Q 3103 4656 3366 4563 
z
" transform="scale(0.015625)"/>
       </defs>
       <use xlink:href="#DejaVuSans-36"/>
      </g>
     </g>
    </g>
    <g id="ytick_5">
     <g id="line2d_9">
      <g>
       <use xlink:href="#m4166366bb1" x="31.46274" y="78.106529" style="stroke: #000000; stroke-width: 0.8"/>
      </g>
     </g>
     <g id="text_10">
      <!-- 8 -->
      <g transform="translate(18.10024 81.905748) scale(0.1 -0.1)">
       <defs>
        <path id="DejaVuSans-38" d="M 2034 2216 
Q 1584 2216 1326 1975 
Q 1069 1734 1069 1313 
Q 1069 891 1326 650 
Q 1584 409 2034 409 
Q 2484 409 2743 651 
Q 3003 894 3003 1313 
Q 3003 1734 2745 1975 
Q 2488 2216 2034 2216 
z
M 1403 2484 
Q 997 2584 770 2862 
Q 544 3141 544 3541 
Q 544 4100 942 4425 
Q 1341 4750 2034 4750 
Q 2731 4750 3128 4425 
Q 3525 4100 3525 3541 
Q 3525 3141 3298 2862 
Q 3072 2584 2669 2484 
Q 3125 2378 3379 2068 
Q 3634 1759 3634 1313 
Q 3634 634 3220 271 
Q 2806 -91 2034 -91 
Q 1263 -91 848 271 
Q 434 634 434 1313 
Q 434 1759 690 2068 
Q 947 2378 1403 2484 
z
M 1172 3481 
Q 1172 3119 1398 2916 
Q 1625 2713 2034 2713 
Q 2441 2713 2670 2916 
Q 2900 3119 2900 3481 
Q 2900 3844 2670 4047 
Q 2441 4250 2034 4250 
Q 1625 4250 1398 4047 
Q 1172 3844 1172 3481 
z
" transform="scale(0.015625)"/>
       </defs>
       <use xlink:href="#DejaVuSans-38"/>
      </g>
     </g>
    </g>
    <g id="text_11">
     <!-- potential energy (rel. to $X$-min.) $/$ cm$^{-1}$ -->
     <g transform="translate(12.00024 269.420396) rotate(-90) scale(0.1 -0.1)">
      <defs>
       <path id="DejaVuSans-70" d="M 1159 525 
L 1159 -1331 
L 581 -1331 
L 581 3500 
L 1159 3500 
L 1159 2969 
Q 1341 3281 1617 3432 
Q 1894 3584 2278 3584 
Q 2916 3584 3314 3078 
Q 3713 2572 3713 1747 
Q 3713 922 3314 415 
Q 2916 -91 2278 -91 
Q 1894 -91 1617 61 
Q 1341 213 1159 525 
z
M 3116 1747 
Q 3116 2381 2855 2742 
Q 2594 3103 2138 3103 
Q 1681 3103 1420 2742 
Q 1159 2381 1159 1747 
Q 1159 1113 1420 752 
Q 1681 391 2138 391 
Q 2594 391 2855 752 
Q 3116 1113 3116 1747 
z
" transform="scale(0.015625)"/>
       <path id="DejaVuSans-6f" d="M 1959 3097 
Q 1497 3097 1228 2736 
Q 959 2375 959 1747 
Q 959 1119 1226 758 
Q 1494 397 1959 397 
Q 2419 397 2687 759 
Q 2956 1122 2956 1747 
Q 2956 2369 2687 2733 
Q 2419 3097 1959 3097 
z
M 1959 3584 
Q 2709 3584 3137 3096 
Q 3566 2609 3566 1747 
Q 3566 888 3137 398 
Q 2709 -91 1959 -91 
Q 1206 -91 779 398 
Q 353 888 353 1747 
Q 353 2609 779 3096 
Q 1206 3584 1959 3584 
z
" transform="scale(0.015625)"/>
       <path id="DejaVuSans-67" d="M 2906 1791 
Q 2906 2416 2648 2759 
Q 2391 3103 1925 3103 
Q 1463 3103 1205 2759 
Q 947 2416 947 1791 
Q 947 1169 1205 825 
Q 1463 481 1925 481 
Q 2391 481 2648 825 
Q 2906 1169 2906 1791 
z
M 3481 434 
Q 3481 -459 3084 -895 
Q 2688 -1331 1869 -1331 
Q 1566 -1331 1297 -1286 
Q 1028 -1241 775 -1147 
L 775 -588 
Q 1028 -725 1275 -790 
Q 1522 -856 1778 -856 
Q 2344 -856 2625 -561 
Q 2906 -266 2906 331 
L 2906 616 
Q 2728 306 2450 153 
Q 2172 0 1784 0 
Q 1141 0 747 490 
Q 353 981 353 1791 
Q 353 2603 747 3093 
Q 1141 3584 1784 3584 
Q 2172 3584 2450 3431 
Q 2728 3278 2906 2969 
L 2906 3500 
L 3481 3500 
L 3481 434 
z
" transform="scale(0.015625)"/>
       <path id="DejaVuSans-79" d="M 2059 -325 
Q 1816 -950 1584 -1140 
Q 1353 -1331 966 -1331 
L 506 -1331 
L 506 -850 
L 844 -850 
Q 1081 -850 1212 -737 
Q 1344 -625 1503 -206 
L 1606 56 
L 191 3500 
L 800 3500 
L 1894 763 
L 2988 3500 
L 3597 3500 
L 2059 -325 
z
" transform="scale(0.015625)"/>
       <path id="DejaVuSans-28" d="M 1984 4856 
Q 1566 4138 1362 3434 
Q 1159 2731 1159 2009 
Q 1159 1288 1364 580 
Q 1569 -128 1984 -844 
L 1484 -844 
Q 1016 -109 783 600 
Q 550 1309 550 2009 
Q 550 2706 781 3412 
Q 1013 4119 1484 4856 
L 1984 4856 
z
" transform="scale(0.015625)"/>
       <path id="DejaVuSans-2e" d="M 684 794 
L 1344 794 
L 1344 0 
L 684 0 
L 684 794 
z
" transform="scale(0.015625)"/>
       <path id="DejaVuSans-Oblique-58" d="M 878 4666 
L 1516 4666 
L 2316 2981 
L 3763 4666 
L 4500 4666 
L 2578 2438 
L 3738 0 
L 3103 0 
L 2163 1966 
L 459 0 
L -275 0 
L 1906 2509 
L 878 4666 
z
" transform="scale(0.015625)"/>
       <path id="DejaVuSans-2d" d="M 313 2009 
L 1997 2009 
L 1997 1497 
L 313 1497 
L 313 2009 
z
" transform="scale(0.015625)"/>
       <path id="DejaVuSans-6d" d="M 3328 2828 
Q 3544 3216 3844 3400 
Q 4144 3584 4550 3584 
Q 5097 3584 5394 3201 
Q 5691 2819 5691 2113 
L 5691 0 
L 5113 0 
L 5113 2094 
Q 5113 2597 4934 2840 
Q 4756 3084 4391 3084 
Q 3944 3084 3684 2787 
Q 3425 2491 3425 1978 
L 3425 0 
L 2847 0 
L 2847 2094 
Q 2847 2600 2669 2842 
Q 2491 3084 2119 3084 
Q 1678 3084 1418 2786 
Q 1159 2488 1159 1978 
L 1159 0 
L 581 0 
L 581 3500 
L 1159 3500 
L 1159 2956 
Q 1356 3278 1631 3431 
Q 1906 3584 2284 3584 
Q 2666 3584 2933 3390 
Q 3200 3197 3328 2828 
z
" transform="scale(0.015625)"/>
       <path id="DejaVuSans-29" d="M 513 4856 
L 1013 4856 
Q 1481 4119 1714 3412 
Q 1947 2706 1947 2009 
Q 1947 1309 1714 600 
Q 1481 -109 1013 -844 
L 513 -844 
Q 928 -128 1133 580 
Q 1338 1288 1338 2009 
Q 1338 2731 1133 3434 
Q 928 4138 513 4856 
z
" transform="scale(0.015625)"/>
       <path id="DejaVuSans-2212" d="M 678 2272 
L 4684 2272 
L 4684 1741 
L 678 1741 
L 678 2272 
z
" transform="scale(0.015625)"/>
      </defs>
      <use xlink:href="#DejaVuSans-70" transform="translate(0 0.684375)"/>
      <use xlink:href="#DejaVuSans-6f" transform="translate(63.476562 0.684375)"/>
      <use xlink:href="#DejaVuSans-74" transform="translate(124.658203 0.684375)"/>
      <use xlink:href="#DejaVuSans-65" transform="translate(163.867188 0.684375)"/>
      <use xlink:href="#DejaVuSans-6e" transform="translate(225.390625 0.684375)"/>
      <use xlink:href="#DejaVuSans-74" transform="translate(288.769531 0.684375)"/>
      <use xlink:href="#DejaVuSans-69" transform="translate(327.978516 0.684375)"/>
      <use xlink:href="#DejaVuSans-61" transform="translate(355.761719 0.684375)"/>
      <use xlink:href="#DejaVuSans-6c" transform="translate(417.041016 0.684375)"/>
      <use xlink:href="#DejaVuSans-20" transform="translate(444.824219 0.684375)"/>
      <use xlink:href="#DejaVuSans-65" transform="translate(476.611328 0.684375)"/>
      <use xlink:href="#DejaVuSans-6e" transform="translate(538.134766 0.684375)"/>
      <use xlink:href="#DejaVuSans-65" transform="translate(601.513672 0.684375)"/>
      <use xlink:href="#DejaVuSans-72" transform="translate(663.037109 0.684375)"/>
      <use xlink:href="#DejaVuSans-67" transform="translate(704.150391 0.684375)"/>
      <use xlink:href="#DejaVuSans-79" transform="translate(767.626953 0.684375)"/>
      <use xlink:href="#DejaVuSans-20" transform="translate(826.806641 0.684375)"/>
      <use xlink:href="#DejaVuSans-28" transform="translate(858.59375 0.684375)"/>
      <use xlink:href="#DejaVuSans-72" transform="translate(897.607422 0.684375)"/>
      <use xlink:href="#DejaVuSans-65" transform="translate(938.720703 0.684375)"/>
      <use xlink:href="#DejaVuSans-6c" transform="translate(1000.244141 0.684375)"/>
      <use xlink:href="#DejaVuSans-2e" transform="translate(1028.027344 0.684375)"/>
      <use xlink:href="#DejaVuSans-20" transform="translate(1059.814453 0.684375)"/>
      <use xlink:href="#DejaVuSans-74" transform="translate(1091.601562 0.684375)"/>
      <use xlink:href="#DejaVuSans-6f" transform="translate(1130.810547 0.684375)"/>
      <use xlink:href="#DejaVuSans-20" transform="translate(1191.992188 0.684375)"/>
      <use xlink:href="#DejaVuSans-Oblique-58" transform="translate(1223.779297 0.684375)"/>
      <use xlink:href="#DejaVuSans-2d" transform="translate(1292.285156 0.684375)"/>
      <use xlink:href="#DejaVuSans-6d" transform="translate(1326.619141 0.684375)"/>
      <use xlink:href="#DejaVuSans-69" transform="translate(1424.03125 0.684375)"/>
      <use xlink:href="#DejaVuSans-6e" transform="translate(1451.814453 0.684375)"/>
      <use xlink:href="#DejaVuSans-2e" transform="translate(1515.193359 0.684375)"/>
      <use xlink:href="#DejaVuSans-29" transform="translate(1546.980469 0.684375)"/>
      <use xlink:href="#DejaVuSans-20" transform="translate(1585.994141 0.684375)"/>
      <use xlink:href="#DejaVuSans-2f" transform="translate(1617.78125 0.684375)"/>
      <use xlink:href="#DejaVuSans-20" transform="translate(1651.472656 0.684375)"/>
      <use xlink:href="#DejaVuSans-63" transform="translate(1683.259766 0.684375)"/>
      <use xlink:href="#DejaVuSans-6d" transform="translate(1738.240234 0.684375)"/>
      <use xlink:href="#DejaVuSans-2212" transform="translate(1836.609375 38.965625) scale(0.7)"/>
      <use xlink:href="#DejaVuSans-31" transform="translate(1895.261719 38.965625) scale(0.7)"/>
     </g>
    </g>
    <g id="text_12">
     <!-- 1e4 -->
     <g transform="translate(31.46274 29.919157) scale(0.1 -0.1)">
      <use xlink:href="#DejaVuSans-31"/>
      <use xlink:href="#DejaVuSans-65" x="63.623047"/>
      <use xlink:href="#DejaVuSans-34" x="125.146484"/>
     </g>
    </g>
   </g>
   <g id="line2d_10">
    <path d="M 37.922886 -1 
L 39.054904 52.452155 
L 40.460861 108.809503 
L 41.866817 155.547207 
L 43.272773 193.740717 
L 44.397538 218.903391 
L 45.522304 239.919349 
L 46.647069 257.295902 
L 47.771834 271.475281 
L 48.896599 282.845692 
L 50.021364 291.749392 
L 50.864938 296.991854 
L 51.708512 301.132542 
L 52.552085 304.276291 
L 53.395659 306.519032 
L 53.958042 307.557282 
L 54.520424 308.258389 
L 55.082807 308.64509 
L 55.645189 308.738684 
L 56.207572 308.559609 
L 56.769954 308.126603 
L 57.332337 307.457836 
L 58.175911 306.049195 
L 59.019485 304.200713 
L 60.14425 301.135038 
L 61.550206 296.480465 
L 63.237354 289.918637 
L 65.205693 281.239247 
L 67.736414 268.967221 
L 71.673092 248.560854 
L 79.546447 207.560723 
L 83.483125 188.411317 
L 86.85742 173.081927 
L 89.950524 159.994314 
L 93.043628 147.857873 
L 96.136732 136.673074 
L 98.948645 127.316345 
L 101.760558 118.703142 
L 104.291279 111.572109 
L 106.540809 106.660632 
L 109.071531 101.682271 
L 111.602252 97.214461 
L 114.132974 93.195642 
L 116.663695 89.57274 
L 119.475608 85.956029 
L 122.28752 82.717373 
L 125.099433 79.810326 
L 128.192537 76.948104 
L 131.285641 74.393423 
L 134.659936 71.91179 
L 138.034232 69.707215 
L 141.689718 67.589608 
L 145.626396 65.58059 
L 149.844265 63.695486 
L 154.343325 61.943941 
L 159.123577 60.330676 
L 164.18502 58.856318 
L 169.808845 57.453269 
L 175.995053 56.145784 
L 182.743644 54.949102 
L 190.335808 53.833103 
L 198.771546 52.819577 
L 208.332049 51.895021 
L 217.33017 51.193344 
L 217.33017 51.193344 
" clip-path="url(#p7ddb40ef0d)" style="fill: none; stroke: #1f77b4; stroke-width: 1.5; stroke-linecap: square"/>
   </g>
   <g id="line2d_11">
    <defs>
     <path id="mf66a481e61" d="M 0 2 
C 0.530406 2 1.03916 1.789267 1.414214 1.414214 
C 1.789267 1.03916 2 0.530406 2 0 
C 2 -0.530406 1.789267 -1.03916 1.414214 -1.414214 
C 1.03916 -1.789267 0.530406 -2 0 -2 
C -0.530406 -2 -1.03916 -1.789267 -1.414214 -1.414214 
C -1.789267 -1.03916 -2 -0.530406 -2 0 
C -2 0.530406 -1.789267 1.03916 -1.414214 1.414214 
C -1.03916 1.789267 -0.530406 2 0 2 
z
" style="stroke: #ff7f0e"/>
    </defs>
    <g clip-path="url(#p7ddb40ef0d)">
     <use xlink:href="#mf66a481e61" x="40.570121" y="112.490551" style="fill: #ffffff; stroke: #ff7f0e"/>
     <use xlink:href="#mf66a481e61" x="40.661814" y="115.792582" style="fill: #ffffff; stroke: #ff7f0e"/>
     <use xlink:href="#mf66a481e61" x="40.755553" y="119.156466" style="fill: #ffffff; stroke: #ff7f0e"/>
     <use xlink:href="#mf66a481e61" x="40.852814" y="122.587938" style="fill: #ffffff; stroke: #ff7f0e"/>
     <use xlink:href="#mf66a481e61" x="40.953478" y="126.088535" style="fill: #ffffff; stroke: #ff7f0e"/>
     <use xlink:href="#mf66a481e61" x="41.057761" y="129.658553" style="fill: #ffffff; stroke: #ff7f0e"/>
     <use xlink:href="#mf66a481e61" x="41.16578" y="133.29804" style="fill: #ffffff; stroke: #ff7f0e"/>
     <use xlink:href="#mf66a481e61" x="41.277689" y="137.007022" style="fill: #ffffff; stroke: #ff7f0e"/>
     <use xlink:href="#mf66a481e61" x="41.393649" y="140.785545" style="fill: #ffffff; stroke: #ff7f0e"/>
     <use xlink:href="#mf66a481e61" x="41.513834" y="144.633682" style="fill: #ffffff; stroke: #ff7f0e"/>
     <use xlink:href="#mf66a481e61" x="41.638438" y="148.551527" style="fill: #ffffff; stroke: #ff7f0e"/>
     <use xlink:href="#mf66a481e61" x="41.76767" y="152.539196" style="fill: #ffffff; stroke: #ff7f0e"/>
     <use xlink:href="#mf66a481e61" x="41.901759" y="156.596822" style="fill: #ffffff; stroke: #ff7f0e"/>
     <use xlink:href="#mf66a481e61" x="42.040954" y="160.724554" style="fill: #ffffff; stroke: #ff7f0e"/>
     <use xlink:href="#mf66a481e61" x="42.185531" y="164.922557" style="fill: #ffffff; stroke: #ff7f0e"/>
     <use xlink:href="#mf66a481e61" x="42.335792" y="169.19101" style="fill: #ffffff; stroke: #ff7f0e"/>
     <use xlink:href="#mf66a481e61" x="42.492072" y="173.530102" style="fill: #ffffff; stroke: #ff7f0e"/>
     <use xlink:href="#mf66a481e61" x="42.654744" y="177.94003" style="fill: #ffffff; stroke: #ff7f0e"/>
     <use xlink:href="#mf66a481e61" x="42.824217" y="182.421004" style="fill: #ffffff; stroke: #ff7f0e"/>
     <use xlink:href="#mf66a481e61" x="43.000945" y="186.973241" style="fill: #ffffff; stroke: #ff7f0e"/>
     <use xlink:href="#mf66a481e61" x="43.185438" y="191.596963" style="fill: #ffffff; stroke: #ff7f0e"/>
     <use xlink:href="#mf66a481e61" x="43.378276" y="196.292396" style="fill: #ffffff; stroke: #ff7f0e"/>
     <use xlink:href="#mf66a481e61" x="43.580105" y="201.059772" style="fill: #ffffff; stroke: #ff7f0e"/>
     <use xlink:href="#mf66a481e61" x="43.791651" y="205.89933" style="fill: #ffffff; stroke: #ff7f0e"/>
     <use xlink:href="#mf66a481e61" x="44.013752" y="210.811306" style="fill: #ffffff; stroke: #ff7f0e"/>
     <use xlink:href="#mf66a481e61" x="44.247379" y="215.795937" style="fill: #ffffff; stroke: #ff7f0e"/>
     <use xlink:href="#mf66a481e61" x="44.493646" y="220.853467" style="fill: #ffffff; stroke: #ff7f0e"/>
     <use xlink:href="#mf66a481e61" x="44.753846" y="225.984138" style="fill: #ffffff; stroke: #ff7f0e"/>
     <use xlink:href="#mf66a481e61" x="45.029524" y="231.188186" style="fill: #ffffff; stroke: #ff7f0e"/>
     <use xlink:href="#mf66a481e61" x="45.322518" y="236.465851" style="fill: #ffffff; stroke: #ff7f0e"/>
     <use xlink:href="#mf66a481e61" x="45.635041" y="241.817377" style="fill: #ffffff; stroke: #ff7f0e"/>
     <use xlink:href="#mf66a481e61" x="45.969818" y="247.242994" style="fill: #ffffff; stroke: #ff7f0e"/>
     <use xlink:href="#mf66a481e61" x="46.330257" y="252.742937" style="fill: #ffffff; stroke: #ff7f0e"/>
     <use xlink:href="#mf66a481e61" x="46.720699" y="258.317441" style="fill: #ffffff; stroke: #ff7f0e"/>
     <use xlink:href="#mf66a481e61" x="47.146838" y="263.96673" style="fill: #ffffff; stroke: #ff7f0e"/>
     <use xlink:href="#mf66a481e61" x="47.616375" y="269.691034" style="fill: #ffffff; stroke: #ff7f0e"/>
     <use xlink:href="#mf66a481e61" x="48.140166" y="275.490574" style="fill: #ffffff; stroke: #ff7f0e"/>
     <use xlink:href="#mf66a481e61" x="48.734375" y="281.365571" style="fill: #ffffff; stroke: #ff7f0e"/>
     <use xlink:href="#mf66a481e61" x="49.424975" y="287.316243" style="fill: #ffffff; stroke: #ff7f0e"/>
     <use xlink:href="#mf66a481e61" x="50.258797" y="293.342799" style="fill: #ffffff; stroke: #ff7f0e"/>
     <use xlink:href="#mf66a481e61" x="51.338585" y="299.445463" style="fill: #ffffff; stroke: #ff7f0e"/>
     <use xlink:href="#mf66a481e61" x="53.019474" y="305.624412" style="fill: #ffffff; stroke: #ff7f0e"/>
     <use xlink:href="#mf66a481e61" x="58.387737" y="305.624412" style="fill: #ffffff; stroke: #ff7f0e"/>
     <use xlink:href="#mf66a481e61" x="60.684633" y="299.445463" style="fill: #ffffff; stroke: #ff7f0e"/>
     <use xlink:href="#mf66a481e61" x="62.387268" y="293.342799" style="fill: #ffffff; stroke: #ff7f0e"/>
     <use xlink:href="#mf66a481e61" x="63.850896" y="287.316243" style="fill: #ffffff; stroke: #ff7f0e"/>
     <use xlink:href="#mf66a481e61" x="65.178417" y="281.365571" style="fill: #ffffff; stroke: #ff7f0e"/>
     <use xlink:href="#mf66a481e61" x="66.416812" y="275.490574" style="fill: #ffffff; stroke: #ff7f0e"/>
     <use xlink:href="#mf66a481e61" x="67.592208" y="269.691034" style="fill: #ffffff; stroke: #ff7f0e"/>
     <use xlink:href="#mf66a481e61" x="68.720929" y="263.96673" style="fill: #ffffff; stroke: #ff7f0e"/>
     <use xlink:href="#mf66a481e61" x="69.813996" y="258.317441" style="fill: #ffffff; stroke: #ff7f0e"/>
     <use xlink:href="#mf66a481e61" x="70.879278" y="252.742937" style="fill: #ffffff; stroke: #ff7f0e"/>
     <use xlink:href="#mf66a481e61" x="71.922643" y="247.242994" style="fill: #ffffff; stroke: #ff7f0e"/>
     <use xlink:href="#mf66a481e61" x="72.948613" y="241.817377" style="fill: #ffffff; stroke: #ff7f0e"/>
     <use xlink:href="#mf66a481e61" x="73.96078" y="236.465851" style="fill: #ffffff; stroke: #ff7f0e"/>
     <use xlink:href="#mf66a481e61" x="74.962061" y="231.188186" style="fill: #ffffff; stroke: #ff7f0e"/>
     <use xlink:href="#mf66a481e61" x="75.954874" y="225.984138" style="fill: #ffffff; stroke: #ff7f0e"/>
     <use xlink:href="#mf66a481e61" x="76.941261" y="220.853467" style="fill: #ffffff; stroke: #ff7f0e"/>
     <use xlink:href="#mf66a481e61" x="77.922974" y="215.795937" style="fill: #ffffff; stroke: #ff7f0e"/>
     <use xlink:href="#mf66a481e61" x="78.901543" y="210.811306" style="fill: #ffffff; stroke: #ff7f0e"/>
     <use xlink:href="#mf66a481e61" x="79.87832" y="205.89933" style="fill: #ffffff; stroke: #ff7f0e"/>
     <use xlink:href="#mf66a481e61" x="80.85451" y="201.059772" style="fill: #ffffff; stroke: #ff7f0e"/>
     <use xlink:href="#mf66a481e61" x="81.831208" y="196.292396" style="fill: #ffffff; stroke: #ff7f0e"/>
     <use xlink:href="#mf66a481e61" x="82.809419" y="191.596963" style="fill: #ffffff; stroke: #ff7f0e"/>
     <use xlink:href="#mf66a481e61" x="83.790081" y="186.973241" style="fill: #ffffff; stroke: #ff7f0e"/>
     <use xlink:href="#mf66a481e61" x="84.774066" y="182.421004" style="fill: #ffffff; stroke: #ff7f0e"/>
     <use xlink:href="#mf66a481e61" x="85.762201" y="177.94003" style="fill: #ffffff; stroke: #ff7f0e"/>
     <use xlink:href="#mf66a481e61" x="86.755282" y="173.530102" style="fill: #ffffff; stroke: #ff7f0e"/>
     <use xlink:href="#mf66a481e61" x="87.754083" y="169.19101" style="fill: #ffffff; stroke: #ff7f0e"/>
     <use xlink:href="#mf66a481e61" x="88.75936" y="164.922557" style="fill: #ffffff; stroke: #ff7f0e"/>
     <use xlink:href="#mf66a481e61" x="89.77185" y="160.724554" style="fill: #ffffff; stroke: #ff7f0e"/>
     <use xlink:href="#mf66a481e61" x="90.792296" y="156.596822" style="fill: #ffffff; stroke: #ff7f0e"/>
     <use xlink:href="#mf66a481e61" x="91.821442" y="152.539196" style="fill: #ffffff; stroke: #ff7f0e"/>
     <use xlink:href="#mf66a481e61" x="92.860048" y="148.551527" style="fill: #ffffff; stroke: #ff7f0e"/>
     <use xlink:href="#mf66a481e61" x="93.908885" y="144.633682" style="fill: #ffffff; stroke: #ff7f0e"/>
     <use xlink:href="#mf66a481e61" x="94.968745" y="140.785545" style="fill: #ffffff; stroke: #ff7f0e"/>
     <use xlink:href="#mf66a481e61" x="96.040451" y="137.007022" style="fill: #ffffff; stroke: #ff7f0e"/>
     <use xlink:href="#mf66a481e61" x="97.124862" y="133.29804" style="fill: #ffffff; stroke: #ff7f0e"/>
     <use xlink:href="#mf66a481e61" x="98.222879" y="129.658553" style="fill: #ffffff; stroke: #ff7f0e"/>
     <use xlink:href="#mf66a481e61" x="99.335437" y="126.088535" style="fill: #ffffff; stroke: #ff7f0e"/>
     <use xlink:href="#mf66a481e61" x="100.463323" y="122.587938" style="fill: #ffffff; stroke: #ff7f0e"/>
     <use xlink:href="#mf66a481e61" x="101.606643" y="119.156466" style="fill: #ffffff; stroke: #ff7f0e"/>
     <use xlink:href="#mf66a481e61" x="102.760998" y="115.792582" style="fill: #ffffff; stroke: #ff7f0e"/>
    </g>
   </g>
   <g id="patch_3">
    <path d="M 31.46274 311.621635 
L 31.46274 32.919157 
" style="fill: none; stroke: #000000; stroke-width: 0.8; stroke-linejoin: miter; stroke-linecap: square"/>
   </g>
   <g id="patch_4">
    <path d="M 217.048979 311.621635 
L 217.048979 32.919157 
" style="fill: none; stroke: #000000; stroke-width: 0.8; stroke-linejoin: miter; stroke-linecap: square"/>
   </g>
   <g id="patch_5">
    <path d="M 31.46274 311.621635 
L 217.048979 311.621635 
" style="fill: none; stroke: #000000; stroke-width: 0.8; stroke-linejoin: miter; stroke-linecap: square"/>
   </g>
   <g id="patch_6">
    <path d="M 31.46274 32.919157 
L 217.048979 32.919157 
" style="fill: none; stroke: #000000; stroke-width: 0.8; stroke-linejoin: miter; stroke-linecap: square"/>
   </g>
   <g id="legend_1">
    <g id="patch_7">
     <path d="M 101.834666 307.456635 
L 211.217979 307.456635 
Q 212.883979 307.456635 212.883979 305.790635 
L 212.883979 283.835879 
Q 212.883979 282.169879 211.217979 282.169879 
L 101.834666 282.169879 
Q 100.168666 282.169879 100.168666 283.835879 
L 100.168666 305.790635 
Q 100.168666 307.456635 101.834666 307.456635 
z
" style="fill: #ffffff; opacity: 0.8; stroke: #cccccc; stroke-linejoin: miter"/>
    </g>
    <g id="line2d_12">
     <path d="M 103.500666 288.915877 
L 111.830666 288.915877 
L 120.160666 288.915877 
" style="fill: none; stroke: #1f77b4; stroke-width: 1.5; stroke-linecap: square"/>
    </g>
    <g id="text_13">
     <!-- RKR potential curve -->
     <g transform="translate(126.824666 291.831377) scale(0.0833 -0.0833)">
      <defs>
       <path id="DejaVuSans-52" d="M 2841 2188 
Q 3044 2119 3236 1894 
Q 3428 1669 3622 1275 
L 4263 0 
L 3584 0 
L 2988 1197 
Q 2756 1666 2539 1819 
Q 2322 1972 1947 1972 
L 1259 1972 
L 1259 0 
L 628 0 
L 628 4666 
L 2053 4666 
Q 2853 4666 3247 4331 
Q 3641 3997 3641 3322 
Q 3641 2881 3436 2590 
Q 3231 2300 2841 2188 
z
M 1259 4147 
L 1259 2491 
L 2053 2491 
Q 2509 2491 2742 2702 
Q 2975 2913 2975 3322 
Q 2975 3731 2742 3939 
Q 2509 4147 2053 4147 
L 1259 4147 
z
" transform="scale(0.015625)"/>
       <path id="DejaVuSans-4b" d="M 628 4666 
L 1259 4666 
L 1259 2694 
L 3353 4666 
L 4166 4666 
L 1850 2491 
L 4331 0 
L 3500 0 
L 1259 2247 
L 1259 0 
L 628 0 
L 628 4666 
z
" transform="scale(0.015625)"/>
       <path id="DejaVuSans-76" d="M 191 3500 
L 800 3500 
L 1894 563 
L 2988 3500 
L 3597 3500 
L 2284 0 
L 1503 0 
L 191 3500 
z
" transform="scale(0.015625)"/>
      </defs>
      <use xlink:href="#DejaVuSans-52"/>
      <use xlink:href="#DejaVuSans-4b" x="69.482422"/>
      <use xlink:href="#DejaVuSans-52" x="135.058594"/>
      <use xlink:href="#DejaVuSans-20" x="204.541016"/>
      <use xlink:href="#DejaVuSans-70" x="236.328125"/>
      <use xlink:href="#DejaVuSans-6f" x="299.804688"/>
      <use xlink:href="#DejaVuSans-74" x="360.986328"/>
      <use xlink:href="#DejaVuSans-65" x="400.195312"/>
      <use xlink:href="#DejaVuSans-6e" x="461.71875"/>
      <use xlink:href="#DejaVuSans-74" x="525.097656"/>
      <use xlink:href="#DejaVuSans-69" x="564.306641"/>
      <use xlink:href="#DejaVuSans-61" x="592.089844"/>
      <use xlink:href="#DejaVuSans-6c" x="653.369141"/>
      <use xlink:href="#DejaVuSans-20" x="681.152344"/>
      <use xlink:href="#DejaVuSans-63" x="712.939453"/>
      <use xlink:href="#DejaVuSans-75" x="767.919922"/>
      <use xlink:href="#DejaVuSans-72" x="831.298828"/>
      <use xlink:href="#DejaVuSans-76" x="872.412109"/>
      <use xlink:href="#DejaVuSans-65" x="931.591797"/>
     </g>
    </g>
    <g id="line2d_13">
     <g>
      <use xlink:href="#mf66a481e61" x="111.830666" y="299.476755" style="fill: #ffffff; stroke: #ff7f0e"/>
     </g>
    </g>
    <g id="text_14">
     <!-- turning point -->
     <g transform="translate(126.824666 302.392255) scale(0.0833 -0.0833)">
      <use xlink:href="#DejaVuSans-74"/>
      <use xlink:href="#DejaVuSans-75" x="39.208984"/>
      <use xlink:href="#DejaVuSans-72" x="102.587891"/>
      <use xlink:href="#DejaVuSans-6e" x="141.951172"/>
      <use xlink:href="#DejaVuSans-69" x="205.330078"/>
      <use xlink:href="#DejaVuSans-6e" x="233.113281"/>
      <use xlink:href="#DejaVuSans-67" x="296.492188"/>
      <use xlink:href="#DejaVuSans-20" x="359.96875"/>
      <use xlink:href="#DejaVuSans-70" x="391.755859"/>
      <use xlink:href="#DejaVuSans-6f" x="455.232422"/>
      <use xlink:href="#DejaVuSans-69" x="516.414062"/>
      <use xlink:href="#DejaVuSans-6e" x="544.197266"/>
      <use xlink:href="#DejaVuSans-74" x="607.576172"/>
     </g>
    </g>
   </g>
  </g>
  <g id="axes_2">
   <g id="patch_8">
    <path d="M 272.213521 106.834447 
L 457.79976 106.834447 
L 457.79976 32.919157 
L 272.213521 32.919157 
z
" style="fill: #ffffff"/>
   </g>
   <g id="matplotlib.axis_3">
    <g id="xtick_5">
     <g id="line2d_14">
      <g>
       <use xlink:href="#m1663471ba3" x="280.649259" y="106.834447" style="stroke: #000000; stroke-width: 0.8"/>
      </g>
     </g>
    </g>
    <g id="xtick_6">
     <g id="line2d_15">
      <g>
       <use xlink:href="#m1663471ba3" x="321.799201" y="106.834447" style="stroke: #000000; stroke-width: 0.8"/>
      </g>
     </g>
    </g>
    <g id="xtick_7">
     <g id="line2d_16">
      <g>
       <use xlink:href="#m1663471ba3" x="362.949144" y="106.834447" style="stroke: #000000; stroke-width: 0.8"/>
      </g>
     </g>
    </g>
    <g id="xtick_8">
     <g id="line2d_17">
      <g>
       <use xlink:href="#m1663471ba3" x="404.099086" y="106.834447" style="stroke: #000000; stroke-width: 0.8"/>
      </g>
     </g>
    </g>
    <g id="xtick_9">
     <g id="line2d_18">
      <g>
       <use xlink:href="#m1663471ba3" x="445.249028" y="106.834447" style="stroke: #000000; stroke-width: 0.8"/>
      </g>
     </g>
    </g>
   </g>
   <g id="matplotlib.axis_4">
    <g id="ytick_6">
     <g id="line2d_19">
      <g>
       <use xlink:href="#m4166366bb1" x="272.213521" y="106.834447" style="stroke: #000000; stroke-width: 0.8"/>
      </g>
     </g>
     <g id="text_15">
      <!-- −0.1 -->
      <g transform="translate(240.930709 110.633666) scale(0.1 -0.1)">
       <use xlink:href="#DejaVuSans-2212"/>
       <use xlink:href="#DejaVuSans-30" x="83.789062"/>
       <use xlink:href="#DejaVuSans-2e" x="147.412109"/>
       <use xlink:href="#DejaVuSans-31" x="179.199219"/>
      </g>
     </g>
    </g>
    <g id="ytick_7">
     <g id="line2d_20">
      <g>
       <use xlink:href="#m4166366bb1" x="272.213521" y="69.876802" style="stroke: #000000; stroke-width: 0.8"/>
      </g>
     </g>
     <g id="text_16">
      <!-- 0.0 -->
      <g transform="translate(249.310396 73.676021) scale(0.1 -0.1)">
       <use xlink:href="#DejaVuSans-30"/>
       <use xlink:href="#DejaVuSans-2e" x="63.623047"/>
       <use xlink:href="#DejaVuSans-30" x="95.410156"/>
      </g>
     </g>
    </g>
    <g id="ytick_8">
     <g id="line2d_21">
      <g>
       <use xlink:href="#m4166366bb1" x="272.213521" y="32.919157" style="stroke: #000000; stroke-width: 0.8"/>
      </g>
     </g>
     <g id="text_17">
      <!-- 0.1 -->
      <g transform="translate(249.310396 36.718376) scale(0.1 -0.1)">
       <use xlink:href="#DejaVuSans-30"/>
       <use xlink:href="#DejaVuSans-2e" x="63.623047"/>
       <use xlink:href="#DejaVuSans-31" x="95.410156"/>
      </g>
     </g>
    </g>
    <g id="text_18">
     <!-- $\Delta G_v$ $/$ cm$^{-1}$ -->
     <g transform="translate(234.851021 97.226802) rotate(-90) scale(0.1 -0.1)">
      <defs>
       <path id="DejaVuSans-394" d="M 2188 4044 
L 906 525 
L 3472 525 
L 2188 4044 
z
M 50 0 
L 1831 4666 
L 2547 4666 
L 4325 0 
L 50 0 
z
" transform="scale(0.015625)"/>
       <path id="DejaVuSans-Oblique-47" d="M 3494 697 
L 3738 1919 
L 2700 1919 
L 2797 2438 
L 4453 2438 
L 4050 384 
Q 3634 156 3143 32 
Q 2653 -91 2156 -91 
Q 1278 -91 783 396 
Q 288 884 288 1753 
Q 288 2475 589 3126 
Q 891 3778 1422 4213 
Q 1756 4484 2153 4617 
Q 2550 4750 3034 4750 
Q 3472 4750 3873 4639 
Q 4275 4528 4641 4306 
L 4513 3634 
Q 4231 3928 3853 4083 
Q 3475 4238 3047 4238 
Q 2550 4238 2172 4048 
Q 1794 3859 1497 3463 
Q 1244 3125 1098 2667 
Q 953 2209 953 1734 
Q 953 1081 1287 751 
Q 1622 422 2284 422 
Q 2616 422 2925 492 
Q 3234 563 3494 697 
z
" transform="scale(0.015625)"/>
       <path id="DejaVuSans-Oblique-76" d="M 459 3500 
L 1069 3500 
L 1581 525 
L 3256 3500 
L 3866 3500 
L 1875 0 
L 1100 0 
L 459 3500 
z
" transform="scale(0.015625)"/>
      </defs>
      <use xlink:href="#DejaVuSans-394" transform="translate(0 0.684375)"/>
      <use xlink:href="#DejaVuSans-Oblique-47" transform="translate(68.408203 0.684375)"/>
      <use xlink:href="#DejaVuSans-Oblique-76" transform="translate(145.898438 -15.721875) scale(0.7)"/>
      <use xlink:href="#DejaVuSans-20" transform="translate(190.058594 0.684375)"/>
      <use xlink:href="#DejaVuSans-2f" transform="translate(221.845703 0.684375)"/>
      <use xlink:href="#DejaVuSans-20" transform="translate(255.537109 0.684375)"/>
      <use xlink:href="#DejaVuSans-63" transform="translate(287.324219 0.684375)"/>
      <use xlink:href="#DejaVuSans-6d" transform="translate(342.304688 0.684375)"/>
      <use xlink:href="#DejaVuSans-2212" transform="translate(440.673828 38.965625) scale(0.7)"/>
      <use xlink:href="#DejaVuSans-31" transform="translate(499.326172 38.965625) scale(0.7)"/>
     </g>
    </g>
   </g>
   <g id="line2d_22">
    <path d="M 280.649259 71.006152 
L 284.764254 70.795729 
L 288.879248 71.012191 
L 292.994242 72.510696 
L 297.109236 73.1366 
L 301.22423 73.756416 
L 305.339225 74.432336 
L 309.454219 75.197187 
L 313.569213 76.226117 
L 317.684207 76.837068 
L 321.799201 77.699363 
L 325.914196 78.390618 
L 330.02919 78.987643 
L 334.144184 80.045836 
L 338.259178 80.897582 
L 342.374172 81.279439 
L 346.489167 81.997985 
L 350.604161 82.877254 
L 354.719155 83.39917 
L 358.834149 83.968567 
L 362.949144 84.753338 
L 367.064138 85.535792 
L 371.179132 86.292884 
L 375.294126 87.231687 
L 379.40912 88.217742 
L 383.524115 89.182533 
L 387.639109 90.211491 
L 391.754103 91.255233 
L 395.869097 91.950206 
L 399.984091 91.996445 
L 404.099086 91.173495 
L 408.21408 89.02812 
L 412.329074 84.778786 
L 416.444068 77.496941 
L 420.559062 66.345665 
L 424.674057 50.706673 
L 428.789051 30.722282 
L 432.904045 9.869014 
L 437.019039 0.122722 
L 441.134033 16.092017 
L 442.91151 -1 
" clip-path="url(#pf011bffea1)" style="fill: none; stroke: #2ca02c; stroke-width: 1.5; stroke-linecap: square"/>
   </g>
   <g id="patch_9">
    <path d="M 272.213521 106.834447 
L 272.213521 32.919157 
" style="fill: none; stroke: #000000; stroke-width: 0.8; stroke-linejoin: miter; stroke-linecap: square"/>
   </g>
   <g id="patch_10">
    <path d="M 457.79976 106.834447 
L 457.79976 32.919157 
" style="fill: none; stroke: #000000; stroke-width: 0.8; stroke-linejoin: miter; stroke-linecap: square"/>
   </g>
   <g id="patch_11">
    <path d="M 272.213521 106.834447 
L 457.79976 106.834447 
" style="fill: none; stroke: #000000; stroke-width: 0.8; stroke-linejoin: miter; stroke-linecap: square"/>
   </g>
   <g id="patch_12">
    <path d="M 272.213521 32.919157 
L 457.79976 32.919157 
" style="fill: none; stroke: #000000; stroke-width: 0.8; stroke-linejoin: miter; stroke-linecap: square"/>
   </g>
  </g>
  <g id="axes_3">
   <g id="patch_13">
    <path d="M 272.213521 209.228041 
L 457.79976 209.228041 
L 457.79976 135.312751 
L 272.213521 135.312751 
z
" style="fill: #ffffff"/>
   </g>
   <g id="matplotlib.axis_5">
    <g id="xtick_10">
     <g id="line2d_23">
      <g>
       <use xlink:href="#m1663471ba3" x="280.649259" y="209.228041" style="stroke: #000000; stroke-width: 0.8"/>
      </g>
     </g>
    </g>
    <g id="xtick_11">
     <g id="line2d_24">
      <g>
       <use xlink:href="#m1663471ba3" x="321.799201" y="209.228041" style="stroke: #000000; stroke-width: 0.8"/>
      </g>
     </g>
    </g>
    <g id="xtick_12">
     <g id="line2d_25">
      <g>
       <use xlink:href="#m1663471ba3" x="362.949144" y="209.228041" style="stroke: #000000; stroke-width: 0.8"/>
      </g>
     </g>
    </g>
    <g id="xtick_13">
     <g id="line2d_26">
      <g>
       <use xlink:href="#m1663471ba3" x="404.099086" y="209.228041" style="stroke: #000000; stroke-width: 0.8"/>
      </g>
     </g>
    </g>
    <g id="xtick_14">
     <g id="line2d_27">
      <g>
       <use xlink:href="#m1663471ba3" x="445.249028" y="209.228041" style="stroke: #000000; stroke-width: 0.8"/>
      </g>
     </g>
    </g>
   </g>
   <g id="matplotlib.axis_6">
    <g id="ytick_9">
     <g id="line2d_28">
      <g>
       <use xlink:href="#m4166366bb1" x="272.213521" y="188.109387" style="stroke: #000000; stroke-width: 0.8"/>
      </g>
     </g>
     <g id="text_19">
      <!-- −2 -->
      <g transform="translate(250.471334 191.908606) scale(0.1 -0.1)">
       <use xlink:href="#DejaVuSans-2212"/>
       <use xlink:href="#DejaVuSans-32" x="83.789062"/>
      </g>
     </g>
    </g>
    <g id="ytick_10">
     <g id="line2d_29">
      <g>
       <use xlink:href="#m4166366bb1" x="272.213521" y="145.872078" style="stroke: #000000; stroke-width: 0.8"/>
      </g>
     </g>
     <g id="text_20">
      <!-- 0 -->
      <g transform="translate(258.851021 149.671297) scale(0.1 -0.1)">
       <use xlink:href="#DejaVuSans-30"/>
      </g>
     </g>
    </g>
    <g id="text_21">
     <!-- $\Delta B_v$ $/$ cm$^{-1}$ -->
     <g transform="translate(244.391646 199.170396) rotate(-90) scale(0.1 -0.1)">
      <defs>
       <path id="DejaVuSans-Oblique-42" d="M 1081 4666 
L 2694 4666 
Q 3350 4666 3675 4422 
Q 4000 4178 4000 3688 
Q 4000 3238 3720 2911 
Q 3441 2584 2988 2516 
Q 3375 2428 3569 2181 
Q 3763 1934 3763 1522 
Q 3763 819 3242 409 
Q 2722 0 1819 0 
L 172 0 
L 1081 4666 
z
M 1234 2228 
L 903 519 
L 1919 519 
Q 2491 519 2800 781 
Q 3109 1044 3109 1522 
Q 3109 1891 2904 2059 
Q 2700 2228 2247 2228 
L 1234 2228 
z
M 1606 4147 
L 1331 2741 
L 2272 2741 
Q 2775 2741 3058 2959 
Q 3341 3178 3341 3566 
Q 3341 3869 3150 4008 
Q 2959 4147 2541 4147 
L 1606 4147 
z
" transform="scale(0.015625)"/>
      </defs>
      <use xlink:href="#DejaVuSans-394" transform="translate(0 0.684375)"/>
      <use xlink:href="#DejaVuSans-Oblique-42" transform="translate(68.408203 0.684375)"/>
      <use xlink:href="#DejaVuSans-Oblique-76" transform="translate(137.011719 -15.721875) scale(0.7)"/>
      <use xlink:href="#DejaVuSans-20" transform="translate(181.171875 0.684375)"/>
      <use xlink:href="#DejaVuSans-2f" transform="translate(212.958984 0.684375)"/>
      <use xlink:href="#DejaVuSans-20" transform="translate(246.650391 0.684375)"/>
      <use xlink:href="#DejaVuSans-63" transform="translate(278.4375 0.684375)"/>
      <use xlink:href="#DejaVuSans-6d" transform="translate(333.417969 0.684375)"/>
      <use xlink:href="#DejaVuSans-2212" transform="translate(431.787109 38.965625) scale(0.7)"/>
      <use xlink:href="#DejaVuSans-31" transform="translate(490.439453 38.965625) scale(0.7)"/>
     </g>
    </g>
    <g id="text_22">
     <!-- 1e−4 -->
     <g transform="translate(272.213521 132.312751) scale(0.1 -0.1)">
      <use xlink:href="#DejaVuSans-31"/>
      <use xlink:href="#DejaVuSans-65" x="63.623047"/>
      <use xlink:href="#DejaVuSans-2212" x="125.146484"/>
      <use xlink:href="#DejaVuSans-34" x="208.935547"/>
     </g>
    </g>
   </g>
   <g id="line2d_30">
    <path d="M 280.649259 145.786226 
L 284.764254 145.862994 
L 288.879248 145.820596 
L 292.994242 145.638748 
L 297.109236 145.719706 
L 301.22423 145.694295 
L 305.339225 145.624378 
L 309.454219 145.535907 
L 313.569213 145.543601 
L 317.684207 145.505856 
L 321.799201 145.443325 
L 325.914196 145.454972 
L 330.02919 145.378964 
L 334.144184 145.280052 
L 338.259178 145.34243 
L 342.374172 145.29077 
L 346.489167 145.175454 
L 350.604161 145.163712 
L 354.719155 145.150825 
L 358.834149 144.983969 
L 362.949144 144.895013 
L 367.064138 144.920989 
L 371.179132 144.826353 
L 375.294126 144.569359 
L 379.40912 144.417781 
L 383.524115 144.415944 
L 387.639109 144.387463 
L 391.754103 144.304153 
L 395.869097 144.427285 
L 399.984091 144.947264 
L 404.099086 145.860338 
L 408.21408 147.2196 
L 412.329074 149.245788 
L 416.444068 152.269863 
L 420.559062 156.508608 
L 424.674057 162.205827 
L 428.789051 170.001109 
L 432.904045 181.711039 
L 437.019039 200.50163 
L 441.134033 221.009286 
L 445.249028 176.350807 
L 447.17803 -1 
" clip-path="url(#p5175d3b6b8)" style="fill: none; stroke: #d62728; stroke-width: 1.5; stroke-linecap: square"/>
   </g>
   <g id="patch_14">
    <path d="M 272.213521 209.228041 
L 272.213521 135.312751 
" style="fill: none; stroke: #000000; stroke-width: 0.8; stroke-linejoin: miter; stroke-linecap: square"/>
   </g>
   <g id="patch_15">
    <path d="M 457.79976 209.228041 
L 457.79976 135.312751 
" style="fill: none; stroke: #000000; stroke-width: 0.8; stroke-linejoin: miter; stroke-linecap: square"/>
   </g>
   <g id="patch_16">
    <path d="M 272.213521 209.228041 
L 457.79976 209.228041 
" style="fill: none; stroke: #000000; stroke-width: 0.8; stroke-linejoin: miter; stroke-linecap: square"/>
   </g>
   <g id="patch_17">
    <path d="M 272.213521 135.312751 
L 457.79976 135.312751 
" style="fill: none; stroke: #000000; stroke-width: 0.8; stroke-linejoin: miter; stroke-linecap: square"/>
   </g>
  </g>
  <g id="axes_4">
   <g id="patch_18">
    <path d="M 272.213521 311.621635 
L 457.79976 311.621635 
L 457.79976 237.706345 
L 272.213521 237.706345 
z
" style="fill: #ffffff"/>
   </g>
   <g id="matplotlib.axis_7">
    <g id="xtick_15">
     <g id="line2d_31">
      <g>
       <use xlink:href="#m1663471ba3" x="272.213521" y="311.621635" style="stroke: #000000; stroke-width: 0.8"/>
      </g>
     </g>
     <g id="text_23">
      <!-- 0 -->
      <g transform="translate(269.032271 326.220072) scale(0.1 -0.1)">
       <use xlink:href="#DejaVuSans-30"/>
      </g>
     </g>
    </g>
    <g id="xtick_16">
     <g id="line2d_32">
      <g>
       <use xlink:href="#m1663471ba3" x="325.238161" y="311.621635" style="stroke: #000000; stroke-width: 0.8"/>
      </g>
     </g>
     <g id="text_24">
      <!-- 10 -->
      <g transform="translate(318.875661 326.220072) scale(0.1 -0.1)">
       <use xlink:href="#DejaVuSans-31"/>
       <use xlink:href="#DejaVuSans-30" x="63.623047"/>
      </g>
     </g>
    </g>
    <g id="xtick_17">
     <g id="line2d_33">
      <g>
       <use xlink:href="#m1663471ba3" x="378.262801" y="311.621635" style="stroke: #000000; stroke-width: 0.8"/>
      </g>
     </g>
     <g id="text_25">
      <!-- 20 -->
      <g transform="translate(371.900301 326.220072) scale(0.1 -0.1)">
       <use xlink:href="#DejaVuSans-32"/>
       <use xlink:href="#DejaVuSans-30" x="63.623047"/>
      </g>
     </g>
    </g>
    <g id="xtick_18">
     <g id="line2d_34">
      <g>
       <use xlink:href="#m1663471ba3" x="431.28744" y="311.621635" style="stroke: #000000; stroke-width: 0.8"/>
      </g>
     </g>
     <g id="text_26">
      <!-- 30 -->
      <g transform="translate(424.92494 326.220072) scale(0.1 -0.1)">
       <use xlink:href="#DejaVuSans-33"/>
       <use xlink:href="#DejaVuSans-30" x="63.623047"/>
      </g>
     </g>
    </g>
    <g id="text_27">
     <!-- vibrational quantum number -->
     <g transform="translate(293.066797 339.898197) scale(0.1 -0.1)">
      <defs>
       <path id="DejaVuSans-62" d="M 3116 1747 
Q 3116 2381 2855 2742 
Q 2594 3103 2138 3103 
Q 1681 3103 1420 2742 
Q 1159 2381 1159 1747 
Q 1159 1113 1420 752 
Q 1681 391 2138 391 
Q 2594 391 2855 752 
Q 3116 1113 3116 1747 
z
M 1159 2969 
Q 1341 3281 1617 3432 
Q 1894 3584 2278 3584 
Q 2916 3584 3314 3078 
Q 3713 2572 3713 1747 
Q 3713 922 3314 415 
Q 2916 -91 2278 -91 
Q 1894 -91 1617 61 
Q 1341 213 1159 525 
L 1159 0 
L 581 0 
L 581 4863 
L 1159 4863 
L 1159 2969 
z
" transform="scale(0.015625)"/>
       <path id="DejaVuSans-71" d="M 947 1747 
Q 947 1113 1208 752 
Q 1469 391 1925 391 
Q 2381 391 2643 752 
Q 2906 1113 2906 1747 
Q 2906 2381 2643 2742 
Q 2381 3103 1925 3103 
Q 1469 3103 1208 2742 
Q 947 2381 947 1747 
z
M 2906 525 
Q 2725 213 2448 61 
Q 2172 -91 1784 -91 
Q 1150 -91 751 415 
Q 353 922 353 1747 
Q 353 2572 751 3078 
Q 1150 3584 1784 3584 
Q 2172 3584 2448 3432 
Q 2725 3281 2906 2969 
L 2906 3500 
L 3481 3500 
L 3481 -1331 
L 2906 -1331 
L 2906 525 
z
" transform="scale(0.015625)"/>
      </defs>
      <use xlink:href="#DejaVuSans-76"/>
      <use xlink:href="#DejaVuSans-69" x="59.179688"/>
      <use xlink:href="#DejaVuSans-62" x="86.962891"/>
      <use xlink:href="#DejaVuSans-72" x="150.439453"/>
      <use xlink:href="#DejaVuSans-61" x="191.552734"/>
      <use xlink:href="#DejaVuSans-74" x="252.832031"/>
      <use xlink:href="#DejaVuSans-69" x="292.041016"/>
      <use xlink:href="#DejaVuSans-6f" x="319.824219"/>
      <use xlink:href="#DejaVuSans-6e" x="381.005859"/>
      <use xlink:href="#DejaVuSans-61" x="444.384766"/>
      <use xlink:href="#DejaVuSans-6c" x="505.664062"/>
      <use xlink:href="#DejaVuSans-20" x="533.447266"/>
      <use xlink:href="#DejaVuSans-71" x="565.234375"/>
      <use xlink:href="#DejaVuSans-75" x="628.710938"/>
      <use xlink:href="#DejaVuSans-61" x="692.089844"/>
      <use xlink:href="#DejaVuSans-6e" x="753.369141"/>
      <use xlink:href="#DejaVuSans-74" x="816.748047"/>
      <use xlink:href="#DejaVuSans-75" x="855.957031"/>
      <use xlink:href="#DejaVuSans-6d" x="919.335938"/>
      <use xlink:href="#DejaVuSans-20" x="1016.748047"/>
      <use xlink:href="#DejaVuSans-6e" x="1048.535156"/>
      <use xlink:href="#DejaVuSans-75" x="1111.914062"/>
      <use xlink:href="#DejaVuSans-6d" x="1175.292969"/>
      <use xlink:href="#DejaVuSans-62" x="1272.705078"/>
      <use xlink:href="#DejaVuSans-65" x="1336.181641"/>
      <use xlink:href="#DejaVuSans-72" x="1397.705078"/>
     </g>
    </g>
   </g>
   <g id="matplotlib.axis_8">
    <g id="ytick_11">
     <g id="line2d_35">
      <g>
       <use xlink:href="#m4166366bb1" x="272.213521" y="309.818823" style="stroke: #000000; stroke-width: 0.8"/>
      </g>
     </g>
     <g id="text_28">
      <!-- 0 -->
      <g transform="translate(258.851021 313.618042) scale(0.1 -0.1)">
       <use xlink:href="#DejaVuSans-30"/>
      </g>
     </g>
    </g>
    <g id="ytick_12">
     <g id="line2d_36">
      <g>
       <use xlink:href="#m4166366bb1" x="272.213521" y="273.762584" style="stroke: #000000; stroke-width: 0.8"/>
      </g>
     </g>
     <g id="text_29">
      <!-- 2 -->
      <g transform="translate(258.851021 277.561803) scale(0.1 -0.1)">
       <use xlink:href="#DejaVuSans-32"/>
      </g>
     </g>
    </g>
    <g id="ytick_13">
     <g id="line2d_37">
      <g>
       <use xlink:href="#m4166366bb1" x="272.213521" y="237.706345" style="stroke: #000000; stroke-width: 0.8"/>
      </g>
     </g>
     <g id="text_30">
      <!-- 4 -->
      <g transform="translate(258.851021 241.505564) scale(0.1 -0.1)">
       <use xlink:href="#DejaVuSans-34"/>
      </g>
     </g>
    </g>
    <g id="text_31">
     <!-- $\Delta D_v$ $/$ cm$^{-1}$ -->
     <g transform="translate(252.771334 302.01399) rotate(-90) scale(0.1 -0.1)">
      <defs>
       <path id="DejaVuSans-Oblique-44" d="M 1081 4666 
L 2438 4666 
Q 3519 4666 4070 4208 
Q 4622 3750 4622 2847 
Q 4622 2250 4412 1698 
Q 4203 1147 3834 769 
Q 3463 381 2891 190 
Q 2319 0 1538 0 
L 172 0 
L 1081 4666 
z
M 1613 4147 
L 909 519 
L 1734 519 
Q 2794 519 3375 1128 
Q 3956 1738 3956 2847 
Q 3956 3519 3581 3833 
Q 3206 4147 2406 4147 
L 1613 4147 
z
" transform="scale(0.015625)"/>
      </defs>
      <use xlink:href="#DejaVuSans-394" transform="translate(0 0.684375)"/>
      <use xlink:href="#DejaVuSans-Oblique-44" transform="translate(68.408203 0.684375)"/>
      <use xlink:href="#DejaVuSans-Oblique-76" transform="translate(145.410156 -15.721875) scale(0.7)"/>
      <use xlink:href="#DejaVuSans-20" transform="translate(189.570312 0.684375)"/>
      <use xlink:href="#DejaVuSans-2f" transform="translate(221.357422 0.684375)"/>
      <use xlink:href="#DejaVuSans-20" transform="translate(255.048828 0.684375)"/>
      <use xlink:href="#DejaVuSans-63" transform="translate(286.835938 0.684375)"/>
      <use xlink:href="#DejaVuSans-6d" transform="translate(341.816406 0.684375)"/>
      <use xlink:href="#DejaVuSans-2212" transform="translate(440.185547 38.965625) scale(0.7)"/>
      <use xlink:href="#DejaVuSans-31" transform="translate(498.837891 38.965625) scale(0.7)"/>
     </g>
    </g>
    <g id="text_32">
     <!-- 1e−8 -->
     <g transform="translate(272.213521 234.706345) scale(0.1 -0.1)">
      <use xlink:href="#DejaVuSans-31"/>
      <use xlink:href="#DejaVuSans-65" x="63.623047"/>
      <use xlink:href="#DejaVuSans-2212" x="125.146484"/>
      <use xlink:href="#DejaVuSans-38" x="208.935547"/>
     </g>
    </g>
   </g>
   <g id="line2d_38">
    <path d="M 272.213521 306.669027 
L 277.515985 306.334299 
L 282.818449 305.679953 
L 288.120913 305.092028 
L 293.423377 304.086381 
L 298.725841 302.873904 
L 304.028305 301.490717 
L 309.330769 299.948455 
L 314.633233 298.427622 
L 319.935697 296.391124 
L 325.238161 294.529621 
L 330.540625 292.386812 
L 335.843089 289.876742 
L 341.145553 287.824485 
L 346.448017 285.522421 
L 351.750481 282.494265 
L 357.052945 279.932159 
L 362.355409 277.52988 
L 367.657873 274.415709 
L 372.960337 271.364799 
L 378.262801 268.719424 
L 383.565265 265.750406 
L 388.867728 262.336018 
L 394.170192 259.295671 
L 399.472656 256.524737 
L 404.77512 253.546947 
L 410.077584 250.499537 
L 415.380048 248.109908 
L 420.682512 246.414847 
L 425.984976 245.222566 
L 431.28744 244.792592 
L 436.589904 245.72202 
L 441.892368 248.405332 
L 447.194832 252.824723 
L 452.497296 258.869295 
L 457.79976 266.508912 
L 461.8 272.599318 
" clip-path="url(#p6a22f69195)" style="fill: none; stroke: #9467bd; stroke-width: 1.5; stroke-linecap: square"/>
   </g>
   <g id="patch_19">
    <path d="M 272.213521 311.621635 
L 272.213521 237.706345 
" style="fill: none; stroke: #000000; stroke-width: 0.8; stroke-linejoin: miter; stroke-linecap: square"/>
   </g>
   <g id="patch_20">
    <path d="M 457.79976 311.621635 
L 457.79976 237.706345 
" style="fill: none; stroke: #000000; stroke-width: 0.8; stroke-linejoin: miter; stroke-linecap: square"/>
   </g>
   <g id="patch_21">
    <path d="M 272.213521 311.621635 
L 457.79976 311.621635 
" style="fill: none; stroke: #000000; stroke-width: 0.8; stroke-linejoin: miter; stroke-linecap: square"/>
   </g>
   <g id="patch_22">
    <path d="M 272.213521 237.706345 
L 457.79976 237.706345 
" style="fill: none; stroke: #000000; stroke-width: 0.8; stroke-linejoin: miter; stroke-linecap: square"/>
   </g>
  </g>
  <g id="text_33">
   <!-- CO $X^1\Sigma^+$ $-$ Rydberg-Klein-Rees -->
   <g transform="translate(135.12 13.80024) scale(0.12 -0.12)">
    <defs>
     <path id="DejaVuSans-43" d="M 4122 4306 
L 4122 3641 
Q 3803 3938 3442 4084 
Q 3081 4231 2675 4231 
Q 1875 4231 1450 3742 
Q 1025 3253 1025 2328 
Q 1025 1406 1450 917 
Q 1875 428 2675 428 
Q 3081 428 3442 575 
Q 3803 722 4122 1019 
L 4122 359 
Q 3791 134 3420 21 
Q 3050 -91 2638 -91 
Q 1578 -91 968 557 
Q 359 1206 359 2328 
Q 359 3453 968 4101 
Q 1578 4750 2638 4750 
Q 3056 4750 3426 4639 
Q 3797 4528 4122 4306 
z
" transform="scale(0.015625)"/>
     <path id="DejaVuSans-4f" d="M 2522 4238 
Q 1834 4238 1429 3725 
Q 1025 3213 1025 2328 
Q 1025 1447 1429 934 
Q 1834 422 2522 422 
Q 3209 422 3611 934 
Q 4013 1447 4013 2328 
Q 4013 3213 3611 3725 
Q 3209 4238 2522 4238 
z
M 2522 4750 
Q 3503 4750 4090 4092 
Q 4678 3434 4678 2328 
Q 4678 1225 4090 567 
Q 3503 -91 2522 -91 
Q 1538 -91 948 565 
Q 359 1222 359 2328 
Q 359 3434 948 4092 
Q 1538 4750 2522 4750 
z
" transform="scale(0.015625)"/>
     <path id="DejaVuSans-3a3" d="M 1353 531 
L 3634 531 
L 3634 0 
L 628 0 
L 628 531 
L 2125 2481 
L 628 4134 
L 628 4666 
L 3578 4666 
L 3578 4134 
L 1353 4134 
L 2850 2494 
L 1353 531 
z
" transform="scale(0.015625)"/>
     <path id="DejaVuSans-2b" d="M 2944 4013 
L 2944 2272 
L 4684 2272 
L 4684 1741 
L 2944 1741 
L 2944 0 
L 2419 0 
L 2419 1741 
L 678 1741 
L 678 2272 
L 2419 2272 
L 2419 4013 
L 2944 4013 
z
" transform="scale(0.015625)"/>
    </defs>
    <use xlink:href="#DejaVuSans-43" transform="translate(0 0.684375)"/>
    <use xlink:href="#DejaVuSans-4f" transform="translate(69.824219 0.684375)"/>
    <use xlink:href="#DejaVuSans-20" transform="translate(148.535156 0.684375)"/>
    <use xlink:href="#DejaVuSans-Oblique-58" transform="translate(180.322266 0.684375)"/>
    <use xlink:href="#DejaVuSans-31" transform="translate(255.844896 38.965625) scale(0.7)"/>
    <use xlink:href="#DejaVuSans-3a3" transform="translate(303.115404 0.684375)"/>
    <use xlink:href="#DejaVuSans-2b" transform="translate(380.893724 38.965625) scale(0.7)"/>
    <use xlink:href="#DejaVuSans-20" transform="translate(455.918138 0.684375)"/>
    <use xlink:href="#DejaVuSans-2212" transform="translate(487.705247 0.684375)"/>
    <use xlink:href="#DejaVuSans-20" transform="translate(571.49431 0.684375)"/>
    <use xlink:href="#DejaVuSans-52" transform="translate(603.281419 0.684375)"/>
    <use xlink:href="#DejaVuSans-79" transform="translate(672.763841 0.684375)"/>
    <use xlink:href="#DejaVuSans-64" transform="translate(731.943529 0.684375)"/>
    <use xlink:href="#DejaVuSans-62" transform="translate(795.420091 0.684375)"/>
    <use xlink:href="#DejaVuSans-65" transform="translate(858.896654 0.684375)"/>
    <use xlink:href="#DejaVuSans-72" transform="translate(920.420091 0.684375)"/>
    <use xlink:href="#DejaVuSans-67" transform="translate(961.533372 0.684375)"/>
    <use xlink:href="#DejaVuSans-2d" transform="translate(1025.009935 0.684375)"/>
    <use xlink:href="#DejaVuSans-4b" transform="translate(1061.093919 0.684375)"/>
    <use xlink:href="#DejaVuSans-6c" transform="translate(1126.670091 0.684375)"/>
    <use xlink:href="#DejaVuSans-65" transform="translate(1154.453294 0.684375)"/>
    <use xlink:href="#DejaVuSans-69" transform="translate(1215.976732 0.684375)"/>
    <use xlink:href="#DejaVuSans-6e" transform="translate(1243.759935 0.684375)"/>
    <use xlink:href="#DejaVuSans-2d" transform="translate(1307.138841 0.684375)"/>
    <use xlink:href="#DejaVuSans-52" transform="translate(1343.222826 0.684375)"/>
    <use xlink:href="#DejaVuSans-65" transform="translate(1412.705247 0.684375)"/>
    <use xlink:href="#DejaVuSans-65" transform="translate(1474.228685 0.684375)"/>
    <use xlink:href="#DejaVuSans-73" transform="translate(1535.752122 0.684375)"/>
   </g>
  </g>
 </g>
 <defs>
  <clipPath id="p7ddb40ef0d">
   <rect x="31.46274" y="32.919157" width="185.586239" height="278.702477"/>
  </clipPath>
  <clipPath id="pf011bffea1">
   <rect x="272.213521" y="32.919157" width="185.586239" height="73.91529"/>
  </clipPath>
  <clipPath id="p5175d3b6b8">
   <rect x="272.213521" y="135.312751" width="185.586239" height="73.91529"/>
  </clipPath>
  <clipPath id="p6a22f69195">
   <rect x="272.213521" y="237.706345" width="185.586239" height="73.91529"/>
  </clipPath>
 </defs>
</svg>
