<?xml version="1.0" encoding="utf-8" standalone="no"?>
<!DOCTYPE svg PUBLIC "-//W3C//DTD SVG 1.1//EN"
  "http://www.w3.org/Graphics/SVG/1.1/DTD/svg11.dtd">
<svg height="345.6pt" version="1.1" viewBox="0 0 460.8 345.6" width="460.8pt" xmlns="http://www.w3.org/2000/svg" xmlns:xlink="http://www.w3.org/1999/xlink">
 <metadata>
  <rdf:RDF xmlns:cc="http://creativecommons.org/ns#" xmlns:dc="http://purl.org/dc/elements/1.1/" xmlns:rdf="http://www.w3.org/1999/02/22-rdf-syntax-ns#">
   <cc:Work>
    <dc:type rdf:resource="http://purl.org/dc/dcmitype/StillImage"/>
    <dc:date>2022-02-24T16:38:04.611764</dc:date>
    <dc:format>image/svg+xml</dc:format>
    <dc:creator>
     <cc:Agent>
      <dc:title>Matplotlib v3.4.3, https://matplotlib.org/</dc:title>
     </cc:Agent>
    </dc:creator>
   </cc:Work>
  </rdf:RDF>
 </metadata>
 <defs>
  <style type="text/css">*{stroke-linecap:butt;stroke-linejoin:round;}</style>
 </defs>
 <g id="figure_1">
  <g id="patch_1">
   <path d="M 0 345.6 
L 460.8 345.6 
L 460.8 0 
L 0 0 
z
" style="fill:#ffffff;"/>
  </g>
  <g id="axes_1">
   <g id="patch_2">
    <path d="M 57.6 307.584 
L 414.72 307.584 
L 414.72 41.472 
L 57.6 41.472 
z
" style="fill:#ffffff;"/>
   </g>
   <g id="matplotlib.axis_1">
    <g id="xtick_1">
     <g id="line2d_1">
      <defs>
       <path d="M 0 0 
L 0 3.5 
" id="md5437956d4" style="stroke:#000000;stroke-width:0.8;"/>
      </defs>
      <g>
       <use style="stroke:#000000;stroke-width:0.8;" x="81.408" xlink:href="#md5437956d4" y="307.584"/>
      </g>
     </g>
     <g id="text_1">
      <!-- 1.0 -->
      <g transform="translate(73.456437 322.182437)scale(0.1 -0.1)">
       <defs>
        <path d="M 794 531 
L 1825 531 
L 1825 4091 
L 703 3866 
L 703 4441 
L 1819 4666 
L 2450 4666 
L 2450 531 
L 3481 531 
L 3481 0 
L 794 0 
L 794 531 
z
" id="DejaVuSans-31" transform="scale(0.015625)"/>
        <path d="M 684 794 
L 1344 794 
L 1344 0 
L 684 0 
L 684 794 
z
" id="DejaVuSans-2e" transform="scale(0.015625)"/>
        <path d="M 2034 4250 
Q 1547 4250 1301 3770 
Q 1056 3291 1056 2328 
Q 1056 1369 1301 889 
Q 1547 409 2034 409 
Q 2525 409 2770 889 
Q 3016 1369 3016 2328 
Q 3016 3291 2770 3770 
Q 2525 4250 2034 4250 
z
M 2034 4750 
Q 2819 4750 3233 4129 
Q 3647 3509 3647 2328 
Q 3647 1150 3233 529 
Q 2819 -91 2034 -91 
Q 1250 -91 836 529 
Q 422 1150 422 2328 
Q 422 3509 836 4129 
Q 1250 4750 2034 4750 
z
" id="DejaVuSans-30" transform="scale(0.015625)"/>
       </defs>
       <use xlink:href="#DejaVuSans-31"/>
       <use x="63.623047" xlink:href="#DejaVuSans-2e"/>
       <use x="95.410156" xlink:href="#DejaVuSans-30"/>
      </g>
     </g>
    </g>
    <g id="xtick_2">
     <g id="line2d_2">
      <g>
       <use style="stroke:#000000;stroke-width:0.8;" x="140.928" xlink:href="#md5437956d4" y="307.584"/>
      </g>
     </g>
     <g id="text_2">
      <!-- 1.5 -->
      <g transform="translate(132.976438 322.182437)scale(0.1 -0.1)">
       <defs>
        <path d="M 691 4666 
L 3169 4666 
L 3169 4134 
L 1269 4134 
L 1269 2991 
Q 1406 3038 1543 3061 
Q 1681 3084 1819 3084 
Q 2600 3084 3056 2656 
Q 3513 2228 3513 1497 
Q 3513 744 3044 326 
Q 2575 -91 1722 -91 
Q 1428 -91 1123 -41 
Q 819 9 494 109 
L 494 744 
Q 775 591 1075 516 
Q 1375 441 1709 441 
Q 2250 441 2565 725 
Q 2881 1009 2881 1497 
Q 2881 1984 2565 2268 
Q 2250 2553 1709 2553 
Q 1456 2553 1204 2497 
Q 953 2441 691 2322 
L 691 4666 
z
" id="DejaVuSans-35" transform="scale(0.015625)"/>
       </defs>
       <use xlink:href="#DejaVuSans-31"/>
       <use x="63.623047" xlink:href="#DejaVuSans-2e"/>
       <use x="95.410156" xlink:href="#DejaVuSans-35"/>
      </g>
     </g>
    </g>
    <g id="xtick_3">
     <g id="line2d_3">
      <g>
       <use style="stroke:#000000;stroke-width:0.8;" x="200.448" xlink:href="#md5437956d4" y="307.584"/>
      </g>
     </g>
     <g id="text_3">
      <!-- 2.0 -->
      <g transform="translate(192.496437 322.182437)scale(0.1 -0.1)">
       <defs>
        <path d="M 1228 531 
L 3431 531 
L 3431 0 
L 469 0 
L 469 531 
Q 828 903 1448 1529 
Q 2069 2156 2228 2338 
Q 2531 2678 2651 2914 
Q 2772 3150 2772 3378 
Q 2772 3750 2511 3984 
Q 2250 4219 1831 4219 
Q 1534 4219 1204 4116 
Q 875 4013 500 3803 
L 500 4441 
Q 881 4594 1212 4672 
Q 1544 4750 1819 4750 
Q 2544 4750 2975 4387 
Q 3406 4025 3406 3419 
Q 3406 3131 3298 2873 
Q 3191 2616 2906 2266 
Q 2828 2175 2409 1742 
Q 1991 1309 1228 531 
z
" id="DejaVuSans-32" transform="scale(0.015625)"/>
       </defs>
       <use xlink:href="#DejaVuSans-32"/>
       <use x="63.623047" xlink:href="#DejaVuSans-2e"/>
       <use x="95.410156" xlink:href="#DejaVuSans-30"/>
      </g>
     </g>
    </g>
    <g id="xtick_4">
     <g id="line2d_4">
      <g>
       <use style="stroke:#000000;stroke-width:0.8;" x="259.968" xlink:href="#md5437956d4" y="307.584"/>
      </g>
     </g>
     <g id="text_4">
      <!-- 2.5 -->
      <g transform="translate(252.016437 322.182437)scale(0.1 -0.1)">
       <use xlink:href="#DejaVuSans-32"/>
       <use x="63.623047" xlink:href="#DejaVuSans-2e"/>
       <use x="95.410156" xlink:href="#DejaVuSans-35"/>
      </g>
     </g>
    </g>
    <g id="xtick_5">
     <g id="line2d_5">
      <g>
       <use style="stroke:#000000;stroke-width:0.8;" x="319.488" xlink:href="#md5437956d4" y="307.584"/>
      </g>
     </g>
     <g id="text_5">
      <!-- 3.0 -->
      <g transform="translate(311.536437 322.182437)scale(0.1 -0.1)">
       <defs>
        <path d="M 2597 2516 
Q 3050 2419 3304 2112 
Q 3559 1806 3559 1356 
Q 3559 666 3084 287 
Q 2609 -91 1734 -91 
Q 1441 -91 1130 -33 
Q 819 25 488 141 
L 488 750 
Q 750 597 1062 519 
Q 1375 441 1716 441 
Q 2309 441 2620 675 
Q 2931 909 2931 1356 
Q 2931 1769 2642 2001 
Q 2353 2234 1838 2234 
L 1294 2234 
L 1294 2753 
L 1863 2753 
Q 2328 2753 2575 2939 
Q 2822 3125 2822 3475 
Q 2822 3834 2567 4026 
Q 2313 4219 1838 4219 
Q 1578 4219 1281 4162 
Q 984 4106 628 3988 
L 628 4550 
Q 988 4650 1302 4700 
Q 1616 4750 1894 4750 
Q 2613 4750 3031 4423 
Q 3450 4097 3450 3541 
Q 3450 3153 3228 2886 
Q 3006 2619 2597 2516 
z
" id="DejaVuSans-33" transform="scale(0.015625)"/>
       </defs>
       <use xlink:href="#DejaVuSans-33"/>
       <use x="63.623047" xlink:href="#DejaVuSans-2e"/>
       <use x="95.410156" xlink:href="#DejaVuSans-30"/>
      </g>
     </g>
    </g>
    <g id="xtick_6">
     <g id="line2d_6">
      <g>
       <use style="stroke:#000000;stroke-width:0.8;" x="379.008" xlink:href="#md5437956d4" y="307.584"/>
      </g>
     </g>
     <g id="text_6">
      <!-- 3.5 -->
      <g transform="translate(371.056437 322.182437)scale(0.1 -0.1)">
       <use xlink:href="#DejaVuSans-33"/>
       <use x="63.623047" xlink:href="#DejaVuSans-2e"/>
       <use x="95.410156" xlink:href="#DejaVuSans-35"/>
      </g>
     </g>
    </g>
    <g id="text_7">
     <!-- internuclear distance ($\AA$) -->
     <g transform="translate(174.11 336.882437)scale(0.1 -0.1)">
      <defs>
       <path d="M 603 3500 
L 1178 3500 
L 1178 0 
L 603 0 
L 603 3500 
z
M 603 4863 
L 1178 4863 
L 1178 4134 
L 603 4134 
L 603 4863 
z
" id="DejaVuSans-69" transform="scale(0.015625)"/>
       <path d="M 3513 2113 
L 3513 0 
L 2938 0 
L 2938 2094 
Q 2938 2591 2744 2837 
Q 2550 3084 2163 3084 
Q 1697 3084 1428 2787 
Q 1159 2491 1159 1978 
L 1159 0 
L 581 0 
L 581 3500 
L 1159 3500 
L 1159 2956 
Q 1366 3272 1645 3428 
Q 1925 3584 2291 3584 
Q 2894 3584 3203 3211 
Q 3513 2838 3513 2113 
z
" id="DejaVuSans-6e" transform="scale(0.015625)"/>
       <path d="M 1172 4494 
L 1172 3500 
L 2356 3500 
L 2356 3053 
L 1172 3053 
L 1172 1153 
Q 1172 725 1289 603 
Q 1406 481 1766 481 
L 2356 481 
L 2356 0 
L 1766 0 
Q 1100 0 847 248 
Q 594 497 594 1153 
L 594 3053 
L 172 3053 
L 172 3500 
L 594 3500 
L 594 4494 
L 1172 4494 
z
" id="DejaVuSans-74" transform="scale(0.015625)"/>
       <path d="M 3597 1894 
L 3597 1613 
L 953 1613 
Q 991 1019 1311 708 
Q 1631 397 2203 397 
Q 2534 397 2845 478 
Q 3156 559 3463 722 
L 3463 178 
Q 3153 47 2828 -22 
Q 2503 -91 2169 -91 
Q 1331 -91 842 396 
Q 353 884 353 1716 
Q 353 2575 817 3079 
Q 1281 3584 2069 3584 
Q 2775 3584 3186 3129 
Q 3597 2675 3597 1894 
z
M 3022 2063 
Q 3016 2534 2758 2815 
Q 2500 3097 2075 3097 
Q 1594 3097 1305 2825 
Q 1016 2553 972 2059 
L 3022 2063 
z
" id="DejaVuSans-65" transform="scale(0.015625)"/>
       <path d="M 2631 2963 
Q 2534 3019 2420 3045 
Q 2306 3072 2169 3072 
Q 1681 3072 1420 2755 
Q 1159 2438 1159 1844 
L 1159 0 
L 581 0 
L 581 3500 
L 1159 3500 
L 1159 2956 
Q 1341 3275 1631 3429 
Q 1922 3584 2338 3584 
Q 2397 3584 2469 3576 
Q 2541 3569 2628 3553 
L 2631 2963 
z
" id="DejaVuSans-72" transform="scale(0.015625)"/>
       <path d="M 544 1381 
L 544 3500 
L 1119 3500 
L 1119 1403 
Q 1119 906 1312 657 
Q 1506 409 1894 409 
Q 2359 409 2629 706 
Q 2900 1003 2900 1516 
L 2900 3500 
L 3475 3500 
L 3475 0 
L 2900 0 
L 2900 538 
Q 2691 219 2414 64 
Q 2138 -91 1772 -91 
Q 1169 -91 856 284 
Q 544 659 544 1381 
z
M 1991 3584 
L 1991 3584 
z
" id="DejaVuSans-75" transform="scale(0.015625)"/>
       <path d="M 3122 3366 
L 3122 2828 
Q 2878 2963 2633 3030 
Q 2388 3097 2138 3097 
Q 1578 3097 1268 2742 
Q 959 2388 959 1747 
Q 959 1106 1268 751 
Q 1578 397 2138 397 
Q 2388 397 2633 464 
Q 2878 531 3122 666 
L 3122 134 
Q 2881 22 2623 -34 
Q 2366 -91 2075 -91 
Q 1284 -91 818 406 
Q 353 903 353 1747 
Q 353 2603 823 3093 
Q 1294 3584 2113 3584 
Q 2378 3584 2631 3529 
Q 2884 3475 3122 3366 
z
" id="DejaVuSans-63" transform="scale(0.015625)"/>
       <path d="M 603 4863 
L 1178 4863 
L 1178 0 
L 603 0 
L 603 4863 
z
" id="DejaVuSans-6c" transform="scale(0.015625)"/>
       <path d="M 2194 1759 
Q 1497 1759 1228 1600 
Q 959 1441 959 1056 
Q 959 750 1161 570 
Q 1363 391 1709 391 
Q 2188 391 2477 730 
Q 2766 1069 2766 1631 
L 2766 1759 
L 2194 1759 
z
M 3341 1997 
L 3341 0 
L 2766 0 
L 2766 531 
Q 2569 213 2275 61 
Q 1981 -91 1556 -91 
Q 1019 -91 701 211 
Q 384 513 384 1019 
Q 384 1609 779 1909 
Q 1175 2209 1959 2209 
L 2766 2209 
L 2766 2266 
Q 2766 2663 2505 2880 
Q 2244 3097 1772 3097 
Q 1472 3097 1187 3025 
Q 903 2953 641 2809 
L 641 3341 
Q 956 3463 1253 3523 
Q 1550 3584 1831 3584 
Q 2591 3584 2966 3190 
Q 3341 2797 3341 1997 
z
" id="DejaVuSans-61" transform="scale(0.015625)"/>
       <path id="DejaVuSans-20" transform="scale(0.015625)"/>
       <path d="M 2906 2969 
L 2906 4863 
L 3481 4863 
L 3481 0 
L 2906 0 
L 2906 525 
Q 2725 213 2448 61 
Q 2172 -91 1784 -91 
Q 1150 -91 751 415 
Q 353 922 353 1747 
Q 353 2572 751 3078 
Q 1150 3584 1784 3584 
Q 2172 3584 2448 3432 
Q 2725 3281 2906 2969 
z
M 947 1747 
Q 947 1113 1208 752 
Q 1469 391 1925 391 
Q 2381 391 2643 752 
Q 2906 1113 2906 1747 
Q 2906 2381 2643 2742 
Q 2381 3103 1925 3103 
Q 1469 3103 1208 2742 
Q 947 2381 947 1747 
z
" id="DejaVuSans-64" transform="scale(0.015625)"/>
       <path d="M 2834 3397 
L 2834 2853 
Q 2591 2978 2328 3040 
Q 2066 3103 1784 3103 
Q 1356 3103 1142 2972 
Q 928 2841 928 2578 
Q 928 2378 1081 2264 
Q 1234 2150 1697 2047 
L 1894 2003 
Q 2506 1872 2764 1633 
Q 3022 1394 3022 966 
Q 3022 478 2636 193 
Q 2250 -91 1575 -91 
Q 1294 -91 989 -36 
Q 684 19 347 128 
L 347 722 
Q 666 556 975 473 
Q 1284 391 1588 391 
Q 1994 391 2212 530 
Q 2431 669 2431 922 
Q 2431 1156 2273 1281 
Q 2116 1406 1581 1522 
L 1381 1569 
Q 847 1681 609 1914 
Q 372 2147 372 2553 
Q 372 3047 722 3315 
Q 1072 3584 1716 3584 
Q 2034 3584 2315 3537 
Q 2597 3491 2834 3397 
z
" id="DejaVuSans-73" transform="scale(0.015625)"/>
       <path d="M 1984 4856 
Q 1566 4138 1362 3434 
Q 1159 2731 1159 2009 
Q 1159 1288 1364 580 
Q 1569 -128 1984 -844 
L 1484 -844 
Q 1016 -109 783 600 
Q 550 1309 550 2009 
Q 550 2706 781 3412 
Q 1013 4119 1484 4856 
L 1984 4856 
z
" id="DejaVuSans-28" transform="scale(0.015625)"/>
       <path d="M 3188 5081 
Q 3188 5278 3048 5417 
Q 2909 5556 2713 5556 
Q 2513 5556 2377 5420 
Q 2241 5284 2241 5081 
Q 2241 4884 2377 4746 
Q 2513 4609 2713 4609 
Q 2909 4609 3048 4746 
Q 3188 4884 3188 5081 
z
M 2203 4397 
Q 2034 4513 1945 4689 
Q 1856 4866 1856 5081 
Q 1856 5438 2106 5689 
Q 2356 5941 2713 5941 
Q 3069 5941 3320 5689 
Q 3572 5438 3572 5081 
Q 3572 4834 3458 4643 
Q 3344 4453 3128 4341 
L 3938 0 
L 3278 0 
L 3084 1197 
L 984 1197 
L 325 0 
L -341 0 
L 2203 4397 
z
M 2584 4044 
L 1275 1722 
L 2988 1722 
L 2584 4044 
z
" id="DejaVuSans-Oblique-c5" transform="scale(0.015625)"/>
       <path d="M 513 4856 
L 1013 4856 
Q 1481 4119 1714 3412 
Q 1947 2706 1947 2009 
Q 1947 1309 1714 600 
Q 1481 -109 1013 -844 
L 513 -844 
Q 928 -128 1133 580 
Q 1338 1288 1338 2009 
Q 1338 2731 1133 3434 
Q 928 4138 513 4856 
z
" id="DejaVuSans-29" transform="scale(0.015625)"/>
      </defs>
      <use transform="translate(0 0.171875)" xlink:href="#DejaVuSans-69"/>
      <use transform="translate(27.783203 0.171875)" xlink:href="#DejaVuSans-6e"/>
      <use transform="translate(91.162109 0.171875)" xlink:href="#DejaVuSans-74"/>
      <use transform="translate(130.371094 0.171875)" xlink:href="#DejaVuSans-65"/>
      <use transform="translate(191.894531 0.171875)" xlink:href="#DejaVuSans-72"/>
      <use transform="translate(233.007812 0.171875)" xlink:href="#DejaVuSans-6e"/>
      <use transform="translate(296.386719 0.171875)" xlink:href="#DejaVuSans-75"/>
      <use transform="translate(359.765625 0.171875)" xlink:href="#DejaVuSans-63"/>
      <use transform="translate(414.746094 0.171875)" xlink:href="#DejaVuSans-6c"/>
      <use transform="translate(442.529297 0.171875)" xlink:href="#DejaVuSans-65"/>
      <use transform="translate(504.052734 0.171875)" xlink:href="#DejaVuSans-61"/>
      <use transform="translate(565.332031 0.171875)" xlink:href="#DejaVuSans-72"/>
      <use transform="translate(606.445312 0.171875)" xlink:href="#DejaVuSans-20"/>
      <use transform="translate(638.232422 0.171875)" xlink:href="#DejaVuSans-64"/>
      <use transform="translate(701.708984 0.171875)" xlink:href="#DejaVuSans-69"/>
      <use transform="translate(729.492188 0.171875)" xlink:href="#DejaVuSans-73"/>
      <use transform="translate(781.591797 0.171875)" xlink:href="#DejaVuSans-74"/>
      <use transform="translate(820.800781 0.171875)" xlink:href="#DejaVuSans-61"/>
      <use transform="translate(882.080078 0.171875)" xlink:href="#DejaVuSans-6e"/>
      <use transform="translate(945.458984 0.171875)" xlink:href="#DejaVuSans-63"/>
      <use transform="translate(1000.439453 0.171875)" xlink:href="#DejaVuSans-65"/>
      <use transform="translate(1061.962891 0.171875)" xlink:href="#DejaVuSans-20"/>
      <use transform="translate(1093.75 0.171875)" xlink:href="#DejaVuSans-28"/>
      <use transform="translate(1132.763672 0.171875)" xlink:href="#DejaVuSans-Oblique-c5"/>
      <use transform="translate(1201.171875 0.171875)" xlink:href="#DejaVuSans-29"/>
     </g>
    </g>
   </g>
   <g id="matplotlib.axis_2">
    <g id="ytick_1">
     <g id="line2d_7">
      <defs>
       <path d="M 0 0 
L -3.5 0 
" id="m31d77fbf00" style="stroke:#000000;stroke-width:0.8;"/>
      </defs>
      <g>
       <use style="stroke:#000000;stroke-width:0.8;" x="57.6" xlink:href="#m31d77fbf00" y="307.584"/>
      </g>
     </g>
     <g id="text_8">
      <!-- −2 -->
      <g transform="translate(35.857813 311.383219)scale(0.1 -0.1)">
       <defs>
        <path d="M 678 2272 
L 4684 2272 
L 4684 1741 
L 678 1741 
L 678 2272 
z
" id="DejaVuSans-2212" transform="scale(0.015625)"/>
       </defs>
       <use xlink:href="#DejaVuSans-2212"/>
       <use x="83.789062" xlink:href="#DejaVuSans-32"/>
      </g>
     </g>
    </g>
    <g id="ytick_2">
     <g id="line2d_8">
      <g>
       <use style="stroke:#000000;stroke-width:0.8;" x="57.6" xlink:href="#m31d77fbf00" y="254.3616"/>
      </g>
     </g>
     <g id="text_9">
      <!-- 0 -->
      <g transform="translate(44.2375 258.160819)scale(0.1 -0.1)">
       <use xlink:href="#DejaVuSans-30"/>
      </g>
     </g>
    </g>
    <g id="ytick_3">
     <g id="line2d_9">
      <g>
       <use style="stroke:#000000;stroke-width:0.8;" x="57.6" xlink:href="#m31d77fbf00" y="201.1392"/>
      </g>
     </g>
     <g id="text_10">
      <!-- 2 -->
      <g transform="translate(44.2375 204.938419)scale(0.1 -0.1)">
       <use xlink:href="#DejaVuSans-32"/>
      </g>
     </g>
    </g>
    <g id="ytick_4">
     <g id="line2d_10">
      <g>
       <use style="stroke:#000000;stroke-width:0.8;" x="57.6" xlink:href="#m31d77fbf00" y="147.9168"/>
      </g>
     </g>
     <g id="text_11">
      <!-- 4 -->
      <g transform="translate(44.2375 151.716019)scale(0.1 -0.1)">
       <defs>
        <path d="M 2419 4116 
L 825 1625 
L 2419 1625 
L 2419 4116 
z
M 2253 4666 
L 3047 4666 
L 3047 1625 
L 3713 1625 
L 3713 1100 
L 3047 1100 
L 3047 0 
L 2419 0 
L 2419 1100 
L 313 1100 
L 313 1709 
L 2253 4666 
z
" id="DejaVuSans-34" transform="scale(0.015625)"/>
       </defs>
       <use xlink:href="#DejaVuSans-34"/>
      </g>
     </g>
    </g>
    <g id="ytick_5">
     <g id="line2d_11">
      <g>
       <use style="stroke:#000000;stroke-width:0.8;" x="57.6" xlink:href="#m31d77fbf00" y="94.6944"/>
      </g>
     </g>
     <g id="text_12">
      <!-- 6 -->
      <g transform="translate(44.2375 98.493619)scale(0.1 -0.1)">
       <defs>
        <path d="M 2113 2584 
Q 1688 2584 1439 2293 
Q 1191 2003 1191 1497 
Q 1191 994 1439 701 
Q 1688 409 2113 409 
Q 2538 409 2786 701 
Q 3034 994 3034 1497 
Q 3034 2003 2786 2293 
Q 2538 2584 2113 2584 
z
M 3366 4563 
L 3366 3988 
Q 3128 4100 2886 4159 
Q 2644 4219 2406 4219 
Q 1781 4219 1451 3797 
Q 1122 3375 1075 2522 
Q 1259 2794 1537 2939 
Q 1816 3084 2150 3084 
Q 2853 3084 3261 2657 
Q 3669 2231 3669 1497 
Q 3669 778 3244 343 
Q 2819 -91 2113 -91 
Q 1303 -91 875 529 
Q 447 1150 447 2328 
Q 447 3434 972 4092 
Q 1497 4750 2381 4750 
Q 2619 4750 2861 4703 
Q 3103 4656 3366 4563 
z
" id="DejaVuSans-36" transform="scale(0.015625)"/>
       </defs>
       <use xlink:href="#DejaVuSans-36"/>
      </g>
     </g>
    </g>
    <g id="ytick_6">
     <g id="line2d_12">
      <g>
       <use style="stroke:#000000;stroke-width:0.8;" x="57.6" xlink:href="#m31d77fbf00" y="41.472"/>
      </g>
     </g>
     <g id="text_13">
      <!-- 8 -->
      <g transform="translate(44.2375 45.271219)scale(0.1 -0.1)">
       <defs>
        <path d="M 2034 2216 
Q 1584 2216 1326 1975 
Q 1069 1734 1069 1313 
Q 1069 891 1326 650 
Q 1584 409 2034 409 
Q 2484 409 2743 651 
Q 3003 894 3003 1313 
Q 3003 1734 2745 1975 
Q 2488 2216 2034 2216 
z
M 1403 2484 
Q 997 2584 770 2862 
Q 544 3141 544 3541 
Q 544 4100 942 4425 
Q 1341 4750 2034 4750 
Q 2731 4750 3128 4425 
Q 3525 4100 3525 3541 
Q 3525 3141 3298 2862 
Q 3072 2584 2669 2484 
Q 3125 2378 3379 2068 
Q 3634 1759 3634 1313 
Q 3634 634 3220 271 
Q 2806 -91 2034 -91 
Q 1263 -91 848 271 
Q 434 634 434 1313 
Q 434 1759 690 2068 
Q 947 2378 1403 2484 
z
M 1172 3481 
Q 1172 3119 1398 2916 
Q 1625 2713 2034 2713 
Q 2441 2713 2670 2916 
Q 2900 3119 2900 3481 
Q 2900 3844 2670 4047 
Q 2441 4250 2034 4250 
Q 1625 4250 1398 4047 
Q 1172 3844 1172 3481 
z
" id="DejaVuSans-38" transform="scale(0.015625)"/>
       </defs>
       <use xlink:href="#DejaVuSans-38"/>
      </g>
     </g>
    </g>
    <g id="text_14">
     <!-- potential energy (eV) -->
     <g transform="translate(29.778125 227.769406)rotate(-90)scale(0.1 -0.1)">
      <defs>
       <path d="M 1159 525 
L 1159 -1331 
L 581 -1331 
L 581 3500 
L 1159 3500 
L 1159 2969 
Q 1341 3281 1617 3432 
Q 1894 3584 2278 3584 
Q 2916 3584 3314 3078 
Q 3713 2572 3713 1747 
Q 3713 922 3314 415 
Q 2916 -91 2278 -91 
Q 1894 -91 1617 61 
Q 1341 213 1159 525 
z
M 3116 1747 
Q 3116 2381 2855 2742 
Q 2594 3103 2138 3103 
Q 1681 3103 1420 2742 
Q 1159 2381 1159 1747 
Q 1159 1113 1420 752 
Q 1681 391 2138 391 
Q 2594 391 2855 752 
Q 3116 1113 3116 1747 
z
" id="DejaVuSans-70" transform="scale(0.015625)"/>
       <path d="M 1959 3097 
Q 1497 3097 1228 2736 
Q 959 2375 959 1747 
Q 959 1119 1226 758 
Q 1494 397 1959 397 
Q 2419 397 2687 759 
Q 2956 1122 2956 1747 
Q 2956 2369 2687 2733 
Q 2419 3097 1959 3097 
z
M 1959 3584 
Q 2709 3584 3137 3096 
Q 3566 2609 3566 1747 
Q 3566 888 3137 398 
Q 2709 -91 1959 -91 
Q 1206 -91 779 398 
Q 353 888 353 1747 
Q 353 2609 779 3096 
Q 1206 3584 1959 3584 
z
" id="DejaVuSans-6f" transform="scale(0.015625)"/>
       <path d="M 2906 1791 
Q 2906 2416 2648 2759 
Q 2391 3103 1925 3103 
Q 1463 3103 1205 2759 
Q 947 2416 947 1791 
Q 947 1169 1205 825 
Q 1463 481 1925 481 
Q 2391 481 2648 825 
Q 2906 1169 2906 1791 
z
M 3481 434 
Q 3481 -459 3084 -895 
Q 2688 -1331 1869 -1331 
Q 1566 -1331 1297 -1286 
Q 1028 -1241 775 -1147 
L 775 -588 
Q 1028 -725 1275 -790 
Q 1522 -856 1778 -856 
Q 2344 -856 2625 -561 
Q 2906 -266 2906 331 
L 2906 616 
Q 2728 306 2450 153 
Q 2172 0 1784 0 
Q 1141 0 747 490 
Q 353 981 353 1791 
Q 353 2603 747 3093 
Q 1141 3584 1784 3584 
Q 2172 3584 2450 3431 
Q 2728 3278 2906 2969 
L 2906 3500 
L 3481 3500 
L 3481 434 
z
" id="DejaVuSans-67" transform="scale(0.015625)"/>
       <path d="M 2059 -325 
Q 1816 -950 1584 -1140 
Q 1353 -1331 966 -1331 
L 506 -1331 
L 506 -850 
L 844 -850 
Q 1081 -850 1212 -737 
Q 1344 -625 1503 -206 
L 1606 56 
L 191 3500 
L 800 3500 
L 1894 763 
L 2988 3500 
L 3597 3500 
L 2059 -325 
z
" id="DejaVuSans-79" transform="scale(0.015625)"/>
       <path d="M 1831 0 
L 50 4666 
L 709 4666 
L 2188 738 
L 3669 4666 
L 4325 4666 
L 2547 0 
L 1831 0 
z
" id="DejaVuSans-56" transform="scale(0.015625)"/>
      </defs>
      <use xlink:href="#DejaVuSans-70"/>
      <use x="63.476562" xlink:href="#DejaVuSans-6f"/>
      <use x="124.658203" xlink:href="#DejaVuSans-74"/>
      <use x="163.867188" xlink:href="#DejaVuSans-65"/>
      <use x="225.390625" xlink:href="#DejaVuSans-6e"/>
      <use x="288.769531" xlink:href="#DejaVuSans-74"/>
      <use x="327.978516" xlink:href="#DejaVuSans-69"/>
      <use x="355.761719" xlink:href="#DejaVuSans-61"/>
      <use x="417.041016" xlink:href="#DejaVuSans-6c"/>
      <use x="444.824219" xlink:href="#DejaVuSans-20"/>
      <use x="476.611328" xlink:href="#DejaVuSans-65"/>
      <use x="538.134766" xlink:href="#DejaVuSans-6e"/>
      <use x="601.513672" xlink:href="#DejaVuSans-65"/>
      <use x="663.037109" xlink:href="#DejaVuSans-72"/>
      <use x="702.400391" xlink:href="#DejaVuSans-67"/>
      <use x="765.876953" xlink:href="#DejaVuSans-79"/>
      <use x="825.056641" xlink:href="#DejaVuSans-20"/>
      <use x="856.84375" xlink:href="#DejaVuSans-28"/>
      <use x="895.857422" xlink:href="#DejaVuSans-65"/>
      <use x="957.380859" xlink:href="#DejaVuSans-56"/>
      <use x="1025.789062" xlink:href="#DejaVuSans-29"/>
     </g>
    </g>
   </g>
   <g id="line2d_13">
    <path clip-path="url(#p87d22a1874)" d="M 67.891235 -1 
L 69.504 29.363729 
L 71.2896 59.577386 
L 73.0752 86.561797 
L 74.8608 110.59961 
L 76.6464 131.950474 
L 78.432 150.852854 
L 80.2176 167.525699 
L 82.0032 182.169986 
L 83.7888 194.970138 
L 85.5744 206.095343 
L 87.36 215.700755 
L 89.1456 223.928612 
L 90.9312 230.909268 
L 92.7168 236.762137 
L 94.5024 241.596565 
L 95.6928 244.303502 
L 96.8832 246.629984 
L 98.0736 248.601943 
L 99.264 250.243812 
L 100.4544 251.5786 
L 101.6448 252.627973 
L 102.8352 253.412326 
L 104.0256 253.950854 
L 105.216 254.261617 
L 106.4064 254.3616 
L 107.5968 254.266778 
L 108.7872 253.992165 
L 109.9776 253.551873 
L 111.7632 252.60956 
L 113.5488 251.365486 
L 115.3344 249.857277 
L 117.7152 247.494079 
L 120.096 244.794134 
L 123.072 241.041655 
L 126.6432 236.123704 
L 131.4048 229.107785 
L 140.3328 215.400694 
L 148.0704 203.705074 
L 153.4272 195.978298 
L 158.1888 189.451849 
L 162.9504 183.286491 
L 167.712 177.502322 
L 172.4736 172.10664 
L 176.64 167.702587 
L 180.8064 163.588603 
L 184.9728 159.755931 
L 189.1392 156.193722 
L 193.3056 152.889706 
L 198.0672 149.412936 
L 202.8288 146.235818 
L 207.5904 143.337771 
L 212.352 140.698458 
L 217.1136 138.298112 
L 222.4704 135.859772 
L 227.8272 133.674303 
L 233.184 131.717783 
L 239.136 129.785465 
L 245.088 128.080535 
L 251.6352 126.437586 
L 258.7776 124.888699 
L 266.5152 123.458388 
L 274.848 122.163363 
L 283.776 121.012818 
L 293.2992 120.009145 
L 304.0128 119.104082 
L 315.9168 118.319387 
L 329.6064 117.638212 
L 345.6768 117.061887 
L 365.3184 116.586379 
L 378.4128 116.36687 
L 378.4128 116.36687 
" style="fill:none;stroke:#1f77b4;stroke-linecap:square;stroke-width:1.5;"/>
   </g>
   <g id="line2d_14">
    <path clip-path="url(#p87d22a1874)" d="M 21.888 251.771648 
L 86.7648 251.677695 
L 88.5504 251.484531 
L 89.7408 251.207845 
L 90.9312 250.722961 
L 92.1216 249.921399 
L 93.312 248.6708 
L 94.5024 246.828761 
L 95.6928 244.267532 
L 96.8832 240.907614 
L 98.0736 236.75425 
L 99.8592 229.33384 
L 102.8352 216.418245 
L 104.0256 212.307299 
L 104.6208 210.690948 
L 105.216 209.422616 
L 105.8112 208.532456 
L 106.4064 208.040088 
L 107.0016 207.953917 
L 107.5968 208.270994 
L 108.192 208.977395 
L 108.7872 210.049089 
L 109.3824 211.453213 
L 110.5728 215.09303 
L 112.3584 221.909057 
L 115.3344 233.751348 
L 116.5248 237.827588 
L 117.7152 241.299316 
L 118.9056 244.132167 
L 120.096 246.354373 
L 121.2864 248.034706 
L 122.4768 249.26217 
L 123.6672 250.129972 
L 124.8576 250.724699 
L 126.6432 251.262593 
L 128.4288 251.537064 
L 131.4048 251.714079 
L 137.952 251.769995 
L 274.848 251.771648 
L 378.4128 251.771648 
L 378.4128 251.771648 
" style="fill:none;stroke:#ff7f0e;stroke-linecap:square;stroke-width:1.5;"/>
   </g>
   <g id="line2d_15">
    <path clip-path="url(#p87d22a1874)" d="M 21.888 246.665008 
L 84.9792 246.772387 
L 86.7648 247.01524 
L 87.9552 247.378324 
L 89.1456 248.032966 
L 90.336 249.137554 
L 90.9312 249.916988 
L 92.1216 252.05108 
L 93.312 255.086578 
L 94.5024 259.099079 
L 95.6928 263.998196 
L 98.6688 277.4083 
L 99.264 279.584746 
L 99.8592 281.338019 
L 100.4544 282.558287 
L 101.0496 283.145943 
L 101.6448 283.017768 
L 102.24 282.112608 
L 102.8352 280.396116 
L 103.4304 277.864167 
L 104.0256 274.544656 
L 105.216 265.812691 
L 106.4064 255.017673 
L 109.3824 226.790105 
L 110.5728 218.075184 
L 111.168 214.697209 
L 111.7632 212.040237 
L 112.3584 210.121001 
L 112.9536 208.930415 
L 113.5488 208.436265 
L 114.144 208.586774 
L 114.7392 209.314729 
L 115.3344 210.541886 
L 115.9296 212.183362 
L 117.12 216.360994 
L 121.2864 232.724864 
L 122.4768 236.366571 
L 123.6672 239.298317 
L 124.8576 241.554767 
L 126.048 243.222557 
L 127.2384 244.410364 
L 128.4288 245.227703 
L 129.6192 245.772285 
L 131.4048 246.247996 
L 133.7856 246.525895 
L 137.3568 246.642295 
L 149.856 246.664997 
L 378.4128 246.665008 
L 378.4128 246.665008 
" style="fill:none;stroke:#2ca02c;stroke-linecap:square;stroke-width:1.5;"/>
   </g>
   <g id="line2d_16">
    <path clip-path="url(#p87d22a1874)" d="M 21.888 153.73083 
L 71.2896 153.797701 
L 72.48 153.942955 
L 73.6704 154.330904 
L 74.2656 154.69676 
L 74.8608 155.239775 
L 75.456 156.016929 
L 76.0512 157.087019 
L 76.6464 158.500373 
L 77.2416 160.283558 
L 78.432 164.827704 
L 79.6224 169.707542 
L 80.2176 171.58136 
L 80.8128 172.570357 
L 81.408 172.287253 
L 82.0032 170.433838 
L 82.5984 166.895562 
L 83.1936 161.827311 
L 84.9792 143.629425 
L 85.5744 139.710578 
L 86.1696 138.394772 
L 86.7648 140.099692 
L 87.36 144.635696 
L 89.1456 164.253329 
L 89.7408 167.654786 
L 90.336 167.495229 
L 90.9312 163.710173 
L 92.7168 143.462654 
L 93.312 140.143254 
L 93.9072 140.861784 
L 94.5024 145.471917 
L 95.6928 160.107007 
L 96.288 165.569728 
L 96.8832 167.228815 
L 97.4784 164.502972 
L 98.0736 158.242324 
L 99.264 143.824214 
L 99.8592 140.501409 
L 100.4544 141.671227 
L 101.0496 146.960713 
L 102.24 161.894901 
L 102.8352 166.383534 
L 103.4304 166.469571 
L 104.0256 162.110941 
L 105.216 147.151583 
L 105.8112 141.789469 
L 106.4064 140.61956 
L 107.0016 144.053567 
L 108.7872 164.799342 
L 109.3824 167.011082 
L 109.9776 164.58516 
L 110.5728 158.376929 
L 111.7632 143.828708 
L 112.3584 140.521474 
L 112.9536 141.756814 
L 113.5488 147.094088 
L 114.7392 161.972723 
L 115.3344 166.468039 
L 115.9296 166.686061 
L 116.5248 162.576613 
L 118.3104 142.154522 
L 118.9056 140.192996 
L 119.5008 142.609361 
L 120.096 148.597905 
L 121.2864 163.066317 
L 121.8816 166.981652 
L 122.4768 166.775126 
L 123.072 162.543245 
L 124.8576 142.291259 
L 125.4528 139.875525 
L 126.048 141.544062 
L 126.6432 146.77203 
L 127.8336 161.179393 
L 128.4288 166.238186 
L 129.024 167.794202 
L 129.6192 165.451782 
L 130.2144 159.893832 
L 131.4048 145.712325 
L 132 140.884616 
L 132.5952 139.419374 
L 133.1904 141.657653 
L 133.7856 146.984357 
L 134.976 160.9836 
L 135.5712 166.166871 
L 136.1664 168.32955 
L 136.7616 166.990457 
L 137.3568 162.511062 
L 139.1424 142.958176 
L 139.7376 139.403117 
L 140.3328 139.011096 
L 140.928 141.823696 
L 141.5232 147.192518 
L 142.7136 160.658888 
L 143.3088 165.954313 
L 143.904 168.784422 
L 144.4992 168.623751 
L 145.0944 165.549329 
L 145.6896 160.198041 
L 146.88 147.057431 
L 147.4752 141.714927 
L 148.0704 138.53386 
L 148.6656 138.041623 
L 149.2608 140.278751 
L 149.856 144.816444 
L 151.6416 163.29637 
L 152.2368 167.708428 
L 152.832 169.943439 
L 153.4272 169.699821 
L 154.0224 167.060602 
L 154.6176 162.459522 
L 156.9984 139.96948 
L 157.5936 137.236593 
L 158.1888 136.644723 
L 158.784 138.223859 
L 159.3792 141.731156 
L 160.5696 152.503206 
L 161.76 163.870566 
L 162.3552 168.168395 
L 162.9504 170.909086 
L 163.5456 171.84149 
L 164.1408 170.914207 
L 164.736 168.266498 
L 165.3312 164.20029 
L 166.5216 153.574682 
L 167.712 142.966972 
L 168.3072 138.822664 
L 168.9024 135.90508 
L 169.4976 134.411538 
L 170.0928 134.415177 
L 170.688 135.869863 
L 171.2832 138.624306 
L 171.8784 142.44295 
L 173.0688 152.061095 
L 174.8544 166.562302 
L 175.4496 170.272865 
L 176.0448 173.084843 
L 176.64 174.887476 
L 177.2352 175.632381 
L 177.8304 175.329185 
L 178.4256 174.03821 
L 179.0208 171.861157 
L 179.616 168.930701 
L 180.8064 161.431585 
L 183.7824 140.396911 
L 184.9728 133.623336 
L 186.1632 128.564768 
L 186.7584 126.709997 
L 187.3536 125.287983 
L 187.9488 124.269765 
L 188.544 123.616733 
L 189.1392 123.283276 
L 189.7344 123.219174 
L 190.9248 126.653751 
L 195.0912 139.699892 
L 196.2816 142.735162 
L 197.472 145.292421 
L 198.6624 147.37912 
L 199.8528 149.035108 
L 201.0432 150.317251 
L 202.2336 151.288154 
L 203.424 152.008673 
L 205.2096 152.737556 
L 206.9952 153.174372 
L 209.376 153.484305 
L 212.9472 153.663751 
L 220.0896 153.726951 
L 299.2512 153.73083 
L 378.4128 153.73083 
L 378.4128 153.73083 
" style="fill:none;stroke:#d62728;stroke-linecap:square;stroke-width:1.5;"/>
   </g>
   <g id="patch_3">
    <path d="M 57.6 307.584 
L 57.6 41.472 
" style="fill:none;stroke:#000000;stroke-linecap:square;stroke-linejoin:miter;stroke-width:0.8;"/>
   </g>
   <g id="patch_4">
    <path d="M 414.72 307.584 
L 414.72 41.472 
" style="fill:none;stroke:#000000;stroke-linecap:square;stroke-linejoin:miter;stroke-width:0.8;"/>
   </g>
   <g id="patch_5">
    <path d="M 57.6 307.584 
L 414.72 307.584 
" style="fill:none;stroke:#000000;stroke-linecap:square;stroke-linejoin:miter;stroke-width:0.8;"/>
   </g>
   <g id="patch_6">
    <path d="M 57.6 41.472 
L 414.72 41.472 
" style="fill:none;stroke:#000000;stroke-linecap:square;stroke-linejoin:miter;stroke-width:0.8;"/>
   </g>
   <g id="legend_1">
    <g id="patch_7">
     <path d="M 322.990313 108.1845 
L 407.72 108.1845 
Q 409.72 108.1845 409.72 106.1845 
L 409.72 48.472 
Q 409.72 46.472 407.72 46.472 
L 322.990313 46.472 
Q 320.990313 46.472 320.990313 48.472 
L 320.990313 106.1845 
Q 320.990313 108.1845 322.990313 108.1845 
z
" style="fill:#ffffff;opacity:0.8;stroke:#cccccc;stroke-linejoin:miter;"/>
    </g>
    <g id="line2d_17">
     <path d="M 324.990313 54.570438 
L 344.990313 54.570438 
" style="fill:none;stroke:#1f77b4;stroke-linecap:square;stroke-width:1.5;"/>
    </g>
    <g id="line2d_18"/>
    <g id="text_15">
     <!-- Morse PEC -->
     <g transform="translate(352.990313 58.070438)scale(0.1 -0.1)">
      <defs>
       <path d="M 628 4666 
L 1569 4666 
L 2759 1491 
L 3956 4666 
L 4897 4666 
L 4897 0 
L 4281 0 
L 4281 4097 
L 3078 897 
L 2444 897 
L 1241 4097 
L 1241 0 
L 628 0 
L 628 4666 
z
" id="DejaVuSans-4d" transform="scale(0.015625)"/>
       <path d="M 1259 4147 
L 1259 2394 
L 2053 2394 
Q 2494 2394 2734 2622 
Q 2975 2850 2975 3272 
Q 2975 3691 2734 3919 
Q 2494 4147 2053 4147 
L 1259 4147 
z
M 628 4666 
L 2053 4666 
Q 2838 4666 3239 4311 
Q 3641 3956 3641 3272 
Q 3641 2581 3239 2228 
Q 2838 1875 2053 1875 
L 1259 1875 
L 1259 0 
L 628 0 
L 628 4666 
z
" id="DejaVuSans-50" transform="scale(0.015625)"/>
       <path d="M 628 4666 
L 3578 4666 
L 3578 4134 
L 1259 4134 
L 1259 2753 
L 3481 2753 
L 3481 2222 
L 1259 2222 
L 1259 531 
L 3634 531 
L 3634 0 
L 628 0 
L 628 4666 
z
" id="DejaVuSans-45" transform="scale(0.015625)"/>
       <path d="M 4122 4306 
L 4122 3641 
Q 3803 3938 3442 4084 
Q 3081 4231 2675 4231 
Q 1875 4231 1450 3742 
Q 1025 3253 1025 2328 
Q 1025 1406 1450 917 
Q 1875 428 2675 428 
Q 3081 428 3442 575 
Q 3803 722 4122 1019 
L 4122 359 
Q 3791 134 3420 21 
Q 3050 -91 2638 -91 
Q 1578 -91 968 557 
Q 359 1206 359 2328 
Q 359 3453 968 4101 
Q 1578 4750 2638 4750 
Q 3056 4750 3426 4639 
Q 3797 4528 4122 4306 
z
" id="DejaVuSans-43" transform="scale(0.015625)"/>
      </defs>
      <use xlink:href="#DejaVuSans-4d"/>
      <use x="86.279297" xlink:href="#DejaVuSans-6f"/>
      <use x="147.460938" xlink:href="#DejaVuSans-72"/>
      <use x="188.574219" xlink:href="#DejaVuSans-73"/>
      <use x="240.673828" xlink:href="#DejaVuSans-65"/>
      <use x="302.197266" xlink:href="#DejaVuSans-20"/>
      <use x="333.984375" xlink:href="#DejaVuSans-50"/>
      <use x="394.287109" xlink:href="#DejaVuSans-45"/>
      <use x="457.470703" xlink:href="#DejaVuSans-43"/>
     </g>
    </g>
    <g id="line2d_19">
     <path d="M 324.990313 69.248563 
L 344.990313 69.248563 
" style="fill:none;stroke:#ff7f0e;stroke-linecap:square;stroke-width:1.5;"/>
    </g>
    <g id="line2d_20"/>
    <g id="text_16">
     <!-- $v=0$ -->
     <g transform="translate(352.990313 72.748563)scale(0.1 -0.1)">
      <defs>
       <path d="M 459 3500 
L 1069 3500 
L 1581 525 
L 3256 3500 
L 3866 3500 
L 1875 0 
L 1100 0 
L 459 3500 
z
" id="DejaVuSans-Oblique-76" transform="scale(0.015625)"/>
       <path d="M 678 2906 
L 4684 2906 
L 4684 2381 
L 678 2381 
L 678 2906 
z
M 678 1631 
L 4684 1631 
L 4684 1100 
L 678 1100 
L 678 1631 
z
" id="DejaVuSans-3d" transform="scale(0.015625)"/>
      </defs>
      <use transform="translate(0 0.78125)" xlink:href="#DejaVuSans-Oblique-76"/>
      <use transform="translate(78.662109 0.78125)" xlink:href="#DejaVuSans-3d"/>
      <use transform="translate(181.933594 0.78125)" xlink:href="#DejaVuSans-30"/>
     </g>
    </g>
    <g id="line2d_21">
     <path d="M 324.990313 83.926688 
L 344.990313 83.926688 
" style="fill:none;stroke:#2ca02c;stroke-linecap:square;stroke-width:1.5;"/>
    </g>
    <g id="line2d_22"/>
    <g id="text_17">
     <!-- $v=1$ -->
     <g transform="translate(352.990313 87.426688)scale(0.1 -0.1)">
      <use transform="translate(0 0.09375)" xlink:href="#DejaVuSans-Oblique-76"/>
      <use transform="translate(78.662109 0.09375)" xlink:href="#DejaVuSans-3d"/>
      <use transform="translate(181.933594 0.09375)" xlink:href="#DejaVuSans-31"/>
     </g>
    </g>
    <g id="line2d_23">
     <path d="M 324.990313 98.604813 
L 344.990313 98.604813 
" style="fill:none;stroke:#d62728;stroke-linecap:square;stroke-width:1.5;"/>
    </g>
    <g id="line2d_24"/>
    <g id="text_18">
     <!-- $v=25$ -->
     <g transform="translate(352.990313 102.104813)scale(0.1 -0.1)">
      <use transform="translate(0 0.78125)" xlink:href="#DejaVuSans-Oblique-76"/>
      <use transform="translate(78.662109 0.78125)" xlink:href="#DejaVuSans-3d"/>
      <use transform="translate(181.933594 0.78125)" xlink:href="#DejaVuSans-32"/>
      <use transform="translate(245.556641 0.78125)" xlink:href="#DejaVuSans-35"/>
     </g>
    </g>
   </g>
  </g>
 </g>
 <defs>
  <clipPath id="p87d22a1874">
   <rect height="266.112" width="357.12" x="57.6" y="41.472"/>
  </clipPath>
 </defs>
</svg>
