<?xml version="1.0" encoding="utf-8" standalone="no"?>
<!DOCTYPE svg PUBLIC "-//W3C//DTD SVG 1.1//EN"
  "http://www.w3.org/Graphics/SVG/1.1/DTD/svg11.dtd">
<svg height="345.6pt" version="1.1" viewBox="0 0 460.8 345.6" width="460.8pt" xmlns="http://www.w3.org/2000/svg" xmlns:xlink="http://www.w3.org/1999/xlink">
 <metadata>
  <rdf:RDF xmlns:cc="http://creativecommons.org/ns#" xmlns:dc="http://purl.org/dc/elements/1.1/" xmlns:rdf="http://www.w3.org/1999/02/22-rdf-syntax-ns#">
   <cc:Work>
    <dc:type rdf:resource="http://purl.org/dc/dcmitype/StillImage"/>
    <dc:date>2022-02-24T16:39:44.244012</dc:date>
    <dc:format>image/svg+xml</dc:format>
    <dc:creator>
     <cc:Agent>
      <dc:title>Matplotlib v3.4.3, https://matplotlib.org/</dc:title>
     </cc:Agent>
    </dc:creator>
   </cc:Work>
  </rdf:RDF>
 </metadata>
 <defs>
  <style type="text/css">*{stroke-linecap:butt;stroke-linejoin:round;}</style>
 </defs>
 <g id="figure_1">
  <g id="patch_1">
   <path d="M 0 345.6 
L 460.8 345.6 
L 460.8 0 
L 0 0 
z
" style="fill:#ffffff;"/>
  </g>
  <g id="axes_1">
   <g id="patch_2">
    <path d="M 57.6 307.584 
L 228.396522 307.584 
L 228.396522 41.472 
L 57.6 41.472 
z
" style="fill:#ffffff;"/>
   </g>
   <g id="matplotlib.axis_1">
    <g id="xtick_1">
     <g id="line2d_1">
      <defs>
       <path d="M 0 0 
L 0 3.5 
" id="m4a43b6cdc2" style="stroke:#000000;stroke-width:0.8;"/>
      </defs>
      <g>
       <use style="stroke:#000000;stroke-width:0.8;" x="217.721739" xlink:href="#m4a43b6cdc2" y="307.584"/>
      </g>
     </g>
     <g id="text_1">
      <!-- 0.0 -->
      <g transform="translate(209.770177 322.182437)scale(0.1 -0.1)">
       <defs>
        <path d="M 2034 4250 
Q 1547 4250 1301 3770 
Q 1056 3291 1056 2328 
Q 1056 1369 1301 889 
Q 1547 409 2034 409 
Q 2525 409 2770 889 
Q 3016 1369 3016 2328 
Q 3016 3291 2770 3770 
Q 2525 4250 2034 4250 
z
M 2034 4750 
Q 2819 4750 3233 4129 
Q 3647 3509 3647 2328 
Q 3647 1150 3233 529 
Q 2819 -91 2034 -91 
Q 1250 -91 836 529 
Q 422 1150 422 2328 
Q 422 3509 836 4129 
Q 1250 4750 2034 4750 
z
" id="DejaVuSans-30" transform="scale(0.015625)"/>
        <path d="M 684 794 
L 1344 794 
L 1344 0 
L 684 0 
L 684 794 
z
" id="DejaVuSans-2e" transform="scale(0.015625)"/>
       </defs>
       <use xlink:href="#DejaVuSans-30"/>
       <use x="63.623047" xlink:href="#DejaVuSans-2e"/>
       <use x="95.410156" xlink:href="#DejaVuSans-30"/>
      </g>
     </g>
    </g>
    <g id="xtick_2">
     <g id="line2d_2">
      <g>
       <use style="stroke:#000000;stroke-width:0.8;" x="164.347826" xlink:href="#m4a43b6cdc2" y="307.584"/>
      </g>
     </g>
     <g id="text_2">
      <!-- 0.5 -->
      <g transform="translate(156.396264 322.182437)scale(0.1 -0.1)">
       <defs>
        <path d="M 691 4666 
L 3169 4666 
L 3169 4134 
L 1269 4134 
L 1269 2991 
Q 1406 3038 1543 3061 
Q 1681 3084 1819 3084 
Q 2600 3084 3056 2656 
Q 3513 2228 3513 1497 
Q 3513 744 3044 326 
Q 2575 -91 1722 -91 
Q 1428 -91 1123 -41 
Q 819 9 494 109 
L 494 744 
Q 775 591 1075 516 
Q 1375 441 1709 441 
Q 2250 441 2565 725 
Q 2881 1009 2881 1497 
Q 2881 1984 2565 2268 
Q 2250 2553 1709 2553 
Q 1456 2553 1204 2497 
Q 953 2441 691 2322 
L 691 4666 
z
" id="DejaVuSans-35" transform="scale(0.015625)"/>
       </defs>
       <use xlink:href="#DejaVuSans-30"/>
       <use x="63.623047" xlink:href="#DejaVuSans-2e"/>
       <use x="95.410156" xlink:href="#DejaVuSans-35"/>
      </g>
     </g>
    </g>
    <g id="xtick_3">
     <g id="line2d_3">
      <g>
       <use style="stroke:#000000;stroke-width:0.8;" x="110.973913" xlink:href="#m4a43b6cdc2" y="307.584"/>
      </g>
     </g>
     <g id="text_3">
      <!-- 1.0 -->
      <g transform="translate(103.022351 322.182437)scale(0.1 -0.1)">
       <defs>
        <path d="M 794 531 
L 1825 531 
L 1825 4091 
L 703 3866 
L 703 4441 
L 1819 4666 
L 2450 4666 
L 2450 531 
L 3481 531 
L 3481 0 
L 794 0 
L 794 531 
z
" id="DejaVuSans-31" transform="scale(0.015625)"/>
       </defs>
       <use xlink:href="#DejaVuSans-31"/>
       <use x="63.623047" xlink:href="#DejaVuSans-2e"/>
       <use x="95.410156" xlink:href="#DejaVuSans-30"/>
      </g>
     </g>
    </g>
    <g id="xtick_4">
     <g id="line2d_4">
      <g>
       <use style="stroke:#000000;stroke-width:0.8;" x="57.6" xlink:href="#m4a43b6cdc2" y="307.584"/>
      </g>
     </g>
     <g id="text_4">
      <!-- 1.5 -->
      <g transform="translate(49.648438 322.182437)scale(0.1 -0.1)">
       <use xlink:href="#DejaVuSans-31"/>
       <use x="63.623047" xlink:href="#DejaVuSans-2e"/>
       <use x="95.410156" xlink:href="#DejaVuSans-35"/>
      </g>
     </g>
    </g>
    <g id="text_5">
     <!-- cross section (cm$^{2}$) -->
     <g transform="translate(94.798261 336.682437)scale(0.1 -0.1)">
      <defs>
       <path d="M 3122 3366 
L 3122 2828 
Q 2878 2963 2633 3030 
Q 2388 3097 2138 3097 
Q 1578 3097 1268 2742 
Q 959 2388 959 1747 
Q 959 1106 1268 751 
Q 1578 397 2138 397 
Q 2388 397 2633 464 
Q 2878 531 3122 666 
L 3122 134 
Q 2881 22 2623 -34 
Q 2366 -91 2075 -91 
Q 1284 -91 818 406 
Q 353 903 353 1747 
Q 353 2603 823 3093 
Q 1294 3584 2113 3584 
Q 2378 3584 2631 3529 
Q 2884 3475 3122 3366 
z
" id="DejaVuSans-63" transform="scale(0.015625)"/>
       <path d="M 2631 2963 
Q 2534 3019 2420 3045 
Q 2306 3072 2169 3072 
Q 1681 3072 1420 2755 
Q 1159 2438 1159 1844 
L 1159 0 
L 581 0 
L 581 3500 
L 1159 3500 
L 1159 2956 
Q 1341 3275 1631 3429 
Q 1922 3584 2338 3584 
Q 2397 3584 2469 3576 
Q 2541 3569 2628 3553 
L 2631 2963 
z
" id="DejaVuSans-72" transform="scale(0.015625)"/>
       <path d="M 1959 3097 
Q 1497 3097 1228 2736 
Q 959 2375 959 1747 
Q 959 1119 1226 758 
Q 1494 397 1959 397 
Q 2419 397 2687 759 
Q 2956 1122 2956 1747 
Q 2956 2369 2687 2733 
Q 2419 3097 1959 3097 
z
M 1959 3584 
Q 2709 3584 3137 3096 
Q 3566 2609 3566 1747 
Q 3566 888 3137 398 
Q 2709 -91 1959 -91 
Q 1206 -91 779 398 
Q 353 888 353 1747 
Q 353 2609 779 3096 
Q 1206 3584 1959 3584 
z
" id="DejaVuSans-6f" transform="scale(0.015625)"/>
       <path d="M 2834 3397 
L 2834 2853 
Q 2591 2978 2328 3040 
Q 2066 3103 1784 3103 
Q 1356 3103 1142 2972 
Q 928 2841 928 2578 
Q 928 2378 1081 2264 
Q 1234 2150 1697 2047 
L 1894 2003 
Q 2506 1872 2764 1633 
Q 3022 1394 3022 966 
Q 3022 478 2636 193 
Q 2250 -91 1575 -91 
Q 1294 -91 989 -36 
Q 684 19 347 128 
L 347 722 
Q 666 556 975 473 
Q 1284 391 1588 391 
Q 1994 391 2212 530 
Q 2431 669 2431 922 
Q 2431 1156 2273 1281 
Q 2116 1406 1581 1522 
L 1381 1569 
Q 847 1681 609 1914 
Q 372 2147 372 2553 
Q 372 3047 722 3315 
Q 1072 3584 1716 3584 
Q 2034 3584 2315 3537 
Q 2597 3491 2834 3397 
z
" id="DejaVuSans-73" transform="scale(0.015625)"/>
       <path id="DejaVuSans-20" transform="scale(0.015625)"/>
       <path d="M 3597 1894 
L 3597 1613 
L 953 1613 
Q 991 1019 1311 708 
Q 1631 397 2203 397 
Q 2534 397 2845 478 
Q 3156 559 3463 722 
L 3463 178 
Q 3153 47 2828 -22 
Q 2503 -91 2169 -91 
Q 1331 -91 842 396 
Q 353 884 353 1716 
Q 353 2575 817 3079 
Q 1281 3584 2069 3584 
Q 2775 3584 3186 3129 
Q 3597 2675 3597 1894 
z
M 3022 2063 
Q 3016 2534 2758 2815 
Q 2500 3097 2075 3097 
Q 1594 3097 1305 2825 
Q 1016 2553 972 2059 
L 3022 2063 
z
" id="DejaVuSans-65" transform="scale(0.015625)"/>
       <path d="M 1172 4494 
L 1172 3500 
L 2356 3500 
L 2356 3053 
L 1172 3053 
L 1172 1153 
Q 1172 725 1289 603 
Q 1406 481 1766 481 
L 2356 481 
L 2356 0 
L 1766 0 
Q 1100 0 847 248 
Q 594 497 594 1153 
L 594 3053 
L 172 3053 
L 172 3500 
L 594 3500 
L 594 4494 
L 1172 4494 
z
" id="DejaVuSans-74" transform="scale(0.015625)"/>
       <path d="M 603 3500 
L 1178 3500 
L 1178 0 
L 603 0 
L 603 3500 
z
M 603 4863 
L 1178 4863 
L 1178 4134 
L 603 4134 
L 603 4863 
z
" id="DejaVuSans-69" transform="scale(0.015625)"/>
       <path d="M 3513 2113 
L 3513 0 
L 2938 0 
L 2938 2094 
Q 2938 2591 2744 2837 
Q 2550 3084 2163 3084 
Q 1697 3084 1428 2787 
Q 1159 2491 1159 1978 
L 1159 0 
L 581 0 
L 581 3500 
L 1159 3500 
L 1159 2956 
Q 1366 3272 1645 3428 
Q 1925 3584 2291 3584 
Q 2894 3584 3203 3211 
Q 3513 2838 3513 2113 
z
" id="DejaVuSans-6e" transform="scale(0.015625)"/>
       <path d="M 1984 4856 
Q 1566 4138 1362 3434 
Q 1159 2731 1159 2009 
Q 1159 1288 1364 580 
Q 1569 -128 1984 -844 
L 1484 -844 
Q 1016 -109 783 600 
Q 550 1309 550 2009 
Q 550 2706 781 3412 
Q 1013 4119 1484 4856 
L 1984 4856 
z
" id="DejaVuSans-28" transform="scale(0.015625)"/>
       <path d="M 3328 2828 
Q 3544 3216 3844 3400 
Q 4144 3584 4550 3584 
Q 5097 3584 5394 3201 
Q 5691 2819 5691 2113 
L 5691 0 
L 5113 0 
L 5113 2094 
Q 5113 2597 4934 2840 
Q 4756 3084 4391 3084 
Q 3944 3084 3684 2787 
Q 3425 2491 3425 1978 
L 3425 0 
L 2847 0 
L 2847 2094 
Q 2847 2600 2669 2842 
Q 2491 3084 2119 3084 
Q 1678 3084 1418 2786 
Q 1159 2488 1159 1978 
L 1159 0 
L 581 0 
L 581 3500 
L 1159 3500 
L 1159 2956 
Q 1356 3278 1631 3431 
Q 1906 3584 2284 3584 
Q 2666 3584 2933 3390 
Q 3200 3197 3328 2828 
z
" id="DejaVuSans-6d" transform="scale(0.015625)"/>
       <path d="M 1228 531 
L 3431 531 
L 3431 0 
L 469 0 
L 469 531 
Q 828 903 1448 1529 
Q 2069 2156 2228 2338 
Q 2531 2678 2651 2914 
Q 2772 3150 2772 3378 
Q 2772 3750 2511 3984 
Q 2250 4219 1831 4219 
Q 1534 4219 1204 4116 
Q 875 4013 500 3803 
L 500 4441 
Q 881 4594 1212 4672 
Q 1544 4750 1819 4750 
Q 2544 4750 2975 4387 
Q 3406 4025 3406 3419 
Q 3406 3131 3298 2873 
Q 3191 2616 2906 2266 
Q 2828 2175 2409 1742 
Q 1991 1309 1228 531 
z
" id="DejaVuSans-32" transform="scale(0.015625)"/>
       <path d="M 513 4856 
L 1013 4856 
Q 1481 4119 1714 3412 
Q 1947 2706 1947 2009 
Q 1947 1309 1714 600 
Q 1481 -109 1013 -844 
L 513 -844 
Q 928 -128 1133 580 
Q 1338 1288 1338 2009 
Q 1338 2731 1133 3434 
Q 928 4138 513 4856 
z
" id="DejaVuSans-29" transform="scale(0.015625)"/>
      </defs>
      <use transform="translate(0 0.765625)" xlink:href="#DejaVuSans-63"/>
      <use transform="translate(54.980469 0.765625)" xlink:href="#DejaVuSans-72"/>
      <use transform="translate(96.09375 0.765625)" xlink:href="#DejaVuSans-6f"/>
      <use transform="translate(157.275391 0.765625)" xlink:href="#DejaVuSans-73"/>
      <use transform="translate(209.375 0.765625)" xlink:href="#DejaVuSans-73"/>
      <use transform="translate(261.474609 0.765625)" xlink:href="#DejaVuSans-20"/>
      <use transform="translate(293.261719 0.765625)" xlink:href="#DejaVuSans-73"/>
      <use transform="translate(345.361328 0.765625)" xlink:href="#DejaVuSans-65"/>
      <use transform="translate(406.884766 0.765625)" xlink:href="#DejaVuSans-63"/>
      <use transform="translate(461.865234 0.765625)" xlink:href="#DejaVuSans-74"/>
      <use transform="translate(501.074219 0.765625)" xlink:href="#DejaVuSans-69"/>
      <use transform="translate(528.857422 0.765625)" xlink:href="#DejaVuSans-6f"/>
      <use transform="translate(590.039062 0.765625)" xlink:href="#DejaVuSans-6e"/>
      <use transform="translate(653.417969 0.765625)" xlink:href="#DejaVuSans-20"/>
      <use transform="translate(685.205078 0.765625)" xlink:href="#DejaVuSans-28"/>
      <use transform="translate(724.21875 0.765625)" xlink:href="#DejaVuSans-63"/>
      <use transform="translate(779.199219 0.765625)" xlink:href="#DejaVuSans-6d"/>
      <use transform="translate(877.568359 39.046875)scale(0.7)" xlink:href="#DejaVuSans-32"/>
      <use transform="translate(924.838867 0.765625)" xlink:href="#DejaVuSans-29"/>
     </g>
    </g>
    <g id="text_6">
     <!-- 1e−17 -->
     <g transform="translate(194.776209 334.860562)scale(0.1 -0.1)">
      <defs>
       <path d="M 678 2272 
L 4684 2272 
L 4684 1741 
L 678 1741 
L 678 2272 
z
" id="DejaVuSans-2212" transform="scale(0.015625)"/>
       <path d="M 525 4666 
L 3525 4666 
L 3525 4397 
L 1831 0 
L 1172 0 
L 2766 4134 
L 525 4134 
L 525 4666 
z
" id="DejaVuSans-37" transform="scale(0.015625)"/>
      </defs>
      <use xlink:href="#DejaVuSans-31"/>
      <use x="63.623047" xlink:href="#DejaVuSans-65"/>
      <use x="125.146484" xlink:href="#DejaVuSans-2212"/>
      <use x="208.935547" xlink:href="#DejaVuSans-31"/>
      <use x="272.558594" xlink:href="#DejaVuSans-37"/>
     </g>
    </g>
   </g>
   <g id="matplotlib.axis_2">
    <g id="ytick_1">
     <g id="line2d_5">
      <defs>
       <path d="M 0 0 
L -3.5 0 
" id="m5295ac99d9" style="stroke:#000000;stroke-width:0.8;"/>
      </defs>
      <g>
       <use style="stroke:#000000;stroke-width:0.8;" x="57.6" xlink:href="#m5295ac99d9" y="307.584"/>
      </g>
     </g>
     <g id="text_7">
      <!-- 4 -->
      <g transform="translate(44.2375 311.383219)scale(0.1 -0.1)">
       <defs>
        <path d="M 2419 4116 
L 825 1625 
L 2419 1625 
L 2419 4116 
z
M 2253 4666 
L 3047 4666 
L 3047 1625 
L 3713 1625 
L 3713 1100 
L 3047 1100 
L 3047 0 
L 2419 0 
L 2419 1100 
L 313 1100 
L 313 1709 
L 2253 4666 
z
" id="DejaVuSans-34" transform="scale(0.015625)"/>
       </defs>
       <use xlink:href="#DejaVuSans-34"/>
      </g>
     </g>
    </g>
    <g id="ytick_2">
     <g id="line2d_6">
      <g>
       <use style="stroke:#000000;stroke-width:0.8;" x="57.6" xlink:href="#m5295ac99d9" y="263.232"/>
      </g>
     </g>
     <g id="text_8">
      <!-- 5 -->
      <g transform="translate(44.2375 267.031219)scale(0.1 -0.1)">
       <use xlink:href="#DejaVuSans-35"/>
      </g>
     </g>
    </g>
    <g id="ytick_3">
     <g id="line2d_7">
      <g>
       <use style="stroke:#000000;stroke-width:0.8;" x="57.6" xlink:href="#m5295ac99d9" y="218.88"/>
      </g>
     </g>
     <g id="text_9">
      <!-- 6 -->
      <g transform="translate(44.2375 222.679219)scale(0.1 -0.1)">
       <defs>
        <path d="M 2113 2584 
Q 1688 2584 1439 2293 
Q 1191 2003 1191 1497 
Q 1191 994 1439 701 
Q 1688 409 2113 409 
Q 2538 409 2786 701 
Q 3034 994 3034 1497 
Q 3034 2003 2786 2293 
Q 2538 2584 2113 2584 
z
M 3366 4563 
L 3366 3988 
Q 3128 4100 2886 4159 
Q 2644 4219 2406 4219 
Q 1781 4219 1451 3797 
Q 1122 3375 1075 2522 
Q 1259 2794 1537 2939 
Q 1816 3084 2150 3084 
Q 2853 3084 3261 2657 
Q 3669 2231 3669 1497 
Q 3669 778 3244 343 
Q 2819 -91 2113 -91 
Q 1303 -91 875 529 
Q 447 1150 447 2328 
Q 447 3434 972 4092 
Q 1497 4750 2381 4750 
Q 2619 4750 2861 4703 
Q 3103 4656 3366 4563 
z
" id="DejaVuSans-36" transform="scale(0.015625)"/>
       </defs>
       <use xlink:href="#DejaVuSans-36"/>
      </g>
     </g>
    </g>
    <g id="ytick_4">
     <g id="line2d_8">
      <g>
       <use style="stroke:#000000;stroke-width:0.8;" x="57.6" xlink:href="#m5295ac99d9" y="174.528"/>
      </g>
     </g>
     <g id="text_10">
      <!-- 7 -->
      <g transform="translate(44.2375 178.327219)scale(0.1 -0.1)">
       <use xlink:href="#DejaVuSans-37"/>
      </g>
     </g>
    </g>
    <g id="ytick_5">
     <g id="line2d_9">
      <g>
       <use style="stroke:#000000;stroke-width:0.8;" x="57.6" xlink:href="#m5295ac99d9" y="130.176"/>
      </g>
     </g>
     <g id="text_11">
      <!-- 8 -->
      <g transform="translate(44.2375 133.975219)scale(0.1 -0.1)">
       <defs>
        <path d="M 2034 2216 
Q 1584 2216 1326 1975 
Q 1069 1734 1069 1313 
Q 1069 891 1326 650 
Q 1584 409 2034 409 
Q 2484 409 2743 651 
Q 3003 894 3003 1313 
Q 3003 1734 2745 1975 
Q 2488 2216 2034 2216 
z
M 1403 2484 
Q 997 2584 770 2862 
Q 544 3141 544 3541 
Q 544 4100 942 4425 
Q 1341 4750 2034 4750 
Q 2731 4750 3128 4425 
Q 3525 4100 3525 3541 
Q 3525 3141 3298 2862 
Q 3072 2584 2669 2484 
Q 3125 2378 3379 2068 
Q 3634 1759 3634 1313 
Q 3634 634 3220 271 
Q 2806 -91 2034 -91 
Q 1263 -91 848 271 
Q 434 634 434 1313 
Q 434 1759 690 2068 
Q 947 2378 1403 2484 
z
M 1172 3481 
Q 1172 3119 1398 2916 
Q 1625 2713 2034 2713 
Q 2441 2713 2670 2916 
Q 2900 3119 2900 3481 
Q 2900 3844 2670 4047 
Q 2441 4250 2034 4250 
Q 1625 4250 1398 4047 
Q 1172 3844 1172 3481 
z
" id="DejaVuSans-38" transform="scale(0.015625)"/>
       </defs>
       <use xlink:href="#DejaVuSans-38"/>
      </g>
     </g>
    </g>
    <g id="ytick_6">
     <g id="line2d_10">
      <g>
       <use style="stroke:#000000;stroke-width:0.8;" x="57.6" xlink:href="#m5295ac99d9" y="85.824"/>
      </g>
     </g>
     <g id="text_12">
      <!-- 9 -->
      <g transform="translate(44.2375 89.623219)scale(0.1 -0.1)">
       <defs>
        <path d="M 703 97 
L 703 672 
Q 941 559 1184 500 
Q 1428 441 1663 441 
Q 2288 441 2617 861 
Q 2947 1281 2994 2138 
Q 2813 1869 2534 1725 
Q 2256 1581 1919 1581 
Q 1219 1581 811 2004 
Q 403 2428 403 3163 
Q 403 3881 828 4315 
Q 1253 4750 1959 4750 
Q 2769 4750 3195 4129 
Q 3622 3509 3622 2328 
Q 3622 1225 3098 567 
Q 2575 -91 1691 -91 
Q 1453 -91 1209 -44 
Q 966 3 703 97 
z
M 1959 2075 
Q 2384 2075 2632 2365 
Q 2881 2656 2881 3163 
Q 2881 3666 2632 3958 
Q 2384 4250 1959 4250 
Q 1534 4250 1286 3958 
Q 1038 3666 1038 3163 
Q 1038 2656 1286 2365 
Q 1534 2075 1959 2075 
z
" id="DejaVuSans-39" transform="scale(0.015625)"/>
       </defs>
       <use xlink:href="#DejaVuSans-39"/>
      </g>
     </g>
    </g>
    <g id="ytick_7">
     <g id="line2d_11">
      <g>
       <use style="stroke:#000000;stroke-width:0.8;" x="57.6" xlink:href="#m5295ac99d9" y="41.472"/>
      </g>
     </g>
     <g id="text_13">
      <!-- 10 -->
      <g transform="translate(37.875 45.271219)scale(0.1 -0.1)">
       <use xlink:href="#DejaVuSans-31"/>
       <use x="63.623047" xlink:href="#DejaVuSans-30"/>
      </g>
     </g>
    </g>
    <g id="text_14">
     <!-- wavnumber ($10^4$cm$^{-1}$) -->
     <g transform="translate(31.795312 231.428)rotate(-90)scale(0.1 -0.1)">
      <defs>
       <path d="M 269 3500 
L 844 3500 
L 1563 769 
L 2278 3500 
L 2956 3500 
L 3675 769 
L 4391 3500 
L 4966 3500 
L 4050 0 
L 3372 0 
L 2619 2869 
L 1863 0 
L 1184 0 
L 269 3500 
z
" id="DejaVuSans-77" transform="scale(0.015625)"/>
       <path d="M 2194 1759 
Q 1497 1759 1228 1600 
Q 959 1441 959 1056 
Q 959 750 1161 570 
Q 1363 391 1709 391 
Q 2188 391 2477 730 
Q 2766 1069 2766 1631 
L 2766 1759 
L 2194 1759 
z
M 3341 1997 
L 3341 0 
L 2766 0 
L 2766 531 
Q 2569 213 2275 61 
Q 1981 -91 1556 -91 
Q 1019 -91 701 211 
Q 384 513 384 1019 
Q 384 1609 779 1909 
Q 1175 2209 1959 2209 
L 2766 2209 
L 2766 2266 
Q 2766 2663 2505 2880 
Q 2244 3097 1772 3097 
Q 1472 3097 1187 3025 
Q 903 2953 641 2809 
L 641 3341 
Q 956 3463 1253 3523 
Q 1550 3584 1831 3584 
Q 2591 3584 2966 3190 
Q 3341 2797 3341 1997 
z
" id="DejaVuSans-61" transform="scale(0.015625)"/>
       <path d="M 191 3500 
L 800 3500 
L 1894 563 
L 2988 3500 
L 3597 3500 
L 2284 0 
L 1503 0 
L 191 3500 
z
" id="DejaVuSans-76" transform="scale(0.015625)"/>
       <path d="M 544 1381 
L 544 3500 
L 1119 3500 
L 1119 1403 
Q 1119 906 1312 657 
Q 1506 409 1894 409 
Q 2359 409 2629 706 
Q 2900 1003 2900 1516 
L 2900 3500 
L 3475 3500 
L 3475 0 
L 2900 0 
L 2900 538 
Q 2691 219 2414 64 
Q 2138 -91 1772 -91 
Q 1169 -91 856 284 
Q 544 659 544 1381 
z
M 1991 3584 
L 1991 3584 
z
" id="DejaVuSans-75" transform="scale(0.015625)"/>
       <path d="M 3116 1747 
Q 3116 2381 2855 2742 
Q 2594 3103 2138 3103 
Q 1681 3103 1420 2742 
Q 1159 2381 1159 1747 
Q 1159 1113 1420 752 
Q 1681 391 2138 391 
Q 2594 391 2855 752 
Q 3116 1113 3116 1747 
z
M 1159 2969 
Q 1341 3281 1617 3432 
Q 1894 3584 2278 3584 
Q 2916 3584 3314 3078 
Q 3713 2572 3713 1747 
Q 3713 922 3314 415 
Q 2916 -91 2278 -91 
Q 1894 -91 1617 61 
Q 1341 213 1159 525 
L 1159 0 
L 581 0 
L 581 4863 
L 1159 4863 
L 1159 2969 
z
" id="DejaVuSans-62" transform="scale(0.015625)"/>
      </defs>
      <use transform="translate(0 0.684375)" xlink:href="#DejaVuSans-77"/>
      <use transform="translate(81.787109 0.684375)" xlink:href="#DejaVuSans-61"/>
      <use transform="translate(143.066406 0.684375)" xlink:href="#DejaVuSans-76"/>
      <use transform="translate(202.246094 0.684375)" xlink:href="#DejaVuSans-6e"/>
      <use transform="translate(265.625 0.684375)" xlink:href="#DejaVuSans-75"/>
      <use transform="translate(329.003906 0.684375)" xlink:href="#DejaVuSans-6d"/>
      <use transform="translate(426.416016 0.684375)" xlink:href="#DejaVuSans-62"/>
      <use transform="translate(489.892578 0.684375)" xlink:href="#DejaVuSans-65"/>
      <use transform="translate(551.416016 0.684375)" xlink:href="#DejaVuSans-72"/>
      <use transform="translate(592.529297 0.684375)" xlink:href="#DejaVuSans-20"/>
      <use transform="translate(624.316406 0.684375)" xlink:href="#DejaVuSans-28"/>
      <use transform="translate(663.330078 0.684375)" xlink:href="#DejaVuSans-31"/>
      <use transform="translate(726.953125 0.684375)" xlink:href="#DejaVuSans-30"/>
      <use transform="translate(791.533203 38.965625)scale(0.7)" xlink:href="#DejaVuSans-34"/>
      <use transform="translate(838.803711 0.684375)" xlink:href="#DejaVuSans-63"/>
      <use transform="translate(893.78418 0.684375)" xlink:href="#DejaVuSans-6d"/>
      <use transform="translate(992.15332 38.965625)scale(0.7)" xlink:href="#DejaVuSans-2212"/>
      <use transform="translate(1050.805664 38.965625)scale(0.7)" xlink:href="#DejaVuSans-31"/>
      <use transform="translate(1098.076172 0.684375)" xlink:href="#DejaVuSans-29"/>
     </g>
    </g>
   </g>
   <g id="line2d_12">
    <path clip-path="url(#p4dcf424da2)" d="M 216.711601 81.792 
L 215.805947 82.52376 
L 215.243252 83.25287 
L 214.905831 83.979342 
L 214.751679 84.703191 
L 214.787098 85.424432 
L 215.062036 86.143079 
L 215.686882 86.859145 
L 216.834122 87.572645 
L 217.535703 87.928437 
L 217.368304 88.283592 
L 206.140539 88.638113 
L 83.153336 88.992 
L 162.373524 89.345256 
L 189.626065 89.697882 
L 198.517295 90.049881 
L 194.393728 90.401253 
L 204.415864 90.752 
L 207.73899 91.451627 
L 211.051091 92.496425 
L 216.806639 94.569465 
L 217.406611 94.912844 
L 217.706366 95.25562 
L 217.595845 95.597795 
L 216.962121 95.939368 
L 215.702768 96.280344 
L 213.735787 96.620722 
L 207.459564 97.299692 
L 197.717205 97.976293 
L 183.443088 98.650537 
L 161.658 99.322435 
L 116.966487 100.325912 
L 123.459697 100.659244 
L 202.979913 101.655786 
L 215.619181 102.31728 
L 217.428392 102.647172 
L 217.701135 102.976496 
L 217.262009 103.305253 
L 215.585245 103.961072 
L 211.986998 105.265973 
L 209.91703 106.238798 
L 208.925194 106.884583 
L 208.29651 107.52817 
L 208.119702 108.16957 
L 208.253281 108.489453 
L 208.579393 108.808794 
L 209.160804 109.127593 
L 210.101961 109.445853 
L 211.556622 109.763574 
L 213.794572 110.080757 
L 216.881294 110.397405 
L 211.087013 110.713519 
L -1 110.761892 
M -1 111.312012 
L 132.074297 111.344148 
L 171.625938 111.658667 
L 183.176156 111.972656 
L 188.768679 112.286118 
L 194.67997 112.911463 
L 200.069774 113.845556 
L 216.703727 117.230806 
L 217.424013 117.535496 
L 217.719397 117.839682 
L 217.489304 118.143365 
L 216.63085 118.446545 
L 215.044583 118.749225 
L 212.631227 119.051406 
L 204.968729 119.654273 
L 192.887876 120.255158 
L 175.268854 120.854069 
L 149.700199 121.451016 
L 110.097756 122.04601 
L 80.552379 122.342777 
L -1 122.827565 
M -1 124.978778 
L 14.145003 124.992 
L 134.218705 125.283971 
L 182.503106 125.575468 
L 203.536076 125.866494 
L 212.852057 126.157049 
L 216.657694 126.447133 
L 217.709028 126.73675 
L 217.331023 127.025898 
L 214.723446 127.602798 
L 206.836816 129.036944 
L 203.49284 129.89192 
L 202.092659 130.459626 
L 201.396307 131.02552 
L 201.319798 131.307789 
L 201.41536 131.58961 
L 201.694873 131.870981 
L 202.746029 132.432382 
L 204.401452 132.992 
L 207.73816 133.828105 
L 214.871906 135.488454 
L 216.517035 136.03842 
L 217.485095 136.586658 
L 217.689338 136.860132 
L 217.704854 137.133176 
L 217.536621 137.405793 
L 216.692584 137.949746 
L 215.280184 138.492 
L 212.450237 139.30221 
L 205.514791 141.178047 
L 204.137561 141.710266 
L 203.263231 142.240841 
L 203.044599 142.505514 
L 202.995858 142.769778 
L 203.117399 143.033635 
L 203.420102 143.297085 
L 204.58365 143.822769 
L 206.467365 144.346839 
L 210.337399 145.129931 
L 215.688277 146.168471 
L 217.332304 146.685364 
L 217.679201 146.94322 
L 217.653166 147.200682 
L 217.23373 147.457753 
L 216.419764 147.714433 
L 213.69305 148.226624 
L 207.51477 148.992 
L 186.770744 151.267395 
L 182.432418 152.019027 
L 180.903086 152.518237 
L 180.648588 152.767281 
L 180.796219 153.015952 
L 181.398647 153.264251 
L 182.501592 153.512179 
L 186.597566 154.006925 
L 194.066351 154.500197 
L 216.035254 155.482342 
L 217.657135 155.726967 
L 214.903947 155.971228 
L 197.299872 156.458667 
L 155.473686 157.429223 
L 142.257952 157.912354 
L 129.687007 158.634384 
L 121.714231 159.353233 
L 116.177846 160.068923 
L 110.762568 161.018297 
L 106.574013 161.962138 
L 102.37525 163.134235 
L 98.315331 164.529572 
L 95.493702 165.683145 
L 93.089953 166.828442 
L 91.065786 167.965553 
L 89.338966 169.094564 
L 87.924584 170.215563 
L 86.993191 171.10665 
L 85.954529 172.43386 
L 85.475502 173.31245 
L 85.128585 174.403765 
L 85.073614 174.838154 
L 85.202547 175.054893 
L 85.059995 175.27133 
L 85.117105 176.134061 
L 85.342739 176.992 
L 85.993436 178.270008 
L 86.615793 179.116138 
L 87.60438 180.167258 
L 88.818332 181.211178 
L 90.545082 182.454483 
L 93.319102 184.096478 
L 96.583518 185.720745 
L 99.809591 187.127662 
L 106.021105 189.508989 
L 112.32188 191.658667 
L 121.505486 194.540134 
L 136.724482 199.034553 
L 171.146544 209.171104 
L 180.000412 212.056615 
L 186.488109 214.387973 
L 191.802704 216.517424 
L 196.434967 218.613622 
L 200.135451 220.519728 
L 203.325604 222.39875 
L 206.049232 224.251259 
L 208.354911 226.077814 
L 210.282786 227.878957 
L 211.757411 229.508129 
L 212.23162 230.095448 
L 212.23162 230.095448 
" style="fill:none;stroke:#1f77b4;stroke-linecap:square;stroke-width:1.5;"/>
   </g>
   <g id="line2d_13">
    <path clip-path="url(#p4dcf424da2)" d="M 217.710823 81.792 
L 217.675581 84.703191 
L 217.678148 89.345256 
L 217.686279 89.697882 
L 217.259408 90.049881 
L -1 90.287767 
M -1 90.514979 
L 216.004877 90.752 
L 217.009554 91.102124 
L 217.264713 91.451627 
L 217.501416 92.496425 
L 217.683408 95.25562 
L 217.698088 98.313709 
L 217.5656 99.322435 
L 217.205279 99.992 
L 216.714504 100.325912 
L 215.686478 100.659244 
L 213.500839 100.992 
L 207.297873 101.32418 
L 160.957637 101.655786 
L -1 101.939069 
M -1 102.025538 
L 204.694383 102.31728 
L 214.035809 102.647172 
L 216.178313 102.976496 
L 216.964086 103.305253 
L 217.32172 103.633445 
L 217.608508 104.288137 
L 217.714132 105.265973 
L 217.666272 107.849143 
L 217.525159 110.713519 
L 216.547072 111.029099 
L 217.645303 111.344148 
L 217.667017 119.954963 
L 217.665435 123.525007 
L 217.430689 123.819362 
L 215.957233 124.406634 
L 216.933407 124.992 
L 217.320385 125.575468 
L 217.54427 126.447133 
L 217.712226 128.177841 
L 217.642929 129.89192 
L 217.37865 131.307789 
L 216.672549 133.549845 
L 216.236256 135.21282 
L 216.183782 136.312755 
L 216.387708 137.405793 
L 216.94035 138.762492 
L 217.618785 140.376615 
L 217.711674 141.178047 
L 217.596111 141.710266 
L 217.294265 142.240841 
L 216.77244 142.769778 
L 216.003884 143.297085 
L 214.377339 144.085005 
L 211.498926 145.129931 
L 207.877368 146.427115 
L 206.917541 146.94322 
L 206.435987 147.457753 
L 206.398295 147.714433 
L 206.495644 147.970723 
L 207.116658 148.482137 
L 208.215524 148.992 
L 210.586126 149.753905 
L 216.872228 151.518316 
L 217.421 151.76886 
L 217.687927 152.019027 
L 217.533014 152.268819 
L 216.755157 152.518237 
L 215.072334 152.767281 
L 212.106722 153.015952 
L 207.390904 153.264251 
L 191.286074 153.759737 
L 159.384096 154.500197 
L 153.231047 154.746281 
L 150.948087 154.992 
L 151.67616 155.237353 
L 158.090298 155.726967 
L 177.241417 156.944663 
L 185.274567 157.670967 
L 191.005007 158.394062 
L 195.270212 159.113969 
L 199.381139 160.068923 
L 202.412305 161.018297 
L 204.735631 161.962138 
L 206.962464 163.134235 
L 208.689421 164.297857 
L 210.055983 165.453095 
L 211.361454 166.828442 
L 212.70852 168.643926 
L 213.725341 170.438809 
L 214.602662 172.43386 
L 215.396158 174.838154 
L 215.902197 176.777962 
L 216.50689 179.957612 
L 217.005288 183.892204 
L 217.3709 188.719455 
L 217.607947 195.109647 
L 217.713285 204.638018 
L 217.716828 230.095448 
L 217.716828 230.095448 
" style="fill:none;stroke:#ff7f0e;stroke-dasharray:5.55,2.4;stroke-dashoffset:0;stroke-width:1.5;"/>
   </g>
   <g id="patch_3">
    <path d="M 57.6 307.584 
L 57.6 41.472 
" style="fill:none;stroke:#000000;stroke-linecap:square;stroke-linejoin:miter;stroke-width:0.8;"/>
   </g>
   <g id="patch_4">
    <path d="M 228.396522 307.584 
L 228.396522 41.472 
" style="fill:none;stroke:#000000;stroke-linecap:square;stroke-linejoin:miter;stroke-width:0.8;"/>
   </g>
   <g id="patch_5">
    <path d="M 57.6 307.584 
L 228.396522 307.584 
" style="fill:none;stroke:#000000;stroke-linecap:square;stroke-linejoin:miter;stroke-width:0.8;"/>
   </g>
   <g id="patch_6">
    <path d="M 57.6 41.472 
L 228.396522 41.472 
" style="fill:none;stroke:#000000;stroke-linecap:square;stroke-linejoin:miter;stroke-width:0.8;"/>
   </g>
   <g id="text_15">
    <!-- photodissociation cross section -->
    <g transform="translate(49.181698 35.472)scale(0.12 -0.12)">
     <defs>
      <path d="M 1159 525 
L 1159 -1331 
L 581 -1331 
L 581 3500 
L 1159 3500 
L 1159 2969 
Q 1341 3281 1617 3432 
Q 1894 3584 2278 3584 
Q 2916 3584 3314 3078 
Q 3713 2572 3713 1747 
Q 3713 922 3314 415 
Q 2916 -91 2278 -91 
Q 1894 -91 1617 61 
Q 1341 213 1159 525 
z
M 3116 1747 
Q 3116 2381 2855 2742 
Q 2594 3103 2138 3103 
Q 1681 3103 1420 2742 
Q 1159 2381 1159 1747 
Q 1159 1113 1420 752 
Q 1681 391 2138 391 
Q 2594 391 2855 752 
Q 3116 1113 3116 1747 
z
" id="DejaVuSans-70" transform="scale(0.015625)"/>
      <path d="M 3513 2113 
L 3513 0 
L 2938 0 
L 2938 2094 
Q 2938 2591 2744 2837 
Q 2550 3084 2163 3084 
Q 1697 3084 1428 2787 
Q 1159 2491 1159 1978 
L 1159 0 
L 581 0 
L 581 4863 
L 1159 4863 
L 1159 2956 
Q 1366 3272 1645 3428 
Q 1925 3584 2291 3584 
Q 2894 3584 3203 3211 
Q 3513 2838 3513 2113 
z
" id="DejaVuSans-68" transform="scale(0.015625)"/>
      <path d="M 2906 2969 
L 2906 4863 
L 3481 4863 
L 3481 0 
L 2906 0 
L 2906 525 
Q 2725 213 2448 61 
Q 2172 -91 1784 -91 
Q 1150 -91 751 415 
Q 353 922 353 1747 
Q 353 2572 751 3078 
Q 1150 3584 1784 3584 
Q 2172 3584 2448 3432 
Q 2725 3281 2906 2969 
z
M 947 1747 
Q 947 1113 1208 752 
Q 1469 391 1925 391 
Q 2381 391 2643 752 
Q 2906 1113 2906 1747 
Q 2906 2381 2643 2742 
Q 2381 3103 1925 3103 
Q 1469 3103 1208 2742 
Q 947 2381 947 1747 
z
" id="DejaVuSans-64" transform="scale(0.015625)"/>
     </defs>
     <use xlink:href="#DejaVuSans-70"/>
     <use x="63.476562" xlink:href="#DejaVuSans-68"/>
     <use x="126.855469" xlink:href="#DejaVuSans-6f"/>
     <use x="188.037109" xlink:href="#DejaVuSans-74"/>
     <use x="227.246094" xlink:href="#DejaVuSans-6f"/>
     <use x="288.427734" xlink:href="#DejaVuSans-64"/>
     <use x="351.904297" xlink:href="#DejaVuSans-69"/>
     <use x="379.6875" xlink:href="#DejaVuSans-73"/>
     <use x="431.787109" xlink:href="#DejaVuSans-73"/>
     <use x="483.886719" xlink:href="#DejaVuSans-6f"/>
     <use x="545.068359" xlink:href="#DejaVuSans-63"/>
     <use x="600.048828" xlink:href="#DejaVuSans-69"/>
     <use x="627.832031" xlink:href="#DejaVuSans-61"/>
     <use x="689.111328" xlink:href="#DejaVuSans-74"/>
     <use x="728.320312" xlink:href="#DejaVuSans-69"/>
     <use x="756.103516" xlink:href="#DejaVuSans-6f"/>
     <use x="817.285156" xlink:href="#DejaVuSans-6e"/>
     <use x="880.664062" xlink:href="#DejaVuSans-20"/>
     <use x="912.451172" xlink:href="#DejaVuSans-63"/>
     <use x="967.431641" xlink:href="#DejaVuSans-72"/>
     <use x="1006.294922" xlink:href="#DejaVuSans-6f"/>
     <use x="1067.476562" xlink:href="#DejaVuSans-73"/>
     <use x="1119.576172" xlink:href="#DejaVuSans-73"/>
     <use x="1171.675781" xlink:href="#DejaVuSans-20"/>
     <use x="1203.462891" xlink:href="#DejaVuSans-73"/>
     <use x="1255.5625" xlink:href="#DejaVuSans-65"/>
     <use x="1317.085938" xlink:href="#DejaVuSans-63"/>
     <use x="1372.066406" xlink:href="#DejaVuSans-74"/>
     <use x="1411.275391" xlink:href="#DejaVuSans-69"/>
     <use x="1439.058594" xlink:href="#DejaVuSans-6f"/>
     <use x="1500.240234" xlink:href="#DejaVuSans-6e"/>
    </g>
   </g>
   <g id="legend_1">
    <g id="line2d_14">
     <path d="M 173.996522 56.072 
L 193.996522 56.072 
" style="fill:none;stroke:#1f77b4;stroke-linecap:square;stroke-width:1.5;"/>
    </g>
    <g id="line2d_15"/>
    <g id="text_16">
     <!-- $^{3}\Sigma_{u}^{-}$ -->
     <g transform="translate(201.996522 59.572)scale(0.1 -0.1)">
      <defs>
       <path d="M 2597 2516 
Q 3050 2419 3304 2112 
Q 3559 1806 3559 1356 
Q 3559 666 3084 287 
Q 2609 -91 1734 -91 
Q 1441 -91 1130 -33 
Q 819 25 488 141 
L 488 750 
Q 750 597 1062 519 
Q 1375 441 1716 441 
Q 2309 441 2620 675 
Q 2931 909 2931 1356 
Q 2931 1769 2642 2001 
Q 2353 2234 1838 2234 
L 1294 2234 
L 1294 2753 
L 1863 2753 
Q 2328 2753 2575 2939 
Q 2822 3125 2822 3475 
Q 2822 3834 2567 4026 
Q 2313 4219 1838 4219 
Q 1578 4219 1281 4162 
Q 984 4106 628 3988 
L 628 4550 
Q 988 4650 1302 4700 
Q 1616 4750 1894 4750 
Q 2613 4750 3031 4423 
Q 3450 4097 3450 3541 
Q 3450 3153 3228 2886 
Q 3006 2619 2597 2516 
z
" id="DejaVuSans-33" transform="scale(0.015625)"/>
       <path d="M 1353 531 
L 3634 531 
L 3634 0 
L 628 0 
L 628 531 
L 2125 2481 
L 628 4134 
L 628 4666 
L 3578 4666 
L 3578 4134 
L 1353 4134 
L 2850 2494 
L 1353 531 
z
" id="DejaVuSans-3a3" transform="scale(0.015625)"/>
       <path d="M 428 1388 
L 838 3500 
L 1416 3500 
L 1006 1409 
Q 975 1256 961 1147 
Q 947 1038 947 966 
Q 947 700 1109 554 
Q 1272 409 1569 409 
Q 2031 409 2368 721 
Q 2706 1034 2809 1563 
L 3194 3500 
L 3769 3500 
L 3091 0 
L 2516 0 
L 2631 550 
Q 2388 244 2052 76 
Q 1716 -91 1338 -91 
Q 878 -91 622 161 
Q 366 413 366 863 
Q 366 956 381 1097 
Q 397 1238 428 1388 
z
" id="DejaVuSans-Oblique-75" transform="scale(0.015625)"/>
      </defs>
      <use transform="translate(0.957031 39.046875)scale(0.7)" xlink:href="#DejaVuSans-33"/>
      <use transform="translate(48.227539 0.765625)" xlink:href="#DejaVuSans-3a3"/>
      <use transform="translate(112.368164 39.046875)scale(0.7)" xlink:href="#DejaVuSans-2212"/>
      <use transform="translate(112.368164 -26.578125)scale(0.7)" xlink:href="#DejaVuSans-Oblique-75"/>
     </g>
    </g>
    <g id="line2d_16">
     <path d="M 173.996522 71.570438 
L 193.996522 71.570438 
" style="fill:none;stroke:#ff7f0e;stroke-dasharray:5.55,2.4;stroke-dashoffset:0;stroke-width:1.5;"/>
    </g>
    <g id="line2d_17"/>
    <g id="text_17">
     <!-- $^{3}\Pi$ -->
     <g transform="translate(201.996522 75.070438)scale(0.1 -0.1)">
      <defs>
       <path d="M 4184 4666 
L 4184 0 
L 3553 0 
L 3553 4134 
L 1259 4134 
L 1259 0 
L 628 0 
L 628 4666 
L 4184 4666 
z
" id="DejaVuSans-3a0" transform="scale(0.015625)"/>
      </defs>
      <use transform="translate(0.957031 39.046875)scale(0.7)" xlink:href="#DejaVuSans-33"/>
      <use transform="translate(48.227539 0.765625)" xlink:href="#DejaVuSans-3a0"/>
     </g>
    </g>
   </g>
  </g>
  <g id="axes_2">
   <g id="patch_7">
    <path d="M 243.923478 307.584 
L 414.72 307.584 
L 414.72 41.472 
L 243.923478 41.472 
z
" style="fill:#ffffff;"/>
   </g>
   <g id="matplotlib.axis_3">
    <g id="xtick_5">
     <g id="line2d_18">
      <g>
       <use style="stroke:#000000;stroke-width:0.8;" x="243.923478" xlink:href="#m4a43b6cdc2" y="307.584"/>
      </g>
     </g>
     <g id="text_18">
      <!-- 0.5 -->
      <g transform="translate(235.971916 322.182437)scale(0.1 -0.1)">
       <use xlink:href="#DejaVuSans-30"/>
       <use x="63.623047" xlink:href="#DejaVuSans-2e"/>
       <use x="95.410156" xlink:href="#DejaVuSans-35"/>
      </g>
     </g>
    </g>
    <g id="xtick_6">
     <g id="line2d_19">
      <g>
       <use style="stroke:#000000;stroke-width:0.8;" x="300.855652" xlink:href="#m4a43b6cdc2" y="307.584"/>
      </g>
     </g>
     <g id="text_19">
      <!-- 1.0 -->
      <g transform="translate(292.90409 322.182437)scale(0.1 -0.1)">
       <use xlink:href="#DejaVuSans-31"/>
       <use x="63.623047" xlink:href="#DejaVuSans-2e"/>
       <use x="95.410156" xlink:href="#DejaVuSans-30"/>
      </g>
     </g>
    </g>
    <g id="xtick_7">
     <g id="line2d_20">
      <g>
       <use style="stroke:#000000;stroke-width:0.8;" x="357.787826" xlink:href="#m4a43b6cdc2" y="307.584"/>
      </g>
     </g>
     <g id="text_20">
      <!-- 1.5 -->
      <g transform="translate(349.836264 322.182437)scale(0.1 -0.1)">
       <use xlink:href="#DejaVuSans-31"/>
       <use x="63.623047" xlink:href="#DejaVuSans-2e"/>
       <use x="95.410156" xlink:href="#DejaVuSans-35"/>
      </g>
     </g>
    </g>
    <g id="xtick_8">
     <g id="line2d_21">
      <g>
       <use style="stroke:#000000;stroke-width:0.8;" x="414.72" xlink:href="#m4a43b6cdc2" y="307.584"/>
      </g>
     </g>
     <g id="text_21">
      <!-- 2.0 -->
      <g transform="translate(406.768438 322.182437)scale(0.1 -0.1)">
       <use xlink:href="#DejaVuSans-32"/>
       <use x="63.623047" xlink:href="#DejaVuSans-2e"/>
       <use x="95.410156" xlink:href="#DejaVuSans-30"/>
      </g>
     </g>
    </g>
    <g id="text_22">
     <!-- R ($\AA$) -->
     <g transform="translate(316.921739 336.882437)scale(0.1 -0.1)">
      <defs>
       <path d="M 2841 2188 
Q 3044 2119 3236 1894 
Q 3428 1669 3622 1275 
L 4263 0 
L 3584 0 
L 2988 1197 
Q 2756 1666 2539 1819 
Q 2322 1972 1947 1972 
L 1259 1972 
L 1259 0 
L 628 0 
L 628 4666 
L 2053 4666 
Q 2853 4666 3247 4331 
Q 3641 3997 3641 3322 
Q 3641 2881 3436 2590 
Q 3231 2300 2841 2188 
z
M 1259 4147 
L 1259 2491 
L 2053 2491 
Q 2509 2491 2742 2702 
Q 2975 2913 2975 3322 
Q 2975 3731 2742 3939 
Q 2509 4147 2053 4147 
L 1259 4147 
z
" id="DejaVuSans-52" transform="scale(0.015625)"/>
       <path d="M 3188 5081 
Q 3188 5278 3048 5417 
Q 2909 5556 2713 5556 
Q 2513 5556 2377 5420 
Q 2241 5284 2241 5081 
Q 2241 4884 2377 4746 
Q 2513 4609 2713 4609 
Q 2909 4609 3048 4746 
Q 3188 4884 3188 5081 
z
M 2203 4397 
Q 2034 4513 1945 4689 
Q 1856 4866 1856 5081 
Q 1856 5438 2106 5689 
Q 2356 5941 2713 5941 
Q 3069 5941 3320 5689 
Q 3572 5438 3572 5081 
Q 3572 4834 3458 4643 
Q 3344 4453 3128 4341 
L 3938 0 
L 3278 0 
L 3084 1197 
L 984 1197 
L 325 0 
L -341 0 
L 2203 4397 
z
M 2584 4044 
L 1275 1722 
L 2988 1722 
L 2584 4044 
z
" id="DejaVuSans-Oblique-c5" transform="scale(0.015625)"/>
      </defs>
      <use transform="translate(0 0.171875)" xlink:href="#DejaVuSans-52"/>
      <use transform="translate(69.482422 0.171875)" xlink:href="#DejaVuSans-20"/>
      <use transform="translate(101.269531 0.171875)" xlink:href="#DejaVuSans-28"/>
      <use transform="translate(140.283203 0.171875)" xlink:href="#DejaVuSans-Oblique-c5"/>
      <use transform="translate(208.691406 0.171875)" xlink:href="#DejaVuSans-29"/>
     </g>
    </g>
   </g>
   <g id="line2d_22">
    <path clip-path="url(#p7748797ed1)" d="M 282.872216 -1 
L 284.345322 50.711413 
L 286.053287 105.000288 
L 287.761252 153.79852 
L 289.469217 197.576339 
L 291.177183 236.766182 
L 292.885148 271.765644 
L 294.593113 302.940205 
L 296.301078 331.361842 
L 297.357901 346.6 
M 396.868774 346.6 
L 399.917635 341.853248 
L 403.333565 336.900751 
L 406.180174 333.164302 
L 409.596104 329.009466 
L 412.442713 325.878484 
L 415.289322 323.053534 
L 415.289322 323.053534 
" style="fill:none;stroke:#000000;stroke-linecap:square;stroke-width:1.5;"/>
   </g>
   <g id="line2d_23">
    <path clip-path="url(#p7748797ed1)" d="M 309.371793 -1 
L 311.103443 25.55164 
L 313.38073 57.005997 
L 315.658017 84.903279 
L 317.935304 109.608304 
L 320.212591 131.449992 
L 322.489878 150.724833 
L 324.767165 167.700017 
L 327.044452 182.616267 
L 329.321739 195.690404 
L 331.599026 207.11766 
L 333.306991 214.713736 
L 335.014957 221.550219 
L 336.722922 227.689523 
L 339.000209 235.026475 
L 341.277496 240.983384 
L 343.554783 245.980091 
L 345.83207 250.276496 
L 348.678678 254.779666 
L 350.386643 257.117017 
L 352.094609 259.163703 
L 353.802574 260.940472 
L 355.510539 262.472964 
L 357.218504 263.773423 
L 358.92647 264.855599 
L 360.634435 265.736671 
L 362.911722 266.625901 
L 365.189009 267.219575 
L 367.466296 267.548276 
L 369.743583 267.640622 
L 372.02087 267.5227 
L 374.867478 267.117947 
L 377.714087 266.469019 
L 381.130017 265.425603 
L 384.545948 264.15261 
L 389.100522 262.189438 
L 395.363061 259.18858 
L 414.150678 250.000425 
L 415.289322 249.488535 
L 415.289322 249.488535 
" style="fill:none;stroke:#1f77b4;stroke-linecap:square;stroke-width:1.5;"/>
   </g>
   <g id="line2d_24">
    <path clip-path="url(#p7748797ed1)" d="M 314.708434 -1 
L 316.796661 30.214571 
L 319.073948 60.575349 
L 321.351235 87.544117 
L 323.628522 111.499842 
L 325.905809 132.77915 
L 328.183096 151.681061 
L 330.460383 168.471186 
L 332.73767 183.38546 
L 335.014957 196.63346 
L 337.292243 208.401348 
L 339.56953 218.854487 
L 341.846817 228.139766 
L 344.124104 236.387661 
L 346.401391 243.714073 
L 348.678678 250.221953 
L 350.955965 256.002751 
L 353.233252 261.137698 
L 355.510539 265.698951 
L 357.787826 269.750605 
L 360.065113 273.349594 
L 362.3424 276.546492 
L 364.619687 279.386221 
L 366.896974 281.908686 
L 369.174261 284.149333 
L 372.02087 286.60146 
L 374.867478 288.71606 
L 377.714087 290.539592 
L 380.560696 292.112121 
L 383.976626 293.716136 
L 387.392557 295.058995 
L 391.377809 296.351923 
L 395.363061 297.402757 
L 399.917635 298.365015 
L 405.04153 299.207143 
L 410.734748 299.91385 
L 415.289322 300.346356 
L 415.289322 300.346356 
" style="fill:none;stroke:#ff7f0e;stroke-dasharray:5.55,2.4;stroke-dashoffset:0;stroke-width:1.5;"/>
   </g>
   <g id="line2d_25">
    <path clip-path="url(#p7748797ed1)" d="M 285.808784 -1 
L 289.469217 32.123233 
L 293.45447 66.303456 
L 297.439722 98.604195 
L 300.28633 120.141807 
L 301.994296 130.421661 
L 303.132939 136.459815 
L 304.271583 141.278561 
L 305.410226 145.170574 
L 306.54887 148.325915 
L 307.687513 150.850971 
L 308.826157 152.823296 
L 309.9648 154.296666 
L 311.103443 155.307395 
L 312.242087 155.888788 
L 313.38073 156.067315 
L 314.519374 155.867949 
L 315.658017 155.315667 
L 316.796661 154.434631 
L 317.935304 153.245627 
L 319.073948 151.773703 
L 320.781913 149.095907 
L 322.489878 145.926726 
L 324.197843 142.334079 
L 326.47513 136.967616 
L 329.891061 128.100381 
L 333.306991 118.843382 
L 336.1536 110.323851 
L 341.277496 95.035567 
L 346.401391 80.400709 
L 351.525287 66.411911 
L 356.649183 53.058451 
L 361.773078 40.327 
L 366.896974 28.201974 
L 372.02087 16.666125 
L 377.144765 5.701034 
L 380.411474 -1 
L 380.411474 -1 
" style="fill:none;stroke:#1f77b4;stroke-linecap:square;stroke-width:1.5;"/>
   </g>
   <g id="line2d_26">
    <path clip-path="url(#p7748797ed1)" d="M 291.321852 -1 
L 292.885148 26.521028 
L 294.593113 52.537404 
L 296.301078 74.632514 
L 298.009043 93.047097 
L 299.147687 103.420962 
L 300.28633 112.378578 
L 301.994296 123.565362 
L 303.132939 129.841624 
L 304.271583 134.976615 
L 305.410226 139.186715 
L 306.54887 142.654375 
L 307.687513 145.496262 
L 308.826157 147.752419 
L 309.9648 149.427536 
L 311.103443 150.545965 
L 312.242087 151.16265 
L 313.38073 151.336339 
L 314.519374 151.11264 
L 315.658017 150.535309 
L 316.796661 149.647971 
L 317.935304 148.488601 
L 319.64327 146.314936 
L 321.351235 143.719315 
L 323.0592 140.743259 
L 325.336487 136.200315 
L 327.613774 131.129792 
L 330.460383 124.215893 
L 333.876313 115.18611 
L 336.722922 107.190592 
L 340.138852 96.920104 
L 344.124104 84.138147 
L 358.357148 37.436557 
L 364.619687 18.290867 
L 370.312904 1.54482 
L 371.200629 -1 
L 371.200629 -1 
" style="fill:none;stroke:#ff7f0e;stroke-dasharray:5.55,2.4;stroke-dashoffset:0;stroke-width:1.5;"/>
   </g>
   <g id="patch_8">
    <path d="M 243.923478 307.584 
L 243.923478 41.472 
" style="fill:none;stroke:#000000;stroke-linecap:square;stroke-linejoin:miter;stroke-width:0.8;"/>
   </g>
   <g id="patch_9">
    <path d="M 414.72 307.584 
L 414.72 41.472 
" style="fill:none;stroke:#000000;stroke-linecap:square;stroke-linejoin:miter;stroke-width:0.8;"/>
   </g>
   <g id="patch_10">
    <path d="M 243.923478 307.584 
L 414.72 307.584 
" style="fill:none;stroke:#000000;stroke-linecap:square;stroke-linejoin:miter;stroke-width:0.8;"/>
   </g>
   <g id="patch_11">
    <path d="M 243.923478 41.472 
L 414.72 41.472 
" style="fill:none;stroke:#000000;stroke-linecap:square;stroke-linejoin:miter;stroke-width:0.8;"/>
   </g>
   <g id="text_23">
    <!-- $X{}^{3}\Sigma_{g}^{-}$ -->
    <g transform="translate(255.309913 244.548267)scale(0.1 -0.1)">
     <defs>
      <path d="M 878 4666 
L 1516 4666 
L 2316 2981 
L 3763 4666 
L 4500 4666 
L 2578 2438 
L 3738 0 
L 3103 0 
L 2163 1966 
L 459 0 
L -275 0 
L 1906 2509 
L 878 4666 
z
" id="DejaVuSans-Oblique-58" transform="scale(0.015625)"/>
      <path d="M 3816 3500 
L 3219 434 
Q 3047 -456 2561 -893 
Q 2075 -1331 1253 -1331 
Q 950 -1331 690 -1286 
Q 431 -1241 206 -1147 
L 313 -588 
Q 525 -725 762 -790 
Q 1000 -856 1269 -856 
Q 1816 -856 2167 -557 
Q 2519 -259 2631 300 
L 2681 563 
Q 2441 288 2122 144 
Q 1803 0 1434 0 
Q 903 0 598 351 
Q 294 703 294 1319 
Q 294 1803 478 2267 
Q 663 2731 997 3091 
Q 1219 3328 1514 3456 
Q 1809 3584 2131 3584 
Q 2484 3584 2746 3420 
Q 3009 3256 3138 2956 
L 3238 3500 
L 3816 3500 
z
M 2950 2216 
Q 2950 2641 2750 2872 
Q 2550 3103 2181 3103 
Q 1953 3103 1747 3012 
Q 1541 2922 1394 2759 
Q 1156 2491 1023 2127 
Q 891 1763 891 1375 
Q 891 944 1092 712 
Q 1294 481 1672 481 
Q 2219 481 2584 976 
Q 2950 1472 2950 2216 
z
" id="DejaVuSans-Oblique-67" transform="scale(0.015625)"/>
     </defs>
     <use transform="translate(0 0.765625)" xlink:href="#DejaVuSans-Oblique-58"/>
     <use transform="translate(69.462891 39.046875)scale(0.7)" xlink:href="#DejaVuSans-33"/>
     <use transform="translate(116.733398 0.765625)" xlink:href="#DejaVuSans-3a3"/>
     <use transform="translate(180.874023 39.046875)scale(0.7)" xlink:href="#DejaVuSans-2212"/>
     <use transform="translate(180.874023 -26.578125)scale(0.7)" xlink:href="#DejaVuSans-Oblique-67"/>
    </g>
   </g>
   <g id="text_24">
    <!-- $B{}^{3}\Sigma_{u}^{-}$ -->
    <g style="fill:#1f77b4;" transform="translate(380.560696 244.548267)scale(0.1 -0.1)">
     <defs>
      <path d="M 1081 4666 
L 2694 4666 
Q 3350 4666 3675 4422 
Q 4000 4178 4000 3688 
Q 4000 3238 3720 2911 
Q 3441 2584 2988 2516 
Q 3375 2428 3569 2181 
Q 3763 1934 3763 1522 
Q 3763 819 3242 409 
Q 2722 0 1819 0 
L 172 0 
L 1081 4666 
z
M 1234 2228 
L 903 519 
L 1919 519 
Q 2491 519 2800 781 
Q 3109 1044 3109 1522 
Q 3109 1891 2904 2059 
Q 2700 2228 2247 2228 
L 1234 2228 
z
M 1606 4147 
L 1331 2741 
L 2272 2741 
Q 2775 2741 3058 2959 
Q 3341 3178 3341 3566 
Q 3341 3869 3150 4008 
Q 2959 4147 2541 4147 
L 1606 4147 
z
" id="DejaVuSans-Oblique-42" transform="scale(0.015625)"/>
     </defs>
     <use transform="translate(0 0.765625)" xlink:href="#DejaVuSans-Oblique-42"/>
     <use transform="translate(69.560547 39.046875)scale(0.7)" xlink:href="#DejaVuSans-33"/>
     <use transform="translate(116.831055 0.765625)" xlink:href="#DejaVuSans-3a3"/>
     <use transform="translate(180.97168 39.046875)scale(0.7)" xlink:href="#DejaVuSans-2212"/>
     <use transform="translate(180.97168 -26.578125)scale(0.7)" xlink:href="#DejaVuSans-Oblique-75"/>
    </g>
   </g>
   <g id="text_25">
    <!-- $E{}^{3}\Sigma_{u}^{-}$ -->
    <g style="fill:#1f77b4;" transform="translate(289.469217 169.149867)scale(0.1 -0.1)">
     <defs>
      <path d="M 1081 4666 
L 4031 4666 
L 3928 4134 
L 1606 4134 
L 1338 2753 
L 3566 2753 
L 3463 2222 
L 1234 2222 
L 909 531 
L 3284 531 
L 3181 0 
L 172 0 
L 1081 4666 
z
" id="DejaVuSans-Oblique-45" transform="scale(0.015625)"/>
     </defs>
     <use transform="translate(0 0.765625)" xlink:href="#DejaVuSans-Oblique-45"/>
     <use transform="translate(64.140625 39.046875)scale(0.7)" xlink:href="#DejaVuSans-33"/>
     <use transform="translate(111.411133 0.765625)" xlink:href="#DejaVuSans-3a3"/>
     <use transform="translate(175.551758 39.046875)scale(0.7)" xlink:href="#DejaVuSans-2212"/>
     <use transform="translate(175.551758 -26.578125)scale(0.7)" xlink:href="#DejaVuSans-Oblique-75"/>
    </g>
   </g>
   <g id="text_26">
    <!-- ${}^{3}\Pi$ -->
    <g style="fill:#ff7f0e;" transform="translate(339.56953 200.196267)scale(0.1 -0.1)">
     <use transform="translate(0.957031 39.046875)scale(0.7)" xlink:href="#DejaVuSans-33"/>
     <use transform="translate(48.227539 0.765625)" xlink:href="#DejaVuSans-3a0"/>
    </g>
   </g>
   <g id="text_27">
    <!-- diabatic PECs -->
    <g transform="translate(288.733614 35.472)scale(0.12 -0.12)">
     <defs>
      <path d="M 1259 4147 
L 1259 2394 
L 2053 2394 
Q 2494 2394 2734 2622 
Q 2975 2850 2975 3272 
Q 2975 3691 2734 3919 
Q 2494 4147 2053 4147 
L 1259 4147 
z
M 628 4666 
L 2053 4666 
Q 2838 4666 3239 4311 
Q 3641 3956 3641 3272 
Q 3641 2581 3239 2228 
Q 2838 1875 2053 1875 
L 1259 1875 
L 1259 0 
L 628 0 
L 628 4666 
z
" id="DejaVuSans-50" transform="scale(0.015625)"/>
      <path d="M 628 4666 
L 3578 4666 
L 3578 4134 
L 1259 4134 
L 1259 2753 
L 3481 2753 
L 3481 2222 
L 1259 2222 
L 1259 531 
L 3634 531 
L 3634 0 
L 628 0 
L 628 4666 
z
" id="DejaVuSans-45" transform="scale(0.015625)"/>
      <path d="M 4122 4306 
L 4122 3641 
Q 3803 3938 3442 4084 
Q 3081 4231 2675 4231 
Q 1875 4231 1450 3742 
Q 1025 3253 1025 2328 
Q 1025 1406 1450 917 
Q 1875 428 2675 428 
Q 3081 428 3442 575 
Q 3803 722 4122 1019 
L 4122 359 
Q 3791 134 3420 21 
Q 3050 -91 2638 -91 
Q 1578 -91 968 557 
Q 359 1206 359 2328 
Q 359 3453 968 4101 
Q 1578 4750 2638 4750 
Q 3056 4750 3426 4639 
Q 3797 4528 4122 4306 
z
" id="DejaVuSans-43" transform="scale(0.015625)"/>
     </defs>
     <use xlink:href="#DejaVuSans-64"/>
     <use x="63.476562" xlink:href="#DejaVuSans-69"/>
     <use x="91.259766" xlink:href="#DejaVuSans-61"/>
     <use x="152.539062" xlink:href="#DejaVuSans-62"/>
     <use x="216.015625" xlink:href="#DejaVuSans-61"/>
     <use x="277.294922" xlink:href="#DejaVuSans-74"/>
     <use x="316.503906" xlink:href="#DejaVuSans-69"/>
     <use x="344.287109" xlink:href="#DejaVuSans-63"/>
     <use x="399.267578" xlink:href="#DejaVuSans-20"/>
     <use x="431.054688" xlink:href="#DejaVuSans-50"/>
     <use x="491.357422" xlink:href="#DejaVuSans-45"/>
     <use x="554.541016" xlink:href="#DejaVuSans-43"/>
     <use x="624.365234" xlink:href="#DejaVuSans-73"/>
    </g>
   </g>
  </g>
  <g id="text_28">
   <!-- example_O2xs.py -->
   <g transform="translate(177.088125 16.030125)scale(0.12 -0.12)">
    <defs>
     <path d="M 3513 3500 
L 2247 1797 
L 3578 0 
L 2900 0 
L 1881 1375 
L 863 0 
L 184 0 
L 1544 1831 
L 300 3500 
L 978 3500 
L 1906 2253 
L 2834 3500 
L 3513 3500 
z
" id="DejaVuSans-78" transform="scale(0.015625)"/>
     <path d="M 603 4863 
L 1178 4863 
L 1178 0 
L 603 0 
L 603 4863 
z
" id="DejaVuSans-6c" transform="scale(0.015625)"/>
     <path d="M 3263 -1063 
L 3263 -1509 
L -63 -1509 
L -63 -1063 
L 3263 -1063 
z
" id="DejaVuSans-5f" transform="scale(0.015625)"/>
     <path d="M 2522 4238 
Q 1834 4238 1429 3725 
Q 1025 3213 1025 2328 
Q 1025 1447 1429 934 
Q 1834 422 2522 422 
Q 3209 422 3611 934 
Q 4013 1447 4013 2328 
Q 4013 3213 3611 3725 
Q 3209 4238 2522 4238 
z
M 2522 4750 
Q 3503 4750 4090 4092 
Q 4678 3434 4678 2328 
Q 4678 1225 4090 567 
Q 3503 -91 2522 -91 
Q 1538 -91 948 565 
Q 359 1222 359 2328 
Q 359 3434 948 4092 
Q 1538 4750 2522 4750 
z
" id="DejaVuSans-4f" transform="scale(0.015625)"/>
     <path d="M 2059 -325 
Q 1816 -950 1584 -1140 
Q 1353 -1331 966 -1331 
L 506 -1331 
L 506 -850 
L 844 -850 
Q 1081 -850 1212 -737 
Q 1344 -625 1503 -206 
L 1606 56 
L 191 3500 
L 800 3500 
L 1894 763 
L 2988 3500 
L 3597 3500 
L 2059 -325 
z
" id="DejaVuSans-79" transform="scale(0.015625)"/>
    </defs>
    <use xlink:href="#DejaVuSans-65"/>
    <use x="59.773438" xlink:href="#DejaVuSans-78"/>
    <use x="118.953125" xlink:href="#DejaVuSans-61"/>
    <use x="180.232422" xlink:href="#DejaVuSans-6d"/>
    <use x="277.644531" xlink:href="#DejaVuSans-70"/>
    <use x="341.121094" xlink:href="#DejaVuSans-6c"/>
    <use x="368.904297" xlink:href="#DejaVuSans-65"/>
    <use x="430.427734" xlink:href="#DejaVuSans-5f"/>
    <use x="480.427734" xlink:href="#DejaVuSans-4f"/>
    <use x="559.138672" xlink:href="#DejaVuSans-32"/>
    <use x="622.761719" xlink:href="#DejaVuSans-78"/>
    <use x="681.941406" xlink:href="#DejaVuSans-73"/>
    <use x="734.041016" xlink:href="#DejaVuSans-2e"/>
    <use x="765.828125" xlink:href="#DejaVuSans-70"/>
    <use x="829.304688" xlink:href="#DejaVuSans-79"/>
   </g>
  </g>
 </g>
 <defs>
  <clipPath id="p4dcf424da2">
   <rect height="266.112" width="170.796522" x="57.6" y="41.472"/>
  </clipPath>
  <clipPath id="p7748797ed1">
   <rect height="266.112" width="170.796522" x="243.923478" y="41.472"/>
  </clipPath>
 </defs>
</svg>
