<?xml version="1.0" encoding="utf-8" standalone="no"?>
<!DOCTYPE svg PUBLIC "-//W3C//DTD SVG 1.1//EN"
  "http://www.w3.org/Graphics/SVG/1.1/DTD/svg11.dtd">
<svg height="345.6pt" version="1.1" viewBox="0 0 460.8 345.6" width="460.8pt" xmlns="http://www.w3.org/2000/svg" xmlns:xlink="http://www.w3.org/1999/xlink">
 <metadata>
  <rdf:RDF xmlns:cc="http://creativecommons.org/ns#" xmlns:dc="http://purl.org/dc/elements/1.1/" xmlns:rdf="http://www.w3.org/1999/02/22-rdf-syntax-ns#">
   <cc:Work>
    <dc:type rdf:resource="http://purl.org/dc/dcmitype/StillImage"/>
    <dc:date>2022-02-24T16:37:22.000032</dc:date>
    <dc:format>image/svg+xml</dc:format>
    <dc:creator>
     <cc:Agent>
      <dc:title>Matplotlib v3.4.3, https://matplotlib.org/</dc:title>
     </cc:Agent>
    </dc:creator>
   </cc:Work>
  </rdf:RDF>
 </metadata>
 <defs>
  <style type="text/css">*{stroke-linecap:butt;stroke-linejoin:round;}</style>
 </defs>
 <g id="figure_1">
  <g id="patch_1">
   <path d="M 0 345.6 
L 460.8 345.6 
L 460.8 0 
L 0 0 
z
" style="fill:#ffffff;"/>
  </g>
  <g id="axes_1">
   <g id="patch_2">
    <path d="M 77.672 300.76 
L 236.726555 300.76 
L 236.726555 14.76 
L 77.672 14.76 
z
" style="fill:#ffffff;"/>
   </g>
   <g id="matplotlib.axis_1">
    <g id="xtick_1">
     <g id="line2d_1">
      <defs>
       <path d="M 0 0 
L 0 3.5 
" id="m16a9543002" style="stroke:#000000;stroke-width:0.8;"/>
      </defs>
      <g>
       <use style="stroke:#000000;stroke-width:0.8;" x="77.672" xlink:href="#m16a9543002" y="300.76"/>
      </g>
     </g>
     <g id="text_1">
      <!-- 0.5 -->
      <g transform="translate(69.720438 315.358437)scale(0.1 -0.1)">
       <defs>
        <path d="M 2034 4250 
Q 1547 4250 1301 3770 
Q 1056 3291 1056 2328 
Q 1056 1369 1301 889 
Q 1547 409 2034 409 
Q 2525 409 2770 889 
Q 3016 1369 3016 2328 
Q 3016 3291 2770 3770 
Q 2525 4250 2034 4250 
z
M 2034 4750 
Q 2819 4750 3233 4129 
Q 3647 3509 3647 2328 
Q 3647 1150 3233 529 
Q 2819 -91 2034 -91 
Q 1250 -91 836 529 
Q 422 1150 422 2328 
Q 422 3509 836 4129 
Q 1250 4750 2034 4750 
z
" id="DejaVuSans-30" transform="scale(0.015625)"/>
        <path d="M 684 794 
L 1344 794 
L 1344 0 
L 684 0 
L 684 794 
z
" id="DejaVuSans-2e" transform="scale(0.015625)"/>
        <path d="M 691 4666 
L 3169 4666 
L 3169 4134 
L 1269 4134 
L 1269 2991 
Q 1406 3038 1543 3061 
Q 1681 3084 1819 3084 
Q 2600 3084 3056 2656 
Q 3513 2228 3513 1497 
Q 3513 744 3044 326 
Q 2575 -91 1722 -91 
Q 1428 -91 1123 -41 
Q 819 9 494 109 
L 494 744 
Q 775 591 1075 516 
Q 1375 441 1709 441 
Q 2250 441 2565 725 
Q 2881 1009 2881 1497 
Q 2881 1984 2565 2268 
Q 2250 2553 1709 2553 
Q 1456 2553 1204 2497 
Q 953 2441 691 2322 
L 691 4666 
z
" id="DejaVuSans-35" transform="scale(0.015625)"/>
       </defs>
       <use xlink:href="#DejaVuSans-30"/>
       <use x="63.623047" xlink:href="#DejaVuSans-2e"/>
       <use x="95.410156" xlink:href="#DejaVuSans-35"/>
      </g>
     </g>
    </g>
    <g id="xtick_2">
     <g id="line2d_2">
      <g>
       <use style="stroke:#000000;stroke-width:0.8;" x="109.482911" xlink:href="#m16a9543002" y="300.76"/>
      </g>
     </g>
     <g id="text_2">
      <!-- 1.0 -->
      <g transform="translate(101.531349 315.358437)scale(0.1 -0.1)">
       <defs>
        <path d="M 794 531 
L 1825 531 
L 1825 4091 
L 703 3866 
L 703 4441 
L 1819 4666 
L 2450 4666 
L 2450 531 
L 3481 531 
L 3481 0 
L 794 0 
L 794 531 
z
" id="DejaVuSans-31" transform="scale(0.015625)"/>
       </defs>
       <use xlink:href="#DejaVuSans-31"/>
       <use x="63.623047" xlink:href="#DejaVuSans-2e"/>
       <use x="95.410156" xlink:href="#DejaVuSans-30"/>
      </g>
     </g>
    </g>
    <g id="xtick_3">
     <g id="line2d_3">
      <g>
       <use style="stroke:#000000;stroke-width:0.8;" x="141.293822" xlink:href="#m16a9543002" y="300.76"/>
      </g>
     </g>
     <g id="text_3">
      <!-- 1.5 -->
      <g transform="translate(133.34226 315.358437)scale(0.1 -0.1)">
       <use xlink:href="#DejaVuSans-31"/>
       <use x="63.623047" xlink:href="#DejaVuSans-2e"/>
       <use x="95.410156" xlink:href="#DejaVuSans-35"/>
      </g>
     </g>
    </g>
    <g id="xtick_4">
     <g id="line2d_4">
      <g>
       <use style="stroke:#000000;stroke-width:0.8;" x="173.104733" xlink:href="#m16a9543002" y="300.76"/>
      </g>
     </g>
     <g id="text_4">
      <!-- 2.0 -->
      <g transform="translate(165.153171 315.358437)scale(0.1 -0.1)">
       <defs>
        <path d="M 1228 531 
L 3431 531 
L 3431 0 
L 469 0 
L 469 531 
Q 828 903 1448 1529 
Q 2069 2156 2228 2338 
Q 2531 2678 2651 2914 
Q 2772 3150 2772 3378 
Q 2772 3750 2511 3984 
Q 2250 4219 1831 4219 
Q 1534 4219 1204 4116 
Q 875 4013 500 3803 
L 500 4441 
Q 881 4594 1212 4672 
Q 1544 4750 1819 4750 
Q 2544 4750 2975 4387 
Q 3406 4025 3406 3419 
Q 3406 3131 3298 2873 
Q 3191 2616 2906 2266 
Q 2828 2175 2409 1742 
Q 1991 1309 1228 531 
z
" id="DejaVuSans-32" transform="scale(0.015625)"/>
       </defs>
       <use xlink:href="#DejaVuSans-32"/>
       <use x="63.623047" xlink:href="#DejaVuSans-2e"/>
       <use x="95.410156" xlink:href="#DejaVuSans-30"/>
      </g>
     </g>
    </g>
    <g id="xtick_5">
     <g id="line2d_5">
      <g>
       <use style="stroke:#000000;stroke-width:0.8;" x="204.915644" xlink:href="#m16a9543002" y="300.76"/>
      </g>
     </g>
     <g id="text_5">
      <!-- 2.5 -->
      <g transform="translate(196.964082 315.358437)scale(0.1 -0.1)">
       <use xlink:href="#DejaVuSans-32"/>
       <use x="63.623047" xlink:href="#DejaVuSans-2e"/>
       <use x="95.410156" xlink:href="#DejaVuSans-35"/>
      </g>
     </g>
    </g>
    <g id="xtick_6">
     <g id="line2d_6">
      <g>
       <use style="stroke:#000000;stroke-width:0.8;" x="236.726555" xlink:href="#m16a9543002" y="300.76"/>
      </g>
     </g>
     <g id="text_6">
      <!-- 3.0 -->
      <g transform="translate(228.774993 315.358437)scale(0.1 -0.1)">
       <defs>
        <path d="M 2597 2516 
Q 3050 2419 3304 2112 
Q 3559 1806 3559 1356 
Q 3559 666 3084 287 
Q 2609 -91 1734 -91 
Q 1441 -91 1130 -33 
Q 819 25 488 141 
L 488 750 
Q 750 597 1062 519 
Q 1375 441 1716 441 
Q 2309 441 2620 675 
Q 2931 909 2931 1356 
Q 2931 1769 2642 2001 
Q 2353 2234 1838 2234 
L 1294 2234 
L 1294 2753 
L 1863 2753 
Q 2328 2753 2575 2939 
Q 2822 3125 2822 3475 
Q 2822 3834 2567 4026 
Q 2313 4219 1838 4219 
Q 1578 4219 1281 4162 
Q 984 4106 628 3988 
L 628 4550 
Q 988 4650 1302 4700 
Q 1616 4750 1894 4750 
Q 2613 4750 3031 4423 
Q 3450 4097 3450 3541 
Q 3450 3153 3228 2886 
Q 3006 2619 2597 2516 
z
" id="DejaVuSans-33" transform="scale(0.015625)"/>
       </defs>
       <use xlink:href="#DejaVuSans-33"/>
       <use x="63.623047" xlink:href="#DejaVuSans-2e"/>
       <use x="95.410156" xlink:href="#DejaVuSans-30"/>
      </g>
     </g>
    </g>
    <g id="text_7">
     <!-- internuclear distance ($\AA$) -->
     <g transform="translate(95.149278 330.058437)scale(0.1 -0.1)">
      <defs>
       <path d="M 603 3500 
L 1178 3500 
L 1178 0 
L 603 0 
L 603 3500 
z
M 603 4863 
L 1178 4863 
L 1178 4134 
L 603 4134 
L 603 4863 
z
" id="DejaVuSans-69" transform="scale(0.015625)"/>
       <path d="M 3513 2113 
L 3513 0 
L 2938 0 
L 2938 2094 
Q 2938 2591 2744 2837 
Q 2550 3084 2163 3084 
Q 1697 3084 1428 2787 
Q 1159 2491 1159 1978 
L 1159 0 
L 581 0 
L 581 3500 
L 1159 3500 
L 1159 2956 
Q 1366 3272 1645 3428 
Q 1925 3584 2291 3584 
Q 2894 3584 3203 3211 
Q 3513 2838 3513 2113 
z
" id="DejaVuSans-6e" transform="scale(0.015625)"/>
       <path d="M 1172 4494 
L 1172 3500 
L 2356 3500 
L 2356 3053 
L 1172 3053 
L 1172 1153 
Q 1172 725 1289 603 
Q 1406 481 1766 481 
L 2356 481 
L 2356 0 
L 1766 0 
Q 1100 0 847 248 
Q 594 497 594 1153 
L 594 3053 
L 172 3053 
L 172 3500 
L 594 3500 
L 594 4494 
L 1172 4494 
z
" id="DejaVuSans-74" transform="scale(0.015625)"/>
       <path d="M 3597 1894 
L 3597 1613 
L 953 1613 
Q 991 1019 1311 708 
Q 1631 397 2203 397 
Q 2534 397 2845 478 
Q 3156 559 3463 722 
L 3463 178 
Q 3153 47 2828 -22 
Q 2503 -91 2169 -91 
Q 1331 -91 842 396 
Q 353 884 353 1716 
Q 353 2575 817 3079 
Q 1281 3584 2069 3584 
Q 2775 3584 3186 3129 
Q 3597 2675 3597 1894 
z
M 3022 2063 
Q 3016 2534 2758 2815 
Q 2500 3097 2075 3097 
Q 1594 3097 1305 2825 
Q 1016 2553 972 2059 
L 3022 2063 
z
" id="DejaVuSans-65" transform="scale(0.015625)"/>
       <path d="M 2631 2963 
Q 2534 3019 2420 3045 
Q 2306 3072 2169 3072 
Q 1681 3072 1420 2755 
Q 1159 2438 1159 1844 
L 1159 0 
L 581 0 
L 581 3500 
L 1159 3500 
L 1159 2956 
Q 1341 3275 1631 3429 
Q 1922 3584 2338 3584 
Q 2397 3584 2469 3576 
Q 2541 3569 2628 3553 
L 2631 2963 
z
" id="DejaVuSans-72" transform="scale(0.015625)"/>
       <path d="M 544 1381 
L 544 3500 
L 1119 3500 
L 1119 1403 
Q 1119 906 1312 657 
Q 1506 409 1894 409 
Q 2359 409 2629 706 
Q 2900 1003 2900 1516 
L 2900 3500 
L 3475 3500 
L 3475 0 
L 2900 0 
L 2900 538 
Q 2691 219 2414 64 
Q 2138 -91 1772 -91 
Q 1169 -91 856 284 
Q 544 659 544 1381 
z
M 1991 3584 
L 1991 3584 
z
" id="DejaVuSans-75" transform="scale(0.015625)"/>
       <path d="M 3122 3366 
L 3122 2828 
Q 2878 2963 2633 3030 
Q 2388 3097 2138 3097 
Q 1578 3097 1268 2742 
Q 959 2388 959 1747 
Q 959 1106 1268 751 
Q 1578 397 2138 397 
Q 2388 397 2633 464 
Q 2878 531 3122 666 
L 3122 134 
Q 2881 22 2623 -34 
Q 2366 -91 2075 -91 
Q 1284 -91 818 406 
Q 353 903 353 1747 
Q 353 2603 823 3093 
Q 1294 3584 2113 3584 
Q 2378 3584 2631 3529 
Q 2884 3475 3122 3366 
z
" id="DejaVuSans-63" transform="scale(0.015625)"/>
       <path d="M 603 4863 
L 1178 4863 
L 1178 0 
L 603 0 
L 603 4863 
z
" id="DejaVuSans-6c" transform="scale(0.015625)"/>
       <path d="M 2194 1759 
Q 1497 1759 1228 1600 
Q 959 1441 959 1056 
Q 959 750 1161 570 
Q 1363 391 1709 391 
Q 2188 391 2477 730 
Q 2766 1069 2766 1631 
L 2766 1759 
L 2194 1759 
z
M 3341 1997 
L 3341 0 
L 2766 0 
L 2766 531 
Q 2569 213 2275 61 
Q 1981 -91 1556 -91 
Q 1019 -91 701 211 
Q 384 513 384 1019 
Q 384 1609 779 1909 
Q 1175 2209 1959 2209 
L 2766 2209 
L 2766 2266 
Q 2766 2663 2505 2880 
Q 2244 3097 1772 3097 
Q 1472 3097 1187 3025 
Q 903 2953 641 2809 
L 641 3341 
Q 956 3463 1253 3523 
Q 1550 3584 1831 3584 
Q 2591 3584 2966 3190 
Q 3341 2797 3341 1997 
z
" id="DejaVuSans-61" transform="scale(0.015625)"/>
       <path id="DejaVuSans-20" transform="scale(0.015625)"/>
       <path d="M 2906 2969 
L 2906 4863 
L 3481 4863 
L 3481 0 
L 2906 0 
L 2906 525 
Q 2725 213 2448 61 
Q 2172 -91 1784 -91 
Q 1150 -91 751 415 
Q 353 922 353 1747 
Q 353 2572 751 3078 
Q 1150 3584 1784 3584 
Q 2172 3584 2448 3432 
Q 2725 3281 2906 2969 
z
M 947 1747 
Q 947 1113 1208 752 
Q 1469 391 1925 391 
Q 2381 391 2643 752 
Q 2906 1113 2906 1747 
Q 2906 2381 2643 2742 
Q 2381 3103 1925 3103 
Q 1469 3103 1208 2742 
Q 947 2381 947 1747 
z
" id="DejaVuSans-64" transform="scale(0.015625)"/>
       <path d="M 2834 3397 
L 2834 2853 
Q 2591 2978 2328 3040 
Q 2066 3103 1784 3103 
Q 1356 3103 1142 2972 
Q 928 2841 928 2578 
Q 928 2378 1081 2264 
Q 1234 2150 1697 2047 
L 1894 2003 
Q 2506 1872 2764 1633 
Q 3022 1394 3022 966 
Q 3022 478 2636 193 
Q 2250 -91 1575 -91 
Q 1294 -91 989 -36 
Q 684 19 347 128 
L 347 722 
Q 666 556 975 473 
Q 1284 391 1588 391 
Q 1994 391 2212 530 
Q 2431 669 2431 922 
Q 2431 1156 2273 1281 
Q 2116 1406 1581 1522 
L 1381 1569 
Q 847 1681 609 1914 
Q 372 2147 372 2553 
Q 372 3047 722 3315 
Q 1072 3584 1716 3584 
Q 2034 3584 2315 3537 
Q 2597 3491 2834 3397 
z
" id="DejaVuSans-73" transform="scale(0.015625)"/>
       <path d="M 1984 4856 
Q 1566 4138 1362 3434 
Q 1159 2731 1159 2009 
Q 1159 1288 1364 580 
Q 1569 -128 1984 -844 
L 1484 -844 
Q 1016 -109 783 600 
Q 550 1309 550 2009 
Q 550 2706 781 3412 
Q 1013 4119 1484 4856 
L 1984 4856 
z
" id="DejaVuSans-28" transform="scale(0.015625)"/>
       <path d="M 3188 5081 
Q 3188 5278 3048 5417 
Q 2909 5556 2713 5556 
Q 2513 5556 2377 5420 
Q 2241 5284 2241 5081 
Q 2241 4884 2377 4746 
Q 2513 4609 2713 4609 
Q 2909 4609 3048 4746 
Q 3188 4884 3188 5081 
z
M 2203 4397 
Q 2034 4513 1945 4689 
Q 1856 4866 1856 5081 
Q 1856 5438 2106 5689 
Q 2356 5941 2713 5941 
Q 3069 5941 3320 5689 
Q 3572 5438 3572 5081 
Q 3572 4834 3458 4643 
Q 3344 4453 3128 4341 
L 3938 0 
L 3278 0 
L 3084 1197 
L 984 1197 
L 325 0 
L -341 0 
L 2203 4397 
z
M 2584 4044 
L 1275 1722 
L 2988 1722 
L 2584 4044 
z
" id="DejaVuSans-Oblique-c5" transform="scale(0.015625)"/>
       <path d="M 513 4856 
L 1013 4856 
Q 1481 4119 1714 3412 
Q 1947 2706 1947 2009 
Q 1947 1309 1714 600 
Q 1481 -109 1013 -844 
L 513 -844 
Q 928 -128 1133 580 
Q 1338 1288 1338 2009 
Q 1338 2731 1133 3434 
Q 928 4138 513 4856 
z
" id="DejaVuSans-29" transform="scale(0.015625)"/>
      </defs>
      <use transform="translate(0 0.171875)" xlink:href="#DejaVuSans-69"/>
      <use transform="translate(27.783203 0.171875)" xlink:href="#DejaVuSans-6e"/>
      <use transform="translate(91.162109 0.171875)" xlink:href="#DejaVuSans-74"/>
      <use transform="translate(130.371094 0.171875)" xlink:href="#DejaVuSans-65"/>
      <use transform="translate(191.894531 0.171875)" xlink:href="#DejaVuSans-72"/>
      <use transform="translate(233.007812 0.171875)" xlink:href="#DejaVuSans-6e"/>
      <use transform="translate(296.386719 0.171875)" xlink:href="#DejaVuSans-75"/>
      <use transform="translate(359.765625 0.171875)" xlink:href="#DejaVuSans-63"/>
      <use transform="translate(414.746094 0.171875)" xlink:href="#DejaVuSans-6c"/>
      <use transform="translate(442.529297 0.171875)" xlink:href="#DejaVuSans-65"/>
      <use transform="translate(504.052734 0.171875)" xlink:href="#DejaVuSans-61"/>
      <use transform="translate(565.332031 0.171875)" xlink:href="#DejaVuSans-72"/>
      <use transform="translate(606.445312 0.171875)" xlink:href="#DejaVuSans-20"/>
      <use transform="translate(638.232422 0.171875)" xlink:href="#DejaVuSans-64"/>
      <use transform="translate(701.708984 0.171875)" xlink:href="#DejaVuSans-69"/>
      <use transform="translate(729.492188 0.171875)" xlink:href="#DejaVuSans-73"/>
      <use transform="translate(781.591797 0.171875)" xlink:href="#DejaVuSans-74"/>
      <use transform="translate(820.800781 0.171875)" xlink:href="#DejaVuSans-61"/>
      <use transform="translate(882.080078 0.171875)" xlink:href="#DejaVuSans-6e"/>
      <use transform="translate(945.458984 0.171875)" xlink:href="#DejaVuSans-63"/>
      <use transform="translate(1000.439453 0.171875)" xlink:href="#DejaVuSans-65"/>
      <use transform="translate(1061.962891 0.171875)" xlink:href="#DejaVuSans-20"/>
      <use transform="translate(1093.75 0.171875)" xlink:href="#DejaVuSans-28"/>
      <use transform="translate(1132.763672 0.171875)" xlink:href="#DejaVuSans-Oblique-c5"/>
      <use transform="translate(1201.171875 0.171875)" xlink:href="#DejaVuSans-29"/>
     </g>
    </g>
   </g>
   <g id="matplotlib.axis_2">
    <g id="ytick_1">
     <g id="line2d_7">
      <defs>
       <path d="M 0 0 
L -3.5 0 
" id="m3faa4d8eec" style="stroke:#000000;stroke-width:0.8;"/>
      </defs>
      <g>
       <use style="stroke:#000000;stroke-width:0.8;" x="77.672" xlink:href="#m3faa4d8eec" y="300.76"/>
      </g>
     </g>
     <g id="text_8">
      <!-- −10000 -->
      <g transform="translate(30.479813 304.559219)scale(0.1 -0.1)">
       <defs>
        <path d="M 678 2272 
L 4684 2272 
L 4684 1741 
L 678 1741 
L 678 2272 
z
" id="DejaVuSans-2212" transform="scale(0.015625)"/>
       </defs>
       <use xlink:href="#DejaVuSans-2212"/>
       <use x="83.789062" xlink:href="#DejaVuSans-31"/>
       <use x="147.412109" xlink:href="#DejaVuSans-30"/>
       <use x="211.035156" xlink:href="#DejaVuSans-30"/>
       <use x="274.658203" xlink:href="#DejaVuSans-30"/>
       <use x="338.28125" xlink:href="#DejaVuSans-30"/>
      </g>
     </g>
    </g>
    <g id="ytick_2">
     <g id="line2d_8">
      <g>
       <use style="stroke:#000000;stroke-width:0.8;" x="77.672" xlink:href="#m3faa4d8eec" y="268.982222"/>
      </g>
     </g>
     <g id="text_9">
      <!-- 0 -->
      <g transform="translate(64.3095 272.781441)scale(0.1 -0.1)">
       <use xlink:href="#DejaVuSans-30"/>
      </g>
     </g>
    </g>
    <g id="ytick_3">
     <g id="line2d_9">
      <g>
       <use style="stroke:#000000;stroke-width:0.8;" x="77.672" xlink:href="#m3faa4d8eec" y="237.204444"/>
      </g>
     </g>
     <g id="text_10">
      <!-- 10000 -->
      <g transform="translate(38.8595 241.003663)scale(0.1 -0.1)">
       <use xlink:href="#DejaVuSans-31"/>
       <use x="63.623047" xlink:href="#DejaVuSans-30"/>
       <use x="127.246094" xlink:href="#DejaVuSans-30"/>
       <use x="190.869141" xlink:href="#DejaVuSans-30"/>
       <use x="254.492188" xlink:href="#DejaVuSans-30"/>
      </g>
     </g>
    </g>
    <g id="ytick_4">
     <g id="line2d_10">
      <g>
       <use style="stroke:#000000;stroke-width:0.8;" x="77.672" xlink:href="#m3faa4d8eec" y="205.426667"/>
      </g>
     </g>
     <g id="text_11">
      <!-- 20000 -->
      <g transform="translate(38.8595 209.225885)scale(0.1 -0.1)">
       <use xlink:href="#DejaVuSans-32"/>
       <use x="63.623047" xlink:href="#DejaVuSans-30"/>
       <use x="127.246094" xlink:href="#DejaVuSans-30"/>
       <use x="190.869141" xlink:href="#DejaVuSans-30"/>
       <use x="254.492188" xlink:href="#DejaVuSans-30"/>
      </g>
     </g>
    </g>
    <g id="ytick_5">
     <g id="line2d_11">
      <g>
       <use style="stroke:#000000;stroke-width:0.8;" x="77.672" xlink:href="#m3faa4d8eec" y="173.648889"/>
      </g>
     </g>
     <g id="text_12">
      <!-- 30000 -->
      <g transform="translate(38.8595 177.448108)scale(0.1 -0.1)">
       <use xlink:href="#DejaVuSans-33"/>
       <use x="63.623047" xlink:href="#DejaVuSans-30"/>
       <use x="127.246094" xlink:href="#DejaVuSans-30"/>
       <use x="190.869141" xlink:href="#DejaVuSans-30"/>
       <use x="254.492188" xlink:href="#DejaVuSans-30"/>
      </g>
     </g>
    </g>
    <g id="ytick_6">
     <g id="line2d_12">
      <g>
       <use style="stroke:#000000;stroke-width:0.8;" x="77.672" xlink:href="#m3faa4d8eec" y="141.871111"/>
      </g>
     </g>
     <g id="text_13">
      <!-- 40000 -->
      <g transform="translate(38.8595 145.67033)scale(0.1 -0.1)">
       <defs>
        <path d="M 2419 4116 
L 825 1625 
L 2419 1625 
L 2419 4116 
z
M 2253 4666 
L 3047 4666 
L 3047 1625 
L 3713 1625 
L 3713 1100 
L 3047 1100 
L 3047 0 
L 2419 0 
L 2419 1100 
L 313 1100 
L 313 1709 
L 2253 4666 
z
" id="DejaVuSans-34" transform="scale(0.015625)"/>
       </defs>
       <use xlink:href="#DejaVuSans-34"/>
       <use x="63.623047" xlink:href="#DejaVuSans-30"/>
       <use x="127.246094" xlink:href="#DejaVuSans-30"/>
       <use x="190.869141" xlink:href="#DejaVuSans-30"/>
       <use x="254.492188" xlink:href="#DejaVuSans-30"/>
      </g>
     </g>
    </g>
    <g id="ytick_7">
     <g id="line2d_13">
      <g>
       <use style="stroke:#000000;stroke-width:0.8;" x="77.672" xlink:href="#m3faa4d8eec" y="110.093333"/>
      </g>
     </g>
     <g id="text_14">
      <!-- 50000 -->
      <g transform="translate(38.8595 113.892552)scale(0.1 -0.1)">
       <use xlink:href="#DejaVuSans-35"/>
       <use x="63.623047" xlink:href="#DejaVuSans-30"/>
       <use x="127.246094" xlink:href="#DejaVuSans-30"/>
       <use x="190.869141" xlink:href="#DejaVuSans-30"/>
       <use x="254.492188" xlink:href="#DejaVuSans-30"/>
      </g>
     </g>
    </g>
    <g id="ytick_8">
     <g id="line2d_14">
      <g>
       <use style="stroke:#000000;stroke-width:0.8;" x="77.672" xlink:href="#m3faa4d8eec" y="78.315556"/>
      </g>
     </g>
     <g id="text_15">
      <!-- 60000 -->
      <g transform="translate(38.8595 82.114774)scale(0.1 -0.1)">
       <defs>
        <path d="M 2113 2584 
Q 1688 2584 1439 2293 
Q 1191 2003 1191 1497 
Q 1191 994 1439 701 
Q 1688 409 2113 409 
Q 2538 409 2786 701 
Q 3034 994 3034 1497 
Q 3034 2003 2786 2293 
Q 2538 2584 2113 2584 
z
M 3366 4563 
L 3366 3988 
Q 3128 4100 2886 4159 
Q 2644 4219 2406 4219 
Q 1781 4219 1451 3797 
Q 1122 3375 1075 2522 
Q 1259 2794 1537 2939 
Q 1816 3084 2150 3084 
Q 2853 3084 3261 2657 
Q 3669 2231 3669 1497 
Q 3669 778 3244 343 
Q 2819 -91 2113 -91 
Q 1303 -91 875 529 
Q 447 1150 447 2328 
Q 447 3434 972 4092 
Q 1497 4750 2381 4750 
Q 2619 4750 2861 4703 
Q 3103 4656 3366 4563 
z
" id="DejaVuSans-36" transform="scale(0.015625)"/>
       </defs>
       <use xlink:href="#DejaVuSans-36"/>
       <use x="63.623047" xlink:href="#DejaVuSans-30"/>
       <use x="127.246094" xlink:href="#DejaVuSans-30"/>
       <use x="190.869141" xlink:href="#DejaVuSans-30"/>
       <use x="254.492188" xlink:href="#DejaVuSans-30"/>
      </g>
     </g>
    </g>
    <g id="ytick_9">
     <g id="line2d_15">
      <g>
       <use style="stroke:#000000;stroke-width:0.8;" x="77.672" xlink:href="#m3faa4d8eec" y="46.537778"/>
      </g>
     </g>
     <g id="text_16">
      <!-- 70000 -->
      <g transform="translate(38.8595 50.336997)scale(0.1 -0.1)">
       <defs>
        <path d="M 525 4666 
L 3525 4666 
L 3525 4397 
L 1831 0 
L 1172 0 
L 2766 4134 
L 525 4134 
L 525 4666 
z
" id="DejaVuSans-37" transform="scale(0.015625)"/>
       </defs>
       <use xlink:href="#DejaVuSans-37"/>
       <use x="63.623047" xlink:href="#DejaVuSans-30"/>
       <use x="127.246094" xlink:href="#DejaVuSans-30"/>
       <use x="190.869141" xlink:href="#DejaVuSans-30"/>
       <use x="254.492188" xlink:href="#DejaVuSans-30"/>
      </g>
     </g>
    </g>
    <g id="ytick_10">
     <g id="line2d_16">
      <g>
       <use style="stroke:#000000;stroke-width:0.8;" x="77.672" xlink:href="#m3faa4d8eec" y="14.76"/>
      </g>
     </g>
     <g id="text_17">
      <!-- 80000 -->
      <g transform="translate(38.8595 18.559219)scale(0.1 -0.1)">
       <defs>
        <path d="M 2034 2216 
Q 1584 2216 1326 1975 
Q 1069 1734 1069 1313 
Q 1069 891 1326 650 
Q 1584 409 2034 409 
Q 2484 409 2743 651 
Q 3003 894 3003 1313 
Q 3003 1734 2745 1975 
Q 2488 2216 2034 2216 
z
M 1403 2484 
Q 997 2584 770 2862 
Q 544 3141 544 3541 
Q 544 4100 942 4425 
Q 1341 4750 2034 4750 
Q 2731 4750 3128 4425 
Q 3525 4100 3525 3541 
Q 3525 3141 3298 2862 
Q 3072 2584 2669 2484 
Q 3125 2378 3379 2068 
Q 3634 1759 3634 1313 
Q 3634 634 3220 271 
Q 2806 -91 2034 -91 
Q 1263 -91 848 271 
Q 434 634 434 1313 
Q 434 1759 690 2068 
Q 947 2378 1403 2484 
z
M 1172 3481 
Q 1172 3119 1398 2916 
Q 1625 2713 2034 2713 
Q 2441 2713 2670 2916 
Q 2900 3119 2900 3481 
Q 2900 3844 2670 4047 
Q 2441 4250 2034 4250 
Q 1625 4250 1398 4047 
Q 1172 3844 1172 3481 
z
" id="DejaVuSans-38" transform="scale(0.015625)"/>
       </defs>
       <use xlink:href="#DejaVuSans-38"/>
       <use x="63.623047" xlink:href="#DejaVuSans-30"/>
       <use x="127.246094" xlink:href="#DejaVuSans-30"/>
       <use x="190.869141" xlink:href="#DejaVuSans-30"/>
       <use x="254.492188" xlink:href="#DejaVuSans-30"/>
      </g>
     </g>
    </g>
    <g id="text_18">
     <!-- potential energy (cm$^{-1}$) -->
     <g transform="translate(24.379813 217.56)rotate(-90)scale(0.1 -0.1)">
      <defs>
       <path d="M 1159 525 
L 1159 -1331 
L 581 -1331 
L 581 3500 
L 1159 3500 
L 1159 2969 
Q 1341 3281 1617 3432 
Q 1894 3584 2278 3584 
Q 2916 3584 3314 3078 
Q 3713 2572 3713 1747 
Q 3713 922 3314 415 
Q 2916 -91 2278 -91 
Q 1894 -91 1617 61 
Q 1341 213 1159 525 
z
M 3116 1747 
Q 3116 2381 2855 2742 
Q 2594 3103 2138 3103 
Q 1681 3103 1420 2742 
Q 1159 2381 1159 1747 
Q 1159 1113 1420 752 
Q 1681 391 2138 391 
Q 2594 391 2855 752 
Q 3116 1113 3116 1747 
z
" id="DejaVuSans-70" transform="scale(0.015625)"/>
       <path d="M 1959 3097 
Q 1497 3097 1228 2736 
Q 959 2375 959 1747 
Q 959 1119 1226 758 
Q 1494 397 1959 397 
Q 2419 397 2687 759 
Q 2956 1122 2956 1747 
Q 2956 2369 2687 2733 
Q 2419 3097 1959 3097 
z
M 1959 3584 
Q 2709 3584 3137 3096 
Q 3566 2609 3566 1747 
Q 3566 888 3137 398 
Q 2709 -91 1959 -91 
Q 1206 -91 779 398 
Q 353 888 353 1747 
Q 353 2609 779 3096 
Q 1206 3584 1959 3584 
z
" id="DejaVuSans-6f" transform="scale(0.015625)"/>
       <path d="M 2906 1791 
Q 2906 2416 2648 2759 
Q 2391 3103 1925 3103 
Q 1463 3103 1205 2759 
Q 947 2416 947 1791 
Q 947 1169 1205 825 
Q 1463 481 1925 481 
Q 2391 481 2648 825 
Q 2906 1169 2906 1791 
z
M 3481 434 
Q 3481 -459 3084 -895 
Q 2688 -1331 1869 -1331 
Q 1566 -1331 1297 -1286 
Q 1028 -1241 775 -1147 
L 775 -588 
Q 1028 -725 1275 -790 
Q 1522 -856 1778 -856 
Q 2344 -856 2625 -561 
Q 2906 -266 2906 331 
L 2906 616 
Q 2728 306 2450 153 
Q 2172 0 1784 0 
Q 1141 0 747 490 
Q 353 981 353 1791 
Q 353 2603 747 3093 
Q 1141 3584 1784 3584 
Q 2172 3584 2450 3431 
Q 2728 3278 2906 2969 
L 2906 3500 
L 3481 3500 
L 3481 434 
z
" id="DejaVuSans-67" transform="scale(0.015625)"/>
       <path d="M 2059 -325 
Q 1816 -950 1584 -1140 
Q 1353 -1331 966 -1331 
L 506 -1331 
L 506 -850 
L 844 -850 
Q 1081 -850 1212 -737 
Q 1344 -625 1503 -206 
L 1606 56 
L 191 3500 
L 800 3500 
L 1894 763 
L 2988 3500 
L 3597 3500 
L 2059 -325 
z
" id="DejaVuSans-79" transform="scale(0.015625)"/>
       <path d="M 3328 2828 
Q 3544 3216 3844 3400 
Q 4144 3584 4550 3584 
Q 5097 3584 5394 3201 
Q 5691 2819 5691 2113 
L 5691 0 
L 5113 0 
L 5113 2094 
Q 5113 2597 4934 2840 
Q 4756 3084 4391 3084 
Q 3944 3084 3684 2787 
Q 3425 2491 3425 1978 
L 3425 0 
L 2847 0 
L 2847 2094 
Q 2847 2600 2669 2842 
Q 2491 3084 2119 3084 
Q 1678 3084 1418 2786 
Q 1159 2488 1159 1978 
L 1159 0 
L 581 0 
L 581 3500 
L 1159 3500 
L 1159 2956 
Q 1356 3278 1631 3431 
Q 1906 3584 2284 3584 
Q 2666 3584 2933 3390 
Q 3200 3197 3328 2828 
z
" id="DejaVuSans-6d" transform="scale(0.015625)"/>
      </defs>
      <use transform="translate(0 0.684375)" xlink:href="#DejaVuSans-70"/>
      <use transform="translate(63.476562 0.684375)" xlink:href="#DejaVuSans-6f"/>
      <use transform="translate(124.658203 0.684375)" xlink:href="#DejaVuSans-74"/>
      <use transform="translate(163.867188 0.684375)" xlink:href="#DejaVuSans-65"/>
      <use transform="translate(225.390625 0.684375)" xlink:href="#DejaVuSans-6e"/>
      <use transform="translate(288.769531 0.684375)" xlink:href="#DejaVuSans-74"/>
      <use transform="translate(327.978516 0.684375)" xlink:href="#DejaVuSans-69"/>
      <use transform="translate(355.761719 0.684375)" xlink:href="#DejaVuSans-61"/>
      <use transform="translate(417.041016 0.684375)" xlink:href="#DejaVuSans-6c"/>
      <use transform="translate(444.824219 0.684375)" xlink:href="#DejaVuSans-20"/>
      <use transform="translate(476.611328 0.684375)" xlink:href="#DejaVuSans-65"/>
      <use transform="translate(538.134766 0.684375)" xlink:href="#DejaVuSans-6e"/>
      <use transform="translate(601.513672 0.684375)" xlink:href="#DejaVuSans-65"/>
      <use transform="translate(663.037109 0.684375)" xlink:href="#DejaVuSans-72"/>
      <use transform="translate(704.150391 0.684375)" xlink:href="#DejaVuSans-67"/>
      <use transform="translate(767.626953 0.684375)" xlink:href="#DejaVuSans-79"/>
      <use transform="translate(826.806641 0.684375)" xlink:href="#DejaVuSans-20"/>
      <use transform="translate(858.59375 0.684375)" xlink:href="#DejaVuSans-28"/>
      <use transform="translate(897.607422 0.684375)" xlink:href="#DejaVuSans-63"/>
      <use transform="translate(952.587891 0.684375)" xlink:href="#DejaVuSans-6d"/>
      <use transform="translate(1050.957031 38.965625)scale(0.7)" xlink:href="#DejaVuSans-2212"/>
      <use transform="translate(1109.609375 38.965625)scale(0.7)" xlink:href="#DejaVuSans-31"/>
      <use transform="translate(1156.879883 0.684375)" xlink:href="#DejaVuSans-29"/>
     </g>
    </g>
   </g>
   <g id="line2d_17">
    <path clip-path="url(#pdc30f7dbc5)" d="M 102.379171 -1 
L 103.884191 47.445081 
L 105.411114 89.466176 
L 106.874416 123.794818 
L 108.337718 152.994915 
L 109.737398 176.683366 
L 111.137078 196.703618 
L 112.473137 212.780785 
L 113.809195 226.210631 
L 115.145253 237.276697 
L 116.41769 245.988035 
L 117.626504 252.741667 
L 118.771697 257.888226 
L 119.853268 261.728458 
L 120.807595 264.364232 
L 121.698301 266.23999 
L 122.525385 267.515823 
L 123.288846 268.324767 
L 123.988687 268.777192 
L 124.688527 268.971591 
L 125.388367 268.925412 
L 126.088207 268.654914 
L 126.851669 268.122219 
L 127.742374 267.212243 
L 128.760323 265.826389 
L 129.905516 263.873176 
L 131.241574 261.132835 
L 132.83212 257.319452 
L 134.677153 252.282707 
L 136.903916 245.527967 
L 139.766898 236.087459 
L 144.093182 220.958329 
L 146.256324 213.654534 
L 148.737575 206.320986 
L 151.282448 199.499505 
L 153.827321 193.306079 
L 156.435816 187.535752 
L 159.107932 182.163089 
L 161.843671 177.163493 
L 164.643031 172.513307 
L 167.506013 168.189886 
L 170.432617 164.171647 
L 173.422842 160.438092 
L 176.540312 156.900986 
L 179.721403 153.623365 
L 183.029737 150.529524 
L 186.465316 147.617483 
L 190.09176 144.837267 
L 193.845447 142.239367 
L 197.79 139.778994 
L 201.925419 137.459724 
L 206.315324 135.252367 
L 210.959717 133.165604 
L 215.922219 131.180669 
L 221.202831 129.308029 
L 226.928795 127.516759 
L 233.100111 125.823664 
L 236.726555 124.9285 
L 236.726555 124.9285 
" style="fill:none;stroke:#1f77b4;stroke-linecap:square;stroke-width:1.5;"/>
   </g>
   <g id="line2d_18">
    <defs>
     <path d="M 0 3 
C 0.795609 3 1.55874 2.683901 2.12132 2.12132 
C 2.683901 1.55874 3 0.795609 3 0 
C 3 -0.795609 2.683901 -1.55874 2.12132 -2.12132 
C 1.55874 -2.683901 0.795609 -3 0 -3 
C -0.795609 -3 -1.55874 -2.683901 -2.12132 -2.12132 
C -2.683901 -1.55874 -3 -0.795609 -3 0 
C -3 0.795609 -2.683901 1.55874 -2.12132 2.12132 
C -1.55874 2.683901 -0.795609 3 0 3 
z
" id="md16d7d0db3" style="stroke:#17becf;"/>
    </defs>
    <g clip-path="url(#pdc30f7dbc5)">
     <use style="fill:#17becf;stroke:#17becf;" x="112.834145" xlink:href="#md16d7d0db3" y="216.816426"/>
     <use style="fill:#17becf;stroke:#17becf;" x="113.351972" xlink:href="#md16d7d0db3" y="221.947234"/>
     <use style="fill:#17becf;stroke:#17becf;" x="113.915095" xlink:href="#md16d7d0db3" y="227.162826"/>
     <use style="fill:#17becf;stroke:#17becf;" x="114.533582" xlink:href="#md16d7d0db3" y="232.4632"/>
     <use style="fill:#17becf;stroke:#17becf;" x="115.22161" xlink:href="#md16d7d0db3" y="237.848358"/>
     <use style="fill:#17becf;stroke:#17becf;" x="116.000277" xlink:href="#md16d7d0db3" y="243.318298"/>
     <use style="fill:#17becf;stroke:#17becf;" x="116.903472" xlink:href="#md16d7d0db3" y="248.873022"/>
     <use style="fill:#17becf;stroke:#17becf;" x="117.992289" xlink:href="#md16d7d0db3" y="254.512529"/>
     <use style="fill:#17becf;stroke:#17becf;" x="119.400841" xlink:href="#md16d7d0db3" y="260.236819"/>
     <use style="fill:#17becf;stroke:#17becf;" x="121.592872" xlink:href="#md16d7d0db3" y="266.045892"/>
     <use style="fill:#17becf;stroke:#17becf;" x="128.200887" xlink:href="#md16d7d0db3" y="266.631462"/>
     <use style="fill:#17becf;stroke:#17becf;" x="131.384174" xlink:href="#md16d7d0db3" y="260.813911"/>
     <use style="fill:#17becf;stroke:#17becf;" x="133.67884" xlink:href="#md16d7d0db3" y="255.081143"/>
     <use style="fill:#17becf;stroke:#17becf;" x="135.642438" xlink:href="#md16d7d0db3" y="249.433157"/>
     <use style="fill:#17becf;stroke:#17becf;" x="137.42288" xlink:href="#md16d7d0db3" y="243.869955"/>
     <use style="fill:#17becf;stroke:#17becf;" x="139.08587" xlink:href="#md16d7d0db3" y="238.391536"/>
     <use style="fill:#17becf;stroke:#17becf;" x="140.667481" xlink:href="#md16d7d0db3" y="232.997901"/>
     <use style="fill:#17becf;stroke:#17becf;" x="142.190103" xlink:href="#md16d7d0db3" y="227.689048"/>
     <use style="fill:#17becf;stroke:#17becf;" x="143.668826" xlink:href="#md16d7d0db3" y="222.464978"/>
     <use style="fill:#17becf;stroke:#17becf;" x="145.114441" xlink:href="#md16d7d0db3" y="217.325692"/>
    </g>
   </g>
   <g id="line2d_19">
    <path clip-path="url(#pdc30f7dbc5)" d="M 107.771857 -1 
L 109.037558 26.085149 
L 110.309995 48.561642 
L 111.518809 66.183596 
L 112.854868 82.355856 
L 114.190926 94.72528 
L 115.463362 104.472848 
L 116.672177 112.058392 
L 117.81737 117.881979 
L 118.898941 122.281256 
L 119.91689 125.537249 
L 120.871217 127.882313 
L 121.761923 129.50793 
L 122.589006 130.571646 
L 123.352468 131.203008 
L 124.052308 131.508303 
L 124.752148 131.570854 
L 125.451988 131.408125 
L 126.21545 130.99245 
L 127.042534 130.284362 
L 127.996861 129.16405 
L 129.078432 127.541951 
L 130.350869 125.212336 
L 131.814171 122.051115 
L 133.53196 117.796099 
L 135.63148 111.969556 
L 138.239975 104.04047 
L 141.93004 92.048043 
L 146.956164 74.973356 
L 148.419466 69.006134 
L 149.94639 61.802056 
L 151.473314 53.459868 
L 153.000237 43.820228 
L 154.527161 32.704265 
L 156.054085 19.91151 
L 157.581009 5.217655 
L 158.168976 -1 
L 158.168976 -1 
" style="fill:none;stroke:#2ca02c;stroke-linecap:square;stroke-width:1.5;"/>
   </g>
   <g id="line2d_20">
    <defs>
     <path d="M 0 3 
C 0.795609 3 1.55874 2.683901 2.12132 2.12132 
C 2.683901 1.55874 3 0.795609 3 0 
C 3 -0.795609 2.683901 -1.55874 2.12132 -2.12132 
C 1.55874 -2.683901 0.795609 -3 0 -3 
C -0.795609 -3 -1.55874 -2.683901 -2.12132 -2.12132 
C -2.683901 -1.55874 -3 -0.795609 -3 0 
C -3 0.795609 -2.683901 1.55874 -2.12132 2.12132 
C -1.55874 2.683901 -0.795609 3 0 3 
z
" id="mdaa20f67df" style="stroke:#bcbd22;"/>
    </defs>
    <g clip-path="url(#pdc30f7dbc5)">
     <use style="fill:#bcbd22;stroke:#bcbd22;" x="112.658445" xlink:href="#mdaa20f67df" y="80.342247"/>
     <use style="fill:#bcbd22;stroke:#bcbd22;" x="113.157522" xlink:href="#mdaa20f67df" y="85.358846"/>
     <use style="fill:#bcbd22;stroke:#bcbd22;" x="113.70221" xlink:href="#mdaa20f67df" y="90.464041"/>
     <use style="fill:#bcbd22;stroke:#bcbd22;" x="114.302628" xlink:href="#mdaa20f67df" y="95.657833"/>
     <use style="fill:#bcbd22;stroke:#bcbd22;" x="114.973025" xlink:href="#mdaa20f67df" y="100.940221"/>
     <use style="fill:#bcbd22;stroke:#bcbd22;" x="115.734607" xlink:href="#mdaa20f67df" y="106.311206"/>
     <use style="fill:#bcbd22;stroke:#bcbd22;" x="116.621451" xlink:href="#mdaa20f67df" y="111.770787"/>
     <use style="fill:#bcbd22;stroke:#bcbd22;" x="117.694997" xlink:href="#mdaa20f67df" y="117.318964"/>
     <use style="fill:#bcbd22;stroke:#bcbd22;" x="119.090162" xlink:href="#mdaa20f67df" y="122.955738"/>
     <use style="fill:#bcbd22;stroke:#bcbd22;" x="121.273621" xlink:href="#mdaa20f67df" y="128.681109"/>
     <use style="fill:#bcbd22;stroke:#bcbd22;" x="127.925375" xlink:href="#mdaa20f67df" y="129.258519"/>
     <use style="fill:#bcbd22;stroke:#bcbd22;" x="131.159252" xlink:href="#mdaa20f67df" y="123.524289"/>
     <use style="fill:#bcbd22;stroke:#bcbd22;" x="133.500478" xlink:href="#mdaa20f67df" y="117.878655"/>
     <use style="fill:#bcbd22;stroke:#bcbd22;" x="135.510215" xlink:href="#mdaa20f67df" y="112.321618"/>
     <use style="fill:#bcbd22;stroke:#bcbd22;" x="137.337329" xlink:href="#mdaa20f67df" y="106.853177"/>
     <use style="fill:#bcbd22;stroke:#bcbd22;" x="139.047966" xlink:href="#mdaa20f67df" y="101.473333"/>
     <use style="fill:#bcbd22;stroke:#bcbd22;" x="140.678468" xlink:href="#mdaa20f67df" y="96.182085"/>
     <use style="fill:#bcbd22;stroke:#bcbd22;" x="142.251423" xlink:href="#mdaa20f67df" y="90.979433"/>
     <use style="fill:#bcbd22;stroke:#bcbd22;" x="143.782075" xlink:href="#mdaa20f67df" y="85.865378"/>
     <use style="fill:#bcbd22;stroke:#bcbd22;" x="145.281357" xlink:href="#mdaa20f67df" y="80.83992"/>
    </g>
   </g>
   <g id="line2d_21">
    <path clip-path="url(#pdc30f7dbc5)" d="M 77.672 268.981858 
L 113.745573 268.874458 
L 114.890766 268.626272 
L 115.654228 268.253956 
L 116.354068 267.654684 
L 116.990286 266.792777 
L 117.626504 265.521711 
L 118.262723 263.736462 
L 118.962563 261.075275 
L 119.726024 257.276354 
L 120.680352 251.319405 
L 123.606956 231.94756 
L 124.243174 229.579917 
L 124.688527 228.652613 
L 125.006636 228.38438 
L 125.261123 228.409589 
L 125.579232 228.737251 
L 125.960963 229.548782 
L 126.469938 231.28303 
L 127.106156 234.333056 
L 128.060483 240.151246 
L 130.541734 255.835895 
L 131.496062 260.2974 
L 132.323145 263.203953 
L 133.086607 265.165496 
L 133.850069 266.550447 
L 134.613531 267.486323 
L 135.376993 268.092958 
L 136.267698 268.517397 
L 137.412891 268.792869 
L 139.067058 268.936265 
L 142.94799 268.980903 
L 236.726555 268.981858 
L 236.726555 268.981858 
" style="fill:none;stroke:#ff7f0e;stroke-linecap:square;stroke-width:1.5;"/>
   </g>
   <g id="line2d_22">
    <path clip-path="url(#pdc30f7dbc5)" d="M 77.672 268.962326 
L 110.182751 268.859087 
L 111.137078 268.607651 
L 111.773297 268.218487 
L 112.345893 267.591494 
L 112.854868 266.702812 
L 113.427464 265.189474 
L 114.00006 262.974959 
L 114.636279 259.539523 
L 115.399741 254.048244 
L 117.435639 238.241421 
L 117.81737 237.000756 
L 118.008235 236.816921 
L 118.135479 236.87666 
L 118.326344 237.258696 
L 118.580832 238.345463 
L 118.962563 241.270773 
L 119.407915 246.637922 
L 120.044134 257.44539 
L 121.952788 292.527711 
L 122.334519 295.674628 
L 122.589006 296.490392 
L 122.71625 296.49258 
L 122.907116 295.983302 
L 123.161603 294.361586 
L 123.543334 290.039266 
L 124.052308 281.378366 
L 126.024585 244.431792 
L 126.406316 241.802011 
L 126.597181 241.393467 
L 126.724425 241.46337 
L 126.91529 242.076505 
L 127.169778 243.810732 
L 127.551509 248.201003 
L 128.124105 257.927843 
L 130.03276 293.403987 
L 130.478112 297.484624 
L 130.796221 298.840206 
L 130.987087 299.01955 
L 131.114331 298.879481 
L 131.305196 298.291492 
L 131.623305 296.3601 
L 132.068658 291.894884 
L 132.704876 282.827097 
L 135.186127 241.900742 
L 135.313371 242.359413 
L 135.885967 244.994618 
L 137.03116 251.659746 
L 138.303596 258.629904 
L 139.194302 262.329996 
L 139.957764 264.641294 
L 140.721226 266.261492 
L 141.421066 267.265854 
L 142.184528 267.976263 
L 143.011611 268.435691 
L 144.02956 268.731576 
L 145.492862 268.89835 
L 148.483088 268.959046 
L 181.948166 268.962326 
L 236.726555 268.962326 
L 236.726555 268.962326 
" style="fill:none;stroke:#2ca02c;stroke-linecap:square;stroke-width:1.5;"/>
   </g>
   <g id="patch_3">
    <path d="M 77.672 300.76 
L 77.672 14.76 
" style="fill:none;stroke:#000000;stroke-linecap:square;stroke-linejoin:miter;stroke-width:0.8;"/>
   </g>
   <g id="patch_4">
    <path d="M 236.726555 300.76 
L 236.726555 14.76 
" style="fill:none;stroke:#000000;stroke-linecap:square;stroke-linejoin:miter;stroke-width:0.8;"/>
   </g>
   <g id="patch_5">
    <path d="M 77.672 300.76 
L 236.726555 300.76 
" style="fill:none;stroke:#000000;stroke-linecap:square;stroke-linejoin:miter;stroke-width:0.8;"/>
   </g>
   <g id="patch_6">
    <path d="M 77.672 14.76 
L 236.726555 14.76 
" style="fill:none;stroke:#000000;stroke-linecap:square;stroke-linejoin:miter;stroke-width:0.8;"/>
   </g>
  </g>
  <g id="axes_2">
   <g id="patch_7">
    <path d="M 290.945445 300.76 
L 450 300.76 
L 450 14.76 
L 290.945445 14.76 
z
" style="fill:#ffffff;"/>
   </g>
   <g id="matplotlib.axis_3">
    <g id="xtick_7">
     <g id="line2d_23">
      <g>
       <use style="stroke:#000000;stroke-width:0.8;" x="298.175197" xlink:href="#m16a9543002" y="300.76"/>
      </g>
     </g>
     <g id="text_19">
      <!-- 0 -->
      <g transform="translate(294.993947 315.358437)scale(0.1 -0.1)">
       <use xlink:href="#DejaVuSans-30"/>
      </g>
     </g>
    </g>
    <g id="xtick_8">
     <g id="line2d_24">
      <g>
       <use style="stroke:#000000;stroke-width:0.8;" x="339.488069" xlink:href="#m16a9543002" y="300.76"/>
      </g>
     </g>
     <g id="text_20">
      <!-- 2 -->
      <g transform="translate(336.306819 315.358437)scale(0.1 -0.1)">
       <use xlink:href="#DejaVuSans-32"/>
      </g>
     </g>
    </g>
    <g id="xtick_9">
     <g id="line2d_25">
      <g>
       <use style="stroke:#000000;stroke-width:0.8;" x="380.80094" xlink:href="#m16a9543002" y="300.76"/>
      </g>
     </g>
     <g id="text_21">
      <!-- 4 -->
      <g transform="translate(377.61969 315.358437)scale(0.1 -0.1)">
       <use xlink:href="#DejaVuSans-34"/>
      </g>
     </g>
    </g>
    <g id="xtick_10">
     <g id="line2d_26">
      <g>
       <use style="stroke:#000000;stroke-width:0.8;" x="422.113812" xlink:href="#m16a9543002" y="300.76"/>
      </g>
     </g>
     <g id="text_22">
      <!-- 6 -->
      <g transform="translate(418.932562 315.358437)scale(0.1 -0.1)">
       <use xlink:href="#DejaVuSans-36"/>
      </g>
     </g>
    </g>
   </g>
   <g id="matplotlib.axis_4">
    <g id="ytick_11">
     <g id="line2d_27">
      <g>
       <use style="stroke:#000000;stroke-width:0.8;" x="290.945445" xlink:href="#m3faa4d8eec" y="275.326669"/>
      </g>
     </g>
     <g id="text_23">
      <!-- $\mathdefault{10^{-15}}$ -->
      <g transform="translate(256.045445 279.125888)scale(0.1 -0.1)">
       <use transform="translate(0 0.684375)" xlink:href="#DejaVuSans-31"/>
       <use transform="translate(63.623047 0.684375)" xlink:href="#DejaVuSans-30"/>
       <use transform="translate(128.203125 38.965625)scale(0.7)" xlink:href="#DejaVuSans-2212"/>
       <use transform="translate(186.855469 38.965625)scale(0.7)" xlink:href="#DejaVuSans-31"/>
       <use transform="translate(231.391602 38.965625)scale(0.7)" xlink:href="#DejaVuSans-35"/>
      </g>
     </g>
    </g>
    <g id="ytick_12">
     <g id="line2d_28">
      <g>
       <use style="stroke:#000000;stroke-width:0.8;" x="290.945445" xlink:href="#m3faa4d8eec" y="242.326443"/>
      </g>
     </g>
     <g id="text_24">
      <!-- $\mathdefault{10^{-13}}$ -->
      <g transform="translate(256.045445 246.125661)scale(0.1 -0.1)">
       <use transform="translate(0 0.765625)" xlink:href="#DejaVuSans-31"/>
       <use transform="translate(63.623047 0.765625)" xlink:href="#DejaVuSans-30"/>
       <use transform="translate(128.203125 39.046875)scale(0.7)" xlink:href="#DejaVuSans-2212"/>
       <use transform="translate(186.855469 39.046875)scale(0.7)" xlink:href="#DejaVuSans-31"/>
       <use transform="translate(231.391602 39.046875)scale(0.7)" xlink:href="#DejaVuSans-33"/>
      </g>
     </g>
    </g>
    <g id="ytick_13">
     <g id="line2d_29">
      <g>
       <use style="stroke:#000000;stroke-width:0.8;" x="290.945445" xlink:href="#m3faa4d8eec" y="209.326216"/>
      </g>
     </g>
     <g id="text_25">
      <!-- $\mathdefault{10^{-11}}$ -->
      <g transform="translate(256.045445 213.125435)scale(0.1 -0.1)">
       <use transform="translate(0 0.684375)" xlink:href="#DejaVuSans-31"/>
       <use transform="translate(63.623047 0.684375)" xlink:href="#DejaVuSans-30"/>
       <use transform="translate(128.203125 38.965625)scale(0.7)" xlink:href="#DejaVuSans-2212"/>
       <use transform="translate(186.855469 38.965625)scale(0.7)" xlink:href="#DejaVuSans-31"/>
       <use transform="translate(231.391602 38.965625)scale(0.7)" xlink:href="#DejaVuSans-31"/>
      </g>
     </g>
    </g>
    <g id="ytick_14">
     <g id="line2d_30">
      <g>
       <use style="stroke:#000000;stroke-width:0.8;" x="290.945445" xlink:href="#m3faa4d8eec" y="176.325989"/>
      </g>
     </g>
     <g id="text_26">
      <!-- $\mathdefault{10^{-9}}$ -->
      <g transform="translate(260.445445 180.125208)scale(0.1 -0.1)">
       <defs>
        <path d="M 703 97 
L 703 672 
Q 941 559 1184 500 
Q 1428 441 1663 441 
Q 2288 441 2617 861 
Q 2947 1281 2994 2138 
Q 2813 1869 2534 1725 
Q 2256 1581 1919 1581 
Q 1219 1581 811 2004 
Q 403 2428 403 3163 
Q 403 3881 828 4315 
Q 1253 4750 1959 4750 
Q 2769 4750 3195 4129 
Q 3622 3509 3622 2328 
Q 3622 1225 3098 567 
Q 2575 -91 1691 -91 
Q 1453 -91 1209 -44 
Q 966 3 703 97 
z
M 1959 2075 
Q 2384 2075 2632 2365 
Q 2881 2656 2881 3163 
Q 2881 3666 2632 3958 
Q 2384 4250 1959 4250 
Q 1534 4250 1286 3958 
Q 1038 3666 1038 3163 
Q 1038 2656 1286 2365 
Q 1534 2075 1959 2075 
z
" id="DejaVuSans-39" transform="scale(0.015625)"/>
       </defs>
       <use transform="translate(0 0.765625)" xlink:href="#DejaVuSans-31"/>
       <use transform="translate(63.623047 0.765625)" xlink:href="#DejaVuSans-30"/>
       <use transform="translate(128.203125 39.046875)scale(0.7)" xlink:href="#DejaVuSans-2212"/>
       <use transform="translate(186.855469 39.046875)scale(0.7)" xlink:href="#DejaVuSans-39"/>
      </g>
     </g>
    </g>
    <g id="ytick_15">
     <g id="line2d_31">
      <g>
       <use style="stroke:#000000;stroke-width:0.8;" x="290.945445" xlink:href="#m3faa4d8eec" y="143.325762"/>
      </g>
     </g>
     <g id="text_27">
      <!-- $\mathdefault{10^{-7}}$ -->
      <g transform="translate(260.445445 147.124981)scale(0.1 -0.1)">
       <use transform="translate(0 0.684375)" xlink:href="#DejaVuSans-31"/>
       <use transform="translate(63.623047 0.684375)" xlink:href="#DejaVuSans-30"/>
       <use transform="translate(128.203125 38.965625)scale(0.7)" xlink:href="#DejaVuSans-2212"/>
       <use transform="translate(186.855469 38.965625)scale(0.7)" xlink:href="#DejaVuSans-37"/>
      </g>
     </g>
    </g>
    <g id="ytick_16">
     <g id="line2d_32">
      <g>
       <use style="stroke:#000000;stroke-width:0.8;" x="290.945445" xlink:href="#m3faa4d8eec" y="110.325535"/>
      </g>
     </g>
     <g id="text_28">
      <!-- $\mathdefault{10^{-5}}$ -->
      <g transform="translate(260.445445 114.124754)scale(0.1 -0.1)">
       <use transform="translate(0 0.684375)" xlink:href="#DejaVuSans-31"/>
       <use transform="translate(63.623047 0.684375)" xlink:href="#DejaVuSans-30"/>
       <use transform="translate(128.203125 38.965625)scale(0.7)" xlink:href="#DejaVuSans-2212"/>
       <use transform="translate(186.855469 38.965625)scale(0.7)" xlink:href="#DejaVuSans-35"/>
      </g>
     </g>
    </g>
    <g id="ytick_17">
     <g id="line2d_33">
      <g>
       <use style="stroke:#000000;stroke-width:0.8;" x="290.945445" xlink:href="#m3faa4d8eec" y="77.325309"/>
      </g>
     </g>
     <g id="text_29">
      <!-- $\mathdefault{10^{-3}}$ -->
      <g transform="translate(260.445445 81.124527)scale(0.1 -0.1)">
       <use transform="translate(0 0.765625)" xlink:href="#DejaVuSans-31"/>
       <use transform="translate(63.623047 0.765625)" xlink:href="#DejaVuSans-30"/>
       <use transform="translate(128.203125 39.046875)scale(0.7)" xlink:href="#DejaVuSans-2212"/>
       <use transform="translate(186.855469 39.046875)scale(0.7)" xlink:href="#DejaVuSans-33"/>
      </g>
     </g>
    </g>
    <g id="ytick_18">
     <g id="line2d_34">
      <g>
       <use style="stroke:#000000;stroke-width:0.8;" x="290.945445" xlink:href="#m3faa4d8eec" y="44.325082"/>
      </g>
     </g>
     <g id="text_30">
      <!-- $\mathdefault{10^{-1}}$ -->
      <g transform="translate(260.445445 48.124301)scale(0.1 -0.1)">
       <use transform="translate(0 0.684375)" xlink:href="#DejaVuSans-31"/>
       <use transform="translate(63.623047 0.684375)" xlink:href="#DejaVuSans-30"/>
       <use transform="translate(128.203125 38.965625)scale(0.7)" xlink:href="#DejaVuSans-2212"/>
       <use transform="translate(186.855469 38.965625)scale(0.7)" xlink:href="#DejaVuSans-31"/>
      </g>
     </g>
    </g>
   </g>
   <g id="line2d_35">
    <defs>
     <path d="M 0 3 
C 0.795609 3 1.55874 2.683901 2.12132 2.12132 
C 2.683901 1.55874 3 0.795609 3 0 
C 3 -0.795609 2.683901 -1.55874 2.12132 -2.12132 
C 1.55874 -2.683901 0.795609 -3 0 -3 
C -0.795609 -3 -1.55874 -2.683901 -2.12132 -2.12132 
C -2.683901 -1.55874 -3 -0.795609 -3 0 
C -3 0.795609 -2.683901 1.55874 -2.12132 2.12132 
C -1.55874 2.683901 -0.795609 3 0 3 
z
" id="mbae984857c" style="stroke:#1f77b4;"/>
    </defs>
    <g clip-path="url(#pbf404f94bb)">
     <use style="fill:#1f77b4;stroke:#1f77b4;" x="298.175197" xlink:href="#mbae984857c" y="27.76"/>
    </g>
   </g>
   <g id="line2d_36">
    <g clip-path="url(#pbf404f94bb)">
     <use style="fill:#1f77b4;stroke:#1f77b4;" x="318.831633" xlink:href="#mbae984857c" y="68.739775"/>
    </g>
   </g>
   <g id="line2d_37">
    <g clip-path="url(#pbf404f94bb)">
     <use style="fill:#1f77b4;stroke:#1f77b4;" x="339.488069" xlink:href="#mbae984857c" y="94.010133"/>
    </g>
   </g>
   <g id="line2d_38">
    <g clip-path="url(#pbf404f94bb)">
     <use style="fill:#1f77b4;stroke:#1f77b4;" x="360.144504" xlink:href="#mbae984857c" y="158.719729"/>
    </g>
   </g>
   <g id="line2d_39">
    <g clip-path="url(#pbf404f94bb)">
     <use style="fill:#1f77b4;stroke:#1f77b4;" x="380.80094" xlink:href="#mbae984857c" y="77.855851"/>
    </g>
   </g>
   <g id="line2d_40">
    <g clip-path="url(#pbf404f94bb)">
     <use style="fill:#1f77b4;stroke:#1f77b4;" x="401.457376" xlink:href="#mbae984857c" y="198.460703"/>
    </g>
   </g>
   <g id="line2d_41">
    <g clip-path="url(#pbf404f94bb)">
     <use style="fill:#1f77b4;stroke:#1f77b4;" x="422.113812" xlink:href="#mbae984857c" y="244.220916"/>
    </g>
   </g>
   <g id="line2d_42">
    <g clip-path="url(#pbf404f94bb)">
     <use style="fill:#1f77b4;stroke:#1f77b4;" x="442.770247" xlink:href="#mbae984857c" y="287.76"/>
    </g>
   </g>
   <g id="line2d_43">
    <defs>
     <path d="M -5 0 
L 5 0 
M 0 5 
L 0 -5 
" id="mfa9c60078f" style="stroke:#17becf;"/>
    </defs>
    <g clip-path="url(#pbf404f94bb)">
     <use style="fill:#17becf;stroke:#17becf;" x="298.175197" xlink:href="#mfa9c60078f" y="27.845061"/>
     <use style="fill:#17becf;stroke:#17becf;" x="318.831633" xlink:href="#mfa9c60078f" y="70.154872"/>
     <use style="fill:#17becf;stroke:#17becf;" x="339.488069" xlink:href="#mfa9c60078f" y="94.735766"/>
     <use style="fill:#17becf;stroke:#17becf;" x="360.144504" xlink:href="#mfa9c60078f" y="133.997002"/>
     <use style="fill:#17becf;stroke:#17becf;" x="380.80094" xlink:href="#mfa9c60078f" y="164.735805"/>
    </g>
   </g>
   <g id="line2d_44">
    <defs>
     <path d="M 0 3 
C 0.795609 3 1.55874 2.683901 2.12132 2.12132 
C 2.683901 1.55874 3 0.795609 3 0 
C 3 -0.795609 2.683901 -1.55874 2.12132 -2.12132 
C 1.55874 -2.683901 0.795609 -3 0 -3 
C -0.795609 -3 -1.55874 -2.683901 -2.12132 -2.12132 
C -2.683901 -1.55874 -3 -0.795609 -3 0 
C -3 0.795609 -2.683901 1.55874 -2.12132 2.12132 
C -1.55874 2.683901 -0.795609 3 0 3 
z
" id="m719e7dd678" style="stroke:#ff7f0e;"/>
    </defs>
    <g clip-path="url(#pbf404f94bb)">
     <use style="fill:#ff7f0e;stroke:#ff7f0e;" x="298.175197" xlink:href="#m719e7dd678" y="39.553142"/>
    </g>
   </g>
   <g id="line2d_45">
    <g clip-path="url(#pbf404f94bb)">
     <use style="fill:#ff7f0e;stroke:#ff7f0e;" x="318.831633" xlink:href="#m719e7dd678" y="27.786495"/>
    </g>
   </g>
   <g id="line2d_46">
    <g clip-path="url(#pbf404f94bb)">
     <use style="fill:#ff7f0e;stroke:#ff7f0e;" x="339.488069" xlink:href="#m719e7dd678" y="50.009262"/>
    </g>
   </g>
   <g id="line2d_47">
    <g clip-path="url(#pbf404f94bb)">
     <use style="fill:#ff7f0e;stroke:#ff7f0e;" x="360.144504" xlink:href="#m719e7dd678" y="48.323232"/>
    </g>
   </g>
   <g id="line2d_48">
    <g clip-path="url(#pbf404f94bb)">
     <use style="fill:#ff7f0e;stroke:#ff7f0e;" x="380.80094" xlink:href="#m719e7dd678" y="69.00851"/>
    </g>
   </g>
   <g id="line2d_49">
    <g clip-path="url(#pbf404f94bb)">
     <use style="fill:#ff7f0e;stroke:#ff7f0e;" x="401.457376" xlink:href="#m719e7dd678" y="81.471259"/>
    </g>
   </g>
   <g id="line2d_50">
    <g clip-path="url(#pbf404f94bb)">
     <use style="fill:#ff7f0e;stroke:#ff7f0e;" x="422.113812" xlink:href="#m719e7dd678" y="83.973502"/>
    </g>
   </g>
   <g id="line2d_51">
    <g clip-path="url(#pbf404f94bb)">
     <use style="fill:#ff7f0e;stroke:#ff7f0e;" x="442.770247" xlink:href="#m719e7dd678" y="133.48163"/>
    </g>
   </g>
   <g id="line2d_52">
    <defs>
     <path d="M -5 0 
L 5 0 
M 0 5 
L 0 -5 
" id="m5eb413f31a" style="stroke:#bcbd22;"/>
    </defs>
    <g clip-path="url(#pbf404f94bb)">
     <use style="fill:#bcbd22;stroke:#bcbd22;" x="298.175197" xlink:href="#m5eb413f31a" y="70.363369"/>
     <use style="fill:#bcbd22;stroke:#bcbd22;" x="318.831633" xlink:href="#m5eb413f31a" y="27.881082"/>
     <use style="fill:#bcbd22;stroke:#bcbd22;" x="339.488069" xlink:href="#m5eb413f31a" y="66.022322"/>
     <use style="fill:#bcbd22;stroke:#bcbd22;" x="360.144504" xlink:href="#m5eb413f31a" y="86.729135"/>
     <use style="fill:#bcbd22;stroke:#bcbd22;" x="380.80094" xlink:href="#m5eb413f31a" y="122.117635"/>
    </g>
   </g>
   <g id="patch_8">
    <path d="M 290.945445 300.76 
L 290.945445 14.76 
" style="fill:none;stroke:#000000;stroke-linecap:square;stroke-linejoin:miter;stroke-width:0.8;"/>
   </g>
   <g id="patch_9">
    <path d="M 450 300.76 
L 450 14.76 
" style="fill:none;stroke:#000000;stroke-linecap:square;stroke-linejoin:miter;stroke-width:0.8;"/>
   </g>
   <g id="patch_10">
    <path d="M 290.945445 300.76 
L 450 300.76 
" style="fill:none;stroke:#000000;stroke-linecap:square;stroke-linejoin:miter;stroke-width:0.8;"/>
   </g>
   <g id="patch_11">
    <path d="M 290.945445 14.76 
L 450 14.76 
" style="fill:none;stroke:#000000;stroke-linecap:square;stroke-linejoin:miter;stroke-width:0.8;"/>
   </g>
   <g id="legend_1">
    <g id="patch_12">
     <path d="M 297.945445 295.76 
L 383.447007 295.76 
Q 385.447007 295.76 385.447007 293.76 
L 385.447007 248.0475 
Q 385.447007 246.0475 383.447007 246.0475 
L 297.945445 246.0475 
Q 295.945445 246.0475 295.945445 248.0475 
L 295.945445 293.76 
Q 295.945445 295.76 297.945445 295.76 
z
" style="fill:#ffffff;opacity:0.8;stroke:#cccccc;stroke-linejoin:miter;"/>
    </g>
    <g id="line2d_53"/>
    <g id="line2d_54">
     <g>
      <use style="fill:#1f77b4;stroke:#1f77b4;" x="309.945445" xlink:href="#mbae984857c" y="254.145937"/>
     </g>
    </g>
    <g id="text_31">
     <!-- v"=0 -->
     <g transform="translate(327.945445 257.645937)scale(0.1 -0.1)">
      <defs>
       <path d="M 191 3500 
L 800 3500 
L 1894 563 
L 2988 3500 
L 3597 3500 
L 2284 0 
L 1503 0 
L 191 3500 
z
" id="DejaVuSans-76" transform="scale(0.015625)"/>
       <path d="M 1147 4666 
L 1147 2931 
L 616 2931 
L 616 4666 
L 1147 4666 
z
M 2328 4666 
L 2328 2931 
L 1797 2931 
L 1797 4666 
L 2328 4666 
z
" id="DejaVuSans-22" transform="scale(0.015625)"/>
       <path d="M 678 2906 
L 4684 2906 
L 4684 2381 
L 678 2381 
L 678 2906 
z
M 678 1631 
L 4684 1631 
L 4684 1100 
L 678 1100 
L 678 1631 
z
" id="DejaVuSans-3d" transform="scale(0.015625)"/>
      </defs>
      <use xlink:href="#DejaVuSans-76"/>
      <use x="59.179688" xlink:href="#DejaVuSans-22"/>
      <use x="105.175781" xlink:href="#DejaVuSans-3d"/>
      <use x="188.964844" xlink:href="#DejaVuSans-30"/>
     </g>
    </g>
    <g id="line2d_55"/>
    <g id="line2d_56">
     <g>
      <use style="fill:#17becf;stroke:#17becf;" x="309.945445" xlink:href="#mfa9c60078f" y="264.824062"/>
     </g>
    </g>
    <g id="text_32">
     <!-- Sorkhabi 0 -->
     <g transform="translate(327.945445 268.324062)scale(0.1 -0.1)">
      <defs>
       <path d="M 3425 4513 
L 3425 3897 
Q 3066 4069 2747 4153 
Q 2428 4238 2131 4238 
Q 1616 4238 1336 4038 
Q 1056 3838 1056 3469 
Q 1056 3159 1242 3001 
Q 1428 2844 1947 2747 
L 2328 2669 
Q 3034 2534 3370 2195 
Q 3706 1856 3706 1288 
Q 3706 609 3251 259 
Q 2797 -91 1919 -91 
Q 1588 -91 1214 -16 
Q 841 59 441 206 
L 441 856 
Q 825 641 1194 531 
Q 1563 422 1919 422 
Q 2459 422 2753 634 
Q 3047 847 3047 1241 
Q 3047 1584 2836 1778 
Q 2625 1972 2144 2069 
L 1759 2144 
Q 1053 2284 737 2584 
Q 422 2884 422 3419 
Q 422 4038 858 4394 
Q 1294 4750 2059 4750 
Q 2388 4750 2728 4690 
Q 3069 4631 3425 4513 
z
" id="DejaVuSans-53" transform="scale(0.015625)"/>
       <path d="M 581 4863 
L 1159 4863 
L 1159 1991 
L 2875 3500 
L 3609 3500 
L 1753 1863 
L 3688 0 
L 2938 0 
L 1159 1709 
L 1159 0 
L 581 0 
L 581 4863 
z
" id="DejaVuSans-6b" transform="scale(0.015625)"/>
       <path d="M 3513 2113 
L 3513 0 
L 2938 0 
L 2938 2094 
Q 2938 2591 2744 2837 
Q 2550 3084 2163 3084 
Q 1697 3084 1428 2787 
Q 1159 2491 1159 1978 
L 1159 0 
L 581 0 
L 581 4863 
L 1159 4863 
L 1159 2956 
Q 1366 3272 1645 3428 
Q 1925 3584 2291 3584 
Q 2894 3584 3203 3211 
Q 3513 2838 3513 2113 
z
" id="DejaVuSans-68" transform="scale(0.015625)"/>
       <path d="M 3116 1747 
Q 3116 2381 2855 2742 
Q 2594 3103 2138 3103 
Q 1681 3103 1420 2742 
Q 1159 2381 1159 1747 
Q 1159 1113 1420 752 
Q 1681 391 2138 391 
Q 2594 391 2855 752 
Q 3116 1113 3116 1747 
z
M 1159 2969 
Q 1341 3281 1617 3432 
Q 1894 3584 2278 3584 
Q 2916 3584 3314 3078 
Q 3713 2572 3713 1747 
Q 3713 922 3314 415 
Q 2916 -91 2278 -91 
Q 1894 -91 1617 61 
Q 1341 213 1159 525 
L 1159 0 
L 581 0 
L 581 4863 
L 1159 4863 
L 1159 2969 
z
" id="DejaVuSans-62" transform="scale(0.015625)"/>
      </defs>
      <use xlink:href="#DejaVuSans-53"/>
      <use x="63.476562" xlink:href="#DejaVuSans-6f"/>
      <use x="124.658203" xlink:href="#DejaVuSans-72"/>
      <use x="165.771484" xlink:href="#DejaVuSans-6b"/>
      <use x="223.681641" xlink:href="#DejaVuSans-68"/>
      <use x="287.060547" xlink:href="#DejaVuSans-61"/>
      <use x="348.339844" xlink:href="#DejaVuSans-62"/>
      <use x="411.816406" xlink:href="#DejaVuSans-69"/>
      <use x="439.599609" xlink:href="#DejaVuSans-20"/>
      <use x="471.386719" xlink:href="#DejaVuSans-30"/>
     </g>
    </g>
    <g id="line2d_57"/>
    <g id="line2d_58">
     <g>
      <use style="fill:#ff7f0e;stroke:#ff7f0e;" x="309.945445" xlink:href="#m719e7dd678" y="275.502187"/>
     </g>
    </g>
    <g id="text_33">
     <!-- v"=1 -->
     <g transform="translate(327.945445 279.002187)scale(0.1 -0.1)">
      <use xlink:href="#DejaVuSans-76"/>
      <use x="59.179688" xlink:href="#DejaVuSans-22"/>
      <use x="105.175781" xlink:href="#DejaVuSans-3d"/>
      <use x="188.964844" xlink:href="#DejaVuSans-31"/>
     </g>
    </g>
    <g id="line2d_59"/>
    <g id="line2d_60">
     <g>
      <use style="fill:#bcbd22;stroke:#bcbd22;" x="309.945445" xlink:href="#m5eb413f31a" y="286.180312"/>
     </g>
    </g>
    <g id="text_34">
     <!-- Sorkhabi 1 -->
     <g transform="translate(327.945445 289.680312)scale(0.1 -0.1)">
      <use xlink:href="#DejaVuSans-53"/>
      <use x="63.476562" xlink:href="#DejaVuSans-6f"/>
      <use x="124.658203" xlink:href="#DejaVuSans-72"/>
      <use x="165.771484" xlink:href="#DejaVuSans-6b"/>
      <use x="223.681641" xlink:href="#DejaVuSans-68"/>
      <use x="287.060547" xlink:href="#DejaVuSans-61"/>
      <use x="348.339844" xlink:href="#DejaVuSans-62"/>
      <use x="411.816406" xlink:href="#DejaVuSans-69"/>
      <use x="439.599609" xlink:href="#DejaVuSans-20"/>
      <use x="471.386719" xlink:href="#DejaVuSans-31"/>
     </g>
    </g>
   </g>
  </g>
 </g>
 <defs>
  <clipPath id="pdc30f7dbc5">
   <rect height="286" width="159.054555" x="77.672" y="14.76"/>
  </clipPath>
  <clipPath id="pbf404f94bb">
   <rect height="286" width="159.054555" x="290.945445" y="14.76"/>
  </clipPath>
 </defs>
</svg>
